G04 #@! TF.GenerationSoftware,KiCad,Pcbnew,5.0.1*
G04 #@! TF.CreationDate,2019-01-12T14:11:00-06:00*
G04 #@! TF.ProjectId,lid,6C69642E6B696361645F706362000000,rev?*
G04 #@! TF.SameCoordinates,Original*
G04 #@! TF.FileFunction,Profile,NP*
%FSLAX46Y46*%
G04 Gerber Fmt 4.6, Leading zero omitted, Abs format (unit mm)*
G04 Created by KiCad (PCBNEW 5.0.1) date Sat 12 Jan 2019 02:11:00 PM CST*
%MOMM*%
%LPD*%
G01*
G04 APERTURE LIST*
%ADD10C,0.150000*%
%ADD11C,0.100000*%
G04 APERTURE END LIST*
D10*
X141500000Y-105000000D02*
X141500000Y-115000000D01*
X151500000Y-105000000D02*
X141500000Y-105000000D01*
X151500000Y-115000000D02*
X151500000Y-105000000D01*
X141500000Y-115000000D02*
X151500000Y-115000000D01*
D11*
X101524376Y-75501953D02*
X101258751Y-75503953D01*
X101258751Y-75503953D02*
X101377892Y-119882859D01*
X101377892Y-119882859D02*
X191717735Y-119882859D01*
X191717735Y-119882859D02*
X191717735Y-82236328D01*
X191717735Y-82236328D02*
X191452110Y-82236328D01*
X191452110Y-82236328D02*
X191452110Y-119617188D01*
X191452110Y-119617188D02*
X101641563Y-119617188D01*
X101641563Y-119617188D02*
X101524376Y-75501953D01*
X125379845Y-62287109D02*
X124515472Y-62348258D01*
X124515472Y-62348258D02*
X123647848Y-62429573D01*
X123647848Y-62429573D02*
X122778016Y-62531294D01*
X122778016Y-62531294D02*
X121907018Y-62653660D01*
X121907018Y-62653660D02*
X121035895Y-62796913D01*
X121035895Y-62796913D02*
X120165691Y-62961292D01*
X120165691Y-62961292D02*
X119297446Y-63147038D01*
X119297446Y-63147038D02*
X118432204Y-63354391D01*
X118432204Y-63354391D02*
X117571005Y-63583591D01*
X117571005Y-63583591D02*
X116714893Y-63834879D01*
X116714893Y-63834879D02*
X115864909Y-64108494D01*
X115864909Y-64108494D02*
X115022095Y-64404676D01*
X115022095Y-64404676D02*
X114187493Y-64723667D01*
X114187493Y-64723667D02*
X113362146Y-65065706D01*
X113362146Y-65065706D02*
X112547095Y-65431033D01*
X112547095Y-65431033D02*
X111743382Y-65819889D01*
X111743382Y-65819889D02*
X110952050Y-66232514D01*
X110952050Y-66232514D02*
X110174141Y-66669148D01*
X110174141Y-66669148D02*
X109410696Y-67130032D01*
X109410696Y-67130032D02*
X108662758Y-67615405D01*
X108662758Y-67615405D02*
X107931369Y-68125507D01*
X107931369Y-68125507D02*
X107217570Y-68660580D01*
X107217570Y-68660580D02*
X106522404Y-69220862D01*
X106522404Y-69220862D02*
X105846913Y-69806595D01*
X105846913Y-69806595D02*
X105192139Y-70418019D01*
X105192139Y-70418019D02*
X104559124Y-71055374D01*
X104559124Y-71055374D02*
X103948910Y-71718899D01*
X103948910Y-71718899D02*
X103362540Y-72408836D01*
X103362540Y-72408836D02*
X102801054Y-73125424D01*
X102801054Y-73125424D02*
X102265496Y-73868904D01*
X102265496Y-73868904D02*
X101756907Y-74639516D01*
X101756907Y-74639516D02*
X101276329Y-75437500D01*
X101276329Y-75437500D02*
X101506798Y-75568359D01*
X101506798Y-75568359D02*
X101981791Y-74779712D01*
X101981791Y-74779712D02*
X102484609Y-74018008D01*
X102484609Y-74018008D02*
X103014222Y-73283016D01*
X103014222Y-73283016D02*
X103569598Y-72574506D01*
X103569598Y-72574506D02*
X104149707Y-71892247D01*
X104149707Y-71892247D02*
X104753519Y-71236008D01*
X104753519Y-71236008D02*
X105380002Y-70605559D01*
X105380002Y-70605559D02*
X106028125Y-70000667D01*
X106028125Y-70000667D02*
X106696859Y-69421104D01*
X106696859Y-69421104D02*
X107385172Y-68866637D01*
X107385172Y-68866637D02*
X108092034Y-68337037D01*
X108092034Y-68337037D02*
X108816414Y-67832071D01*
X108816414Y-67832071D02*
X109557280Y-67351511D01*
X109557280Y-67351511D02*
X110313604Y-66895124D01*
X110313604Y-66895124D02*
X111084353Y-66462680D01*
X111084353Y-66462680D02*
X111868497Y-66053948D01*
X111868497Y-66053948D02*
X112665006Y-65668698D01*
X112665006Y-65668698D02*
X113472848Y-65306699D01*
X113472848Y-65306699D02*
X114290993Y-64967719D01*
X114290993Y-64967719D02*
X115118410Y-64651528D01*
X115118410Y-64651528D02*
X115954069Y-64357896D01*
X115954069Y-64357896D02*
X116796939Y-64086591D01*
X116796939Y-64086591D02*
X117645988Y-63837383D01*
X117645988Y-63837383D02*
X118500187Y-63610040D01*
X118500187Y-63610040D02*
X119358505Y-63404333D01*
X119358505Y-63404333D02*
X120219910Y-63220030D01*
X120219910Y-63220030D02*
X121083373Y-63056901D01*
X121083373Y-63056901D02*
X121947862Y-62914715D01*
X121947862Y-62914715D02*
X122812347Y-62793240D01*
X122812347Y-62793240D02*
X123675797Y-62692247D01*
X123675797Y-62692247D02*
X124537182Y-62611504D01*
X124537182Y-62611504D02*
X125395470Y-62550781D01*
X125395470Y-62550781D02*
X126249593Y-62509866D01*
X126249593Y-62509866D02*
X127098471Y-62488538D01*
X127098471Y-62488538D02*
X127941060Y-62486552D01*
X127941060Y-62486552D02*
X128776314Y-62503662D01*
X128776314Y-62503662D02*
X129603187Y-62539625D01*
X129603187Y-62539625D02*
X130420633Y-62594194D01*
X130420633Y-62594194D02*
X131227608Y-62667125D01*
X131227608Y-62667125D02*
X132023066Y-62758174D01*
X132023066Y-62758174D02*
X132805961Y-62867094D01*
X132805961Y-62867094D02*
X133575247Y-62993642D01*
X133575247Y-62993642D02*
X134329880Y-63137571D01*
X134329880Y-63137571D02*
X135068813Y-63298638D01*
X135068813Y-63298638D02*
X135791002Y-63476596D01*
X135791002Y-63476596D02*
X136495399Y-63671202D01*
X136495399Y-63671202D02*
X137180961Y-63882210D01*
X137180961Y-63882210D02*
X137846642Y-64109375D01*
X137846642Y-64109375D02*
X138491316Y-64352438D01*
X138491316Y-64352438D02*
X139113891Y-64611119D01*
X139113891Y-64611119D02*
X139713368Y-64885144D01*
X139713368Y-64885144D02*
X140288749Y-65174239D01*
X140288749Y-65174239D02*
X140839033Y-65478127D01*
X140839033Y-65478127D02*
X141363222Y-65796536D01*
X141363222Y-65796536D02*
X141860318Y-66129189D01*
X141860318Y-66129189D02*
X142329322Y-66475812D01*
X142329322Y-66475812D02*
X142769234Y-66836131D01*
X142769234Y-66836131D02*
X143179056Y-67209870D01*
X143179056Y-67209870D02*
X143557789Y-67596755D01*
X143557789Y-67596755D02*
X143904433Y-67996511D01*
X143904433Y-67996511D02*
X144217992Y-68408863D01*
X144217992Y-68408863D02*
X144497464Y-68833537D01*
X144497464Y-68833537D02*
X144741852Y-69270257D01*
X144741852Y-69270257D02*
X144950157Y-69718750D01*
X144950157Y-69718750D02*
X144954057Y-69730469D01*
X144954057Y-69730469D02*
X144959957Y-69740239D01*
X144959957Y-69740239D02*
X145509062Y-70562506D01*
X145509062Y-70562506D02*
X146074795Y-71333915D01*
X146074795Y-71333915D02*
X146660184Y-72054799D01*
X146660184Y-72054799D02*
X147268257Y-72725494D01*
X147268257Y-72725494D02*
X147902041Y-73346332D01*
X147902041Y-73346332D02*
X148564563Y-73917646D01*
X148564563Y-73917646D02*
X149258853Y-74439772D01*
X149258853Y-74439772D02*
X149618856Y-74682494D01*
X149618856Y-74682494D02*
X149987936Y-74913043D01*
X149987936Y-74913043D02*
X150366472Y-75131462D01*
X150366472Y-75131462D02*
X150754841Y-75337792D01*
X150754841Y-75337792D02*
X151153423Y-75532075D01*
X151153423Y-75532075D02*
X151562596Y-75714354D01*
X151562596Y-75714354D02*
X151982738Y-75884668D01*
X151982738Y-75884668D02*
X152414228Y-76043061D01*
X152414228Y-76043061D02*
X153312766Y-76324249D01*
X153312766Y-76324249D02*
X154261236Y-76558250D01*
X154261236Y-76558250D02*
X155262666Y-76745399D01*
X155262666Y-76745399D02*
X156320085Y-76886029D01*
X156320085Y-76886029D02*
X157436519Y-76980474D01*
X157436519Y-76980474D02*
X160090276Y-77228817D01*
X160090276Y-77228817D02*
X162859415Y-77451857D01*
X162859415Y-77451857D02*
X165704285Y-77657530D01*
X165704285Y-77657530D02*
X168585233Y-77853771D01*
X168585233Y-77853771D02*
X174296752Y-78249701D01*
X174296752Y-78249701D02*
X177048019Y-78465261D01*
X177048019Y-78465261D02*
X179676754Y-78703130D01*
X179676754Y-78703130D02*
X182143297Y-78971497D01*
X182143297Y-78971497D02*
X183303162Y-79119568D01*
X183303162Y-79119568D02*
X184407309Y-79278108D01*
X184407309Y-79278108D02*
X185450654Y-79448029D01*
X185450654Y-79448029D02*
X186428113Y-79630238D01*
X186428113Y-79630238D02*
X187334602Y-79825646D01*
X187334602Y-79825646D02*
X188165035Y-80035161D01*
X188165035Y-80035161D02*
X188914437Y-80259656D01*
X188914437Y-80259656D02*
X189577321Y-80499462D01*
X189577321Y-80499462D02*
X190147831Y-80754676D01*
X190147831Y-80754676D02*
X190396616Y-80888092D01*
X190396616Y-80888092D02*
X190620113Y-81025396D01*
X190620113Y-81025396D02*
X190817261Y-81165794D01*
X190817261Y-81165794D02*
X190987566Y-81308678D01*
X190987566Y-81308678D02*
X191131143Y-81454336D01*
X191131143Y-81454336D02*
X191248107Y-81603058D01*
X191248107Y-81603058D02*
X191338574Y-81755134D01*
X191338574Y-81755134D02*
X191402659Y-81910853D01*
X191402659Y-81910853D02*
X191440477Y-82070505D01*
X191440477Y-82070505D02*
X191452144Y-82234380D01*
X191452144Y-82234380D02*
X191717769Y-82236380D01*
X191717769Y-82236380D02*
X191702818Y-82031685D01*
X191702818Y-82031685D02*
X191655409Y-81834274D01*
X191655409Y-81834274D02*
X191576889Y-81644182D01*
X191576889Y-81644182D02*
X191468600Y-81461445D01*
X191468600Y-81461445D02*
X191331887Y-81286096D01*
X191331887Y-81286096D02*
X191168094Y-81118173D01*
X191168094Y-81118173D02*
X190978565Y-80957709D01*
X190978565Y-80957709D02*
X190764644Y-80804740D01*
X190764644Y-80804740D02*
X190527039Y-80658469D01*
X190527039Y-80658469D02*
X190265918Y-80517899D01*
X190265918Y-80517899D02*
X189675270Y-80252803D01*
X189675270Y-80252803D02*
X188996984Y-80007327D01*
X188996984Y-80007327D02*
X188235347Y-79779349D01*
X188235347Y-79779349D02*
X187394771Y-79567177D01*
X187394771Y-79567177D02*
X186480026Y-79369844D01*
X186480026Y-79369844D02*
X185495936Y-79186316D01*
X185495936Y-79186316D02*
X184447323Y-79015557D01*
X184447323Y-79015557D02*
X183339010Y-78856532D01*
X183339010Y-78856532D02*
X182175819Y-78708205D01*
X182175819Y-78708205D02*
X179704097Y-78439505D01*
X179704097Y-78439505D02*
X177071207Y-78201308D01*
X177071207Y-78201308D02*
X174316928Y-77985669D01*
X174316928Y-77985669D02*
X168602900Y-77590152D01*
X168602900Y-77590152D02*
X165722501Y-77394320D01*
X165722501Y-77394320D02*
X162879412Y-77189136D01*
X162879412Y-77189136D02*
X160113308Y-76966622D01*
X160113308Y-76966622D02*
X157463863Y-76718802D01*
X157463863Y-76718802D02*
X157459963Y-76718802D01*
X157459963Y-76718802D02*
X157457963Y-76716802D01*
X157457963Y-76716802D02*
X156352718Y-76624063D01*
X156352718Y-76624063D02*
X155307700Y-76486574D01*
X155307700Y-76486574D02*
X154319661Y-76303861D01*
X154319661Y-76303861D02*
X153385353Y-76075451D01*
X153385353Y-76075451D02*
X152501530Y-75800870D01*
X152501530Y-75800870D02*
X152077534Y-75646117D01*
X152077534Y-75646117D02*
X151664942Y-75479643D01*
X151664942Y-75479643D02*
X151263347Y-75301390D01*
X151263347Y-75301390D02*
X150872343Y-75111298D01*
X150872343Y-75111298D02*
X150491525Y-74909308D01*
X150491525Y-74909308D02*
X150120485Y-74695360D01*
X150120485Y-74695360D02*
X149758819Y-74469396D01*
X149758819Y-74469396D02*
X149406121Y-74231356D01*
X149406121Y-74231356D02*
X148726002Y-73718811D01*
X148726002Y-73718811D02*
X148076881Y-73157251D01*
X148076881Y-73157251D02*
X147455510Y-72546204D01*
X147455510Y-72546204D02*
X146858642Y-71885195D01*
X146858642Y-71885195D02*
X146283030Y-71173749D01*
X146283030Y-71173749D02*
X145725424Y-70411395D01*
X145725424Y-70411395D02*
X145182579Y-69597656D01*
X145182579Y-69597656D02*
X145192379Y-69617187D01*
X145192379Y-69617187D02*
X144975818Y-69150447D01*
X144975818Y-69150447D02*
X144722655Y-68697038D01*
X144722655Y-68697038D02*
X144433964Y-68257159D01*
X144433964Y-68257159D02*
X144110818Y-67831004D01*
X144110818Y-67831004D02*
X143754293Y-67418772D01*
X143754293Y-67418772D02*
X143365460Y-67020660D01*
X143365460Y-67020660D02*
X142945394Y-66636863D01*
X142945394Y-66636863D02*
X142495170Y-66267578D01*
X142495170Y-66267578D02*
X142015859Y-65913004D01*
X142015859Y-65913004D02*
X141508537Y-65573335D01*
X141508537Y-65573335D02*
X140974277Y-65248769D01*
X140974277Y-65248769D02*
X140414152Y-64939504D01*
X140414152Y-64939504D02*
X139829237Y-64645735D01*
X139829237Y-64645735D02*
X139220605Y-64367659D01*
X139220605Y-64367659D02*
X138589329Y-64105474D01*
X138589329Y-64105474D02*
X137936485Y-63859375D01*
X137936485Y-63859375D02*
X137263046Y-63629550D01*
X137263046Y-63629550D02*
X136569958Y-63416207D01*
X136569958Y-63416207D02*
X135858250Y-63219572D01*
X135858250Y-63219572D02*
X135128950Y-63039873D01*
X135128950Y-63039873D02*
X134383089Y-62877336D01*
X134383089Y-62877336D02*
X133621695Y-62732188D01*
X133621695Y-62732188D02*
X132845797Y-62604658D01*
X132845797Y-62604658D02*
X132056424Y-62494971D01*
X132056424Y-62494971D02*
X131254606Y-62403355D01*
X131254606Y-62403355D02*
X130441371Y-62330037D01*
X130441371Y-62330037D02*
X129617749Y-62275245D01*
X129617749Y-62275245D02*
X128784768Y-62239205D01*
X128784768Y-62239205D02*
X127943458Y-62222144D01*
X127943458Y-62222144D02*
X127094848Y-62224290D01*
X127094848Y-62224290D02*
X126239968Y-62245869D01*
X126239968Y-62245869D02*
X125379845Y-62287109D01*
X125379845Y-62287109D02*
X125379845Y-62287109D01*
M02*
