G04 #@! TF.GenerationSoftware,KiCad,Pcbnew,5.0.1*
G04 #@! TF.CreationDate,2019-01-19T11:15:44-06:00*
G04 #@! TF.ProjectId,badge,62616467652E6B696361645F70636200,rev?*
G04 #@! TF.SameCoordinates,Original*
G04 #@! TF.FileFunction,Paste,Top*
G04 #@! TF.FilePolarity,Positive*
%FSLAX46Y46*%
G04 Gerber Fmt 4.6, Leading zero omitted, Abs format (unit mm)*
G04 Created by KiCad (PCBNEW 5.0.1) date Sat 19 Jan 2019 11:15:44 AM CST*
%MOMM*%
%LPD*%
G01*
G04 APERTURE LIST*
%ADD10R,1.550000X0.600000*%
%ADD11R,1.600000X1.000000*%
%ADD12O,0.900000X2.500000*%
%ADD13O,2.500000X0.900000*%
%ADD14R,6.000000X6.000000*%
%ADD15R,1.500000X1.250000*%
%ADD16R,1.500000X1.300000*%
%ADD17R,1.250000X1.500000*%
%ADD18R,3.800000X2.000000*%
%ADD19R,1.500000X2.000000*%
%ADD20R,1.380000X0.450000*%
%ADD21R,2.100000X1.475000*%
%ADD22R,1.900000X2.375000*%
%ADD23R,1.900000X1.175000*%
%ADD24R,1.300000X1.500000*%
%ADD25R,1.560000X0.650000*%
G04 APERTURE END LIST*
D10*
G04 #@! TO.C,U2*
X95156000Y-113665000D03*
X95156000Y-114935000D03*
X95156000Y-116205000D03*
X95156000Y-117475000D03*
X89756000Y-117475000D03*
X89756000Y-116205000D03*
X89756000Y-114935000D03*
X89756000Y-113665000D03*
G04 #@! TD*
D11*
G04 #@! TO.C,0101*
X84920000Y-93828576D03*
X84920000Y-96978576D03*
X90170000Y-93828576D03*
X90170000Y-97028576D03*
G04 #@! TD*
G04 #@! TO.C,0001*
X102215000Y-93825576D03*
X102215000Y-96975576D03*
X107465000Y-93825576D03*
X107465000Y-97025576D03*
G04 #@! TD*
G04 #@! TO.C,0100*
X155555000Y-93825576D03*
X155555000Y-96975576D03*
X160805000Y-93825576D03*
X160805000Y-97025576D03*
G04 #@! TD*
G04 #@! TO.C,1000*
X164145000Y-93853576D03*
X164145000Y-97003576D03*
X169395000Y-93853576D03*
X169395000Y-97053576D03*
G04 #@! TD*
G04 #@! TO.C,1100*
X146665000Y-93825576D03*
X146665000Y-96975576D03*
X151915000Y-93825576D03*
X151915000Y-97025576D03*
G04 #@! TD*
G04 #@! TO.C,0010*
X137775000Y-93825576D03*
X137775000Y-96975576D03*
X143025000Y-93825576D03*
X143025000Y-97025576D03*
G04 #@! TD*
G04 #@! TO.C,1010*
X128885000Y-93825576D03*
X128885000Y-96975576D03*
X134135000Y-93825576D03*
X134135000Y-97025576D03*
G04 #@! TD*
G04 #@! TO.C,0110*
X119995000Y-93825576D03*
X119995000Y-96975576D03*
X125245000Y-93825576D03*
X125245000Y-97025576D03*
G04 #@! TD*
G04 #@! TO.C,1110*
X111105000Y-93825576D03*
X111105000Y-96975576D03*
X116355000Y-93825576D03*
X116355000Y-97025576D03*
G04 #@! TD*
G04 #@! TO.C,1001*
X93325000Y-93825576D03*
X93325000Y-96975576D03*
X98575000Y-93825576D03*
X98575000Y-97025576D03*
G04 #@! TD*
D12*
G04 #@! TO.C,U1*
X162730000Y-128380000D03*
X161460000Y-128380000D03*
X160190000Y-128380000D03*
X158920000Y-128380000D03*
X157650000Y-128380000D03*
X156380000Y-128380000D03*
X155110000Y-128380000D03*
X153840000Y-128380000D03*
X152570000Y-128380000D03*
X151300000Y-128380000D03*
X150030000Y-128380000D03*
X148760000Y-128380000D03*
X147490000Y-128380000D03*
X146220000Y-128380000D03*
D13*
X144730000Y-125095000D03*
X144730000Y-123825000D03*
X144730000Y-122555000D03*
X144730000Y-121285000D03*
X144730000Y-120015000D03*
X144730000Y-118745000D03*
X144730000Y-117475000D03*
X144730000Y-116205000D03*
X144730000Y-114935000D03*
X144730000Y-113665000D03*
D12*
X146220000Y-110380000D03*
X147490000Y-110380000D03*
X148760000Y-110380000D03*
X150030000Y-110380000D03*
X151300000Y-110380000D03*
X152570000Y-110380000D03*
X153840000Y-110380000D03*
X155110000Y-110380000D03*
X156380000Y-110380000D03*
X157650000Y-110380000D03*
X158920000Y-110380000D03*
X160190000Y-110380000D03*
X161460000Y-110380000D03*
X162730000Y-110380000D03*
D14*
X155030000Y-119080000D03*
G04 #@! TD*
D15*
G04 #@! TO.C,C1*
X164034000Y-99301000D03*
X166534000Y-99301000D03*
G04 #@! TD*
G04 #@! TO.C,C2*
X155632000Y-99301000D03*
X158132000Y-99301000D03*
G04 #@! TD*
G04 #@! TO.C,C3*
X146488000Y-99301000D03*
X148988000Y-99301000D03*
G04 #@! TD*
G04 #@! TO.C,C4*
X137618000Y-99301000D03*
X140118000Y-99301000D03*
G04 #@! TD*
G04 #@! TO.C,C5*
X128708000Y-99301000D03*
X131208000Y-99301000D03*
G04 #@! TD*
G04 #@! TO.C,C6*
X120072000Y-99301000D03*
X122572000Y-99301000D03*
G04 #@! TD*
G04 #@! TO.C,C7*
X110928000Y-99301000D03*
X113428000Y-99301000D03*
G04 #@! TD*
G04 #@! TO.C,C8*
X101784000Y-99301000D03*
X104284000Y-99301000D03*
G04 #@! TD*
G04 #@! TO.C,C9*
X93148000Y-99301000D03*
X95648000Y-99301000D03*
G04 #@! TD*
G04 #@! TO.C,C10*
X83770000Y-99301000D03*
X86270000Y-99301000D03*
G04 #@! TD*
G04 #@! TO.C,C11*
X161070000Y-106647000D03*
X163570000Y-106647000D03*
G04 #@! TD*
G04 #@! TO.C,C12*
X165820000Y-106647000D03*
X168320000Y-106647000D03*
G04 #@! TD*
G04 #@! TO.C,C13*
X165820000Y-108839000D03*
X168320000Y-108839000D03*
G04 #@! TD*
D16*
G04 #@! TO.C,R1*
X156120000Y-106647000D03*
X158820000Y-106647000D03*
G04 #@! TD*
D15*
G04 #@! TO.C,C14*
X87820000Y-119897000D03*
X90320000Y-119897000D03*
G04 #@! TD*
D17*
G04 #@! TO.C,C15*
X97820000Y-116397000D03*
X97820000Y-113897000D03*
G04 #@! TD*
D15*
G04 #@! TO.C,C16*
X107320000Y-119897000D03*
X104820000Y-119897000D03*
G04 #@! TD*
G04 #@! TO.C,C17*
X99320000Y-111397000D03*
X96820000Y-111397000D03*
G04 #@! TD*
G04 #@! TO.C,C18*
X102320000Y-119897000D03*
X99820000Y-119897000D03*
G04 #@! TD*
G04 #@! TO.C,C19*
X92820000Y-119897000D03*
X95320000Y-119897000D03*
G04 #@! TD*
D16*
G04 #@! TO.C,R2*
X96720000Y-108397000D03*
X99420000Y-108397000D03*
G04 #@! TD*
D18*
G04 #@! TO.C,U4*
X105320000Y-110397000D03*
D19*
X105320000Y-116697000D03*
X107620000Y-116697000D03*
X103020000Y-116697000D03*
G04 #@! TD*
D20*
G04 #@! TO.C,J10*
X85464000Y-113011000D03*
X85464000Y-113661000D03*
X85464000Y-114311000D03*
X85464000Y-114961000D03*
X85464000Y-115611000D03*
D21*
X85104000Y-111848500D03*
X85104000Y-116773500D03*
D22*
X82804000Y-111401000D03*
X82804000Y-117221000D03*
D23*
X82804000Y-113471000D03*
X82804000Y-115151000D03*
G04 #@! TD*
D24*
G04 #@! TO.C,R3*
X110744000Y-111807000D03*
X110744000Y-114507000D03*
G04 #@! TD*
D25*
G04 #@! TO.C,U3*
X93124000Y-111501000D03*
X93124000Y-110551000D03*
X93124000Y-109601000D03*
X90424000Y-109601000D03*
X90424000Y-111501000D03*
G04 #@! TD*
D24*
G04 #@! TO.C,R4*
X140320000Y-121597000D03*
X140320000Y-124297000D03*
G04 #@! TD*
M02*
