G04 #@! TF.GenerationSoftware,KiCad,Pcbnew,5.0.1*
G04 #@! TF.CreationDate,2019-03-26T00:27:03-05:00*
G04 #@! TF.ProjectId,badge,62616467652E6B696361645F70636200,rev?*
G04 #@! TF.SameCoordinates,Original*
G04 #@! TF.FileFunction,Soldermask,Top*
G04 #@! TF.FilePolarity,Negative*
%FSLAX46Y46*%
G04 Gerber Fmt 4.6, Leading zero omitted, Abs format (unit mm)*
G04 Created by KiCad (PCBNEW 5.0.1) date Tue 26 Mar 2019 12:27:03 AM CDT*
%MOMM*%
%LPD*%
G01*
G04 APERTURE LIST*
%ADD10C,0.100000*%
G04 APERTURE END LIST*
D10*
G36*
X161725229Y-132431980D02*
X163581510Y-133200877D01*
X163581512Y-133200878D01*
X165229897Y-134302293D01*
X165252124Y-134317145D01*
X166672855Y-135737876D01*
X167789123Y-137408490D01*
X168558020Y-139264771D01*
X168950000Y-141235386D01*
X168950000Y-143244614D01*
X168558020Y-145215229D01*
X167789123Y-147071510D01*
X166672855Y-148742124D01*
X165252124Y-150162855D01*
X165252121Y-150162857D01*
X163581512Y-151279122D01*
X163581511Y-151279123D01*
X163581510Y-151279123D01*
X161725229Y-152048020D01*
X159754614Y-152440000D01*
X157745386Y-152440000D01*
X155774771Y-152048020D01*
X153918490Y-151279123D01*
X153918489Y-151279123D01*
X153918488Y-151279122D01*
X152247879Y-150162857D01*
X152247876Y-150162855D01*
X150827145Y-148742124D01*
X149710877Y-147071510D01*
X148941980Y-145215229D01*
X148550000Y-143244614D01*
X148550000Y-141235386D01*
X148941980Y-139264771D01*
X149710877Y-137408490D01*
X150827145Y-135737876D01*
X152247876Y-134317145D01*
X152270103Y-134302293D01*
X153918488Y-133200878D01*
X153918490Y-133200877D01*
X155774771Y-132431980D01*
X157745386Y-132040000D01*
X159754614Y-132040000D01*
X161725229Y-132431980D01*
X161725229Y-132431980D01*
G37*
G36*
X118545229Y-132431980D02*
X120401510Y-133200877D01*
X120401512Y-133200878D01*
X122049897Y-134302293D01*
X122072124Y-134317145D01*
X123492855Y-135737876D01*
X124609123Y-137408490D01*
X125378020Y-139264771D01*
X125770000Y-141235386D01*
X125770000Y-143244614D01*
X125378020Y-145215229D01*
X124609123Y-147071510D01*
X123492855Y-148742124D01*
X122072124Y-150162855D01*
X122072121Y-150162857D01*
X120401512Y-151279122D01*
X120401511Y-151279123D01*
X120401510Y-151279123D01*
X118545229Y-152048020D01*
X116574614Y-152440000D01*
X114565386Y-152440000D01*
X112594771Y-152048020D01*
X110738490Y-151279123D01*
X110738489Y-151279123D01*
X110738488Y-151279122D01*
X109067879Y-150162857D01*
X109067876Y-150162855D01*
X107647145Y-148742124D01*
X106530877Y-147071510D01*
X105761980Y-145215229D01*
X105370000Y-143244614D01*
X105370000Y-141235386D01*
X105761980Y-139264771D01*
X106530877Y-137408490D01*
X107647145Y-135737876D01*
X109067876Y-134317145D01*
X109090103Y-134302293D01*
X110738488Y-133200878D01*
X110738490Y-133200877D01*
X112594771Y-132431980D01*
X114565386Y-132040000D01*
X116574614Y-132040000D01*
X118545229Y-132431980D01*
X118545229Y-132431980D01*
G37*
G36*
X96955229Y-132431980D02*
X98811510Y-133200877D01*
X98811512Y-133200878D01*
X100459897Y-134302293D01*
X100482124Y-134317145D01*
X101902855Y-135737876D01*
X103019123Y-137408490D01*
X103788020Y-139264771D01*
X104180000Y-141235386D01*
X104180000Y-143244614D01*
X103788020Y-145215229D01*
X103019123Y-147071510D01*
X101902855Y-148742124D01*
X100482124Y-150162855D01*
X100482121Y-150162857D01*
X98811512Y-151279122D01*
X98811511Y-151279123D01*
X98811510Y-151279123D01*
X96955229Y-152048020D01*
X94984614Y-152440000D01*
X92975386Y-152440000D01*
X91004771Y-152048020D01*
X89148490Y-151279123D01*
X89148489Y-151279123D01*
X89148488Y-151279122D01*
X87477879Y-150162857D01*
X87477876Y-150162855D01*
X86057145Y-148742124D01*
X84940877Y-147071510D01*
X84171980Y-145215229D01*
X83780000Y-143244614D01*
X83780000Y-141235386D01*
X84171980Y-139264771D01*
X84940877Y-137408490D01*
X86057145Y-135737876D01*
X87477876Y-134317145D01*
X87500103Y-134302293D01*
X89148488Y-133200878D01*
X89148490Y-133200877D01*
X91004771Y-132431980D01*
X92975386Y-132040000D01*
X94984614Y-132040000D01*
X96955229Y-132431980D01*
X96955229Y-132431980D01*
G37*
G36*
X140135229Y-132431980D02*
X141991510Y-133200877D01*
X141991512Y-133200878D01*
X143639897Y-134302293D01*
X143662124Y-134317145D01*
X145082855Y-135737876D01*
X146199123Y-137408490D01*
X146968020Y-139264771D01*
X147360000Y-141235386D01*
X147360000Y-143244614D01*
X146968020Y-145215229D01*
X146199123Y-147071510D01*
X145082855Y-148742124D01*
X143662124Y-150162855D01*
X143662121Y-150162857D01*
X141991512Y-151279122D01*
X141991511Y-151279123D01*
X141991510Y-151279123D01*
X140135229Y-152048020D01*
X138164614Y-152440000D01*
X136155386Y-152440000D01*
X134184771Y-152048020D01*
X132328490Y-151279123D01*
X132328489Y-151279123D01*
X132328488Y-151279122D01*
X130657879Y-150162857D01*
X130657876Y-150162855D01*
X129237145Y-148742124D01*
X128120877Y-147071510D01*
X127351980Y-145215229D01*
X126960000Y-143244614D01*
X126960000Y-141235386D01*
X127351980Y-139264771D01*
X128120877Y-137408490D01*
X129237145Y-135737876D01*
X130657876Y-134317145D01*
X130680103Y-134302293D01*
X132328488Y-133200878D01*
X132328490Y-133200877D01*
X134184771Y-132431980D01*
X136155386Y-132040000D01*
X138164614Y-132040000D01*
X140135229Y-132431980D01*
X140135229Y-132431980D01*
G37*
G36*
X152750026Y-130672115D02*
X152968412Y-130762573D01*
X153164958Y-130893901D01*
X153332099Y-131061042D01*
X153463427Y-131257588D01*
X153553885Y-131475974D01*
X153600000Y-131707809D01*
X153600000Y-131944191D01*
X153553885Y-132176026D01*
X153463427Y-132394412D01*
X153332099Y-132590958D01*
X153164958Y-132758099D01*
X152968412Y-132889427D01*
X152750026Y-132979885D01*
X152518191Y-133026000D01*
X152281809Y-133026000D01*
X152049974Y-132979885D01*
X151831588Y-132889427D01*
X151635042Y-132758099D01*
X151467901Y-132590958D01*
X151336573Y-132394412D01*
X151246115Y-132176026D01*
X151200000Y-131944191D01*
X151200000Y-131707809D01*
X151246115Y-131475974D01*
X151336573Y-131257588D01*
X151467901Y-131061042D01*
X151635042Y-130893901D01*
X151831588Y-130762573D01*
X152049974Y-130672115D01*
X152281809Y-130626000D01*
X152518191Y-130626000D01*
X152750026Y-130672115D01*
X152750026Y-130672115D01*
G37*
G36*
X169641026Y-129910115D02*
X169859412Y-130000573D01*
X170055958Y-130131901D01*
X170223099Y-130299042D01*
X170354427Y-130495588D01*
X170444885Y-130713974D01*
X170491000Y-130945809D01*
X170491000Y-131182191D01*
X170444885Y-131414026D01*
X170354427Y-131632412D01*
X170223099Y-131828958D01*
X170055958Y-131996099D01*
X169859412Y-132127427D01*
X169641026Y-132217885D01*
X169409191Y-132264000D01*
X169172809Y-132264000D01*
X168940974Y-132217885D01*
X168722588Y-132127427D01*
X168526042Y-131996099D01*
X168358901Y-131828958D01*
X168227573Y-131632412D01*
X168137115Y-131414026D01*
X168091000Y-131182191D01*
X168091000Y-130945809D01*
X168137115Y-130713974D01*
X168227573Y-130495588D01*
X168358901Y-130299042D01*
X168526042Y-130131901D01*
X168722588Y-130000573D01*
X168940974Y-129910115D01*
X169172809Y-129864000D01*
X169409191Y-129864000D01*
X169641026Y-129910115D01*
X169641026Y-129910115D01*
G37*
G36*
X165831026Y-129910115D02*
X166049412Y-130000573D01*
X166245958Y-130131901D01*
X166413099Y-130299042D01*
X166544427Y-130495588D01*
X166634885Y-130713974D01*
X166681000Y-130945809D01*
X166681000Y-131182191D01*
X166634885Y-131414026D01*
X166544427Y-131632412D01*
X166413099Y-131828958D01*
X166245958Y-131996099D01*
X166049412Y-132127427D01*
X165831026Y-132217885D01*
X165599191Y-132264000D01*
X165362809Y-132264000D01*
X165130974Y-132217885D01*
X164912588Y-132127427D01*
X164716042Y-131996099D01*
X164548901Y-131828958D01*
X164417573Y-131632412D01*
X164327115Y-131414026D01*
X164281000Y-131182191D01*
X164281000Y-130945809D01*
X164327115Y-130713974D01*
X164417573Y-130495588D01*
X164548901Y-130299042D01*
X164716042Y-130131901D01*
X164912588Y-130000573D01*
X165130974Y-129910115D01*
X165362809Y-129864000D01*
X165599191Y-129864000D01*
X165831026Y-129910115D01*
X165831026Y-129910115D01*
G37*
G36*
X129778707Y-129104596D02*
X129855836Y-129112193D01*
X129987787Y-129152220D01*
X130053763Y-129172233D01*
X130236172Y-129269733D01*
X130396054Y-129400946D01*
X130527267Y-129560828D01*
X130624767Y-129743237D01*
X130624767Y-129743238D01*
X130684807Y-129941164D01*
X130705080Y-130147000D01*
X130684807Y-130352836D01*
X130660478Y-130433038D01*
X130624767Y-130550763D01*
X130527267Y-130733172D01*
X130396054Y-130893054D01*
X130236172Y-131024267D01*
X130053763Y-131121767D01*
X129987787Y-131141780D01*
X129855836Y-131181807D01*
X129778707Y-131189404D01*
X129701580Y-131197000D01*
X129598420Y-131197000D01*
X129521293Y-131189404D01*
X129444164Y-131181807D01*
X129312213Y-131141780D01*
X129246237Y-131121767D01*
X129063828Y-131024267D01*
X128903946Y-130893054D01*
X128772733Y-130733172D01*
X128675233Y-130550763D01*
X128639522Y-130433038D01*
X128615193Y-130352836D01*
X128594920Y-130147000D01*
X128615193Y-129941164D01*
X128675233Y-129743238D01*
X128675233Y-129743237D01*
X128772733Y-129560828D01*
X128903946Y-129400946D01*
X129063828Y-129269733D01*
X129246237Y-129172233D01*
X129312213Y-129152220D01*
X129444164Y-129112193D01*
X129521293Y-129104596D01*
X129598420Y-129097000D01*
X129701580Y-129097000D01*
X129778707Y-129104596D01*
X129778707Y-129104596D01*
G37*
G36*
X132318707Y-129104596D02*
X132395836Y-129112193D01*
X132527787Y-129152220D01*
X132593763Y-129172233D01*
X132776172Y-129269733D01*
X132936054Y-129400946D01*
X133067267Y-129560828D01*
X133164767Y-129743237D01*
X133164767Y-129743238D01*
X133224807Y-129941164D01*
X133245080Y-130147000D01*
X133224807Y-130352836D01*
X133200478Y-130433038D01*
X133164767Y-130550763D01*
X133067267Y-130733172D01*
X132936054Y-130893054D01*
X132776172Y-131024267D01*
X132593763Y-131121767D01*
X132527787Y-131141780D01*
X132395836Y-131181807D01*
X132318707Y-131189404D01*
X132241580Y-131197000D01*
X132138420Y-131197000D01*
X132061293Y-131189404D01*
X131984164Y-131181807D01*
X131852213Y-131141780D01*
X131786237Y-131121767D01*
X131603828Y-131024267D01*
X131443946Y-130893054D01*
X131312733Y-130733172D01*
X131215233Y-130550763D01*
X131179522Y-130433038D01*
X131155193Y-130352836D01*
X131134920Y-130147000D01*
X131155193Y-129941164D01*
X131215233Y-129743238D01*
X131215233Y-129743237D01*
X131312733Y-129560828D01*
X131443946Y-129400946D01*
X131603828Y-129269733D01*
X131786237Y-129172233D01*
X131852213Y-129152220D01*
X131984164Y-129112193D01*
X132061293Y-129104596D01*
X132138420Y-129097000D01*
X132241580Y-129097000D01*
X132318707Y-129104596D01*
X132318707Y-129104596D01*
G37*
G36*
X124698707Y-129104596D02*
X124775836Y-129112193D01*
X124907787Y-129152220D01*
X124973763Y-129172233D01*
X125156172Y-129269733D01*
X125316054Y-129400946D01*
X125447267Y-129560828D01*
X125544767Y-129743237D01*
X125544767Y-129743238D01*
X125604807Y-129941164D01*
X125625080Y-130147000D01*
X125604807Y-130352836D01*
X125580478Y-130433038D01*
X125544767Y-130550763D01*
X125447267Y-130733172D01*
X125316054Y-130893054D01*
X125156172Y-131024267D01*
X124973763Y-131121767D01*
X124907787Y-131141780D01*
X124775836Y-131181807D01*
X124698707Y-131189404D01*
X124621580Y-131197000D01*
X124518420Y-131197000D01*
X124441293Y-131189404D01*
X124364164Y-131181807D01*
X124232213Y-131141780D01*
X124166237Y-131121767D01*
X123983828Y-131024267D01*
X123823946Y-130893054D01*
X123692733Y-130733172D01*
X123595233Y-130550763D01*
X123559522Y-130433038D01*
X123535193Y-130352836D01*
X123514920Y-130147000D01*
X123535193Y-129941164D01*
X123595233Y-129743238D01*
X123595233Y-129743237D01*
X123692733Y-129560828D01*
X123823946Y-129400946D01*
X123983828Y-129269733D01*
X124166237Y-129172233D01*
X124232213Y-129152220D01*
X124364164Y-129112193D01*
X124441293Y-129104596D01*
X124518420Y-129097000D01*
X124621580Y-129097000D01*
X124698707Y-129104596D01*
X124698707Y-129104596D01*
G37*
G36*
X123080000Y-131197000D02*
X120980000Y-131197000D01*
X120980000Y-129097000D01*
X123080000Y-129097000D01*
X123080000Y-131197000D01*
X123080000Y-131197000D01*
G37*
G36*
X127238707Y-129104596D02*
X127315836Y-129112193D01*
X127447787Y-129152220D01*
X127513763Y-129172233D01*
X127696172Y-129269733D01*
X127856054Y-129400946D01*
X127987267Y-129560828D01*
X128084767Y-129743237D01*
X128084767Y-129743238D01*
X128144807Y-129941164D01*
X128165080Y-130147000D01*
X128144807Y-130352836D01*
X128120478Y-130433038D01*
X128084767Y-130550763D01*
X127987267Y-130733172D01*
X127856054Y-130893054D01*
X127696172Y-131024267D01*
X127513763Y-131121767D01*
X127447787Y-131141780D01*
X127315836Y-131181807D01*
X127238707Y-131189404D01*
X127161580Y-131197000D01*
X127058420Y-131197000D01*
X126981293Y-131189404D01*
X126904164Y-131181807D01*
X126772213Y-131141780D01*
X126706237Y-131121767D01*
X126523828Y-131024267D01*
X126363946Y-130893054D01*
X126232733Y-130733172D01*
X126135233Y-130550763D01*
X126099522Y-130433038D01*
X126075193Y-130352836D01*
X126054920Y-130147000D01*
X126075193Y-129941164D01*
X126135233Y-129743238D01*
X126135233Y-129743237D01*
X126232733Y-129560828D01*
X126363946Y-129400946D01*
X126523828Y-129269733D01*
X126706237Y-129172233D01*
X126772213Y-129152220D01*
X126904164Y-129112193D01*
X126981293Y-129104596D01*
X127058420Y-129097000D01*
X127161580Y-129097000D01*
X127238707Y-129104596D01*
X127238707Y-129104596D01*
G37*
G36*
X85212855Y-127913030D02*
X85476680Y-128022310D01*
X85714120Y-128180962D01*
X85916038Y-128382880D01*
X86074690Y-128620320D01*
X86183970Y-128884145D01*
X86239680Y-129164218D01*
X86239680Y-129449782D01*
X86183970Y-129729855D01*
X86074690Y-129993680D01*
X85916038Y-130231120D01*
X85714120Y-130433038D01*
X85476680Y-130591690D01*
X85212855Y-130700970D01*
X84932782Y-130756680D01*
X84647218Y-130756680D01*
X84367145Y-130700970D01*
X84103320Y-130591690D01*
X83865880Y-130433038D01*
X83663962Y-130231120D01*
X83505310Y-129993680D01*
X83396030Y-129729855D01*
X83340320Y-129449782D01*
X83340320Y-129164218D01*
X83396030Y-128884145D01*
X83505310Y-128620320D01*
X83663962Y-128382880D01*
X83865880Y-128180962D01*
X84103320Y-128022310D01*
X84367145Y-127913030D01*
X84647218Y-127857320D01*
X84932782Y-127857320D01*
X85212855Y-127913030D01*
X85212855Y-127913030D01*
G37*
G36*
X89022855Y-127913030D02*
X89286680Y-128022310D01*
X89524120Y-128180962D01*
X89726038Y-128382880D01*
X89884690Y-128620320D01*
X89993970Y-128884145D01*
X90049680Y-129164218D01*
X90049680Y-129449782D01*
X89993970Y-129729855D01*
X89884690Y-129993680D01*
X89726038Y-130231120D01*
X89524120Y-130433038D01*
X89286680Y-130591690D01*
X89022855Y-130700970D01*
X88742782Y-130756680D01*
X88457218Y-130756680D01*
X88177145Y-130700970D01*
X87913320Y-130591690D01*
X87675880Y-130433038D01*
X87473962Y-130231120D01*
X87315310Y-129993680D01*
X87206030Y-129729855D01*
X87150320Y-129449782D01*
X87150320Y-129164218D01*
X87206030Y-128884145D01*
X87315310Y-128620320D01*
X87473962Y-128382880D01*
X87675880Y-128180962D01*
X87913320Y-128022310D01*
X88177145Y-127913030D01*
X88457218Y-127857320D01*
X88742782Y-127857320D01*
X89022855Y-127913030D01*
X89022855Y-127913030D01*
G37*
G36*
X163885997Y-126755280D02*
X163897422Y-126756405D01*
X163958684Y-126774989D01*
X164019947Y-126793573D01*
X164084777Y-126828225D01*
X164132864Y-126853928D01*
X164132865Y-126853929D01*
X164132867Y-126853930D01*
X164231843Y-126935157D01*
X164313070Y-127034132D01*
X164373427Y-127147052D01*
X164410595Y-127269578D01*
X164420000Y-127365068D01*
X164420000Y-129028932D01*
X164410595Y-129124422D01*
X164373427Y-129246948D01*
X164313070Y-129359868D01*
X164231843Y-129458843D01*
X164132868Y-129540070D01*
X164019948Y-129600427D01*
X163958685Y-129619011D01*
X163897423Y-129637595D01*
X163885998Y-129638720D01*
X163770000Y-129650145D01*
X163654003Y-129638720D01*
X163642578Y-129637595D01*
X163581316Y-129619011D01*
X163520053Y-129600427D01*
X163407133Y-129540070D01*
X163308158Y-129458843D01*
X163231618Y-129365579D01*
X163214301Y-129348262D01*
X163193926Y-129334648D01*
X163171287Y-129325271D01*
X163147254Y-129320490D01*
X163122750Y-129320490D01*
X163098716Y-129325270D01*
X163076077Y-129334648D01*
X163055702Y-129348261D01*
X163038375Y-129365589D01*
X162961846Y-129458840D01*
X162961844Y-129458841D01*
X162961843Y-129458843D01*
X162862868Y-129540070D01*
X162749948Y-129600427D01*
X162688685Y-129619011D01*
X162627423Y-129637595D01*
X162615998Y-129638720D01*
X162500000Y-129650145D01*
X162384003Y-129638720D01*
X162372578Y-129637595D01*
X162311316Y-129619011D01*
X162250053Y-129600427D01*
X162137133Y-129540070D01*
X162038158Y-129458843D01*
X161961618Y-129365579D01*
X161944301Y-129348262D01*
X161923926Y-129334648D01*
X161901287Y-129325271D01*
X161877254Y-129320490D01*
X161852750Y-129320490D01*
X161828716Y-129325270D01*
X161806077Y-129334648D01*
X161785702Y-129348261D01*
X161768375Y-129365589D01*
X161691846Y-129458840D01*
X161691844Y-129458841D01*
X161691843Y-129458843D01*
X161592868Y-129540070D01*
X161479948Y-129600427D01*
X161418685Y-129619011D01*
X161357423Y-129637595D01*
X161345998Y-129638720D01*
X161230000Y-129650145D01*
X161114003Y-129638720D01*
X161102578Y-129637595D01*
X161041316Y-129619011D01*
X160980053Y-129600427D01*
X160867133Y-129540070D01*
X160768158Y-129458843D01*
X160691618Y-129365579D01*
X160674301Y-129348262D01*
X160653926Y-129334648D01*
X160631287Y-129325271D01*
X160607254Y-129320490D01*
X160582750Y-129320490D01*
X160558716Y-129325270D01*
X160536077Y-129334648D01*
X160515702Y-129348261D01*
X160498375Y-129365589D01*
X160421846Y-129458840D01*
X160421844Y-129458841D01*
X160421843Y-129458843D01*
X160322868Y-129540070D01*
X160209948Y-129600427D01*
X160148685Y-129619011D01*
X160087423Y-129637595D01*
X160075998Y-129638720D01*
X159960000Y-129650145D01*
X159844003Y-129638720D01*
X159832578Y-129637595D01*
X159771316Y-129619011D01*
X159710053Y-129600427D01*
X159597133Y-129540070D01*
X159498158Y-129458843D01*
X159421618Y-129365579D01*
X159404301Y-129348262D01*
X159383926Y-129334648D01*
X159361287Y-129325271D01*
X159337254Y-129320490D01*
X159312750Y-129320490D01*
X159288716Y-129325270D01*
X159266077Y-129334648D01*
X159245702Y-129348261D01*
X159228375Y-129365589D01*
X159151846Y-129458840D01*
X159151844Y-129458841D01*
X159151843Y-129458843D01*
X159052868Y-129540070D01*
X158939948Y-129600427D01*
X158878685Y-129619011D01*
X158817423Y-129637595D01*
X158805998Y-129638720D01*
X158690000Y-129650145D01*
X158574003Y-129638720D01*
X158562578Y-129637595D01*
X158501316Y-129619011D01*
X158440053Y-129600427D01*
X158327133Y-129540070D01*
X158228158Y-129458843D01*
X158151618Y-129365579D01*
X158134301Y-129348262D01*
X158113926Y-129334648D01*
X158091287Y-129325271D01*
X158067254Y-129320490D01*
X158042750Y-129320490D01*
X158018716Y-129325270D01*
X157996077Y-129334648D01*
X157975702Y-129348261D01*
X157958375Y-129365589D01*
X157881846Y-129458840D01*
X157881844Y-129458841D01*
X157881843Y-129458843D01*
X157782868Y-129540070D01*
X157669948Y-129600427D01*
X157608685Y-129619011D01*
X157547423Y-129637595D01*
X157535998Y-129638720D01*
X157420000Y-129650145D01*
X157304003Y-129638720D01*
X157292578Y-129637595D01*
X157231316Y-129619011D01*
X157170053Y-129600427D01*
X157057133Y-129540070D01*
X156958158Y-129458843D01*
X156881618Y-129365579D01*
X156864301Y-129348262D01*
X156843926Y-129334648D01*
X156821287Y-129325271D01*
X156797254Y-129320490D01*
X156772750Y-129320490D01*
X156748716Y-129325270D01*
X156726077Y-129334648D01*
X156705702Y-129348261D01*
X156688375Y-129365589D01*
X156611846Y-129458840D01*
X156611844Y-129458841D01*
X156611843Y-129458843D01*
X156512868Y-129540070D01*
X156399948Y-129600427D01*
X156338685Y-129619011D01*
X156277423Y-129637595D01*
X156265998Y-129638720D01*
X156150000Y-129650145D01*
X156034003Y-129638720D01*
X156022578Y-129637595D01*
X155961316Y-129619011D01*
X155900053Y-129600427D01*
X155787133Y-129540070D01*
X155688158Y-129458843D01*
X155611618Y-129365579D01*
X155594301Y-129348262D01*
X155573926Y-129334648D01*
X155551287Y-129325271D01*
X155527254Y-129320490D01*
X155502750Y-129320490D01*
X155478716Y-129325270D01*
X155456077Y-129334648D01*
X155435702Y-129348261D01*
X155418375Y-129365589D01*
X155341846Y-129458840D01*
X155341844Y-129458841D01*
X155341843Y-129458843D01*
X155242868Y-129540070D01*
X155129948Y-129600427D01*
X155068685Y-129619011D01*
X155007423Y-129637595D01*
X154995998Y-129638720D01*
X154880000Y-129650145D01*
X154764003Y-129638720D01*
X154752578Y-129637595D01*
X154691316Y-129619011D01*
X154630053Y-129600427D01*
X154517133Y-129540070D01*
X154418158Y-129458843D01*
X154341618Y-129365579D01*
X154324301Y-129348262D01*
X154303926Y-129334648D01*
X154281287Y-129325271D01*
X154257254Y-129320490D01*
X154232750Y-129320490D01*
X154208716Y-129325270D01*
X154186077Y-129334648D01*
X154165702Y-129348261D01*
X154148375Y-129365589D01*
X154071846Y-129458840D01*
X154071844Y-129458841D01*
X154071843Y-129458843D01*
X153972868Y-129540070D01*
X153859948Y-129600427D01*
X153798685Y-129619011D01*
X153737423Y-129637595D01*
X153725998Y-129638720D01*
X153610000Y-129650145D01*
X153494003Y-129638720D01*
X153482578Y-129637595D01*
X153421316Y-129619011D01*
X153360053Y-129600427D01*
X153247133Y-129540070D01*
X153148158Y-129458843D01*
X153071618Y-129365579D01*
X153054301Y-129348262D01*
X153033926Y-129334648D01*
X153011287Y-129325271D01*
X152987254Y-129320490D01*
X152962750Y-129320490D01*
X152938716Y-129325270D01*
X152916077Y-129334648D01*
X152895702Y-129348261D01*
X152878375Y-129365589D01*
X152801846Y-129458840D01*
X152801844Y-129458841D01*
X152801843Y-129458843D01*
X152702868Y-129540070D01*
X152589948Y-129600427D01*
X152528685Y-129619011D01*
X152467423Y-129637595D01*
X152455998Y-129638720D01*
X152340000Y-129650145D01*
X152224003Y-129638720D01*
X152212578Y-129637595D01*
X152151316Y-129619011D01*
X152090053Y-129600427D01*
X151977133Y-129540070D01*
X151878158Y-129458843D01*
X151801618Y-129365579D01*
X151784301Y-129348262D01*
X151763926Y-129334648D01*
X151741287Y-129325271D01*
X151717254Y-129320490D01*
X151692750Y-129320490D01*
X151668716Y-129325270D01*
X151646077Y-129334648D01*
X151625702Y-129348261D01*
X151608375Y-129365589D01*
X151531846Y-129458840D01*
X151531844Y-129458841D01*
X151531843Y-129458843D01*
X151432868Y-129540070D01*
X151319948Y-129600427D01*
X151258685Y-129619011D01*
X151197423Y-129637595D01*
X151185998Y-129638720D01*
X151070000Y-129650145D01*
X150954003Y-129638720D01*
X150942578Y-129637595D01*
X150881316Y-129619011D01*
X150820053Y-129600427D01*
X150707133Y-129540070D01*
X150608158Y-129458843D01*
X150531618Y-129365579D01*
X150514301Y-129348262D01*
X150493926Y-129334648D01*
X150471287Y-129325271D01*
X150447254Y-129320490D01*
X150422750Y-129320490D01*
X150398716Y-129325270D01*
X150376077Y-129334648D01*
X150355702Y-129348261D01*
X150338375Y-129365589D01*
X150261846Y-129458840D01*
X150261844Y-129458841D01*
X150261843Y-129458843D01*
X150162868Y-129540070D01*
X150049948Y-129600427D01*
X149988685Y-129619011D01*
X149927423Y-129637595D01*
X149915998Y-129638720D01*
X149800000Y-129650145D01*
X149684003Y-129638720D01*
X149672578Y-129637595D01*
X149611316Y-129619011D01*
X149550053Y-129600427D01*
X149437133Y-129540070D01*
X149338158Y-129458843D01*
X149261618Y-129365579D01*
X149244301Y-129348262D01*
X149223926Y-129334648D01*
X149201287Y-129325271D01*
X149177254Y-129320490D01*
X149152750Y-129320490D01*
X149128716Y-129325270D01*
X149106077Y-129334648D01*
X149085702Y-129348261D01*
X149068375Y-129365589D01*
X148991846Y-129458840D01*
X148991844Y-129458841D01*
X148991843Y-129458843D01*
X148892868Y-129540070D01*
X148779948Y-129600427D01*
X148718685Y-129619011D01*
X148657423Y-129637595D01*
X148645998Y-129638720D01*
X148530000Y-129650145D01*
X148414003Y-129638720D01*
X148402578Y-129637595D01*
X148341316Y-129619011D01*
X148280053Y-129600427D01*
X148167133Y-129540070D01*
X148068158Y-129458843D01*
X147991618Y-129365579D01*
X147974301Y-129348262D01*
X147953926Y-129334648D01*
X147931287Y-129325271D01*
X147907254Y-129320490D01*
X147882750Y-129320490D01*
X147858716Y-129325270D01*
X147836077Y-129334648D01*
X147815702Y-129348261D01*
X147798375Y-129365589D01*
X147721846Y-129458840D01*
X147721844Y-129458841D01*
X147721843Y-129458843D01*
X147622868Y-129540070D01*
X147509948Y-129600427D01*
X147448685Y-129619011D01*
X147387423Y-129637595D01*
X147375998Y-129638720D01*
X147260000Y-129650145D01*
X147144003Y-129638720D01*
X147132578Y-129637595D01*
X147071316Y-129619011D01*
X147010053Y-129600427D01*
X146897133Y-129540070D01*
X146798158Y-129458843D01*
X146716931Y-129359868D01*
X146656574Y-129246948D01*
X146619406Y-129124422D01*
X146610001Y-129028932D01*
X146610000Y-127365069D01*
X146619405Y-127269579D01*
X146619406Y-127269577D01*
X146656573Y-127147054D01*
X146656573Y-127147053D01*
X146691225Y-127082223D01*
X146716928Y-127034136D01*
X146721626Y-127028411D01*
X146798157Y-126935157D01*
X146897132Y-126853930D01*
X147010052Y-126793573D01*
X147071315Y-126774989D01*
X147132577Y-126756405D01*
X147144002Y-126755280D01*
X147260000Y-126743855D01*
X147375997Y-126755280D01*
X147387422Y-126756405D01*
X147448684Y-126774989D01*
X147509947Y-126793573D01*
X147574777Y-126828225D01*
X147622864Y-126853928D01*
X147622865Y-126853929D01*
X147622867Y-126853930D01*
X147721843Y-126935157D01*
X147798383Y-127028421D01*
X147815700Y-127045738D01*
X147836075Y-127059352D01*
X147858714Y-127068729D01*
X147882747Y-127073510D01*
X147907251Y-127073510D01*
X147931285Y-127068730D01*
X147953924Y-127059352D01*
X147974299Y-127045739D01*
X147991621Y-127028417D01*
X148068157Y-126935157D01*
X148167132Y-126853930D01*
X148280052Y-126793573D01*
X148341315Y-126774989D01*
X148402577Y-126756405D01*
X148414002Y-126755280D01*
X148530000Y-126743855D01*
X148645997Y-126755280D01*
X148657422Y-126756405D01*
X148718684Y-126774989D01*
X148779947Y-126793573D01*
X148844777Y-126828225D01*
X148892864Y-126853928D01*
X148892865Y-126853929D01*
X148892867Y-126853930D01*
X148991843Y-126935157D01*
X149068383Y-127028421D01*
X149085700Y-127045738D01*
X149106075Y-127059352D01*
X149128714Y-127068729D01*
X149152747Y-127073510D01*
X149177251Y-127073510D01*
X149201285Y-127068730D01*
X149223924Y-127059352D01*
X149244299Y-127045739D01*
X149261621Y-127028417D01*
X149338157Y-126935157D01*
X149437132Y-126853930D01*
X149550052Y-126793573D01*
X149611315Y-126774989D01*
X149672577Y-126756405D01*
X149684002Y-126755280D01*
X149800000Y-126743855D01*
X149915997Y-126755280D01*
X149927422Y-126756405D01*
X149988684Y-126774989D01*
X150049947Y-126793573D01*
X150114777Y-126828225D01*
X150162864Y-126853928D01*
X150162865Y-126853929D01*
X150162867Y-126853930D01*
X150261843Y-126935157D01*
X150338383Y-127028421D01*
X150355700Y-127045738D01*
X150376075Y-127059352D01*
X150398714Y-127068729D01*
X150422747Y-127073510D01*
X150447251Y-127073510D01*
X150471285Y-127068730D01*
X150493924Y-127059352D01*
X150514299Y-127045739D01*
X150531621Y-127028417D01*
X150608157Y-126935157D01*
X150707132Y-126853930D01*
X150820052Y-126793573D01*
X150881315Y-126774989D01*
X150942577Y-126756405D01*
X150954002Y-126755280D01*
X151070000Y-126743855D01*
X151185997Y-126755280D01*
X151197422Y-126756405D01*
X151258684Y-126774989D01*
X151319947Y-126793573D01*
X151384777Y-126828225D01*
X151432864Y-126853928D01*
X151432865Y-126853929D01*
X151432867Y-126853930D01*
X151531843Y-126935157D01*
X151608383Y-127028421D01*
X151625700Y-127045738D01*
X151646075Y-127059352D01*
X151668714Y-127068729D01*
X151692747Y-127073510D01*
X151717251Y-127073510D01*
X151741285Y-127068730D01*
X151763924Y-127059352D01*
X151784299Y-127045739D01*
X151801621Y-127028417D01*
X151878157Y-126935157D01*
X151977132Y-126853930D01*
X152090052Y-126793573D01*
X152151315Y-126774989D01*
X152212577Y-126756405D01*
X152224002Y-126755280D01*
X152340000Y-126743855D01*
X152455997Y-126755280D01*
X152467422Y-126756405D01*
X152528684Y-126774989D01*
X152589947Y-126793573D01*
X152654777Y-126828225D01*
X152702864Y-126853928D01*
X152702865Y-126853929D01*
X152702867Y-126853930D01*
X152801843Y-126935157D01*
X152878383Y-127028421D01*
X152895700Y-127045738D01*
X152916075Y-127059352D01*
X152938714Y-127068729D01*
X152962747Y-127073510D01*
X152987251Y-127073510D01*
X153011285Y-127068730D01*
X153033924Y-127059352D01*
X153054299Y-127045739D01*
X153071621Y-127028417D01*
X153148157Y-126935157D01*
X153247132Y-126853930D01*
X153360052Y-126793573D01*
X153421315Y-126774989D01*
X153482577Y-126756405D01*
X153494002Y-126755280D01*
X153610000Y-126743855D01*
X153725997Y-126755280D01*
X153737422Y-126756405D01*
X153798684Y-126774989D01*
X153859947Y-126793573D01*
X153924777Y-126828225D01*
X153972864Y-126853928D01*
X153972865Y-126853929D01*
X153972867Y-126853930D01*
X154071843Y-126935157D01*
X154148383Y-127028421D01*
X154165700Y-127045738D01*
X154186075Y-127059352D01*
X154208714Y-127068729D01*
X154232747Y-127073510D01*
X154257251Y-127073510D01*
X154281285Y-127068730D01*
X154303924Y-127059352D01*
X154324299Y-127045739D01*
X154341621Y-127028417D01*
X154418157Y-126935157D01*
X154517132Y-126853930D01*
X154630052Y-126793573D01*
X154691315Y-126774989D01*
X154752577Y-126756405D01*
X154764002Y-126755280D01*
X154880000Y-126743855D01*
X154995997Y-126755280D01*
X155007422Y-126756405D01*
X155068684Y-126774989D01*
X155129947Y-126793573D01*
X155194777Y-126828225D01*
X155242864Y-126853928D01*
X155242865Y-126853929D01*
X155242867Y-126853930D01*
X155341843Y-126935157D01*
X155418383Y-127028421D01*
X155435700Y-127045738D01*
X155456075Y-127059352D01*
X155478714Y-127068729D01*
X155502747Y-127073510D01*
X155527251Y-127073510D01*
X155551285Y-127068730D01*
X155573924Y-127059352D01*
X155594299Y-127045739D01*
X155611621Y-127028417D01*
X155688157Y-126935157D01*
X155787132Y-126853930D01*
X155900052Y-126793573D01*
X155961315Y-126774989D01*
X156022577Y-126756405D01*
X156034002Y-126755280D01*
X156150000Y-126743855D01*
X156265997Y-126755280D01*
X156277422Y-126756405D01*
X156338684Y-126774989D01*
X156399947Y-126793573D01*
X156464777Y-126828225D01*
X156512864Y-126853928D01*
X156512865Y-126853929D01*
X156512867Y-126853930D01*
X156611843Y-126935157D01*
X156688383Y-127028421D01*
X156705700Y-127045738D01*
X156726075Y-127059352D01*
X156748714Y-127068729D01*
X156772747Y-127073510D01*
X156797251Y-127073510D01*
X156821285Y-127068730D01*
X156843924Y-127059352D01*
X156864299Y-127045739D01*
X156881621Y-127028417D01*
X156958157Y-126935157D01*
X157057132Y-126853930D01*
X157170052Y-126793573D01*
X157231315Y-126774989D01*
X157292577Y-126756405D01*
X157304002Y-126755280D01*
X157420000Y-126743855D01*
X157535997Y-126755280D01*
X157547422Y-126756405D01*
X157608684Y-126774989D01*
X157669947Y-126793573D01*
X157734777Y-126828225D01*
X157782864Y-126853928D01*
X157782865Y-126853929D01*
X157782867Y-126853930D01*
X157881843Y-126935157D01*
X157958383Y-127028421D01*
X157975700Y-127045738D01*
X157996075Y-127059352D01*
X158018714Y-127068729D01*
X158042747Y-127073510D01*
X158067251Y-127073510D01*
X158091285Y-127068730D01*
X158113924Y-127059352D01*
X158134299Y-127045739D01*
X158151621Y-127028417D01*
X158228157Y-126935157D01*
X158327132Y-126853930D01*
X158440052Y-126793573D01*
X158501315Y-126774989D01*
X158562577Y-126756405D01*
X158574002Y-126755280D01*
X158690000Y-126743855D01*
X158805997Y-126755280D01*
X158817422Y-126756405D01*
X158878684Y-126774989D01*
X158939947Y-126793573D01*
X159004777Y-126828225D01*
X159052864Y-126853928D01*
X159052865Y-126853929D01*
X159052867Y-126853930D01*
X159151843Y-126935157D01*
X159228383Y-127028421D01*
X159245700Y-127045738D01*
X159266075Y-127059352D01*
X159288714Y-127068729D01*
X159312747Y-127073510D01*
X159337251Y-127073510D01*
X159361285Y-127068730D01*
X159383924Y-127059352D01*
X159404299Y-127045739D01*
X159421621Y-127028417D01*
X159498157Y-126935157D01*
X159597132Y-126853930D01*
X159710052Y-126793573D01*
X159771315Y-126774989D01*
X159832577Y-126756405D01*
X159844002Y-126755280D01*
X159960000Y-126743855D01*
X160075997Y-126755280D01*
X160087422Y-126756405D01*
X160148684Y-126774989D01*
X160209947Y-126793573D01*
X160274777Y-126828225D01*
X160322864Y-126853928D01*
X160322865Y-126853929D01*
X160322867Y-126853930D01*
X160421843Y-126935157D01*
X160498383Y-127028421D01*
X160515700Y-127045738D01*
X160536075Y-127059352D01*
X160558714Y-127068729D01*
X160582747Y-127073510D01*
X160607251Y-127073510D01*
X160631285Y-127068730D01*
X160653924Y-127059352D01*
X160674299Y-127045739D01*
X160691621Y-127028417D01*
X160768157Y-126935157D01*
X160867132Y-126853930D01*
X160980052Y-126793573D01*
X161041315Y-126774989D01*
X161102577Y-126756405D01*
X161114002Y-126755280D01*
X161230000Y-126743855D01*
X161345997Y-126755280D01*
X161357422Y-126756405D01*
X161418684Y-126774989D01*
X161479947Y-126793573D01*
X161544777Y-126828225D01*
X161592864Y-126853928D01*
X161592865Y-126853929D01*
X161592867Y-126853930D01*
X161691843Y-126935157D01*
X161768383Y-127028421D01*
X161785700Y-127045738D01*
X161806075Y-127059352D01*
X161828714Y-127068729D01*
X161852747Y-127073510D01*
X161877251Y-127073510D01*
X161901285Y-127068730D01*
X161923924Y-127059352D01*
X161944299Y-127045739D01*
X161961621Y-127028417D01*
X162038157Y-126935157D01*
X162137132Y-126853930D01*
X162250052Y-126793573D01*
X162311315Y-126774989D01*
X162372577Y-126756405D01*
X162384002Y-126755280D01*
X162500000Y-126743855D01*
X162615997Y-126755280D01*
X162627422Y-126756405D01*
X162688684Y-126774989D01*
X162749947Y-126793573D01*
X162814777Y-126828225D01*
X162862864Y-126853928D01*
X162862865Y-126853929D01*
X162862867Y-126853930D01*
X162961843Y-126935157D01*
X163038383Y-127028421D01*
X163055700Y-127045738D01*
X163076075Y-127059352D01*
X163098714Y-127068729D01*
X163122747Y-127073510D01*
X163147251Y-127073510D01*
X163171285Y-127068730D01*
X163193924Y-127059352D01*
X163214299Y-127045739D01*
X163231621Y-127028417D01*
X163308157Y-126935157D01*
X163407132Y-126853930D01*
X163520052Y-126793573D01*
X163581315Y-126774989D01*
X163642577Y-126756405D01*
X163654002Y-126755280D01*
X163770000Y-126743855D01*
X163885997Y-126755280D01*
X163885997Y-126755280D01*
G37*
G36*
X85170026Y-123993115D02*
X85388412Y-124083573D01*
X85584958Y-124214901D01*
X85752099Y-124382042D01*
X85883427Y-124578588D01*
X85973885Y-124796974D01*
X86020000Y-125028809D01*
X86020000Y-125265191D01*
X85973885Y-125497026D01*
X85883427Y-125715412D01*
X85752099Y-125911958D01*
X85584958Y-126079099D01*
X85388412Y-126210427D01*
X85170026Y-126300885D01*
X84938191Y-126347000D01*
X84701809Y-126347000D01*
X84469974Y-126300885D01*
X84251588Y-126210427D01*
X84055042Y-126079099D01*
X83887901Y-125911958D01*
X83756573Y-125715412D01*
X83666115Y-125497026D01*
X83620000Y-125265191D01*
X83620000Y-125028809D01*
X83666115Y-124796974D01*
X83756573Y-124578588D01*
X83887901Y-124382042D01*
X84055042Y-124214901D01*
X84251588Y-124083573D01*
X84469974Y-123993115D01*
X84701809Y-123947000D01*
X84938191Y-123947000D01*
X85170026Y-123993115D01*
X85170026Y-123993115D01*
G37*
G36*
X146685486Y-112840229D02*
X146697423Y-112841405D01*
X146758685Y-112859989D01*
X146819948Y-112878573D01*
X146932868Y-112938930D01*
X147031843Y-113020157D01*
X147113070Y-113119132D01*
X147173427Y-113232052D01*
X147210595Y-113354578D01*
X147223145Y-113482000D01*
X147210595Y-113609422D01*
X147173427Y-113731948D01*
X147113070Y-113844868D01*
X147031843Y-113943843D01*
X147031841Y-113943844D01*
X147031840Y-113943846D01*
X146938590Y-114020374D01*
X146921263Y-114037701D01*
X146907649Y-114058075D01*
X146898271Y-114080714D01*
X146893491Y-114104748D01*
X146893491Y-114129252D01*
X146898271Y-114153285D01*
X146907649Y-114175924D01*
X146921263Y-114196299D01*
X146938590Y-114213626D01*
X147031840Y-114290154D01*
X147031841Y-114290156D01*
X147031843Y-114290157D01*
X147113070Y-114389132D01*
X147173427Y-114502052D01*
X147210595Y-114624578D01*
X147223145Y-114752000D01*
X147210595Y-114879422D01*
X147173427Y-115001948D01*
X147113070Y-115114868D01*
X147031843Y-115213843D01*
X147031841Y-115213844D01*
X147031840Y-115213846D01*
X146938590Y-115290374D01*
X146921263Y-115307701D01*
X146907649Y-115328075D01*
X146898271Y-115350714D01*
X146893491Y-115374748D01*
X146893491Y-115399252D01*
X146898271Y-115423285D01*
X146907649Y-115445924D01*
X146921263Y-115466299D01*
X146938590Y-115483626D01*
X147031840Y-115560154D01*
X147031841Y-115560156D01*
X147031843Y-115560157D01*
X147113070Y-115659132D01*
X147173427Y-115772052D01*
X147179663Y-115792609D01*
X147203187Y-115870155D01*
X147210595Y-115894578D01*
X147223145Y-116022000D01*
X147210595Y-116149422D01*
X147173427Y-116271948D01*
X147113070Y-116384868D01*
X147031843Y-116483843D01*
X147031841Y-116483844D01*
X147031840Y-116483846D01*
X146938590Y-116560374D01*
X146921263Y-116577701D01*
X146907649Y-116598075D01*
X146898271Y-116620714D01*
X146893491Y-116644748D01*
X146893491Y-116669252D01*
X146898271Y-116693285D01*
X146907649Y-116715924D01*
X146921263Y-116736299D01*
X146938590Y-116753626D01*
X147031840Y-116830154D01*
X147031841Y-116830156D01*
X147031843Y-116830157D01*
X147113070Y-116929132D01*
X147173427Y-117042052D01*
X147210595Y-117164578D01*
X147223145Y-117292000D01*
X147210595Y-117419422D01*
X147173427Y-117541948D01*
X147113070Y-117654868D01*
X147031843Y-117753843D01*
X147031841Y-117753844D01*
X147031840Y-117753846D01*
X146938590Y-117830374D01*
X146921263Y-117847701D01*
X146907649Y-117868075D01*
X146898271Y-117890714D01*
X146893491Y-117914748D01*
X146893491Y-117939252D01*
X146898271Y-117963285D01*
X146907649Y-117985924D01*
X146921263Y-118006299D01*
X146938590Y-118023626D01*
X147031840Y-118100154D01*
X147031841Y-118100156D01*
X147031843Y-118100157D01*
X147113070Y-118199132D01*
X147173427Y-118312052D01*
X147210595Y-118434578D01*
X147223145Y-118562000D01*
X147210595Y-118689422D01*
X147173427Y-118811948D01*
X147113070Y-118924868D01*
X147031843Y-119023843D01*
X147031841Y-119023844D01*
X147031840Y-119023846D01*
X146938590Y-119100374D01*
X146921263Y-119117701D01*
X146907649Y-119138075D01*
X146898271Y-119160714D01*
X146893491Y-119184748D01*
X146893491Y-119209252D01*
X146898271Y-119233285D01*
X146907649Y-119255924D01*
X146921263Y-119276299D01*
X146938590Y-119293626D01*
X147031840Y-119370154D01*
X147031841Y-119370156D01*
X147031843Y-119370157D01*
X147113070Y-119469132D01*
X147173427Y-119582052D01*
X147210595Y-119704578D01*
X147223145Y-119832000D01*
X147210595Y-119959422D01*
X147173427Y-120081948D01*
X147113070Y-120194868D01*
X147031843Y-120293843D01*
X147031841Y-120293844D01*
X147031840Y-120293846D01*
X146938590Y-120370374D01*
X146921263Y-120387701D01*
X146907649Y-120408075D01*
X146898271Y-120430714D01*
X146893491Y-120454748D01*
X146893491Y-120479252D01*
X146898271Y-120503285D01*
X146907649Y-120525924D01*
X146921263Y-120546299D01*
X146938590Y-120563626D01*
X147031840Y-120640154D01*
X147031841Y-120640156D01*
X147031843Y-120640157D01*
X147113070Y-120739132D01*
X147173427Y-120852052D01*
X147210595Y-120974578D01*
X147223145Y-121102000D01*
X147210595Y-121229422D01*
X147173427Y-121351948D01*
X147113070Y-121464868D01*
X147031843Y-121563843D01*
X147031841Y-121563844D01*
X147031840Y-121563846D01*
X146938590Y-121640374D01*
X146921263Y-121657701D01*
X146907649Y-121678075D01*
X146898271Y-121700714D01*
X146893491Y-121724748D01*
X146893491Y-121749252D01*
X146898271Y-121773285D01*
X146907649Y-121795924D01*
X146921263Y-121816299D01*
X146938590Y-121833626D01*
X147031840Y-121910154D01*
X147031841Y-121910156D01*
X147031843Y-121910157D01*
X147113070Y-122009132D01*
X147173427Y-122122052D01*
X147210595Y-122244578D01*
X147223145Y-122372000D01*
X147210595Y-122499422D01*
X147173427Y-122621948D01*
X147113070Y-122734868D01*
X147031843Y-122833843D01*
X147031841Y-122833844D01*
X147031840Y-122833846D01*
X146938590Y-122910374D01*
X146921263Y-122927701D01*
X146907649Y-122948075D01*
X146898271Y-122970714D01*
X146893491Y-122994748D01*
X146893491Y-123019252D01*
X146898271Y-123043285D01*
X146907649Y-123065924D01*
X146921263Y-123086299D01*
X146938590Y-123103626D01*
X147031840Y-123180154D01*
X147031841Y-123180156D01*
X147031843Y-123180157D01*
X147113070Y-123279132D01*
X147173427Y-123392052D01*
X147210595Y-123514578D01*
X147223145Y-123642000D01*
X147210595Y-123769422D01*
X147173427Y-123891948D01*
X147113070Y-124004868D01*
X147031843Y-124103843D01*
X147031841Y-124103844D01*
X147031840Y-124103846D01*
X146938590Y-124180374D01*
X146921263Y-124197701D01*
X146907649Y-124218075D01*
X146898271Y-124240714D01*
X146893491Y-124264748D01*
X146893491Y-124289252D01*
X146898271Y-124313285D01*
X146907649Y-124335924D01*
X146921263Y-124356299D01*
X146938590Y-124373626D01*
X147031840Y-124450154D01*
X147031841Y-124450156D01*
X147031843Y-124450157D01*
X147113070Y-124549132D01*
X147173427Y-124662052D01*
X147210595Y-124784578D01*
X147223145Y-124912000D01*
X147210595Y-125039422D01*
X147173427Y-125161948D01*
X147113070Y-125274868D01*
X147031843Y-125373843D01*
X146932868Y-125455070D01*
X146819948Y-125515427D01*
X146758685Y-125534011D01*
X146697423Y-125552595D01*
X146685486Y-125553771D01*
X146601932Y-125562000D01*
X144938068Y-125562000D01*
X144854514Y-125553771D01*
X144842577Y-125552595D01*
X144781315Y-125534011D01*
X144720052Y-125515427D01*
X144607132Y-125455070D01*
X144508157Y-125373843D01*
X144426930Y-125274868D01*
X144366573Y-125161948D01*
X144329405Y-125039422D01*
X144316855Y-124912000D01*
X144329405Y-124784578D01*
X144366573Y-124662052D01*
X144426930Y-124549132D01*
X144508157Y-124450157D01*
X144508159Y-124450156D01*
X144508160Y-124450154D01*
X144601410Y-124373626D01*
X144618737Y-124356299D01*
X144632351Y-124335925D01*
X144641729Y-124313286D01*
X144646509Y-124289252D01*
X144646509Y-124264748D01*
X144641729Y-124240715D01*
X144632351Y-124218076D01*
X144618737Y-124197701D01*
X144601410Y-124180374D01*
X144508160Y-124103846D01*
X144508159Y-124103844D01*
X144508157Y-124103843D01*
X144426930Y-124004868D01*
X144366573Y-123891948D01*
X144329405Y-123769422D01*
X144316855Y-123642000D01*
X144329405Y-123514578D01*
X144366573Y-123392052D01*
X144426930Y-123279132D01*
X144508157Y-123180157D01*
X144508159Y-123180156D01*
X144508160Y-123180154D01*
X144601410Y-123103626D01*
X144618737Y-123086299D01*
X144632351Y-123065925D01*
X144641729Y-123043286D01*
X144646509Y-123019252D01*
X144646509Y-122994748D01*
X144641729Y-122970715D01*
X144632351Y-122948076D01*
X144618737Y-122927701D01*
X144601410Y-122910374D01*
X144508160Y-122833846D01*
X144508159Y-122833844D01*
X144508157Y-122833843D01*
X144426930Y-122734868D01*
X144366573Y-122621948D01*
X144329405Y-122499422D01*
X144316855Y-122372000D01*
X144329405Y-122244578D01*
X144366573Y-122122052D01*
X144426930Y-122009132D01*
X144508157Y-121910157D01*
X144508159Y-121910156D01*
X144508160Y-121910154D01*
X144601410Y-121833626D01*
X144618737Y-121816299D01*
X144632351Y-121795925D01*
X144641729Y-121773286D01*
X144646509Y-121749252D01*
X144646509Y-121724748D01*
X144641729Y-121700715D01*
X144632351Y-121678076D01*
X144618737Y-121657701D01*
X144601410Y-121640374D01*
X144508160Y-121563846D01*
X144508159Y-121563844D01*
X144508157Y-121563843D01*
X144426930Y-121464868D01*
X144366573Y-121351948D01*
X144329405Y-121229422D01*
X144316855Y-121102000D01*
X144329405Y-120974578D01*
X144366573Y-120852052D01*
X144426930Y-120739132D01*
X144508157Y-120640157D01*
X144508159Y-120640156D01*
X144508160Y-120640154D01*
X144601410Y-120563626D01*
X144618737Y-120546299D01*
X144632351Y-120525925D01*
X144641729Y-120503286D01*
X144646509Y-120479252D01*
X144646509Y-120454748D01*
X144641729Y-120430715D01*
X144632351Y-120408076D01*
X144618737Y-120387701D01*
X144601410Y-120370374D01*
X144508160Y-120293846D01*
X144508159Y-120293844D01*
X144508157Y-120293843D01*
X144426930Y-120194868D01*
X144366573Y-120081948D01*
X144329405Y-119959422D01*
X144316855Y-119832000D01*
X144329405Y-119704578D01*
X144366573Y-119582052D01*
X144426930Y-119469132D01*
X144508157Y-119370157D01*
X144508159Y-119370156D01*
X144508160Y-119370154D01*
X144601410Y-119293626D01*
X144618737Y-119276299D01*
X144632351Y-119255925D01*
X144641729Y-119233286D01*
X144646509Y-119209252D01*
X144646509Y-119184748D01*
X144641729Y-119160715D01*
X144632351Y-119138076D01*
X144618737Y-119117701D01*
X144601410Y-119100374D01*
X144508160Y-119023846D01*
X144508159Y-119023844D01*
X144508157Y-119023843D01*
X144426930Y-118924868D01*
X144366573Y-118811948D01*
X144329405Y-118689422D01*
X144316855Y-118562000D01*
X144329405Y-118434578D01*
X144366573Y-118312052D01*
X144426930Y-118199132D01*
X144508157Y-118100157D01*
X144508159Y-118100156D01*
X144508160Y-118100154D01*
X144601410Y-118023626D01*
X144618737Y-118006299D01*
X144632351Y-117985925D01*
X144641729Y-117963286D01*
X144646509Y-117939252D01*
X144646509Y-117914748D01*
X144641729Y-117890715D01*
X144632351Y-117868076D01*
X144618737Y-117847701D01*
X144601410Y-117830374D01*
X144508160Y-117753846D01*
X144508159Y-117753844D01*
X144508157Y-117753843D01*
X144426930Y-117654868D01*
X144366573Y-117541948D01*
X144329405Y-117419422D01*
X144316855Y-117292000D01*
X144329405Y-117164578D01*
X144366573Y-117042052D01*
X144426930Y-116929132D01*
X144508157Y-116830157D01*
X144508159Y-116830156D01*
X144508160Y-116830154D01*
X144601410Y-116753626D01*
X144618737Y-116736299D01*
X144632351Y-116715925D01*
X144641729Y-116693286D01*
X144646509Y-116669252D01*
X144646509Y-116644748D01*
X144641729Y-116620715D01*
X144632351Y-116598076D01*
X144618737Y-116577701D01*
X144601410Y-116560374D01*
X144508160Y-116483846D01*
X144508159Y-116483844D01*
X144508157Y-116483843D01*
X144426930Y-116384868D01*
X144366573Y-116271948D01*
X144329405Y-116149422D01*
X144316855Y-116022000D01*
X144329405Y-115894578D01*
X144336814Y-115870155D01*
X144360337Y-115792609D01*
X144366573Y-115772052D01*
X144426930Y-115659132D01*
X144508157Y-115560157D01*
X144508159Y-115560156D01*
X144508160Y-115560154D01*
X144601410Y-115483626D01*
X144618737Y-115466299D01*
X144632351Y-115445925D01*
X144641729Y-115423286D01*
X144646509Y-115399252D01*
X144646509Y-115374748D01*
X144641729Y-115350715D01*
X144632351Y-115328076D01*
X144618737Y-115307701D01*
X144601410Y-115290374D01*
X144508160Y-115213846D01*
X144508159Y-115213844D01*
X144508157Y-115213843D01*
X144426930Y-115114868D01*
X144366573Y-115001948D01*
X144329405Y-114879422D01*
X144316855Y-114752000D01*
X144329405Y-114624578D01*
X144366573Y-114502052D01*
X144426930Y-114389132D01*
X144508157Y-114290157D01*
X144508159Y-114290156D01*
X144508160Y-114290154D01*
X144601410Y-114213626D01*
X144618737Y-114196299D01*
X144632351Y-114175925D01*
X144641729Y-114153286D01*
X144646509Y-114129252D01*
X144646509Y-114104748D01*
X144641729Y-114080715D01*
X144632351Y-114058076D01*
X144618737Y-114037701D01*
X144601410Y-114020374D01*
X144508160Y-113943846D01*
X144508159Y-113943844D01*
X144508157Y-113943843D01*
X144426930Y-113844868D01*
X144366573Y-113731948D01*
X144329405Y-113609422D01*
X144316855Y-113482000D01*
X144329405Y-113354578D01*
X144366573Y-113232052D01*
X144426930Y-113119132D01*
X144508157Y-113020157D01*
X144607132Y-112938930D01*
X144720052Y-112878573D01*
X144781315Y-112859989D01*
X144842577Y-112841405D01*
X144854514Y-112840229D01*
X144938068Y-112832000D01*
X146601932Y-112832000D01*
X146685486Y-112840229D01*
X146685486Y-112840229D01*
G37*
G36*
X159270000Y-122097000D02*
X152870000Y-122097000D01*
X152870000Y-115697000D01*
X159270000Y-115697000D01*
X159270000Y-122097000D01*
X159270000Y-122097000D01*
G37*
G36*
X102020000Y-121472000D02*
X100120000Y-121472000D01*
X100120000Y-119822000D01*
X102020000Y-119822000D01*
X102020000Y-121472000D01*
X102020000Y-121472000D01*
G37*
G36*
X109520000Y-121472000D02*
X107620000Y-121472000D01*
X107620000Y-119822000D01*
X109520000Y-119822000D01*
X109520000Y-121472000D01*
X109520000Y-121472000D01*
G37*
G36*
X104520000Y-121472000D02*
X102620000Y-121472000D01*
X102620000Y-119822000D01*
X104520000Y-119822000D01*
X104520000Y-121472000D01*
X104520000Y-121472000D01*
G37*
G36*
X98770000Y-121472000D02*
X96870000Y-121472000D01*
X96870000Y-119822000D01*
X98770000Y-119822000D01*
X98770000Y-121472000D01*
X98770000Y-121472000D01*
G37*
G36*
X90770000Y-121472000D02*
X88870000Y-121472000D01*
X88870000Y-119822000D01*
X90770000Y-119822000D01*
X90770000Y-121472000D01*
X90770000Y-121472000D01*
G37*
G36*
X107020000Y-121472000D02*
X105120000Y-121472000D01*
X105120000Y-119822000D01*
X107020000Y-119822000D01*
X107020000Y-121472000D01*
X107020000Y-121472000D01*
G37*
G36*
X96270000Y-121472000D02*
X94370000Y-121472000D01*
X94370000Y-119822000D01*
X96270000Y-119822000D01*
X96270000Y-121472000D01*
X96270000Y-121472000D01*
G37*
G36*
X93270000Y-121472000D02*
X91370000Y-121472000D01*
X91370000Y-119822000D01*
X93270000Y-119822000D01*
X93270000Y-121472000D01*
X93270000Y-121472000D01*
G37*
G36*
X129620000Y-120397000D02*
X121220000Y-120397000D01*
X121220000Y-109997000D01*
X129620000Y-109997000D01*
X129620000Y-120397000D01*
X129620000Y-120397000D01*
G37*
G36*
X84200000Y-118607000D02*
X82300000Y-118607000D01*
X82300000Y-116857000D01*
X84200000Y-116857000D01*
X84200000Y-118607000D01*
X84200000Y-118607000D01*
G37*
G36*
X105970000Y-118497000D02*
X104070000Y-118497000D01*
X104070000Y-116097000D01*
X105970000Y-116097000D01*
X105970000Y-118497000D01*
X105970000Y-118497000D01*
G37*
G36*
X103670000Y-118497000D02*
X101770000Y-118497000D01*
X101770000Y-116097000D01*
X103670000Y-116097000D01*
X103670000Y-118497000D01*
X103670000Y-118497000D01*
G37*
G36*
X101370000Y-118497000D02*
X99470000Y-118497000D01*
X99470000Y-116097000D01*
X101370000Y-116097000D01*
X101370000Y-118497000D01*
X101370000Y-118497000D01*
G37*
G36*
X91981000Y-118225000D02*
X90031000Y-118225000D01*
X90031000Y-117225000D01*
X91981000Y-117225000D01*
X91981000Y-118225000D01*
X91981000Y-118225000D01*
G37*
G36*
X97381000Y-118225000D02*
X95431000Y-118225000D01*
X95431000Y-117225000D01*
X97381000Y-117225000D01*
X97381000Y-118225000D01*
X97381000Y-118225000D01*
G37*
G36*
X143470000Y-117947000D02*
X137970000Y-117947000D01*
X137970000Y-112447000D01*
X143470000Y-112447000D01*
X143470000Y-117947000D01*
X143470000Y-117947000D01*
G37*
G36*
X112870000Y-117947000D02*
X107370000Y-117947000D01*
X107370000Y-112447000D01*
X112870000Y-112447000D01*
X112870000Y-117947000D01*
X112870000Y-117947000D01*
G37*
G36*
X86820000Y-111357000D02*
X86019888Y-111357000D01*
X85995502Y-111359402D01*
X85972053Y-111366515D01*
X85950442Y-111378066D01*
X85931500Y-111393612D01*
X85915954Y-111412554D01*
X85904403Y-111434165D01*
X85897290Y-111457614D01*
X85894888Y-111482000D01*
X85897290Y-111506386D01*
X85901842Y-111521391D01*
X85920000Y-111612678D01*
X85920000Y-111701322D01*
X85901841Y-111792610D01*
X85897290Y-111807615D01*
X85894888Y-111832001D01*
X85897290Y-111856387D01*
X85904403Y-111879836D01*
X85915955Y-111901447D01*
X85931500Y-111920389D01*
X85950442Y-111935934D01*
X85972053Y-111947485D01*
X85995503Y-111954598D01*
X86019888Y-111957000D01*
X87220000Y-111957000D01*
X87220000Y-115357000D01*
X86019888Y-115357000D01*
X85995502Y-115359402D01*
X85972053Y-115366515D01*
X85950442Y-115378066D01*
X85931500Y-115393612D01*
X85915954Y-115412554D01*
X85904403Y-115434165D01*
X85897290Y-115457614D01*
X85894888Y-115482000D01*
X85897290Y-115506386D01*
X85901842Y-115521391D01*
X85920000Y-115612678D01*
X85920000Y-115701322D01*
X85901841Y-115792610D01*
X85897290Y-115807615D01*
X85894888Y-115832001D01*
X85897290Y-115856387D01*
X85904403Y-115879836D01*
X85915955Y-115901447D01*
X85931500Y-115920389D01*
X85950442Y-115935934D01*
X85972053Y-115947485D01*
X85995503Y-115954598D01*
X86019888Y-115957000D01*
X86820000Y-115957000D01*
X86820000Y-117857000D01*
X85020000Y-117857000D01*
X85020000Y-115906376D01*
X85024046Y-115901446D01*
X85035597Y-115879835D01*
X85042710Y-115856386D01*
X85045112Y-115832000D01*
X85042710Y-115807614D01*
X85038158Y-115792609D01*
X85020000Y-115701322D01*
X85020000Y-115612678D01*
X85038159Y-115521390D01*
X85042710Y-115506385D01*
X85045112Y-115481999D01*
X85042710Y-115457613D01*
X85035597Y-115434164D01*
X85024045Y-115412553D01*
X85020000Y-115407624D01*
X85020000Y-111906376D01*
X85024046Y-111901446D01*
X85035597Y-111879835D01*
X85042710Y-111856386D01*
X85045112Y-111832000D01*
X85042710Y-111807614D01*
X85038158Y-111792609D01*
X85020000Y-111701322D01*
X85020000Y-111612678D01*
X85038159Y-111521390D01*
X85042710Y-111506385D01*
X85045112Y-111481999D01*
X85042710Y-111457613D01*
X85035597Y-111434164D01*
X85024045Y-111412553D01*
X85020000Y-111407624D01*
X85020000Y-109457000D01*
X86820000Y-109457000D01*
X86820000Y-111357000D01*
X86820000Y-111357000D01*
G37*
G36*
X97381000Y-116955000D02*
X95431000Y-116955000D01*
X95431000Y-115955000D01*
X97381000Y-115955000D01*
X97381000Y-116955000D01*
X97381000Y-116955000D01*
G37*
G36*
X91981000Y-116955000D02*
X90031000Y-116955000D01*
X90031000Y-115955000D01*
X91981000Y-115955000D01*
X91981000Y-116955000D01*
X91981000Y-116955000D01*
G37*
G36*
X82770000Y-115907000D02*
X81370000Y-115907000D01*
X81370000Y-114407000D01*
X82770000Y-114407000D01*
X82770000Y-115907000D01*
X82770000Y-115907000D01*
G37*
G36*
X91981000Y-115685000D02*
X90031000Y-115685000D01*
X90031000Y-114685000D01*
X91981000Y-114685000D01*
X91981000Y-115685000D01*
X91981000Y-115685000D01*
G37*
G36*
X97381000Y-115685000D02*
X95431000Y-115685000D01*
X95431000Y-114685000D01*
X97381000Y-114685000D01*
X97381000Y-115685000D01*
X97381000Y-115685000D01*
G37*
G36*
X97381000Y-114415000D02*
X95431000Y-114415000D01*
X95431000Y-113415000D01*
X97381000Y-113415000D01*
X97381000Y-114415000D01*
X97381000Y-114415000D01*
G37*
G36*
X91981000Y-114415000D02*
X90031000Y-114415000D01*
X90031000Y-113415000D01*
X91981000Y-113415000D01*
X91981000Y-114415000D01*
X91981000Y-114415000D01*
G37*
G36*
X82770000Y-112907000D02*
X81370000Y-112907000D01*
X81370000Y-111407000D01*
X82770000Y-111407000D01*
X82770000Y-112907000D01*
X82770000Y-112907000D01*
G37*
G36*
X104820000Y-112197000D02*
X100620000Y-112197000D01*
X100620000Y-109797000D01*
X104820000Y-109797000D01*
X104820000Y-112197000D01*
X104820000Y-112197000D01*
G37*
G36*
X91910000Y-111807000D02*
X90010000Y-111807000D01*
X90010000Y-110807000D01*
X91910000Y-110807000D01*
X91910000Y-111807000D01*
X91910000Y-111807000D01*
G37*
G36*
X97360000Y-111807000D02*
X95460000Y-111807000D01*
X95460000Y-110807000D01*
X97360000Y-110807000D01*
X97360000Y-111807000D01*
X97360000Y-111807000D01*
G37*
G36*
X163885997Y-108755280D02*
X163897422Y-108756405D01*
X163958684Y-108774989D01*
X164019947Y-108793573D01*
X164084777Y-108828225D01*
X164132864Y-108853928D01*
X164132865Y-108853929D01*
X164132867Y-108853930D01*
X164231843Y-108935157D01*
X164313070Y-109034132D01*
X164373427Y-109147052D01*
X164410595Y-109269578D01*
X164420000Y-109365068D01*
X164420000Y-111028932D01*
X164410595Y-111124422D01*
X164373427Y-111246948D01*
X164313070Y-111359868D01*
X164231843Y-111458843D01*
X164132868Y-111540070D01*
X164019948Y-111600427D01*
X163958685Y-111619011D01*
X163897423Y-111637595D01*
X163885998Y-111638720D01*
X163770000Y-111650145D01*
X163654003Y-111638720D01*
X163642578Y-111637595D01*
X163581316Y-111619011D01*
X163520053Y-111600427D01*
X163407133Y-111540070D01*
X163308158Y-111458843D01*
X163231618Y-111365579D01*
X163214301Y-111348262D01*
X163193926Y-111334648D01*
X163171287Y-111325271D01*
X163147254Y-111320490D01*
X163122750Y-111320490D01*
X163098716Y-111325270D01*
X163076077Y-111334648D01*
X163055702Y-111348261D01*
X163038375Y-111365589D01*
X162961846Y-111458840D01*
X162961844Y-111458841D01*
X162961843Y-111458843D01*
X162862868Y-111540070D01*
X162749948Y-111600427D01*
X162688685Y-111619011D01*
X162627423Y-111637595D01*
X162615998Y-111638720D01*
X162500000Y-111650145D01*
X162384003Y-111638720D01*
X162372578Y-111637595D01*
X162311316Y-111619011D01*
X162250053Y-111600427D01*
X162137133Y-111540070D01*
X162038158Y-111458843D01*
X161961618Y-111365579D01*
X161944301Y-111348262D01*
X161923926Y-111334648D01*
X161901287Y-111325271D01*
X161877254Y-111320490D01*
X161852750Y-111320490D01*
X161828716Y-111325270D01*
X161806077Y-111334648D01*
X161785702Y-111348261D01*
X161768375Y-111365589D01*
X161691846Y-111458840D01*
X161691844Y-111458841D01*
X161691843Y-111458843D01*
X161592868Y-111540070D01*
X161479948Y-111600427D01*
X161418685Y-111619011D01*
X161357423Y-111637595D01*
X161345998Y-111638720D01*
X161230000Y-111650145D01*
X161114003Y-111638720D01*
X161102578Y-111637595D01*
X161041316Y-111619011D01*
X160980053Y-111600427D01*
X160867133Y-111540070D01*
X160768158Y-111458843D01*
X160691618Y-111365579D01*
X160674301Y-111348262D01*
X160653926Y-111334648D01*
X160631287Y-111325271D01*
X160607254Y-111320490D01*
X160582750Y-111320490D01*
X160558716Y-111325270D01*
X160536077Y-111334648D01*
X160515702Y-111348261D01*
X160498375Y-111365589D01*
X160421846Y-111458840D01*
X160421844Y-111458841D01*
X160421843Y-111458843D01*
X160322868Y-111540070D01*
X160209948Y-111600427D01*
X160148685Y-111619011D01*
X160087423Y-111637595D01*
X160075998Y-111638720D01*
X159960000Y-111650145D01*
X159844003Y-111638720D01*
X159832578Y-111637595D01*
X159771316Y-111619011D01*
X159710053Y-111600427D01*
X159597133Y-111540070D01*
X159498158Y-111458843D01*
X159421618Y-111365579D01*
X159404301Y-111348262D01*
X159383926Y-111334648D01*
X159361287Y-111325271D01*
X159337254Y-111320490D01*
X159312750Y-111320490D01*
X159288716Y-111325270D01*
X159266077Y-111334648D01*
X159245702Y-111348261D01*
X159228375Y-111365589D01*
X159151846Y-111458840D01*
X159151844Y-111458841D01*
X159151843Y-111458843D01*
X159052868Y-111540070D01*
X158939948Y-111600427D01*
X158878685Y-111619011D01*
X158817423Y-111637595D01*
X158805998Y-111638720D01*
X158690000Y-111650145D01*
X158574003Y-111638720D01*
X158562578Y-111637595D01*
X158501316Y-111619011D01*
X158440053Y-111600427D01*
X158327133Y-111540070D01*
X158228158Y-111458843D01*
X158151618Y-111365579D01*
X158134301Y-111348262D01*
X158113926Y-111334648D01*
X158091287Y-111325271D01*
X158067254Y-111320490D01*
X158042750Y-111320490D01*
X158018716Y-111325270D01*
X157996077Y-111334648D01*
X157975702Y-111348261D01*
X157958375Y-111365589D01*
X157881846Y-111458840D01*
X157881844Y-111458841D01*
X157881843Y-111458843D01*
X157782868Y-111540070D01*
X157669948Y-111600427D01*
X157608685Y-111619011D01*
X157547423Y-111637595D01*
X157535998Y-111638720D01*
X157420000Y-111650145D01*
X157304003Y-111638720D01*
X157292578Y-111637595D01*
X157231316Y-111619011D01*
X157170053Y-111600427D01*
X157057133Y-111540070D01*
X156958158Y-111458843D01*
X156881618Y-111365579D01*
X156864301Y-111348262D01*
X156843926Y-111334648D01*
X156821287Y-111325271D01*
X156797254Y-111320490D01*
X156772750Y-111320490D01*
X156748716Y-111325270D01*
X156726077Y-111334648D01*
X156705702Y-111348261D01*
X156688375Y-111365589D01*
X156611846Y-111458840D01*
X156611844Y-111458841D01*
X156611843Y-111458843D01*
X156512868Y-111540070D01*
X156399948Y-111600427D01*
X156338685Y-111619011D01*
X156277423Y-111637595D01*
X156265998Y-111638720D01*
X156150000Y-111650145D01*
X156034003Y-111638720D01*
X156022578Y-111637595D01*
X155961316Y-111619011D01*
X155900053Y-111600427D01*
X155787133Y-111540070D01*
X155688158Y-111458843D01*
X155611618Y-111365579D01*
X155594301Y-111348262D01*
X155573926Y-111334648D01*
X155551287Y-111325271D01*
X155527254Y-111320490D01*
X155502750Y-111320490D01*
X155478716Y-111325270D01*
X155456077Y-111334648D01*
X155435702Y-111348261D01*
X155418375Y-111365589D01*
X155341846Y-111458840D01*
X155341844Y-111458841D01*
X155341843Y-111458843D01*
X155242868Y-111540070D01*
X155129948Y-111600427D01*
X155068685Y-111619011D01*
X155007423Y-111637595D01*
X154995998Y-111638720D01*
X154880000Y-111650145D01*
X154764003Y-111638720D01*
X154752578Y-111637595D01*
X154691316Y-111619011D01*
X154630053Y-111600427D01*
X154517133Y-111540070D01*
X154418158Y-111458843D01*
X154341618Y-111365579D01*
X154324301Y-111348262D01*
X154303926Y-111334648D01*
X154281287Y-111325271D01*
X154257254Y-111320490D01*
X154232750Y-111320490D01*
X154208716Y-111325270D01*
X154186077Y-111334648D01*
X154165702Y-111348261D01*
X154148375Y-111365589D01*
X154071846Y-111458840D01*
X154071844Y-111458841D01*
X154071843Y-111458843D01*
X153972868Y-111540070D01*
X153859948Y-111600427D01*
X153798685Y-111619011D01*
X153737423Y-111637595D01*
X153725998Y-111638720D01*
X153610000Y-111650145D01*
X153494003Y-111638720D01*
X153482578Y-111637595D01*
X153421316Y-111619011D01*
X153360053Y-111600427D01*
X153247133Y-111540070D01*
X153148158Y-111458843D01*
X153071618Y-111365579D01*
X153054301Y-111348262D01*
X153033926Y-111334648D01*
X153011287Y-111325271D01*
X152987254Y-111320490D01*
X152962750Y-111320490D01*
X152938716Y-111325270D01*
X152916077Y-111334648D01*
X152895702Y-111348261D01*
X152878375Y-111365589D01*
X152801846Y-111458840D01*
X152801844Y-111458841D01*
X152801843Y-111458843D01*
X152702868Y-111540070D01*
X152589948Y-111600427D01*
X152528685Y-111619011D01*
X152467423Y-111637595D01*
X152455998Y-111638720D01*
X152340000Y-111650145D01*
X152224003Y-111638720D01*
X152212578Y-111637595D01*
X152151316Y-111619011D01*
X152090053Y-111600427D01*
X151977133Y-111540070D01*
X151878158Y-111458843D01*
X151801618Y-111365579D01*
X151784301Y-111348262D01*
X151763926Y-111334648D01*
X151741287Y-111325271D01*
X151717254Y-111320490D01*
X151692750Y-111320490D01*
X151668716Y-111325270D01*
X151646077Y-111334648D01*
X151625702Y-111348261D01*
X151608375Y-111365589D01*
X151531846Y-111458840D01*
X151531844Y-111458841D01*
X151531843Y-111458843D01*
X151432868Y-111540070D01*
X151319948Y-111600427D01*
X151258685Y-111619011D01*
X151197423Y-111637595D01*
X151185998Y-111638720D01*
X151070000Y-111650145D01*
X150954003Y-111638720D01*
X150942578Y-111637595D01*
X150881316Y-111619011D01*
X150820053Y-111600427D01*
X150707133Y-111540070D01*
X150608158Y-111458843D01*
X150531618Y-111365579D01*
X150514301Y-111348262D01*
X150493926Y-111334648D01*
X150471287Y-111325271D01*
X150447254Y-111320490D01*
X150422750Y-111320490D01*
X150398716Y-111325270D01*
X150376077Y-111334648D01*
X150355702Y-111348261D01*
X150338375Y-111365589D01*
X150261846Y-111458840D01*
X150261844Y-111458841D01*
X150261843Y-111458843D01*
X150162868Y-111540070D01*
X150049948Y-111600427D01*
X149988685Y-111619011D01*
X149927423Y-111637595D01*
X149915998Y-111638720D01*
X149800000Y-111650145D01*
X149684003Y-111638720D01*
X149672578Y-111637595D01*
X149611316Y-111619011D01*
X149550053Y-111600427D01*
X149437133Y-111540070D01*
X149338158Y-111458843D01*
X149261618Y-111365579D01*
X149244301Y-111348262D01*
X149223926Y-111334648D01*
X149201287Y-111325271D01*
X149177254Y-111320490D01*
X149152750Y-111320490D01*
X149128716Y-111325270D01*
X149106077Y-111334648D01*
X149085702Y-111348261D01*
X149068375Y-111365589D01*
X148991846Y-111458840D01*
X148991844Y-111458841D01*
X148991843Y-111458843D01*
X148892868Y-111540070D01*
X148779948Y-111600427D01*
X148718685Y-111619011D01*
X148657423Y-111637595D01*
X148645998Y-111638720D01*
X148530000Y-111650145D01*
X148414003Y-111638720D01*
X148402578Y-111637595D01*
X148341316Y-111619011D01*
X148280053Y-111600427D01*
X148167133Y-111540070D01*
X148068158Y-111458843D01*
X147991618Y-111365579D01*
X147974301Y-111348262D01*
X147953926Y-111334648D01*
X147931287Y-111325271D01*
X147907254Y-111320490D01*
X147882750Y-111320490D01*
X147858716Y-111325270D01*
X147836077Y-111334648D01*
X147815702Y-111348261D01*
X147798375Y-111365589D01*
X147721846Y-111458840D01*
X147721844Y-111458841D01*
X147721843Y-111458843D01*
X147622868Y-111540070D01*
X147509948Y-111600427D01*
X147448685Y-111619011D01*
X147387423Y-111637595D01*
X147375998Y-111638720D01*
X147260000Y-111650145D01*
X147144003Y-111638720D01*
X147132578Y-111637595D01*
X147071316Y-111619011D01*
X147010053Y-111600427D01*
X146897133Y-111540070D01*
X146798158Y-111458843D01*
X146716931Y-111359868D01*
X146656574Y-111246948D01*
X146619406Y-111124422D01*
X146610001Y-111028932D01*
X146610000Y-109365069D01*
X146619405Y-109269579D01*
X146619406Y-109269577D01*
X146656573Y-109147054D01*
X146656573Y-109147053D01*
X146691225Y-109082223D01*
X146716928Y-109034136D01*
X146721626Y-109028411D01*
X146798157Y-108935157D01*
X146897132Y-108853930D01*
X147010052Y-108793573D01*
X147071315Y-108774989D01*
X147132577Y-108756405D01*
X147144002Y-108755280D01*
X147260000Y-108743855D01*
X147375997Y-108755280D01*
X147387422Y-108756405D01*
X147448684Y-108774989D01*
X147509947Y-108793573D01*
X147574777Y-108828225D01*
X147622864Y-108853928D01*
X147622865Y-108853929D01*
X147622867Y-108853930D01*
X147721843Y-108935157D01*
X147798383Y-109028421D01*
X147815700Y-109045738D01*
X147836075Y-109059352D01*
X147858714Y-109068729D01*
X147882747Y-109073510D01*
X147907251Y-109073510D01*
X147931285Y-109068730D01*
X147953924Y-109059352D01*
X147974299Y-109045739D01*
X147991621Y-109028417D01*
X148068157Y-108935157D01*
X148167132Y-108853930D01*
X148280052Y-108793573D01*
X148341315Y-108774989D01*
X148402577Y-108756405D01*
X148414002Y-108755280D01*
X148530000Y-108743855D01*
X148645997Y-108755280D01*
X148657422Y-108756405D01*
X148718684Y-108774989D01*
X148779947Y-108793573D01*
X148844777Y-108828225D01*
X148892864Y-108853928D01*
X148892865Y-108853929D01*
X148892867Y-108853930D01*
X148991843Y-108935157D01*
X149068383Y-109028421D01*
X149085700Y-109045738D01*
X149106075Y-109059352D01*
X149128714Y-109068729D01*
X149152747Y-109073510D01*
X149177251Y-109073510D01*
X149201285Y-109068730D01*
X149223924Y-109059352D01*
X149244299Y-109045739D01*
X149261621Y-109028417D01*
X149338157Y-108935157D01*
X149437132Y-108853930D01*
X149550052Y-108793573D01*
X149611315Y-108774989D01*
X149672577Y-108756405D01*
X149684002Y-108755280D01*
X149800000Y-108743855D01*
X149915997Y-108755280D01*
X149927422Y-108756405D01*
X149988684Y-108774989D01*
X150049947Y-108793573D01*
X150114777Y-108828225D01*
X150162864Y-108853928D01*
X150162865Y-108853929D01*
X150162867Y-108853930D01*
X150261843Y-108935157D01*
X150338383Y-109028421D01*
X150355700Y-109045738D01*
X150376075Y-109059352D01*
X150398714Y-109068729D01*
X150422747Y-109073510D01*
X150447251Y-109073510D01*
X150471285Y-109068730D01*
X150493924Y-109059352D01*
X150514299Y-109045739D01*
X150531621Y-109028417D01*
X150608157Y-108935157D01*
X150707132Y-108853930D01*
X150820052Y-108793573D01*
X150881315Y-108774989D01*
X150942577Y-108756405D01*
X150954002Y-108755280D01*
X151070000Y-108743855D01*
X151185997Y-108755280D01*
X151197422Y-108756405D01*
X151258684Y-108774989D01*
X151319947Y-108793573D01*
X151384777Y-108828225D01*
X151432864Y-108853928D01*
X151432865Y-108853929D01*
X151432867Y-108853930D01*
X151531843Y-108935157D01*
X151608383Y-109028421D01*
X151625700Y-109045738D01*
X151646075Y-109059352D01*
X151668714Y-109068729D01*
X151692747Y-109073510D01*
X151717251Y-109073510D01*
X151741285Y-109068730D01*
X151763924Y-109059352D01*
X151784299Y-109045739D01*
X151801621Y-109028417D01*
X151878157Y-108935157D01*
X151977132Y-108853930D01*
X152090052Y-108793573D01*
X152151315Y-108774989D01*
X152212577Y-108756405D01*
X152224002Y-108755280D01*
X152340000Y-108743855D01*
X152455997Y-108755280D01*
X152467422Y-108756405D01*
X152528684Y-108774989D01*
X152589947Y-108793573D01*
X152654777Y-108828225D01*
X152702864Y-108853928D01*
X152702865Y-108853929D01*
X152702867Y-108853930D01*
X152801843Y-108935157D01*
X152878383Y-109028421D01*
X152895700Y-109045738D01*
X152916075Y-109059352D01*
X152938714Y-109068729D01*
X152962747Y-109073510D01*
X152987251Y-109073510D01*
X153011285Y-109068730D01*
X153033924Y-109059352D01*
X153054299Y-109045739D01*
X153071621Y-109028417D01*
X153148157Y-108935157D01*
X153247132Y-108853930D01*
X153360052Y-108793573D01*
X153421315Y-108774989D01*
X153482577Y-108756405D01*
X153494002Y-108755280D01*
X153610000Y-108743855D01*
X153725997Y-108755280D01*
X153737422Y-108756405D01*
X153798684Y-108774989D01*
X153859947Y-108793573D01*
X153924777Y-108828225D01*
X153972864Y-108853928D01*
X153972865Y-108853929D01*
X153972867Y-108853930D01*
X154071843Y-108935157D01*
X154148383Y-109028421D01*
X154165700Y-109045738D01*
X154186075Y-109059352D01*
X154208714Y-109068729D01*
X154232747Y-109073510D01*
X154257251Y-109073510D01*
X154281285Y-109068730D01*
X154303924Y-109059352D01*
X154324299Y-109045739D01*
X154341621Y-109028417D01*
X154418157Y-108935157D01*
X154517132Y-108853930D01*
X154630052Y-108793573D01*
X154691315Y-108774989D01*
X154752577Y-108756405D01*
X154764002Y-108755280D01*
X154880000Y-108743855D01*
X154995997Y-108755280D01*
X155007422Y-108756405D01*
X155068684Y-108774989D01*
X155129947Y-108793573D01*
X155194777Y-108828225D01*
X155242864Y-108853928D01*
X155242865Y-108853929D01*
X155242867Y-108853930D01*
X155341843Y-108935157D01*
X155418383Y-109028421D01*
X155435700Y-109045738D01*
X155456075Y-109059352D01*
X155478714Y-109068729D01*
X155502747Y-109073510D01*
X155527251Y-109073510D01*
X155551285Y-109068730D01*
X155573924Y-109059352D01*
X155594299Y-109045739D01*
X155611621Y-109028417D01*
X155688157Y-108935157D01*
X155787132Y-108853930D01*
X155900052Y-108793573D01*
X155961315Y-108774989D01*
X156022577Y-108756405D01*
X156034002Y-108755280D01*
X156150000Y-108743855D01*
X156265997Y-108755280D01*
X156277422Y-108756405D01*
X156338684Y-108774989D01*
X156399947Y-108793573D01*
X156464777Y-108828225D01*
X156512864Y-108853928D01*
X156512865Y-108853929D01*
X156512867Y-108853930D01*
X156611843Y-108935157D01*
X156688383Y-109028421D01*
X156705700Y-109045738D01*
X156726075Y-109059352D01*
X156748714Y-109068729D01*
X156772747Y-109073510D01*
X156797251Y-109073510D01*
X156821285Y-109068730D01*
X156843924Y-109059352D01*
X156864299Y-109045739D01*
X156881621Y-109028417D01*
X156958157Y-108935157D01*
X157057132Y-108853930D01*
X157170052Y-108793573D01*
X157231315Y-108774989D01*
X157292577Y-108756405D01*
X157304002Y-108755280D01*
X157420000Y-108743855D01*
X157535997Y-108755280D01*
X157547422Y-108756405D01*
X157608684Y-108774989D01*
X157669947Y-108793573D01*
X157734777Y-108828225D01*
X157782864Y-108853928D01*
X157782865Y-108853929D01*
X157782867Y-108853930D01*
X157881843Y-108935157D01*
X157958383Y-109028421D01*
X157975700Y-109045738D01*
X157996075Y-109059352D01*
X158018714Y-109068729D01*
X158042747Y-109073510D01*
X158067251Y-109073510D01*
X158091285Y-109068730D01*
X158113924Y-109059352D01*
X158134299Y-109045739D01*
X158151621Y-109028417D01*
X158228157Y-108935157D01*
X158327132Y-108853930D01*
X158440052Y-108793573D01*
X158501315Y-108774989D01*
X158562577Y-108756405D01*
X158574002Y-108755280D01*
X158690000Y-108743855D01*
X158805997Y-108755280D01*
X158817422Y-108756405D01*
X158878684Y-108774989D01*
X158939947Y-108793573D01*
X159004777Y-108828225D01*
X159052864Y-108853928D01*
X159052865Y-108853929D01*
X159052867Y-108853930D01*
X159151843Y-108935157D01*
X159228383Y-109028421D01*
X159245700Y-109045738D01*
X159266075Y-109059352D01*
X159288714Y-109068729D01*
X159312747Y-109073510D01*
X159337251Y-109073510D01*
X159361285Y-109068730D01*
X159383924Y-109059352D01*
X159404299Y-109045739D01*
X159421621Y-109028417D01*
X159498157Y-108935157D01*
X159597132Y-108853930D01*
X159710052Y-108793573D01*
X159771315Y-108774989D01*
X159832577Y-108756405D01*
X159844002Y-108755280D01*
X159960000Y-108743855D01*
X160075997Y-108755280D01*
X160087422Y-108756405D01*
X160148684Y-108774989D01*
X160209947Y-108793573D01*
X160274777Y-108828225D01*
X160322864Y-108853928D01*
X160322865Y-108853929D01*
X160322867Y-108853930D01*
X160421843Y-108935157D01*
X160498383Y-109028421D01*
X160515700Y-109045738D01*
X160536075Y-109059352D01*
X160558714Y-109068729D01*
X160582747Y-109073510D01*
X160607251Y-109073510D01*
X160631285Y-109068730D01*
X160653924Y-109059352D01*
X160674299Y-109045739D01*
X160691621Y-109028417D01*
X160768157Y-108935157D01*
X160867132Y-108853930D01*
X160980052Y-108793573D01*
X161041315Y-108774989D01*
X161102577Y-108756405D01*
X161114002Y-108755280D01*
X161230000Y-108743855D01*
X161345997Y-108755280D01*
X161357422Y-108756405D01*
X161418684Y-108774989D01*
X161479947Y-108793573D01*
X161544777Y-108828225D01*
X161592864Y-108853928D01*
X161592865Y-108853929D01*
X161592867Y-108853930D01*
X161691843Y-108935157D01*
X161768383Y-109028421D01*
X161785700Y-109045738D01*
X161806075Y-109059352D01*
X161828714Y-109068729D01*
X161852747Y-109073510D01*
X161877251Y-109073510D01*
X161901285Y-109068730D01*
X161923924Y-109059352D01*
X161944299Y-109045739D01*
X161961621Y-109028417D01*
X162038157Y-108935157D01*
X162137132Y-108853930D01*
X162250052Y-108793573D01*
X162311315Y-108774989D01*
X162372577Y-108756405D01*
X162384002Y-108755280D01*
X162500000Y-108743855D01*
X162615997Y-108755280D01*
X162627422Y-108756405D01*
X162688684Y-108774989D01*
X162749947Y-108793573D01*
X162814777Y-108828225D01*
X162862864Y-108853928D01*
X162862865Y-108853929D01*
X162862867Y-108853930D01*
X162961843Y-108935157D01*
X163038383Y-109028421D01*
X163055700Y-109045738D01*
X163076075Y-109059352D01*
X163098714Y-109068729D01*
X163122747Y-109073510D01*
X163147251Y-109073510D01*
X163171285Y-109068730D01*
X163193924Y-109059352D01*
X163214299Y-109045739D01*
X163231621Y-109028417D01*
X163308157Y-108935157D01*
X163407132Y-108853930D01*
X163520052Y-108793573D01*
X163581315Y-108774989D01*
X163642577Y-108756405D01*
X163654002Y-108755280D01*
X163770000Y-108743855D01*
X163885997Y-108755280D01*
X163885997Y-108755280D01*
G37*
G36*
X95010000Y-110747000D02*
X92410000Y-110747000D01*
X92410000Y-108147000D01*
X95010000Y-108147000D01*
X95010000Y-110747000D01*
X95010000Y-110747000D01*
G37*
G36*
X91910000Y-110537000D02*
X90010000Y-110537000D01*
X90010000Y-109537000D01*
X91910000Y-109537000D01*
X91910000Y-110537000D01*
X91910000Y-110537000D01*
G37*
G36*
X97360000Y-110537000D02*
X95460000Y-110537000D01*
X95460000Y-109537000D01*
X97360000Y-109537000D01*
X97360000Y-110537000D01*
X97360000Y-110537000D01*
G37*
G36*
X84200000Y-110457000D02*
X82300000Y-110457000D01*
X82300000Y-108707000D01*
X84200000Y-108707000D01*
X84200000Y-110457000D01*
X84200000Y-110457000D01*
G37*
G36*
X169270000Y-109664000D02*
X167370000Y-109664000D01*
X167370000Y-108014000D01*
X169270000Y-108014000D01*
X169270000Y-109664000D01*
X169270000Y-109664000D01*
G37*
G36*
X166770000Y-109664000D02*
X164870000Y-109664000D01*
X164870000Y-108014000D01*
X166770000Y-108014000D01*
X166770000Y-109664000D01*
X166770000Y-109664000D01*
G37*
G36*
X97360000Y-109267000D02*
X95460000Y-109267000D01*
X95460000Y-108267000D01*
X97360000Y-108267000D01*
X97360000Y-109267000D01*
X97360000Y-109267000D01*
G37*
G36*
X91910000Y-109267000D02*
X90010000Y-109267000D01*
X90010000Y-108267000D01*
X91910000Y-108267000D01*
X91910000Y-109267000D01*
X91910000Y-109267000D01*
G37*
G36*
X91910000Y-107997000D02*
X90010000Y-107997000D01*
X90010000Y-106997000D01*
X91910000Y-106997000D01*
X91910000Y-107997000D01*
X91910000Y-107997000D01*
G37*
G36*
X97360000Y-107997000D02*
X95460000Y-107997000D01*
X95460000Y-106997000D01*
X97360000Y-106997000D01*
X97360000Y-107997000D01*
X97360000Y-107997000D01*
G37*
G36*
X152198707Y-105604596D02*
X152275836Y-105612193D01*
X152407787Y-105652220D01*
X152473763Y-105672233D01*
X152656172Y-105769733D01*
X152816054Y-105900946D01*
X152947267Y-106060828D01*
X153044767Y-106243237D01*
X153044767Y-106243238D01*
X153104807Y-106441164D01*
X153125080Y-106647000D01*
X153104807Y-106852836D01*
X153064780Y-106984787D01*
X153044767Y-107050763D01*
X152947267Y-107233172D01*
X152816054Y-107393054D01*
X152656172Y-107524267D01*
X152473763Y-107621767D01*
X152407787Y-107641780D01*
X152275836Y-107681807D01*
X152198707Y-107689403D01*
X152121580Y-107697000D01*
X152018420Y-107697000D01*
X151941293Y-107689403D01*
X151864164Y-107681807D01*
X151732213Y-107641780D01*
X151666237Y-107621767D01*
X151483828Y-107524267D01*
X151323946Y-107393054D01*
X151192733Y-107233172D01*
X151095233Y-107050763D01*
X151075220Y-106984787D01*
X151035193Y-106852836D01*
X151014920Y-106647000D01*
X151035193Y-106441164D01*
X151095233Y-106243238D01*
X151095233Y-106243237D01*
X151192733Y-106060828D01*
X151323946Y-105900946D01*
X151483828Y-105769733D01*
X151666237Y-105672233D01*
X151732213Y-105652220D01*
X151864164Y-105612193D01*
X151941293Y-105604597D01*
X152018420Y-105597000D01*
X152121580Y-105597000D01*
X152198707Y-105604596D01*
X152198707Y-105604596D01*
G37*
G36*
X149658707Y-105604596D02*
X149735836Y-105612193D01*
X149867787Y-105652220D01*
X149933763Y-105672233D01*
X150116172Y-105769733D01*
X150276054Y-105900946D01*
X150407267Y-106060828D01*
X150504767Y-106243237D01*
X150504767Y-106243238D01*
X150564807Y-106441164D01*
X150585080Y-106647000D01*
X150564807Y-106852836D01*
X150524780Y-106984787D01*
X150504767Y-107050763D01*
X150407267Y-107233172D01*
X150276054Y-107393054D01*
X150116172Y-107524267D01*
X149933763Y-107621767D01*
X149867787Y-107641780D01*
X149735836Y-107681807D01*
X149658707Y-107689403D01*
X149581580Y-107697000D01*
X149478420Y-107697000D01*
X149401293Y-107689403D01*
X149324164Y-107681807D01*
X149192213Y-107641780D01*
X149126237Y-107621767D01*
X148943828Y-107524267D01*
X148783946Y-107393054D01*
X148652733Y-107233172D01*
X148555233Y-107050763D01*
X148535220Y-106984787D01*
X148495193Y-106852836D01*
X148474920Y-106647000D01*
X148495193Y-106441164D01*
X148555233Y-106243238D01*
X148555233Y-106243237D01*
X148652733Y-106060828D01*
X148783946Y-105900946D01*
X148943828Y-105769733D01*
X149126237Y-105672233D01*
X149192213Y-105652220D01*
X149324164Y-105612193D01*
X149401293Y-105604597D01*
X149478420Y-105597000D01*
X149581580Y-105597000D01*
X149658707Y-105604596D01*
X149658707Y-105604596D01*
G37*
G36*
X147118707Y-105604596D02*
X147195836Y-105612193D01*
X147327787Y-105652220D01*
X147393763Y-105672233D01*
X147576172Y-105769733D01*
X147736054Y-105900946D01*
X147867267Y-106060828D01*
X147964767Y-106243237D01*
X147964767Y-106243238D01*
X148024807Y-106441164D01*
X148045080Y-106647000D01*
X148024807Y-106852836D01*
X147984780Y-106984787D01*
X147964767Y-107050763D01*
X147867267Y-107233172D01*
X147736054Y-107393054D01*
X147576172Y-107524267D01*
X147393763Y-107621767D01*
X147327787Y-107641780D01*
X147195836Y-107681807D01*
X147118707Y-107689403D01*
X147041580Y-107697000D01*
X146938420Y-107697000D01*
X146861293Y-107689403D01*
X146784164Y-107681807D01*
X146652213Y-107641780D01*
X146586237Y-107621767D01*
X146403828Y-107524267D01*
X146243946Y-107393054D01*
X146112733Y-107233172D01*
X146015233Y-107050763D01*
X145995220Y-106984787D01*
X145955193Y-106852836D01*
X145934920Y-106647000D01*
X145955193Y-106441164D01*
X146015233Y-106243238D01*
X146015233Y-106243237D01*
X146112733Y-106060828D01*
X146243946Y-105900946D01*
X146403828Y-105769733D01*
X146586237Y-105672233D01*
X146652213Y-105652220D01*
X146784164Y-105612193D01*
X146861293Y-105604597D01*
X146938420Y-105597000D01*
X147041580Y-105597000D01*
X147118707Y-105604596D01*
X147118707Y-105604596D01*
G37*
G36*
X145500000Y-107697000D02*
X143400000Y-107697000D01*
X143400000Y-105597000D01*
X145500000Y-105597000D01*
X145500000Y-107697000D01*
X145500000Y-107697000D01*
G37*
G36*
X157070000Y-107497000D02*
X155170000Y-107497000D01*
X155170000Y-105797000D01*
X157070000Y-105797000D01*
X157070000Y-107497000D01*
X157070000Y-107497000D01*
G37*
G36*
X159770000Y-107497000D02*
X157870000Y-107497000D01*
X157870000Y-105797000D01*
X159770000Y-105797000D01*
X159770000Y-107497000D01*
X159770000Y-107497000D01*
G37*
G36*
X112270000Y-107497000D02*
X110370000Y-107497000D01*
X110370000Y-105797000D01*
X112270000Y-105797000D01*
X112270000Y-107497000D01*
X112270000Y-107497000D01*
G37*
G36*
X109570000Y-107497000D02*
X107670000Y-107497000D01*
X107670000Y-105797000D01*
X109570000Y-105797000D01*
X109570000Y-107497000D01*
X109570000Y-107497000D01*
G37*
G36*
X166770000Y-107472000D02*
X164870000Y-107472000D01*
X164870000Y-105822000D01*
X166770000Y-105822000D01*
X166770000Y-107472000D01*
X166770000Y-107472000D01*
G37*
G36*
X162020000Y-107472000D02*
X160120000Y-107472000D01*
X160120000Y-105822000D01*
X162020000Y-105822000D01*
X162020000Y-107472000D01*
X162020000Y-107472000D01*
G37*
G36*
X164520000Y-107472000D02*
X162620000Y-107472000D01*
X162620000Y-105822000D01*
X164520000Y-105822000D01*
X164520000Y-107472000D01*
X164520000Y-107472000D01*
G37*
G36*
X169270000Y-107472000D02*
X167370000Y-107472000D01*
X167370000Y-105822000D01*
X169270000Y-105822000D01*
X169270000Y-107472000D01*
X169270000Y-107472000D01*
G37*
G36*
X94070000Y-105847000D02*
X92170000Y-105847000D01*
X92170000Y-104147000D01*
X94070000Y-104147000D01*
X94070000Y-105847000D01*
X94070000Y-105847000D01*
G37*
G36*
X96770000Y-105847000D02*
X94870000Y-105847000D01*
X94870000Y-104147000D01*
X96770000Y-104147000D01*
X96770000Y-105847000D01*
X96770000Y-105847000D01*
G37*
G36*
X102120000Y-105822000D02*
X100220000Y-105822000D01*
X100220000Y-104172000D01*
X102120000Y-104172000D01*
X102120000Y-105822000D01*
X102120000Y-105822000D01*
G37*
G36*
X99620000Y-105822000D02*
X97720000Y-105822000D01*
X97720000Y-104172000D01*
X99620000Y-104172000D01*
X99620000Y-105822000D01*
X99620000Y-105822000D01*
G37*
G36*
X83470000Y-105747000D02*
X82370000Y-105747000D01*
X82370000Y-104047000D01*
X83470000Y-104047000D01*
X83470000Y-105747000D01*
X83470000Y-105747000D01*
G37*
G36*
X85425554Y-104050934D02*
X85447165Y-104062485D01*
X85470614Y-104069598D01*
X85495000Y-104072000D01*
X87520000Y-104072000D01*
X87520000Y-105722000D01*
X85495000Y-105722000D01*
X85470614Y-105724402D01*
X85447165Y-105731515D01*
X85425554Y-105743066D01*
X85420761Y-105747000D01*
X84270000Y-105747000D01*
X84270000Y-104047000D01*
X85420761Y-104047000D01*
X85425554Y-104050934D01*
X85425554Y-104050934D01*
G37*
G36*
X90020000Y-105722000D02*
X88120000Y-105722000D01*
X88120000Y-104072000D01*
X90020000Y-104072000D01*
X90020000Y-105722000D01*
X90020000Y-105722000D01*
G37*
G36*
X140770000Y-104247000D02*
X138870000Y-104247000D01*
X138870000Y-102547000D01*
X140770000Y-102547000D01*
X140770000Y-104247000D01*
X140770000Y-104247000D01*
G37*
G36*
X143470000Y-104247000D02*
X141570000Y-104247000D01*
X141570000Y-102547000D01*
X143470000Y-102547000D01*
X143470000Y-104247000D01*
X143470000Y-104247000D01*
G37*
G36*
X132870000Y-100126000D02*
X130970000Y-100126000D01*
X130970000Y-98476000D01*
X132870000Y-98476000D01*
X132870000Y-100126000D01*
X132870000Y-100126000D01*
G37*
G36*
X126570000Y-100126000D02*
X124670000Y-100126000D01*
X124670000Y-98476000D01*
X126570000Y-98476000D01*
X126570000Y-100126000D01*
X126570000Y-100126000D01*
G37*
G36*
X124070000Y-100126000D02*
X122170000Y-100126000D01*
X122170000Y-98476000D01*
X124070000Y-98476000D01*
X124070000Y-100126000D01*
X124070000Y-100126000D01*
G37*
G36*
X117770000Y-100126000D02*
X115870000Y-100126000D01*
X115870000Y-98476000D01*
X117770000Y-98476000D01*
X117770000Y-100126000D01*
X117770000Y-100126000D01*
G37*
G36*
X108770000Y-100126000D02*
X106870000Y-100126000D01*
X106870000Y-98476000D01*
X108770000Y-98476000D01*
X108770000Y-100126000D01*
X108770000Y-100126000D01*
G37*
G36*
X106270000Y-100126000D02*
X104370000Y-100126000D01*
X104370000Y-98476000D01*
X106270000Y-98476000D01*
X106270000Y-100126000D01*
X106270000Y-100126000D01*
G37*
G36*
X99970000Y-100126000D02*
X98070000Y-100126000D01*
X98070000Y-98476000D01*
X99970000Y-98476000D01*
X99970000Y-100126000D01*
X99970000Y-100126000D01*
G37*
G36*
X97470000Y-100126000D02*
X95570000Y-100126000D01*
X95570000Y-98476000D01*
X97470000Y-98476000D01*
X97470000Y-100126000D01*
X97470000Y-100126000D01*
G37*
G36*
X115270000Y-100126000D02*
X113370000Y-100126000D01*
X113370000Y-98476000D01*
X115270000Y-98476000D01*
X115270000Y-100126000D01*
X115270000Y-100126000D01*
G37*
G36*
X144370000Y-100126000D02*
X142470000Y-100126000D01*
X142470000Y-98476000D01*
X144370000Y-98476000D01*
X144370000Y-100126000D01*
X144370000Y-100126000D01*
G37*
G36*
X141870000Y-100126000D02*
X139970000Y-100126000D01*
X139970000Y-98476000D01*
X141870000Y-98476000D01*
X141870000Y-100126000D01*
X141870000Y-100126000D01*
G37*
G36*
X91570000Y-100126000D02*
X89670000Y-100126000D01*
X89670000Y-98476000D01*
X91570000Y-98476000D01*
X91570000Y-100126000D01*
X91570000Y-100126000D01*
G37*
G36*
X135370000Y-100126000D02*
X133470000Y-100126000D01*
X133470000Y-98476000D01*
X135370000Y-98476000D01*
X135370000Y-100126000D01*
X135370000Y-100126000D01*
G37*
G36*
X89070000Y-100126000D02*
X87170000Y-100126000D01*
X87170000Y-98476000D01*
X89070000Y-98476000D01*
X89070000Y-100126000D01*
X89070000Y-100126000D01*
G37*
G36*
X162170000Y-100126000D02*
X160270000Y-100126000D01*
X160270000Y-98476000D01*
X162170000Y-98476000D01*
X162170000Y-100126000D01*
X162170000Y-100126000D01*
G37*
G36*
X159670000Y-100126000D02*
X157770000Y-100126000D01*
X157770000Y-98476000D01*
X159670000Y-98476000D01*
X159670000Y-100126000D01*
X159670000Y-100126000D01*
G37*
G36*
X153370000Y-100126000D02*
X151470000Y-100126000D01*
X151470000Y-98476000D01*
X153370000Y-98476000D01*
X153370000Y-100126000D01*
X153370000Y-100126000D01*
G37*
G36*
X150870000Y-100126000D02*
X148970000Y-100126000D01*
X148970000Y-98476000D01*
X150870000Y-98476000D01*
X150870000Y-100126000D01*
X150870000Y-100126000D01*
G37*
G36*
X170570000Y-100022000D02*
X168670000Y-100022000D01*
X168670000Y-98372000D01*
X170570000Y-98372000D01*
X170570000Y-100022000D01*
X170570000Y-100022000D01*
G37*
G36*
X168070000Y-100022000D02*
X166170000Y-100022000D01*
X166170000Y-98372000D01*
X168070000Y-98372000D01*
X168070000Y-100022000D01*
X168070000Y-100022000D01*
G37*
G36*
X169995000Y-97753576D02*
X167995000Y-97753576D01*
X167995000Y-96353576D01*
X169995000Y-96353576D01*
X169995000Y-97753576D01*
X169995000Y-97753576D01*
G37*
G36*
X90770000Y-97728576D02*
X88770000Y-97728576D01*
X88770000Y-96328576D01*
X90770000Y-96328576D01*
X90770000Y-97728576D01*
X90770000Y-97728576D01*
G37*
G36*
X116955000Y-97725576D02*
X114955000Y-97725576D01*
X114955000Y-96325576D01*
X116955000Y-96325576D01*
X116955000Y-97725576D01*
X116955000Y-97725576D01*
G37*
G36*
X152515000Y-97725576D02*
X150515000Y-97725576D01*
X150515000Y-96325576D01*
X152515000Y-96325576D01*
X152515000Y-97725576D01*
X152515000Y-97725576D01*
G37*
G36*
X161405000Y-97725576D02*
X159405000Y-97725576D01*
X159405000Y-96325576D01*
X161405000Y-96325576D01*
X161405000Y-97725576D01*
X161405000Y-97725576D01*
G37*
G36*
X143625000Y-97725576D02*
X141625000Y-97725576D01*
X141625000Y-96325576D01*
X143625000Y-96325576D01*
X143625000Y-97725576D01*
X143625000Y-97725576D01*
G37*
G36*
X134735000Y-97725576D02*
X132735000Y-97725576D01*
X132735000Y-96325576D01*
X134735000Y-96325576D01*
X134735000Y-97725576D01*
X134735000Y-97725576D01*
G37*
G36*
X99175000Y-97725576D02*
X97175000Y-97725576D01*
X97175000Y-96325576D01*
X99175000Y-96325576D01*
X99175000Y-97725576D01*
X99175000Y-97725576D01*
G37*
G36*
X108065000Y-97725576D02*
X106065000Y-97725576D01*
X106065000Y-96325576D01*
X108065000Y-96325576D01*
X108065000Y-97725576D01*
X108065000Y-97725576D01*
G37*
G36*
X125845000Y-97725576D02*
X123845000Y-97725576D01*
X123845000Y-96325576D01*
X125845000Y-96325576D01*
X125845000Y-97725576D01*
X125845000Y-97725576D01*
G37*
G36*
X164345000Y-97703576D02*
X162345000Y-97703576D01*
X162345000Y-96303576D01*
X164345000Y-96303576D01*
X164345000Y-97703576D01*
X164345000Y-97703576D01*
G37*
G36*
X85120000Y-97678576D02*
X83120000Y-97678576D01*
X83120000Y-96278576D01*
X85120000Y-96278576D01*
X85120000Y-97678576D01*
X85120000Y-97678576D01*
G37*
G36*
X102415000Y-97675576D02*
X100415000Y-97675576D01*
X100415000Y-96275576D01*
X102415000Y-96275576D01*
X102415000Y-97675576D01*
X102415000Y-97675576D01*
G37*
G36*
X111305000Y-97675576D02*
X109305000Y-97675576D01*
X109305000Y-96275576D01*
X111305000Y-96275576D01*
X111305000Y-97675576D01*
X111305000Y-97675576D01*
G37*
G36*
X146865000Y-97675576D02*
X144865000Y-97675576D01*
X144865000Y-96275576D01*
X146865000Y-96275576D01*
X146865000Y-97675576D01*
X146865000Y-97675576D01*
G37*
G36*
X120195000Y-97675576D02*
X118195000Y-97675576D01*
X118195000Y-96275576D01*
X120195000Y-96275576D01*
X120195000Y-97675576D01*
X120195000Y-97675576D01*
G37*
G36*
X137975000Y-97675576D02*
X135975000Y-97675576D01*
X135975000Y-96275576D01*
X137975000Y-96275576D01*
X137975000Y-97675576D01*
X137975000Y-97675576D01*
G37*
G36*
X155755000Y-97675576D02*
X153755000Y-97675576D01*
X153755000Y-96275576D01*
X155755000Y-96275576D01*
X155755000Y-97675576D01*
X155755000Y-97675576D01*
G37*
G36*
X93525000Y-97675576D02*
X91525000Y-97675576D01*
X91525000Y-96275576D01*
X93525000Y-96275576D01*
X93525000Y-97675576D01*
X93525000Y-97675576D01*
G37*
G36*
X129085000Y-97675576D02*
X127085000Y-97675576D01*
X127085000Y-96275576D01*
X129085000Y-96275576D01*
X129085000Y-97675576D01*
X129085000Y-97675576D01*
G37*
G36*
X164345000Y-94553576D02*
X162345000Y-94553576D01*
X162345000Y-93153576D01*
X164345000Y-93153576D01*
X164345000Y-94553576D01*
X164345000Y-94553576D01*
G37*
G36*
X169995000Y-94553576D02*
X167995000Y-94553576D01*
X167995000Y-93153576D01*
X169995000Y-93153576D01*
X169995000Y-94553576D01*
X169995000Y-94553576D01*
G37*
G36*
X90770000Y-94528576D02*
X88770000Y-94528576D01*
X88770000Y-93128576D01*
X90770000Y-93128576D01*
X90770000Y-94528576D01*
X90770000Y-94528576D01*
G37*
G36*
X85120000Y-94528576D02*
X83120000Y-94528576D01*
X83120000Y-93128576D01*
X85120000Y-93128576D01*
X85120000Y-94528576D01*
X85120000Y-94528576D01*
G37*
G36*
X102415000Y-94525576D02*
X100415000Y-94525576D01*
X100415000Y-93125576D01*
X102415000Y-93125576D01*
X102415000Y-94525576D01*
X102415000Y-94525576D01*
G37*
G36*
X108065000Y-94525576D02*
X106065000Y-94525576D01*
X106065000Y-93125576D01*
X108065000Y-93125576D01*
X108065000Y-94525576D01*
X108065000Y-94525576D01*
G37*
G36*
X93525000Y-94525576D02*
X91525000Y-94525576D01*
X91525000Y-93125576D01*
X93525000Y-93125576D01*
X93525000Y-94525576D01*
X93525000Y-94525576D01*
G37*
G36*
X99175000Y-94525576D02*
X97175000Y-94525576D01*
X97175000Y-93125576D01*
X99175000Y-93125576D01*
X99175000Y-94525576D01*
X99175000Y-94525576D01*
G37*
G36*
X111305000Y-94525576D02*
X109305000Y-94525576D01*
X109305000Y-93125576D01*
X111305000Y-93125576D01*
X111305000Y-94525576D01*
X111305000Y-94525576D01*
G37*
G36*
X116955000Y-94525576D02*
X114955000Y-94525576D01*
X114955000Y-93125576D01*
X116955000Y-93125576D01*
X116955000Y-94525576D01*
X116955000Y-94525576D01*
G37*
G36*
X120195000Y-94525576D02*
X118195000Y-94525576D01*
X118195000Y-93125576D01*
X120195000Y-93125576D01*
X120195000Y-94525576D01*
X120195000Y-94525576D01*
G37*
G36*
X125845000Y-94525576D02*
X123845000Y-94525576D01*
X123845000Y-93125576D01*
X125845000Y-93125576D01*
X125845000Y-94525576D01*
X125845000Y-94525576D01*
G37*
G36*
X129085000Y-94525576D02*
X127085000Y-94525576D01*
X127085000Y-93125576D01*
X129085000Y-93125576D01*
X129085000Y-94525576D01*
X129085000Y-94525576D01*
G37*
G36*
X134735000Y-94525576D02*
X132735000Y-94525576D01*
X132735000Y-93125576D01*
X134735000Y-93125576D01*
X134735000Y-94525576D01*
X134735000Y-94525576D01*
G37*
G36*
X137975000Y-94525576D02*
X135975000Y-94525576D01*
X135975000Y-93125576D01*
X137975000Y-93125576D01*
X137975000Y-94525576D01*
X137975000Y-94525576D01*
G37*
G36*
X161405000Y-94525576D02*
X159405000Y-94525576D01*
X159405000Y-93125576D01*
X161405000Y-93125576D01*
X161405000Y-94525576D01*
X161405000Y-94525576D01*
G37*
G36*
X143625000Y-94525576D02*
X141625000Y-94525576D01*
X141625000Y-93125576D01*
X143625000Y-93125576D01*
X143625000Y-94525576D01*
X143625000Y-94525576D01*
G37*
G36*
X155755000Y-94525576D02*
X153755000Y-94525576D01*
X153755000Y-93125576D01*
X155755000Y-93125576D01*
X155755000Y-94525576D01*
X155755000Y-94525576D01*
G37*
G36*
X146865000Y-94525576D02*
X144865000Y-94525576D01*
X144865000Y-93125576D01*
X146865000Y-93125576D01*
X146865000Y-94525576D01*
X146865000Y-94525576D01*
G37*
G36*
X152515000Y-94525576D02*
X150515000Y-94525576D01*
X150515000Y-93125576D01*
X152515000Y-93125576D01*
X152515000Y-94525576D01*
X152515000Y-94525576D01*
G37*
M02*
