G04 #@! TF.GenerationSoftware,KiCad,Pcbnew,5.0.1*
G04 #@! TF.CreationDate,2019-03-26T00:27:03-05:00*
G04 #@! TF.ProjectId,badge,62616467652E6B696361645F70636200,rev?*
G04 #@! TF.SameCoordinates,Original*
G04 #@! TF.FileFunction,Profile,NP*
%FSLAX46Y46*%
G04 Gerber Fmt 4.6, Leading zero omitted, Abs format (unit mm)*
G04 Created by KiCad (PCBNEW 5.0.1) date Tue 26 Mar 2019 12:27:03 AM CDT*
%MOMM*%
%LPD*%
G01*
G04 APERTURE LIST*
%ADD10C,0.150000*%
G04 #@! TA.AperFunction,NonConductor*
%ADD11C,0.100000*%
G04 #@! TD*
G04 APERTURE END LIST*
D10*
X171520000Y-153197000D02*
X81320000Y-153197000D01*
X171520000Y-142197000D02*
X171520000Y-153197000D01*
X81320000Y-142147000D02*
X81320000Y-153147000D01*
X171520000Y-88797000D02*
X171520000Y-142197000D01*
X170320000Y-142197000D02*
X171520000Y-142197000D01*
X81320000Y-88797000D02*
X171520000Y-88797000D01*
X81320000Y-142197000D02*
X81320000Y-88797000D01*
D11*
G04 #@! TO.C,0101*
X84270000Y-97928576D02*
X89670000Y-97928576D01*
X89670000Y-92928576D02*
X84270000Y-92928576D01*
X84270000Y-92928576D02*
X84270000Y-97928576D01*
X89670000Y-97928576D02*
X89670000Y-92928576D01*
G04 #@! TO.C,0001*
X101565000Y-97925576D02*
X106965000Y-97925576D01*
X106965000Y-92925576D02*
X101565000Y-92925576D01*
X101565000Y-92925576D02*
X101565000Y-97925576D01*
X106965000Y-97925576D02*
X106965000Y-92925576D01*
G04 #@! TO.C,0100*
X154905000Y-97925576D02*
X160305000Y-97925576D01*
X160305000Y-92925576D02*
X154905000Y-92925576D01*
X154905000Y-92925576D02*
X154905000Y-97925576D01*
X160305000Y-97925576D02*
X160305000Y-92925576D01*
G04 #@! TO.C,1000*
X163495000Y-97953576D02*
X168895000Y-97953576D01*
X168895000Y-92953576D02*
X163495000Y-92953576D01*
X163495000Y-92953576D02*
X163495000Y-97953576D01*
X168895000Y-97953576D02*
X168895000Y-92953576D01*
G04 #@! TO.C,1100*
X146015000Y-97925576D02*
X151415000Y-97925576D01*
X151415000Y-92925576D02*
X146015000Y-92925576D01*
X146015000Y-92925576D02*
X146015000Y-97925576D01*
X151415000Y-97925576D02*
X151415000Y-92925576D01*
G04 #@! TO.C,0010*
X137125000Y-97925576D02*
X142525000Y-97925576D01*
X142525000Y-92925576D02*
X137125000Y-92925576D01*
X137125000Y-92925576D02*
X137125000Y-97925576D01*
X142525000Y-97925576D02*
X142525000Y-92925576D01*
G04 #@! TO.C,1010*
X128235000Y-97925576D02*
X133635000Y-97925576D01*
X133635000Y-92925576D02*
X128235000Y-92925576D01*
X128235000Y-92925576D02*
X128235000Y-97925576D01*
X133635000Y-97925576D02*
X133635000Y-92925576D01*
G04 #@! TO.C,0110*
X119345000Y-97925576D02*
X124745000Y-97925576D01*
X124745000Y-92925576D02*
X119345000Y-92925576D01*
X119345000Y-92925576D02*
X119345000Y-97925576D01*
X124745000Y-97925576D02*
X124745000Y-92925576D01*
G04 #@! TO.C,1110*
X110455000Y-97925576D02*
X115855000Y-97925576D01*
X115855000Y-92925576D02*
X110455000Y-92925576D01*
X110455000Y-92925576D02*
X110455000Y-97925576D01*
X115855000Y-97925576D02*
X115855000Y-92925576D01*
G04 #@! TO.C,1001*
X92675000Y-97925576D02*
X98075000Y-97925576D01*
X98075000Y-92925576D02*
X92675000Y-92925576D01*
X92675000Y-92925576D02*
X92675000Y-97925576D01*
X98075000Y-97925576D02*
X98075000Y-92925576D01*
G04 #@! TD*
M02*
