G04 #@! TF.GenerationSoftware,KiCad,Pcbnew,5.0.1*
G04 #@! TF.CreationDate,2019-01-19T11:15:44-06:00*
G04 #@! TF.ProjectId,badge,62616467652E6B696361645F70636200,rev?*
G04 #@! TF.SameCoordinates,Original*
G04 #@! TF.FileFunction,Copper,L2,Bot,Signal*
G04 #@! TF.FilePolarity,Positive*
%FSLAX46Y46*%
G04 Gerber Fmt 4.6, Leading zero omitted, Abs format (unit mm)*
G04 Created by KiCad (PCBNEW 5.0.1) date Sat 19 Jan 2019 11:15:44 AM CST*
%MOMM*%
%LPD*%
G01*
G04 APERTURE LIST*
G04 #@! TA.AperFunction,ComponentPad*
%ADD10C,3.000000*%
G04 #@! TD*
G04 #@! TA.AperFunction,ComponentPad*
%ADD11C,2.000000*%
G04 #@! TD*
G04 #@! TA.AperFunction,ComponentPad*
%ADD12C,2.499360*%
G04 #@! TD*
G04 #@! TA.AperFunction,SMDPad,CuDef*
%ADD13R,1.300000X3.400000*%
G04 #@! TD*
G04 #@! TA.AperFunction,ComponentPad*
%ADD14R,1.700000X1.700000*%
G04 #@! TD*
G04 #@! TA.AperFunction,ComponentPad*
%ADD15O,1.700000X1.700000*%
G04 #@! TD*
G04 #@! TA.AperFunction,SMDPad,CuDef*
%ADD16R,10.000000X2.000000*%
G04 #@! TD*
G04 #@! TA.AperFunction,ViaPad*
%ADD17C,0.600000*%
G04 #@! TD*
G04 #@! TA.AperFunction,Conductor*
%ADD18C,0.250000*%
G04 #@! TD*
G04 #@! TA.AperFunction,Conductor*
%ADD19C,0.254000*%
G04 #@! TD*
G04 APERTURE END LIST*
D10*
G04 #@! TO.P,BT1,1*
G04 #@! TO.N,N/C*
X139320000Y-113997000D03*
G04 #@! TO.N,VDDA*
X113920000Y-113997000D03*
G04 #@! TD*
D11*
G04 #@! TO.P,J4,1*
G04 #@! TO.N,RX*
X165481000Y-131064000D03*
G04 #@! TO.N,TX*
X169291000Y-131064000D03*
G04 #@! TD*
G04 #@! TO.P,J7,1*
G04 #@! TO.N,IO21*
X152400000Y-131826000D03*
G04 #@! TD*
G04 #@! TO.P,J9,1*
G04 #@! TO.N,IO0*
X145034000Y-131826000D03*
G04 #@! TD*
D12*
G04 #@! TO.P,J14,1*
G04 #@! TO.N,VDD*
X83920000Y-128607000D03*
G04 #@! TO.N,VSS*
X83920000Y-124797000D03*
G04 #@! TD*
D13*
G04 #@! TO.P,LS1,1*
G04 #@! TO.N,Net-(LS1-Pad1)*
X130895000Y-114305000D03*
G04 #@! TO.P,LS1,2*
G04 #@! TO.N,VSS*
X122195000Y-114305000D03*
G04 #@! TD*
D14*
G04 #@! TO.P,J8,1*
G04 #@! TO.N,IO16*
X122030000Y-130147000D03*
D15*
G04 #@! TO.P,J8,2*
G04 #@! TO.N,IO17*
X124570000Y-130147000D03*
G04 #@! TO.P,J8,3*
G04 #@! TO.N,IO5*
X127110000Y-130147000D03*
G04 #@! TO.P,J8,4*
G04 #@! TO.N,IO18*
X129650000Y-130147000D03*
G04 #@! TO.P,J8,5*
G04 #@! TO.N,IO19*
X132190000Y-130147000D03*
G04 #@! TD*
D14*
G04 #@! TO.P,J1,1*
G04 #@! TO.N,IO33*
X144450000Y-106647000D03*
D15*
G04 #@! TO.P,J1,2*
G04 #@! TO.N,IO32*
X146990000Y-106647000D03*
G04 #@! TO.P,J1,3*
G04 #@! TO.N,IO35*
X149530000Y-106647000D03*
G04 #@! TO.P,J1,4*
G04 #@! TO.N,IO34*
X152070000Y-106647000D03*
G04 #@! TD*
D16*
G04 #@! TO.P,REF\002A\002A,5*
G04 #@! TO.N,N/C*
X126520000Y-121597000D03*
G04 #@! TO.P,REF\002A\002A,4*
X164520000Y-103597000D03*
G04 #@! TO.P,REF\002A\002A,3*
X88520000Y-103597000D03*
G04 #@! TO.P,REF\002A\002A,2*
X88520000Y-90597000D03*
G04 #@! TO.P,REF\002A\002A,1*
X164520000Y-90597000D03*
G04 #@! TD*
D17*
G04 #@! TO.N,VDD*
X156120000Y-106397000D03*
X110720000Y-99797000D03*
X101520000Y-99797000D03*
X92920000Y-99797000D03*
X83320000Y-99797000D03*
X104120000Y-110397000D03*
X106320000Y-110397000D03*
X92038320Y-96280781D03*
X92132000Y-93713000D03*
X100768000Y-96761000D03*
X100768000Y-93713000D03*
X109755769Y-96810229D03*
X109912000Y-94221000D03*
X118548000Y-96253000D03*
X118548000Y-93713000D03*
X127535769Y-96810229D03*
X127692000Y-94221000D03*
X136328000Y-96761000D03*
X136328000Y-94221000D03*
X145315769Y-96810229D03*
X145315769Y-93869231D03*
X154108000Y-96761000D03*
X154108000Y-94221000D03*
X162744000Y-96761000D03*
X162744000Y-94221000D03*
X168070000Y-105397000D03*
X110520000Y-110397000D03*
X161920000Y-108197000D03*
G04 #@! TO.N,VSS*
X96920000Y-111197000D03*
X99120000Y-108397000D03*
X119997600Y-114321400D03*
X155030000Y-119080000D03*
X162814000Y-125984000D03*
G04 #@! TO.N,SPI*
X170945000Y-94197000D03*
X151300000Y-110380000D03*
G04 #@! TO.N,TX*
X95156000Y-116205000D03*
X158920000Y-128380000D03*
G04 #@! TO.N,RX*
X95156000Y-114935000D03*
X157650000Y-128380000D03*
G04 #@! TO.N,IO19*
X153820000Y-129397000D03*
G04 #@! TO.N,IO18*
X152570000Y-128897000D03*
G04 #@! TO.N,IO5*
X151320000Y-128397000D03*
G04 #@! TO.N,IO17*
X150070000Y-127897000D03*
G04 #@! TO.N,IO16*
X136070000Y-126672010D03*
X138570000Y-126672010D03*
G04 #@! TO.N,IO27*
X94520000Y-111597000D03*
X148920000Y-112797000D03*
G04 #@! TO.N,Net-(J10-Pad2)*
X86868000Y-113665000D03*
X88320000Y-114897000D03*
G04 #@! TO.N,Net-(LS1-Pad1)*
X137920000Y-124972000D03*
G04 #@! TD*
D18*
G04 #@! TO.N,VDD*
X92038320Y-96280781D02*
X92038320Y-93806680D01*
X92038320Y-93806680D02*
X92132000Y-93713000D01*
X100768000Y-96761000D02*
X100768000Y-93713000D01*
X109755769Y-96810229D02*
X109755769Y-94377231D01*
X109755769Y-94377231D02*
X109912000Y-94221000D01*
X118548000Y-96253000D02*
X118548000Y-93713000D01*
X127535769Y-96810229D02*
X127535769Y-94377231D01*
X127535769Y-94377231D02*
X127692000Y-94221000D01*
X136328000Y-96761000D02*
X136328000Y-94221000D01*
X145315769Y-96810229D02*
X145315769Y-93869231D01*
X154108000Y-96761000D02*
X154108000Y-94221000D01*
X162744000Y-96761000D02*
X162744000Y-94221000D01*
G04 #@! TO.N,VSS*
X122195000Y-114305000D02*
X120014000Y-114305000D01*
X120014000Y-114305000D02*
X119997600Y-114321400D01*
X154940000Y-119126000D02*
X154986000Y-119080000D01*
X154986000Y-119080000D02*
X155030000Y-119080000D01*
X96920000Y-110597000D02*
X99120000Y-108397000D01*
X96920000Y-111197000D02*
X96920000Y-110597000D01*
G04 #@! TO.N,SPI*
X165737000Y-110380000D02*
X151300000Y-110380000D01*
X170945000Y-105172000D02*
X165737000Y-110380000D01*
X170945000Y-94197000D02*
X170945000Y-105172000D01*
G04 #@! TO.N,TX*
X95156000Y-116205000D02*
X96181000Y-116205000D01*
X96181000Y-116205000D02*
X106023010Y-126047010D01*
X106023010Y-126047010D02*
X154392008Y-126047010D01*
X154392008Y-126047010D02*
X157349999Y-129005001D01*
X157349999Y-129005001D02*
X158294999Y-129005001D01*
X158294999Y-129005001D02*
X158920000Y-128380000D01*
G04 #@! TO.N,RX*
X96181000Y-114935000D02*
X106843000Y-125597000D01*
X95156000Y-114935000D02*
X96181000Y-114935000D01*
X106843000Y-125597000D02*
X155920000Y-125597000D01*
X155920000Y-125597000D02*
X157650000Y-127327000D01*
X157650000Y-127327000D02*
X157650000Y-128380000D01*
G04 #@! TO.N,IO19*
X132940000Y-129397000D02*
X132190000Y-130147000D01*
X153820000Y-129397000D02*
X132940000Y-129397000D01*
G04 #@! TO.N,IO18*
X130900000Y-128897000D02*
X129650000Y-130147000D01*
X152570000Y-128897000D02*
X130900000Y-128897000D01*
G04 #@! TO.N,IO5*
X128860000Y-128397000D02*
X127110000Y-130147000D01*
X151320000Y-128397000D02*
X128860000Y-128397000D01*
G04 #@! TO.N,IO17*
X126820000Y-127897000D02*
X124570000Y-130147000D01*
X150070000Y-127897000D02*
X126820000Y-127897000D01*
G04 #@! TO.N,IO16*
X136070000Y-126672010D02*
X138570000Y-126672010D01*
G04 #@! TO.N,IO27*
X131805001Y-112279999D02*
X132522002Y-112997000D01*
X121284999Y-112279999D02*
X131805001Y-112279999D01*
X120567998Y-112997000D02*
X121284999Y-112279999D01*
X94520000Y-111597000D02*
X95920000Y-112997000D01*
X95920000Y-112997000D02*
X120567998Y-112997000D01*
X132522002Y-112997000D02*
X148720000Y-112997000D01*
X148720000Y-112997000D02*
X148920000Y-112797000D01*
G04 #@! TO.N,Net-(J10-Pad2)*
X86868000Y-113665000D02*
X87088000Y-113665000D01*
X87088000Y-113665000D02*
X88320000Y-114897000D01*
G04 #@! TO.N,Net-(LS1-Pad1)*
X131795000Y-114305000D02*
X130895000Y-114305000D01*
X137920000Y-120430000D02*
X131795000Y-114305000D01*
X137920000Y-124972000D02*
X137920000Y-120430000D01*
G04 #@! TD*
D19*
G04 #@! TO.N,VDD*
G36*
X82872560Y-89597000D02*
X82872560Y-91597000D01*
X82921843Y-91844765D01*
X83062191Y-92054809D01*
X83272235Y-92195157D01*
X83520000Y-92244440D01*
X84998194Y-92244440D01*
X84802727Y-92283321D01*
X84576143Y-92434719D01*
X84424745Y-92661303D01*
X84371581Y-92928576D01*
X84385000Y-92996038D01*
X84385001Y-97861109D01*
X84371581Y-97928576D01*
X84424745Y-98195849D01*
X84576143Y-98422433D01*
X84802727Y-98573831D01*
X85002538Y-98613576D01*
X85002539Y-98613576D01*
X85070000Y-98626995D01*
X85137462Y-98613576D01*
X90002538Y-98613576D01*
X90070000Y-98626995D01*
X90137461Y-98613576D01*
X90137462Y-98613576D01*
X90337273Y-98573831D01*
X90563857Y-98422433D01*
X90715255Y-98195849D01*
X90768419Y-97928576D01*
X90755000Y-97861114D01*
X90755000Y-92996038D01*
X90768419Y-92928576D01*
X90715255Y-92661303D01*
X90563857Y-92434719D01*
X90337273Y-92283321D01*
X90141806Y-92244440D01*
X93388112Y-92244440D01*
X93207727Y-92280321D01*
X92981143Y-92431719D01*
X92829745Y-92658303D01*
X92776581Y-92925576D01*
X92790000Y-92993038D01*
X92790001Y-97858109D01*
X92776581Y-97925576D01*
X92829745Y-98192849D01*
X92981143Y-98419433D01*
X93207727Y-98570831D01*
X93407538Y-98610576D01*
X93407539Y-98610576D01*
X93475000Y-98623995D01*
X93542462Y-98610576D01*
X98407538Y-98610576D01*
X98475000Y-98623995D01*
X98542461Y-98610576D01*
X98542462Y-98610576D01*
X98742273Y-98570831D01*
X98968857Y-98419433D01*
X99120255Y-98192849D01*
X99173419Y-97925576D01*
X99160000Y-97858114D01*
X99160000Y-92993038D01*
X99173419Y-92925576D01*
X101666581Y-92925576D01*
X101680000Y-92993038D01*
X101680001Y-97858109D01*
X101666581Y-97925576D01*
X101719745Y-98192849D01*
X101871143Y-98419433D01*
X102097727Y-98570831D01*
X102297538Y-98610576D01*
X102297539Y-98610576D01*
X102365000Y-98623995D01*
X102432462Y-98610576D01*
X107297538Y-98610576D01*
X107365000Y-98623995D01*
X107432461Y-98610576D01*
X107432462Y-98610576D01*
X107632273Y-98570831D01*
X107858857Y-98419433D01*
X108010255Y-98192849D01*
X108063419Y-97925576D01*
X108050000Y-97858114D01*
X108050000Y-92993038D01*
X108063419Y-92925576D01*
X110556581Y-92925576D01*
X110570000Y-92993038D01*
X110570001Y-97858109D01*
X110556581Y-97925576D01*
X110609745Y-98192849D01*
X110761143Y-98419433D01*
X110987727Y-98570831D01*
X111187538Y-98610576D01*
X111187539Y-98610576D01*
X111255000Y-98623995D01*
X111322462Y-98610576D01*
X116187538Y-98610576D01*
X116255000Y-98623995D01*
X116322461Y-98610576D01*
X116322462Y-98610576D01*
X116522273Y-98570831D01*
X116748857Y-98419433D01*
X116900255Y-98192849D01*
X116953419Y-97925576D01*
X116940000Y-97858114D01*
X116940000Y-92993038D01*
X116953419Y-92925576D01*
X119446581Y-92925576D01*
X119460000Y-92993038D01*
X119460001Y-97858109D01*
X119446581Y-97925576D01*
X119499745Y-98192849D01*
X119651143Y-98419433D01*
X119877727Y-98570831D01*
X120077538Y-98610576D01*
X120077539Y-98610576D01*
X120145000Y-98623995D01*
X120212462Y-98610576D01*
X125077538Y-98610576D01*
X125145000Y-98623995D01*
X125212461Y-98610576D01*
X125212462Y-98610576D01*
X125412273Y-98570831D01*
X125638857Y-98419433D01*
X125790255Y-98192849D01*
X125843419Y-97925576D01*
X125830000Y-97858114D01*
X125830000Y-92993038D01*
X125843419Y-92925576D01*
X128336581Y-92925576D01*
X128350000Y-92993038D01*
X128350001Y-97858109D01*
X128336581Y-97925576D01*
X128389745Y-98192849D01*
X128541143Y-98419433D01*
X128767727Y-98570831D01*
X128967538Y-98610576D01*
X128967539Y-98610576D01*
X129035000Y-98623995D01*
X129102462Y-98610576D01*
X133967538Y-98610576D01*
X134035000Y-98623995D01*
X134102461Y-98610576D01*
X134102462Y-98610576D01*
X134302273Y-98570831D01*
X134528857Y-98419433D01*
X134680255Y-98192849D01*
X134733419Y-97925576D01*
X134720000Y-97858114D01*
X134720000Y-92993038D01*
X134733419Y-92925576D01*
X137226581Y-92925576D01*
X137240000Y-92993038D01*
X137240001Y-97858109D01*
X137226581Y-97925576D01*
X137279745Y-98192849D01*
X137431143Y-98419433D01*
X137657727Y-98570831D01*
X137857538Y-98610576D01*
X137857539Y-98610576D01*
X137925000Y-98623995D01*
X137992462Y-98610576D01*
X142857538Y-98610576D01*
X142925000Y-98623995D01*
X142992461Y-98610576D01*
X142992462Y-98610576D01*
X143192273Y-98570831D01*
X143418857Y-98419433D01*
X143570255Y-98192849D01*
X143623419Y-97925576D01*
X143610000Y-97858114D01*
X143610000Y-92993038D01*
X143623419Y-92925576D01*
X146116581Y-92925576D01*
X146130000Y-92993038D01*
X146130001Y-97858109D01*
X146116581Y-97925576D01*
X146169745Y-98192849D01*
X146321143Y-98419433D01*
X146547727Y-98570831D01*
X146747538Y-98610576D01*
X146747539Y-98610576D01*
X146815000Y-98623995D01*
X146882462Y-98610576D01*
X151747538Y-98610576D01*
X151815000Y-98623995D01*
X151882461Y-98610576D01*
X151882462Y-98610576D01*
X152082273Y-98570831D01*
X152308857Y-98419433D01*
X152460255Y-98192849D01*
X152513419Y-97925576D01*
X152500000Y-97858114D01*
X152500000Y-92993038D01*
X152513419Y-92925576D01*
X152460255Y-92658303D01*
X152308857Y-92431719D01*
X152082273Y-92280321D01*
X151882462Y-92240576D01*
X151815000Y-92227157D01*
X151747539Y-92240576D01*
X146882461Y-92240576D01*
X146815000Y-92227157D01*
X146747538Y-92240576D01*
X146547727Y-92280321D01*
X146321143Y-92431719D01*
X146169745Y-92658303D01*
X146116581Y-92925576D01*
X143623419Y-92925576D01*
X143570255Y-92658303D01*
X143418857Y-92431719D01*
X143192273Y-92280321D01*
X142992462Y-92240576D01*
X142925000Y-92227157D01*
X142857539Y-92240576D01*
X137992461Y-92240576D01*
X137925000Y-92227157D01*
X137857538Y-92240576D01*
X137657727Y-92280321D01*
X137431143Y-92431719D01*
X137279745Y-92658303D01*
X137226581Y-92925576D01*
X134733419Y-92925576D01*
X134680255Y-92658303D01*
X134528857Y-92431719D01*
X134302273Y-92280321D01*
X134102462Y-92240576D01*
X134035000Y-92227157D01*
X133967539Y-92240576D01*
X129102461Y-92240576D01*
X129035000Y-92227157D01*
X128967538Y-92240576D01*
X128767727Y-92280321D01*
X128541143Y-92431719D01*
X128389745Y-92658303D01*
X128336581Y-92925576D01*
X125843419Y-92925576D01*
X125790255Y-92658303D01*
X125638857Y-92431719D01*
X125412273Y-92280321D01*
X125212462Y-92240576D01*
X125145000Y-92227157D01*
X125077539Y-92240576D01*
X120212461Y-92240576D01*
X120145000Y-92227157D01*
X120077538Y-92240576D01*
X119877727Y-92280321D01*
X119651143Y-92431719D01*
X119499745Y-92658303D01*
X119446581Y-92925576D01*
X116953419Y-92925576D01*
X116900255Y-92658303D01*
X116748857Y-92431719D01*
X116522273Y-92280321D01*
X116322462Y-92240576D01*
X116255000Y-92227157D01*
X116187539Y-92240576D01*
X111322461Y-92240576D01*
X111255000Y-92227157D01*
X111187538Y-92240576D01*
X110987727Y-92280321D01*
X110761143Y-92431719D01*
X110609745Y-92658303D01*
X110556581Y-92925576D01*
X108063419Y-92925576D01*
X108010255Y-92658303D01*
X107858857Y-92431719D01*
X107632273Y-92280321D01*
X107432462Y-92240576D01*
X107365000Y-92227157D01*
X107297539Y-92240576D01*
X102432461Y-92240576D01*
X102365000Y-92227157D01*
X102297538Y-92240576D01*
X102097727Y-92280321D01*
X101871143Y-92431719D01*
X101719745Y-92658303D01*
X101666581Y-92925576D01*
X99173419Y-92925576D01*
X99120255Y-92658303D01*
X98968857Y-92431719D01*
X98742273Y-92280321D01*
X98542462Y-92240576D01*
X98475000Y-92227157D01*
X98407539Y-92240576D01*
X93542461Y-92240576D01*
X93540944Y-92240274D01*
X93767765Y-92195157D01*
X93977809Y-92054809D01*
X94118157Y-91844765D01*
X94167440Y-91597000D01*
X94167440Y-89597000D01*
X94149538Y-89507000D01*
X158890462Y-89507000D01*
X158872560Y-89597000D01*
X158872560Y-91597000D01*
X158921843Y-91844765D01*
X159062191Y-92054809D01*
X159272235Y-92195157D01*
X159500574Y-92240576D01*
X155772461Y-92240576D01*
X155705000Y-92227157D01*
X155637538Y-92240576D01*
X155437727Y-92280321D01*
X155211143Y-92431719D01*
X155059745Y-92658303D01*
X155006581Y-92925576D01*
X155020000Y-92993038D01*
X155020001Y-97858109D01*
X155006581Y-97925576D01*
X155059745Y-98192849D01*
X155211143Y-98419433D01*
X155437727Y-98570831D01*
X155637538Y-98610576D01*
X155637539Y-98610576D01*
X155705000Y-98623995D01*
X155772462Y-98610576D01*
X160637538Y-98610576D01*
X160705000Y-98623995D01*
X160772461Y-98610576D01*
X160772462Y-98610576D01*
X160972273Y-98570831D01*
X161198857Y-98419433D01*
X161350255Y-98192849D01*
X161403419Y-97925576D01*
X161390000Y-97858114D01*
X161390000Y-92993038D01*
X161397849Y-92953576D01*
X163596581Y-92953576D01*
X163610000Y-93021038D01*
X163610001Y-97886109D01*
X163596581Y-97953576D01*
X163649745Y-98220849D01*
X163801143Y-98447433D01*
X164027727Y-98598831D01*
X164227538Y-98638576D01*
X164227539Y-98638576D01*
X164295000Y-98651995D01*
X164362462Y-98638576D01*
X169227538Y-98638576D01*
X169295000Y-98651995D01*
X169362461Y-98638576D01*
X169362462Y-98638576D01*
X169562273Y-98598831D01*
X169788857Y-98447433D01*
X169940255Y-98220849D01*
X169993419Y-97953576D01*
X169980000Y-97886114D01*
X169980000Y-93021038D01*
X169993419Y-92953576D01*
X169940255Y-92686303D01*
X169788857Y-92459719D01*
X169562273Y-92308321D01*
X169362462Y-92268576D01*
X169295000Y-92255157D01*
X169227539Y-92268576D01*
X164362461Y-92268576D01*
X164295000Y-92255157D01*
X164227538Y-92268576D01*
X164027727Y-92308321D01*
X163801143Y-92459719D01*
X163649745Y-92686303D01*
X163596581Y-92953576D01*
X161397849Y-92953576D01*
X161403419Y-92925576D01*
X161350255Y-92658303D01*
X161198857Y-92431719D01*
X160972273Y-92280321D01*
X160791888Y-92244440D01*
X169520000Y-92244440D01*
X169767765Y-92195157D01*
X169977809Y-92054809D01*
X170118157Y-91844765D01*
X170167440Y-91597000D01*
X170167440Y-89597000D01*
X170149538Y-89507000D01*
X170810000Y-89507000D01*
X170810000Y-93262000D01*
X170759017Y-93262000D01*
X170415365Y-93404345D01*
X170152345Y-93667365D01*
X170010000Y-94011017D01*
X170010000Y-94382983D01*
X170152345Y-94726635D01*
X170185000Y-94759290D01*
X170185001Y-104857197D01*
X165422199Y-109620000D01*
X151862290Y-109620000D01*
X151829635Y-109587345D01*
X151485983Y-109445000D01*
X151114017Y-109445000D01*
X150770365Y-109587345D01*
X150507345Y-109850365D01*
X150365000Y-110194017D01*
X150365000Y-110565983D01*
X150507345Y-110909635D01*
X150770365Y-111172655D01*
X151114017Y-111315000D01*
X151485983Y-111315000D01*
X151829635Y-111172655D01*
X151862290Y-111140000D01*
X164193000Y-111140000D01*
X164193000Y-128397000D01*
X164202667Y-128445601D01*
X164230197Y-128486803D01*
X164271399Y-128514333D01*
X164320000Y-128524000D01*
X170810001Y-128524000D01*
X170810001Y-130458731D01*
X170677086Y-130137847D01*
X170217153Y-129677914D01*
X169616222Y-129429000D01*
X168965778Y-129429000D01*
X168364847Y-129677914D01*
X167904914Y-130137847D01*
X167656000Y-130738778D01*
X167656000Y-131389222D01*
X167772302Y-131670000D01*
X166999698Y-131670000D01*
X167116000Y-131389222D01*
X167116000Y-130738778D01*
X166867086Y-130137847D01*
X166407153Y-129677914D01*
X165806222Y-129429000D01*
X165155778Y-129429000D01*
X164554847Y-129677914D01*
X164094914Y-130137847D01*
X163846000Y-130738778D01*
X163846000Y-131389222D01*
X163962302Y-131670000D01*
X154035000Y-131670000D01*
X154035000Y-131500778D01*
X153786086Y-130899847D01*
X153326153Y-130439914D01*
X152725222Y-130191000D01*
X152074778Y-130191000D01*
X151473847Y-130439914D01*
X151013914Y-130899847D01*
X150765000Y-131500778D01*
X150765000Y-131670000D01*
X146669000Y-131670000D01*
X146669000Y-131500778D01*
X146420086Y-130899847D01*
X145960153Y-130439914D01*
X145359222Y-130191000D01*
X144708778Y-130191000D01*
X144107847Y-130439914D01*
X143647914Y-130899847D01*
X143399000Y-131500778D01*
X143399000Y-131670000D01*
X82030000Y-131670000D01*
X82030000Y-129940089D01*
X82766517Y-129940089D01*
X82895725Y-130232859D01*
X83595883Y-130501071D01*
X84345384Y-130480928D01*
X84944275Y-130232859D01*
X85073483Y-129940089D01*
X83920000Y-128786605D01*
X82766517Y-129940089D01*
X82030000Y-129940089D01*
X82030000Y-128434361D01*
X82046072Y-129032384D01*
X82294141Y-129631275D01*
X82586911Y-129760483D01*
X83740395Y-128607000D01*
X84099605Y-128607000D01*
X85253089Y-129760483D01*
X85545859Y-129631275D01*
X85814071Y-128931117D01*
X85793928Y-128181616D01*
X85545859Y-127582725D01*
X85253089Y-127453517D01*
X84099605Y-128607000D01*
X83740395Y-128607000D01*
X82586911Y-127453517D01*
X82294141Y-127582725D01*
X82030000Y-128272256D01*
X82030000Y-127273911D01*
X82766517Y-127273911D01*
X83920000Y-128427395D01*
X85073483Y-127273911D01*
X84944275Y-126981141D01*
X84244117Y-126712929D01*
X83494616Y-126733072D01*
X82895725Y-126981141D01*
X82766517Y-127273911D01*
X82030000Y-127273911D01*
X82030000Y-124422114D01*
X82035320Y-124422114D01*
X82035320Y-125171886D01*
X82322245Y-125864585D01*
X82852415Y-126394755D01*
X83545114Y-126681680D01*
X84294886Y-126681680D01*
X84987585Y-126394755D01*
X85517755Y-125864585D01*
X85804680Y-125171886D01*
X85804680Y-124422114D01*
X85517755Y-123729415D01*
X84987585Y-123199245D01*
X84294886Y-122912320D01*
X83545114Y-122912320D01*
X82852415Y-123199245D01*
X82322245Y-123729415D01*
X82035320Y-124422114D01*
X82030000Y-124422114D01*
X82030000Y-113479017D01*
X85933000Y-113479017D01*
X85933000Y-113850983D01*
X86075345Y-114194635D01*
X86338365Y-114457655D01*
X86682017Y-114600000D01*
X86948199Y-114600000D01*
X87385000Y-115036802D01*
X87385000Y-115082983D01*
X87527345Y-115426635D01*
X87790365Y-115689655D01*
X88134017Y-115832000D01*
X88505983Y-115832000D01*
X88849635Y-115689655D01*
X89112655Y-115426635D01*
X89255000Y-115082983D01*
X89255000Y-114711017D01*
X89112655Y-114367365D01*
X88849635Y-114104345D01*
X88505983Y-113962000D01*
X88459802Y-113962000D01*
X87680093Y-113182291D01*
X87660655Y-113135365D01*
X87397635Y-112872345D01*
X87053983Y-112730000D01*
X86682017Y-112730000D01*
X86338365Y-112872345D01*
X86075345Y-113135365D01*
X85933000Y-113479017D01*
X82030000Y-113479017D01*
X82030000Y-111411017D01*
X93585000Y-111411017D01*
X93585000Y-111782983D01*
X93727345Y-112126635D01*
X93990365Y-112389655D01*
X94334017Y-112532000D01*
X94380199Y-112532000D01*
X95329671Y-113481473D01*
X95372071Y-113544929D01*
X95623463Y-113712904D01*
X95845148Y-113757000D01*
X95845153Y-113757000D01*
X95920000Y-113771888D01*
X95994847Y-113757000D01*
X111785000Y-113757000D01*
X111785000Y-114421678D01*
X112110034Y-115206380D01*
X112710620Y-115806966D01*
X113495322Y-116132000D01*
X114344678Y-116132000D01*
X115129380Y-115806966D01*
X115729966Y-115206380D01*
X116055000Y-114421678D01*
X116055000Y-113757000D01*
X119239710Y-113757000D01*
X119204945Y-113791765D01*
X119062600Y-114135417D01*
X119062600Y-114507383D01*
X119204945Y-114851035D01*
X119467965Y-115114055D01*
X119811617Y-115256400D01*
X120183583Y-115256400D01*
X120527235Y-115114055D01*
X120576290Y-115065000D01*
X120897560Y-115065000D01*
X120897560Y-116005000D01*
X120946843Y-116252765D01*
X121087191Y-116462809D01*
X121297235Y-116603157D01*
X121545000Y-116652440D01*
X122845000Y-116652440D01*
X123092765Y-116603157D01*
X123302809Y-116462809D01*
X123443157Y-116252765D01*
X123492440Y-116005000D01*
X123492440Y-113039999D01*
X129597560Y-113039999D01*
X129597560Y-116005000D01*
X129646843Y-116252765D01*
X129787191Y-116462809D01*
X129997235Y-116603157D01*
X130245000Y-116652440D01*
X131545000Y-116652440D01*
X131792765Y-116603157D01*
X132002809Y-116462809D01*
X132143157Y-116252765D01*
X132192440Y-116005000D01*
X132192440Y-115777241D01*
X137160001Y-120744803D01*
X137160000Y-124409710D01*
X137127345Y-124442365D01*
X136985000Y-124786017D01*
X136985000Y-124837000D01*
X107157802Y-124837000D01*
X102917802Y-120597000D01*
X120872560Y-120597000D01*
X120872560Y-122597000D01*
X120921843Y-122844765D01*
X121062191Y-123054809D01*
X121272235Y-123195157D01*
X121520000Y-123244440D01*
X131520000Y-123244440D01*
X131767765Y-123195157D01*
X131977809Y-123054809D01*
X132118157Y-122844765D01*
X132167440Y-122597000D01*
X132167440Y-120597000D01*
X132118157Y-120349235D01*
X131977809Y-120139191D01*
X131767765Y-119998843D01*
X131520000Y-119949560D01*
X121520000Y-119949560D01*
X121272235Y-119998843D01*
X121062191Y-120139191D01*
X120921843Y-120349235D01*
X120872560Y-120597000D01*
X102917802Y-120597000D01*
X96771331Y-114450530D01*
X96728929Y-114387071D01*
X96477537Y-114219096D01*
X96255852Y-114175000D01*
X96255847Y-114175000D01*
X96181000Y-114160112D01*
X96106153Y-114175000D01*
X95718290Y-114175000D01*
X95685635Y-114142345D01*
X95341983Y-114000000D01*
X94970017Y-114000000D01*
X94626365Y-114142345D01*
X94363345Y-114405365D01*
X94221000Y-114749017D01*
X94221000Y-115120983D01*
X94363345Y-115464635D01*
X94468710Y-115570000D01*
X94363345Y-115675365D01*
X94221000Y-116019017D01*
X94221000Y-116390983D01*
X94363345Y-116734635D01*
X94626365Y-116997655D01*
X94970017Y-117140000D01*
X95341983Y-117140000D01*
X95685635Y-116997655D01*
X95718290Y-116965000D01*
X95866199Y-116965000D01*
X105432680Y-126531482D01*
X105475081Y-126594939D01*
X105726473Y-126762914D01*
X105948158Y-126807010D01*
X105948162Y-126807010D01*
X106023009Y-126821898D01*
X106097856Y-126807010D01*
X135135000Y-126807010D01*
X135135000Y-126857993D01*
X135250568Y-127137000D01*
X126894848Y-127137000D01*
X126820000Y-127122112D01*
X126745152Y-127137000D01*
X126745148Y-127137000D01*
X126523463Y-127181096D01*
X126272071Y-127349071D01*
X126229671Y-127412527D01*
X124936408Y-128705791D01*
X124716256Y-128662000D01*
X124423744Y-128662000D01*
X123990582Y-128748161D01*
X123499375Y-129076375D01*
X123487184Y-129094619D01*
X123478157Y-129049235D01*
X123337809Y-128839191D01*
X123127765Y-128698843D01*
X122880000Y-128649560D01*
X121180000Y-128649560D01*
X120932235Y-128698843D01*
X120722191Y-128839191D01*
X120581843Y-129049235D01*
X120532560Y-129297000D01*
X120532560Y-130997000D01*
X120581843Y-131244765D01*
X120722191Y-131454809D01*
X120932235Y-131595157D01*
X121180000Y-131644440D01*
X122880000Y-131644440D01*
X123127765Y-131595157D01*
X123337809Y-131454809D01*
X123478157Y-131244765D01*
X123487184Y-131199381D01*
X123499375Y-131217625D01*
X123990582Y-131545839D01*
X124423744Y-131632000D01*
X124716256Y-131632000D01*
X125149418Y-131545839D01*
X125640625Y-131217625D01*
X125840000Y-130919239D01*
X126039375Y-131217625D01*
X126530582Y-131545839D01*
X126963744Y-131632000D01*
X127256256Y-131632000D01*
X127689418Y-131545839D01*
X128180625Y-131217625D01*
X128380000Y-130919239D01*
X128579375Y-131217625D01*
X129070582Y-131545839D01*
X129503744Y-131632000D01*
X129796256Y-131632000D01*
X130229418Y-131545839D01*
X130720625Y-131217625D01*
X130920000Y-130919239D01*
X131119375Y-131217625D01*
X131610582Y-131545839D01*
X132043744Y-131632000D01*
X132336256Y-131632000D01*
X132769418Y-131545839D01*
X133260625Y-131217625D01*
X133588839Y-130726418D01*
X133702103Y-130157000D01*
X153257710Y-130157000D01*
X153290365Y-130189655D01*
X153634017Y-130332000D01*
X154005983Y-130332000D01*
X154349635Y-130189655D01*
X154612655Y-129926635D01*
X154755000Y-129582983D01*
X154755000Y-129211017D01*
X154612655Y-128867365D01*
X154349635Y-128604345D01*
X154005983Y-128462000D01*
X153634017Y-128462000D01*
X153435853Y-128544082D01*
X153362655Y-128367365D01*
X153099635Y-128104345D01*
X152755983Y-127962000D01*
X152384017Y-127962000D01*
X152185853Y-128044082D01*
X152112655Y-127867365D01*
X151849635Y-127604345D01*
X151505983Y-127462000D01*
X151134017Y-127462000D01*
X150935853Y-127544082D01*
X150862655Y-127367365D01*
X150599635Y-127104345D01*
X150255983Y-126962000D01*
X149884017Y-126962000D01*
X149540365Y-127104345D01*
X149507710Y-127137000D01*
X139389432Y-127137000D01*
X139505000Y-126857993D01*
X139505000Y-126807010D01*
X154077207Y-126807010D01*
X156759670Y-129489474D01*
X156802070Y-129552930D01*
X157053462Y-129720905D01*
X157275147Y-129765001D01*
X157275152Y-129765001D01*
X157349999Y-129779889D01*
X157424846Y-129765001D01*
X158220152Y-129765001D01*
X158294999Y-129779889D01*
X158369846Y-129765001D01*
X158369851Y-129765001D01*
X158591536Y-129720905D01*
X158842928Y-129552930D01*
X158885330Y-129489471D01*
X159059801Y-129315000D01*
X159105983Y-129315000D01*
X159449635Y-129172655D01*
X159712655Y-128909635D01*
X159855000Y-128565983D01*
X159855000Y-128194017D01*
X159712655Y-127850365D01*
X159449635Y-127587345D01*
X159105983Y-127445000D01*
X158734017Y-127445000D01*
X158410000Y-127579212D01*
X158410000Y-127401846D01*
X158424888Y-127326999D01*
X158410000Y-127252152D01*
X158410000Y-127252148D01*
X158365904Y-127030463D01*
X158291427Y-126919000D01*
X158240329Y-126842526D01*
X158240327Y-126842524D01*
X158197929Y-126779071D01*
X158134476Y-126736673D01*
X157195819Y-125798017D01*
X161879000Y-125798017D01*
X161879000Y-126169983D01*
X162021345Y-126513635D01*
X162284365Y-126776655D01*
X162628017Y-126919000D01*
X162999983Y-126919000D01*
X163343635Y-126776655D01*
X163606655Y-126513635D01*
X163749000Y-126169983D01*
X163749000Y-125798017D01*
X163606655Y-125454365D01*
X163343635Y-125191345D01*
X162999983Y-125049000D01*
X162628017Y-125049000D01*
X162284365Y-125191345D01*
X162021345Y-125454365D01*
X161879000Y-125798017D01*
X157195819Y-125798017D01*
X156510331Y-125112530D01*
X156467929Y-125049071D01*
X156216537Y-124881096D01*
X155994852Y-124837000D01*
X155994847Y-124837000D01*
X155920000Y-124822112D01*
X155845153Y-124837000D01*
X138855000Y-124837000D01*
X138855000Y-124786017D01*
X138712655Y-124442365D01*
X138680000Y-124409710D01*
X138680000Y-120504846D01*
X138694888Y-120429999D01*
X138680000Y-120355152D01*
X138680000Y-120355148D01*
X138635904Y-120133463D01*
X138467929Y-119882071D01*
X138404473Y-119839671D01*
X137458819Y-118894017D01*
X154095000Y-118894017D01*
X154095000Y-119265983D01*
X154237345Y-119609635D01*
X154500365Y-119872655D01*
X154844017Y-120015000D01*
X155215983Y-120015000D01*
X155559635Y-119872655D01*
X155822655Y-119609635D01*
X155965000Y-119265983D01*
X155965000Y-118894017D01*
X155822655Y-118550365D01*
X155559635Y-118287345D01*
X155215983Y-118145000D01*
X154844017Y-118145000D01*
X154500365Y-118287345D01*
X154237345Y-118550365D01*
X154095000Y-118894017D01*
X137458819Y-118894017D01*
X132385331Y-113820530D01*
X132342929Y-113757071D01*
X132298600Y-113727452D01*
X132447150Y-113757000D01*
X132447154Y-113757000D01*
X132522002Y-113771888D01*
X132596850Y-113757000D01*
X137185000Y-113757000D01*
X137185000Y-114421678D01*
X137510034Y-115206380D01*
X138110620Y-115806966D01*
X138895322Y-116132000D01*
X139744678Y-116132000D01*
X140529380Y-115806966D01*
X141129966Y-115206380D01*
X141455000Y-114421678D01*
X141455000Y-113757000D01*
X148645153Y-113757000D01*
X148720000Y-113771888D01*
X148794847Y-113757000D01*
X148794852Y-113757000D01*
X148920535Y-113732000D01*
X149105983Y-113732000D01*
X149449635Y-113589655D01*
X149712655Y-113326635D01*
X149855000Y-112982983D01*
X149855000Y-112611017D01*
X149712655Y-112267365D01*
X149449635Y-112004345D01*
X149105983Y-111862000D01*
X148734017Y-111862000D01*
X148390365Y-112004345D01*
X148157710Y-112237000D01*
X140579346Y-112237000D01*
X140529380Y-112187034D01*
X139744678Y-111862000D01*
X138895322Y-111862000D01*
X138110620Y-112187034D01*
X138060654Y-112237000D01*
X132836804Y-112237000D01*
X132395332Y-111795529D01*
X132352930Y-111732070D01*
X132101538Y-111564095D01*
X131879853Y-111519999D01*
X131879848Y-111519999D01*
X131805001Y-111505111D01*
X131730154Y-111519999D01*
X121359847Y-111519999D01*
X121284999Y-111505111D01*
X121210151Y-111519999D01*
X121210147Y-111519999D01*
X120988462Y-111564095D01*
X120737070Y-111732070D01*
X120694670Y-111795526D01*
X120253197Y-112237000D01*
X115179346Y-112237000D01*
X115129380Y-112187034D01*
X114344678Y-111862000D01*
X113495322Y-111862000D01*
X112710620Y-112187034D01*
X112660654Y-112237000D01*
X96234802Y-112237000D01*
X95455000Y-111457199D01*
X95455000Y-111411017D01*
X95312655Y-111067365D01*
X95256307Y-111011017D01*
X95985000Y-111011017D01*
X95985000Y-111382983D01*
X96127345Y-111726635D01*
X96390365Y-111989655D01*
X96734017Y-112132000D01*
X97105983Y-112132000D01*
X97449635Y-111989655D01*
X97712655Y-111726635D01*
X97855000Y-111382983D01*
X97855000Y-111011017D01*
X97774684Y-110817117D01*
X99259802Y-109332000D01*
X99305983Y-109332000D01*
X99649635Y-109189655D01*
X99912655Y-108926635D01*
X100055000Y-108582983D01*
X100055000Y-108211017D01*
X99912655Y-107867365D01*
X99649635Y-107604345D01*
X99305983Y-107462000D01*
X98934017Y-107462000D01*
X98590365Y-107604345D01*
X98327345Y-107867365D01*
X98185000Y-108211017D01*
X98185000Y-108257198D01*
X96435528Y-110006671D01*
X96372072Y-110049071D01*
X96204096Y-110300463D01*
X96160000Y-110522148D01*
X96160000Y-110522153D01*
X96145112Y-110597000D01*
X96153839Y-110640871D01*
X96127345Y-110667365D01*
X95985000Y-111011017D01*
X95256307Y-111011017D01*
X95049635Y-110804345D01*
X94705983Y-110662000D01*
X94334017Y-110662000D01*
X93990365Y-110804345D01*
X93727345Y-111067365D01*
X93585000Y-111411017D01*
X82030000Y-111411017D01*
X82030000Y-105797000D01*
X142952560Y-105797000D01*
X142952560Y-107497000D01*
X143001843Y-107744765D01*
X143142191Y-107954809D01*
X143352235Y-108095157D01*
X143600000Y-108144440D01*
X145300000Y-108144440D01*
X145547765Y-108095157D01*
X145757809Y-107954809D01*
X145898157Y-107744765D01*
X145907184Y-107699381D01*
X145919375Y-107717625D01*
X146410582Y-108045839D01*
X146843744Y-108132000D01*
X147136256Y-108132000D01*
X147569418Y-108045839D01*
X148060625Y-107717625D01*
X148260000Y-107419239D01*
X148459375Y-107717625D01*
X148950582Y-108045839D01*
X149383744Y-108132000D01*
X149676256Y-108132000D01*
X150109418Y-108045839D01*
X150600625Y-107717625D01*
X150800000Y-107419239D01*
X150999375Y-107717625D01*
X151490582Y-108045839D01*
X151923744Y-108132000D01*
X152216256Y-108132000D01*
X152649418Y-108045839D01*
X153140625Y-107717625D01*
X153468839Y-107226418D01*
X153584092Y-106647000D01*
X153468839Y-106067582D01*
X153140625Y-105576375D01*
X152649418Y-105248161D01*
X152216256Y-105162000D01*
X151923744Y-105162000D01*
X151490582Y-105248161D01*
X150999375Y-105576375D01*
X150800000Y-105874761D01*
X150600625Y-105576375D01*
X150109418Y-105248161D01*
X149676256Y-105162000D01*
X149383744Y-105162000D01*
X148950582Y-105248161D01*
X148459375Y-105576375D01*
X148260000Y-105874761D01*
X148060625Y-105576375D01*
X147569418Y-105248161D01*
X147136256Y-105162000D01*
X146843744Y-105162000D01*
X146410582Y-105248161D01*
X145919375Y-105576375D01*
X145907184Y-105594619D01*
X145898157Y-105549235D01*
X145757809Y-105339191D01*
X145547765Y-105198843D01*
X145300000Y-105149560D01*
X143600000Y-105149560D01*
X143352235Y-105198843D01*
X143142191Y-105339191D01*
X143001843Y-105549235D01*
X142952560Y-105797000D01*
X82030000Y-105797000D01*
X82030000Y-102597000D01*
X82872560Y-102597000D01*
X82872560Y-104597000D01*
X82921843Y-104844765D01*
X83062191Y-105054809D01*
X83272235Y-105195157D01*
X83520000Y-105244440D01*
X93520000Y-105244440D01*
X93767765Y-105195157D01*
X93977809Y-105054809D01*
X94118157Y-104844765D01*
X94167440Y-104597000D01*
X94167440Y-102597000D01*
X158872560Y-102597000D01*
X158872560Y-104597000D01*
X158921843Y-104844765D01*
X159062191Y-105054809D01*
X159272235Y-105195157D01*
X159520000Y-105244440D01*
X169520000Y-105244440D01*
X169767765Y-105195157D01*
X169977809Y-105054809D01*
X170118157Y-104844765D01*
X170167440Y-104597000D01*
X170167440Y-102597000D01*
X170118157Y-102349235D01*
X169977809Y-102139191D01*
X169767765Y-101998843D01*
X169520000Y-101949560D01*
X159520000Y-101949560D01*
X159272235Y-101998843D01*
X159062191Y-102139191D01*
X158921843Y-102349235D01*
X158872560Y-102597000D01*
X94167440Y-102597000D01*
X94118157Y-102349235D01*
X93977809Y-102139191D01*
X93767765Y-101998843D01*
X93520000Y-101949560D01*
X83520000Y-101949560D01*
X83272235Y-101998843D01*
X83062191Y-102139191D01*
X82921843Y-102349235D01*
X82872560Y-102597000D01*
X82030000Y-102597000D01*
X82030000Y-89507000D01*
X82890462Y-89507000D01*
X82872560Y-89597000D01*
X82872560Y-89597000D01*
G37*
X82872560Y-89597000D02*
X82872560Y-91597000D01*
X82921843Y-91844765D01*
X83062191Y-92054809D01*
X83272235Y-92195157D01*
X83520000Y-92244440D01*
X84998194Y-92244440D01*
X84802727Y-92283321D01*
X84576143Y-92434719D01*
X84424745Y-92661303D01*
X84371581Y-92928576D01*
X84385000Y-92996038D01*
X84385001Y-97861109D01*
X84371581Y-97928576D01*
X84424745Y-98195849D01*
X84576143Y-98422433D01*
X84802727Y-98573831D01*
X85002538Y-98613576D01*
X85002539Y-98613576D01*
X85070000Y-98626995D01*
X85137462Y-98613576D01*
X90002538Y-98613576D01*
X90070000Y-98626995D01*
X90137461Y-98613576D01*
X90137462Y-98613576D01*
X90337273Y-98573831D01*
X90563857Y-98422433D01*
X90715255Y-98195849D01*
X90768419Y-97928576D01*
X90755000Y-97861114D01*
X90755000Y-92996038D01*
X90768419Y-92928576D01*
X90715255Y-92661303D01*
X90563857Y-92434719D01*
X90337273Y-92283321D01*
X90141806Y-92244440D01*
X93388112Y-92244440D01*
X93207727Y-92280321D01*
X92981143Y-92431719D01*
X92829745Y-92658303D01*
X92776581Y-92925576D01*
X92790000Y-92993038D01*
X92790001Y-97858109D01*
X92776581Y-97925576D01*
X92829745Y-98192849D01*
X92981143Y-98419433D01*
X93207727Y-98570831D01*
X93407538Y-98610576D01*
X93407539Y-98610576D01*
X93475000Y-98623995D01*
X93542462Y-98610576D01*
X98407538Y-98610576D01*
X98475000Y-98623995D01*
X98542461Y-98610576D01*
X98542462Y-98610576D01*
X98742273Y-98570831D01*
X98968857Y-98419433D01*
X99120255Y-98192849D01*
X99173419Y-97925576D01*
X99160000Y-97858114D01*
X99160000Y-92993038D01*
X99173419Y-92925576D01*
X101666581Y-92925576D01*
X101680000Y-92993038D01*
X101680001Y-97858109D01*
X101666581Y-97925576D01*
X101719745Y-98192849D01*
X101871143Y-98419433D01*
X102097727Y-98570831D01*
X102297538Y-98610576D01*
X102297539Y-98610576D01*
X102365000Y-98623995D01*
X102432462Y-98610576D01*
X107297538Y-98610576D01*
X107365000Y-98623995D01*
X107432461Y-98610576D01*
X107432462Y-98610576D01*
X107632273Y-98570831D01*
X107858857Y-98419433D01*
X108010255Y-98192849D01*
X108063419Y-97925576D01*
X108050000Y-97858114D01*
X108050000Y-92993038D01*
X108063419Y-92925576D01*
X110556581Y-92925576D01*
X110570000Y-92993038D01*
X110570001Y-97858109D01*
X110556581Y-97925576D01*
X110609745Y-98192849D01*
X110761143Y-98419433D01*
X110987727Y-98570831D01*
X111187538Y-98610576D01*
X111187539Y-98610576D01*
X111255000Y-98623995D01*
X111322462Y-98610576D01*
X116187538Y-98610576D01*
X116255000Y-98623995D01*
X116322461Y-98610576D01*
X116322462Y-98610576D01*
X116522273Y-98570831D01*
X116748857Y-98419433D01*
X116900255Y-98192849D01*
X116953419Y-97925576D01*
X116940000Y-97858114D01*
X116940000Y-92993038D01*
X116953419Y-92925576D01*
X119446581Y-92925576D01*
X119460000Y-92993038D01*
X119460001Y-97858109D01*
X119446581Y-97925576D01*
X119499745Y-98192849D01*
X119651143Y-98419433D01*
X119877727Y-98570831D01*
X120077538Y-98610576D01*
X120077539Y-98610576D01*
X120145000Y-98623995D01*
X120212462Y-98610576D01*
X125077538Y-98610576D01*
X125145000Y-98623995D01*
X125212461Y-98610576D01*
X125212462Y-98610576D01*
X125412273Y-98570831D01*
X125638857Y-98419433D01*
X125790255Y-98192849D01*
X125843419Y-97925576D01*
X125830000Y-97858114D01*
X125830000Y-92993038D01*
X125843419Y-92925576D01*
X128336581Y-92925576D01*
X128350000Y-92993038D01*
X128350001Y-97858109D01*
X128336581Y-97925576D01*
X128389745Y-98192849D01*
X128541143Y-98419433D01*
X128767727Y-98570831D01*
X128967538Y-98610576D01*
X128967539Y-98610576D01*
X129035000Y-98623995D01*
X129102462Y-98610576D01*
X133967538Y-98610576D01*
X134035000Y-98623995D01*
X134102461Y-98610576D01*
X134102462Y-98610576D01*
X134302273Y-98570831D01*
X134528857Y-98419433D01*
X134680255Y-98192849D01*
X134733419Y-97925576D01*
X134720000Y-97858114D01*
X134720000Y-92993038D01*
X134733419Y-92925576D01*
X137226581Y-92925576D01*
X137240000Y-92993038D01*
X137240001Y-97858109D01*
X137226581Y-97925576D01*
X137279745Y-98192849D01*
X137431143Y-98419433D01*
X137657727Y-98570831D01*
X137857538Y-98610576D01*
X137857539Y-98610576D01*
X137925000Y-98623995D01*
X137992462Y-98610576D01*
X142857538Y-98610576D01*
X142925000Y-98623995D01*
X142992461Y-98610576D01*
X142992462Y-98610576D01*
X143192273Y-98570831D01*
X143418857Y-98419433D01*
X143570255Y-98192849D01*
X143623419Y-97925576D01*
X143610000Y-97858114D01*
X143610000Y-92993038D01*
X143623419Y-92925576D01*
X146116581Y-92925576D01*
X146130000Y-92993038D01*
X146130001Y-97858109D01*
X146116581Y-97925576D01*
X146169745Y-98192849D01*
X146321143Y-98419433D01*
X146547727Y-98570831D01*
X146747538Y-98610576D01*
X146747539Y-98610576D01*
X146815000Y-98623995D01*
X146882462Y-98610576D01*
X151747538Y-98610576D01*
X151815000Y-98623995D01*
X151882461Y-98610576D01*
X151882462Y-98610576D01*
X152082273Y-98570831D01*
X152308857Y-98419433D01*
X152460255Y-98192849D01*
X152513419Y-97925576D01*
X152500000Y-97858114D01*
X152500000Y-92993038D01*
X152513419Y-92925576D01*
X152460255Y-92658303D01*
X152308857Y-92431719D01*
X152082273Y-92280321D01*
X151882462Y-92240576D01*
X151815000Y-92227157D01*
X151747539Y-92240576D01*
X146882461Y-92240576D01*
X146815000Y-92227157D01*
X146747538Y-92240576D01*
X146547727Y-92280321D01*
X146321143Y-92431719D01*
X146169745Y-92658303D01*
X146116581Y-92925576D01*
X143623419Y-92925576D01*
X143570255Y-92658303D01*
X143418857Y-92431719D01*
X143192273Y-92280321D01*
X142992462Y-92240576D01*
X142925000Y-92227157D01*
X142857539Y-92240576D01*
X137992461Y-92240576D01*
X137925000Y-92227157D01*
X137857538Y-92240576D01*
X137657727Y-92280321D01*
X137431143Y-92431719D01*
X137279745Y-92658303D01*
X137226581Y-92925576D01*
X134733419Y-92925576D01*
X134680255Y-92658303D01*
X134528857Y-92431719D01*
X134302273Y-92280321D01*
X134102462Y-92240576D01*
X134035000Y-92227157D01*
X133967539Y-92240576D01*
X129102461Y-92240576D01*
X129035000Y-92227157D01*
X128967538Y-92240576D01*
X128767727Y-92280321D01*
X128541143Y-92431719D01*
X128389745Y-92658303D01*
X128336581Y-92925576D01*
X125843419Y-92925576D01*
X125790255Y-92658303D01*
X125638857Y-92431719D01*
X125412273Y-92280321D01*
X125212462Y-92240576D01*
X125145000Y-92227157D01*
X125077539Y-92240576D01*
X120212461Y-92240576D01*
X120145000Y-92227157D01*
X120077538Y-92240576D01*
X119877727Y-92280321D01*
X119651143Y-92431719D01*
X119499745Y-92658303D01*
X119446581Y-92925576D01*
X116953419Y-92925576D01*
X116900255Y-92658303D01*
X116748857Y-92431719D01*
X116522273Y-92280321D01*
X116322462Y-92240576D01*
X116255000Y-92227157D01*
X116187539Y-92240576D01*
X111322461Y-92240576D01*
X111255000Y-92227157D01*
X111187538Y-92240576D01*
X110987727Y-92280321D01*
X110761143Y-92431719D01*
X110609745Y-92658303D01*
X110556581Y-92925576D01*
X108063419Y-92925576D01*
X108010255Y-92658303D01*
X107858857Y-92431719D01*
X107632273Y-92280321D01*
X107432462Y-92240576D01*
X107365000Y-92227157D01*
X107297539Y-92240576D01*
X102432461Y-92240576D01*
X102365000Y-92227157D01*
X102297538Y-92240576D01*
X102097727Y-92280321D01*
X101871143Y-92431719D01*
X101719745Y-92658303D01*
X101666581Y-92925576D01*
X99173419Y-92925576D01*
X99120255Y-92658303D01*
X98968857Y-92431719D01*
X98742273Y-92280321D01*
X98542462Y-92240576D01*
X98475000Y-92227157D01*
X98407539Y-92240576D01*
X93542461Y-92240576D01*
X93540944Y-92240274D01*
X93767765Y-92195157D01*
X93977809Y-92054809D01*
X94118157Y-91844765D01*
X94167440Y-91597000D01*
X94167440Y-89597000D01*
X94149538Y-89507000D01*
X158890462Y-89507000D01*
X158872560Y-89597000D01*
X158872560Y-91597000D01*
X158921843Y-91844765D01*
X159062191Y-92054809D01*
X159272235Y-92195157D01*
X159500574Y-92240576D01*
X155772461Y-92240576D01*
X155705000Y-92227157D01*
X155637538Y-92240576D01*
X155437727Y-92280321D01*
X155211143Y-92431719D01*
X155059745Y-92658303D01*
X155006581Y-92925576D01*
X155020000Y-92993038D01*
X155020001Y-97858109D01*
X155006581Y-97925576D01*
X155059745Y-98192849D01*
X155211143Y-98419433D01*
X155437727Y-98570831D01*
X155637538Y-98610576D01*
X155637539Y-98610576D01*
X155705000Y-98623995D01*
X155772462Y-98610576D01*
X160637538Y-98610576D01*
X160705000Y-98623995D01*
X160772461Y-98610576D01*
X160772462Y-98610576D01*
X160972273Y-98570831D01*
X161198857Y-98419433D01*
X161350255Y-98192849D01*
X161403419Y-97925576D01*
X161390000Y-97858114D01*
X161390000Y-92993038D01*
X161397849Y-92953576D01*
X163596581Y-92953576D01*
X163610000Y-93021038D01*
X163610001Y-97886109D01*
X163596581Y-97953576D01*
X163649745Y-98220849D01*
X163801143Y-98447433D01*
X164027727Y-98598831D01*
X164227538Y-98638576D01*
X164227539Y-98638576D01*
X164295000Y-98651995D01*
X164362462Y-98638576D01*
X169227538Y-98638576D01*
X169295000Y-98651995D01*
X169362461Y-98638576D01*
X169362462Y-98638576D01*
X169562273Y-98598831D01*
X169788857Y-98447433D01*
X169940255Y-98220849D01*
X169993419Y-97953576D01*
X169980000Y-97886114D01*
X169980000Y-93021038D01*
X169993419Y-92953576D01*
X169940255Y-92686303D01*
X169788857Y-92459719D01*
X169562273Y-92308321D01*
X169362462Y-92268576D01*
X169295000Y-92255157D01*
X169227539Y-92268576D01*
X164362461Y-92268576D01*
X164295000Y-92255157D01*
X164227538Y-92268576D01*
X164027727Y-92308321D01*
X163801143Y-92459719D01*
X163649745Y-92686303D01*
X163596581Y-92953576D01*
X161397849Y-92953576D01*
X161403419Y-92925576D01*
X161350255Y-92658303D01*
X161198857Y-92431719D01*
X160972273Y-92280321D01*
X160791888Y-92244440D01*
X169520000Y-92244440D01*
X169767765Y-92195157D01*
X169977809Y-92054809D01*
X170118157Y-91844765D01*
X170167440Y-91597000D01*
X170167440Y-89597000D01*
X170149538Y-89507000D01*
X170810000Y-89507000D01*
X170810000Y-93262000D01*
X170759017Y-93262000D01*
X170415365Y-93404345D01*
X170152345Y-93667365D01*
X170010000Y-94011017D01*
X170010000Y-94382983D01*
X170152345Y-94726635D01*
X170185000Y-94759290D01*
X170185001Y-104857197D01*
X165422199Y-109620000D01*
X151862290Y-109620000D01*
X151829635Y-109587345D01*
X151485983Y-109445000D01*
X151114017Y-109445000D01*
X150770365Y-109587345D01*
X150507345Y-109850365D01*
X150365000Y-110194017D01*
X150365000Y-110565983D01*
X150507345Y-110909635D01*
X150770365Y-111172655D01*
X151114017Y-111315000D01*
X151485983Y-111315000D01*
X151829635Y-111172655D01*
X151862290Y-111140000D01*
X164193000Y-111140000D01*
X164193000Y-128397000D01*
X164202667Y-128445601D01*
X164230197Y-128486803D01*
X164271399Y-128514333D01*
X164320000Y-128524000D01*
X170810001Y-128524000D01*
X170810001Y-130458731D01*
X170677086Y-130137847D01*
X170217153Y-129677914D01*
X169616222Y-129429000D01*
X168965778Y-129429000D01*
X168364847Y-129677914D01*
X167904914Y-130137847D01*
X167656000Y-130738778D01*
X167656000Y-131389222D01*
X167772302Y-131670000D01*
X166999698Y-131670000D01*
X167116000Y-131389222D01*
X167116000Y-130738778D01*
X166867086Y-130137847D01*
X166407153Y-129677914D01*
X165806222Y-129429000D01*
X165155778Y-129429000D01*
X164554847Y-129677914D01*
X164094914Y-130137847D01*
X163846000Y-130738778D01*
X163846000Y-131389222D01*
X163962302Y-131670000D01*
X154035000Y-131670000D01*
X154035000Y-131500778D01*
X153786086Y-130899847D01*
X153326153Y-130439914D01*
X152725222Y-130191000D01*
X152074778Y-130191000D01*
X151473847Y-130439914D01*
X151013914Y-130899847D01*
X150765000Y-131500778D01*
X150765000Y-131670000D01*
X146669000Y-131670000D01*
X146669000Y-131500778D01*
X146420086Y-130899847D01*
X145960153Y-130439914D01*
X145359222Y-130191000D01*
X144708778Y-130191000D01*
X144107847Y-130439914D01*
X143647914Y-130899847D01*
X143399000Y-131500778D01*
X143399000Y-131670000D01*
X82030000Y-131670000D01*
X82030000Y-129940089D01*
X82766517Y-129940089D01*
X82895725Y-130232859D01*
X83595883Y-130501071D01*
X84345384Y-130480928D01*
X84944275Y-130232859D01*
X85073483Y-129940089D01*
X83920000Y-128786605D01*
X82766517Y-129940089D01*
X82030000Y-129940089D01*
X82030000Y-128434361D01*
X82046072Y-129032384D01*
X82294141Y-129631275D01*
X82586911Y-129760483D01*
X83740395Y-128607000D01*
X84099605Y-128607000D01*
X85253089Y-129760483D01*
X85545859Y-129631275D01*
X85814071Y-128931117D01*
X85793928Y-128181616D01*
X85545859Y-127582725D01*
X85253089Y-127453517D01*
X84099605Y-128607000D01*
X83740395Y-128607000D01*
X82586911Y-127453517D01*
X82294141Y-127582725D01*
X82030000Y-128272256D01*
X82030000Y-127273911D01*
X82766517Y-127273911D01*
X83920000Y-128427395D01*
X85073483Y-127273911D01*
X84944275Y-126981141D01*
X84244117Y-126712929D01*
X83494616Y-126733072D01*
X82895725Y-126981141D01*
X82766517Y-127273911D01*
X82030000Y-127273911D01*
X82030000Y-124422114D01*
X82035320Y-124422114D01*
X82035320Y-125171886D01*
X82322245Y-125864585D01*
X82852415Y-126394755D01*
X83545114Y-126681680D01*
X84294886Y-126681680D01*
X84987585Y-126394755D01*
X85517755Y-125864585D01*
X85804680Y-125171886D01*
X85804680Y-124422114D01*
X85517755Y-123729415D01*
X84987585Y-123199245D01*
X84294886Y-122912320D01*
X83545114Y-122912320D01*
X82852415Y-123199245D01*
X82322245Y-123729415D01*
X82035320Y-124422114D01*
X82030000Y-124422114D01*
X82030000Y-113479017D01*
X85933000Y-113479017D01*
X85933000Y-113850983D01*
X86075345Y-114194635D01*
X86338365Y-114457655D01*
X86682017Y-114600000D01*
X86948199Y-114600000D01*
X87385000Y-115036802D01*
X87385000Y-115082983D01*
X87527345Y-115426635D01*
X87790365Y-115689655D01*
X88134017Y-115832000D01*
X88505983Y-115832000D01*
X88849635Y-115689655D01*
X89112655Y-115426635D01*
X89255000Y-115082983D01*
X89255000Y-114711017D01*
X89112655Y-114367365D01*
X88849635Y-114104345D01*
X88505983Y-113962000D01*
X88459802Y-113962000D01*
X87680093Y-113182291D01*
X87660655Y-113135365D01*
X87397635Y-112872345D01*
X87053983Y-112730000D01*
X86682017Y-112730000D01*
X86338365Y-112872345D01*
X86075345Y-113135365D01*
X85933000Y-113479017D01*
X82030000Y-113479017D01*
X82030000Y-111411017D01*
X93585000Y-111411017D01*
X93585000Y-111782983D01*
X93727345Y-112126635D01*
X93990365Y-112389655D01*
X94334017Y-112532000D01*
X94380199Y-112532000D01*
X95329671Y-113481473D01*
X95372071Y-113544929D01*
X95623463Y-113712904D01*
X95845148Y-113757000D01*
X95845153Y-113757000D01*
X95920000Y-113771888D01*
X95994847Y-113757000D01*
X111785000Y-113757000D01*
X111785000Y-114421678D01*
X112110034Y-115206380D01*
X112710620Y-115806966D01*
X113495322Y-116132000D01*
X114344678Y-116132000D01*
X115129380Y-115806966D01*
X115729966Y-115206380D01*
X116055000Y-114421678D01*
X116055000Y-113757000D01*
X119239710Y-113757000D01*
X119204945Y-113791765D01*
X119062600Y-114135417D01*
X119062600Y-114507383D01*
X119204945Y-114851035D01*
X119467965Y-115114055D01*
X119811617Y-115256400D01*
X120183583Y-115256400D01*
X120527235Y-115114055D01*
X120576290Y-115065000D01*
X120897560Y-115065000D01*
X120897560Y-116005000D01*
X120946843Y-116252765D01*
X121087191Y-116462809D01*
X121297235Y-116603157D01*
X121545000Y-116652440D01*
X122845000Y-116652440D01*
X123092765Y-116603157D01*
X123302809Y-116462809D01*
X123443157Y-116252765D01*
X123492440Y-116005000D01*
X123492440Y-113039999D01*
X129597560Y-113039999D01*
X129597560Y-116005000D01*
X129646843Y-116252765D01*
X129787191Y-116462809D01*
X129997235Y-116603157D01*
X130245000Y-116652440D01*
X131545000Y-116652440D01*
X131792765Y-116603157D01*
X132002809Y-116462809D01*
X132143157Y-116252765D01*
X132192440Y-116005000D01*
X132192440Y-115777241D01*
X137160001Y-120744803D01*
X137160000Y-124409710D01*
X137127345Y-124442365D01*
X136985000Y-124786017D01*
X136985000Y-124837000D01*
X107157802Y-124837000D01*
X102917802Y-120597000D01*
X120872560Y-120597000D01*
X120872560Y-122597000D01*
X120921843Y-122844765D01*
X121062191Y-123054809D01*
X121272235Y-123195157D01*
X121520000Y-123244440D01*
X131520000Y-123244440D01*
X131767765Y-123195157D01*
X131977809Y-123054809D01*
X132118157Y-122844765D01*
X132167440Y-122597000D01*
X132167440Y-120597000D01*
X132118157Y-120349235D01*
X131977809Y-120139191D01*
X131767765Y-119998843D01*
X131520000Y-119949560D01*
X121520000Y-119949560D01*
X121272235Y-119998843D01*
X121062191Y-120139191D01*
X120921843Y-120349235D01*
X120872560Y-120597000D01*
X102917802Y-120597000D01*
X96771331Y-114450530D01*
X96728929Y-114387071D01*
X96477537Y-114219096D01*
X96255852Y-114175000D01*
X96255847Y-114175000D01*
X96181000Y-114160112D01*
X96106153Y-114175000D01*
X95718290Y-114175000D01*
X95685635Y-114142345D01*
X95341983Y-114000000D01*
X94970017Y-114000000D01*
X94626365Y-114142345D01*
X94363345Y-114405365D01*
X94221000Y-114749017D01*
X94221000Y-115120983D01*
X94363345Y-115464635D01*
X94468710Y-115570000D01*
X94363345Y-115675365D01*
X94221000Y-116019017D01*
X94221000Y-116390983D01*
X94363345Y-116734635D01*
X94626365Y-116997655D01*
X94970017Y-117140000D01*
X95341983Y-117140000D01*
X95685635Y-116997655D01*
X95718290Y-116965000D01*
X95866199Y-116965000D01*
X105432680Y-126531482D01*
X105475081Y-126594939D01*
X105726473Y-126762914D01*
X105948158Y-126807010D01*
X105948162Y-126807010D01*
X106023009Y-126821898D01*
X106097856Y-126807010D01*
X135135000Y-126807010D01*
X135135000Y-126857993D01*
X135250568Y-127137000D01*
X126894848Y-127137000D01*
X126820000Y-127122112D01*
X126745152Y-127137000D01*
X126745148Y-127137000D01*
X126523463Y-127181096D01*
X126272071Y-127349071D01*
X126229671Y-127412527D01*
X124936408Y-128705791D01*
X124716256Y-128662000D01*
X124423744Y-128662000D01*
X123990582Y-128748161D01*
X123499375Y-129076375D01*
X123487184Y-129094619D01*
X123478157Y-129049235D01*
X123337809Y-128839191D01*
X123127765Y-128698843D01*
X122880000Y-128649560D01*
X121180000Y-128649560D01*
X120932235Y-128698843D01*
X120722191Y-128839191D01*
X120581843Y-129049235D01*
X120532560Y-129297000D01*
X120532560Y-130997000D01*
X120581843Y-131244765D01*
X120722191Y-131454809D01*
X120932235Y-131595157D01*
X121180000Y-131644440D01*
X122880000Y-131644440D01*
X123127765Y-131595157D01*
X123337809Y-131454809D01*
X123478157Y-131244765D01*
X123487184Y-131199381D01*
X123499375Y-131217625D01*
X123990582Y-131545839D01*
X124423744Y-131632000D01*
X124716256Y-131632000D01*
X125149418Y-131545839D01*
X125640625Y-131217625D01*
X125840000Y-130919239D01*
X126039375Y-131217625D01*
X126530582Y-131545839D01*
X126963744Y-131632000D01*
X127256256Y-131632000D01*
X127689418Y-131545839D01*
X128180625Y-131217625D01*
X128380000Y-130919239D01*
X128579375Y-131217625D01*
X129070582Y-131545839D01*
X129503744Y-131632000D01*
X129796256Y-131632000D01*
X130229418Y-131545839D01*
X130720625Y-131217625D01*
X130920000Y-130919239D01*
X131119375Y-131217625D01*
X131610582Y-131545839D01*
X132043744Y-131632000D01*
X132336256Y-131632000D01*
X132769418Y-131545839D01*
X133260625Y-131217625D01*
X133588839Y-130726418D01*
X133702103Y-130157000D01*
X153257710Y-130157000D01*
X153290365Y-130189655D01*
X153634017Y-130332000D01*
X154005983Y-130332000D01*
X154349635Y-130189655D01*
X154612655Y-129926635D01*
X154755000Y-129582983D01*
X154755000Y-129211017D01*
X154612655Y-128867365D01*
X154349635Y-128604345D01*
X154005983Y-128462000D01*
X153634017Y-128462000D01*
X153435853Y-128544082D01*
X153362655Y-128367365D01*
X153099635Y-128104345D01*
X152755983Y-127962000D01*
X152384017Y-127962000D01*
X152185853Y-128044082D01*
X152112655Y-127867365D01*
X151849635Y-127604345D01*
X151505983Y-127462000D01*
X151134017Y-127462000D01*
X150935853Y-127544082D01*
X150862655Y-127367365D01*
X150599635Y-127104345D01*
X150255983Y-126962000D01*
X149884017Y-126962000D01*
X149540365Y-127104345D01*
X149507710Y-127137000D01*
X139389432Y-127137000D01*
X139505000Y-126857993D01*
X139505000Y-126807010D01*
X154077207Y-126807010D01*
X156759670Y-129489474D01*
X156802070Y-129552930D01*
X157053462Y-129720905D01*
X157275147Y-129765001D01*
X157275152Y-129765001D01*
X157349999Y-129779889D01*
X157424846Y-129765001D01*
X158220152Y-129765001D01*
X158294999Y-129779889D01*
X158369846Y-129765001D01*
X158369851Y-129765001D01*
X158591536Y-129720905D01*
X158842928Y-129552930D01*
X158885330Y-129489471D01*
X159059801Y-129315000D01*
X159105983Y-129315000D01*
X159449635Y-129172655D01*
X159712655Y-128909635D01*
X159855000Y-128565983D01*
X159855000Y-128194017D01*
X159712655Y-127850365D01*
X159449635Y-127587345D01*
X159105983Y-127445000D01*
X158734017Y-127445000D01*
X158410000Y-127579212D01*
X158410000Y-127401846D01*
X158424888Y-127326999D01*
X158410000Y-127252152D01*
X158410000Y-127252148D01*
X158365904Y-127030463D01*
X158291427Y-126919000D01*
X158240329Y-126842526D01*
X158240327Y-126842524D01*
X158197929Y-126779071D01*
X158134476Y-126736673D01*
X157195819Y-125798017D01*
X161879000Y-125798017D01*
X161879000Y-126169983D01*
X162021345Y-126513635D01*
X162284365Y-126776655D01*
X162628017Y-126919000D01*
X162999983Y-126919000D01*
X163343635Y-126776655D01*
X163606655Y-126513635D01*
X163749000Y-126169983D01*
X163749000Y-125798017D01*
X163606655Y-125454365D01*
X163343635Y-125191345D01*
X162999983Y-125049000D01*
X162628017Y-125049000D01*
X162284365Y-125191345D01*
X162021345Y-125454365D01*
X161879000Y-125798017D01*
X157195819Y-125798017D01*
X156510331Y-125112530D01*
X156467929Y-125049071D01*
X156216537Y-124881096D01*
X155994852Y-124837000D01*
X155994847Y-124837000D01*
X155920000Y-124822112D01*
X155845153Y-124837000D01*
X138855000Y-124837000D01*
X138855000Y-124786017D01*
X138712655Y-124442365D01*
X138680000Y-124409710D01*
X138680000Y-120504846D01*
X138694888Y-120429999D01*
X138680000Y-120355152D01*
X138680000Y-120355148D01*
X138635904Y-120133463D01*
X138467929Y-119882071D01*
X138404473Y-119839671D01*
X137458819Y-118894017D01*
X154095000Y-118894017D01*
X154095000Y-119265983D01*
X154237345Y-119609635D01*
X154500365Y-119872655D01*
X154844017Y-120015000D01*
X155215983Y-120015000D01*
X155559635Y-119872655D01*
X155822655Y-119609635D01*
X155965000Y-119265983D01*
X155965000Y-118894017D01*
X155822655Y-118550365D01*
X155559635Y-118287345D01*
X155215983Y-118145000D01*
X154844017Y-118145000D01*
X154500365Y-118287345D01*
X154237345Y-118550365D01*
X154095000Y-118894017D01*
X137458819Y-118894017D01*
X132385331Y-113820530D01*
X132342929Y-113757071D01*
X132298600Y-113727452D01*
X132447150Y-113757000D01*
X132447154Y-113757000D01*
X132522002Y-113771888D01*
X132596850Y-113757000D01*
X137185000Y-113757000D01*
X137185000Y-114421678D01*
X137510034Y-115206380D01*
X138110620Y-115806966D01*
X138895322Y-116132000D01*
X139744678Y-116132000D01*
X140529380Y-115806966D01*
X141129966Y-115206380D01*
X141455000Y-114421678D01*
X141455000Y-113757000D01*
X148645153Y-113757000D01*
X148720000Y-113771888D01*
X148794847Y-113757000D01*
X148794852Y-113757000D01*
X148920535Y-113732000D01*
X149105983Y-113732000D01*
X149449635Y-113589655D01*
X149712655Y-113326635D01*
X149855000Y-112982983D01*
X149855000Y-112611017D01*
X149712655Y-112267365D01*
X149449635Y-112004345D01*
X149105983Y-111862000D01*
X148734017Y-111862000D01*
X148390365Y-112004345D01*
X148157710Y-112237000D01*
X140579346Y-112237000D01*
X140529380Y-112187034D01*
X139744678Y-111862000D01*
X138895322Y-111862000D01*
X138110620Y-112187034D01*
X138060654Y-112237000D01*
X132836804Y-112237000D01*
X132395332Y-111795529D01*
X132352930Y-111732070D01*
X132101538Y-111564095D01*
X131879853Y-111519999D01*
X131879848Y-111519999D01*
X131805001Y-111505111D01*
X131730154Y-111519999D01*
X121359847Y-111519999D01*
X121284999Y-111505111D01*
X121210151Y-111519999D01*
X121210147Y-111519999D01*
X120988462Y-111564095D01*
X120737070Y-111732070D01*
X120694670Y-111795526D01*
X120253197Y-112237000D01*
X115179346Y-112237000D01*
X115129380Y-112187034D01*
X114344678Y-111862000D01*
X113495322Y-111862000D01*
X112710620Y-112187034D01*
X112660654Y-112237000D01*
X96234802Y-112237000D01*
X95455000Y-111457199D01*
X95455000Y-111411017D01*
X95312655Y-111067365D01*
X95256307Y-111011017D01*
X95985000Y-111011017D01*
X95985000Y-111382983D01*
X96127345Y-111726635D01*
X96390365Y-111989655D01*
X96734017Y-112132000D01*
X97105983Y-112132000D01*
X97449635Y-111989655D01*
X97712655Y-111726635D01*
X97855000Y-111382983D01*
X97855000Y-111011017D01*
X97774684Y-110817117D01*
X99259802Y-109332000D01*
X99305983Y-109332000D01*
X99649635Y-109189655D01*
X99912655Y-108926635D01*
X100055000Y-108582983D01*
X100055000Y-108211017D01*
X99912655Y-107867365D01*
X99649635Y-107604345D01*
X99305983Y-107462000D01*
X98934017Y-107462000D01*
X98590365Y-107604345D01*
X98327345Y-107867365D01*
X98185000Y-108211017D01*
X98185000Y-108257198D01*
X96435528Y-110006671D01*
X96372072Y-110049071D01*
X96204096Y-110300463D01*
X96160000Y-110522148D01*
X96160000Y-110522153D01*
X96145112Y-110597000D01*
X96153839Y-110640871D01*
X96127345Y-110667365D01*
X95985000Y-111011017D01*
X95256307Y-111011017D01*
X95049635Y-110804345D01*
X94705983Y-110662000D01*
X94334017Y-110662000D01*
X93990365Y-110804345D01*
X93727345Y-111067365D01*
X93585000Y-111411017D01*
X82030000Y-111411017D01*
X82030000Y-105797000D01*
X142952560Y-105797000D01*
X142952560Y-107497000D01*
X143001843Y-107744765D01*
X143142191Y-107954809D01*
X143352235Y-108095157D01*
X143600000Y-108144440D01*
X145300000Y-108144440D01*
X145547765Y-108095157D01*
X145757809Y-107954809D01*
X145898157Y-107744765D01*
X145907184Y-107699381D01*
X145919375Y-107717625D01*
X146410582Y-108045839D01*
X146843744Y-108132000D01*
X147136256Y-108132000D01*
X147569418Y-108045839D01*
X148060625Y-107717625D01*
X148260000Y-107419239D01*
X148459375Y-107717625D01*
X148950582Y-108045839D01*
X149383744Y-108132000D01*
X149676256Y-108132000D01*
X150109418Y-108045839D01*
X150600625Y-107717625D01*
X150800000Y-107419239D01*
X150999375Y-107717625D01*
X151490582Y-108045839D01*
X151923744Y-108132000D01*
X152216256Y-108132000D01*
X152649418Y-108045839D01*
X153140625Y-107717625D01*
X153468839Y-107226418D01*
X153584092Y-106647000D01*
X153468839Y-106067582D01*
X153140625Y-105576375D01*
X152649418Y-105248161D01*
X152216256Y-105162000D01*
X151923744Y-105162000D01*
X151490582Y-105248161D01*
X150999375Y-105576375D01*
X150800000Y-105874761D01*
X150600625Y-105576375D01*
X150109418Y-105248161D01*
X149676256Y-105162000D01*
X149383744Y-105162000D01*
X148950582Y-105248161D01*
X148459375Y-105576375D01*
X148260000Y-105874761D01*
X148060625Y-105576375D01*
X147569418Y-105248161D01*
X147136256Y-105162000D01*
X146843744Y-105162000D01*
X146410582Y-105248161D01*
X145919375Y-105576375D01*
X145907184Y-105594619D01*
X145898157Y-105549235D01*
X145757809Y-105339191D01*
X145547765Y-105198843D01*
X145300000Y-105149560D01*
X143600000Y-105149560D01*
X143352235Y-105198843D01*
X143142191Y-105339191D01*
X143001843Y-105549235D01*
X142952560Y-105797000D01*
X82030000Y-105797000D01*
X82030000Y-102597000D01*
X82872560Y-102597000D01*
X82872560Y-104597000D01*
X82921843Y-104844765D01*
X83062191Y-105054809D01*
X83272235Y-105195157D01*
X83520000Y-105244440D01*
X93520000Y-105244440D01*
X93767765Y-105195157D01*
X93977809Y-105054809D01*
X94118157Y-104844765D01*
X94167440Y-104597000D01*
X94167440Y-102597000D01*
X158872560Y-102597000D01*
X158872560Y-104597000D01*
X158921843Y-104844765D01*
X159062191Y-105054809D01*
X159272235Y-105195157D01*
X159520000Y-105244440D01*
X169520000Y-105244440D01*
X169767765Y-105195157D01*
X169977809Y-105054809D01*
X170118157Y-104844765D01*
X170167440Y-104597000D01*
X170167440Y-102597000D01*
X170118157Y-102349235D01*
X169977809Y-102139191D01*
X169767765Y-101998843D01*
X169520000Y-101949560D01*
X159520000Y-101949560D01*
X159272235Y-101998843D01*
X159062191Y-102139191D01*
X158921843Y-102349235D01*
X158872560Y-102597000D01*
X94167440Y-102597000D01*
X94118157Y-102349235D01*
X93977809Y-102139191D01*
X93767765Y-101998843D01*
X93520000Y-101949560D01*
X83520000Y-101949560D01*
X83272235Y-101998843D01*
X83062191Y-102139191D01*
X82921843Y-102349235D01*
X82872560Y-102597000D01*
X82030000Y-102597000D01*
X82030000Y-89507000D01*
X82890462Y-89507000D01*
X82872560Y-89597000D01*
G04 #@! TD*
M02*
