G04 #@! TF.GenerationSoftware,KiCad,Pcbnew,5.0.1*
G04 #@! TF.CreationDate,2019-03-26T00:27:03-05:00*
G04 #@! TF.ProjectId,badge,62616467652E6B696361645F70636200,rev?*
G04 #@! TF.SameCoordinates,Original*
G04 #@! TF.FileFunction,Copper,L1,Top,Signal*
G04 #@! TF.FilePolarity,Positive*
%FSLAX46Y46*%
G04 Gerber Fmt 4.6, Leading zero omitted, Abs format (unit mm)*
G04 Created by KiCad (PCBNEW 5.0.1) date Tue 26 Mar 2019 12:27:03 AM CDT*
%MOMM*%
%LPD*%
G01*
G04 APERTURE LIST*
G04 #@! TA.AperFunction,EtchedComponent*
%ADD10C,0.010000*%
G04 #@! TD*
G04 #@! TA.AperFunction,SMDPad,CuDef*
%ADD11R,1.600000X1.000000*%
G04 #@! TD*
G04 #@! TA.AperFunction,SMDPad,CuDef*
%ADD12R,1.550000X0.600000*%
G04 #@! TD*
G04 #@! TA.AperFunction,SMDPad,CuDef*
%ADD13O,0.900000X2.500000*%
G04 #@! TD*
G04 #@! TA.AperFunction,SMDPad,CuDef*
%ADD14O,2.500000X0.900000*%
G04 #@! TD*
G04 #@! TA.AperFunction,SMDPad,CuDef*
%ADD15R,6.000000X6.000000*%
G04 #@! TD*
G04 #@! TA.AperFunction,SMDPad,CuDef*
%ADD16R,1.500000X1.250000*%
G04 #@! TD*
G04 #@! TA.AperFunction,SMDPad,CuDef*
%ADD17R,1.500000X1.300000*%
G04 #@! TD*
G04 #@! TA.AperFunction,ComponentPad*
%ADD18C,20.000000*%
G04 #@! TD*
G04 #@! TA.AperFunction,ComponentPad*
%ADD19C,2.000000*%
G04 #@! TD*
G04 #@! TA.AperFunction,ComponentPad*
%ADD20C,2.499360*%
G04 #@! TD*
G04 #@! TA.AperFunction,ComponentPad*
%ADD21R,1.700000X1.700000*%
G04 #@! TD*
G04 #@! TA.AperFunction,ComponentPad*
%ADD22O,1.700000X1.700000*%
G04 #@! TD*
G04 #@! TA.AperFunction,SMDPad,CuDef*
%ADD23R,3.800000X2.000000*%
G04 #@! TD*
G04 #@! TA.AperFunction,SMDPad,CuDef*
%ADD24R,1.500000X2.000000*%
G04 #@! TD*
G04 #@! TA.AperFunction,SMDPad,CuDef*
%ADD25R,1.500000X0.600000*%
G04 #@! TD*
G04 #@! TA.AperFunction,SMDPad,CuDef*
%ADD26R,2.200000X2.200000*%
G04 #@! TD*
G04 #@! TA.AperFunction,SMDPad,CuDef*
%ADD27R,1.400000X1.500000*%
G04 #@! TD*
G04 #@! TA.AperFunction,SMDPad,CuDef*
%ADD28R,1.800000X0.400000*%
G04 #@! TD*
G04 #@! TA.AperFunction,SMDPad,CuDef*
%ADD29R,1.500000X1.350000*%
G04 #@! TD*
G04 #@! TA.AperFunction,SMDPad,CuDef*
%ADD30R,1.000000X1.100000*%
G04 #@! TD*
G04 #@! TA.AperFunction,SMDPad,CuDef*
%ADD31R,5.100000X5.100000*%
G04 #@! TD*
G04 #@! TA.AperFunction,SMDPad,CuDef*
%ADD32R,8.000000X10.000000*%
G04 #@! TD*
G04 #@! TA.AperFunction,SMDPad,CuDef*
%ADD33R,0.700000X1.300000*%
G04 #@! TD*
G04 #@! TA.AperFunction,ViaPad*
%ADD34C,0.600000*%
G04 #@! TD*
G04 #@! TA.AperFunction,Conductor*
%ADD35C,0.250000*%
G04 #@! TD*
G04 #@! TA.AperFunction,Conductor*
%ADD36C,0.200000*%
G04 #@! TD*
G04 APERTURE END LIST*
D10*
G04 #@! TO.C,Ref\002A\002A*
G36*
X165439413Y-101226101D02*
X165622476Y-101318441D01*
X165758408Y-101452243D01*
X165765789Y-101463445D01*
X165804296Y-101533560D01*
X165825787Y-101608161D01*
X165832260Y-101708906D01*
X165825713Y-101857454D01*
X165814912Y-101996000D01*
X165801318Y-102204176D01*
X165790127Y-102462106D01*
X165782606Y-102734886D01*
X165780038Y-102956064D01*
X165780779Y-103188042D01*
X165785613Y-103352025D01*
X165796695Y-103464664D01*
X165816180Y-103542610D01*
X165846225Y-103602512D01*
X165867732Y-103633397D01*
X165953602Y-103718274D01*
X166067178Y-103758004D01*
X166140016Y-103766227D01*
X166387890Y-103747096D01*
X166615719Y-103649890D01*
X166829344Y-103471818D01*
X166884224Y-103410825D01*
X166988892Y-103297241D01*
X167079066Y-103215178D01*
X167136141Y-103181453D01*
X167138112Y-103181334D01*
X167193755Y-103214452D01*
X167267182Y-103298096D01*
X167299505Y-103345393D01*
X167446869Y-103536127D01*
X167596913Y-103650226D01*
X167744284Y-103686020D01*
X167883631Y-103641837D01*
X167977971Y-103557223D01*
X168058653Y-103448415D01*
X168128934Y-103320458D01*
X168196082Y-103156221D01*
X168267364Y-102938574D01*
X168325985Y-102736834D01*
X168385450Y-102526010D01*
X168447683Y-102306557D01*
X168501333Y-102118471D01*
X168512246Y-102080442D01*
X168591416Y-101805050D01*
X169019565Y-101641582D01*
X169237567Y-101562972D01*
X169385998Y-101520703D01*
X169471001Y-101513227D01*
X169492145Y-101522545D01*
X169522677Y-101581474D01*
X169489740Y-101641145D01*
X169387286Y-101706634D01*
X169209270Y-101783021D01*
X169159887Y-101801600D01*
X169000263Y-101863840D01*
X168869296Y-101920866D01*
X168789270Y-101962783D01*
X168778527Y-101970933D01*
X168750315Y-102027037D01*
X168706526Y-102148746D01*
X168652553Y-102319637D01*
X168593790Y-102523288D01*
X168577251Y-102583804D01*
X168466737Y-102965610D01*
X168360651Y-103270568D01*
X168254846Y-103506062D01*
X168145173Y-103679475D01*
X168027485Y-103798190D01*
X167897635Y-103869591D01*
X167846069Y-103885398D01*
X167672379Y-103888191D01*
X167488574Y-103821646D01*
X167316259Y-103694924D01*
X167262569Y-103637944D01*
X167111511Y-103461467D01*
X166941542Y-103638355D01*
X166757034Y-103804866D01*
X166573712Y-103907737D01*
X166360918Y-103961778D01*
X166246413Y-103974186D01*
X166088971Y-103980485D01*
X165979906Y-103964957D01*
X165884244Y-103920620D01*
X165842334Y-103893552D01*
X165714087Y-103765677D01*
X165622698Y-103578493D01*
X165567655Y-103328317D01*
X165548449Y-103011461D01*
X165564569Y-102624242D01*
X165609182Y-102210076D01*
X165637945Y-101958873D01*
X165645189Y-101775459D01*
X165627137Y-101644833D01*
X165580009Y-101551997D01*
X165500027Y-101481951D01*
X165413702Y-101434122D01*
X165268658Y-101389101D01*
X165130297Y-101407585D01*
X164982541Y-101494350D01*
X164866579Y-101596650D01*
X164771116Y-101682110D01*
X164708509Y-101712811D01*
X164656292Y-101698090D01*
X164643527Y-101689361D01*
X164596073Y-101644661D01*
X164602352Y-101595669D01*
X164640525Y-101536482D01*
X164749960Y-101423072D01*
X164902501Y-101316287D01*
X165067405Y-101233782D01*
X165213928Y-101193212D01*
X165240974Y-101191667D01*
X165439413Y-101226101D01*
X165439413Y-101226101D01*
G37*
X165439413Y-101226101D02*
X165622476Y-101318441D01*
X165758408Y-101452243D01*
X165765789Y-101463445D01*
X165804296Y-101533560D01*
X165825787Y-101608161D01*
X165832260Y-101708906D01*
X165825713Y-101857454D01*
X165814912Y-101996000D01*
X165801318Y-102204176D01*
X165790127Y-102462106D01*
X165782606Y-102734886D01*
X165780038Y-102956064D01*
X165780779Y-103188042D01*
X165785613Y-103352025D01*
X165796695Y-103464664D01*
X165816180Y-103542610D01*
X165846225Y-103602512D01*
X165867732Y-103633397D01*
X165953602Y-103718274D01*
X166067178Y-103758004D01*
X166140016Y-103766227D01*
X166387890Y-103747096D01*
X166615719Y-103649890D01*
X166829344Y-103471818D01*
X166884224Y-103410825D01*
X166988892Y-103297241D01*
X167079066Y-103215178D01*
X167136141Y-103181453D01*
X167138112Y-103181334D01*
X167193755Y-103214452D01*
X167267182Y-103298096D01*
X167299505Y-103345393D01*
X167446869Y-103536127D01*
X167596913Y-103650226D01*
X167744284Y-103686020D01*
X167883631Y-103641837D01*
X167977971Y-103557223D01*
X168058653Y-103448415D01*
X168128934Y-103320458D01*
X168196082Y-103156221D01*
X168267364Y-102938574D01*
X168325985Y-102736834D01*
X168385450Y-102526010D01*
X168447683Y-102306557D01*
X168501333Y-102118471D01*
X168512246Y-102080442D01*
X168591416Y-101805050D01*
X169019565Y-101641582D01*
X169237567Y-101562972D01*
X169385998Y-101520703D01*
X169471001Y-101513227D01*
X169492145Y-101522545D01*
X169522677Y-101581474D01*
X169489740Y-101641145D01*
X169387286Y-101706634D01*
X169209270Y-101783021D01*
X169159887Y-101801600D01*
X169000263Y-101863840D01*
X168869296Y-101920866D01*
X168789270Y-101962783D01*
X168778527Y-101970933D01*
X168750315Y-102027037D01*
X168706526Y-102148746D01*
X168652553Y-102319637D01*
X168593790Y-102523288D01*
X168577251Y-102583804D01*
X168466737Y-102965610D01*
X168360651Y-103270568D01*
X168254846Y-103506062D01*
X168145173Y-103679475D01*
X168027485Y-103798190D01*
X167897635Y-103869591D01*
X167846069Y-103885398D01*
X167672379Y-103888191D01*
X167488574Y-103821646D01*
X167316259Y-103694924D01*
X167262569Y-103637944D01*
X167111511Y-103461467D01*
X166941542Y-103638355D01*
X166757034Y-103804866D01*
X166573712Y-103907737D01*
X166360918Y-103961778D01*
X166246413Y-103974186D01*
X166088971Y-103980485D01*
X165979906Y-103964957D01*
X165884244Y-103920620D01*
X165842334Y-103893552D01*
X165714087Y-103765677D01*
X165622698Y-103578493D01*
X165567655Y-103328317D01*
X165548449Y-103011461D01*
X165564569Y-102624242D01*
X165609182Y-102210076D01*
X165637945Y-101958873D01*
X165645189Y-101775459D01*
X165627137Y-101644833D01*
X165580009Y-101551997D01*
X165500027Y-101481951D01*
X165413702Y-101434122D01*
X165268658Y-101389101D01*
X165130297Y-101407585D01*
X164982541Y-101494350D01*
X164866579Y-101596650D01*
X164771116Y-101682110D01*
X164708509Y-101712811D01*
X164656292Y-101698090D01*
X164643527Y-101689361D01*
X164596073Y-101644661D01*
X164602352Y-101595669D01*
X164640525Y-101536482D01*
X164749960Y-101423072D01*
X164902501Y-101316287D01*
X165067405Y-101233782D01*
X165213928Y-101193212D01*
X165240974Y-101191667D01*
X165439413Y-101226101D01*
G04 #@! TD*
D11*
G04 #@! TO.P,0101,4*
G04 #@! TO.N,Net-(LED10-Pad4)*
X89770000Y-97028576D03*
G04 #@! TO.P,0101,1*
G04 #@! TO.N,VDD*
X89770000Y-93828576D03*
G04 #@! TO.P,0101,3*
G04 #@! TO.N,VSS*
X84120000Y-96978576D03*
G04 #@! TO.P,0101,2*
G04 #@! TO.N,SPI*
X84120000Y-93828576D03*
G04 #@! TD*
G04 #@! TO.P,0001,4*
G04 #@! TO.N,Net-(LED7-Pad2)*
X107065000Y-97025576D03*
G04 #@! TO.P,0001,1*
G04 #@! TO.N,VDD*
X107065000Y-93825576D03*
G04 #@! TO.P,0001,3*
G04 #@! TO.N,VSS*
X101415000Y-96975576D03*
G04 #@! TO.P,0001,2*
G04 #@! TO.N,Net-(LED8-Pad2)*
X101415000Y-93825576D03*
G04 #@! TD*
G04 #@! TO.P,0100,4*
G04 #@! TO.N,Net-(LED1-Pad2)*
X160405000Y-97025576D03*
G04 #@! TO.P,0100,1*
G04 #@! TO.N,VDD*
X160405000Y-93825576D03*
G04 #@! TO.P,0100,3*
G04 #@! TO.N,VSS*
X154755000Y-96975576D03*
G04 #@! TO.P,0100,2*
G04 #@! TO.N,Net-(LED2-Pad2)*
X154755000Y-93825576D03*
G04 #@! TD*
G04 #@! TO.P,1000,4*
G04 #@! TO.N,N/C*
X168995000Y-97053576D03*
G04 #@! TO.P,1000,1*
G04 #@! TO.N,VDD*
X168995000Y-93853576D03*
G04 #@! TO.P,1000,3*
G04 #@! TO.N,VSS*
X163345000Y-97003576D03*
G04 #@! TO.P,1000,2*
G04 #@! TO.N,Net-(LED1-Pad2)*
X163345000Y-93853576D03*
G04 #@! TD*
G04 #@! TO.P,1100,4*
G04 #@! TO.N,Net-(LED2-Pad2)*
X151515000Y-97025576D03*
G04 #@! TO.P,1100,1*
G04 #@! TO.N,VDD*
X151515000Y-93825576D03*
G04 #@! TO.P,1100,3*
G04 #@! TO.N,VSS*
X145865000Y-96975576D03*
G04 #@! TO.P,1100,2*
G04 #@! TO.N,Net-(LED3-Pad2)*
X145865000Y-93825576D03*
G04 #@! TD*
G04 #@! TO.P,0010,4*
G04 #@! TO.N,Net-(LED3-Pad2)*
X142625000Y-97025576D03*
G04 #@! TO.P,0010,1*
G04 #@! TO.N,VDD*
X142625000Y-93825576D03*
G04 #@! TO.P,0010,3*
G04 #@! TO.N,VSS*
X136975000Y-96975576D03*
G04 #@! TO.P,0010,2*
G04 #@! TO.N,Net-(LED4-Pad2)*
X136975000Y-93825576D03*
G04 #@! TD*
G04 #@! TO.P,1010,4*
G04 #@! TO.N,Net-(LED4-Pad2)*
X133735000Y-97025576D03*
G04 #@! TO.P,1010,1*
G04 #@! TO.N,VDD*
X133735000Y-93825576D03*
G04 #@! TO.P,1010,3*
G04 #@! TO.N,VSS*
X128085000Y-96975576D03*
G04 #@! TO.P,1010,2*
G04 #@! TO.N,Net-(LED5-Pad2)*
X128085000Y-93825576D03*
G04 #@! TD*
G04 #@! TO.P,0110,4*
G04 #@! TO.N,Net-(LED5-Pad2)*
X124845000Y-97025576D03*
G04 #@! TO.P,0110,1*
G04 #@! TO.N,VDD*
X124845000Y-93825576D03*
G04 #@! TO.P,0110,3*
G04 #@! TO.N,VSS*
X119195000Y-96975576D03*
G04 #@! TO.P,0110,2*
G04 #@! TO.N,Net-(LED6-Pad2)*
X119195000Y-93825576D03*
G04 #@! TD*
G04 #@! TO.P,1110,4*
G04 #@! TO.N,Net-(LED6-Pad2)*
X115955000Y-97025576D03*
G04 #@! TO.P,1110,1*
G04 #@! TO.N,VDD*
X115955000Y-93825576D03*
G04 #@! TO.P,1110,3*
G04 #@! TO.N,VSS*
X110305000Y-96975576D03*
G04 #@! TO.P,1110,2*
G04 #@! TO.N,Net-(LED7-Pad2)*
X110305000Y-93825576D03*
G04 #@! TD*
G04 #@! TO.P,1001,4*
G04 #@! TO.N,Net-(LED8-Pad2)*
X98175000Y-97025576D03*
G04 #@! TO.P,1001,1*
G04 #@! TO.N,VDD*
X98175000Y-93825576D03*
G04 #@! TO.P,1001,3*
G04 #@! TO.N,VSS*
X92525000Y-96975576D03*
G04 #@! TO.P,1001,2*
G04 #@! TO.N,Net-(LED10-Pad4)*
X92525000Y-93825576D03*
G04 #@! TD*
D12*
G04 #@! TO.P,U2,8*
G04 #@! TO.N,Net-(C15-Pad1)*
X96406000Y-113915000D03*
G04 #@! TO.P,U2,7*
G04 #@! TO.N,RX*
X96406000Y-115185000D03*
G04 #@! TO.P,U2,6*
G04 #@! TO.N,TX*
X96406000Y-116455000D03*
G04 #@! TO.P,U2,5*
G04 #@! TO.N,VBUS*
X96406000Y-117725000D03*
G04 #@! TO.P,U2,4*
G04 #@! TO.N,Net-(U2-Pad4)*
X91006000Y-117725000D03*
G04 #@! TO.P,U2,3*
G04 #@! TO.N,VSS*
X91006000Y-116455000D03*
G04 #@! TO.P,U2,2*
G04 #@! TO.N,Net-(J10-Pad2)*
X91006000Y-115185000D03*
G04 #@! TO.P,U2,1*
G04 #@! TO.N,Net-(J10-Pad3)*
X91006000Y-113915000D03*
G04 #@! TD*
D13*
G04 #@! TO.P,U1,38*
G04 #@! TO.N,VSS*
X163770000Y-128197000D03*
G04 #@! TO.P,U1,37*
G04 #@! TO.N,Net-(U1-Pad37)*
X162500000Y-128197000D03*
G04 #@! TO.P,U1,36*
G04 #@! TO.N,Net-(U1-Pad36)*
X161230000Y-128197000D03*
G04 #@! TO.P,U1,35*
G04 #@! TO.N,RX*
X159960000Y-128197000D03*
G04 #@! TO.P,U1,34*
G04 #@! TO.N,TX*
X158690000Y-128197000D03*
G04 #@! TO.P,U1,33*
G04 #@! TO.N,IO21*
X157420000Y-128197000D03*
G04 #@! TO.P,U1,32*
G04 #@! TO.N,Net-(U1-Pad32)*
X156150000Y-128197000D03*
G04 #@! TO.P,U1,31*
G04 #@! TO.N,IO19*
X154880000Y-128197000D03*
G04 #@! TO.P,U1,30*
G04 #@! TO.N,IO18*
X153610000Y-128197000D03*
G04 #@! TO.P,U1,29*
G04 #@! TO.N,IO5*
X152340000Y-128197000D03*
G04 #@! TO.P,U1,28*
G04 #@! TO.N,IO17*
X151070000Y-128197000D03*
G04 #@! TO.P,U1,27*
G04 #@! TO.N,IO16*
X149800000Y-128197000D03*
G04 #@! TO.P,U1,26*
G04 #@! TO.N,P0*
X148530000Y-128197000D03*
G04 #@! TO.P,U1,25*
G04 #@! TO.N,IO0*
X147260000Y-128197000D03*
D14*
G04 #@! TO.P,U1,24*
G04 #@! TO.N,VSS*
X145770000Y-124912000D03*
G04 #@! TO.P,U1,23*
G04 #@! TO.N,P1*
X145770000Y-123642000D03*
G04 #@! TO.P,U1,22*
G04 #@! TO.N,Net-(U1-Pad22)*
X145770000Y-122372000D03*
G04 #@! TO.P,U1,21*
G04 #@! TO.N,Net-(U1-Pad21)*
X145770000Y-121102000D03*
G04 #@! TO.P,U1,20*
G04 #@! TO.N,Net-(U1-Pad20)*
X145770000Y-119832000D03*
G04 #@! TO.P,U1,19*
G04 #@! TO.N,Net-(U1-Pad19)*
X145770000Y-118562000D03*
G04 #@! TO.P,U1,18*
G04 #@! TO.N,Net-(U1-Pad18)*
X145770000Y-117292000D03*
G04 #@! TO.P,U1,17*
G04 #@! TO.N,Net-(U1-Pad17)*
X145770000Y-116022000D03*
G04 #@! TO.P,U1,16*
G04 #@! TO.N,IO13*
X145770000Y-114752000D03*
G04 #@! TO.P,U1,15*
G04 #@! TO.N,VSS*
X145770000Y-113482000D03*
D13*
G04 #@! TO.P,U1,14*
G04 #@! TO.N,P2*
X147260000Y-110197000D03*
G04 #@! TO.P,U1,13*
G04 #@! TO.N,P3*
X148530000Y-110197000D03*
G04 #@! TO.P,U1,12*
G04 #@! TO.N,IO27*
X149800000Y-110197000D03*
G04 #@! TO.P,U1,11*
G04 #@! TO.N,Net-(U1-Pad11)*
X151070000Y-110197000D03*
G04 #@! TO.P,U1,10*
G04 #@! TO.N,SPI*
X152340000Y-110197000D03*
G04 #@! TO.P,U1,9*
G04 #@! TO.N,IO33*
X153610000Y-110197000D03*
G04 #@! TO.P,U1,8*
G04 #@! TO.N,IO32*
X154880000Y-110197000D03*
G04 #@! TO.P,U1,7*
G04 #@! TO.N,IO35*
X156150000Y-110197000D03*
G04 #@! TO.P,U1,6*
G04 #@! TO.N,IO34*
X157420000Y-110197000D03*
G04 #@! TO.P,U1,5*
G04 #@! TO.N,Net-(U1-Pad5)*
X158690000Y-110197000D03*
G04 #@! TO.P,U1,4*
G04 #@! TO.N,Net-(U1-Pad4)*
X159960000Y-110197000D03*
G04 #@! TO.P,U1,3*
G04 #@! TO.N,Net-(C11-Pad1)*
X161230000Y-110197000D03*
G04 #@! TO.P,U1,2*
G04 #@! TO.N,VDD*
X162500000Y-110197000D03*
G04 #@! TO.P,U1,1*
G04 #@! TO.N,VSS*
X163770000Y-110197000D03*
D15*
G04 #@! TO.P,U1,39*
X156070000Y-118897000D03*
G04 #@! TD*
D16*
G04 #@! TO.P,C1,1*
G04 #@! TO.N,VDD*
X169620000Y-99197000D03*
G04 #@! TO.P,C1,2*
G04 #@! TO.N,VSS*
X167120000Y-99197000D03*
G04 #@! TD*
G04 #@! TO.P,C2,1*
G04 #@! TO.N,VDD*
X161220000Y-99301000D03*
G04 #@! TO.P,C2,2*
G04 #@! TO.N,VSS*
X158720000Y-99301000D03*
G04 #@! TD*
G04 #@! TO.P,C3,1*
G04 #@! TO.N,VDD*
X152420000Y-99301000D03*
G04 #@! TO.P,C3,2*
G04 #@! TO.N,VSS*
X149920000Y-99301000D03*
G04 #@! TD*
G04 #@! TO.P,C4,1*
G04 #@! TO.N,VDD*
X143420000Y-99301000D03*
G04 #@! TO.P,C4,2*
G04 #@! TO.N,VSS*
X140920000Y-99301000D03*
G04 #@! TD*
G04 #@! TO.P,C5,1*
G04 #@! TO.N,VDD*
X134420000Y-99301000D03*
G04 #@! TO.P,C5,2*
G04 #@! TO.N,VSS*
X131920000Y-99301000D03*
G04 #@! TD*
G04 #@! TO.P,C6,1*
G04 #@! TO.N,VDD*
X125620000Y-99301000D03*
G04 #@! TO.P,C6,2*
G04 #@! TO.N,VSS*
X123120000Y-99301000D03*
G04 #@! TD*
G04 #@! TO.P,C7,1*
G04 #@! TO.N,VDD*
X116820000Y-99301000D03*
G04 #@! TO.P,C7,2*
G04 #@! TO.N,VSS*
X114320000Y-99301000D03*
G04 #@! TD*
G04 #@! TO.P,C8,1*
G04 #@! TO.N,VDD*
X107820000Y-99301000D03*
G04 #@! TO.P,C8,2*
G04 #@! TO.N,VSS*
X105320000Y-99301000D03*
G04 #@! TD*
G04 #@! TO.P,C9,1*
G04 #@! TO.N,VDD*
X99020000Y-99301000D03*
G04 #@! TO.P,C9,2*
G04 #@! TO.N,VSS*
X96520000Y-99301000D03*
G04 #@! TD*
G04 #@! TO.P,C10,1*
G04 #@! TO.N,VDD*
X90620000Y-99301000D03*
G04 #@! TO.P,C10,2*
G04 #@! TO.N,VSS*
X88120000Y-99301000D03*
G04 #@! TD*
G04 #@! TO.P,C11,1*
G04 #@! TO.N,Net-(C11-Pad1)*
X161070000Y-106647000D03*
G04 #@! TO.P,C11,2*
G04 #@! TO.N,VSS*
X163570000Y-106647000D03*
G04 #@! TD*
G04 #@! TO.P,C12,1*
G04 #@! TO.N,VSS*
X165820000Y-106647000D03*
G04 #@! TO.P,C12,2*
G04 #@! TO.N,VDD*
X168320000Y-106647000D03*
G04 #@! TD*
G04 #@! TO.P,C13,1*
G04 #@! TO.N,VSS*
X165820000Y-108839000D03*
G04 #@! TO.P,C13,2*
G04 #@! TO.N,VDD*
X168320000Y-108839000D03*
G04 #@! TD*
D17*
G04 #@! TO.P,R1,1*
G04 #@! TO.N,VDD*
X156120000Y-106647000D03*
G04 #@! TO.P,R1,2*
G04 #@! TO.N,Net-(C11-Pad1)*
X158820000Y-106647000D03*
G04 #@! TD*
D18*
G04 #@! TO.P,J5,1*
G04 #@! TO.N,P3*
X93980000Y-142240000D03*
G04 #@! TD*
G04 #@! TO.P,J11,1*
G04 #@! TO.N,P2*
X115570000Y-142240000D03*
G04 #@! TD*
G04 #@! TO.P,J12,1*
G04 #@! TO.N,P1*
X137160000Y-142240000D03*
G04 #@! TD*
G04 #@! TO.P,J13,1*
G04 #@! TO.N,P0*
X158750000Y-142240000D03*
G04 #@! TD*
D19*
G04 #@! TO.P,J4,1*
G04 #@! TO.N,TX*
X165481000Y-131064000D03*
G04 #@! TO.N,RX*
X169291000Y-131064000D03*
G04 #@! TD*
G04 #@! TO.P,J7,1*
G04 #@! TO.N,IO21*
X152400000Y-131826000D03*
G04 #@! TD*
G04 #@! TO.P,J9,1*
G04 #@! TO.N,IO0*
X84820000Y-125147000D03*
G04 #@! TD*
D20*
G04 #@! TO.P,J14,1*
G04 #@! TO.N,VDD*
X88600000Y-129307000D03*
G04 #@! TO.N,VSS*
X84790000Y-129307000D03*
G04 #@! TD*
D16*
G04 #@! TO.P,C14,1*
G04 #@! TO.N,Net-(C14-Pad1)*
X86570000Y-104897000D03*
G04 #@! TO.P,C14,2*
G04 #@! TO.N,VBUS*
X89070000Y-104897000D03*
G04 #@! TD*
G04 #@! TO.P,C15,2*
G04 #@! TO.N,VSS*
X95320000Y-120647000D03*
G04 #@! TO.P,C15,1*
G04 #@! TO.N,Net-(C15-Pad1)*
X97820000Y-120647000D03*
G04 #@! TD*
G04 #@! TO.P,C16,2*
G04 #@! TO.N,VSS*
X108570000Y-120647000D03*
G04 #@! TO.P,C16,1*
G04 #@! TO.N,VDDA*
X106070000Y-120647000D03*
G04 #@! TD*
G04 #@! TO.P,C17,2*
G04 #@! TO.N,VDDA*
X98670000Y-104997000D03*
G04 #@! TO.P,C17,1*
G04 #@! TO.N,VSS*
X101170000Y-104997000D03*
G04 #@! TD*
G04 #@! TO.P,C18,1*
G04 #@! TO.N,VDD*
X103570000Y-120647000D03*
G04 #@! TO.P,C18,2*
G04 #@! TO.N,VSS*
X101070000Y-120647000D03*
G04 #@! TD*
G04 #@! TO.P,C19,1*
G04 #@! TO.N,VSS*
X89820000Y-120647000D03*
G04 #@! TO.P,C19,2*
G04 #@! TO.N,VBUS*
X92320000Y-120647000D03*
G04 #@! TD*
D21*
G04 #@! TO.P,J8,1*
G04 #@! TO.N,IO16*
X122030000Y-130147000D03*
D22*
G04 #@! TO.P,J8,2*
G04 #@! TO.N,IO17*
X124570000Y-130147000D03*
G04 #@! TO.P,J8,3*
G04 #@! TO.N,IO5*
X127110000Y-130147000D03*
G04 #@! TO.P,J8,4*
G04 #@! TO.N,IO18*
X129650000Y-130147000D03*
G04 #@! TO.P,J8,5*
G04 #@! TO.N,IO19*
X132190000Y-130147000D03*
G04 #@! TD*
D17*
G04 #@! TO.P,R2,1*
G04 #@! TO.N,Net-(R2-Pad1)*
X93120000Y-104997000D03*
G04 #@! TO.P,R2,2*
G04 #@! TO.N,VSS*
X95820000Y-104997000D03*
G04 #@! TD*
D23*
G04 #@! TO.P,U4,2*
G04 #@! TO.N,VDD*
X102720000Y-110997000D03*
D24*
X102720000Y-117297000D03*
G04 #@! TO.P,U4,3*
G04 #@! TO.N,VDDA*
X105020000Y-117297000D03*
G04 #@! TO.P,U4,1*
G04 #@! TO.N,VSS*
X100420000Y-117297000D03*
G04 #@! TD*
D17*
G04 #@! TO.P,R3,1*
G04 #@! TO.N,VDD*
X108620000Y-106647000D03*
G04 #@! TO.P,R3,2*
G04 #@! TO.N,VDDA*
X111320000Y-106647000D03*
G04 #@! TD*
G04 #@! TO.P,R4,1*
G04 #@! TO.N,IO13*
X142520000Y-103397000D03*
G04 #@! TO.P,R4,2*
G04 #@! TO.N,Net-(LS1-Pad1)*
X139820000Y-103397000D03*
G04 #@! TD*
D21*
G04 #@! TO.P,J1,1*
G04 #@! TO.N,IO33*
X144450000Y-106647000D03*
D22*
G04 #@! TO.P,J1,2*
G04 #@! TO.N,IO32*
X146990000Y-106647000D03*
G04 #@! TO.P,J1,3*
G04 #@! TO.N,IO35*
X149530000Y-106647000D03*
G04 #@! TO.P,J1,4*
G04 #@! TO.N,IO34*
X152070000Y-106647000D03*
G04 #@! TD*
D25*
G04 #@! TO.P,U3,1*
G04 #@! TO.N,N/C*
X90960000Y-107497000D03*
G04 #@! TO.P,U3,2*
G04 #@! TO.N,Net-(R2-Pad1)*
X90960000Y-108767000D03*
G04 #@! TO.P,U3,3*
G04 #@! TO.N,VSS*
X90960000Y-110037000D03*
G04 #@! TO.P,U3,4*
G04 #@! TO.N,VBUS*
X90960000Y-111307000D03*
G04 #@! TO.P,U3,6*
G04 #@! TO.N,IO27*
X96410000Y-110037000D03*
G04 #@! TO.P,U3,5*
G04 #@! TO.N,VDDA*
X96410000Y-111307000D03*
G04 #@! TO.P,U3,8*
G04 #@! TO.N,N/C*
X96410000Y-107497000D03*
G04 #@! TO.P,U3,7*
G04 #@! TO.N,Net-(U3-Pad7)*
X96410000Y-108767000D03*
D26*
G04 #@! TO.P,U3,9*
G04 #@! TO.N,VSS*
X93710000Y-109447000D03*
G04 #@! TD*
D27*
G04 #@! TO.P,J10,6*
G04 #@! TO.N,VSS*
X85920000Y-110407000D03*
X85920000Y-116907000D03*
D28*
G04 #@! TO.P,J10,3*
G04 #@! TO.N,Net-(J10-Pad3)*
X86120000Y-113657000D03*
G04 #@! TO.P,J10,2*
G04 #@! TO.N,Net-(J10-Pad2)*
X86120000Y-113007000D03*
G04 #@! TO.P,J10,4*
G04 #@! TO.N,Net-(J10-Pad4)*
X86120000Y-114307000D03*
G04 #@! TO.P,J10,1*
G04 #@! TO.N,VBUS*
X86120000Y-112357000D03*
G04 #@! TO.P,J10,5*
G04 #@! TO.N,VSS*
X86120000Y-114957000D03*
D29*
G04 #@! TO.P,J10,6*
X83250000Y-109582000D03*
X83250000Y-117732000D03*
D30*
X82070000Y-112157000D03*
X82070000Y-115157000D03*
G04 #@! TD*
D31*
G04 #@! TO.P,BT1,1*
G04 #@! TO.N,N/C*
X140720000Y-115197000D03*
G04 #@! TO.N,VDDA*
X110120000Y-115197000D03*
D32*
G04 #@! TO.P,BT1,2*
G04 #@! TO.N,VSS*
X125420000Y-115197000D03*
G04 #@! TD*
D33*
G04 #@! TO.P,R5,1*
G04 #@! TO.N,VSS*
X82920000Y-104897000D03*
G04 #@! TO.P,R5,2*
G04 #@! TO.N,Net-(C14-Pad1)*
X84820000Y-104897000D03*
G04 #@! TD*
D34*
G04 #@! TO.N,VDD*
X104320000Y-110297000D03*
X101120000Y-110297000D03*
X108320000Y-106897000D03*
X156120000Y-106397000D03*
X101720000Y-110997000D03*
X103920000Y-110997000D03*
X168070000Y-105397000D03*
X169620000Y-99197000D03*
X161320000Y-94397000D03*
X161220000Y-99301000D03*
X152320000Y-94397000D03*
X152420000Y-99301000D03*
X143320000Y-94397000D03*
X143420000Y-99301000D03*
X134520000Y-94397000D03*
X134420000Y-99301000D03*
X125520000Y-94397000D03*
X125620000Y-99301000D03*
X116920000Y-94397000D03*
X116820000Y-99301000D03*
X107920000Y-94397000D03*
X107820000Y-99301000D03*
X98920000Y-94397000D03*
X99020000Y-99301000D03*
X90520000Y-94397000D03*
X90620000Y-99301000D03*
X102720000Y-117297000D03*
G04 #@! TO.N,VSS*
X119997600Y-114321400D03*
X155030000Y-119080000D03*
G04 #@! TO.N,SPI*
X152075010Y-109902010D03*
X82670000Y-94097000D03*
G04 #@! TO.N,TX*
X97020000Y-116397000D03*
X158690000Y-128197000D03*
G04 #@! TO.N,RX*
X97020000Y-115197000D03*
X159960000Y-128197000D03*
G04 #@! TO.N,IO19*
X154880000Y-128197000D03*
G04 #@! TO.N,IO18*
X153610000Y-128197000D03*
G04 #@! TO.N,IO5*
X152340000Y-128197000D03*
G04 #@! TO.N,IO17*
X151120000Y-127797000D03*
G04 #@! TO.N,IO16*
X142120000Y-126246989D03*
X139670000Y-126246989D03*
G04 #@! TO.N,IO0*
X142070000Y-131647000D03*
G04 #@! TO.N,IO13*
X143320000Y-111197000D03*
X142520000Y-103397000D03*
G04 #@! TO.N,IO27*
X96410000Y-110037000D03*
X149800000Y-110197000D03*
G04 #@! TO.N,IO33*
X146120000Y-107997000D03*
X153610000Y-110197000D03*
G04 #@! TO.N,VBUS*
X89820000Y-111147000D03*
X89820000Y-105147000D03*
G04 #@! TO.N,Net-(R2-Pad1)*
X90960000Y-108767000D03*
X93120000Y-105097002D03*
G04 #@! TO.N,Net-(J10-Pad3)*
X89240000Y-114857000D03*
X91006000Y-113915000D03*
G04 #@! TO.N,Net-(LS1-Pad1)*
X130895000Y-114305000D03*
G04 #@! TO.N,Net-(U1-Pad37)*
X162814000Y-125984000D03*
G04 #@! TD*
D35*
G04 #@! TO.N,VDD*
X168320000Y-108839000D02*
X168320000Y-106647000D01*
X168320000Y-106647000D02*
X168320000Y-105647000D01*
X168320000Y-105647000D02*
X168070000Y-105397000D01*
X168320000Y-108839000D02*
X168320000Y-107964000D01*
X170620000Y-98322000D02*
X169745000Y-99197000D01*
X170620000Y-94428576D02*
X170620000Y-98322000D01*
X169745000Y-99197000D02*
X169620000Y-99197000D01*
X170045000Y-93853576D02*
X170620000Y-94428576D01*
X168995000Y-93853576D02*
X170045000Y-93853576D01*
X160405000Y-93825576D02*
X160748576Y-93825576D01*
X160748576Y-93825576D02*
X161320000Y-94397000D01*
X151515000Y-93825576D02*
X151748576Y-93825576D01*
X151748576Y-93825576D02*
X152320000Y-94397000D01*
X142625000Y-93825576D02*
X142748576Y-93825576D01*
X142748576Y-93825576D02*
X143320000Y-94397000D01*
X133735000Y-93825576D02*
X133948576Y-93825576D01*
X133948576Y-93825576D02*
X134520000Y-94397000D01*
X124845000Y-93825576D02*
X124948576Y-93825576D01*
X124948576Y-93825576D02*
X125520000Y-94397000D01*
X115955000Y-93825576D02*
X116348576Y-93825576D01*
X116348576Y-93825576D02*
X116920000Y-94397000D01*
X107065000Y-93825576D02*
X107348576Y-93825576D01*
X107348576Y-93825576D02*
X107920000Y-94397000D01*
X98175000Y-93825576D02*
X98348576Y-93825576D01*
X98348576Y-93825576D02*
X98920000Y-94397000D01*
X89770000Y-93828576D02*
X89951576Y-93828576D01*
X89951576Y-93828576D02*
X90520000Y-94397000D01*
X102720000Y-119297000D02*
X103570000Y-120147000D01*
X168244999Y-107888999D02*
X168320000Y-107964000D01*
X163308001Y-107888999D02*
X168244999Y-107888999D01*
X162500000Y-108697000D02*
X163308001Y-107888999D01*
X162500000Y-110197000D02*
X162500000Y-108697000D01*
X102720000Y-117297000D02*
X102720000Y-119297000D01*
G04 #@! TO.N,VSS*
X93120000Y-110037000D02*
X90960000Y-110037000D01*
X93710000Y-109447000D02*
X93120000Y-110037000D01*
X82170000Y-114957000D02*
X81970000Y-115157000D01*
X86020000Y-114957000D02*
X82170000Y-114957000D01*
X88668000Y-116455000D02*
X91006000Y-116455000D01*
X87170000Y-114957000D02*
X88668000Y-116455000D01*
X86020000Y-114957000D02*
X87170000Y-114957000D01*
X163345000Y-97753576D02*
X163320000Y-97778576D01*
X163345000Y-97003576D02*
X163345000Y-97753576D01*
X163320000Y-97778576D02*
X163320000Y-98997000D01*
X163345000Y-97753576D02*
X163101576Y-97997000D01*
X163101576Y-97997000D02*
X162720000Y-97997000D01*
X154120000Y-97754152D02*
X154120000Y-97997000D01*
X154755000Y-97725576D02*
X154755000Y-96975576D01*
X154726424Y-97754152D02*
X154755000Y-97725576D01*
X154120000Y-97754152D02*
X154726424Y-97754152D01*
X154120000Y-97754152D02*
X154120000Y-97197000D01*
X154120000Y-97197000D02*
X153920000Y-96997000D01*
X145865000Y-96975576D02*
X144541424Y-96975576D01*
X135925000Y-96975576D02*
X135903576Y-96997000D01*
X136975000Y-96975576D02*
X135925000Y-96975576D01*
X135903576Y-96997000D02*
X135520000Y-96997000D01*
X128085000Y-96975576D02*
X126541424Y-96975576D01*
X119195000Y-96975576D02*
X117741424Y-96975576D01*
X109255000Y-96975576D02*
X109233576Y-96997000D01*
X110305000Y-96975576D02*
X109255000Y-96975576D01*
X109233576Y-96997000D02*
X108920000Y-96997000D01*
X101415000Y-96975576D02*
X99741424Y-96975576D01*
X92525000Y-97725576D02*
X92120000Y-98130576D01*
X92525000Y-96975576D02*
X92525000Y-97725576D01*
X92120000Y-98130576D02*
X92120000Y-98597000D01*
X91475000Y-96975576D02*
X91320000Y-97130576D01*
X92525000Y-96975576D02*
X91475000Y-96975576D01*
X91320000Y-97130576D02*
X91320000Y-97797000D01*
X84120000Y-96978576D02*
X82738424Y-96978576D01*
X92570000Y-107897000D02*
X92570000Y-108147000D01*
X93910000Y-107897000D02*
X92570000Y-107897000D01*
X93710000Y-109447000D02*
X93710000Y-108097000D01*
X93710000Y-108097000D02*
X93910000Y-107897000D01*
X92570000Y-110897000D02*
X92820000Y-110647000D01*
X93810000Y-110897000D02*
X94820000Y-110897000D01*
X92820000Y-110647000D02*
X94570000Y-110647000D01*
X94820000Y-110897000D02*
X92570000Y-110897000D01*
X93710000Y-110797000D02*
X93810000Y-110897000D01*
X93710000Y-109447000D02*
X93710000Y-110797000D01*
X94820000Y-110897000D02*
X94570000Y-110647000D01*
X92570000Y-108147000D02*
X92820000Y-108147000D01*
X92820000Y-108147000D02*
X93070000Y-108397000D01*
X93910000Y-107897000D02*
X94820000Y-107897000D01*
X94820000Y-107897000D02*
X94820000Y-107397000D01*
X94320000Y-108147000D02*
X94320000Y-108397000D01*
X94320000Y-108397000D02*
X94070000Y-108397000D01*
X93710000Y-109447000D02*
X93710000Y-108787000D01*
X93710000Y-108787000D02*
X93070000Y-108147000D01*
X92570000Y-108147000D02*
X93070000Y-108147000D01*
X93710000Y-110797000D02*
X94010000Y-111097000D01*
X94010000Y-111097000D02*
X94820000Y-111097000D01*
X94820000Y-111097000D02*
X92520000Y-111097000D01*
X94820000Y-108147000D02*
X94320000Y-108147000D01*
X94570000Y-108397000D02*
X94820000Y-108147000D01*
X93520000Y-108397000D02*
X94570000Y-108397000D01*
X93710000Y-109447000D02*
X93710000Y-108587000D01*
X93710000Y-108587000D02*
X93520000Y-108397000D01*
X93710000Y-108437000D02*
X93420000Y-108147000D01*
X93710000Y-109447000D02*
X93710000Y-108437000D01*
X93070000Y-108147000D02*
X93420000Y-108147000D01*
X93420000Y-108147000D02*
X94320000Y-108147000D01*
G04 #@! TO.N,SPI*
X152075010Y-109902010D02*
X152075010Y-109902010D01*
X152553000Y-110380000D02*
X152075010Y-109902010D01*
X152570000Y-110380000D02*
X152553000Y-110380000D01*
X152075010Y-109902010D02*
X152075010Y-109258981D01*
X84051576Y-93897000D02*
X84120000Y-93828576D01*
X82670000Y-94097000D02*
X82970000Y-93797000D01*
X83001576Y-93828576D02*
X84120000Y-93828576D01*
X82970000Y-93797000D02*
X83001576Y-93828576D01*
G04 #@! TO.N,Net-(LED1-Pad2)*
X163345000Y-95135576D02*
X163345000Y-93853576D01*
X161455000Y-97025576D02*
X163345000Y-95135576D01*
X160405000Y-97025576D02*
X161455000Y-97025576D01*
G04 #@! TO.N,Net-(LED2-Pad2)*
X154755000Y-94085576D02*
X154755000Y-93825576D01*
X151815000Y-97025576D02*
X154755000Y-94085576D01*
X151515000Y-97025576D02*
X151815000Y-97025576D01*
G04 #@! TO.N,Net-(LED3-Pad2)*
X145865000Y-94085576D02*
X145865000Y-93825576D01*
X142925000Y-97025576D02*
X145865000Y-94085576D01*
X142625000Y-97025576D02*
X142925000Y-97025576D01*
G04 #@! TO.N,Net-(LED4-Pad2)*
X136975000Y-94085576D02*
X136975000Y-93825576D01*
X134035000Y-97025576D02*
X136975000Y-94085576D01*
X133735000Y-97025576D02*
X134035000Y-97025576D01*
G04 #@! TO.N,Net-(LED5-Pad2)*
X128085000Y-94085576D02*
X128085000Y-93825576D01*
X125145000Y-97025576D02*
X128085000Y-94085576D01*
X124845000Y-97025576D02*
X125145000Y-97025576D01*
G04 #@! TO.N,Net-(LED6-Pad2)*
X119195000Y-94085576D02*
X119195000Y-93825576D01*
X116255000Y-97025576D02*
X119195000Y-94085576D01*
X115955000Y-97025576D02*
X116255000Y-97025576D01*
G04 #@! TO.N,Net-(LED7-Pad2)*
X110305000Y-94085576D02*
X110305000Y-93825576D01*
X107365000Y-97025576D02*
X110305000Y-94085576D01*
X107065000Y-97025576D02*
X107365000Y-97025576D01*
G04 #@! TO.N,Net-(LED8-Pad2)*
X101415000Y-94085576D02*
X101415000Y-93825576D01*
X98475000Y-97025576D02*
X101415000Y-94085576D01*
X98175000Y-97025576D02*
X98475000Y-97025576D01*
G04 #@! TO.N,Net-(LED10-Pad4)*
X92525000Y-94573576D02*
X92525000Y-93825576D01*
X90070000Y-97028576D02*
X92525000Y-94573576D01*
X89770000Y-97028576D02*
X90070000Y-97028576D01*
G04 #@! TO.N,TX*
X160057000Y-131064000D02*
X165481000Y-131064000D01*
X158690000Y-129697000D02*
X160057000Y-131064000D01*
X158690000Y-128197000D02*
X158690000Y-129697000D01*
G04 #@! TO.N,RX*
X167965999Y-129738999D02*
X169291000Y-131064000D01*
X164124030Y-129738999D02*
X167965999Y-129738999D01*
X164091019Y-129772010D02*
X164124030Y-129738999D01*
X160735010Y-129772010D02*
X164091019Y-129772010D01*
X159960000Y-128997000D02*
X160735010Y-129772010D01*
X159960000Y-128197000D02*
X159960000Y-128997000D01*
G04 #@! TO.N,IO21*
X157420000Y-128997000D02*
X157420000Y-128197000D01*
X155607000Y-130810000D02*
X157420000Y-128997000D01*
X153416000Y-130810000D02*
X155607000Y-130810000D01*
X152400000Y-131826000D02*
X153416000Y-130810000D01*
G04 #@! TO.N,Net-(U1-Pad32)*
X156464000Y-128464000D02*
X156380000Y-128380000D01*
G04 #@! TO.N,IO16*
X122030000Y-129047000D02*
X122030000Y-130147000D01*
X124830011Y-126246989D02*
X122030000Y-129047000D01*
X139670000Y-126246989D02*
X124830011Y-126246989D01*
X148649989Y-126246989D02*
X149800000Y-127397000D01*
X149800000Y-127397000D02*
X149800000Y-128197000D01*
X142120000Y-126246989D02*
X148649989Y-126246989D01*
G04 #@! TO.N,P0*
X148760000Y-128380000D02*
X148760000Y-127580000D01*
X148530000Y-132020000D02*
X158306990Y-141796990D01*
X148530000Y-128197000D02*
X148530000Y-132020000D01*
G04 #@! TO.N,IO0*
X147260000Y-129600000D02*
X147260000Y-128197000D01*
X145034000Y-131826000D02*
X147260000Y-129600000D01*
X145034000Y-131826000D02*
X142249000Y-131826000D01*
X142249000Y-131826000D02*
X142070000Y-131647000D01*
G04 #@! TO.N,P3*
X93980000Y-142240000D02*
X93980000Y-140970000D01*
X112073010Y-124146990D02*
X111970000Y-124250000D01*
X111970000Y-124250000D02*
X94380010Y-141839990D01*
X114324002Y-121895998D02*
X111970000Y-124250000D01*
X128336000Y-121895998D02*
X114324002Y-121895998D01*
X129745001Y-120486997D02*
X128336000Y-121895998D01*
X129745001Y-119850587D02*
X129745001Y-120486997D01*
X148530000Y-110197000D02*
X148530000Y-109397000D01*
X148530000Y-109397000D02*
X147754990Y-108621990D01*
X146724019Y-108621990D02*
X146541019Y-108804990D01*
X147754990Y-108621990D02*
X146724019Y-108621990D01*
X146541019Y-108804990D02*
X140790598Y-108804990D01*
X140790598Y-108804990D02*
X129745001Y-119850587D01*
G04 #@! TO.N,IO13*
X144194990Y-112071990D02*
X143320000Y-111197000D01*
X144194990Y-113976990D02*
X144194990Y-112071990D01*
X145770000Y-114752000D02*
X144970000Y-114752000D01*
X144970000Y-114752000D02*
X144194990Y-113976990D01*
G04 #@! TO.N,P1*
X143230000Y-123825000D02*
X141007991Y-126047009D01*
X144730000Y-123825000D02*
X143230000Y-123825000D01*
X141007991Y-138392009D02*
X137603010Y-141796990D01*
X141007991Y-126047009D02*
X141007991Y-138392009D01*
G04 #@! TO.N,IO33*
X145019439Y-106647000D02*
X144450000Y-106647000D01*
X153840000Y-110380000D02*
X153840000Y-109753971D01*
X144450000Y-106647000D02*
X144450000Y-107747000D01*
X144700000Y-107997000D02*
X146120000Y-107997000D01*
X144450000Y-107747000D02*
X144700000Y-107997000D01*
G04 #@! TO.N,IO32*
X155110000Y-110380000D02*
X155110000Y-109580000D01*
X153755011Y-108272011D02*
X154880000Y-109397000D01*
X154880000Y-109397000D02*
X154880000Y-110197000D01*
X148615011Y-108272011D02*
X153755011Y-108272011D01*
X146990000Y-106647000D02*
X148615011Y-108272011D01*
G04 #@! TO.N,IO35*
X156380000Y-110380000D02*
X156380000Y-108880000D01*
X156150000Y-109397000D02*
X156150000Y-110197000D01*
X154575001Y-107822001D02*
X156150000Y-109397000D01*
X150705001Y-107822001D02*
X154575001Y-107822001D01*
X149530000Y-106647000D02*
X150705001Y-107822001D01*
G04 #@! TO.N,IO34*
X157420000Y-108697000D02*
X157420000Y-110197000D01*
X155819400Y-108429990D02*
X157152990Y-108429990D01*
X157152990Y-108429990D02*
X157420000Y-108697000D01*
X154036410Y-106647000D02*
X155819400Y-108429990D01*
X152070000Y-106647000D02*
X154036410Y-106647000D01*
G04 #@! TO.N,Net-(C11-Pad1)*
X158820000Y-106647000D02*
X161070000Y-106647000D01*
X161070000Y-106647000D02*
X161070000Y-107522000D01*
X161230000Y-107682000D02*
X161230000Y-110197000D01*
X161070000Y-107522000D02*
X161230000Y-107682000D01*
G04 #@! TO.N,P2*
X147490000Y-110380000D02*
X147490000Y-109753971D01*
X115570000Y-142240000D02*
X115570000Y-134620000D01*
X116320000Y-141490000D02*
X115970010Y-141839990D01*
X116320000Y-129597000D02*
X116320000Y-141490000D01*
X147260000Y-110197000D02*
X140034998Y-110197000D01*
X121320000Y-124597000D02*
X116320000Y-129597000D01*
X140034998Y-110197000D02*
X132970010Y-117261988D01*
X132970010Y-117261988D02*
X132970010Y-122929990D01*
X131303000Y-124597000D02*
X121320000Y-124597000D01*
X132970010Y-122929990D02*
X131303000Y-124597000D01*
G04 #@! TO.N,VDDA*
X108870000Y-115697000D02*
X108870000Y-116947000D01*
X108870000Y-116947000D02*
X110970000Y-116947000D01*
X96860000Y-111307000D02*
X96410000Y-111307000D01*
X98670000Y-109497000D02*
X96860000Y-111307000D01*
X98670000Y-104997000D02*
X98670000Y-109497000D01*
X98845001Y-106147000D02*
X104530001Y-106147000D01*
X105945000Y-120147000D02*
X106070000Y-120147000D01*
X105020000Y-119222000D02*
X105945000Y-120147000D01*
X105020000Y-117297000D02*
X105020000Y-119222000D01*
X111220000Y-106647000D02*
X111320000Y-106647000D01*
X109720000Y-105147000D02*
X111220000Y-106647000D01*
X105530001Y-105147000D02*
X109720000Y-105147000D01*
X104530001Y-106147000D02*
X105530001Y-105147000D01*
X111320000Y-113997000D02*
X110120000Y-115197000D01*
X111320000Y-106647000D02*
X111320000Y-113997000D01*
X105020000Y-117047000D02*
X105020000Y-117297000D01*
X106870000Y-115197000D02*
X105020000Y-117047000D01*
X110120000Y-115197000D02*
X106870000Y-115197000D01*
X98670000Y-105971999D02*
X98670000Y-104997000D01*
X98845001Y-106147000D02*
X98670000Y-105971999D01*
G04 #@! TO.N,VBUS*
X96570000Y-117889000D02*
X96406000Y-117725000D01*
X94867000Y-117725000D02*
X95590000Y-117725000D01*
X92445000Y-120147000D02*
X94867000Y-117725000D01*
X92320000Y-120147000D02*
X92445000Y-120147000D01*
X90960000Y-111857000D02*
X90960000Y-111307000D01*
X90460000Y-112357000D02*
X90960000Y-111857000D01*
X86020000Y-112357000D02*
X90460000Y-112357000D01*
X95305999Y-117440999D02*
X95590000Y-117725000D01*
X95305999Y-116554997D02*
X95305999Y-117440999D01*
X91108002Y-112357000D02*
X95305999Y-116554997D01*
X90460000Y-112357000D02*
X91108002Y-112357000D01*
X95590000Y-117725000D02*
X96406000Y-117725000D01*
X90960000Y-111307000D02*
X89980000Y-111307000D01*
X89980000Y-111307000D02*
X89820000Y-111147000D01*
X89320000Y-105147000D02*
X89070000Y-104897000D01*
X89820000Y-105147000D02*
X89320000Y-105147000D01*
G04 #@! TO.N,Net-(C15-Pad1)*
X96638000Y-114147000D02*
X96406000Y-113915000D01*
X97820000Y-114304000D02*
X97820000Y-120147000D01*
X97431000Y-113915000D02*
X97820000Y-114304000D01*
X96406000Y-113915000D02*
X97431000Y-113915000D01*
G04 #@! TO.N,Net-(J10-Pad2)*
X90531000Y-115185000D02*
X91006000Y-115185000D01*
X86020000Y-113007000D02*
X88437998Y-113007000D01*
X88437998Y-113007000D02*
X89981000Y-114550002D01*
X89981000Y-114550002D02*
X89981000Y-114635000D01*
X89981000Y-114635000D02*
X90531000Y-115185000D01*
G04 #@! TO.N,Net-(R2-Pad1)*
X91410000Y-108767000D02*
X90960000Y-108767000D01*
G04 #@! TO.N,Net-(J10-Pad3)*
X87170000Y-113657000D02*
X88460000Y-114947000D01*
X86020000Y-113657000D02*
X87170000Y-113657000D01*
X88460000Y-114947000D02*
X89150000Y-114947000D01*
X89150000Y-114947000D02*
X89240000Y-114857000D01*
G04 #@! TO.N,Net-(LS1-Pad1)*
X139820000Y-103397000D02*
X139820000Y-105380000D01*
X139820000Y-105380000D02*
X130895000Y-114305000D01*
G04 #@! TO.N,Net-(U1-Pad37)*
X162730000Y-128380000D02*
X162814000Y-128296000D01*
X162814000Y-128296000D02*
X162814000Y-125984000D01*
G04 #@! TO.N,Net-(U1-Pad36)*
X161460000Y-128380000D02*
X161376000Y-128464000D01*
G04 #@! TO.N,Net-(C14-Pad1)*
X86570000Y-104897000D02*
X84820000Y-104897000D01*
G04 #@! TD*
D36*
G04 #@! TO.N,VSS*
G36*
X82155659Y-94866765D02*
X82489388Y-95005000D01*
X82850612Y-95005000D01*
X83095064Y-94903745D01*
X83320000Y-94948487D01*
X83612000Y-94948487D01*
X83612001Y-95870576D01*
X83199061Y-95870576D01*
X82975595Y-95963139D01*
X82804562Y-96134172D01*
X82712000Y-96357638D01*
X82712000Y-96672576D01*
X82864000Y-96824576D01*
X83612001Y-96824576D01*
X83612001Y-97132576D01*
X82864000Y-97132576D01*
X82712000Y-97284576D01*
X82712000Y-97599514D01*
X82804562Y-97822980D01*
X82975595Y-97994013D01*
X83199061Y-98086576D01*
X83630538Y-98086576D01*
X83650178Y-98185314D01*
X83795609Y-98402967D01*
X84013262Y-98548398D01*
X84205197Y-98586576D01*
X84270000Y-98599466D01*
X84334803Y-98586576D01*
X86762000Y-98586576D01*
X86762000Y-98995000D01*
X86914000Y-99147000D01*
X87966000Y-99147000D01*
X87966000Y-99127000D01*
X88274000Y-99127000D01*
X88274000Y-99147000D01*
X88294000Y-99147000D01*
X88294000Y-99455000D01*
X88274000Y-99455000D01*
X88274000Y-100382000D01*
X88426000Y-100534000D01*
X88990939Y-100534000D01*
X89214405Y-100441437D01*
X89375517Y-100280325D01*
X89431657Y-100364343D01*
X89632770Y-100498723D01*
X89870000Y-100545911D01*
X91370000Y-100545911D01*
X91607230Y-100498723D01*
X91808343Y-100364343D01*
X91942723Y-100163230D01*
X91989911Y-99926000D01*
X91989911Y-99607000D01*
X95162000Y-99607000D01*
X95162000Y-100046938D01*
X95254562Y-100270404D01*
X95425595Y-100441437D01*
X95649061Y-100534000D01*
X96214000Y-100534000D01*
X96366000Y-100382000D01*
X96366000Y-99455000D01*
X95314000Y-99455000D01*
X95162000Y-99607000D01*
X91989911Y-99607000D01*
X91989911Y-98676000D01*
X91942723Y-98438770D01*
X91808343Y-98237657D01*
X91607230Y-98103277D01*
X91370000Y-98056089D01*
X90874891Y-98056089D01*
X91008343Y-97966919D01*
X91142723Y-97765806D01*
X91157127Y-97693391D01*
X91209562Y-97819980D01*
X91380595Y-97991013D01*
X91604061Y-98083576D01*
X92035538Y-98083576D01*
X92055178Y-98182314D01*
X92200609Y-98399967D01*
X92418262Y-98545398D01*
X92610197Y-98583576D01*
X92675000Y-98596466D01*
X92739803Y-98583576D01*
X95162000Y-98583576D01*
X95162000Y-98995000D01*
X95314000Y-99147000D01*
X96366000Y-99147000D01*
X96366000Y-99127000D01*
X96674000Y-99127000D01*
X96674000Y-99147000D01*
X96694000Y-99147000D01*
X96694000Y-99455000D01*
X96674000Y-99455000D01*
X96674000Y-100382000D01*
X96826000Y-100534000D01*
X97390939Y-100534000D01*
X97614405Y-100441437D01*
X97775517Y-100280325D01*
X97831657Y-100364343D01*
X98032770Y-100498723D01*
X98270000Y-100545911D01*
X99770000Y-100545911D01*
X100007230Y-100498723D01*
X100208343Y-100364343D01*
X100342723Y-100163230D01*
X100389911Y-99926000D01*
X100389911Y-99607000D01*
X103962000Y-99607000D01*
X103962000Y-100046938D01*
X104054562Y-100270404D01*
X104225595Y-100441437D01*
X104449061Y-100534000D01*
X105014000Y-100534000D01*
X105166000Y-100382000D01*
X105166000Y-99455000D01*
X104114000Y-99455000D01*
X103962000Y-99607000D01*
X100389911Y-99607000D01*
X100389911Y-98676000D01*
X100342723Y-98438770D01*
X100208343Y-98237657D01*
X100007230Y-98103277D01*
X99770000Y-98056089D01*
X99275401Y-98056089D01*
X99413343Y-97963919D01*
X99547723Y-97762806D01*
X99594911Y-97525576D01*
X99594911Y-96942283D01*
X100007000Y-96530194D01*
X100007000Y-96669576D01*
X100159000Y-96821576D01*
X100907001Y-96821576D01*
X100907001Y-97129576D01*
X100159000Y-97129576D01*
X100007000Y-97281576D01*
X100007000Y-97596514D01*
X100099562Y-97819980D01*
X100270595Y-97991013D01*
X100494061Y-98083576D01*
X100925538Y-98083576D01*
X100945178Y-98182314D01*
X101090609Y-98399967D01*
X101308262Y-98545398D01*
X101500197Y-98583576D01*
X101565000Y-98596466D01*
X101629803Y-98583576D01*
X103962000Y-98583576D01*
X103962000Y-98995000D01*
X104114000Y-99147000D01*
X105166000Y-99147000D01*
X105166000Y-99127000D01*
X105474000Y-99127000D01*
X105474000Y-99147000D01*
X105494000Y-99147000D01*
X105494000Y-99455000D01*
X105474000Y-99455000D01*
X105474000Y-100382000D01*
X105626000Y-100534000D01*
X106190939Y-100534000D01*
X106414405Y-100441437D01*
X106575517Y-100280325D01*
X106631657Y-100364343D01*
X106832770Y-100498723D01*
X107070000Y-100545911D01*
X108570000Y-100545911D01*
X108807230Y-100498723D01*
X109008343Y-100364343D01*
X109142723Y-100163230D01*
X109189911Y-99926000D01*
X109189911Y-99607000D01*
X112962000Y-99607000D01*
X112962000Y-100046938D01*
X113054562Y-100270404D01*
X113225595Y-100441437D01*
X113449061Y-100534000D01*
X114014000Y-100534000D01*
X114166000Y-100382000D01*
X114166000Y-99455000D01*
X113114000Y-99455000D01*
X112962000Y-99607000D01*
X109189911Y-99607000D01*
X109189911Y-98676000D01*
X109142723Y-98438770D01*
X109008343Y-98237657D01*
X108807230Y-98103277D01*
X108570000Y-98056089D01*
X108165401Y-98056089D01*
X108303343Y-97963919D01*
X108437723Y-97762806D01*
X108484911Y-97525576D01*
X108484911Y-96942283D01*
X108897000Y-96530194D01*
X108897000Y-96669576D01*
X109049000Y-96821576D01*
X109797001Y-96821576D01*
X109797001Y-97129576D01*
X109049000Y-97129576D01*
X108897000Y-97281576D01*
X108897000Y-97596514D01*
X108989562Y-97819980D01*
X109160595Y-97991013D01*
X109384061Y-98083576D01*
X109815538Y-98083576D01*
X109835178Y-98182314D01*
X109980609Y-98399967D01*
X110198262Y-98545398D01*
X110390197Y-98583576D01*
X110455000Y-98596466D01*
X110519803Y-98583576D01*
X112962000Y-98583576D01*
X112962000Y-98995000D01*
X113114000Y-99147000D01*
X114166000Y-99147000D01*
X114166000Y-99127000D01*
X114474000Y-99127000D01*
X114474000Y-99147000D01*
X114494000Y-99147000D01*
X114494000Y-99455000D01*
X114474000Y-99455000D01*
X114474000Y-100382000D01*
X114626000Y-100534000D01*
X115190939Y-100534000D01*
X115414405Y-100441437D01*
X115575517Y-100280325D01*
X115631657Y-100364343D01*
X115832770Y-100498723D01*
X116070000Y-100545911D01*
X117570000Y-100545911D01*
X117807230Y-100498723D01*
X118008343Y-100364343D01*
X118142723Y-100163230D01*
X118189911Y-99926000D01*
X118189911Y-99607000D01*
X121762000Y-99607000D01*
X121762000Y-100046938D01*
X121854562Y-100270404D01*
X122025595Y-100441437D01*
X122249061Y-100534000D01*
X122814000Y-100534000D01*
X122966000Y-100382000D01*
X122966000Y-99455000D01*
X121914000Y-99455000D01*
X121762000Y-99607000D01*
X118189911Y-99607000D01*
X118189911Y-98676000D01*
X118142723Y-98438770D01*
X118008343Y-98237657D01*
X117807230Y-98103277D01*
X117570000Y-98056089D01*
X117055401Y-98056089D01*
X117193343Y-97963919D01*
X117327723Y-97762806D01*
X117374911Y-97525576D01*
X117374911Y-96942283D01*
X117787000Y-96530194D01*
X117787000Y-96669576D01*
X117939000Y-96821576D01*
X118687001Y-96821576D01*
X118687001Y-97129576D01*
X117939000Y-97129576D01*
X117787000Y-97281576D01*
X117787000Y-97596514D01*
X117879562Y-97819980D01*
X118050595Y-97991013D01*
X118274061Y-98083576D01*
X118705538Y-98083576D01*
X118725178Y-98182314D01*
X118870609Y-98399967D01*
X119088262Y-98545398D01*
X119280197Y-98583576D01*
X119345000Y-98596466D01*
X119409803Y-98583576D01*
X121762000Y-98583576D01*
X121762000Y-98995000D01*
X121914000Y-99147000D01*
X122966000Y-99147000D01*
X122966000Y-99127000D01*
X123274000Y-99127000D01*
X123274000Y-99147000D01*
X123294000Y-99147000D01*
X123294000Y-99455000D01*
X123274000Y-99455000D01*
X123274000Y-100382000D01*
X123426000Y-100534000D01*
X123990939Y-100534000D01*
X124214405Y-100441437D01*
X124375517Y-100280325D01*
X124431657Y-100364343D01*
X124632770Y-100498723D01*
X124870000Y-100545911D01*
X126370000Y-100545911D01*
X126607230Y-100498723D01*
X126808343Y-100364343D01*
X126942723Y-100163230D01*
X126989911Y-99926000D01*
X126989911Y-99607000D01*
X130562000Y-99607000D01*
X130562000Y-100046938D01*
X130654562Y-100270404D01*
X130825595Y-100441437D01*
X131049061Y-100534000D01*
X131614000Y-100534000D01*
X131766000Y-100382000D01*
X131766000Y-99455000D01*
X130714000Y-99455000D01*
X130562000Y-99607000D01*
X126989911Y-99607000D01*
X126989911Y-98676000D01*
X126942723Y-98438770D01*
X126808343Y-98237657D01*
X126607230Y-98103277D01*
X126370000Y-98056089D01*
X125945401Y-98056089D01*
X126083343Y-97963919D01*
X126217723Y-97762806D01*
X126264911Y-97525576D01*
X126264911Y-96942283D01*
X126677000Y-96530194D01*
X126677000Y-96669576D01*
X126829000Y-96821576D01*
X127577001Y-96821576D01*
X127577001Y-97129576D01*
X126829000Y-97129576D01*
X126677000Y-97281576D01*
X126677000Y-97596514D01*
X126769562Y-97819980D01*
X126940595Y-97991013D01*
X127164061Y-98083576D01*
X127595538Y-98083576D01*
X127615178Y-98182314D01*
X127760609Y-98399967D01*
X127978262Y-98545398D01*
X128170197Y-98583576D01*
X128235000Y-98596466D01*
X128299803Y-98583576D01*
X130562000Y-98583576D01*
X130562000Y-98995000D01*
X130714000Y-99147000D01*
X131766000Y-99147000D01*
X131766000Y-99127000D01*
X132074000Y-99127000D01*
X132074000Y-99147000D01*
X132094000Y-99147000D01*
X132094000Y-99455000D01*
X132074000Y-99455000D01*
X132074000Y-100382000D01*
X132226000Y-100534000D01*
X132790939Y-100534000D01*
X133014405Y-100441437D01*
X133175517Y-100280325D01*
X133231657Y-100364343D01*
X133432770Y-100498723D01*
X133670000Y-100545911D01*
X135170000Y-100545911D01*
X135407230Y-100498723D01*
X135608343Y-100364343D01*
X135742723Y-100163230D01*
X135789911Y-99926000D01*
X135789911Y-99607000D01*
X139562000Y-99607000D01*
X139562000Y-100046938D01*
X139654562Y-100270404D01*
X139825595Y-100441437D01*
X140049061Y-100534000D01*
X140614000Y-100534000D01*
X140766000Y-100382000D01*
X140766000Y-99455000D01*
X139714000Y-99455000D01*
X139562000Y-99607000D01*
X135789911Y-99607000D01*
X135789911Y-98676000D01*
X135742723Y-98438770D01*
X135608343Y-98237657D01*
X135407230Y-98103277D01*
X135170000Y-98056089D01*
X134835401Y-98056089D01*
X134973343Y-97963919D01*
X135107723Y-97762806D01*
X135154911Y-97525576D01*
X135154911Y-96942283D01*
X135567000Y-96530194D01*
X135567000Y-96669576D01*
X135719000Y-96821576D01*
X136467001Y-96821576D01*
X136467001Y-97129576D01*
X135719000Y-97129576D01*
X135567000Y-97281576D01*
X135567000Y-97596514D01*
X135659562Y-97819980D01*
X135830595Y-97991013D01*
X136054061Y-98083576D01*
X136485538Y-98083576D01*
X136505178Y-98182314D01*
X136650609Y-98399967D01*
X136868262Y-98545398D01*
X137060197Y-98583576D01*
X137125000Y-98596466D01*
X137189803Y-98583576D01*
X139562000Y-98583576D01*
X139562000Y-98995000D01*
X139714000Y-99147000D01*
X140766000Y-99147000D01*
X140766000Y-99127000D01*
X141074000Y-99127000D01*
X141074000Y-99147000D01*
X141094000Y-99147000D01*
X141094000Y-99455000D01*
X141074000Y-99455000D01*
X141074000Y-100382000D01*
X141226000Y-100534000D01*
X141790939Y-100534000D01*
X142014405Y-100441437D01*
X142175517Y-100280325D01*
X142231657Y-100364343D01*
X142432770Y-100498723D01*
X142670000Y-100545911D01*
X144170000Y-100545911D01*
X144407230Y-100498723D01*
X144608343Y-100364343D01*
X144742723Y-100163230D01*
X144789911Y-99926000D01*
X144789911Y-99607000D01*
X148562000Y-99607000D01*
X148562000Y-100046938D01*
X148654562Y-100270404D01*
X148825595Y-100441437D01*
X149049061Y-100534000D01*
X149614000Y-100534000D01*
X149766000Y-100382000D01*
X149766000Y-99455000D01*
X148714000Y-99455000D01*
X148562000Y-99607000D01*
X144789911Y-99607000D01*
X144789911Y-98676000D01*
X144742723Y-98438770D01*
X144608343Y-98237657D01*
X144407230Y-98103277D01*
X144170000Y-98056089D01*
X143725401Y-98056089D01*
X143863343Y-97963919D01*
X143997723Y-97762806D01*
X144044911Y-97525576D01*
X144044911Y-96942283D01*
X144457000Y-96530194D01*
X144457000Y-96669576D01*
X144609000Y-96821576D01*
X145357001Y-96821576D01*
X145357001Y-97129576D01*
X144609000Y-97129576D01*
X144457000Y-97281576D01*
X144457000Y-97596514D01*
X144549562Y-97819980D01*
X144720595Y-97991013D01*
X144944061Y-98083576D01*
X145375538Y-98083576D01*
X145395178Y-98182314D01*
X145540609Y-98399967D01*
X145758262Y-98545398D01*
X145950197Y-98583576D01*
X146015000Y-98596466D01*
X146079803Y-98583576D01*
X148562000Y-98583576D01*
X148562000Y-98995000D01*
X148714000Y-99147000D01*
X149766000Y-99147000D01*
X149766000Y-99127000D01*
X150074000Y-99127000D01*
X150074000Y-99147000D01*
X150094000Y-99147000D01*
X150094000Y-99455000D01*
X150074000Y-99455000D01*
X150074000Y-100382000D01*
X150226000Y-100534000D01*
X150790939Y-100534000D01*
X151014405Y-100441437D01*
X151175517Y-100280325D01*
X151231657Y-100364343D01*
X151432770Y-100498723D01*
X151670000Y-100545911D01*
X153170000Y-100545911D01*
X153407230Y-100498723D01*
X153608343Y-100364343D01*
X153742723Y-100163230D01*
X153789911Y-99926000D01*
X153789911Y-99607000D01*
X157362000Y-99607000D01*
X157362000Y-100046938D01*
X157454562Y-100270404D01*
X157625595Y-100441437D01*
X157849061Y-100534000D01*
X158414000Y-100534000D01*
X158566000Y-100382000D01*
X158566000Y-99455000D01*
X157514000Y-99455000D01*
X157362000Y-99607000D01*
X153789911Y-99607000D01*
X153789911Y-98676000D01*
X153742723Y-98438770D01*
X153608343Y-98237657D01*
X153407230Y-98103277D01*
X153170000Y-98056089D01*
X152615401Y-98056089D01*
X152753343Y-97963919D01*
X152887723Y-97762806D01*
X152934911Y-97525576D01*
X152934911Y-96942283D01*
X153347000Y-96530194D01*
X153347000Y-96669576D01*
X153499000Y-96821576D01*
X154247001Y-96821576D01*
X154247001Y-97129576D01*
X153499000Y-97129576D01*
X153347000Y-97281576D01*
X153347000Y-97596514D01*
X153439562Y-97819980D01*
X153610595Y-97991013D01*
X153834061Y-98083576D01*
X154265538Y-98083576D01*
X154285178Y-98182314D01*
X154430609Y-98399967D01*
X154648262Y-98545398D01*
X154840197Y-98583576D01*
X154905000Y-98596466D01*
X154969803Y-98583576D01*
X157362000Y-98583576D01*
X157362000Y-98995000D01*
X157514000Y-99147000D01*
X158566000Y-99147000D01*
X158566000Y-99127000D01*
X158874000Y-99127000D01*
X158874000Y-99147000D01*
X158894000Y-99147000D01*
X158894000Y-99455000D01*
X158874000Y-99455000D01*
X158874000Y-100382000D01*
X159026000Y-100534000D01*
X159590939Y-100534000D01*
X159814405Y-100441437D01*
X159975517Y-100280325D01*
X160031657Y-100364343D01*
X160232770Y-100498723D01*
X160470000Y-100545911D01*
X161970000Y-100545911D01*
X162207230Y-100498723D01*
X162408343Y-100364343D01*
X162542723Y-100163230D01*
X162589911Y-99926000D01*
X162589911Y-99503000D01*
X165762000Y-99503000D01*
X165762000Y-99942938D01*
X165854562Y-100166404D01*
X166025595Y-100337437D01*
X166249061Y-100430000D01*
X166814000Y-100430000D01*
X166966000Y-100278000D01*
X166966000Y-99351000D01*
X165914000Y-99351000D01*
X165762000Y-99503000D01*
X162589911Y-99503000D01*
X162589911Y-98676000D01*
X162542723Y-98438770D01*
X162408343Y-98237657D01*
X162207230Y-98103277D01*
X161970000Y-98056089D01*
X161505401Y-98056089D01*
X161643343Y-97963919D01*
X161777723Y-97762806D01*
X161794078Y-97680582D01*
X161937000Y-97585085D01*
X161937000Y-97624514D01*
X162029562Y-97847980D01*
X162200595Y-98019013D01*
X162424061Y-98111576D01*
X162855538Y-98111576D01*
X162875178Y-98210314D01*
X163020609Y-98427967D01*
X163238262Y-98573398D01*
X163430197Y-98611576D01*
X163495000Y-98624466D01*
X163559803Y-98611576D01*
X165762000Y-98611576D01*
X165762000Y-98891000D01*
X165914000Y-99043000D01*
X166966000Y-99043000D01*
X166966000Y-99023000D01*
X167274000Y-99023000D01*
X167274000Y-99043000D01*
X167294000Y-99043000D01*
X167294000Y-99351000D01*
X167274000Y-99351000D01*
X167274000Y-100278000D01*
X167426000Y-100430000D01*
X167990939Y-100430000D01*
X168214405Y-100337437D01*
X168375517Y-100176325D01*
X168431657Y-100260343D01*
X168632770Y-100394723D01*
X168870000Y-100441911D01*
X170370000Y-100441911D01*
X170607230Y-100394723D01*
X170808343Y-100260343D01*
X170837000Y-100217455D01*
X170837000Y-110297000D01*
X165320000Y-110297000D01*
X165281732Y-110304612D01*
X165249289Y-110326289D01*
X165227612Y-110358732D01*
X165220000Y-110397000D01*
X165220000Y-128397000D01*
X165227612Y-128435268D01*
X165249289Y-128467711D01*
X165281732Y-128489388D01*
X165320000Y-128497000D01*
X170837001Y-128497000D01*
X170837001Y-130594469D01*
X170654197Y-130153141D01*
X170201859Y-129700803D01*
X169610851Y-129456000D01*
X168971149Y-129456000D01*
X168793290Y-129529672D01*
X168535356Y-129271738D01*
X168494462Y-129210536D01*
X168252001Y-129048528D01*
X168038192Y-129005999D01*
X168038187Y-129005999D01*
X167965999Y-128991640D01*
X167893811Y-129005999D01*
X164828000Y-129005999D01*
X164828000Y-128351000D01*
X163924000Y-128351000D01*
X163924000Y-128371000D01*
X163616000Y-128371000D01*
X163616000Y-128351000D01*
X163596000Y-128351000D01*
X163596000Y-128043000D01*
X163616000Y-128043000D01*
X163616000Y-126504184D01*
X163924000Y-126504184D01*
X163924000Y-128043000D01*
X164828000Y-128043000D01*
X164828000Y-127243000D01*
X164688531Y-126849843D01*
X164409224Y-126539986D01*
X164085849Y-126387246D01*
X163924000Y-126504184D01*
X163616000Y-126504184D01*
X163589327Y-126484913D01*
X163722000Y-126164612D01*
X163722000Y-125803388D01*
X163583765Y-125469659D01*
X163328341Y-125214235D01*
X162994612Y-125076000D01*
X162633388Y-125076000D01*
X162299659Y-125214235D01*
X162044235Y-125469659D01*
X161906000Y-125803388D01*
X161906000Y-126164612D01*
X162021767Y-126444099D01*
X161865000Y-126548848D01*
X161642810Y-126400386D01*
X161230000Y-126318273D01*
X160817189Y-126400386D01*
X160595000Y-126548848D01*
X160372810Y-126400386D01*
X159960000Y-126318273D01*
X159547189Y-126400386D01*
X159325000Y-126548848D01*
X159102810Y-126400386D01*
X158690000Y-126318273D01*
X158277189Y-126400386D01*
X158055000Y-126548848D01*
X157832810Y-126400386D01*
X157420000Y-126318273D01*
X157007189Y-126400386D01*
X156785000Y-126548848D01*
X156562810Y-126400386D01*
X156150000Y-126318273D01*
X155737189Y-126400386D01*
X155515000Y-126548848D01*
X155292810Y-126400386D01*
X154880000Y-126318273D01*
X154467189Y-126400386D01*
X154245000Y-126548848D01*
X154022810Y-126400386D01*
X153610000Y-126318273D01*
X153197189Y-126400386D01*
X152975000Y-126548848D01*
X152752810Y-126400386D01*
X152340000Y-126318273D01*
X151927189Y-126400386D01*
X151705000Y-126548848D01*
X151482810Y-126400386D01*
X151070000Y-126318273D01*
X150657189Y-126400386D01*
X150435000Y-126548848D01*
X150212810Y-126400386D01*
X149800000Y-126318273D01*
X149764878Y-126325259D01*
X149219346Y-125779728D01*
X149178452Y-125718526D01*
X148935991Y-125556518D01*
X148722182Y-125513989D01*
X148722177Y-125513989D01*
X148649989Y-125499630D01*
X148577801Y-125513989D01*
X147444601Y-125513989D01*
X147579754Y-125227849D01*
X147462816Y-125066000D01*
X145924000Y-125066000D01*
X145924000Y-125086000D01*
X145616000Y-125086000D01*
X145616000Y-125066000D01*
X144077184Y-125066000D01*
X143960246Y-125227849D01*
X144095399Y-125513989D01*
X142671106Y-125513989D01*
X142634341Y-125477224D01*
X142620237Y-125471382D01*
X143533619Y-124558000D01*
X143978266Y-124558000D01*
X143960246Y-124596151D01*
X144077184Y-124758000D01*
X145616000Y-124758000D01*
X145616000Y-124738000D01*
X145924000Y-124738000D01*
X145924000Y-124758000D01*
X147462816Y-124758000D01*
X147579754Y-124596151D01*
X147427014Y-124272776D01*
X147423244Y-124269378D01*
X147566614Y-124054811D01*
X147648727Y-123642000D01*
X147566614Y-123229189D01*
X147418152Y-123007000D01*
X147566614Y-122784811D01*
X147648727Y-122372000D01*
X147566614Y-121959189D01*
X147418152Y-121737000D01*
X147566614Y-121514811D01*
X147648727Y-121102000D01*
X147566614Y-120689189D01*
X147418152Y-120467000D01*
X147566614Y-120244811D01*
X147648727Y-119832000D01*
X147566614Y-119419189D01*
X147422162Y-119203000D01*
X152462000Y-119203000D01*
X152462000Y-122017939D01*
X152554563Y-122241405D01*
X152725596Y-122412438D01*
X152949062Y-122505000D01*
X155764000Y-122505000D01*
X155916000Y-122353000D01*
X155916000Y-119051000D01*
X156224000Y-119051000D01*
X156224000Y-122353000D01*
X156376000Y-122505000D01*
X159190938Y-122505000D01*
X159414404Y-122412438D01*
X159585437Y-122241405D01*
X159678000Y-122017939D01*
X159678000Y-119203000D01*
X159526000Y-119051000D01*
X156224000Y-119051000D01*
X155916000Y-119051000D01*
X152614000Y-119051000D01*
X152462000Y-119203000D01*
X147422162Y-119203000D01*
X147418152Y-119197000D01*
X147566614Y-118974811D01*
X147648727Y-118562000D01*
X147566614Y-118149189D01*
X147418152Y-117927000D01*
X147566614Y-117704811D01*
X147648727Y-117292000D01*
X147566614Y-116879189D01*
X147418152Y-116657000D01*
X147566614Y-116434811D01*
X147648727Y-116022000D01*
X147599807Y-115776061D01*
X152462000Y-115776061D01*
X152462000Y-118591000D01*
X152614000Y-118743000D01*
X155916000Y-118743000D01*
X155916000Y-115441000D01*
X156224000Y-115441000D01*
X156224000Y-118743000D01*
X159526000Y-118743000D01*
X159678000Y-118591000D01*
X159678000Y-115776061D01*
X159585437Y-115552595D01*
X159414404Y-115381562D01*
X159190938Y-115289000D01*
X156376000Y-115289000D01*
X156224000Y-115441000D01*
X155916000Y-115441000D01*
X155764000Y-115289000D01*
X152949062Y-115289000D01*
X152725596Y-115381562D01*
X152554563Y-115552595D01*
X152462000Y-115776061D01*
X147599807Y-115776061D01*
X147566614Y-115609189D01*
X147418152Y-115387000D01*
X147566614Y-115164811D01*
X147648727Y-114752000D01*
X147566614Y-114339189D01*
X147423244Y-114124622D01*
X147427014Y-114121224D01*
X147579754Y-113797849D01*
X147462816Y-113636000D01*
X145924000Y-113636000D01*
X145924000Y-113656000D01*
X145616000Y-113656000D01*
X145616000Y-113636000D01*
X145596000Y-113636000D01*
X145596000Y-113328000D01*
X145616000Y-113328000D01*
X145616000Y-112424000D01*
X145924000Y-112424000D01*
X145924000Y-113328000D01*
X147462816Y-113328000D01*
X147579754Y-113166151D01*
X147427014Y-112842776D01*
X147117157Y-112563469D01*
X146724000Y-112424000D01*
X145924000Y-112424000D01*
X145616000Y-112424000D01*
X144927990Y-112424000D01*
X144927990Y-112144178D01*
X144942349Y-112071990D01*
X144927990Y-111999802D01*
X144927990Y-111999797D01*
X144885461Y-111785988D01*
X144723453Y-111543527D01*
X144662251Y-111502633D01*
X144228000Y-111068382D01*
X144228000Y-111016388D01*
X144192217Y-110930000D01*
X146202000Y-110930000D01*
X146202000Y-111101202D01*
X146263387Y-111409811D01*
X146497226Y-111759775D01*
X146847190Y-111993614D01*
X147260000Y-112075727D01*
X147672811Y-111993614D01*
X147895001Y-111845151D01*
X148117190Y-111993614D01*
X148530000Y-112075727D01*
X148942811Y-111993614D01*
X149165001Y-111845151D01*
X149387190Y-111993614D01*
X149800000Y-112075727D01*
X150212811Y-111993614D01*
X150435001Y-111845151D01*
X150657190Y-111993614D01*
X151070000Y-112075727D01*
X151482811Y-111993614D01*
X151705001Y-111845151D01*
X151927190Y-111993614D01*
X152340000Y-112075727D01*
X152752811Y-111993614D01*
X152975001Y-111845151D01*
X153197190Y-111993614D01*
X153610000Y-112075727D01*
X154022811Y-111993614D01*
X154245001Y-111845151D01*
X154467190Y-111993614D01*
X154880000Y-112075727D01*
X155292811Y-111993614D01*
X155515001Y-111845151D01*
X155737190Y-111993614D01*
X156150000Y-112075727D01*
X156562811Y-111993614D01*
X156785001Y-111845151D01*
X157007190Y-111993614D01*
X157420000Y-112075727D01*
X157832811Y-111993614D01*
X158055001Y-111845151D01*
X158277190Y-111993614D01*
X158690000Y-112075727D01*
X159102811Y-111993614D01*
X159325001Y-111845151D01*
X159547190Y-111993614D01*
X159960000Y-112075727D01*
X160372811Y-111993614D01*
X160595001Y-111845151D01*
X160817190Y-111993614D01*
X161230000Y-112075727D01*
X161642811Y-111993614D01*
X161865001Y-111845151D01*
X162087190Y-111993614D01*
X162500000Y-112075727D01*
X162912811Y-111993614D01*
X163127378Y-111850244D01*
X163130776Y-111854014D01*
X163454151Y-112006754D01*
X163616000Y-111889816D01*
X163616000Y-110351000D01*
X163924000Y-110351000D01*
X163924000Y-111889816D01*
X164085849Y-112006754D01*
X164409224Y-111854014D01*
X164688531Y-111544157D01*
X164828000Y-111151000D01*
X164828000Y-110351000D01*
X163924000Y-110351000D01*
X163616000Y-110351000D01*
X163596000Y-110351000D01*
X163596000Y-110043000D01*
X163616000Y-110043000D01*
X163616000Y-110023000D01*
X163924000Y-110023000D01*
X163924000Y-110043000D01*
X164828000Y-110043000D01*
X164828000Y-110021855D01*
X164949061Y-110072000D01*
X165514000Y-110072000D01*
X165666000Y-109920000D01*
X165666000Y-108993000D01*
X165646000Y-108993000D01*
X165646000Y-108685000D01*
X165666000Y-108685000D01*
X165666000Y-108665000D01*
X165974000Y-108665000D01*
X165974000Y-108685000D01*
X165994000Y-108685000D01*
X165994000Y-108993000D01*
X165974000Y-108993000D01*
X165974000Y-109920000D01*
X166126000Y-110072000D01*
X166690939Y-110072000D01*
X166914405Y-109979437D01*
X167075517Y-109818325D01*
X167131657Y-109902343D01*
X167332770Y-110036723D01*
X167570000Y-110083911D01*
X169070000Y-110083911D01*
X169307230Y-110036723D01*
X169508343Y-109902343D01*
X169642723Y-109701230D01*
X169689911Y-109464000D01*
X169689911Y-108214000D01*
X169642723Y-107976770D01*
X169508343Y-107775657D01*
X169459469Y-107743000D01*
X169508343Y-107710343D01*
X169642723Y-107509230D01*
X169689911Y-107272000D01*
X169689911Y-106022000D01*
X169642723Y-105784770D01*
X169508343Y-105583657D01*
X169307230Y-105449277D01*
X169070000Y-105402089D01*
X169018644Y-105402089D01*
X169010471Y-105360998D01*
X168978000Y-105312402D01*
X168978000Y-105216388D01*
X168839765Y-104882659D01*
X168584341Y-104627235D01*
X168250612Y-104489000D01*
X167899132Y-104489000D01*
X167940080Y-104480168D01*
X167958368Y-104478313D01*
X167964957Y-104478883D01*
X167970720Y-104477060D01*
X168025726Y-104471480D01*
X168077292Y-104455673D01*
X168132845Y-104425770D01*
X168192999Y-104406740D01*
X168322849Y-104335339D01*
X168390044Y-104278846D01*
X168462820Y-104229759D01*
X168580509Y-104111044D01*
X168617309Y-104055447D01*
X168663257Y-104007131D01*
X168772929Y-103833718D01*
X168788643Y-103792910D01*
X168814002Y-103757285D01*
X168919808Y-103521791D01*
X168925884Y-103495356D01*
X168939619Y-103471974D01*
X169045705Y-103167017D01*
X169047980Y-103150688D01*
X169055567Y-103136047D01*
X169166081Y-102754241D01*
X169166479Y-102749586D01*
X169168565Y-102745410D01*
X169183966Y-102689058D01*
X169239396Y-102496960D01*
X169264037Y-102418940D01*
X169379108Y-102374072D01*
X169425123Y-102356760D01*
X169437145Y-102349286D01*
X169450995Y-102346349D01*
X169629011Y-102269962D01*
X169670528Y-102241456D01*
X169717434Y-102223133D01*
X169819888Y-102157644D01*
X169843333Y-102135132D01*
X169872197Y-102120201D01*
X169928931Y-102052941D01*
X169992413Y-101991986D01*
X170005458Y-101962217D01*
X170026412Y-101937375D01*
X170059349Y-101877704D01*
X170077713Y-101819980D01*
X170106948Y-101766935D01*
X170113615Y-101707130D01*
X170131860Y-101649779D01*
X170126736Y-101589422D01*
X170133446Y-101529227D01*
X170116718Y-101471420D01*
X170111627Y-101411456D01*
X170083797Y-101357657D01*
X170066960Y-101299473D01*
X170036428Y-101240544D01*
X169981993Y-101172450D01*
X169935196Y-101098901D01*
X169907898Y-101079763D01*
X169887080Y-101053722D01*
X169810733Y-101011645D01*
X169739349Y-100961600D01*
X169718205Y-100952282D01*
X169692760Y-100946626D01*
X169677606Y-100938274D01*
X169671667Y-100937612D01*
X169655066Y-100928514D01*
X169569115Y-100919141D01*
X169484723Y-100900381D01*
X169451168Y-100906278D01*
X169417295Y-100902584D01*
X169332292Y-100910060D01*
X169276274Y-100926416D01*
X169218107Y-100931142D01*
X169069677Y-100973411D01*
X169050708Y-100983137D01*
X169029629Y-100986317D01*
X168811627Y-101064927D01*
X168806647Y-101067929D01*
X168800915Y-101068903D01*
X168372766Y-101232371D01*
X168335978Y-101255490D01*
X168294592Y-101268707D01*
X168235633Y-101318551D01*
X168170255Y-101359637D01*
X168145115Y-101395075D01*
X168111937Y-101423123D01*
X168076537Y-101491741D01*
X168031863Y-101554714D01*
X168022198Y-101597071D01*
X168002278Y-101635684D01*
X167923108Y-101911076D01*
X167923096Y-101911223D01*
X167923027Y-101911356D01*
X167912114Y-101949386D01*
X167912073Y-101949880D01*
X167911845Y-101950324D01*
X167858195Y-102138410D01*
X167858156Y-102138890D01*
X167857938Y-102139316D01*
X167795705Y-102358769D01*
X167795670Y-102359208D01*
X167795470Y-102359600D01*
X167736657Y-102568111D01*
X167681595Y-102757605D01*
X167661706Y-102818330D01*
X167654433Y-102810045D01*
X167578424Y-102751781D01*
X167507275Y-102687694D01*
X167451632Y-102654576D01*
X167392400Y-102633588D01*
X167338140Y-102601888D01*
X167310238Y-102598068D01*
X167288812Y-102587770D01*
X167258320Y-102586080D01*
X167226185Y-102574694D01*
X167163431Y-102577971D01*
X167101170Y-102569448D01*
X167099198Y-102569567D01*
X167074988Y-102575921D01*
X167049997Y-102574536D01*
X167018646Y-102585533D01*
X166987330Y-102587168D01*
X166932465Y-102613325D01*
X166867852Y-102630282D01*
X166847917Y-102645416D01*
X166824297Y-102653701D01*
X166767223Y-102687425D01*
X166720358Y-102729370D01*
X166666479Y-102761812D01*
X166576305Y-102843875D01*
X166560120Y-102865791D01*
X166538104Y-102881839D01*
X166433436Y-102995423D01*
X166431504Y-102998586D01*
X166428534Y-103000806D01*
X166403068Y-103029109D01*
X166393301Y-103037251D01*
X166393050Y-102958656D01*
X166395509Y-102746865D01*
X166402760Y-102483861D01*
X166413452Y-102237422D01*
X166426355Y-102039839D01*
X166436859Y-101905099D01*
X166435615Y-101894658D01*
X166438119Y-101884445D01*
X166444665Y-101735897D01*
X166439585Y-101702799D01*
X166443999Y-101669601D01*
X166437526Y-101568856D01*
X166420414Y-101504665D01*
X166414832Y-101438470D01*
X166393341Y-101363868D01*
X166362096Y-101303386D01*
X166341598Y-101238475D01*
X166303091Y-101168360D01*
X166287056Y-101149267D01*
X166277663Y-101126171D01*
X166270282Y-101114969D01*
X166224810Y-101068907D01*
X166188428Y-101015378D01*
X166052496Y-100881575D01*
X165973242Y-100829520D01*
X165898550Y-100771128D01*
X165715487Y-100678787D01*
X165628467Y-100654626D01*
X165544217Y-100622127D01*
X165345778Y-100587693D01*
X165300940Y-100588793D01*
X165288883Y-100584812D01*
X165258659Y-100587046D01*
X165206013Y-100579665D01*
X165178967Y-100581210D01*
X165133852Y-100592894D01*
X165106669Y-100593561D01*
X165093898Y-100599222D01*
X165050352Y-100602440D01*
X164903829Y-100643010D01*
X164850600Y-100669813D01*
X164793122Y-100685569D01*
X164628218Y-100768074D01*
X164592432Y-100795862D01*
X164550955Y-100814107D01*
X164398414Y-100920893D01*
X164357473Y-100963651D01*
X164308842Y-100997415D01*
X164199407Y-101110825D01*
X164167028Y-101161206D01*
X164125375Y-101204233D01*
X164087202Y-101263420D01*
X164081183Y-101278645D01*
X164070430Y-101290992D01*
X164037415Y-101389359D01*
X163999269Y-101485850D01*
X163999535Y-101502220D01*
X163994325Y-101517742D01*
X163988046Y-101566734D01*
X163991385Y-101615134D01*
X163983347Y-101662972D01*
X163999539Y-101733321D01*
X164004508Y-101805348D01*
X164026114Y-101848785D01*
X164036995Y-101896058D01*
X164078878Y-101954859D01*
X164111031Y-102019498D01*
X164147613Y-102051358D01*
X164175758Y-102090872D01*
X164223212Y-102135572D01*
X164257750Y-102157186D01*
X164276836Y-102179528D01*
X164287150Y-102184782D01*
X164297509Y-102195366D01*
X164310274Y-102204095D01*
X164380842Y-102234216D01*
X164425964Y-102262454D01*
X164446355Y-102265880D01*
X164489959Y-102288092D01*
X164542175Y-102302813D01*
X164645008Y-102310895D01*
X164747237Y-102324586D01*
X164763671Y-102320222D01*
X164780621Y-102321554D01*
X164878707Y-102289673D01*
X164978405Y-102263197D01*
X164987389Y-102258792D01*
X164955095Y-102558591D01*
X164956909Y-102578913D01*
X164952099Y-102598745D01*
X164935979Y-102985964D01*
X164940854Y-103017214D01*
X164936572Y-103048549D01*
X164955778Y-103365406D01*
X164968001Y-103411937D01*
X164968974Y-103460037D01*
X165024017Y-103710213D01*
X165053262Y-103776967D01*
X165071845Y-103847436D01*
X165163234Y-104034620D01*
X165224727Y-104115420D01*
X165281261Y-104199763D01*
X165409508Y-104327638D01*
X165463325Y-104363484D01*
X165509756Y-104408490D01*
X165551666Y-104435558D01*
X165591697Y-104451413D01*
X165626474Y-104476788D01*
X165722135Y-104521125D01*
X165809085Y-104542187D01*
X165893502Y-104571837D01*
X166002567Y-104587365D01*
X166058320Y-104584300D01*
X166113477Y-104592995D01*
X166270919Y-104586696D01*
X166291435Y-104581755D01*
X166312452Y-104583618D01*
X166426957Y-104571210D01*
X166468411Y-104558192D01*
X166511805Y-104555918D01*
X166724599Y-104501877D01*
X166797209Y-104467245D01*
X166873693Y-104442321D01*
X167057016Y-104339450D01*
X167103691Y-104299517D01*
X167125402Y-104315483D01*
X167204840Y-104352663D01*
X167279898Y-104398034D01*
X167463703Y-104464579D01*
X167573224Y-104481245D01*
X167682235Y-104501112D01*
X167855925Y-104498319D01*
X167878802Y-104493385D01*
X167555659Y-104627235D01*
X167300235Y-104882659D01*
X167162000Y-105216388D01*
X167162000Y-105563382D01*
X167131657Y-105583657D01*
X167075517Y-105667675D01*
X166914405Y-105506563D01*
X166690939Y-105414000D01*
X166126000Y-105414000D01*
X165974000Y-105566000D01*
X165974000Y-106493000D01*
X165994000Y-106493000D01*
X165994000Y-106801000D01*
X165974000Y-106801000D01*
X165974000Y-106821000D01*
X165666000Y-106821000D01*
X165666000Y-106801000D01*
X163724000Y-106801000D01*
X163724000Y-106821000D01*
X163416000Y-106821000D01*
X163416000Y-106801000D01*
X163396000Y-106801000D01*
X163396000Y-106493000D01*
X163416000Y-106493000D01*
X163416000Y-105566000D01*
X163724000Y-105566000D01*
X163724000Y-106493000D01*
X165666000Y-106493000D01*
X165666000Y-105566000D01*
X165514000Y-105414000D01*
X164949061Y-105414000D01*
X164725595Y-105506563D01*
X164695000Y-105537158D01*
X164664405Y-105506563D01*
X164440939Y-105414000D01*
X163876000Y-105414000D01*
X163724000Y-105566000D01*
X163416000Y-105566000D01*
X163264000Y-105414000D01*
X162699061Y-105414000D01*
X162475595Y-105506563D01*
X162314483Y-105667675D01*
X162258343Y-105583657D01*
X162057230Y-105449277D01*
X161820000Y-105402089D01*
X160320000Y-105402089D01*
X160082770Y-105449277D01*
X159963707Y-105528832D01*
X159807230Y-105424277D01*
X159570000Y-105377089D01*
X158070000Y-105377089D01*
X157832770Y-105424277D01*
X157631657Y-105558657D01*
X157497277Y-105759770D01*
X157470000Y-105896901D01*
X157442723Y-105759770D01*
X157308343Y-105558657D01*
X157107230Y-105424277D01*
X156870000Y-105377089D01*
X155370000Y-105377089D01*
X155132770Y-105424277D01*
X154931657Y-105558657D01*
X154797277Y-105759770D01*
X154750089Y-105997000D01*
X154750089Y-106324061D01*
X154605766Y-106179738D01*
X154564873Y-106118537D01*
X154322412Y-105956529D01*
X154108603Y-105914000D01*
X154108598Y-105914000D01*
X154036410Y-105899641D01*
X153964222Y-105914000D01*
X153333746Y-105914000D01*
X153121159Y-105595841D01*
X152638883Y-105273595D01*
X152213596Y-105189000D01*
X151926404Y-105189000D01*
X151501117Y-105273595D01*
X151018841Y-105595841D01*
X150800000Y-105923360D01*
X150581159Y-105595841D01*
X150098883Y-105273595D01*
X149673596Y-105189000D01*
X149386404Y-105189000D01*
X148961117Y-105273595D01*
X148478841Y-105595841D01*
X148260000Y-105923360D01*
X148041159Y-105595841D01*
X147558883Y-105273595D01*
X147133596Y-105189000D01*
X146846404Y-105189000D01*
X146421117Y-105273595D01*
X145938841Y-105595841D01*
X145893420Y-105663819D01*
X145872723Y-105559770D01*
X145738343Y-105358657D01*
X145537230Y-105224277D01*
X145300000Y-105177089D01*
X143600000Y-105177089D01*
X143362770Y-105224277D01*
X143161657Y-105358657D01*
X143027277Y-105559770D01*
X142980089Y-105797000D01*
X142980089Y-107497000D01*
X143027277Y-107734230D01*
X143161657Y-107935343D01*
X143362770Y-108069723D01*
X143374167Y-108071990D01*
X140862785Y-108071990D01*
X140790597Y-108057631D01*
X140718409Y-108071990D01*
X140718405Y-108071990D01*
X140504596Y-108114519D01*
X140477476Y-108132640D01*
X140323336Y-108235633D01*
X140323334Y-108235635D01*
X140262135Y-108276527D01*
X140221243Y-108337726D01*
X130028000Y-118530970D01*
X130028000Y-115503000D01*
X129876000Y-115351000D01*
X125574000Y-115351000D01*
X125574000Y-120653000D01*
X125726000Y-120805000D01*
X128390380Y-120805000D01*
X128032382Y-121162998D01*
X114396190Y-121162998D01*
X114324002Y-121148639D01*
X114251814Y-121162998D01*
X114251809Y-121162998D01*
X114038000Y-121205527D01*
X113795539Y-121367535D01*
X113754645Y-121428737D01*
X111502741Y-123680641D01*
X111502738Y-123680643D01*
X103486381Y-131697000D01*
X96246986Y-131697000D01*
X96090062Y-131632000D01*
X91869938Y-131632000D01*
X91713014Y-131697000D01*
X82003000Y-131697000D01*
X82003000Y-130642904D01*
X83671885Y-130642904D01*
X83804966Y-130924783D01*
X84499045Y-131178593D01*
X85237420Y-131147470D01*
X85775034Y-130924783D01*
X85908115Y-130642904D01*
X84790000Y-129524789D01*
X83671885Y-130642904D01*
X82003000Y-130642904D01*
X82003000Y-129016045D01*
X82918407Y-129016045D01*
X82949530Y-129754420D01*
X83172217Y-130292034D01*
X83454096Y-130425115D01*
X84572211Y-129307000D01*
X85007789Y-129307000D01*
X86125904Y-130425115D01*
X86407783Y-130292034D01*
X86661593Y-129597955D01*
X86633754Y-128937484D01*
X86742320Y-128937484D01*
X86742320Y-129676516D01*
X87025135Y-130359291D01*
X87547709Y-130881865D01*
X88230484Y-131164680D01*
X88969516Y-131164680D01*
X89652291Y-130881865D01*
X90174865Y-130359291D01*
X90457680Y-129676516D01*
X90457680Y-128937484D01*
X90174865Y-128254709D01*
X89652291Y-127732135D01*
X88969516Y-127449320D01*
X88230484Y-127449320D01*
X87547709Y-127732135D01*
X87025135Y-128254709D01*
X86742320Y-128937484D01*
X86633754Y-128937484D01*
X86630470Y-128859580D01*
X86407783Y-128321966D01*
X86125904Y-128188885D01*
X85007789Y-129307000D01*
X84572211Y-129307000D01*
X83454096Y-128188885D01*
X83172217Y-128321966D01*
X82918407Y-129016045D01*
X82003000Y-129016045D01*
X82003000Y-127971096D01*
X83671885Y-127971096D01*
X84790000Y-129089211D01*
X85908115Y-127971096D01*
X85775034Y-127689217D01*
X85080955Y-127435407D01*
X84342580Y-127466530D01*
X83804966Y-127689217D01*
X83671885Y-127971096D01*
X82003000Y-127971096D01*
X82003000Y-124827149D01*
X83212000Y-124827149D01*
X83212000Y-125466851D01*
X83456803Y-126057859D01*
X83909141Y-126510197D01*
X84500149Y-126755000D01*
X85139851Y-126755000D01*
X85730859Y-126510197D01*
X86183197Y-126057859D01*
X86428000Y-125466851D01*
X86428000Y-124827149D01*
X86183197Y-124236141D01*
X85730859Y-123783803D01*
X85139851Y-123539000D01*
X84500149Y-123539000D01*
X83909141Y-123783803D01*
X83456803Y-124236141D01*
X83212000Y-124827149D01*
X82003000Y-124827149D01*
X82003000Y-120953000D01*
X88462000Y-120953000D01*
X88462000Y-121392938D01*
X88554562Y-121616404D01*
X88725595Y-121787437D01*
X88949061Y-121880000D01*
X89514000Y-121880000D01*
X89666000Y-121728000D01*
X89666000Y-120801000D01*
X88614000Y-120801000D01*
X88462000Y-120953000D01*
X82003000Y-120953000D01*
X82003000Y-119901062D01*
X88462000Y-119901062D01*
X88462000Y-120341000D01*
X88614000Y-120493000D01*
X89666000Y-120493000D01*
X89666000Y-119566000D01*
X89514000Y-119414000D01*
X88949061Y-119414000D01*
X88725595Y-119506563D01*
X88554562Y-119677596D01*
X88462000Y-119901062D01*
X82003000Y-119901062D01*
X82003000Y-118769842D01*
X82155596Y-118922438D01*
X82379062Y-119015000D01*
X82944000Y-119015000D01*
X83096000Y-118863000D01*
X83096000Y-117886000D01*
X83404000Y-117886000D01*
X83404000Y-118863000D01*
X83556000Y-119015000D01*
X84120938Y-119015000D01*
X84344404Y-118922438D01*
X84515437Y-118751405D01*
X84608000Y-118527939D01*
X84608000Y-118038000D01*
X84456000Y-117886000D01*
X83404000Y-117886000D01*
X83096000Y-117886000D01*
X83076000Y-117886000D01*
X83076000Y-117578000D01*
X83096000Y-117578000D01*
X83096000Y-116601000D01*
X83404000Y-116601000D01*
X83404000Y-117578000D01*
X84456000Y-117578000D01*
X84608000Y-117426000D01*
X84608000Y-117213000D01*
X84612000Y-117213000D01*
X84612000Y-117777939D01*
X84704563Y-118001405D01*
X84875596Y-118172438D01*
X85099062Y-118265000D01*
X85614000Y-118265000D01*
X85766000Y-118113000D01*
X85766000Y-117061000D01*
X86074000Y-117061000D01*
X86074000Y-118113000D01*
X86226000Y-118265000D01*
X86740938Y-118265000D01*
X86964404Y-118172438D01*
X87135437Y-118001405D01*
X87228000Y-117777939D01*
X87228000Y-117425000D01*
X89611089Y-117425000D01*
X89611089Y-118025000D01*
X89658277Y-118262230D01*
X89792657Y-118463343D01*
X89993770Y-118597723D01*
X90231000Y-118644911D01*
X91781000Y-118644911D01*
X92018230Y-118597723D01*
X92219343Y-118463343D01*
X92353723Y-118262230D01*
X92400911Y-118025000D01*
X92400911Y-117425000D01*
X92353723Y-117187770D01*
X92295383Y-117100459D01*
X92296438Y-117099404D01*
X92389000Y-116875938D01*
X92389000Y-116757000D01*
X92237000Y-116605000D01*
X91160000Y-116605000D01*
X91160000Y-116629000D01*
X90852000Y-116629000D01*
X90852000Y-116605000D01*
X89775000Y-116605000D01*
X89623000Y-116757000D01*
X89623000Y-116875938D01*
X89715562Y-117099404D01*
X89716617Y-117100459D01*
X89658277Y-117187770D01*
X89611089Y-117425000D01*
X87228000Y-117425000D01*
X87228000Y-117213000D01*
X87076000Y-117061000D01*
X86074000Y-117061000D01*
X85766000Y-117061000D01*
X84764000Y-117061000D01*
X84612000Y-117213000D01*
X84608000Y-117213000D01*
X84608000Y-116936061D01*
X84515437Y-116712595D01*
X84344404Y-116541562D01*
X84120938Y-116449000D01*
X83556000Y-116449000D01*
X83404000Y-116601000D01*
X83096000Y-116601000D01*
X82944000Y-116449000D01*
X82379062Y-116449000D01*
X82155596Y-116541562D01*
X82003000Y-116694158D01*
X82003000Y-115311000D01*
X82224000Y-115311000D01*
X82224000Y-116163000D01*
X82376000Y-116315000D01*
X82690938Y-116315000D01*
X82914404Y-116222438D01*
X83085437Y-116051405D01*
X83178000Y-115827939D01*
X83178000Y-115463000D01*
X83026000Y-115311000D01*
X82224000Y-115311000D01*
X82003000Y-115311000D01*
X82003000Y-114151000D01*
X82224000Y-114151000D01*
X82224000Y-115003000D01*
X83026000Y-115003000D01*
X83178000Y-114851000D01*
X83178000Y-114486061D01*
X83085437Y-114262595D01*
X82914404Y-114091562D01*
X82690938Y-113999000D01*
X82376000Y-113999000D01*
X82224000Y-114151000D01*
X82003000Y-114151000D01*
X82003000Y-112311000D01*
X82224000Y-112311000D01*
X82224000Y-113163000D01*
X82376000Y-113315000D01*
X82690938Y-113315000D01*
X82914404Y-113222438D01*
X83085437Y-113051405D01*
X83178000Y-112827939D01*
X83178000Y-112463000D01*
X83026000Y-112311000D01*
X82224000Y-112311000D01*
X82003000Y-112311000D01*
X82003000Y-112157000D01*
X84600089Y-112157000D01*
X84600089Y-112557000D01*
X84624953Y-112682000D01*
X84600089Y-112807000D01*
X84600089Y-113207000D01*
X84624953Y-113332000D01*
X84600089Y-113457000D01*
X84600089Y-113857000D01*
X84624953Y-113982000D01*
X84600089Y-114107000D01*
X84600089Y-114507000D01*
X84621297Y-114613617D01*
X84612000Y-114636061D01*
X84612000Y-114705000D01*
X84646295Y-114739295D01*
X84647277Y-114744230D01*
X84781657Y-114945343D01*
X84893518Y-115020087D01*
X84856605Y-115057000D01*
X84764000Y-115057000D01*
X84612000Y-115209000D01*
X84612000Y-115277939D01*
X84655160Y-115382136D01*
X84612000Y-115486333D01*
X84612000Y-115827667D01*
X84655160Y-115931864D01*
X84612000Y-116036061D01*
X84612000Y-116601000D01*
X84764000Y-116753000D01*
X85766000Y-116753000D01*
X85766000Y-116733000D01*
X86074000Y-116733000D01*
X86074000Y-116753000D01*
X87076000Y-116753000D01*
X87228000Y-116601000D01*
X87228000Y-116036061D01*
X87135437Y-115812595D01*
X87087842Y-115765000D01*
X87140938Y-115765000D01*
X87364404Y-115672438D01*
X87535437Y-115501405D01*
X87628000Y-115277939D01*
X87628000Y-115209000D01*
X87530002Y-115111002D01*
X87587384Y-115111002D01*
X87890645Y-115414264D01*
X87931537Y-115475463D01*
X87992736Y-115516355D01*
X87992738Y-115516357D01*
X88173996Y-115637470D01*
X88173997Y-115637470D01*
X88173998Y-115637471D01*
X88387807Y-115680000D01*
X88387811Y-115680000D01*
X88459999Y-115694359D01*
X88532187Y-115680000D01*
X88854180Y-115680000D01*
X89059388Y-115765000D01*
X89420612Y-115765000D01*
X89648046Y-115670794D01*
X89658277Y-115722230D01*
X89716617Y-115809541D01*
X89715562Y-115810596D01*
X89623000Y-116034062D01*
X89623000Y-116153000D01*
X89775000Y-116305000D01*
X90852000Y-116305000D01*
X90852000Y-116281000D01*
X91160000Y-116281000D01*
X91160000Y-116305000D01*
X92237000Y-116305000D01*
X92389000Y-116153000D01*
X92389000Y-116034062D01*
X92296438Y-115810596D01*
X92295383Y-115809541D01*
X92353723Y-115722230D01*
X92400911Y-115485000D01*
X92400911Y-114885000D01*
X92353723Y-114647770D01*
X92336746Y-114622363D01*
X94572999Y-116858616D01*
X94573000Y-117039874D01*
X94399738Y-117155643D01*
X94399736Y-117155645D01*
X94338537Y-117196537D01*
X94297645Y-117257736D01*
X92153293Y-119402089D01*
X91570000Y-119402089D01*
X91332770Y-119449277D01*
X91131657Y-119583657D01*
X91075517Y-119667675D01*
X90914405Y-119506563D01*
X90690939Y-119414000D01*
X90126000Y-119414000D01*
X89974000Y-119566000D01*
X89974000Y-120493000D01*
X89994000Y-120493000D01*
X89994000Y-120801000D01*
X89974000Y-120801000D01*
X89974000Y-121728000D01*
X90126000Y-121880000D01*
X90690939Y-121880000D01*
X90914405Y-121787437D01*
X91075517Y-121626325D01*
X91131657Y-121710343D01*
X91332770Y-121844723D01*
X91570000Y-121891911D01*
X93070000Y-121891911D01*
X93307230Y-121844723D01*
X93508343Y-121710343D01*
X93642723Y-121509230D01*
X93689911Y-121272000D01*
X93689911Y-120953000D01*
X93962000Y-120953000D01*
X93962000Y-121392938D01*
X94054562Y-121616404D01*
X94225595Y-121787437D01*
X94449061Y-121880000D01*
X95014000Y-121880000D01*
X95166000Y-121728000D01*
X95166000Y-120801000D01*
X94114000Y-120801000D01*
X93962000Y-120953000D01*
X93689911Y-120953000D01*
X93689911Y-120022000D01*
X93676092Y-119952526D01*
X93727556Y-119901062D01*
X93962000Y-119901062D01*
X93962000Y-120341000D01*
X94114000Y-120493000D01*
X95166000Y-120493000D01*
X95166000Y-119566000D01*
X95014000Y-119414000D01*
X94449061Y-119414000D01*
X94225595Y-119506563D01*
X94054562Y-119677596D01*
X93962000Y-119901062D01*
X93727556Y-119901062D01*
X95170619Y-118458000D01*
X95189087Y-118458000D01*
X95192657Y-118463343D01*
X95393770Y-118597723D01*
X95631000Y-118644911D01*
X97087001Y-118644911D01*
X97087001Y-119402089D01*
X97070000Y-119402089D01*
X96832770Y-119449277D01*
X96631657Y-119583657D01*
X96575517Y-119667675D01*
X96414405Y-119506563D01*
X96190939Y-119414000D01*
X95626000Y-119414000D01*
X95474000Y-119566000D01*
X95474000Y-120493000D01*
X95494000Y-120493000D01*
X95494000Y-120801000D01*
X95474000Y-120801000D01*
X95474000Y-121728000D01*
X95626000Y-121880000D01*
X96190939Y-121880000D01*
X96414405Y-121787437D01*
X96575517Y-121626325D01*
X96631657Y-121710343D01*
X96832770Y-121844723D01*
X97070000Y-121891911D01*
X98570000Y-121891911D01*
X98807230Y-121844723D01*
X99008343Y-121710343D01*
X99142723Y-121509230D01*
X99189911Y-121272000D01*
X99189911Y-120953000D01*
X99712000Y-120953000D01*
X99712000Y-121392938D01*
X99804562Y-121616404D01*
X99975595Y-121787437D01*
X100199061Y-121880000D01*
X100764000Y-121880000D01*
X100916000Y-121728000D01*
X100916000Y-120801000D01*
X99864000Y-120801000D01*
X99712000Y-120953000D01*
X99189911Y-120953000D01*
X99189911Y-120022000D01*
X99165855Y-119901062D01*
X99712000Y-119901062D01*
X99712000Y-120341000D01*
X99864000Y-120493000D01*
X100916000Y-120493000D01*
X100916000Y-119566000D01*
X100764000Y-119414000D01*
X100199061Y-119414000D01*
X99975595Y-119506563D01*
X99804562Y-119677596D01*
X99712000Y-119901062D01*
X99165855Y-119901062D01*
X99142723Y-119784770D01*
X99008343Y-119583657D01*
X98807230Y-119449277D01*
X98570000Y-119402089D01*
X98553000Y-119402089D01*
X98553000Y-117603000D01*
X99062000Y-117603000D01*
X99062000Y-118417939D01*
X99154563Y-118641405D01*
X99325596Y-118812438D01*
X99549062Y-118905000D01*
X100114000Y-118905000D01*
X100266000Y-118753000D01*
X100266000Y-117451000D01*
X99214000Y-117451000D01*
X99062000Y-117603000D01*
X98553000Y-117603000D01*
X98553000Y-116176061D01*
X99062000Y-116176061D01*
X99062000Y-116991000D01*
X99214000Y-117143000D01*
X100266000Y-117143000D01*
X100266000Y-115841000D01*
X100114000Y-115689000D01*
X99549062Y-115689000D01*
X99325596Y-115781562D01*
X99154563Y-115952595D01*
X99062000Y-116176061D01*
X98553000Y-116176061D01*
X98553000Y-114376187D01*
X98567359Y-114303999D01*
X98553000Y-114231811D01*
X98553000Y-114231807D01*
X98510471Y-114017998D01*
X98348463Y-113775537D01*
X98287261Y-113734643D01*
X98000357Y-113447739D01*
X97959463Y-113386537D01*
X97717002Y-113224529D01*
X97641264Y-113209464D01*
X97619343Y-113176657D01*
X97418230Y-113042277D01*
X97181000Y-112995089D01*
X95631000Y-112995089D01*
X95393770Y-113042277D01*
X95192657Y-113176657D01*
X95058277Y-113377770D01*
X95011089Y-113615000D01*
X95011089Y-114215000D01*
X95058277Y-114452230D01*
X95123605Y-114550000D01*
X95058277Y-114647770D01*
X95011089Y-114885000D01*
X95011089Y-115223468D01*
X91959287Y-112171667D01*
X92148343Y-112045343D01*
X92282723Y-111844230D01*
X92329911Y-111607000D01*
X92329911Y-111089078D01*
X92489061Y-111155000D01*
X93404000Y-111155000D01*
X93556000Y-111003000D01*
X93556000Y-109601000D01*
X93536000Y-109601000D01*
X93536000Y-109293000D01*
X93556000Y-109293000D01*
X93556000Y-107891000D01*
X93864000Y-107891000D01*
X93864000Y-109293000D01*
X93884000Y-109293000D01*
X93884000Y-109601000D01*
X93864000Y-109601000D01*
X93864000Y-111003000D01*
X94016000Y-111155000D01*
X94930939Y-111155000D01*
X95040089Y-111109788D01*
X95040089Y-111607000D01*
X95087277Y-111844230D01*
X95221657Y-112045343D01*
X95422770Y-112179723D01*
X95660000Y-112226911D01*
X97160000Y-112226911D01*
X97397230Y-112179723D01*
X97598343Y-112045343D01*
X97732723Y-111844230D01*
X97779911Y-111607000D01*
X97779911Y-111423707D01*
X99137261Y-110066357D01*
X99198463Y-110025463D01*
X99217481Y-109997000D01*
X100200089Y-109997000D01*
X100200089Y-111997000D01*
X100247277Y-112234230D01*
X100381657Y-112435343D01*
X100582770Y-112569723D01*
X100820000Y-112616911D01*
X104620000Y-112616911D01*
X104857230Y-112569723D01*
X105058343Y-112435343D01*
X105192723Y-112234230D01*
X105239911Y-111997000D01*
X105239911Y-109997000D01*
X105192723Y-109759770D01*
X105058343Y-109558657D01*
X104857230Y-109424277D01*
X104620000Y-109377089D01*
X100820000Y-109377089D01*
X100582770Y-109424277D01*
X100381657Y-109558657D01*
X100247277Y-109759770D01*
X100200089Y-109997000D01*
X99217481Y-109997000D01*
X99360471Y-109783002D01*
X99403000Y-109569193D01*
X99403000Y-109569188D01*
X99417359Y-109497000D01*
X99403000Y-109424812D01*
X99403000Y-106880000D01*
X104457813Y-106880000D01*
X104530001Y-106894359D01*
X104602189Y-106880000D01*
X104602194Y-106880000D01*
X104816003Y-106837471D01*
X105058464Y-106675463D01*
X105099358Y-106614261D01*
X105833619Y-105880000D01*
X107273362Y-105880000D01*
X107250089Y-105997000D01*
X107250089Y-107297000D01*
X107297277Y-107534230D01*
X107431657Y-107735343D01*
X107632770Y-107869723D01*
X107870000Y-107916911D01*
X109370000Y-107916911D01*
X109607230Y-107869723D01*
X109808343Y-107735343D01*
X109942723Y-107534230D01*
X109970000Y-107397099D01*
X109997277Y-107534230D01*
X110131657Y-107735343D01*
X110332770Y-107869723D01*
X110570000Y-107916911D01*
X110587000Y-107916911D01*
X110587001Y-112027089D01*
X107570000Y-112027089D01*
X107332770Y-112074277D01*
X107131657Y-112208657D01*
X106997277Y-112409770D01*
X106950089Y-112647000D01*
X106950089Y-114464000D01*
X106942187Y-114464000D01*
X106869999Y-114449641D01*
X106797811Y-114464000D01*
X106797807Y-114464000D01*
X106583998Y-114506529D01*
X106533905Y-114540000D01*
X106402738Y-114627643D01*
X106402736Y-114627645D01*
X106341537Y-114668537D01*
X106300645Y-114729736D01*
X105353293Y-115677089D01*
X104270000Y-115677089D01*
X104032770Y-115724277D01*
X103870000Y-115833037D01*
X103707230Y-115724277D01*
X103470000Y-115677089D01*
X101970000Y-115677089D01*
X101732770Y-115724277D01*
X101567530Y-115834688D01*
X101514404Y-115781562D01*
X101290938Y-115689000D01*
X100726000Y-115689000D01*
X100574000Y-115841000D01*
X100574000Y-117143000D01*
X100594000Y-117143000D01*
X100594000Y-117451000D01*
X100574000Y-117451000D01*
X100574000Y-118753000D01*
X100726000Y-118905000D01*
X101290938Y-118905000D01*
X101514404Y-118812438D01*
X101567530Y-118759312D01*
X101732770Y-118869723D01*
X101970000Y-118916911D01*
X101987001Y-118916911D01*
X101987001Y-119224807D01*
X101972641Y-119297000D01*
X102000850Y-119438816D01*
X101940939Y-119414000D01*
X101376000Y-119414000D01*
X101224000Y-119566000D01*
X101224000Y-120493000D01*
X101244000Y-120493000D01*
X101244000Y-120801000D01*
X101224000Y-120801000D01*
X101224000Y-121728000D01*
X101376000Y-121880000D01*
X101940939Y-121880000D01*
X102164405Y-121787437D01*
X102325517Y-121626325D01*
X102381657Y-121710343D01*
X102582770Y-121844723D01*
X102820000Y-121891911D01*
X104320000Y-121891911D01*
X104557230Y-121844723D01*
X104758343Y-121710343D01*
X104820000Y-121618067D01*
X104881657Y-121710343D01*
X105082770Y-121844723D01*
X105320000Y-121891911D01*
X106820000Y-121891911D01*
X107057230Y-121844723D01*
X107258343Y-121710343D01*
X107314483Y-121626325D01*
X107475595Y-121787437D01*
X107699061Y-121880000D01*
X108264000Y-121880000D01*
X108416000Y-121728000D01*
X108416000Y-120801000D01*
X108724000Y-120801000D01*
X108724000Y-121728000D01*
X108876000Y-121880000D01*
X109440939Y-121880000D01*
X109664405Y-121787437D01*
X109835438Y-121616404D01*
X109928000Y-121392938D01*
X109928000Y-120953000D01*
X109776000Y-120801000D01*
X108724000Y-120801000D01*
X108416000Y-120801000D01*
X108396000Y-120801000D01*
X108396000Y-120493000D01*
X108416000Y-120493000D01*
X108416000Y-119566000D01*
X108724000Y-119566000D01*
X108724000Y-120493000D01*
X109776000Y-120493000D01*
X109928000Y-120341000D01*
X109928000Y-119901062D01*
X109835438Y-119677596D01*
X109664405Y-119506563D01*
X109440939Y-119414000D01*
X108876000Y-119414000D01*
X108724000Y-119566000D01*
X108416000Y-119566000D01*
X108264000Y-119414000D01*
X107699061Y-119414000D01*
X107475595Y-119506563D01*
X107314483Y-119667675D01*
X107258343Y-119583657D01*
X107057230Y-119449277D01*
X106820000Y-119402089D01*
X106236707Y-119402089D01*
X105753000Y-118918382D01*
X105753000Y-118916911D01*
X105770000Y-118916911D01*
X106007230Y-118869723D01*
X106208343Y-118735343D01*
X106342723Y-118534230D01*
X106389911Y-118297000D01*
X106389911Y-116713707D01*
X106950089Y-116153530D01*
X106950089Y-117747000D01*
X106997277Y-117984230D01*
X107131657Y-118185343D01*
X107332770Y-118319723D01*
X107570000Y-118366911D01*
X112670000Y-118366911D01*
X112907230Y-118319723D01*
X113108343Y-118185343D01*
X113242723Y-117984230D01*
X113289911Y-117747000D01*
X113289911Y-115503000D01*
X120812000Y-115503000D01*
X120812000Y-120317938D01*
X120904562Y-120541404D01*
X121075595Y-120712437D01*
X121299061Y-120805000D01*
X125114000Y-120805000D01*
X125266000Y-120653000D01*
X125266000Y-115351000D01*
X120964000Y-115351000D01*
X120812000Y-115503000D01*
X113289911Y-115503000D01*
X113289911Y-112647000D01*
X113242723Y-112409770D01*
X113108343Y-112208657D01*
X112907230Y-112074277D01*
X112670000Y-112027089D01*
X112053000Y-112027089D01*
X112053000Y-110076062D01*
X120812000Y-110076062D01*
X120812000Y-114891000D01*
X120964000Y-115043000D01*
X125266000Y-115043000D01*
X125266000Y-109741000D01*
X125574000Y-109741000D01*
X125574000Y-115043000D01*
X129876000Y-115043000D01*
X130028000Y-114891000D01*
X130028000Y-114584595D01*
X130125235Y-114819341D01*
X130380659Y-115074765D01*
X130714388Y-115213000D01*
X131075612Y-115213000D01*
X131409341Y-115074765D01*
X131664765Y-114819341D01*
X131803000Y-114485612D01*
X131803000Y-114433618D01*
X140287264Y-105949355D01*
X140348463Y-105908463D01*
X140389355Y-105847264D01*
X140389357Y-105847262D01*
X140476825Y-105716357D01*
X140510471Y-105666002D01*
X140553000Y-105452193D01*
X140553000Y-105452189D01*
X140567359Y-105380001D01*
X140553000Y-105307813D01*
X140553000Y-104666911D01*
X140570000Y-104666911D01*
X140807230Y-104619723D01*
X141008343Y-104485343D01*
X141142723Y-104284230D01*
X141170000Y-104147099D01*
X141197277Y-104284230D01*
X141331657Y-104485343D01*
X141532770Y-104619723D01*
X141770000Y-104666911D01*
X143270000Y-104666911D01*
X143507230Y-104619723D01*
X143708343Y-104485343D01*
X143842723Y-104284230D01*
X143889911Y-104047000D01*
X143889911Y-102747000D01*
X143842723Y-102509770D01*
X143708343Y-102308657D01*
X143507230Y-102174277D01*
X143270000Y-102127089D01*
X141770000Y-102127089D01*
X141532770Y-102174277D01*
X141331657Y-102308657D01*
X141197277Y-102509770D01*
X141170000Y-102646901D01*
X141142723Y-102509770D01*
X141008343Y-102308657D01*
X140807230Y-102174277D01*
X140570000Y-102127089D01*
X139070000Y-102127089D01*
X138832770Y-102174277D01*
X138631657Y-102308657D01*
X138497277Y-102509770D01*
X138450089Y-102747000D01*
X138450089Y-104047000D01*
X138497277Y-104284230D01*
X138631657Y-104485343D01*
X138832770Y-104619723D01*
X139070000Y-104666911D01*
X139087001Y-104666911D01*
X139087001Y-105076380D01*
X130766382Y-113397000D01*
X130714388Y-113397000D01*
X130380659Y-113535235D01*
X130125235Y-113790659D01*
X130028000Y-114025405D01*
X130028000Y-110076062D01*
X129935438Y-109852596D01*
X129764405Y-109681563D01*
X129540939Y-109589000D01*
X125726000Y-109589000D01*
X125574000Y-109741000D01*
X125266000Y-109741000D01*
X125114000Y-109589000D01*
X121299061Y-109589000D01*
X121075595Y-109681563D01*
X120904562Y-109852596D01*
X120812000Y-110076062D01*
X112053000Y-110076062D01*
X112053000Y-107916911D01*
X112070000Y-107916911D01*
X112307230Y-107869723D01*
X112508343Y-107735343D01*
X112642723Y-107534230D01*
X112689911Y-107297000D01*
X112689911Y-105997000D01*
X112642723Y-105759770D01*
X112508343Y-105558657D01*
X112307230Y-105424277D01*
X112070000Y-105377089D01*
X110986707Y-105377089D01*
X110289357Y-104679739D01*
X110248463Y-104618537D01*
X110006002Y-104456529D01*
X109792193Y-104414000D01*
X109792188Y-104414000D01*
X109720000Y-104399641D01*
X109647812Y-104414000D01*
X105602189Y-104414000D01*
X105530001Y-104399641D01*
X105457813Y-104414000D01*
X105457808Y-104414000D01*
X105243999Y-104456529D01*
X105001538Y-104618537D01*
X104960644Y-104679739D01*
X104226383Y-105414000D01*
X102528000Y-105414000D01*
X102528000Y-105303000D01*
X102376000Y-105151000D01*
X101324000Y-105151000D01*
X101324000Y-105171000D01*
X101016000Y-105171000D01*
X101016000Y-105151000D01*
X100996000Y-105151000D01*
X100996000Y-104843000D01*
X101016000Y-104843000D01*
X101016000Y-103916000D01*
X101324000Y-103916000D01*
X101324000Y-104843000D01*
X102376000Y-104843000D01*
X102528000Y-104691000D01*
X102528000Y-104251062D01*
X102435438Y-104027596D01*
X102264405Y-103856563D01*
X102040939Y-103764000D01*
X101476000Y-103764000D01*
X101324000Y-103916000D01*
X101016000Y-103916000D01*
X100864000Y-103764000D01*
X100299061Y-103764000D01*
X100075595Y-103856563D01*
X99914483Y-104017675D01*
X99858343Y-103933657D01*
X99657230Y-103799277D01*
X99420000Y-103752089D01*
X97920000Y-103752089D01*
X97682770Y-103799277D01*
X97481657Y-103933657D01*
X97347277Y-104134770D01*
X97300089Y-104372000D01*
X97300089Y-105622000D01*
X97347277Y-105859230D01*
X97481657Y-106060343D01*
X97682770Y-106194723D01*
X97920000Y-106241911D01*
X97937000Y-106241911D01*
X97937001Y-109193381D01*
X97691823Y-109438559D01*
X97667395Y-109402000D01*
X97732723Y-109304230D01*
X97779911Y-109067000D01*
X97779911Y-108467000D01*
X97732723Y-108229770D01*
X97667395Y-108132000D01*
X97732723Y-108034230D01*
X97779911Y-107797000D01*
X97779911Y-107197000D01*
X97732723Y-106959770D01*
X97598343Y-106758657D01*
X97397230Y-106624277D01*
X97160000Y-106577089D01*
X95660000Y-106577089D01*
X95422770Y-106624277D01*
X95221657Y-106758657D01*
X95087277Y-106959770D01*
X95040089Y-107197000D01*
X95040089Y-107784212D01*
X94930939Y-107739000D01*
X94016000Y-107739000D01*
X93864000Y-107891000D01*
X93556000Y-107891000D01*
X93404000Y-107739000D01*
X92489061Y-107739000D01*
X92328194Y-107805634D01*
X92329911Y-107797000D01*
X92329911Y-107197000D01*
X92282723Y-106959770D01*
X92148343Y-106758657D01*
X91947230Y-106624277D01*
X91710000Y-106577089D01*
X90210000Y-106577089D01*
X89972770Y-106624277D01*
X89771657Y-106758657D01*
X89637277Y-106959770D01*
X89590089Y-107197000D01*
X89590089Y-107797000D01*
X89637277Y-108034230D01*
X89702605Y-108132000D01*
X89637277Y-108229770D01*
X89590089Y-108467000D01*
X89590089Y-109067000D01*
X89637277Y-109304230D01*
X89695617Y-109391541D01*
X89694562Y-109392596D01*
X89602000Y-109616062D01*
X89602000Y-109735000D01*
X89754000Y-109887000D01*
X90806000Y-109887000D01*
X90806000Y-109863000D01*
X91114000Y-109863000D01*
X91114000Y-109887000D01*
X91134000Y-109887000D01*
X91134000Y-110187000D01*
X91114000Y-110187000D01*
X91114000Y-110211000D01*
X90806000Y-110211000D01*
X90806000Y-110187000D01*
X89754000Y-110187000D01*
X89702000Y-110239000D01*
X89639388Y-110239000D01*
X89305659Y-110377235D01*
X89050235Y-110632659D01*
X88912000Y-110966388D01*
X88912000Y-111327612D01*
X89034768Y-111624000D01*
X87316679Y-111624000D01*
X87257230Y-111584277D01*
X87086521Y-111550321D01*
X87135437Y-111501405D01*
X87228000Y-111277939D01*
X87228000Y-110713000D01*
X87076000Y-110561000D01*
X86074000Y-110561000D01*
X86074000Y-110581000D01*
X85766000Y-110581000D01*
X85766000Y-110561000D01*
X84764000Y-110561000D01*
X84612000Y-110713000D01*
X84612000Y-111277939D01*
X84655160Y-111382136D01*
X84612000Y-111486333D01*
X84612000Y-111827667D01*
X84649051Y-111917115D01*
X84647277Y-111919770D01*
X84600089Y-112157000D01*
X82003000Y-112157000D01*
X82003000Y-111151000D01*
X82224000Y-111151000D01*
X82224000Y-112003000D01*
X83026000Y-112003000D01*
X83178000Y-111851000D01*
X83178000Y-111486061D01*
X83085437Y-111262595D01*
X82914404Y-111091562D01*
X82690938Y-110999000D01*
X82376000Y-110999000D01*
X82224000Y-111151000D01*
X82003000Y-111151000D01*
X82003000Y-110619842D01*
X82155596Y-110772438D01*
X82379062Y-110865000D01*
X82944000Y-110865000D01*
X83096000Y-110713000D01*
X83096000Y-109736000D01*
X83404000Y-109736000D01*
X83404000Y-110713000D01*
X83556000Y-110865000D01*
X84120938Y-110865000D01*
X84344404Y-110772438D01*
X84515437Y-110601405D01*
X84608000Y-110377939D01*
X84608000Y-109888000D01*
X84456000Y-109736000D01*
X83404000Y-109736000D01*
X83096000Y-109736000D01*
X83076000Y-109736000D01*
X83076000Y-109536061D01*
X84612000Y-109536061D01*
X84612000Y-110101000D01*
X84764000Y-110253000D01*
X85766000Y-110253000D01*
X85766000Y-109201000D01*
X86074000Y-109201000D01*
X86074000Y-110253000D01*
X87076000Y-110253000D01*
X87228000Y-110101000D01*
X87228000Y-109536061D01*
X87135437Y-109312595D01*
X86964404Y-109141562D01*
X86740938Y-109049000D01*
X86226000Y-109049000D01*
X86074000Y-109201000D01*
X85766000Y-109201000D01*
X85614000Y-109049000D01*
X85099062Y-109049000D01*
X84875596Y-109141562D01*
X84704563Y-109312595D01*
X84612000Y-109536061D01*
X83076000Y-109536061D01*
X83076000Y-109428000D01*
X83096000Y-109428000D01*
X83096000Y-108451000D01*
X83404000Y-108451000D01*
X83404000Y-109428000D01*
X84456000Y-109428000D01*
X84608000Y-109276000D01*
X84608000Y-108786061D01*
X84515437Y-108562595D01*
X84344404Y-108391562D01*
X84120938Y-108299000D01*
X83556000Y-108299000D01*
X83404000Y-108451000D01*
X83096000Y-108451000D01*
X82944000Y-108299000D01*
X82379062Y-108299000D01*
X82155596Y-108391562D01*
X82003000Y-108544158D01*
X82003000Y-105766921D01*
X82054562Y-105891404D01*
X82225595Y-106062437D01*
X82449061Y-106155000D01*
X82614000Y-106155000D01*
X82766000Y-106003000D01*
X82766000Y-105051000D01*
X82746000Y-105051000D01*
X82746000Y-104743000D01*
X82766000Y-104743000D01*
X82766000Y-103791000D01*
X83074000Y-103791000D01*
X83074000Y-104743000D01*
X83094000Y-104743000D01*
X83094000Y-105051000D01*
X83074000Y-105051000D01*
X83074000Y-106003000D01*
X83226000Y-106155000D01*
X83390939Y-106155000D01*
X83614405Y-106062437D01*
X83785438Y-105891404D01*
X83875396Y-105674225D01*
X83897277Y-105784230D01*
X84031657Y-105985343D01*
X84232770Y-106119723D01*
X84470000Y-106166911D01*
X85170000Y-106166911D01*
X85407230Y-106119723D01*
X85513707Y-106048577D01*
X85582770Y-106094723D01*
X85820000Y-106141911D01*
X87320000Y-106141911D01*
X87557230Y-106094723D01*
X87758343Y-105960343D01*
X87820000Y-105868067D01*
X87881657Y-105960343D01*
X88082770Y-106094723D01*
X88320000Y-106141911D01*
X89820000Y-106141911D01*
X90057230Y-106094723D01*
X90258343Y-105960343D01*
X90269521Y-105943614D01*
X90334341Y-105916765D01*
X90589765Y-105661341D01*
X90728000Y-105327612D01*
X90728000Y-104966388D01*
X90589765Y-104632659D01*
X90439911Y-104482805D01*
X90439911Y-104347000D01*
X91750089Y-104347000D01*
X91750089Y-105647000D01*
X91797277Y-105884230D01*
X91931657Y-106085343D01*
X92132770Y-106219723D01*
X92370000Y-106266911D01*
X93870000Y-106266911D01*
X94107230Y-106219723D01*
X94308343Y-106085343D01*
X94442723Y-105884230D01*
X94464604Y-105774225D01*
X94554562Y-105991404D01*
X94725595Y-106162437D01*
X94949061Y-106255000D01*
X95514000Y-106255000D01*
X95666000Y-106103000D01*
X95666000Y-105151000D01*
X95974000Y-105151000D01*
X95974000Y-106103000D01*
X96126000Y-106255000D01*
X96690939Y-106255000D01*
X96914405Y-106162437D01*
X97085438Y-105991404D01*
X97178000Y-105767938D01*
X97178000Y-105303000D01*
X97026000Y-105151000D01*
X95974000Y-105151000D01*
X95666000Y-105151000D01*
X95646000Y-105151000D01*
X95646000Y-104843000D01*
X95666000Y-104843000D01*
X95666000Y-103891000D01*
X95974000Y-103891000D01*
X95974000Y-104843000D01*
X97026000Y-104843000D01*
X97178000Y-104691000D01*
X97178000Y-104226062D01*
X97085438Y-104002596D01*
X96914405Y-103831563D01*
X96690939Y-103739000D01*
X96126000Y-103739000D01*
X95974000Y-103891000D01*
X95666000Y-103891000D01*
X95514000Y-103739000D01*
X94949061Y-103739000D01*
X94725595Y-103831563D01*
X94554562Y-104002596D01*
X94464604Y-104219775D01*
X94442723Y-104109770D01*
X94308343Y-103908657D01*
X94107230Y-103774277D01*
X93870000Y-103727089D01*
X92370000Y-103727089D01*
X92132770Y-103774277D01*
X91931657Y-103908657D01*
X91797277Y-104109770D01*
X91750089Y-104347000D01*
X90439911Y-104347000D01*
X90439911Y-104272000D01*
X90392723Y-104034770D01*
X90258343Y-103833657D01*
X90057230Y-103699277D01*
X89820000Y-103652089D01*
X88320000Y-103652089D01*
X88082770Y-103699277D01*
X87881657Y-103833657D01*
X87820000Y-103925933D01*
X87758343Y-103833657D01*
X87557230Y-103699277D01*
X87320000Y-103652089D01*
X85820000Y-103652089D01*
X85582770Y-103699277D01*
X85513707Y-103745423D01*
X85407230Y-103674277D01*
X85170000Y-103627089D01*
X84470000Y-103627089D01*
X84232770Y-103674277D01*
X84031657Y-103808657D01*
X83897277Y-104009770D01*
X83875396Y-104119775D01*
X83785438Y-103902596D01*
X83614405Y-103731563D01*
X83390939Y-103639000D01*
X83226000Y-103639000D01*
X83074000Y-103791000D01*
X82766000Y-103791000D01*
X82614000Y-103639000D01*
X82449061Y-103639000D01*
X82225595Y-103731563D01*
X82054562Y-103902596D01*
X82003000Y-104027079D01*
X82003000Y-99607000D01*
X86762000Y-99607000D01*
X86762000Y-100046938D01*
X86854562Y-100270404D01*
X87025595Y-100441437D01*
X87249061Y-100534000D01*
X87814000Y-100534000D01*
X87966000Y-100382000D01*
X87966000Y-99455000D01*
X86914000Y-99455000D01*
X86762000Y-99607000D01*
X82003000Y-99607000D01*
X82003000Y-94714106D01*
X82155659Y-94866765D01*
X82155659Y-94866765D01*
G37*
X82155659Y-94866765D02*
X82489388Y-95005000D01*
X82850612Y-95005000D01*
X83095064Y-94903745D01*
X83320000Y-94948487D01*
X83612000Y-94948487D01*
X83612001Y-95870576D01*
X83199061Y-95870576D01*
X82975595Y-95963139D01*
X82804562Y-96134172D01*
X82712000Y-96357638D01*
X82712000Y-96672576D01*
X82864000Y-96824576D01*
X83612001Y-96824576D01*
X83612001Y-97132576D01*
X82864000Y-97132576D01*
X82712000Y-97284576D01*
X82712000Y-97599514D01*
X82804562Y-97822980D01*
X82975595Y-97994013D01*
X83199061Y-98086576D01*
X83630538Y-98086576D01*
X83650178Y-98185314D01*
X83795609Y-98402967D01*
X84013262Y-98548398D01*
X84205197Y-98586576D01*
X84270000Y-98599466D01*
X84334803Y-98586576D01*
X86762000Y-98586576D01*
X86762000Y-98995000D01*
X86914000Y-99147000D01*
X87966000Y-99147000D01*
X87966000Y-99127000D01*
X88274000Y-99127000D01*
X88274000Y-99147000D01*
X88294000Y-99147000D01*
X88294000Y-99455000D01*
X88274000Y-99455000D01*
X88274000Y-100382000D01*
X88426000Y-100534000D01*
X88990939Y-100534000D01*
X89214405Y-100441437D01*
X89375517Y-100280325D01*
X89431657Y-100364343D01*
X89632770Y-100498723D01*
X89870000Y-100545911D01*
X91370000Y-100545911D01*
X91607230Y-100498723D01*
X91808343Y-100364343D01*
X91942723Y-100163230D01*
X91989911Y-99926000D01*
X91989911Y-99607000D01*
X95162000Y-99607000D01*
X95162000Y-100046938D01*
X95254562Y-100270404D01*
X95425595Y-100441437D01*
X95649061Y-100534000D01*
X96214000Y-100534000D01*
X96366000Y-100382000D01*
X96366000Y-99455000D01*
X95314000Y-99455000D01*
X95162000Y-99607000D01*
X91989911Y-99607000D01*
X91989911Y-98676000D01*
X91942723Y-98438770D01*
X91808343Y-98237657D01*
X91607230Y-98103277D01*
X91370000Y-98056089D01*
X90874891Y-98056089D01*
X91008343Y-97966919D01*
X91142723Y-97765806D01*
X91157127Y-97693391D01*
X91209562Y-97819980D01*
X91380595Y-97991013D01*
X91604061Y-98083576D01*
X92035538Y-98083576D01*
X92055178Y-98182314D01*
X92200609Y-98399967D01*
X92418262Y-98545398D01*
X92610197Y-98583576D01*
X92675000Y-98596466D01*
X92739803Y-98583576D01*
X95162000Y-98583576D01*
X95162000Y-98995000D01*
X95314000Y-99147000D01*
X96366000Y-99147000D01*
X96366000Y-99127000D01*
X96674000Y-99127000D01*
X96674000Y-99147000D01*
X96694000Y-99147000D01*
X96694000Y-99455000D01*
X96674000Y-99455000D01*
X96674000Y-100382000D01*
X96826000Y-100534000D01*
X97390939Y-100534000D01*
X97614405Y-100441437D01*
X97775517Y-100280325D01*
X97831657Y-100364343D01*
X98032770Y-100498723D01*
X98270000Y-100545911D01*
X99770000Y-100545911D01*
X100007230Y-100498723D01*
X100208343Y-100364343D01*
X100342723Y-100163230D01*
X100389911Y-99926000D01*
X100389911Y-99607000D01*
X103962000Y-99607000D01*
X103962000Y-100046938D01*
X104054562Y-100270404D01*
X104225595Y-100441437D01*
X104449061Y-100534000D01*
X105014000Y-100534000D01*
X105166000Y-100382000D01*
X105166000Y-99455000D01*
X104114000Y-99455000D01*
X103962000Y-99607000D01*
X100389911Y-99607000D01*
X100389911Y-98676000D01*
X100342723Y-98438770D01*
X100208343Y-98237657D01*
X100007230Y-98103277D01*
X99770000Y-98056089D01*
X99275401Y-98056089D01*
X99413343Y-97963919D01*
X99547723Y-97762806D01*
X99594911Y-97525576D01*
X99594911Y-96942283D01*
X100007000Y-96530194D01*
X100007000Y-96669576D01*
X100159000Y-96821576D01*
X100907001Y-96821576D01*
X100907001Y-97129576D01*
X100159000Y-97129576D01*
X100007000Y-97281576D01*
X100007000Y-97596514D01*
X100099562Y-97819980D01*
X100270595Y-97991013D01*
X100494061Y-98083576D01*
X100925538Y-98083576D01*
X100945178Y-98182314D01*
X101090609Y-98399967D01*
X101308262Y-98545398D01*
X101500197Y-98583576D01*
X101565000Y-98596466D01*
X101629803Y-98583576D01*
X103962000Y-98583576D01*
X103962000Y-98995000D01*
X104114000Y-99147000D01*
X105166000Y-99147000D01*
X105166000Y-99127000D01*
X105474000Y-99127000D01*
X105474000Y-99147000D01*
X105494000Y-99147000D01*
X105494000Y-99455000D01*
X105474000Y-99455000D01*
X105474000Y-100382000D01*
X105626000Y-100534000D01*
X106190939Y-100534000D01*
X106414405Y-100441437D01*
X106575517Y-100280325D01*
X106631657Y-100364343D01*
X106832770Y-100498723D01*
X107070000Y-100545911D01*
X108570000Y-100545911D01*
X108807230Y-100498723D01*
X109008343Y-100364343D01*
X109142723Y-100163230D01*
X109189911Y-99926000D01*
X109189911Y-99607000D01*
X112962000Y-99607000D01*
X112962000Y-100046938D01*
X113054562Y-100270404D01*
X113225595Y-100441437D01*
X113449061Y-100534000D01*
X114014000Y-100534000D01*
X114166000Y-100382000D01*
X114166000Y-99455000D01*
X113114000Y-99455000D01*
X112962000Y-99607000D01*
X109189911Y-99607000D01*
X109189911Y-98676000D01*
X109142723Y-98438770D01*
X109008343Y-98237657D01*
X108807230Y-98103277D01*
X108570000Y-98056089D01*
X108165401Y-98056089D01*
X108303343Y-97963919D01*
X108437723Y-97762806D01*
X108484911Y-97525576D01*
X108484911Y-96942283D01*
X108897000Y-96530194D01*
X108897000Y-96669576D01*
X109049000Y-96821576D01*
X109797001Y-96821576D01*
X109797001Y-97129576D01*
X109049000Y-97129576D01*
X108897000Y-97281576D01*
X108897000Y-97596514D01*
X108989562Y-97819980D01*
X109160595Y-97991013D01*
X109384061Y-98083576D01*
X109815538Y-98083576D01*
X109835178Y-98182314D01*
X109980609Y-98399967D01*
X110198262Y-98545398D01*
X110390197Y-98583576D01*
X110455000Y-98596466D01*
X110519803Y-98583576D01*
X112962000Y-98583576D01*
X112962000Y-98995000D01*
X113114000Y-99147000D01*
X114166000Y-99147000D01*
X114166000Y-99127000D01*
X114474000Y-99127000D01*
X114474000Y-99147000D01*
X114494000Y-99147000D01*
X114494000Y-99455000D01*
X114474000Y-99455000D01*
X114474000Y-100382000D01*
X114626000Y-100534000D01*
X115190939Y-100534000D01*
X115414405Y-100441437D01*
X115575517Y-100280325D01*
X115631657Y-100364343D01*
X115832770Y-100498723D01*
X116070000Y-100545911D01*
X117570000Y-100545911D01*
X117807230Y-100498723D01*
X118008343Y-100364343D01*
X118142723Y-100163230D01*
X118189911Y-99926000D01*
X118189911Y-99607000D01*
X121762000Y-99607000D01*
X121762000Y-100046938D01*
X121854562Y-100270404D01*
X122025595Y-100441437D01*
X122249061Y-100534000D01*
X122814000Y-100534000D01*
X122966000Y-100382000D01*
X122966000Y-99455000D01*
X121914000Y-99455000D01*
X121762000Y-99607000D01*
X118189911Y-99607000D01*
X118189911Y-98676000D01*
X118142723Y-98438770D01*
X118008343Y-98237657D01*
X117807230Y-98103277D01*
X117570000Y-98056089D01*
X117055401Y-98056089D01*
X117193343Y-97963919D01*
X117327723Y-97762806D01*
X117374911Y-97525576D01*
X117374911Y-96942283D01*
X117787000Y-96530194D01*
X117787000Y-96669576D01*
X117939000Y-96821576D01*
X118687001Y-96821576D01*
X118687001Y-97129576D01*
X117939000Y-97129576D01*
X117787000Y-97281576D01*
X117787000Y-97596514D01*
X117879562Y-97819980D01*
X118050595Y-97991013D01*
X118274061Y-98083576D01*
X118705538Y-98083576D01*
X118725178Y-98182314D01*
X118870609Y-98399967D01*
X119088262Y-98545398D01*
X119280197Y-98583576D01*
X119345000Y-98596466D01*
X119409803Y-98583576D01*
X121762000Y-98583576D01*
X121762000Y-98995000D01*
X121914000Y-99147000D01*
X122966000Y-99147000D01*
X122966000Y-99127000D01*
X123274000Y-99127000D01*
X123274000Y-99147000D01*
X123294000Y-99147000D01*
X123294000Y-99455000D01*
X123274000Y-99455000D01*
X123274000Y-100382000D01*
X123426000Y-100534000D01*
X123990939Y-100534000D01*
X124214405Y-100441437D01*
X124375517Y-100280325D01*
X124431657Y-100364343D01*
X124632770Y-100498723D01*
X124870000Y-100545911D01*
X126370000Y-100545911D01*
X126607230Y-100498723D01*
X126808343Y-100364343D01*
X126942723Y-100163230D01*
X126989911Y-99926000D01*
X126989911Y-99607000D01*
X130562000Y-99607000D01*
X130562000Y-100046938D01*
X130654562Y-100270404D01*
X130825595Y-100441437D01*
X131049061Y-100534000D01*
X131614000Y-100534000D01*
X131766000Y-100382000D01*
X131766000Y-99455000D01*
X130714000Y-99455000D01*
X130562000Y-99607000D01*
X126989911Y-99607000D01*
X126989911Y-98676000D01*
X126942723Y-98438770D01*
X126808343Y-98237657D01*
X126607230Y-98103277D01*
X126370000Y-98056089D01*
X125945401Y-98056089D01*
X126083343Y-97963919D01*
X126217723Y-97762806D01*
X126264911Y-97525576D01*
X126264911Y-96942283D01*
X126677000Y-96530194D01*
X126677000Y-96669576D01*
X126829000Y-96821576D01*
X127577001Y-96821576D01*
X127577001Y-97129576D01*
X126829000Y-97129576D01*
X126677000Y-97281576D01*
X126677000Y-97596514D01*
X126769562Y-97819980D01*
X126940595Y-97991013D01*
X127164061Y-98083576D01*
X127595538Y-98083576D01*
X127615178Y-98182314D01*
X127760609Y-98399967D01*
X127978262Y-98545398D01*
X128170197Y-98583576D01*
X128235000Y-98596466D01*
X128299803Y-98583576D01*
X130562000Y-98583576D01*
X130562000Y-98995000D01*
X130714000Y-99147000D01*
X131766000Y-99147000D01*
X131766000Y-99127000D01*
X132074000Y-99127000D01*
X132074000Y-99147000D01*
X132094000Y-99147000D01*
X132094000Y-99455000D01*
X132074000Y-99455000D01*
X132074000Y-100382000D01*
X132226000Y-100534000D01*
X132790939Y-100534000D01*
X133014405Y-100441437D01*
X133175517Y-100280325D01*
X133231657Y-100364343D01*
X133432770Y-100498723D01*
X133670000Y-100545911D01*
X135170000Y-100545911D01*
X135407230Y-100498723D01*
X135608343Y-100364343D01*
X135742723Y-100163230D01*
X135789911Y-99926000D01*
X135789911Y-99607000D01*
X139562000Y-99607000D01*
X139562000Y-100046938D01*
X139654562Y-100270404D01*
X139825595Y-100441437D01*
X140049061Y-100534000D01*
X140614000Y-100534000D01*
X140766000Y-100382000D01*
X140766000Y-99455000D01*
X139714000Y-99455000D01*
X139562000Y-99607000D01*
X135789911Y-99607000D01*
X135789911Y-98676000D01*
X135742723Y-98438770D01*
X135608343Y-98237657D01*
X135407230Y-98103277D01*
X135170000Y-98056089D01*
X134835401Y-98056089D01*
X134973343Y-97963919D01*
X135107723Y-97762806D01*
X135154911Y-97525576D01*
X135154911Y-96942283D01*
X135567000Y-96530194D01*
X135567000Y-96669576D01*
X135719000Y-96821576D01*
X136467001Y-96821576D01*
X136467001Y-97129576D01*
X135719000Y-97129576D01*
X135567000Y-97281576D01*
X135567000Y-97596514D01*
X135659562Y-97819980D01*
X135830595Y-97991013D01*
X136054061Y-98083576D01*
X136485538Y-98083576D01*
X136505178Y-98182314D01*
X136650609Y-98399967D01*
X136868262Y-98545398D01*
X137060197Y-98583576D01*
X137125000Y-98596466D01*
X137189803Y-98583576D01*
X139562000Y-98583576D01*
X139562000Y-98995000D01*
X139714000Y-99147000D01*
X140766000Y-99147000D01*
X140766000Y-99127000D01*
X141074000Y-99127000D01*
X141074000Y-99147000D01*
X141094000Y-99147000D01*
X141094000Y-99455000D01*
X141074000Y-99455000D01*
X141074000Y-100382000D01*
X141226000Y-100534000D01*
X141790939Y-100534000D01*
X142014405Y-100441437D01*
X142175517Y-100280325D01*
X142231657Y-100364343D01*
X142432770Y-100498723D01*
X142670000Y-100545911D01*
X144170000Y-100545911D01*
X144407230Y-100498723D01*
X144608343Y-100364343D01*
X144742723Y-100163230D01*
X144789911Y-99926000D01*
X144789911Y-99607000D01*
X148562000Y-99607000D01*
X148562000Y-100046938D01*
X148654562Y-100270404D01*
X148825595Y-100441437D01*
X149049061Y-100534000D01*
X149614000Y-100534000D01*
X149766000Y-100382000D01*
X149766000Y-99455000D01*
X148714000Y-99455000D01*
X148562000Y-99607000D01*
X144789911Y-99607000D01*
X144789911Y-98676000D01*
X144742723Y-98438770D01*
X144608343Y-98237657D01*
X144407230Y-98103277D01*
X144170000Y-98056089D01*
X143725401Y-98056089D01*
X143863343Y-97963919D01*
X143997723Y-97762806D01*
X144044911Y-97525576D01*
X144044911Y-96942283D01*
X144457000Y-96530194D01*
X144457000Y-96669576D01*
X144609000Y-96821576D01*
X145357001Y-96821576D01*
X145357001Y-97129576D01*
X144609000Y-97129576D01*
X144457000Y-97281576D01*
X144457000Y-97596514D01*
X144549562Y-97819980D01*
X144720595Y-97991013D01*
X144944061Y-98083576D01*
X145375538Y-98083576D01*
X145395178Y-98182314D01*
X145540609Y-98399967D01*
X145758262Y-98545398D01*
X145950197Y-98583576D01*
X146015000Y-98596466D01*
X146079803Y-98583576D01*
X148562000Y-98583576D01*
X148562000Y-98995000D01*
X148714000Y-99147000D01*
X149766000Y-99147000D01*
X149766000Y-99127000D01*
X150074000Y-99127000D01*
X150074000Y-99147000D01*
X150094000Y-99147000D01*
X150094000Y-99455000D01*
X150074000Y-99455000D01*
X150074000Y-100382000D01*
X150226000Y-100534000D01*
X150790939Y-100534000D01*
X151014405Y-100441437D01*
X151175517Y-100280325D01*
X151231657Y-100364343D01*
X151432770Y-100498723D01*
X151670000Y-100545911D01*
X153170000Y-100545911D01*
X153407230Y-100498723D01*
X153608343Y-100364343D01*
X153742723Y-100163230D01*
X153789911Y-99926000D01*
X153789911Y-99607000D01*
X157362000Y-99607000D01*
X157362000Y-100046938D01*
X157454562Y-100270404D01*
X157625595Y-100441437D01*
X157849061Y-100534000D01*
X158414000Y-100534000D01*
X158566000Y-100382000D01*
X158566000Y-99455000D01*
X157514000Y-99455000D01*
X157362000Y-99607000D01*
X153789911Y-99607000D01*
X153789911Y-98676000D01*
X153742723Y-98438770D01*
X153608343Y-98237657D01*
X153407230Y-98103277D01*
X153170000Y-98056089D01*
X152615401Y-98056089D01*
X152753343Y-97963919D01*
X152887723Y-97762806D01*
X152934911Y-97525576D01*
X152934911Y-96942283D01*
X153347000Y-96530194D01*
X153347000Y-96669576D01*
X153499000Y-96821576D01*
X154247001Y-96821576D01*
X154247001Y-97129576D01*
X153499000Y-97129576D01*
X153347000Y-97281576D01*
X153347000Y-97596514D01*
X153439562Y-97819980D01*
X153610595Y-97991013D01*
X153834061Y-98083576D01*
X154265538Y-98083576D01*
X154285178Y-98182314D01*
X154430609Y-98399967D01*
X154648262Y-98545398D01*
X154840197Y-98583576D01*
X154905000Y-98596466D01*
X154969803Y-98583576D01*
X157362000Y-98583576D01*
X157362000Y-98995000D01*
X157514000Y-99147000D01*
X158566000Y-99147000D01*
X158566000Y-99127000D01*
X158874000Y-99127000D01*
X158874000Y-99147000D01*
X158894000Y-99147000D01*
X158894000Y-99455000D01*
X158874000Y-99455000D01*
X158874000Y-100382000D01*
X159026000Y-100534000D01*
X159590939Y-100534000D01*
X159814405Y-100441437D01*
X159975517Y-100280325D01*
X160031657Y-100364343D01*
X160232770Y-100498723D01*
X160470000Y-100545911D01*
X161970000Y-100545911D01*
X162207230Y-100498723D01*
X162408343Y-100364343D01*
X162542723Y-100163230D01*
X162589911Y-99926000D01*
X162589911Y-99503000D01*
X165762000Y-99503000D01*
X165762000Y-99942938D01*
X165854562Y-100166404D01*
X166025595Y-100337437D01*
X166249061Y-100430000D01*
X166814000Y-100430000D01*
X166966000Y-100278000D01*
X166966000Y-99351000D01*
X165914000Y-99351000D01*
X165762000Y-99503000D01*
X162589911Y-99503000D01*
X162589911Y-98676000D01*
X162542723Y-98438770D01*
X162408343Y-98237657D01*
X162207230Y-98103277D01*
X161970000Y-98056089D01*
X161505401Y-98056089D01*
X161643343Y-97963919D01*
X161777723Y-97762806D01*
X161794078Y-97680582D01*
X161937000Y-97585085D01*
X161937000Y-97624514D01*
X162029562Y-97847980D01*
X162200595Y-98019013D01*
X162424061Y-98111576D01*
X162855538Y-98111576D01*
X162875178Y-98210314D01*
X163020609Y-98427967D01*
X163238262Y-98573398D01*
X163430197Y-98611576D01*
X163495000Y-98624466D01*
X163559803Y-98611576D01*
X165762000Y-98611576D01*
X165762000Y-98891000D01*
X165914000Y-99043000D01*
X166966000Y-99043000D01*
X166966000Y-99023000D01*
X167274000Y-99023000D01*
X167274000Y-99043000D01*
X167294000Y-99043000D01*
X167294000Y-99351000D01*
X167274000Y-99351000D01*
X167274000Y-100278000D01*
X167426000Y-100430000D01*
X167990939Y-100430000D01*
X168214405Y-100337437D01*
X168375517Y-100176325D01*
X168431657Y-100260343D01*
X168632770Y-100394723D01*
X168870000Y-100441911D01*
X170370000Y-100441911D01*
X170607230Y-100394723D01*
X170808343Y-100260343D01*
X170837000Y-100217455D01*
X170837000Y-110297000D01*
X165320000Y-110297000D01*
X165281732Y-110304612D01*
X165249289Y-110326289D01*
X165227612Y-110358732D01*
X165220000Y-110397000D01*
X165220000Y-128397000D01*
X165227612Y-128435268D01*
X165249289Y-128467711D01*
X165281732Y-128489388D01*
X165320000Y-128497000D01*
X170837001Y-128497000D01*
X170837001Y-130594469D01*
X170654197Y-130153141D01*
X170201859Y-129700803D01*
X169610851Y-129456000D01*
X168971149Y-129456000D01*
X168793290Y-129529672D01*
X168535356Y-129271738D01*
X168494462Y-129210536D01*
X168252001Y-129048528D01*
X168038192Y-129005999D01*
X168038187Y-129005999D01*
X167965999Y-128991640D01*
X167893811Y-129005999D01*
X164828000Y-129005999D01*
X164828000Y-128351000D01*
X163924000Y-128351000D01*
X163924000Y-128371000D01*
X163616000Y-128371000D01*
X163616000Y-128351000D01*
X163596000Y-128351000D01*
X163596000Y-128043000D01*
X163616000Y-128043000D01*
X163616000Y-126504184D01*
X163924000Y-126504184D01*
X163924000Y-128043000D01*
X164828000Y-128043000D01*
X164828000Y-127243000D01*
X164688531Y-126849843D01*
X164409224Y-126539986D01*
X164085849Y-126387246D01*
X163924000Y-126504184D01*
X163616000Y-126504184D01*
X163589327Y-126484913D01*
X163722000Y-126164612D01*
X163722000Y-125803388D01*
X163583765Y-125469659D01*
X163328341Y-125214235D01*
X162994612Y-125076000D01*
X162633388Y-125076000D01*
X162299659Y-125214235D01*
X162044235Y-125469659D01*
X161906000Y-125803388D01*
X161906000Y-126164612D01*
X162021767Y-126444099D01*
X161865000Y-126548848D01*
X161642810Y-126400386D01*
X161230000Y-126318273D01*
X160817189Y-126400386D01*
X160595000Y-126548848D01*
X160372810Y-126400386D01*
X159960000Y-126318273D01*
X159547189Y-126400386D01*
X159325000Y-126548848D01*
X159102810Y-126400386D01*
X158690000Y-126318273D01*
X158277189Y-126400386D01*
X158055000Y-126548848D01*
X157832810Y-126400386D01*
X157420000Y-126318273D01*
X157007189Y-126400386D01*
X156785000Y-126548848D01*
X156562810Y-126400386D01*
X156150000Y-126318273D01*
X155737189Y-126400386D01*
X155515000Y-126548848D01*
X155292810Y-126400386D01*
X154880000Y-126318273D01*
X154467189Y-126400386D01*
X154245000Y-126548848D01*
X154022810Y-126400386D01*
X153610000Y-126318273D01*
X153197189Y-126400386D01*
X152975000Y-126548848D01*
X152752810Y-126400386D01*
X152340000Y-126318273D01*
X151927189Y-126400386D01*
X151705000Y-126548848D01*
X151482810Y-126400386D01*
X151070000Y-126318273D01*
X150657189Y-126400386D01*
X150435000Y-126548848D01*
X150212810Y-126400386D01*
X149800000Y-126318273D01*
X149764878Y-126325259D01*
X149219346Y-125779728D01*
X149178452Y-125718526D01*
X148935991Y-125556518D01*
X148722182Y-125513989D01*
X148722177Y-125513989D01*
X148649989Y-125499630D01*
X148577801Y-125513989D01*
X147444601Y-125513989D01*
X147579754Y-125227849D01*
X147462816Y-125066000D01*
X145924000Y-125066000D01*
X145924000Y-125086000D01*
X145616000Y-125086000D01*
X145616000Y-125066000D01*
X144077184Y-125066000D01*
X143960246Y-125227849D01*
X144095399Y-125513989D01*
X142671106Y-125513989D01*
X142634341Y-125477224D01*
X142620237Y-125471382D01*
X143533619Y-124558000D01*
X143978266Y-124558000D01*
X143960246Y-124596151D01*
X144077184Y-124758000D01*
X145616000Y-124758000D01*
X145616000Y-124738000D01*
X145924000Y-124738000D01*
X145924000Y-124758000D01*
X147462816Y-124758000D01*
X147579754Y-124596151D01*
X147427014Y-124272776D01*
X147423244Y-124269378D01*
X147566614Y-124054811D01*
X147648727Y-123642000D01*
X147566614Y-123229189D01*
X147418152Y-123007000D01*
X147566614Y-122784811D01*
X147648727Y-122372000D01*
X147566614Y-121959189D01*
X147418152Y-121737000D01*
X147566614Y-121514811D01*
X147648727Y-121102000D01*
X147566614Y-120689189D01*
X147418152Y-120467000D01*
X147566614Y-120244811D01*
X147648727Y-119832000D01*
X147566614Y-119419189D01*
X147422162Y-119203000D01*
X152462000Y-119203000D01*
X152462000Y-122017939D01*
X152554563Y-122241405D01*
X152725596Y-122412438D01*
X152949062Y-122505000D01*
X155764000Y-122505000D01*
X155916000Y-122353000D01*
X155916000Y-119051000D01*
X156224000Y-119051000D01*
X156224000Y-122353000D01*
X156376000Y-122505000D01*
X159190938Y-122505000D01*
X159414404Y-122412438D01*
X159585437Y-122241405D01*
X159678000Y-122017939D01*
X159678000Y-119203000D01*
X159526000Y-119051000D01*
X156224000Y-119051000D01*
X155916000Y-119051000D01*
X152614000Y-119051000D01*
X152462000Y-119203000D01*
X147422162Y-119203000D01*
X147418152Y-119197000D01*
X147566614Y-118974811D01*
X147648727Y-118562000D01*
X147566614Y-118149189D01*
X147418152Y-117927000D01*
X147566614Y-117704811D01*
X147648727Y-117292000D01*
X147566614Y-116879189D01*
X147418152Y-116657000D01*
X147566614Y-116434811D01*
X147648727Y-116022000D01*
X147599807Y-115776061D01*
X152462000Y-115776061D01*
X152462000Y-118591000D01*
X152614000Y-118743000D01*
X155916000Y-118743000D01*
X155916000Y-115441000D01*
X156224000Y-115441000D01*
X156224000Y-118743000D01*
X159526000Y-118743000D01*
X159678000Y-118591000D01*
X159678000Y-115776061D01*
X159585437Y-115552595D01*
X159414404Y-115381562D01*
X159190938Y-115289000D01*
X156376000Y-115289000D01*
X156224000Y-115441000D01*
X155916000Y-115441000D01*
X155764000Y-115289000D01*
X152949062Y-115289000D01*
X152725596Y-115381562D01*
X152554563Y-115552595D01*
X152462000Y-115776061D01*
X147599807Y-115776061D01*
X147566614Y-115609189D01*
X147418152Y-115387000D01*
X147566614Y-115164811D01*
X147648727Y-114752000D01*
X147566614Y-114339189D01*
X147423244Y-114124622D01*
X147427014Y-114121224D01*
X147579754Y-113797849D01*
X147462816Y-113636000D01*
X145924000Y-113636000D01*
X145924000Y-113656000D01*
X145616000Y-113656000D01*
X145616000Y-113636000D01*
X145596000Y-113636000D01*
X145596000Y-113328000D01*
X145616000Y-113328000D01*
X145616000Y-112424000D01*
X145924000Y-112424000D01*
X145924000Y-113328000D01*
X147462816Y-113328000D01*
X147579754Y-113166151D01*
X147427014Y-112842776D01*
X147117157Y-112563469D01*
X146724000Y-112424000D01*
X145924000Y-112424000D01*
X145616000Y-112424000D01*
X144927990Y-112424000D01*
X144927990Y-112144178D01*
X144942349Y-112071990D01*
X144927990Y-111999802D01*
X144927990Y-111999797D01*
X144885461Y-111785988D01*
X144723453Y-111543527D01*
X144662251Y-111502633D01*
X144228000Y-111068382D01*
X144228000Y-111016388D01*
X144192217Y-110930000D01*
X146202000Y-110930000D01*
X146202000Y-111101202D01*
X146263387Y-111409811D01*
X146497226Y-111759775D01*
X146847190Y-111993614D01*
X147260000Y-112075727D01*
X147672811Y-111993614D01*
X147895001Y-111845151D01*
X148117190Y-111993614D01*
X148530000Y-112075727D01*
X148942811Y-111993614D01*
X149165001Y-111845151D01*
X149387190Y-111993614D01*
X149800000Y-112075727D01*
X150212811Y-111993614D01*
X150435001Y-111845151D01*
X150657190Y-111993614D01*
X151070000Y-112075727D01*
X151482811Y-111993614D01*
X151705001Y-111845151D01*
X151927190Y-111993614D01*
X152340000Y-112075727D01*
X152752811Y-111993614D01*
X152975001Y-111845151D01*
X153197190Y-111993614D01*
X153610000Y-112075727D01*
X154022811Y-111993614D01*
X154245001Y-111845151D01*
X154467190Y-111993614D01*
X154880000Y-112075727D01*
X155292811Y-111993614D01*
X155515001Y-111845151D01*
X155737190Y-111993614D01*
X156150000Y-112075727D01*
X156562811Y-111993614D01*
X156785001Y-111845151D01*
X157007190Y-111993614D01*
X157420000Y-112075727D01*
X157832811Y-111993614D01*
X158055001Y-111845151D01*
X158277190Y-111993614D01*
X158690000Y-112075727D01*
X159102811Y-111993614D01*
X159325001Y-111845151D01*
X159547190Y-111993614D01*
X159960000Y-112075727D01*
X160372811Y-111993614D01*
X160595001Y-111845151D01*
X160817190Y-111993614D01*
X161230000Y-112075727D01*
X161642811Y-111993614D01*
X161865001Y-111845151D01*
X162087190Y-111993614D01*
X162500000Y-112075727D01*
X162912811Y-111993614D01*
X163127378Y-111850244D01*
X163130776Y-111854014D01*
X163454151Y-112006754D01*
X163616000Y-111889816D01*
X163616000Y-110351000D01*
X163924000Y-110351000D01*
X163924000Y-111889816D01*
X164085849Y-112006754D01*
X164409224Y-111854014D01*
X164688531Y-111544157D01*
X164828000Y-111151000D01*
X164828000Y-110351000D01*
X163924000Y-110351000D01*
X163616000Y-110351000D01*
X163596000Y-110351000D01*
X163596000Y-110043000D01*
X163616000Y-110043000D01*
X163616000Y-110023000D01*
X163924000Y-110023000D01*
X163924000Y-110043000D01*
X164828000Y-110043000D01*
X164828000Y-110021855D01*
X164949061Y-110072000D01*
X165514000Y-110072000D01*
X165666000Y-109920000D01*
X165666000Y-108993000D01*
X165646000Y-108993000D01*
X165646000Y-108685000D01*
X165666000Y-108685000D01*
X165666000Y-108665000D01*
X165974000Y-108665000D01*
X165974000Y-108685000D01*
X165994000Y-108685000D01*
X165994000Y-108993000D01*
X165974000Y-108993000D01*
X165974000Y-109920000D01*
X166126000Y-110072000D01*
X166690939Y-110072000D01*
X166914405Y-109979437D01*
X167075517Y-109818325D01*
X167131657Y-109902343D01*
X167332770Y-110036723D01*
X167570000Y-110083911D01*
X169070000Y-110083911D01*
X169307230Y-110036723D01*
X169508343Y-109902343D01*
X169642723Y-109701230D01*
X169689911Y-109464000D01*
X169689911Y-108214000D01*
X169642723Y-107976770D01*
X169508343Y-107775657D01*
X169459469Y-107743000D01*
X169508343Y-107710343D01*
X169642723Y-107509230D01*
X169689911Y-107272000D01*
X169689911Y-106022000D01*
X169642723Y-105784770D01*
X169508343Y-105583657D01*
X169307230Y-105449277D01*
X169070000Y-105402089D01*
X169018644Y-105402089D01*
X169010471Y-105360998D01*
X168978000Y-105312402D01*
X168978000Y-105216388D01*
X168839765Y-104882659D01*
X168584341Y-104627235D01*
X168250612Y-104489000D01*
X167899132Y-104489000D01*
X167940080Y-104480168D01*
X167958368Y-104478313D01*
X167964957Y-104478883D01*
X167970720Y-104477060D01*
X168025726Y-104471480D01*
X168077292Y-104455673D01*
X168132845Y-104425770D01*
X168192999Y-104406740D01*
X168322849Y-104335339D01*
X168390044Y-104278846D01*
X168462820Y-104229759D01*
X168580509Y-104111044D01*
X168617309Y-104055447D01*
X168663257Y-104007131D01*
X168772929Y-103833718D01*
X168788643Y-103792910D01*
X168814002Y-103757285D01*
X168919808Y-103521791D01*
X168925884Y-103495356D01*
X168939619Y-103471974D01*
X169045705Y-103167017D01*
X169047980Y-103150688D01*
X169055567Y-103136047D01*
X169166081Y-102754241D01*
X169166479Y-102749586D01*
X169168565Y-102745410D01*
X169183966Y-102689058D01*
X169239396Y-102496960D01*
X169264037Y-102418940D01*
X169379108Y-102374072D01*
X169425123Y-102356760D01*
X169437145Y-102349286D01*
X169450995Y-102346349D01*
X169629011Y-102269962D01*
X169670528Y-102241456D01*
X169717434Y-102223133D01*
X169819888Y-102157644D01*
X169843333Y-102135132D01*
X169872197Y-102120201D01*
X169928931Y-102052941D01*
X169992413Y-101991986D01*
X170005458Y-101962217D01*
X170026412Y-101937375D01*
X170059349Y-101877704D01*
X170077713Y-101819980D01*
X170106948Y-101766935D01*
X170113615Y-101707130D01*
X170131860Y-101649779D01*
X170126736Y-101589422D01*
X170133446Y-101529227D01*
X170116718Y-101471420D01*
X170111627Y-101411456D01*
X170083797Y-101357657D01*
X170066960Y-101299473D01*
X170036428Y-101240544D01*
X169981993Y-101172450D01*
X169935196Y-101098901D01*
X169907898Y-101079763D01*
X169887080Y-101053722D01*
X169810733Y-101011645D01*
X169739349Y-100961600D01*
X169718205Y-100952282D01*
X169692760Y-100946626D01*
X169677606Y-100938274D01*
X169671667Y-100937612D01*
X169655066Y-100928514D01*
X169569115Y-100919141D01*
X169484723Y-100900381D01*
X169451168Y-100906278D01*
X169417295Y-100902584D01*
X169332292Y-100910060D01*
X169276274Y-100926416D01*
X169218107Y-100931142D01*
X169069677Y-100973411D01*
X169050708Y-100983137D01*
X169029629Y-100986317D01*
X168811627Y-101064927D01*
X168806647Y-101067929D01*
X168800915Y-101068903D01*
X168372766Y-101232371D01*
X168335978Y-101255490D01*
X168294592Y-101268707D01*
X168235633Y-101318551D01*
X168170255Y-101359637D01*
X168145115Y-101395075D01*
X168111937Y-101423123D01*
X168076537Y-101491741D01*
X168031863Y-101554714D01*
X168022198Y-101597071D01*
X168002278Y-101635684D01*
X167923108Y-101911076D01*
X167923096Y-101911223D01*
X167923027Y-101911356D01*
X167912114Y-101949386D01*
X167912073Y-101949880D01*
X167911845Y-101950324D01*
X167858195Y-102138410D01*
X167858156Y-102138890D01*
X167857938Y-102139316D01*
X167795705Y-102358769D01*
X167795670Y-102359208D01*
X167795470Y-102359600D01*
X167736657Y-102568111D01*
X167681595Y-102757605D01*
X167661706Y-102818330D01*
X167654433Y-102810045D01*
X167578424Y-102751781D01*
X167507275Y-102687694D01*
X167451632Y-102654576D01*
X167392400Y-102633588D01*
X167338140Y-102601888D01*
X167310238Y-102598068D01*
X167288812Y-102587770D01*
X167258320Y-102586080D01*
X167226185Y-102574694D01*
X167163431Y-102577971D01*
X167101170Y-102569448D01*
X167099198Y-102569567D01*
X167074988Y-102575921D01*
X167049997Y-102574536D01*
X167018646Y-102585533D01*
X166987330Y-102587168D01*
X166932465Y-102613325D01*
X166867852Y-102630282D01*
X166847917Y-102645416D01*
X166824297Y-102653701D01*
X166767223Y-102687425D01*
X166720358Y-102729370D01*
X166666479Y-102761812D01*
X166576305Y-102843875D01*
X166560120Y-102865791D01*
X166538104Y-102881839D01*
X166433436Y-102995423D01*
X166431504Y-102998586D01*
X166428534Y-103000806D01*
X166403068Y-103029109D01*
X166393301Y-103037251D01*
X166393050Y-102958656D01*
X166395509Y-102746865D01*
X166402760Y-102483861D01*
X166413452Y-102237422D01*
X166426355Y-102039839D01*
X166436859Y-101905099D01*
X166435615Y-101894658D01*
X166438119Y-101884445D01*
X166444665Y-101735897D01*
X166439585Y-101702799D01*
X166443999Y-101669601D01*
X166437526Y-101568856D01*
X166420414Y-101504665D01*
X166414832Y-101438470D01*
X166393341Y-101363868D01*
X166362096Y-101303386D01*
X166341598Y-101238475D01*
X166303091Y-101168360D01*
X166287056Y-101149267D01*
X166277663Y-101126171D01*
X166270282Y-101114969D01*
X166224810Y-101068907D01*
X166188428Y-101015378D01*
X166052496Y-100881575D01*
X165973242Y-100829520D01*
X165898550Y-100771128D01*
X165715487Y-100678787D01*
X165628467Y-100654626D01*
X165544217Y-100622127D01*
X165345778Y-100587693D01*
X165300940Y-100588793D01*
X165288883Y-100584812D01*
X165258659Y-100587046D01*
X165206013Y-100579665D01*
X165178967Y-100581210D01*
X165133852Y-100592894D01*
X165106669Y-100593561D01*
X165093898Y-100599222D01*
X165050352Y-100602440D01*
X164903829Y-100643010D01*
X164850600Y-100669813D01*
X164793122Y-100685569D01*
X164628218Y-100768074D01*
X164592432Y-100795862D01*
X164550955Y-100814107D01*
X164398414Y-100920893D01*
X164357473Y-100963651D01*
X164308842Y-100997415D01*
X164199407Y-101110825D01*
X164167028Y-101161206D01*
X164125375Y-101204233D01*
X164087202Y-101263420D01*
X164081183Y-101278645D01*
X164070430Y-101290992D01*
X164037415Y-101389359D01*
X163999269Y-101485850D01*
X163999535Y-101502220D01*
X163994325Y-101517742D01*
X163988046Y-101566734D01*
X163991385Y-101615134D01*
X163983347Y-101662972D01*
X163999539Y-101733321D01*
X164004508Y-101805348D01*
X164026114Y-101848785D01*
X164036995Y-101896058D01*
X164078878Y-101954859D01*
X164111031Y-102019498D01*
X164147613Y-102051358D01*
X164175758Y-102090872D01*
X164223212Y-102135572D01*
X164257750Y-102157186D01*
X164276836Y-102179528D01*
X164287150Y-102184782D01*
X164297509Y-102195366D01*
X164310274Y-102204095D01*
X164380842Y-102234216D01*
X164425964Y-102262454D01*
X164446355Y-102265880D01*
X164489959Y-102288092D01*
X164542175Y-102302813D01*
X164645008Y-102310895D01*
X164747237Y-102324586D01*
X164763671Y-102320222D01*
X164780621Y-102321554D01*
X164878707Y-102289673D01*
X164978405Y-102263197D01*
X164987389Y-102258792D01*
X164955095Y-102558591D01*
X164956909Y-102578913D01*
X164952099Y-102598745D01*
X164935979Y-102985964D01*
X164940854Y-103017214D01*
X164936572Y-103048549D01*
X164955778Y-103365406D01*
X164968001Y-103411937D01*
X164968974Y-103460037D01*
X165024017Y-103710213D01*
X165053262Y-103776967D01*
X165071845Y-103847436D01*
X165163234Y-104034620D01*
X165224727Y-104115420D01*
X165281261Y-104199763D01*
X165409508Y-104327638D01*
X165463325Y-104363484D01*
X165509756Y-104408490D01*
X165551666Y-104435558D01*
X165591697Y-104451413D01*
X165626474Y-104476788D01*
X165722135Y-104521125D01*
X165809085Y-104542187D01*
X165893502Y-104571837D01*
X166002567Y-104587365D01*
X166058320Y-104584300D01*
X166113477Y-104592995D01*
X166270919Y-104586696D01*
X166291435Y-104581755D01*
X166312452Y-104583618D01*
X166426957Y-104571210D01*
X166468411Y-104558192D01*
X166511805Y-104555918D01*
X166724599Y-104501877D01*
X166797209Y-104467245D01*
X166873693Y-104442321D01*
X167057016Y-104339450D01*
X167103691Y-104299517D01*
X167125402Y-104315483D01*
X167204840Y-104352663D01*
X167279898Y-104398034D01*
X167463703Y-104464579D01*
X167573224Y-104481245D01*
X167682235Y-104501112D01*
X167855925Y-104498319D01*
X167878802Y-104493385D01*
X167555659Y-104627235D01*
X167300235Y-104882659D01*
X167162000Y-105216388D01*
X167162000Y-105563382D01*
X167131657Y-105583657D01*
X167075517Y-105667675D01*
X166914405Y-105506563D01*
X166690939Y-105414000D01*
X166126000Y-105414000D01*
X165974000Y-105566000D01*
X165974000Y-106493000D01*
X165994000Y-106493000D01*
X165994000Y-106801000D01*
X165974000Y-106801000D01*
X165974000Y-106821000D01*
X165666000Y-106821000D01*
X165666000Y-106801000D01*
X163724000Y-106801000D01*
X163724000Y-106821000D01*
X163416000Y-106821000D01*
X163416000Y-106801000D01*
X163396000Y-106801000D01*
X163396000Y-106493000D01*
X163416000Y-106493000D01*
X163416000Y-105566000D01*
X163724000Y-105566000D01*
X163724000Y-106493000D01*
X165666000Y-106493000D01*
X165666000Y-105566000D01*
X165514000Y-105414000D01*
X164949061Y-105414000D01*
X164725595Y-105506563D01*
X164695000Y-105537158D01*
X164664405Y-105506563D01*
X164440939Y-105414000D01*
X163876000Y-105414000D01*
X163724000Y-105566000D01*
X163416000Y-105566000D01*
X163264000Y-105414000D01*
X162699061Y-105414000D01*
X162475595Y-105506563D01*
X162314483Y-105667675D01*
X162258343Y-105583657D01*
X162057230Y-105449277D01*
X161820000Y-105402089D01*
X160320000Y-105402089D01*
X160082770Y-105449277D01*
X159963707Y-105528832D01*
X159807230Y-105424277D01*
X159570000Y-105377089D01*
X158070000Y-105377089D01*
X157832770Y-105424277D01*
X157631657Y-105558657D01*
X157497277Y-105759770D01*
X157470000Y-105896901D01*
X157442723Y-105759770D01*
X157308343Y-105558657D01*
X157107230Y-105424277D01*
X156870000Y-105377089D01*
X155370000Y-105377089D01*
X155132770Y-105424277D01*
X154931657Y-105558657D01*
X154797277Y-105759770D01*
X154750089Y-105997000D01*
X154750089Y-106324061D01*
X154605766Y-106179738D01*
X154564873Y-106118537D01*
X154322412Y-105956529D01*
X154108603Y-105914000D01*
X154108598Y-105914000D01*
X154036410Y-105899641D01*
X153964222Y-105914000D01*
X153333746Y-105914000D01*
X153121159Y-105595841D01*
X152638883Y-105273595D01*
X152213596Y-105189000D01*
X151926404Y-105189000D01*
X151501117Y-105273595D01*
X151018841Y-105595841D01*
X150800000Y-105923360D01*
X150581159Y-105595841D01*
X150098883Y-105273595D01*
X149673596Y-105189000D01*
X149386404Y-105189000D01*
X148961117Y-105273595D01*
X148478841Y-105595841D01*
X148260000Y-105923360D01*
X148041159Y-105595841D01*
X147558883Y-105273595D01*
X147133596Y-105189000D01*
X146846404Y-105189000D01*
X146421117Y-105273595D01*
X145938841Y-105595841D01*
X145893420Y-105663819D01*
X145872723Y-105559770D01*
X145738343Y-105358657D01*
X145537230Y-105224277D01*
X145300000Y-105177089D01*
X143600000Y-105177089D01*
X143362770Y-105224277D01*
X143161657Y-105358657D01*
X143027277Y-105559770D01*
X142980089Y-105797000D01*
X142980089Y-107497000D01*
X143027277Y-107734230D01*
X143161657Y-107935343D01*
X143362770Y-108069723D01*
X143374167Y-108071990D01*
X140862785Y-108071990D01*
X140790597Y-108057631D01*
X140718409Y-108071990D01*
X140718405Y-108071990D01*
X140504596Y-108114519D01*
X140477476Y-108132640D01*
X140323336Y-108235633D01*
X140323334Y-108235635D01*
X140262135Y-108276527D01*
X140221243Y-108337726D01*
X130028000Y-118530970D01*
X130028000Y-115503000D01*
X129876000Y-115351000D01*
X125574000Y-115351000D01*
X125574000Y-120653000D01*
X125726000Y-120805000D01*
X128390380Y-120805000D01*
X128032382Y-121162998D01*
X114396190Y-121162998D01*
X114324002Y-121148639D01*
X114251814Y-121162998D01*
X114251809Y-121162998D01*
X114038000Y-121205527D01*
X113795539Y-121367535D01*
X113754645Y-121428737D01*
X111502741Y-123680641D01*
X111502738Y-123680643D01*
X103486381Y-131697000D01*
X96246986Y-131697000D01*
X96090062Y-131632000D01*
X91869938Y-131632000D01*
X91713014Y-131697000D01*
X82003000Y-131697000D01*
X82003000Y-130642904D01*
X83671885Y-130642904D01*
X83804966Y-130924783D01*
X84499045Y-131178593D01*
X85237420Y-131147470D01*
X85775034Y-130924783D01*
X85908115Y-130642904D01*
X84790000Y-129524789D01*
X83671885Y-130642904D01*
X82003000Y-130642904D01*
X82003000Y-129016045D01*
X82918407Y-129016045D01*
X82949530Y-129754420D01*
X83172217Y-130292034D01*
X83454096Y-130425115D01*
X84572211Y-129307000D01*
X85007789Y-129307000D01*
X86125904Y-130425115D01*
X86407783Y-130292034D01*
X86661593Y-129597955D01*
X86633754Y-128937484D01*
X86742320Y-128937484D01*
X86742320Y-129676516D01*
X87025135Y-130359291D01*
X87547709Y-130881865D01*
X88230484Y-131164680D01*
X88969516Y-131164680D01*
X89652291Y-130881865D01*
X90174865Y-130359291D01*
X90457680Y-129676516D01*
X90457680Y-128937484D01*
X90174865Y-128254709D01*
X89652291Y-127732135D01*
X88969516Y-127449320D01*
X88230484Y-127449320D01*
X87547709Y-127732135D01*
X87025135Y-128254709D01*
X86742320Y-128937484D01*
X86633754Y-128937484D01*
X86630470Y-128859580D01*
X86407783Y-128321966D01*
X86125904Y-128188885D01*
X85007789Y-129307000D01*
X84572211Y-129307000D01*
X83454096Y-128188885D01*
X83172217Y-128321966D01*
X82918407Y-129016045D01*
X82003000Y-129016045D01*
X82003000Y-127971096D01*
X83671885Y-127971096D01*
X84790000Y-129089211D01*
X85908115Y-127971096D01*
X85775034Y-127689217D01*
X85080955Y-127435407D01*
X84342580Y-127466530D01*
X83804966Y-127689217D01*
X83671885Y-127971096D01*
X82003000Y-127971096D01*
X82003000Y-124827149D01*
X83212000Y-124827149D01*
X83212000Y-125466851D01*
X83456803Y-126057859D01*
X83909141Y-126510197D01*
X84500149Y-126755000D01*
X85139851Y-126755000D01*
X85730859Y-126510197D01*
X86183197Y-126057859D01*
X86428000Y-125466851D01*
X86428000Y-124827149D01*
X86183197Y-124236141D01*
X85730859Y-123783803D01*
X85139851Y-123539000D01*
X84500149Y-123539000D01*
X83909141Y-123783803D01*
X83456803Y-124236141D01*
X83212000Y-124827149D01*
X82003000Y-124827149D01*
X82003000Y-120953000D01*
X88462000Y-120953000D01*
X88462000Y-121392938D01*
X88554562Y-121616404D01*
X88725595Y-121787437D01*
X88949061Y-121880000D01*
X89514000Y-121880000D01*
X89666000Y-121728000D01*
X89666000Y-120801000D01*
X88614000Y-120801000D01*
X88462000Y-120953000D01*
X82003000Y-120953000D01*
X82003000Y-119901062D01*
X88462000Y-119901062D01*
X88462000Y-120341000D01*
X88614000Y-120493000D01*
X89666000Y-120493000D01*
X89666000Y-119566000D01*
X89514000Y-119414000D01*
X88949061Y-119414000D01*
X88725595Y-119506563D01*
X88554562Y-119677596D01*
X88462000Y-119901062D01*
X82003000Y-119901062D01*
X82003000Y-118769842D01*
X82155596Y-118922438D01*
X82379062Y-119015000D01*
X82944000Y-119015000D01*
X83096000Y-118863000D01*
X83096000Y-117886000D01*
X83404000Y-117886000D01*
X83404000Y-118863000D01*
X83556000Y-119015000D01*
X84120938Y-119015000D01*
X84344404Y-118922438D01*
X84515437Y-118751405D01*
X84608000Y-118527939D01*
X84608000Y-118038000D01*
X84456000Y-117886000D01*
X83404000Y-117886000D01*
X83096000Y-117886000D01*
X83076000Y-117886000D01*
X83076000Y-117578000D01*
X83096000Y-117578000D01*
X83096000Y-116601000D01*
X83404000Y-116601000D01*
X83404000Y-117578000D01*
X84456000Y-117578000D01*
X84608000Y-117426000D01*
X84608000Y-117213000D01*
X84612000Y-117213000D01*
X84612000Y-117777939D01*
X84704563Y-118001405D01*
X84875596Y-118172438D01*
X85099062Y-118265000D01*
X85614000Y-118265000D01*
X85766000Y-118113000D01*
X85766000Y-117061000D01*
X86074000Y-117061000D01*
X86074000Y-118113000D01*
X86226000Y-118265000D01*
X86740938Y-118265000D01*
X86964404Y-118172438D01*
X87135437Y-118001405D01*
X87228000Y-117777939D01*
X87228000Y-117425000D01*
X89611089Y-117425000D01*
X89611089Y-118025000D01*
X89658277Y-118262230D01*
X89792657Y-118463343D01*
X89993770Y-118597723D01*
X90231000Y-118644911D01*
X91781000Y-118644911D01*
X92018230Y-118597723D01*
X92219343Y-118463343D01*
X92353723Y-118262230D01*
X92400911Y-118025000D01*
X92400911Y-117425000D01*
X92353723Y-117187770D01*
X92295383Y-117100459D01*
X92296438Y-117099404D01*
X92389000Y-116875938D01*
X92389000Y-116757000D01*
X92237000Y-116605000D01*
X91160000Y-116605000D01*
X91160000Y-116629000D01*
X90852000Y-116629000D01*
X90852000Y-116605000D01*
X89775000Y-116605000D01*
X89623000Y-116757000D01*
X89623000Y-116875938D01*
X89715562Y-117099404D01*
X89716617Y-117100459D01*
X89658277Y-117187770D01*
X89611089Y-117425000D01*
X87228000Y-117425000D01*
X87228000Y-117213000D01*
X87076000Y-117061000D01*
X86074000Y-117061000D01*
X85766000Y-117061000D01*
X84764000Y-117061000D01*
X84612000Y-117213000D01*
X84608000Y-117213000D01*
X84608000Y-116936061D01*
X84515437Y-116712595D01*
X84344404Y-116541562D01*
X84120938Y-116449000D01*
X83556000Y-116449000D01*
X83404000Y-116601000D01*
X83096000Y-116601000D01*
X82944000Y-116449000D01*
X82379062Y-116449000D01*
X82155596Y-116541562D01*
X82003000Y-116694158D01*
X82003000Y-115311000D01*
X82224000Y-115311000D01*
X82224000Y-116163000D01*
X82376000Y-116315000D01*
X82690938Y-116315000D01*
X82914404Y-116222438D01*
X83085437Y-116051405D01*
X83178000Y-115827939D01*
X83178000Y-115463000D01*
X83026000Y-115311000D01*
X82224000Y-115311000D01*
X82003000Y-115311000D01*
X82003000Y-114151000D01*
X82224000Y-114151000D01*
X82224000Y-115003000D01*
X83026000Y-115003000D01*
X83178000Y-114851000D01*
X83178000Y-114486061D01*
X83085437Y-114262595D01*
X82914404Y-114091562D01*
X82690938Y-113999000D01*
X82376000Y-113999000D01*
X82224000Y-114151000D01*
X82003000Y-114151000D01*
X82003000Y-112311000D01*
X82224000Y-112311000D01*
X82224000Y-113163000D01*
X82376000Y-113315000D01*
X82690938Y-113315000D01*
X82914404Y-113222438D01*
X83085437Y-113051405D01*
X83178000Y-112827939D01*
X83178000Y-112463000D01*
X83026000Y-112311000D01*
X82224000Y-112311000D01*
X82003000Y-112311000D01*
X82003000Y-112157000D01*
X84600089Y-112157000D01*
X84600089Y-112557000D01*
X84624953Y-112682000D01*
X84600089Y-112807000D01*
X84600089Y-113207000D01*
X84624953Y-113332000D01*
X84600089Y-113457000D01*
X84600089Y-113857000D01*
X84624953Y-113982000D01*
X84600089Y-114107000D01*
X84600089Y-114507000D01*
X84621297Y-114613617D01*
X84612000Y-114636061D01*
X84612000Y-114705000D01*
X84646295Y-114739295D01*
X84647277Y-114744230D01*
X84781657Y-114945343D01*
X84893518Y-115020087D01*
X84856605Y-115057000D01*
X84764000Y-115057000D01*
X84612000Y-115209000D01*
X84612000Y-115277939D01*
X84655160Y-115382136D01*
X84612000Y-115486333D01*
X84612000Y-115827667D01*
X84655160Y-115931864D01*
X84612000Y-116036061D01*
X84612000Y-116601000D01*
X84764000Y-116753000D01*
X85766000Y-116753000D01*
X85766000Y-116733000D01*
X86074000Y-116733000D01*
X86074000Y-116753000D01*
X87076000Y-116753000D01*
X87228000Y-116601000D01*
X87228000Y-116036061D01*
X87135437Y-115812595D01*
X87087842Y-115765000D01*
X87140938Y-115765000D01*
X87364404Y-115672438D01*
X87535437Y-115501405D01*
X87628000Y-115277939D01*
X87628000Y-115209000D01*
X87530002Y-115111002D01*
X87587384Y-115111002D01*
X87890645Y-115414264D01*
X87931537Y-115475463D01*
X87992736Y-115516355D01*
X87992738Y-115516357D01*
X88173996Y-115637470D01*
X88173997Y-115637470D01*
X88173998Y-115637471D01*
X88387807Y-115680000D01*
X88387811Y-115680000D01*
X88459999Y-115694359D01*
X88532187Y-115680000D01*
X88854180Y-115680000D01*
X89059388Y-115765000D01*
X89420612Y-115765000D01*
X89648046Y-115670794D01*
X89658277Y-115722230D01*
X89716617Y-115809541D01*
X89715562Y-115810596D01*
X89623000Y-116034062D01*
X89623000Y-116153000D01*
X89775000Y-116305000D01*
X90852000Y-116305000D01*
X90852000Y-116281000D01*
X91160000Y-116281000D01*
X91160000Y-116305000D01*
X92237000Y-116305000D01*
X92389000Y-116153000D01*
X92389000Y-116034062D01*
X92296438Y-115810596D01*
X92295383Y-115809541D01*
X92353723Y-115722230D01*
X92400911Y-115485000D01*
X92400911Y-114885000D01*
X92353723Y-114647770D01*
X92336746Y-114622363D01*
X94572999Y-116858616D01*
X94573000Y-117039874D01*
X94399738Y-117155643D01*
X94399736Y-117155645D01*
X94338537Y-117196537D01*
X94297645Y-117257736D01*
X92153293Y-119402089D01*
X91570000Y-119402089D01*
X91332770Y-119449277D01*
X91131657Y-119583657D01*
X91075517Y-119667675D01*
X90914405Y-119506563D01*
X90690939Y-119414000D01*
X90126000Y-119414000D01*
X89974000Y-119566000D01*
X89974000Y-120493000D01*
X89994000Y-120493000D01*
X89994000Y-120801000D01*
X89974000Y-120801000D01*
X89974000Y-121728000D01*
X90126000Y-121880000D01*
X90690939Y-121880000D01*
X90914405Y-121787437D01*
X91075517Y-121626325D01*
X91131657Y-121710343D01*
X91332770Y-121844723D01*
X91570000Y-121891911D01*
X93070000Y-121891911D01*
X93307230Y-121844723D01*
X93508343Y-121710343D01*
X93642723Y-121509230D01*
X93689911Y-121272000D01*
X93689911Y-120953000D01*
X93962000Y-120953000D01*
X93962000Y-121392938D01*
X94054562Y-121616404D01*
X94225595Y-121787437D01*
X94449061Y-121880000D01*
X95014000Y-121880000D01*
X95166000Y-121728000D01*
X95166000Y-120801000D01*
X94114000Y-120801000D01*
X93962000Y-120953000D01*
X93689911Y-120953000D01*
X93689911Y-120022000D01*
X93676092Y-119952526D01*
X93727556Y-119901062D01*
X93962000Y-119901062D01*
X93962000Y-120341000D01*
X94114000Y-120493000D01*
X95166000Y-120493000D01*
X95166000Y-119566000D01*
X95014000Y-119414000D01*
X94449061Y-119414000D01*
X94225595Y-119506563D01*
X94054562Y-119677596D01*
X93962000Y-119901062D01*
X93727556Y-119901062D01*
X95170619Y-118458000D01*
X95189087Y-118458000D01*
X95192657Y-118463343D01*
X95393770Y-118597723D01*
X95631000Y-118644911D01*
X97087001Y-118644911D01*
X97087001Y-119402089D01*
X97070000Y-119402089D01*
X96832770Y-119449277D01*
X96631657Y-119583657D01*
X96575517Y-119667675D01*
X96414405Y-119506563D01*
X96190939Y-119414000D01*
X95626000Y-119414000D01*
X95474000Y-119566000D01*
X95474000Y-120493000D01*
X95494000Y-120493000D01*
X95494000Y-120801000D01*
X95474000Y-120801000D01*
X95474000Y-121728000D01*
X95626000Y-121880000D01*
X96190939Y-121880000D01*
X96414405Y-121787437D01*
X96575517Y-121626325D01*
X96631657Y-121710343D01*
X96832770Y-121844723D01*
X97070000Y-121891911D01*
X98570000Y-121891911D01*
X98807230Y-121844723D01*
X99008343Y-121710343D01*
X99142723Y-121509230D01*
X99189911Y-121272000D01*
X99189911Y-120953000D01*
X99712000Y-120953000D01*
X99712000Y-121392938D01*
X99804562Y-121616404D01*
X99975595Y-121787437D01*
X100199061Y-121880000D01*
X100764000Y-121880000D01*
X100916000Y-121728000D01*
X100916000Y-120801000D01*
X99864000Y-120801000D01*
X99712000Y-120953000D01*
X99189911Y-120953000D01*
X99189911Y-120022000D01*
X99165855Y-119901062D01*
X99712000Y-119901062D01*
X99712000Y-120341000D01*
X99864000Y-120493000D01*
X100916000Y-120493000D01*
X100916000Y-119566000D01*
X100764000Y-119414000D01*
X100199061Y-119414000D01*
X99975595Y-119506563D01*
X99804562Y-119677596D01*
X99712000Y-119901062D01*
X99165855Y-119901062D01*
X99142723Y-119784770D01*
X99008343Y-119583657D01*
X98807230Y-119449277D01*
X98570000Y-119402089D01*
X98553000Y-119402089D01*
X98553000Y-117603000D01*
X99062000Y-117603000D01*
X99062000Y-118417939D01*
X99154563Y-118641405D01*
X99325596Y-118812438D01*
X99549062Y-118905000D01*
X100114000Y-118905000D01*
X100266000Y-118753000D01*
X100266000Y-117451000D01*
X99214000Y-117451000D01*
X99062000Y-117603000D01*
X98553000Y-117603000D01*
X98553000Y-116176061D01*
X99062000Y-116176061D01*
X99062000Y-116991000D01*
X99214000Y-117143000D01*
X100266000Y-117143000D01*
X100266000Y-115841000D01*
X100114000Y-115689000D01*
X99549062Y-115689000D01*
X99325596Y-115781562D01*
X99154563Y-115952595D01*
X99062000Y-116176061D01*
X98553000Y-116176061D01*
X98553000Y-114376187D01*
X98567359Y-114303999D01*
X98553000Y-114231811D01*
X98553000Y-114231807D01*
X98510471Y-114017998D01*
X98348463Y-113775537D01*
X98287261Y-113734643D01*
X98000357Y-113447739D01*
X97959463Y-113386537D01*
X97717002Y-113224529D01*
X97641264Y-113209464D01*
X97619343Y-113176657D01*
X97418230Y-113042277D01*
X97181000Y-112995089D01*
X95631000Y-112995089D01*
X95393770Y-113042277D01*
X95192657Y-113176657D01*
X95058277Y-113377770D01*
X95011089Y-113615000D01*
X95011089Y-114215000D01*
X95058277Y-114452230D01*
X95123605Y-114550000D01*
X95058277Y-114647770D01*
X95011089Y-114885000D01*
X95011089Y-115223468D01*
X91959287Y-112171667D01*
X92148343Y-112045343D01*
X92282723Y-111844230D01*
X92329911Y-111607000D01*
X92329911Y-111089078D01*
X92489061Y-111155000D01*
X93404000Y-111155000D01*
X93556000Y-111003000D01*
X93556000Y-109601000D01*
X93536000Y-109601000D01*
X93536000Y-109293000D01*
X93556000Y-109293000D01*
X93556000Y-107891000D01*
X93864000Y-107891000D01*
X93864000Y-109293000D01*
X93884000Y-109293000D01*
X93884000Y-109601000D01*
X93864000Y-109601000D01*
X93864000Y-111003000D01*
X94016000Y-111155000D01*
X94930939Y-111155000D01*
X95040089Y-111109788D01*
X95040089Y-111607000D01*
X95087277Y-111844230D01*
X95221657Y-112045343D01*
X95422770Y-112179723D01*
X95660000Y-112226911D01*
X97160000Y-112226911D01*
X97397230Y-112179723D01*
X97598343Y-112045343D01*
X97732723Y-111844230D01*
X97779911Y-111607000D01*
X97779911Y-111423707D01*
X99137261Y-110066357D01*
X99198463Y-110025463D01*
X99217481Y-109997000D01*
X100200089Y-109997000D01*
X100200089Y-111997000D01*
X100247277Y-112234230D01*
X100381657Y-112435343D01*
X100582770Y-112569723D01*
X100820000Y-112616911D01*
X104620000Y-112616911D01*
X104857230Y-112569723D01*
X105058343Y-112435343D01*
X105192723Y-112234230D01*
X105239911Y-111997000D01*
X105239911Y-109997000D01*
X105192723Y-109759770D01*
X105058343Y-109558657D01*
X104857230Y-109424277D01*
X104620000Y-109377089D01*
X100820000Y-109377089D01*
X100582770Y-109424277D01*
X100381657Y-109558657D01*
X100247277Y-109759770D01*
X100200089Y-109997000D01*
X99217481Y-109997000D01*
X99360471Y-109783002D01*
X99403000Y-109569193D01*
X99403000Y-109569188D01*
X99417359Y-109497000D01*
X99403000Y-109424812D01*
X99403000Y-106880000D01*
X104457813Y-106880000D01*
X104530001Y-106894359D01*
X104602189Y-106880000D01*
X104602194Y-106880000D01*
X104816003Y-106837471D01*
X105058464Y-106675463D01*
X105099358Y-106614261D01*
X105833619Y-105880000D01*
X107273362Y-105880000D01*
X107250089Y-105997000D01*
X107250089Y-107297000D01*
X107297277Y-107534230D01*
X107431657Y-107735343D01*
X107632770Y-107869723D01*
X107870000Y-107916911D01*
X109370000Y-107916911D01*
X109607230Y-107869723D01*
X109808343Y-107735343D01*
X109942723Y-107534230D01*
X109970000Y-107397099D01*
X109997277Y-107534230D01*
X110131657Y-107735343D01*
X110332770Y-107869723D01*
X110570000Y-107916911D01*
X110587000Y-107916911D01*
X110587001Y-112027089D01*
X107570000Y-112027089D01*
X107332770Y-112074277D01*
X107131657Y-112208657D01*
X106997277Y-112409770D01*
X106950089Y-112647000D01*
X106950089Y-114464000D01*
X106942187Y-114464000D01*
X106869999Y-114449641D01*
X106797811Y-114464000D01*
X106797807Y-114464000D01*
X106583998Y-114506529D01*
X106533905Y-114540000D01*
X106402738Y-114627643D01*
X106402736Y-114627645D01*
X106341537Y-114668537D01*
X106300645Y-114729736D01*
X105353293Y-115677089D01*
X104270000Y-115677089D01*
X104032770Y-115724277D01*
X103870000Y-115833037D01*
X103707230Y-115724277D01*
X103470000Y-115677089D01*
X101970000Y-115677089D01*
X101732770Y-115724277D01*
X101567530Y-115834688D01*
X101514404Y-115781562D01*
X101290938Y-115689000D01*
X100726000Y-115689000D01*
X100574000Y-115841000D01*
X100574000Y-117143000D01*
X100594000Y-117143000D01*
X100594000Y-117451000D01*
X100574000Y-117451000D01*
X100574000Y-118753000D01*
X100726000Y-118905000D01*
X101290938Y-118905000D01*
X101514404Y-118812438D01*
X101567530Y-118759312D01*
X101732770Y-118869723D01*
X101970000Y-118916911D01*
X101987001Y-118916911D01*
X101987001Y-119224807D01*
X101972641Y-119297000D01*
X102000850Y-119438816D01*
X101940939Y-119414000D01*
X101376000Y-119414000D01*
X101224000Y-119566000D01*
X101224000Y-120493000D01*
X101244000Y-120493000D01*
X101244000Y-120801000D01*
X101224000Y-120801000D01*
X101224000Y-121728000D01*
X101376000Y-121880000D01*
X101940939Y-121880000D01*
X102164405Y-121787437D01*
X102325517Y-121626325D01*
X102381657Y-121710343D01*
X102582770Y-121844723D01*
X102820000Y-121891911D01*
X104320000Y-121891911D01*
X104557230Y-121844723D01*
X104758343Y-121710343D01*
X104820000Y-121618067D01*
X104881657Y-121710343D01*
X105082770Y-121844723D01*
X105320000Y-121891911D01*
X106820000Y-121891911D01*
X107057230Y-121844723D01*
X107258343Y-121710343D01*
X107314483Y-121626325D01*
X107475595Y-121787437D01*
X107699061Y-121880000D01*
X108264000Y-121880000D01*
X108416000Y-121728000D01*
X108416000Y-120801000D01*
X108724000Y-120801000D01*
X108724000Y-121728000D01*
X108876000Y-121880000D01*
X109440939Y-121880000D01*
X109664405Y-121787437D01*
X109835438Y-121616404D01*
X109928000Y-121392938D01*
X109928000Y-120953000D01*
X109776000Y-120801000D01*
X108724000Y-120801000D01*
X108416000Y-120801000D01*
X108396000Y-120801000D01*
X108396000Y-120493000D01*
X108416000Y-120493000D01*
X108416000Y-119566000D01*
X108724000Y-119566000D01*
X108724000Y-120493000D01*
X109776000Y-120493000D01*
X109928000Y-120341000D01*
X109928000Y-119901062D01*
X109835438Y-119677596D01*
X109664405Y-119506563D01*
X109440939Y-119414000D01*
X108876000Y-119414000D01*
X108724000Y-119566000D01*
X108416000Y-119566000D01*
X108264000Y-119414000D01*
X107699061Y-119414000D01*
X107475595Y-119506563D01*
X107314483Y-119667675D01*
X107258343Y-119583657D01*
X107057230Y-119449277D01*
X106820000Y-119402089D01*
X106236707Y-119402089D01*
X105753000Y-118918382D01*
X105753000Y-118916911D01*
X105770000Y-118916911D01*
X106007230Y-118869723D01*
X106208343Y-118735343D01*
X106342723Y-118534230D01*
X106389911Y-118297000D01*
X106389911Y-116713707D01*
X106950089Y-116153530D01*
X106950089Y-117747000D01*
X106997277Y-117984230D01*
X107131657Y-118185343D01*
X107332770Y-118319723D01*
X107570000Y-118366911D01*
X112670000Y-118366911D01*
X112907230Y-118319723D01*
X113108343Y-118185343D01*
X113242723Y-117984230D01*
X113289911Y-117747000D01*
X113289911Y-115503000D01*
X120812000Y-115503000D01*
X120812000Y-120317938D01*
X120904562Y-120541404D01*
X121075595Y-120712437D01*
X121299061Y-120805000D01*
X125114000Y-120805000D01*
X125266000Y-120653000D01*
X125266000Y-115351000D01*
X120964000Y-115351000D01*
X120812000Y-115503000D01*
X113289911Y-115503000D01*
X113289911Y-112647000D01*
X113242723Y-112409770D01*
X113108343Y-112208657D01*
X112907230Y-112074277D01*
X112670000Y-112027089D01*
X112053000Y-112027089D01*
X112053000Y-110076062D01*
X120812000Y-110076062D01*
X120812000Y-114891000D01*
X120964000Y-115043000D01*
X125266000Y-115043000D01*
X125266000Y-109741000D01*
X125574000Y-109741000D01*
X125574000Y-115043000D01*
X129876000Y-115043000D01*
X130028000Y-114891000D01*
X130028000Y-114584595D01*
X130125235Y-114819341D01*
X130380659Y-115074765D01*
X130714388Y-115213000D01*
X131075612Y-115213000D01*
X131409341Y-115074765D01*
X131664765Y-114819341D01*
X131803000Y-114485612D01*
X131803000Y-114433618D01*
X140287264Y-105949355D01*
X140348463Y-105908463D01*
X140389355Y-105847264D01*
X140389357Y-105847262D01*
X140476825Y-105716357D01*
X140510471Y-105666002D01*
X140553000Y-105452193D01*
X140553000Y-105452189D01*
X140567359Y-105380001D01*
X140553000Y-105307813D01*
X140553000Y-104666911D01*
X140570000Y-104666911D01*
X140807230Y-104619723D01*
X141008343Y-104485343D01*
X141142723Y-104284230D01*
X141170000Y-104147099D01*
X141197277Y-104284230D01*
X141331657Y-104485343D01*
X141532770Y-104619723D01*
X141770000Y-104666911D01*
X143270000Y-104666911D01*
X143507230Y-104619723D01*
X143708343Y-104485343D01*
X143842723Y-104284230D01*
X143889911Y-104047000D01*
X143889911Y-102747000D01*
X143842723Y-102509770D01*
X143708343Y-102308657D01*
X143507230Y-102174277D01*
X143270000Y-102127089D01*
X141770000Y-102127089D01*
X141532770Y-102174277D01*
X141331657Y-102308657D01*
X141197277Y-102509770D01*
X141170000Y-102646901D01*
X141142723Y-102509770D01*
X141008343Y-102308657D01*
X140807230Y-102174277D01*
X140570000Y-102127089D01*
X139070000Y-102127089D01*
X138832770Y-102174277D01*
X138631657Y-102308657D01*
X138497277Y-102509770D01*
X138450089Y-102747000D01*
X138450089Y-104047000D01*
X138497277Y-104284230D01*
X138631657Y-104485343D01*
X138832770Y-104619723D01*
X139070000Y-104666911D01*
X139087001Y-104666911D01*
X139087001Y-105076380D01*
X130766382Y-113397000D01*
X130714388Y-113397000D01*
X130380659Y-113535235D01*
X130125235Y-113790659D01*
X130028000Y-114025405D01*
X130028000Y-110076062D01*
X129935438Y-109852596D01*
X129764405Y-109681563D01*
X129540939Y-109589000D01*
X125726000Y-109589000D01*
X125574000Y-109741000D01*
X125266000Y-109741000D01*
X125114000Y-109589000D01*
X121299061Y-109589000D01*
X121075595Y-109681563D01*
X120904562Y-109852596D01*
X120812000Y-110076062D01*
X112053000Y-110076062D01*
X112053000Y-107916911D01*
X112070000Y-107916911D01*
X112307230Y-107869723D01*
X112508343Y-107735343D01*
X112642723Y-107534230D01*
X112689911Y-107297000D01*
X112689911Y-105997000D01*
X112642723Y-105759770D01*
X112508343Y-105558657D01*
X112307230Y-105424277D01*
X112070000Y-105377089D01*
X110986707Y-105377089D01*
X110289357Y-104679739D01*
X110248463Y-104618537D01*
X110006002Y-104456529D01*
X109792193Y-104414000D01*
X109792188Y-104414000D01*
X109720000Y-104399641D01*
X109647812Y-104414000D01*
X105602189Y-104414000D01*
X105530001Y-104399641D01*
X105457813Y-104414000D01*
X105457808Y-104414000D01*
X105243999Y-104456529D01*
X105001538Y-104618537D01*
X104960644Y-104679739D01*
X104226383Y-105414000D01*
X102528000Y-105414000D01*
X102528000Y-105303000D01*
X102376000Y-105151000D01*
X101324000Y-105151000D01*
X101324000Y-105171000D01*
X101016000Y-105171000D01*
X101016000Y-105151000D01*
X100996000Y-105151000D01*
X100996000Y-104843000D01*
X101016000Y-104843000D01*
X101016000Y-103916000D01*
X101324000Y-103916000D01*
X101324000Y-104843000D01*
X102376000Y-104843000D01*
X102528000Y-104691000D01*
X102528000Y-104251062D01*
X102435438Y-104027596D01*
X102264405Y-103856563D01*
X102040939Y-103764000D01*
X101476000Y-103764000D01*
X101324000Y-103916000D01*
X101016000Y-103916000D01*
X100864000Y-103764000D01*
X100299061Y-103764000D01*
X100075595Y-103856563D01*
X99914483Y-104017675D01*
X99858343Y-103933657D01*
X99657230Y-103799277D01*
X99420000Y-103752089D01*
X97920000Y-103752089D01*
X97682770Y-103799277D01*
X97481657Y-103933657D01*
X97347277Y-104134770D01*
X97300089Y-104372000D01*
X97300089Y-105622000D01*
X97347277Y-105859230D01*
X97481657Y-106060343D01*
X97682770Y-106194723D01*
X97920000Y-106241911D01*
X97937000Y-106241911D01*
X97937001Y-109193381D01*
X97691823Y-109438559D01*
X97667395Y-109402000D01*
X97732723Y-109304230D01*
X97779911Y-109067000D01*
X97779911Y-108467000D01*
X97732723Y-108229770D01*
X97667395Y-108132000D01*
X97732723Y-108034230D01*
X97779911Y-107797000D01*
X97779911Y-107197000D01*
X97732723Y-106959770D01*
X97598343Y-106758657D01*
X97397230Y-106624277D01*
X97160000Y-106577089D01*
X95660000Y-106577089D01*
X95422770Y-106624277D01*
X95221657Y-106758657D01*
X95087277Y-106959770D01*
X95040089Y-107197000D01*
X95040089Y-107784212D01*
X94930939Y-107739000D01*
X94016000Y-107739000D01*
X93864000Y-107891000D01*
X93556000Y-107891000D01*
X93404000Y-107739000D01*
X92489061Y-107739000D01*
X92328194Y-107805634D01*
X92329911Y-107797000D01*
X92329911Y-107197000D01*
X92282723Y-106959770D01*
X92148343Y-106758657D01*
X91947230Y-106624277D01*
X91710000Y-106577089D01*
X90210000Y-106577089D01*
X89972770Y-106624277D01*
X89771657Y-106758657D01*
X89637277Y-106959770D01*
X89590089Y-107197000D01*
X89590089Y-107797000D01*
X89637277Y-108034230D01*
X89702605Y-108132000D01*
X89637277Y-108229770D01*
X89590089Y-108467000D01*
X89590089Y-109067000D01*
X89637277Y-109304230D01*
X89695617Y-109391541D01*
X89694562Y-109392596D01*
X89602000Y-109616062D01*
X89602000Y-109735000D01*
X89754000Y-109887000D01*
X90806000Y-109887000D01*
X90806000Y-109863000D01*
X91114000Y-109863000D01*
X91114000Y-109887000D01*
X91134000Y-109887000D01*
X91134000Y-110187000D01*
X91114000Y-110187000D01*
X91114000Y-110211000D01*
X90806000Y-110211000D01*
X90806000Y-110187000D01*
X89754000Y-110187000D01*
X89702000Y-110239000D01*
X89639388Y-110239000D01*
X89305659Y-110377235D01*
X89050235Y-110632659D01*
X88912000Y-110966388D01*
X88912000Y-111327612D01*
X89034768Y-111624000D01*
X87316679Y-111624000D01*
X87257230Y-111584277D01*
X87086521Y-111550321D01*
X87135437Y-111501405D01*
X87228000Y-111277939D01*
X87228000Y-110713000D01*
X87076000Y-110561000D01*
X86074000Y-110561000D01*
X86074000Y-110581000D01*
X85766000Y-110581000D01*
X85766000Y-110561000D01*
X84764000Y-110561000D01*
X84612000Y-110713000D01*
X84612000Y-111277939D01*
X84655160Y-111382136D01*
X84612000Y-111486333D01*
X84612000Y-111827667D01*
X84649051Y-111917115D01*
X84647277Y-111919770D01*
X84600089Y-112157000D01*
X82003000Y-112157000D01*
X82003000Y-111151000D01*
X82224000Y-111151000D01*
X82224000Y-112003000D01*
X83026000Y-112003000D01*
X83178000Y-111851000D01*
X83178000Y-111486061D01*
X83085437Y-111262595D01*
X82914404Y-111091562D01*
X82690938Y-110999000D01*
X82376000Y-110999000D01*
X82224000Y-111151000D01*
X82003000Y-111151000D01*
X82003000Y-110619842D01*
X82155596Y-110772438D01*
X82379062Y-110865000D01*
X82944000Y-110865000D01*
X83096000Y-110713000D01*
X83096000Y-109736000D01*
X83404000Y-109736000D01*
X83404000Y-110713000D01*
X83556000Y-110865000D01*
X84120938Y-110865000D01*
X84344404Y-110772438D01*
X84515437Y-110601405D01*
X84608000Y-110377939D01*
X84608000Y-109888000D01*
X84456000Y-109736000D01*
X83404000Y-109736000D01*
X83096000Y-109736000D01*
X83076000Y-109736000D01*
X83076000Y-109536061D01*
X84612000Y-109536061D01*
X84612000Y-110101000D01*
X84764000Y-110253000D01*
X85766000Y-110253000D01*
X85766000Y-109201000D01*
X86074000Y-109201000D01*
X86074000Y-110253000D01*
X87076000Y-110253000D01*
X87228000Y-110101000D01*
X87228000Y-109536061D01*
X87135437Y-109312595D01*
X86964404Y-109141562D01*
X86740938Y-109049000D01*
X86226000Y-109049000D01*
X86074000Y-109201000D01*
X85766000Y-109201000D01*
X85614000Y-109049000D01*
X85099062Y-109049000D01*
X84875596Y-109141562D01*
X84704563Y-109312595D01*
X84612000Y-109536061D01*
X83076000Y-109536061D01*
X83076000Y-109428000D01*
X83096000Y-109428000D01*
X83096000Y-108451000D01*
X83404000Y-108451000D01*
X83404000Y-109428000D01*
X84456000Y-109428000D01*
X84608000Y-109276000D01*
X84608000Y-108786061D01*
X84515437Y-108562595D01*
X84344404Y-108391562D01*
X84120938Y-108299000D01*
X83556000Y-108299000D01*
X83404000Y-108451000D01*
X83096000Y-108451000D01*
X82944000Y-108299000D01*
X82379062Y-108299000D01*
X82155596Y-108391562D01*
X82003000Y-108544158D01*
X82003000Y-105766921D01*
X82054562Y-105891404D01*
X82225595Y-106062437D01*
X82449061Y-106155000D01*
X82614000Y-106155000D01*
X82766000Y-106003000D01*
X82766000Y-105051000D01*
X82746000Y-105051000D01*
X82746000Y-104743000D01*
X82766000Y-104743000D01*
X82766000Y-103791000D01*
X83074000Y-103791000D01*
X83074000Y-104743000D01*
X83094000Y-104743000D01*
X83094000Y-105051000D01*
X83074000Y-105051000D01*
X83074000Y-106003000D01*
X83226000Y-106155000D01*
X83390939Y-106155000D01*
X83614405Y-106062437D01*
X83785438Y-105891404D01*
X83875396Y-105674225D01*
X83897277Y-105784230D01*
X84031657Y-105985343D01*
X84232770Y-106119723D01*
X84470000Y-106166911D01*
X85170000Y-106166911D01*
X85407230Y-106119723D01*
X85513707Y-106048577D01*
X85582770Y-106094723D01*
X85820000Y-106141911D01*
X87320000Y-106141911D01*
X87557230Y-106094723D01*
X87758343Y-105960343D01*
X87820000Y-105868067D01*
X87881657Y-105960343D01*
X88082770Y-106094723D01*
X88320000Y-106141911D01*
X89820000Y-106141911D01*
X90057230Y-106094723D01*
X90258343Y-105960343D01*
X90269521Y-105943614D01*
X90334341Y-105916765D01*
X90589765Y-105661341D01*
X90728000Y-105327612D01*
X90728000Y-104966388D01*
X90589765Y-104632659D01*
X90439911Y-104482805D01*
X90439911Y-104347000D01*
X91750089Y-104347000D01*
X91750089Y-105647000D01*
X91797277Y-105884230D01*
X91931657Y-106085343D01*
X92132770Y-106219723D01*
X92370000Y-106266911D01*
X93870000Y-106266911D01*
X94107230Y-106219723D01*
X94308343Y-106085343D01*
X94442723Y-105884230D01*
X94464604Y-105774225D01*
X94554562Y-105991404D01*
X94725595Y-106162437D01*
X94949061Y-106255000D01*
X95514000Y-106255000D01*
X95666000Y-106103000D01*
X95666000Y-105151000D01*
X95974000Y-105151000D01*
X95974000Y-106103000D01*
X96126000Y-106255000D01*
X96690939Y-106255000D01*
X96914405Y-106162437D01*
X97085438Y-105991404D01*
X97178000Y-105767938D01*
X97178000Y-105303000D01*
X97026000Y-105151000D01*
X95974000Y-105151000D01*
X95666000Y-105151000D01*
X95646000Y-105151000D01*
X95646000Y-104843000D01*
X95666000Y-104843000D01*
X95666000Y-103891000D01*
X95974000Y-103891000D01*
X95974000Y-104843000D01*
X97026000Y-104843000D01*
X97178000Y-104691000D01*
X97178000Y-104226062D01*
X97085438Y-104002596D01*
X96914405Y-103831563D01*
X96690939Y-103739000D01*
X96126000Y-103739000D01*
X95974000Y-103891000D01*
X95666000Y-103891000D01*
X95514000Y-103739000D01*
X94949061Y-103739000D01*
X94725595Y-103831563D01*
X94554562Y-104002596D01*
X94464604Y-104219775D01*
X94442723Y-104109770D01*
X94308343Y-103908657D01*
X94107230Y-103774277D01*
X93870000Y-103727089D01*
X92370000Y-103727089D01*
X92132770Y-103774277D01*
X91931657Y-103908657D01*
X91797277Y-104109770D01*
X91750089Y-104347000D01*
X90439911Y-104347000D01*
X90439911Y-104272000D01*
X90392723Y-104034770D01*
X90258343Y-103833657D01*
X90057230Y-103699277D01*
X89820000Y-103652089D01*
X88320000Y-103652089D01*
X88082770Y-103699277D01*
X87881657Y-103833657D01*
X87820000Y-103925933D01*
X87758343Y-103833657D01*
X87557230Y-103699277D01*
X87320000Y-103652089D01*
X85820000Y-103652089D01*
X85582770Y-103699277D01*
X85513707Y-103745423D01*
X85407230Y-103674277D01*
X85170000Y-103627089D01*
X84470000Y-103627089D01*
X84232770Y-103674277D01*
X84031657Y-103808657D01*
X83897277Y-104009770D01*
X83875396Y-104119775D01*
X83785438Y-103902596D01*
X83614405Y-103731563D01*
X83390939Y-103639000D01*
X83226000Y-103639000D01*
X83074000Y-103791000D01*
X82766000Y-103791000D01*
X82614000Y-103639000D01*
X82449061Y-103639000D01*
X82225595Y-103731563D01*
X82054562Y-103902596D01*
X82003000Y-104027079D01*
X82003000Y-99607000D01*
X86762000Y-99607000D01*
X86762000Y-100046938D01*
X86854562Y-100270404D01*
X87025595Y-100441437D01*
X87249061Y-100534000D01*
X87814000Y-100534000D01*
X87966000Y-100382000D01*
X87966000Y-99455000D01*
X86914000Y-99455000D01*
X86762000Y-99607000D01*
X82003000Y-99607000D01*
X82003000Y-94714106D01*
X82155659Y-94866765D01*
G36*
X86274000Y-115131000D02*
X86157395Y-115131000D01*
X86153306Y-115126911D01*
X86274000Y-115126911D01*
X86274000Y-115131000D01*
X86274000Y-115131000D01*
G37*
X86274000Y-115131000D02*
X86157395Y-115131000D01*
X86153306Y-115126911D01*
X86274000Y-115126911D01*
X86274000Y-115131000D01*
G36*
X91189911Y-97208665D02*
X91189911Y-97129578D01*
X91268998Y-97129578D01*
X91189911Y-97208665D01*
X91189911Y-97208665D01*
G37*
X91189911Y-97208665D02*
X91189911Y-97129578D01*
X91268998Y-97129578D01*
X91189911Y-97208665D01*
G04 #@! TD*
M02*
