M48
;DRILL file {KiCad 5.0.1} date Sat 19 Jan 2019 07:31:30 AM CST
;FORMAT={-:-/ absolute / inch / decimal}
FMAT,2
INCH,TZ
T1C0.0157
T2C0.0394
T3C0.0394
T4C0.0748
T5C0.7520
%
G90
G05
M72
T1
X3.2803Y-3.929
X3.42Y-4.475
X3.4772Y-4.5235
X3.6236Y-3.7906
X3.6272Y-3.6895
X3.6583Y-3.929
X3.7213Y-4.3936
X3.7463Y-4.525
X3.7463Y-4.575
X3.8157Y-4.3778
X3.9024Y-4.2676
X3.9672Y-3.6895
X3.9672Y-3.8095
X3.9969Y-3.929
X4.0992Y-4.3463
X4.1858Y-4.3463
X4.3211Y-3.8114
X4.3272Y-3.7095
X4.3512Y-4.3463
X4.3591Y-3.929
X4.6672Y-3.6895
X4.6672Y-3.7895
X4.7243Y-4.5008
X5.0211Y-3.8114
X5.0272Y-3.7095
X5.2961Y-4.8424
X5.3571Y-4.9871
X5.3672Y-3.7095
X5.3672Y-3.8095
X5.4555Y-4.9871
X5.7211Y-3.6956
X5.7211Y-3.8114
X5.863Y-4.4408
X5.9083Y-5.0353
X5.9567Y-4.3457
X5.9575Y-5.055
X6.0067Y-5.0747
X6.0559Y-5.0944
X6.0672Y-3.7095
X6.0672Y-3.8095
X6.1035Y-4.6882
X6.1465Y-4.1889
X6.2067Y-5.0543
X6.2567Y-5.0543
X6.3748Y-4.2597
X6.4072Y-3.7095
X6.4072Y-3.8095
X6.41Y-4.96
X6.6169Y-4.1495
X6.7301Y-3.7085
T2
X4.8043Y-5.1239
X4.9043Y-5.1239
X5.0043Y-5.1239
X5.1043Y-5.1239
X5.2043Y-5.1239
X5.687Y-4.1987
X5.787Y-4.1987
X5.887Y-4.1987
X5.987Y-4.1987
T3
X6.Y-5.19
X6.515Y-5.16
X6.665Y-5.16
X5.71Y-5.19
X3.3039Y-4.9133
X3.3039Y-5.0633
T4
X4.4831Y-4.3759
X5.4831Y-4.3759
T5
X5.4Y-5.6
X4.55Y-5.6
X6.25Y-5.6
X3.7Y-5.6
T0
M30
