M48
;DRILL file {KiCad 5.0.1} date Wed 20 Feb 2019 12:15:26 AM CST
;FORMAT={-:-/ absolute / inch / decimal}
FMAT,2
INCH,TZ
T1C0.0157
T2C0.0394
T3C0.0394
T4C0.0748
T5C0.7520
%
G90
G05
M72
T1
X3.2803Y-3.929
X3.5134Y-4.5219
X3.5829Y-4.4848
X3.6236Y-3.7906
X3.6272Y-3.6895
X3.6583Y-3.929
X3.7957Y-4.3322
X3.8197Y-4.5353
X3.8197Y-4.5826
X3.9672Y-3.6895
X3.9672Y-3.8095
X3.9969Y-3.929
X4.1484Y-4.3562
X4.235Y-4.3562
X4.2646Y-4.2085
X4.3211Y-3.8114
X4.3272Y-3.7095
X4.3591Y-3.929
X4.6672Y-3.6895
X4.6672Y-3.7895
X4.7243Y-4.5008
X5.0211Y-3.8114
X5.0272Y-3.7095
X5.3672Y-3.7095
X5.3672Y-3.8095
X5.4299Y-4.7413
X5.4988Y-4.9704
X5.5953Y-4.9704
X5.7211Y-3.6956
X5.7211Y-3.8114
X5.8394Y-4.4152
X5.9083Y-5.0373
X5.9567Y-4.3457
X5.9575Y-5.055
X6.0067Y-5.0747
X6.0559Y-5.0944
X6.0672Y-3.7095
X6.0672Y-3.8095
X6.1035Y-4.6882
X6.1465Y-4.1889
X6.2067Y-5.0543
X6.2567Y-5.0543
X6.3748Y-4.2597
X6.4072Y-3.7095
X6.4072Y-3.8095
X6.41Y-4.96
X6.6169Y-4.1495
X6.7301Y-3.7085
T2
X4.8043Y-5.1239
X4.9043Y-5.1239
X5.0043Y-5.1239
X5.1043Y-5.1239
X5.2043Y-5.1239
X5.687Y-4.1987
X5.787Y-4.1987
X5.887Y-4.1987
X5.987Y-4.1987
T3
X5.71Y-5.19
X3.3382Y-5.0908
X3.4882Y-5.0908
X6.515Y-5.16
X6.665Y-5.16
X6.Y-5.19
T4
X4.485Y-4.4881
X5.485Y-4.4881
T5
X6.25Y-5.6
X5.4Y-5.6
X4.55Y-5.6
X3.7Y-5.6
T0
M30
