G04 #@! TF.GenerationSoftware,KiCad,Pcbnew,5.0.1*
G04 #@! TF.CreationDate,2019-03-26T00:27:03-05:00*
G04 #@! TF.ProjectId,badge,62616467652E6B696361645F70636200,rev?*
G04 #@! TF.SameCoordinates,Original*
G04 #@! TF.FileFunction,Copper,L2,Bot,Signal*
G04 #@! TF.FilePolarity,Positive*
%FSLAX46Y46*%
G04 Gerber Fmt 4.6, Leading zero omitted, Abs format (unit mm)*
G04 Created by KiCad (PCBNEW 5.0.1) date Tue 26 Mar 2019 12:27:03 AM CDT*
%MOMM*%
%LPD*%
G01*
G04 APERTURE LIST*
G04 #@! TA.AperFunction,ComponentPad*
%ADD10C,2.000000*%
G04 #@! TD*
G04 #@! TA.AperFunction,ComponentPad*
%ADD11C,2.499360*%
G04 #@! TD*
G04 #@! TA.AperFunction,SMDPad,CuDef*
%ADD12R,1.300000X3.400000*%
G04 #@! TD*
G04 #@! TA.AperFunction,ComponentPad*
%ADD13R,1.700000X1.700000*%
G04 #@! TD*
G04 #@! TA.AperFunction,ComponentPad*
%ADD14O,1.700000X1.700000*%
G04 #@! TD*
G04 #@! TA.AperFunction,SMDPad,CuDef*
%ADD15R,10.000000X2.000000*%
G04 #@! TD*
G04 #@! TA.AperFunction,ViaPad*
%ADD16C,0.600000*%
G04 #@! TD*
G04 #@! TA.AperFunction,Conductor*
%ADD17C,0.250000*%
G04 #@! TD*
G04 #@! TA.AperFunction,Conductor*
%ADD18C,0.254000*%
G04 #@! TD*
G04 APERTURE END LIST*
D10*
G04 #@! TO.P,J4,1*
G04 #@! TO.N,TX*
X165481000Y-131064000D03*
G04 #@! TO.N,RX*
X169291000Y-131064000D03*
G04 #@! TD*
G04 #@! TO.P,J7,1*
G04 #@! TO.N,IO21*
X152400000Y-131826000D03*
G04 #@! TD*
G04 #@! TO.P,J9,1*
G04 #@! TO.N,IO0*
X84820000Y-125147000D03*
G04 #@! TD*
D11*
G04 #@! TO.P,J14,1*
G04 #@! TO.N,VDD*
X88600000Y-129307000D03*
G04 #@! TO.N,VSS*
X84790000Y-129307000D03*
G04 #@! TD*
D12*
G04 #@! TO.P,LS1,1*
G04 #@! TO.N,Net-(LS1-Pad1)*
X130895000Y-114305000D03*
G04 #@! TO.P,LS1,2*
G04 #@! TO.N,VSS*
X122195000Y-114305000D03*
G04 #@! TD*
D13*
G04 #@! TO.P,J8,1*
G04 #@! TO.N,IO16*
X122030000Y-130147000D03*
D14*
G04 #@! TO.P,J8,2*
G04 #@! TO.N,IO17*
X124570000Y-130147000D03*
G04 #@! TO.P,J8,3*
G04 #@! TO.N,IO5*
X127110000Y-130147000D03*
G04 #@! TO.P,J8,4*
G04 #@! TO.N,IO18*
X129650000Y-130147000D03*
G04 #@! TO.P,J8,5*
G04 #@! TO.N,IO19*
X132190000Y-130147000D03*
G04 #@! TD*
D13*
G04 #@! TO.P,J1,1*
G04 #@! TO.N,IO33*
X144450000Y-106647000D03*
D14*
G04 #@! TO.P,J1,2*
G04 #@! TO.N,IO32*
X146990000Y-106647000D03*
G04 #@! TO.P,J1,3*
G04 #@! TO.N,IO35*
X149530000Y-106647000D03*
G04 #@! TO.P,J1,4*
G04 #@! TO.N,IO34*
X152070000Y-106647000D03*
G04 #@! TD*
D15*
G04 #@! TO.P,REF\002A\002A,5*
G04 #@! TO.N,N/C*
X126520000Y-121597000D03*
G04 #@! TO.P,REF\002A\002A,4*
X164520000Y-103597000D03*
G04 #@! TO.P,REF\002A\002A,3*
X88520000Y-103597000D03*
G04 #@! TO.P,REF\002A\002A,2*
X88520000Y-90597000D03*
G04 #@! TO.P,REF\002A\002A,1*
X164520000Y-90597000D03*
G04 #@! TD*
D16*
G04 #@! TO.N,VDD*
X104320000Y-110297000D03*
X101120000Y-110297000D03*
X108320000Y-106897000D03*
X156120000Y-106397000D03*
X101720000Y-110997000D03*
X103920000Y-110997000D03*
X168070000Y-105397000D03*
X169620000Y-99197000D03*
X161320000Y-94397000D03*
X161220000Y-99301000D03*
X152320000Y-94397000D03*
X152420000Y-99301000D03*
X143320000Y-94397000D03*
X143420000Y-99301000D03*
X134520000Y-94397000D03*
X134420000Y-99301000D03*
X125520000Y-94397000D03*
X125620000Y-99301000D03*
X116920000Y-94397000D03*
X116820000Y-99301000D03*
X107920000Y-94397000D03*
X107820000Y-99301000D03*
X98920000Y-94397000D03*
X99020000Y-99301000D03*
X90520000Y-94397000D03*
X90620000Y-99301000D03*
X102720000Y-117297000D03*
G04 #@! TO.N,VSS*
X119997600Y-114321400D03*
X155030000Y-119080000D03*
G04 #@! TO.N,SPI*
X152075010Y-109902010D03*
X82670000Y-94097000D03*
G04 #@! TO.N,TX*
X97020000Y-116397000D03*
X158690000Y-128197000D03*
G04 #@! TO.N,RX*
X97020000Y-115197000D03*
X159960000Y-128197000D03*
G04 #@! TO.N,IO19*
X154880000Y-128197000D03*
G04 #@! TO.N,IO18*
X153610000Y-128197000D03*
G04 #@! TO.N,IO5*
X152340000Y-128197000D03*
G04 #@! TO.N,IO17*
X151120000Y-127797000D03*
G04 #@! TO.N,IO16*
X142120000Y-126246989D03*
X139670000Y-126246989D03*
G04 #@! TO.N,IO0*
X142070000Y-131647000D03*
G04 #@! TO.N,IO13*
X143320000Y-111197000D03*
X142520000Y-103397000D03*
G04 #@! TO.N,IO27*
X96410000Y-110037000D03*
X149800000Y-110197000D03*
G04 #@! TO.N,IO33*
X146120000Y-107997000D03*
X153610000Y-110197000D03*
G04 #@! TO.N,VBUS*
X89820000Y-111147000D03*
X89820000Y-105147000D03*
G04 #@! TO.N,Net-(R2-Pad1)*
X90960000Y-108767000D03*
X93120000Y-105097002D03*
G04 #@! TO.N,Net-(J10-Pad3)*
X89240000Y-114857000D03*
X91006000Y-113915000D03*
G04 #@! TO.N,Net-(LS1-Pad1)*
X130895000Y-114305000D03*
G04 #@! TO.N,Net-(U1-Pad37)*
X162814000Y-125984000D03*
G04 #@! TD*
D17*
G04 #@! TO.N,VDD*
X161320000Y-94397000D02*
X161320000Y-99201000D01*
X161320000Y-99201000D02*
X161220000Y-99301000D01*
X152320000Y-94397000D02*
X152320000Y-99201000D01*
X152320000Y-99201000D02*
X152420000Y-99301000D01*
X143320000Y-94397000D02*
X143320000Y-99201000D01*
X143320000Y-99201000D02*
X143420000Y-99301000D01*
X134520000Y-94397000D02*
X134520000Y-99201000D01*
X134520000Y-99201000D02*
X134420000Y-99301000D01*
X125520000Y-94397000D02*
X125520000Y-99201000D01*
X125520000Y-99201000D02*
X125620000Y-99301000D01*
X116920000Y-94397000D02*
X116920000Y-99201000D01*
X116920000Y-99201000D02*
X116820000Y-99301000D01*
X107920000Y-94397000D02*
X107920000Y-99201000D01*
X107920000Y-99201000D02*
X107820000Y-99301000D01*
X98920000Y-94397000D02*
X98920000Y-99201000D01*
X98920000Y-99201000D02*
X99020000Y-99301000D01*
X90520000Y-94397000D02*
X90520000Y-99201000D01*
X90520000Y-99201000D02*
X90620000Y-99301000D01*
G04 #@! TO.N,VSS*
X122195000Y-114305000D02*
X120014000Y-114305000D01*
X120014000Y-114305000D02*
X119997600Y-114321400D01*
X154940000Y-119126000D02*
X154986000Y-119080000D01*
X154986000Y-119080000D02*
X155030000Y-119080000D01*
G04 #@! TO.N,SPI*
X91674003Y-99926001D02*
X84549001Y-99926001D01*
X143620001Y-111822001D02*
X103570003Y-111822001D01*
X145870003Y-109571999D02*
X143620001Y-111822001D01*
X103570003Y-111822001D02*
X91674003Y-99926001D01*
X152075010Y-109902010D02*
X151744999Y-109571999D01*
X151744999Y-109571999D02*
X145870003Y-109571999D01*
X84549001Y-99926001D02*
X82670000Y-98047000D01*
X82670000Y-98047000D02*
X82670000Y-94097000D01*
G04 #@! TO.N,TX*
X97020000Y-116397000D02*
X107944999Y-127321999D01*
X157814999Y-127321999D02*
X158690000Y-128197000D01*
X107944999Y-127321999D02*
X157814999Y-127321999D01*
X97319999Y-116696999D02*
X97020000Y-116397000D01*
G04 #@! TO.N,RX*
X158634989Y-126871989D02*
X159960000Y-128197000D01*
X109194989Y-126871989D02*
X158634989Y-126871989D01*
X97520000Y-115197000D02*
X109194989Y-126871989D01*
X97020000Y-115197000D02*
X97520000Y-115197000D01*
G04 #@! TO.N,IO19*
X132940000Y-129397000D02*
X132190000Y-130147000D01*
X153820000Y-129397000D02*
X132940000Y-129397000D01*
X153820000Y-129397000D02*
X153820000Y-129257000D01*
X153820000Y-129257000D02*
X154880000Y-128197000D01*
G04 #@! TO.N,IO18*
X130900000Y-128897000D02*
X129650000Y-130147000D01*
X152695012Y-128946990D02*
X130900000Y-128897000D01*
X152695012Y-128946990D02*
X152860010Y-128946990D01*
X152860010Y-128946990D02*
X153610000Y-128197000D01*
G04 #@! TO.N,IO5*
X128860000Y-128397000D02*
X127110000Y-130147000D01*
X151545012Y-128446990D02*
X128860000Y-128397000D01*
X151545012Y-128446990D02*
X152090010Y-128446990D01*
X152090010Y-128446990D02*
X152340000Y-128197000D01*
G04 #@! TO.N,IO17*
X126820000Y-127897000D02*
X124570000Y-130147000D01*
X150070000Y-127897000D02*
X126820000Y-127897000D01*
X150170000Y-127797000D02*
X151120000Y-127797000D01*
X150070000Y-127897000D02*
X150170000Y-127797000D01*
G04 #@! TO.N,IO16*
X142120000Y-126246989D02*
X139670000Y-126246989D01*
G04 #@! TO.N,IO0*
X83215319Y-127401681D02*
X84820000Y-125797000D01*
X84499472Y-131347001D02*
X83215319Y-130062848D01*
X83215319Y-130062848D02*
X83215319Y-127401681D01*
X141770001Y-131347001D02*
X84499472Y-131347001D01*
X142070000Y-131647000D02*
X141770001Y-131347001D01*
G04 #@! TO.N,IO13*
X143320000Y-111197000D02*
X142520000Y-110397000D01*
X142520000Y-110397000D02*
X142520000Y-103397000D01*
G04 #@! TO.N,IO27*
X96410000Y-110587000D02*
X97970000Y-112147000D01*
X96410000Y-110037000D02*
X96410000Y-110587000D01*
X97970000Y-112147000D02*
X97970000Y-115010590D01*
X97970000Y-115010590D02*
X109356410Y-126397000D01*
X109356410Y-126397000D02*
X138320000Y-126397000D01*
X139095012Y-125621988D02*
X143044988Y-125621988D01*
X138320000Y-126397000D02*
X139095012Y-125621988D01*
X143044988Y-125621988D02*
X143570000Y-126147000D01*
X143570000Y-126147000D02*
X148570000Y-126147000D01*
X149800000Y-124917000D02*
X149800000Y-111147000D01*
X148570000Y-126147000D02*
X149800000Y-124917000D01*
X149800000Y-111317000D02*
X149800000Y-111147000D01*
X149800000Y-111147000D02*
X149800000Y-110197000D01*
G04 #@! TO.N,IO33*
X146120000Y-107997000D02*
X151410000Y-107997000D01*
X151410000Y-107997000D02*
X153610000Y-110197000D01*
G04 #@! TO.N,VBUS*
X89820000Y-111147000D02*
X89220000Y-110547000D01*
X89220000Y-105747000D02*
X89820000Y-105147000D01*
X89220000Y-110547000D02*
X89220000Y-105747000D01*
G04 #@! TO.N,Net-(R2-Pad1)*
X90960000Y-108767000D02*
X90960000Y-107257002D01*
X90960000Y-107257002D02*
X93120000Y-105097002D01*
G04 #@! TO.N,Net-(J10-Pad3)*
X89240000Y-114857000D02*
X90064000Y-114857000D01*
X90064000Y-114857000D02*
X91006000Y-113915000D01*
G04 #@! TD*
D18*
G04 #@! TO.N,VDD*
G36*
X82122071Y-98594929D02*
X82185530Y-98637331D01*
X83958671Y-100410473D01*
X84001072Y-100473930D01*
X84064528Y-100516330D01*
X84252463Y-100641905D01*
X84300606Y-100651481D01*
X84474149Y-100686001D01*
X84474153Y-100686001D01*
X84549001Y-100700889D01*
X84623849Y-100686001D01*
X91359202Y-100686001D01*
X92622761Y-101949560D01*
X83520000Y-101949560D01*
X83272235Y-101998843D01*
X83062191Y-102139191D01*
X82921843Y-102349235D01*
X82872560Y-102597000D01*
X82872560Y-104597000D01*
X82921843Y-104844765D01*
X83062191Y-105054809D01*
X83272235Y-105195157D01*
X83520000Y-105244440D01*
X88641757Y-105244440D01*
X88629672Y-105262527D01*
X88629671Y-105262528D01*
X88504097Y-105450463D01*
X88445112Y-105747000D01*
X88460001Y-105821852D01*
X88460000Y-110472153D01*
X88445112Y-110547000D01*
X88460000Y-110621847D01*
X88460000Y-110621851D01*
X88504096Y-110843536D01*
X88672071Y-111094929D01*
X88735530Y-111137331D01*
X88885000Y-111286801D01*
X88885000Y-111332983D01*
X89027345Y-111676635D01*
X89290365Y-111939655D01*
X89634017Y-112082000D01*
X90005983Y-112082000D01*
X90349635Y-111939655D01*
X90612655Y-111676635D01*
X90755000Y-111332983D01*
X90755000Y-110961017D01*
X90612655Y-110617365D01*
X90349635Y-110354345D01*
X90005983Y-110212000D01*
X89980000Y-110212000D01*
X89980000Y-106082000D01*
X90005983Y-106082000D01*
X90349635Y-105939655D01*
X90612655Y-105676635D01*
X90755000Y-105332983D01*
X90755000Y-105244440D01*
X91897760Y-105244440D01*
X90475528Y-106666673D01*
X90412072Y-106709073D01*
X90369672Y-106772529D01*
X90369671Y-106772530D01*
X90244097Y-106960465D01*
X90185112Y-107257002D01*
X90200001Y-107331853D01*
X90200000Y-108204710D01*
X90167345Y-108237365D01*
X90025000Y-108581017D01*
X90025000Y-108952983D01*
X90167345Y-109296635D01*
X90430365Y-109559655D01*
X90774017Y-109702000D01*
X91145983Y-109702000D01*
X91489635Y-109559655D01*
X91752655Y-109296635D01*
X91895000Y-108952983D01*
X91895000Y-108581017D01*
X91752655Y-108237365D01*
X91720000Y-108204710D01*
X91720000Y-107571803D01*
X93259803Y-106032002D01*
X93305983Y-106032002D01*
X93649635Y-105889657D01*
X93912655Y-105626637D01*
X94055000Y-105282985D01*
X94055000Y-104939285D01*
X94118157Y-104844765D01*
X94167440Y-104597000D01*
X94167440Y-103494239D01*
X102979674Y-112306474D01*
X103022074Y-112369930D01*
X103273466Y-112537905D01*
X103495151Y-112582001D01*
X103495155Y-112582001D01*
X103570003Y-112596889D01*
X103644851Y-112582001D01*
X120902135Y-112582001D01*
X120897560Y-112605000D01*
X120897560Y-113545000D01*
X120543490Y-113545000D01*
X120527235Y-113528745D01*
X120183583Y-113386400D01*
X119811617Y-113386400D01*
X119467965Y-113528745D01*
X119204945Y-113791765D01*
X119062600Y-114135417D01*
X119062600Y-114507383D01*
X119204945Y-114851035D01*
X119467965Y-115114055D01*
X119811617Y-115256400D01*
X120183583Y-115256400D01*
X120527235Y-115114055D01*
X120576290Y-115065000D01*
X120897560Y-115065000D01*
X120897560Y-116005000D01*
X120946843Y-116252765D01*
X121087191Y-116462809D01*
X121297235Y-116603157D01*
X121545000Y-116652440D01*
X122845000Y-116652440D01*
X123092765Y-116603157D01*
X123302809Y-116462809D01*
X123443157Y-116252765D01*
X123492440Y-116005000D01*
X123492440Y-112605000D01*
X123487865Y-112582001D01*
X129602135Y-112582001D01*
X129597560Y-112605000D01*
X129597560Y-116005000D01*
X129646843Y-116252765D01*
X129787191Y-116462809D01*
X129997235Y-116603157D01*
X130245000Y-116652440D01*
X131545000Y-116652440D01*
X131792765Y-116603157D01*
X132002809Y-116462809D01*
X132143157Y-116252765D01*
X132192440Y-116005000D01*
X132192440Y-112605000D01*
X132187865Y-112582001D01*
X143545154Y-112582001D01*
X143620001Y-112596889D01*
X143694848Y-112582001D01*
X143694853Y-112582001D01*
X143916538Y-112537905D01*
X144167930Y-112369930D01*
X144210332Y-112306471D01*
X146184806Y-110331999D01*
X148865000Y-110331999D01*
X148865000Y-110382983D01*
X149007345Y-110726635D01*
X149040000Y-110759290D01*
X149040000Y-111391851D01*
X149040001Y-111391856D01*
X149040000Y-124602198D01*
X148255199Y-125387000D01*
X143884802Y-125387000D01*
X143635319Y-125137518D01*
X143592917Y-125074059D01*
X143341525Y-124906084D01*
X143119840Y-124861988D01*
X143119835Y-124861988D01*
X143044988Y-124847100D01*
X142970141Y-124861988D01*
X139169858Y-124861988D01*
X139095011Y-124847100D01*
X139020164Y-124861988D01*
X139020160Y-124861988D01*
X138798475Y-124906084D01*
X138798473Y-124906085D01*
X138798474Y-124906085D01*
X138610538Y-125031659D01*
X138610536Y-125031661D01*
X138547083Y-125074059D01*
X138504685Y-125137513D01*
X138005198Y-125637000D01*
X109671213Y-125637000D01*
X104631213Y-120597000D01*
X120872560Y-120597000D01*
X120872560Y-122597000D01*
X120921843Y-122844765D01*
X121062191Y-123054809D01*
X121272235Y-123195157D01*
X121520000Y-123244440D01*
X131520000Y-123244440D01*
X131767765Y-123195157D01*
X131977809Y-123054809D01*
X132118157Y-122844765D01*
X132167440Y-122597000D01*
X132167440Y-120597000D01*
X132118157Y-120349235D01*
X131977809Y-120139191D01*
X131767765Y-119998843D01*
X131520000Y-119949560D01*
X121520000Y-119949560D01*
X121272235Y-119998843D01*
X121062191Y-120139191D01*
X120921843Y-120349235D01*
X120872560Y-120597000D01*
X104631213Y-120597000D01*
X98730000Y-114695789D01*
X98730000Y-112221846D01*
X98744888Y-112146999D01*
X98730000Y-112072152D01*
X98730000Y-112072148D01*
X98685904Y-111850463D01*
X98517929Y-111599071D01*
X98454473Y-111556671D01*
X97279329Y-110381528D01*
X97345000Y-110222983D01*
X97345000Y-109851017D01*
X97202655Y-109507365D01*
X96939635Y-109244345D01*
X96595983Y-109102000D01*
X96224017Y-109102000D01*
X95880365Y-109244345D01*
X95617345Y-109507365D01*
X95475000Y-109851017D01*
X95475000Y-110222983D01*
X95617345Y-110566635D01*
X95635543Y-110584833D01*
X95635112Y-110587000D01*
X95650000Y-110661847D01*
X95650000Y-110661852D01*
X95694096Y-110883537D01*
X95862072Y-111134929D01*
X95925528Y-111177329D01*
X97210000Y-112461802D01*
X97210001Y-114263664D01*
X97205983Y-114262000D01*
X96834017Y-114262000D01*
X96490365Y-114404345D01*
X96227345Y-114667365D01*
X96085000Y-115011017D01*
X96085000Y-115382983D01*
X96227345Y-115726635D01*
X96297710Y-115797000D01*
X96227345Y-115867365D01*
X96085000Y-116211017D01*
X96085000Y-116582983D01*
X96227345Y-116926635D01*
X96490365Y-117189655D01*
X96834017Y-117332000D01*
X96880199Y-117332000D01*
X107354669Y-127806471D01*
X107397070Y-127869928D01*
X107460526Y-127912328D01*
X107648461Y-128037903D01*
X107696604Y-128047479D01*
X107870147Y-128081999D01*
X107870151Y-128081999D01*
X107944999Y-128096887D01*
X108019847Y-128081999D01*
X125560199Y-128081999D01*
X124936408Y-128705791D01*
X124716256Y-128662000D01*
X124423744Y-128662000D01*
X123990582Y-128748161D01*
X123499375Y-129076375D01*
X123487184Y-129094619D01*
X123478157Y-129049235D01*
X123337809Y-128839191D01*
X123127765Y-128698843D01*
X122880000Y-128649560D01*
X121180000Y-128649560D01*
X120932235Y-128698843D01*
X120722191Y-128839191D01*
X120581843Y-129049235D01*
X120532560Y-129297000D01*
X120532560Y-130587001D01*
X90034037Y-130587001D01*
X90046823Y-130574215D01*
X89933090Y-130460482D01*
X90225859Y-130331275D01*
X90494071Y-129631117D01*
X90473928Y-128881616D01*
X90225859Y-128282725D01*
X89933089Y-128153517D01*
X88779605Y-129307000D01*
X88793748Y-129321142D01*
X88614142Y-129500748D01*
X88600000Y-129486605D01*
X88585858Y-129500748D01*
X88406252Y-129321142D01*
X88420395Y-129307000D01*
X87266911Y-128153517D01*
X86974141Y-128282725D01*
X86705929Y-128982883D01*
X86726072Y-129732384D01*
X86974141Y-130331275D01*
X87266910Y-130460482D01*
X87153177Y-130574215D01*
X87165963Y-130587001D01*
X86175339Y-130587001D01*
X86387755Y-130374585D01*
X86674680Y-129681886D01*
X86674680Y-128932114D01*
X86387755Y-128239415D01*
X86122251Y-127973911D01*
X87446517Y-127973911D01*
X88600000Y-129127395D01*
X89753483Y-127973911D01*
X89624275Y-127681141D01*
X88924117Y-127412929D01*
X88174616Y-127433072D01*
X87575725Y-127681141D01*
X87446517Y-127973911D01*
X86122251Y-127973911D01*
X85857585Y-127709245D01*
X85164886Y-127422320D01*
X84415114Y-127422320D01*
X84166504Y-127525298D01*
X84909802Y-126782000D01*
X85145222Y-126782000D01*
X85746153Y-126533086D01*
X86206086Y-126073153D01*
X86455000Y-125472222D01*
X86455000Y-124821778D01*
X86206086Y-124220847D01*
X85746153Y-123760914D01*
X85145222Y-123512000D01*
X84494778Y-123512000D01*
X83893847Y-123760914D01*
X83433914Y-124220847D01*
X83185000Y-124821778D01*
X83185000Y-125472222D01*
X83433914Y-126073153D01*
X83451480Y-126090719D01*
X82730847Y-126811352D01*
X82667391Y-126853752D01*
X82624991Y-126917208D01*
X82624990Y-126917209D01*
X82499416Y-127105144D01*
X82440431Y-127401681D01*
X82455320Y-127476533D01*
X82455319Y-129988001D01*
X82440431Y-130062848D01*
X82455319Y-130137695D01*
X82455319Y-130137699D01*
X82499415Y-130359384D01*
X82667390Y-130610777D01*
X82730849Y-130653179D01*
X83747669Y-131670000D01*
X82030000Y-131670000D01*
X82030000Y-115480963D01*
X84585000Y-115480963D01*
X84585000Y-115833037D01*
X84719733Y-116158312D01*
X84968688Y-116407267D01*
X85293963Y-116542000D01*
X85646037Y-116542000D01*
X85971312Y-116407267D01*
X86220267Y-116158312D01*
X86355000Y-115833037D01*
X86355000Y-115480963D01*
X86220267Y-115155688D01*
X85971312Y-114906733D01*
X85646037Y-114772000D01*
X85293963Y-114772000D01*
X84968688Y-114906733D01*
X84719733Y-115155688D01*
X84585000Y-115480963D01*
X82030000Y-115480963D01*
X82030000Y-114671017D01*
X88305000Y-114671017D01*
X88305000Y-115042983D01*
X88447345Y-115386635D01*
X88710365Y-115649655D01*
X89054017Y-115792000D01*
X89425983Y-115792000D01*
X89769635Y-115649655D01*
X89802290Y-115617000D01*
X89989153Y-115617000D01*
X90064000Y-115631888D01*
X90138847Y-115617000D01*
X90138852Y-115617000D01*
X90360537Y-115572904D01*
X90611929Y-115404929D01*
X90654331Y-115341470D01*
X91145802Y-114850000D01*
X91191983Y-114850000D01*
X91535635Y-114707655D01*
X91798655Y-114444635D01*
X91941000Y-114100983D01*
X91941000Y-113729017D01*
X91798655Y-113385365D01*
X91535635Y-113122345D01*
X91191983Y-112980000D01*
X90820017Y-112980000D01*
X90476365Y-113122345D01*
X90213345Y-113385365D01*
X90071000Y-113729017D01*
X90071000Y-113775198D01*
X89775744Y-114070454D01*
X89769635Y-114064345D01*
X89425983Y-113922000D01*
X89054017Y-113922000D01*
X88710365Y-114064345D01*
X88447345Y-114327365D01*
X88305000Y-114671017D01*
X82030000Y-114671017D01*
X82030000Y-111480963D01*
X84585000Y-111480963D01*
X84585000Y-111833037D01*
X84719733Y-112158312D01*
X84968688Y-112407267D01*
X85293963Y-112542000D01*
X85646037Y-112542000D01*
X85971312Y-112407267D01*
X86220267Y-112158312D01*
X86355000Y-111833037D01*
X86355000Y-111480963D01*
X86220267Y-111155688D01*
X85971312Y-110906733D01*
X85646037Y-110772000D01*
X85293963Y-110772000D01*
X84968688Y-110906733D01*
X84719733Y-111155688D01*
X84585000Y-111480963D01*
X82030000Y-111480963D01*
X82030000Y-98457135D01*
X82122071Y-98594929D01*
X82122071Y-98594929D01*
G37*
X82122071Y-98594929D02*
X82185530Y-98637331D01*
X83958671Y-100410473D01*
X84001072Y-100473930D01*
X84064528Y-100516330D01*
X84252463Y-100641905D01*
X84300606Y-100651481D01*
X84474149Y-100686001D01*
X84474153Y-100686001D01*
X84549001Y-100700889D01*
X84623849Y-100686001D01*
X91359202Y-100686001D01*
X92622761Y-101949560D01*
X83520000Y-101949560D01*
X83272235Y-101998843D01*
X83062191Y-102139191D01*
X82921843Y-102349235D01*
X82872560Y-102597000D01*
X82872560Y-104597000D01*
X82921843Y-104844765D01*
X83062191Y-105054809D01*
X83272235Y-105195157D01*
X83520000Y-105244440D01*
X88641757Y-105244440D01*
X88629672Y-105262527D01*
X88629671Y-105262528D01*
X88504097Y-105450463D01*
X88445112Y-105747000D01*
X88460001Y-105821852D01*
X88460000Y-110472153D01*
X88445112Y-110547000D01*
X88460000Y-110621847D01*
X88460000Y-110621851D01*
X88504096Y-110843536D01*
X88672071Y-111094929D01*
X88735530Y-111137331D01*
X88885000Y-111286801D01*
X88885000Y-111332983D01*
X89027345Y-111676635D01*
X89290365Y-111939655D01*
X89634017Y-112082000D01*
X90005983Y-112082000D01*
X90349635Y-111939655D01*
X90612655Y-111676635D01*
X90755000Y-111332983D01*
X90755000Y-110961017D01*
X90612655Y-110617365D01*
X90349635Y-110354345D01*
X90005983Y-110212000D01*
X89980000Y-110212000D01*
X89980000Y-106082000D01*
X90005983Y-106082000D01*
X90349635Y-105939655D01*
X90612655Y-105676635D01*
X90755000Y-105332983D01*
X90755000Y-105244440D01*
X91897760Y-105244440D01*
X90475528Y-106666673D01*
X90412072Y-106709073D01*
X90369672Y-106772529D01*
X90369671Y-106772530D01*
X90244097Y-106960465D01*
X90185112Y-107257002D01*
X90200001Y-107331853D01*
X90200000Y-108204710D01*
X90167345Y-108237365D01*
X90025000Y-108581017D01*
X90025000Y-108952983D01*
X90167345Y-109296635D01*
X90430365Y-109559655D01*
X90774017Y-109702000D01*
X91145983Y-109702000D01*
X91489635Y-109559655D01*
X91752655Y-109296635D01*
X91895000Y-108952983D01*
X91895000Y-108581017D01*
X91752655Y-108237365D01*
X91720000Y-108204710D01*
X91720000Y-107571803D01*
X93259803Y-106032002D01*
X93305983Y-106032002D01*
X93649635Y-105889657D01*
X93912655Y-105626637D01*
X94055000Y-105282985D01*
X94055000Y-104939285D01*
X94118157Y-104844765D01*
X94167440Y-104597000D01*
X94167440Y-103494239D01*
X102979674Y-112306474D01*
X103022074Y-112369930D01*
X103273466Y-112537905D01*
X103495151Y-112582001D01*
X103495155Y-112582001D01*
X103570003Y-112596889D01*
X103644851Y-112582001D01*
X120902135Y-112582001D01*
X120897560Y-112605000D01*
X120897560Y-113545000D01*
X120543490Y-113545000D01*
X120527235Y-113528745D01*
X120183583Y-113386400D01*
X119811617Y-113386400D01*
X119467965Y-113528745D01*
X119204945Y-113791765D01*
X119062600Y-114135417D01*
X119062600Y-114507383D01*
X119204945Y-114851035D01*
X119467965Y-115114055D01*
X119811617Y-115256400D01*
X120183583Y-115256400D01*
X120527235Y-115114055D01*
X120576290Y-115065000D01*
X120897560Y-115065000D01*
X120897560Y-116005000D01*
X120946843Y-116252765D01*
X121087191Y-116462809D01*
X121297235Y-116603157D01*
X121545000Y-116652440D01*
X122845000Y-116652440D01*
X123092765Y-116603157D01*
X123302809Y-116462809D01*
X123443157Y-116252765D01*
X123492440Y-116005000D01*
X123492440Y-112605000D01*
X123487865Y-112582001D01*
X129602135Y-112582001D01*
X129597560Y-112605000D01*
X129597560Y-116005000D01*
X129646843Y-116252765D01*
X129787191Y-116462809D01*
X129997235Y-116603157D01*
X130245000Y-116652440D01*
X131545000Y-116652440D01*
X131792765Y-116603157D01*
X132002809Y-116462809D01*
X132143157Y-116252765D01*
X132192440Y-116005000D01*
X132192440Y-112605000D01*
X132187865Y-112582001D01*
X143545154Y-112582001D01*
X143620001Y-112596889D01*
X143694848Y-112582001D01*
X143694853Y-112582001D01*
X143916538Y-112537905D01*
X144167930Y-112369930D01*
X144210332Y-112306471D01*
X146184806Y-110331999D01*
X148865000Y-110331999D01*
X148865000Y-110382983D01*
X149007345Y-110726635D01*
X149040000Y-110759290D01*
X149040000Y-111391851D01*
X149040001Y-111391856D01*
X149040000Y-124602198D01*
X148255199Y-125387000D01*
X143884802Y-125387000D01*
X143635319Y-125137518D01*
X143592917Y-125074059D01*
X143341525Y-124906084D01*
X143119840Y-124861988D01*
X143119835Y-124861988D01*
X143044988Y-124847100D01*
X142970141Y-124861988D01*
X139169858Y-124861988D01*
X139095011Y-124847100D01*
X139020164Y-124861988D01*
X139020160Y-124861988D01*
X138798475Y-124906084D01*
X138798473Y-124906085D01*
X138798474Y-124906085D01*
X138610538Y-125031659D01*
X138610536Y-125031661D01*
X138547083Y-125074059D01*
X138504685Y-125137513D01*
X138005198Y-125637000D01*
X109671213Y-125637000D01*
X104631213Y-120597000D01*
X120872560Y-120597000D01*
X120872560Y-122597000D01*
X120921843Y-122844765D01*
X121062191Y-123054809D01*
X121272235Y-123195157D01*
X121520000Y-123244440D01*
X131520000Y-123244440D01*
X131767765Y-123195157D01*
X131977809Y-123054809D01*
X132118157Y-122844765D01*
X132167440Y-122597000D01*
X132167440Y-120597000D01*
X132118157Y-120349235D01*
X131977809Y-120139191D01*
X131767765Y-119998843D01*
X131520000Y-119949560D01*
X121520000Y-119949560D01*
X121272235Y-119998843D01*
X121062191Y-120139191D01*
X120921843Y-120349235D01*
X120872560Y-120597000D01*
X104631213Y-120597000D01*
X98730000Y-114695789D01*
X98730000Y-112221846D01*
X98744888Y-112146999D01*
X98730000Y-112072152D01*
X98730000Y-112072148D01*
X98685904Y-111850463D01*
X98517929Y-111599071D01*
X98454473Y-111556671D01*
X97279329Y-110381528D01*
X97345000Y-110222983D01*
X97345000Y-109851017D01*
X97202655Y-109507365D01*
X96939635Y-109244345D01*
X96595983Y-109102000D01*
X96224017Y-109102000D01*
X95880365Y-109244345D01*
X95617345Y-109507365D01*
X95475000Y-109851017D01*
X95475000Y-110222983D01*
X95617345Y-110566635D01*
X95635543Y-110584833D01*
X95635112Y-110587000D01*
X95650000Y-110661847D01*
X95650000Y-110661852D01*
X95694096Y-110883537D01*
X95862072Y-111134929D01*
X95925528Y-111177329D01*
X97210000Y-112461802D01*
X97210001Y-114263664D01*
X97205983Y-114262000D01*
X96834017Y-114262000D01*
X96490365Y-114404345D01*
X96227345Y-114667365D01*
X96085000Y-115011017D01*
X96085000Y-115382983D01*
X96227345Y-115726635D01*
X96297710Y-115797000D01*
X96227345Y-115867365D01*
X96085000Y-116211017D01*
X96085000Y-116582983D01*
X96227345Y-116926635D01*
X96490365Y-117189655D01*
X96834017Y-117332000D01*
X96880199Y-117332000D01*
X107354669Y-127806471D01*
X107397070Y-127869928D01*
X107460526Y-127912328D01*
X107648461Y-128037903D01*
X107696604Y-128047479D01*
X107870147Y-128081999D01*
X107870151Y-128081999D01*
X107944999Y-128096887D01*
X108019847Y-128081999D01*
X125560199Y-128081999D01*
X124936408Y-128705791D01*
X124716256Y-128662000D01*
X124423744Y-128662000D01*
X123990582Y-128748161D01*
X123499375Y-129076375D01*
X123487184Y-129094619D01*
X123478157Y-129049235D01*
X123337809Y-128839191D01*
X123127765Y-128698843D01*
X122880000Y-128649560D01*
X121180000Y-128649560D01*
X120932235Y-128698843D01*
X120722191Y-128839191D01*
X120581843Y-129049235D01*
X120532560Y-129297000D01*
X120532560Y-130587001D01*
X90034037Y-130587001D01*
X90046823Y-130574215D01*
X89933090Y-130460482D01*
X90225859Y-130331275D01*
X90494071Y-129631117D01*
X90473928Y-128881616D01*
X90225859Y-128282725D01*
X89933089Y-128153517D01*
X88779605Y-129307000D01*
X88793748Y-129321142D01*
X88614142Y-129500748D01*
X88600000Y-129486605D01*
X88585858Y-129500748D01*
X88406252Y-129321142D01*
X88420395Y-129307000D01*
X87266911Y-128153517D01*
X86974141Y-128282725D01*
X86705929Y-128982883D01*
X86726072Y-129732384D01*
X86974141Y-130331275D01*
X87266910Y-130460482D01*
X87153177Y-130574215D01*
X87165963Y-130587001D01*
X86175339Y-130587001D01*
X86387755Y-130374585D01*
X86674680Y-129681886D01*
X86674680Y-128932114D01*
X86387755Y-128239415D01*
X86122251Y-127973911D01*
X87446517Y-127973911D01*
X88600000Y-129127395D01*
X89753483Y-127973911D01*
X89624275Y-127681141D01*
X88924117Y-127412929D01*
X88174616Y-127433072D01*
X87575725Y-127681141D01*
X87446517Y-127973911D01*
X86122251Y-127973911D01*
X85857585Y-127709245D01*
X85164886Y-127422320D01*
X84415114Y-127422320D01*
X84166504Y-127525298D01*
X84909802Y-126782000D01*
X85145222Y-126782000D01*
X85746153Y-126533086D01*
X86206086Y-126073153D01*
X86455000Y-125472222D01*
X86455000Y-124821778D01*
X86206086Y-124220847D01*
X85746153Y-123760914D01*
X85145222Y-123512000D01*
X84494778Y-123512000D01*
X83893847Y-123760914D01*
X83433914Y-124220847D01*
X83185000Y-124821778D01*
X83185000Y-125472222D01*
X83433914Y-126073153D01*
X83451480Y-126090719D01*
X82730847Y-126811352D01*
X82667391Y-126853752D01*
X82624991Y-126917208D01*
X82624990Y-126917209D01*
X82499416Y-127105144D01*
X82440431Y-127401681D01*
X82455320Y-127476533D01*
X82455319Y-129988001D01*
X82440431Y-130062848D01*
X82455319Y-130137695D01*
X82455319Y-130137699D01*
X82499415Y-130359384D01*
X82667390Y-130610777D01*
X82730849Y-130653179D01*
X83747669Y-131670000D01*
X82030000Y-131670000D01*
X82030000Y-115480963D01*
X84585000Y-115480963D01*
X84585000Y-115833037D01*
X84719733Y-116158312D01*
X84968688Y-116407267D01*
X85293963Y-116542000D01*
X85646037Y-116542000D01*
X85971312Y-116407267D01*
X86220267Y-116158312D01*
X86355000Y-115833037D01*
X86355000Y-115480963D01*
X86220267Y-115155688D01*
X85971312Y-114906733D01*
X85646037Y-114772000D01*
X85293963Y-114772000D01*
X84968688Y-114906733D01*
X84719733Y-115155688D01*
X84585000Y-115480963D01*
X82030000Y-115480963D01*
X82030000Y-114671017D01*
X88305000Y-114671017D01*
X88305000Y-115042983D01*
X88447345Y-115386635D01*
X88710365Y-115649655D01*
X89054017Y-115792000D01*
X89425983Y-115792000D01*
X89769635Y-115649655D01*
X89802290Y-115617000D01*
X89989153Y-115617000D01*
X90064000Y-115631888D01*
X90138847Y-115617000D01*
X90138852Y-115617000D01*
X90360537Y-115572904D01*
X90611929Y-115404929D01*
X90654331Y-115341470D01*
X91145802Y-114850000D01*
X91191983Y-114850000D01*
X91535635Y-114707655D01*
X91798655Y-114444635D01*
X91941000Y-114100983D01*
X91941000Y-113729017D01*
X91798655Y-113385365D01*
X91535635Y-113122345D01*
X91191983Y-112980000D01*
X90820017Y-112980000D01*
X90476365Y-113122345D01*
X90213345Y-113385365D01*
X90071000Y-113729017D01*
X90071000Y-113775198D01*
X89775744Y-114070454D01*
X89769635Y-114064345D01*
X89425983Y-113922000D01*
X89054017Y-113922000D01*
X88710365Y-114064345D01*
X88447345Y-114327365D01*
X88305000Y-114671017D01*
X82030000Y-114671017D01*
X82030000Y-111480963D01*
X84585000Y-111480963D01*
X84585000Y-111833037D01*
X84719733Y-112158312D01*
X84968688Y-112407267D01*
X85293963Y-112542000D01*
X85646037Y-112542000D01*
X85971312Y-112407267D01*
X86220267Y-112158312D01*
X86355000Y-111833037D01*
X86355000Y-111480963D01*
X86220267Y-111155688D01*
X85971312Y-110906733D01*
X85646037Y-110772000D01*
X85293963Y-110772000D01*
X84968688Y-110906733D01*
X84719733Y-111155688D01*
X84585000Y-111480963D01*
X82030000Y-111480963D01*
X82030000Y-98457135D01*
X82122071Y-98594929D01*
G36*
X158872560Y-89597000D02*
X158872560Y-91597000D01*
X158921843Y-91844765D01*
X159062191Y-92054809D01*
X159272235Y-92195157D01*
X159500574Y-92240576D01*
X154972461Y-92240576D01*
X154905000Y-92227157D01*
X154837538Y-92240576D01*
X154637727Y-92280321D01*
X154411143Y-92431719D01*
X154259745Y-92658303D01*
X154206581Y-92925576D01*
X154220000Y-92993038D01*
X154220001Y-97858109D01*
X154206581Y-97925576D01*
X154259745Y-98192849D01*
X154411143Y-98419433D01*
X154637727Y-98570831D01*
X154837538Y-98610576D01*
X154837539Y-98610576D01*
X154905000Y-98623995D01*
X154972462Y-98610576D01*
X160237538Y-98610576D01*
X160305000Y-98623995D01*
X160372461Y-98610576D01*
X160372462Y-98610576D01*
X160572273Y-98570831D01*
X160798857Y-98419433D01*
X160950255Y-98192849D01*
X161003419Y-97925576D01*
X160990000Y-97858114D01*
X160990000Y-92993038D01*
X160997849Y-92953576D01*
X162796581Y-92953576D01*
X162810000Y-93021038D01*
X162810001Y-97886109D01*
X162796581Y-97953576D01*
X162849745Y-98220849D01*
X163001143Y-98447433D01*
X163227727Y-98598831D01*
X163427538Y-98638576D01*
X163427539Y-98638576D01*
X163495000Y-98651995D01*
X163562462Y-98638576D01*
X168827538Y-98638576D01*
X168895000Y-98651995D01*
X168962461Y-98638576D01*
X168962462Y-98638576D01*
X169162273Y-98598831D01*
X169388857Y-98447433D01*
X169540255Y-98220849D01*
X169593419Y-97953576D01*
X169580000Y-97886114D01*
X169580000Y-93021038D01*
X169593419Y-92953576D01*
X169540255Y-92686303D01*
X169388857Y-92459719D01*
X169162273Y-92308321D01*
X168962462Y-92268576D01*
X168895000Y-92255157D01*
X168827539Y-92268576D01*
X163562461Y-92268576D01*
X163495000Y-92255157D01*
X163427538Y-92268576D01*
X163227727Y-92308321D01*
X163001143Y-92459719D01*
X162849745Y-92686303D01*
X162796581Y-92953576D01*
X160997849Y-92953576D01*
X161003419Y-92925576D01*
X160950255Y-92658303D01*
X160798857Y-92431719D01*
X160572273Y-92280321D01*
X160391888Y-92244440D01*
X169520000Y-92244440D01*
X169767765Y-92195157D01*
X169977809Y-92054809D01*
X170118157Y-91844765D01*
X170167440Y-91597000D01*
X170167440Y-89597000D01*
X170149538Y-89507000D01*
X170810000Y-89507000D01*
X170810001Y-110270000D01*
X165320000Y-110270000D01*
X165271399Y-110279667D01*
X165230197Y-110307197D01*
X165202667Y-110348399D01*
X165193000Y-110397000D01*
X165193000Y-128397000D01*
X165202667Y-128445601D01*
X165230197Y-128486803D01*
X165271399Y-128514333D01*
X165320000Y-128524000D01*
X170810001Y-128524000D01*
X170810001Y-130458731D01*
X170677086Y-130137847D01*
X170217153Y-129677914D01*
X169616222Y-129429000D01*
X168965778Y-129429000D01*
X168364847Y-129677914D01*
X167904914Y-130137847D01*
X167656000Y-130738778D01*
X167656000Y-131389222D01*
X167772302Y-131670000D01*
X166999698Y-131670000D01*
X167116000Y-131389222D01*
X167116000Y-130738778D01*
X166867086Y-130137847D01*
X166407153Y-129677914D01*
X165806222Y-129429000D01*
X165155778Y-129429000D01*
X164554847Y-129677914D01*
X164094914Y-130137847D01*
X163846000Y-130738778D01*
X163846000Y-131389222D01*
X163962302Y-131670000D01*
X154035000Y-131670000D01*
X154035000Y-131500778D01*
X153786086Y-130899847D01*
X153326153Y-130439914D01*
X152725222Y-130191000D01*
X152074778Y-130191000D01*
X151473847Y-130439914D01*
X151013914Y-130899847D01*
X150765000Y-131500778D01*
X150765000Y-131670000D01*
X143005000Y-131670000D01*
X143005000Y-131461017D01*
X142862655Y-131117365D01*
X142599635Y-130854345D01*
X142255983Y-130712000D01*
X142187618Y-130712000D01*
X142066538Y-130631097D01*
X141844853Y-130587001D01*
X141844848Y-130587001D01*
X141770001Y-130572113D01*
X141695154Y-130587001D01*
X133616571Y-130587001D01*
X133702103Y-130157000D01*
X153745148Y-130157000D01*
X153820000Y-130171889D01*
X153894852Y-130157000D01*
X154116537Y-130112904D01*
X154367929Y-129944929D01*
X154535904Y-129693537D01*
X154555182Y-129596619D01*
X155019802Y-129132000D01*
X155065983Y-129132000D01*
X155409635Y-128989655D01*
X155672655Y-128726635D01*
X155815000Y-128382983D01*
X155815000Y-128081999D01*
X157500198Y-128081999D01*
X157755000Y-128336802D01*
X157755000Y-128382983D01*
X157897345Y-128726635D01*
X158160365Y-128989655D01*
X158504017Y-129132000D01*
X158875983Y-129132000D01*
X159219635Y-128989655D01*
X159325000Y-128884290D01*
X159430365Y-128989655D01*
X159774017Y-129132000D01*
X160145983Y-129132000D01*
X160489635Y-128989655D01*
X160752655Y-128726635D01*
X160895000Y-128382983D01*
X160895000Y-128011017D01*
X160752655Y-127667365D01*
X160489635Y-127404345D01*
X160145983Y-127262000D01*
X160099802Y-127262000D01*
X159225320Y-126387519D01*
X159182918Y-126324060D01*
X158931526Y-126156085D01*
X158709841Y-126111989D01*
X158709836Y-126111989D01*
X158634989Y-126097101D01*
X158560142Y-126111989D01*
X149679812Y-126111989D01*
X149993784Y-125798017D01*
X161879000Y-125798017D01*
X161879000Y-126169983D01*
X162021345Y-126513635D01*
X162284365Y-126776655D01*
X162628017Y-126919000D01*
X162999983Y-126919000D01*
X163343635Y-126776655D01*
X163606655Y-126513635D01*
X163749000Y-126169983D01*
X163749000Y-125798017D01*
X163606655Y-125454365D01*
X163343635Y-125191345D01*
X162999983Y-125049000D01*
X162628017Y-125049000D01*
X162284365Y-125191345D01*
X162021345Y-125454365D01*
X161879000Y-125798017D01*
X149993784Y-125798017D01*
X150284473Y-125507329D01*
X150347929Y-125464929D01*
X150441125Y-125325452D01*
X150515904Y-125213538D01*
X150542248Y-125081096D01*
X150560000Y-124991852D01*
X150560000Y-124991848D01*
X150574888Y-124917000D01*
X150560000Y-124842152D01*
X150560000Y-118894017D01*
X154095000Y-118894017D01*
X154095000Y-119265983D01*
X154237345Y-119609635D01*
X154500365Y-119872655D01*
X154844017Y-120015000D01*
X155215983Y-120015000D01*
X155559635Y-119872655D01*
X155822655Y-119609635D01*
X155965000Y-119265983D01*
X155965000Y-118894017D01*
X155822655Y-118550365D01*
X155559635Y-118287345D01*
X155215983Y-118145000D01*
X154844017Y-118145000D01*
X154500365Y-118287345D01*
X154237345Y-118550365D01*
X154095000Y-118894017D01*
X150560000Y-118894017D01*
X150560000Y-110759290D01*
X150592655Y-110726635D01*
X150735000Y-110382983D01*
X150735000Y-110331999D01*
X151241080Y-110331999D01*
X151282355Y-110431645D01*
X151545375Y-110694665D01*
X151889027Y-110837010D01*
X152260993Y-110837010D01*
X152604645Y-110694665D01*
X152745683Y-110553627D01*
X152817345Y-110726635D01*
X153080365Y-110989655D01*
X153424017Y-111132000D01*
X153795983Y-111132000D01*
X154139635Y-110989655D01*
X154402655Y-110726635D01*
X154545000Y-110382983D01*
X154545000Y-110011017D01*
X154402655Y-109667365D01*
X154139635Y-109404345D01*
X153795983Y-109262000D01*
X153749802Y-109262000D01*
X152552849Y-108065048D01*
X152649418Y-108045839D01*
X153140625Y-107717625D01*
X153468839Y-107226418D01*
X153584092Y-106647000D01*
X153468839Y-106067582D01*
X153140625Y-105576375D01*
X152649418Y-105248161D01*
X152216256Y-105162000D01*
X151923744Y-105162000D01*
X151490582Y-105248161D01*
X150999375Y-105576375D01*
X150800000Y-105874761D01*
X150600625Y-105576375D01*
X150109418Y-105248161D01*
X149676256Y-105162000D01*
X149383744Y-105162000D01*
X148950582Y-105248161D01*
X148459375Y-105576375D01*
X148260000Y-105874761D01*
X148060625Y-105576375D01*
X147569418Y-105248161D01*
X147136256Y-105162000D01*
X146843744Y-105162000D01*
X146410582Y-105248161D01*
X145919375Y-105576375D01*
X145907184Y-105594619D01*
X145898157Y-105549235D01*
X145757809Y-105339191D01*
X145547765Y-105198843D01*
X145300000Y-105149560D01*
X143600000Y-105149560D01*
X143352235Y-105198843D01*
X143280000Y-105247109D01*
X143280000Y-103959290D01*
X143312655Y-103926635D01*
X143455000Y-103582983D01*
X143455000Y-103211017D01*
X143312655Y-102867365D01*
X143049635Y-102604345D01*
X143031903Y-102597000D01*
X158872560Y-102597000D01*
X158872560Y-104597000D01*
X158921843Y-104844765D01*
X159062191Y-105054809D01*
X159272235Y-105195157D01*
X159520000Y-105244440D01*
X169520000Y-105244440D01*
X169767765Y-105195157D01*
X169977809Y-105054809D01*
X170118157Y-104844765D01*
X170167440Y-104597000D01*
X170167440Y-102597000D01*
X170118157Y-102349235D01*
X169977809Y-102139191D01*
X169767765Y-101998843D01*
X169520000Y-101949560D01*
X159520000Y-101949560D01*
X159272235Y-101998843D01*
X159062191Y-102139191D01*
X158921843Y-102349235D01*
X158872560Y-102597000D01*
X143031903Y-102597000D01*
X142705983Y-102462000D01*
X142334017Y-102462000D01*
X141990365Y-102604345D01*
X141727345Y-102867365D01*
X141585000Y-103211017D01*
X141585000Y-103582983D01*
X141727345Y-103926635D01*
X141760001Y-103959291D01*
X141760000Y-110322153D01*
X141745112Y-110397000D01*
X141760000Y-110471847D01*
X141760000Y-110471851D01*
X141804096Y-110693536D01*
X141972071Y-110944929D01*
X142035530Y-110987331D01*
X142110200Y-111062001D01*
X103884805Y-111062001D01*
X92264334Y-99441531D01*
X92221932Y-99378072D01*
X91970540Y-99210097D01*
X91748855Y-99166001D01*
X91748850Y-99166001D01*
X91674003Y-99151113D01*
X91599156Y-99166001D01*
X84863803Y-99166001D01*
X84315705Y-98617904D01*
X84337462Y-98613576D01*
X89602538Y-98613576D01*
X89670000Y-98626995D01*
X89737461Y-98613576D01*
X89737462Y-98613576D01*
X89937273Y-98573831D01*
X90163857Y-98422433D01*
X90315255Y-98195849D01*
X90368419Y-97928576D01*
X90355000Y-97861114D01*
X90355000Y-92996038D01*
X90368419Y-92928576D01*
X90315255Y-92661303D01*
X90163857Y-92434719D01*
X89937273Y-92283321D01*
X89741806Y-92244440D01*
X92588112Y-92244440D01*
X92407727Y-92280321D01*
X92181143Y-92431719D01*
X92029745Y-92658303D01*
X91976581Y-92925576D01*
X91990000Y-92993038D01*
X91990001Y-97858109D01*
X91976581Y-97925576D01*
X92029745Y-98192849D01*
X92181143Y-98419433D01*
X92407727Y-98570831D01*
X92607538Y-98610576D01*
X92607539Y-98610576D01*
X92675000Y-98623995D01*
X92742462Y-98610576D01*
X98007538Y-98610576D01*
X98075000Y-98623995D01*
X98142461Y-98610576D01*
X98142462Y-98610576D01*
X98342273Y-98570831D01*
X98568857Y-98419433D01*
X98720255Y-98192849D01*
X98773419Y-97925576D01*
X98760000Y-97858114D01*
X98760000Y-92993038D01*
X98773419Y-92925576D01*
X100866581Y-92925576D01*
X100880000Y-92993038D01*
X100880001Y-97858109D01*
X100866581Y-97925576D01*
X100919745Y-98192849D01*
X101071143Y-98419433D01*
X101297727Y-98570831D01*
X101497538Y-98610576D01*
X101497539Y-98610576D01*
X101565000Y-98623995D01*
X101632462Y-98610576D01*
X106897538Y-98610576D01*
X106965000Y-98623995D01*
X107032461Y-98610576D01*
X107032462Y-98610576D01*
X107232273Y-98570831D01*
X107458857Y-98419433D01*
X107610255Y-98192849D01*
X107663419Y-97925576D01*
X107650000Y-97858114D01*
X107650000Y-92993038D01*
X107663419Y-92925576D01*
X109756581Y-92925576D01*
X109770000Y-92993038D01*
X109770001Y-97858109D01*
X109756581Y-97925576D01*
X109809745Y-98192849D01*
X109961143Y-98419433D01*
X110187727Y-98570831D01*
X110387538Y-98610576D01*
X110387539Y-98610576D01*
X110455000Y-98623995D01*
X110522462Y-98610576D01*
X115787538Y-98610576D01*
X115855000Y-98623995D01*
X115922461Y-98610576D01*
X115922462Y-98610576D01*
X116122273Y-98570831D01*
X116348857Y-98419433D01*
X116500255Y-98192849D01*
X116553419Y-97925576D01*
X116540000Y-97858114D01*
X116540000Y-92993038D01*
X116553419Y-92925576D01*
X118646581Y-92925576D01*
X118660000Y-92993038D01*
X118660001Y-97858109D01*
X118646581Y-97925576D01*
X118699745Y-98192849D01*
X118851143Y-98419433D01*
X119077727Y-98570831D01*
X119277538Y-98610576D01*
X119277539Y-98610576D01*
X119345000Y-98623995D01*
X119412462Y-98610576D01*
X124677538Y-98610576D01*
X124745000Y-98623995D01*
X124812461Y-98610576D01*
X124812462Y-98610576D01*
X125012273Y-98570831D01*
X125238857Y-98419433D01*
X125390255Y-98192849D01*
X125443419Y-97925576D01*
X125430000Y-97858114D01*
X125430000Y-92993038D01*
X125443419Y-92925576D01*
X127536581Y-92925576D01*
X127550000Y-92993038D01*
X127550001Y-97858109D01*
X127536581Y-97925576D01*
X127589745Y-98192849D01*
X127741143Y-98419433D01*
X127967727Y-98570831D01*
X128167538Y-98610576D01*
X128167539Y-98610576D01*
X128235000Y-98623995D01*
X128302462Y-98610576D01*
X133567538Y-98610576D01*
X133635000Y-98623995D01*
X133702461Y-98610576D01*
X133702462Y-98610576D01*
X133902273Y-98570831D01*
X134128857Y-98419433D01*
X134280255Y-98192849D01*
X134333419Y-97925576D01*
X134320000Y-97858114D01*
X134320000Y-92993038D01*
X134333419Y-92925576D01*
X136426581Y-92925576D01*
X136440000Y-92993038D01*
X136440001Y-97858109D01*
X136426581Y-97925576D01*
X136479745Y-98192849D01*
X136631143Y-98419433D01*
X136857727Y-98570831D01*
X137057538Y-98610576D01*
X137057539Y-98610576D01*
X137125000Y-98623995D01*
X137192462Y-98610576D01*
X142457538Y-98610576D01*
X142525000Y-98623995D01*
X142592461Y-98610576D01*
X142592462Y-98610576D01*
X142792273Y-98570831D01*
X143018857Y-98419433D01*
X143170255Y-98192849D01*
X143223419Y-97925576D01*
X143210000Y-97858114D01*
X143210000Y-92993038D01*
X143223419Y-92925576D01*
X145316581Y-92925576D01*
X145330000Y-92993038D01*
X145330001Y-97858109D01*
X145316581Y-97925576D01*
X145369745Y-98192849D01*
X145521143Y-98419433D01*
X145747727Y-98570831D01*
X145947538Y-98610576D01*
X145947539Y-98610576D01*
X146015000Y-98623995D01*
X146082462Y-98610576D01*
X151347538Y-98610576D01*
X151415000Y-98623995D01*
X151482461Y-98610576D01*
X151482462Y-98610576D01*
X151682273Y-98570831D01*
X151908857Y-98419433D01*
X152060255Y-98192849D01*
X152113419Y-97925576D01*
X152100000Y-97858114D01*
X152100000Y-92993038D01*
X152113419Y-92925576D01*
X152060255Y-92658303D01*
X151908857Y-92431719D01*
X151682273Y-92280321D01*
X151482462Y-92240576D01*
X151415000Y-92227157D01*
X151347539Y-92240576D01*
X146082461Y-92240576D01*
X146015000Y-92227157D01*
X145947538Y-92240576D01*
X145747727Y-92280321D01*
X145521143Y-92431719D01*
X145369745Y-92658303D01*
X145316581Y-92925576D01*
X143223419Y-92925576D01*
X143170255Y-92658303D01*
X143018857Y-92431719D01*
X142792273Y-92280321D01*
X142592462Y-92240576D01*
X142525000Y-92227157D01*
X142457539Y-92240576D01*
X137192461Y-92240576D01*
X137125000Y-92227157D01*
X137057538Y-92240576D01*
X136857727Y-92280321D01*
X136631143Y-92431719D01*
X136479745Y-92658303D01*
X136426581Y-92925576D01*
X134333419Y-92925576D01*
X134280255Y-92658303D01*
X134128857Y-92431719D01*
X133902273Y-92280321D01*
X133702462Y-92240576D01*
X133635000Y-92227157D01*
X133567539Y-92240576D01*
X128302461Y-92240576D01*
X128235000Y-92227157D01*
X128167538Y-92240576D01*
X127967727Y-92280321D01*
X127741143Y-92431719D01*
X127589745Y-92658303D01*
X127536581Y-92925576D01*
X125443419Y-92925576D01*
X125390255Y-92658303D01*
X125238857Y-92431719D01*
X125012273Y-92280321D01*
X124812462Y-92240576D01*
X124745000Y-92227157D01*
X124677539Y-92240576D01*
X119412461Y-92240576D01*
X119345000Y-92227157D01*
X119277538Y-92240576D01*
X119077727Y-92280321D01*
X118851143Y-92431719D01*
X118699745Y-92658303D01*
X118646581Y-92925576D01*
X116553419Y-92925576D01*
X116500255Y-92658303D01*
X116348857Y-92431719D01*
X116122273Y-92280321D01*
X115922462Y-92240576D01*
X115855000Y-92227157D01*
X115787539Y-92240576D01*
X110522461Y-92240576D01*
X110455000Y-92227157D01*
X110387538Y-92240576D01*
X110187727Y-92280321D01*
X109961143Y-92431719D01*
X109809745Y-92658303D01*
X109756581Y-92925576D01*
X107663419Y-92925576D01*
X107610255Y-92658303D01*
X107458857Y-92431719D01*
X107232273Y-92280321D01*
X107032462Y-92240576D01*
X106965000Y-92227157D01*
X106897539Y-92240576D01*
X101632461Y-92240576D01*
X101565000Y-92227157D01*
X101497538Y-92240576D01*
X101297727Y-92280321D01*
X101071143Y-92431719D01*
X100919745Y-92658303D01*
X100866581Y-92925576D01*
X98773419Y-92925576D01*
X98720255Y-92658303D01*
X98568857Y-92431719D01*
X98342273Y-92280321D01*
X98142462Y-92240576D01*
X98075000Y-92227157D01*
X98007539Y-92240576D01*
X93539426Y-92240576D01*
X93767765Y-92195157D01*
X93977809Y-92054809D01*
X94118157Y-91844765D01*
X94167440Y-91597000D01*
X94167440Y-89597000D01*
X94149538Y-89507000D01*
X158890462Y-89507000D01*
X158872560Y-89597000D01*
X158872560Y-89597000D01*
G37*
X158872560Y-89597000D02*
X158872560Y-91597000D01*
X158921843Y-91844765D01*
X159062191Y-92054809D01*
X159272235Y-92195157D01*
X159500574Y-92240576D01*
X154972461Y-92240576D01*
X154905000Y-92227157D01*
X154837538Y-92240576D01*
X154637727Y-92280321D01*
X154411143Y-92431719D01*
X154259745Y-92658303D01*
X154206581Y-92925576D01*
X154220000Y-92993038D01*
X154220001Y-97858109D01*
X154206581Y-97925576D01*
X154259745Y-98192849D01*
X154411143Y-98419433D01*
X154637727Y-98570831D01*
X154837538Y-98610576D01*
X154837539Y-98610576D01*
X154905000Y-98623995D01*
X154972462Y-98610576D01*
X160237538Y-98610576D01*
X160305000Y-98623995D01*
X160372461Y-98610576D01*
X160372462Y-98610576D01*
X160572273Y-98570831D01*
X160798857Y-98419433D01*
X160950255Y-98192849D01*
X161003419Y-97925576D01*
X160990000Y-97858114D01*
X160990000Y-92993038D01*
X160997849Y-92953576D01*
X162796581Y-92953576D01*
X162810000Y-93021038D01*
X162810001Y-97886109D01*
X162796581Y-97953576D01*
X162849745Y-98220849D01*
X163001143Y-98447433D01*
X163227727Y-98598831D01*
X163427538Y-98638576D01*
X163427539Y-98638576D01*
X163495000Y-98651995D01*
X163562462Y-98638576D01*
X168827538Y-98638576D01*
X168895000Y-98651995D01*
X168962461Y-98638576D01*
X168962462Y-98638576D01*
X169162273Y-98598831D01*
X169388857Y-98447433D01*
X169540255Y-98220849D01*
X169593419Y-97953576D01*
X169580000Y-97886114D01*
X169580000Y-93021038D01*
X169593419Y-92953576D01*
X169540255Y-92686303D01*
X169388857Y-92459719D01*
X169162273Y-92308321D01*
X168962462Y-92268576D01*
X168895000Y-92255157D01*
X168827539Y-92268576D01*
X163562461Y-92268576D01*
X163495000Y-92255157D01*
X163427538Y-92268576D01*
X163227727Y-92308321D01*
X163001143Y-92459719D01*
X162849745Y-92686303D01*
X162796581Y-92953576D01*
X160997849Y-92953576D01*
X161003419Y-92925576D01*
X160950255Y-92658303D01*
X160798857Y-92431719D01*
X160572273Y-92280321D01*
X160391888Y-92244440D01*
X169520000Y-92244440D01*
X169767765Y-92195157D01*
X169977809Y-92054809D01*
X170118157Y-91844765D01*
X170167440Y-91597000D01*
X170167440Y-89597000D01*
X170149538Y-89507000D01*
X170810000Y-89507000D01*
X170810001Y-110270000D01*
X165320000Y-110270000D01*
X165271399Y-110279667D01*
X165230197Y-110307197D01*
X165202667Y-110348399D01*
X165193000Y-110397000D01*
X165193000Y-128397000D01*
X165202667Y-128445601D01*
X165230197Y-128486803D01*
X165271399Y-128514333D01*
X165320000Y-128524000D01*
X170810001Y-128524000D01*
X170810001Y-130458731D01*
X170677086Y-130137847D01*
X170217153Y-129677914D01*
X169616222Y-129429000D01*
X168965778Y-129429000D01*
X168364847Y-129677914D01*
X167904914Y-130137847D01*
X167656000Y-130738778D01*
X167656000Y-131389222D01*
X167772302Y-131670000D01*
X166999698Y-131670000D01*
X167116000Y-131389222D01*
X167116000Y-130738778D01*
X166867086Y-130137847D01*
X166407153Y-129677914D01*
X165806222Y-129429000D01*
X165155778Y-129429000D01*
X164554847Y-129677914D01*
X164094914Y-130137847D01*
X163846000Y-130738778D01*
X163846000Y-131389222D01*
X163962302Y-131670000D01*
X154035000Y-131670000D01*
X154035000Y-131500778D01*
X153786086Y-130899847D01*
X153326153Y-130439914D01*
X152725222Y-130191000D01*
X152074778Y-130191000D01*
X151473847Y-130439914D01*
X151013914Y-130899847D01*
X150765000Y-131500778D01*
X150765000Y-131670000D01*
X143005000Y-131670000D01*
X143005000Y-131461017D01*
X142862655Y-131117365D01*
X142599635Y-130854345D01*
X142255983Y-130712000D01*
X142187618Y-130712000D01*
X142066538Y-130631097D01*
X141844853Y-130587001D01*
X141844848Y-130587001D01*
X141770001Y-130572113D01*
X141695154Y-130587001D01*
X133616571Y-130587001D01*
X133702103Y-130157000D01*
X153745148Y-130157000D01*
X153820000Y-130171889D01*
X153894852Y-130157000D01*
X154116537Y-130112904D01*
X154367929Y-129944929D01*
X154535904Y-129693537D01*
X154555182Y-129596619D01*
X155019802Y-129132000D01*
X155065983Y-129132000D01*
X155409635Y-128989655D01*
X155672655Y-128726635D01*
X155815000Y-128382983D01*
X155815000Y-128081999D01*
X157500198Y-128081999D01*
X157755000Y-128336802D01*
X157755000Y-128382983D01*
X157897345Y-128726635D01*
X158160365Y-128989655D01*
X158504017Y-129132000D01*
X158875983Y-129132000D01*
X159219635Y-128989655D01*
X159325000Y-128884290D01*
X159430365Y-128989655D01*
X159774017Y-129132000D01*
X160145983Y-129132000D01*
X160489635Y-128989655D01*
X160752655Y-128726635D01*
X160895000Y-128382983D01*
X160895000Y-128011017D01*
X160752655Y-127667365D01*
X160489635Y-127404345D01*
X160145983Y-127262000D01*
X160099802Y-127262000D01*
X159225320Y-126387519D01*
X159182918Y-126324060D01*
X158931526Y-126156085D01*
X158709841Y-126111989D01*
X158709836Y-126111989D01*
X158634989Y-126097101D01*
X158560142Y-126111989D01*
X149679812Y-126111989D01*
X149993784Y-125798017D01*
X161879000Y-125798017D01*
X161879000Y-126169983D01*
X162021345Y-126513635D01*
X162284365Y-126776655D01*
X162628017Y-126919000D01*
X162999983Y-126919000D01*
X163343635Y-126776655D01*
X163606655Y-126513635D01*
X163749000Y-126169983D01*
X163749000Y-125798017D01*
X163606655Y-125454365D01*
X163343635Y-125191345D01*
X162999983Y-125049000D01*
X162628017Y-125049000D01*
X162284365Y-125191345D01*
X162021345Y-125454365D01*
X161879000Y-125798017D01*
X149993784Y-125798017D01*
X150284473Y-125507329D01*
X150347929Y-125464929D01*
X150441125Y-125325452D01*
X150515904Y-125213538D01*
X150542248Y-125081096D01*
X150560000Y-124991852D01*
X150560000Y-124991848D01*
X150574888Y-124917000D01*
X150560000Y-124842152D01*
X150560000Y-118894017D01*
X154095000Y-118894017D01*
X154095000Y-119265983D01*
X154237345Y-119609635D01*
X154500365Y-119872655D01*
X154844017Y-120015000D01*
X155215983Y-120015000D01*
X155559635Y-119872655D01*
X155822655Y-119609635D01*
X155965000Y-119265983D01*
X155965000Y-118894017D01*
X155822655Y-118550365D01*
X155559635Y-118287345D01*
X155215983Y-118145000D01*
X154844017Y-118145000D01*
X154500365Y-118287345D01*
X154237345Y-118550365D01*
X154095000Y-118894017D01*
X150560000Y-118894017D01*
X150560000Y-110759290D01*
X150592655Y-110726635D01*
X150735000Y-110382983D01*
X150735000Y-110331999D01*
X151241080Y-110331999D01*
X151282355Y-110431645D01*
X151545375Y-110694665D01*
X151889027Y-110837010D01*
X152260993Y-110837010D01*
X152604645Y-110694665D01*
X152745683Y-110553627D01*
X152817345Y-110726635D01*
X153080365Y-110989655D01*
X153424017Y-111132000D01*
X153795983Y-111132000D01*
X154139635Y-110989655D01*
X154402655Y-110726635D01*
X154545000Y-110382983D01*
X154545000Y-110011017D01*
X154402655Y-109667365D01*
X154139635Y-109404345D01*
X153795983Y-109262000D01*
X153749802Y-109262000D01*
X152552849Y-108065048D01*
X152649418Y-108045839D01*
X153140625Y-107717625D01*
X153468839Y-107226418D01*
X153584092Y-106647000D01*
X153468839Y-106067582D01*
X153140625Y-105576375D01*
X152649418Y-105248161D01*
X152216256Y-105162000D01*
X151923744Y-105162000D01*
X151490582Y-105248161D01*
X150999375Y-105576375D01*
X150800000Y-105874761D01*
X150600625Y-105576375D01*
X150109418Y-105248161D01*
X149676256Y-105162000D01*
X149383744Y-105162000D01*
X148950582Y-105248161D01*
X148459375Y-105576375D01*
X148260000Y-105874761D01*
X148060625Y-105576375D01*
X147569418Y-105248161D01*
X147136256Y-105162000D01*
X146843744Y-105162000D01*
X146410582Y-105248161D01*
X145919375Y-105576375D01*
X145907184Y-105594619D01*
X145898157Y-105549235D01*
X145757809Y-105339191D01*
X145547765Y-105198843D01*
X145300000Y-105149560D01*
X143600000Y-105149560D01*
X143352235Y-105198843D01*
X143280000Y-105247109D01*
X143280000Y-103959290D01*
X143312655Y-103926635D01*
X143455000Y-103582983D01*
X143455000Y-103211017D01*
X143312655Y-102867365D01*
X143049635Y-102604345D01*
X143031903Y-102597000D01*
X158872560Y-102597000D01*
X158872560Y-104597000D01*
X158921843Y-104844765D01*
X159062191Y-105054809D01*
X159272235Y-105195157D01*
X159520000Y-105244440D01*
X169520000Y-105244440D01*
X169767765Y-105195157D01*
X169977809Y-105054809D01*
X170118157Y-104844765D01*
X170167440Y-104597000D01*
X170167440Y-102597000D01*
X170118157Y-102349235D01*
X169977809Y-102139191D01*
X169767765Y-101998843D01*
X169520000Y-101949560D01*
X159520000Y-101949560D01*
X159272235Y-101998843D01*
X159062191Y-102139191D01*
X158921843Y-102349235D01*
X158872560Y-102597000D01*
X143031903Y-102597000D01*
X142705983Y-102462000D01*
X142334017Y-102462000D01*
X141990365Y-102604345D01*
X141727345Y-102867365D01*
X141585000Y-103211017D01*
X141585000Y-103582983D01*
X141727345Y-103926635D01*
X141760001Y-103959291D01*
X141760000Y-110322153D01*
X141745112Y-110397000D01*
X141760000Y-110471847D01*
X141760000Y-110471851D01*
X141804096Y-110693536D01*
X141972071Y-110944929D01*
X142035530Y-110987331D01*
X142110200Y-111062001D01*
X103884805Y-111062001D01*
X92264334Y-99441531D01*
X92221932Y-99378072D01*
X91970540Y-99210097D01*
X91748855Y-99166001D01*
X91748850Y-99166001D01*
X91674003Y-99151113D01*
X91599156Y-99166001D01*
X84863803Y-99166001D01*
X84315705Y-98617904D01*
X84337462Y-98613576D01*
X89602538Y-98613576D01*
X89670000Y-98626995D01*
X89737461Y-98613576D01*
X89737462Y-98613576D01*
X89937273Y-98573831D01*
X90163857Y-98422433D01*
X90315255Y-98195849D01*
X90368419Y-97928576D01*
X90355000Y-97861114D01*
X90355000Y-92996038D01*
X90368419Y-92928576D01*
X90315255Y-92661303D01*
X90163857Y-92434719D01*
X89937273Y-92283321D01*
X89741806Y-92244440D01*
X92588112Y-92244440D01*
X92407727Y-92280321D01*
X92181143Y-92431719D01*
X92029745Y-92658303D01*
X91976581Y-92925576D01*
X91990000Y-92993038D01*
X91990001Y-97858109D01*
X91976581Y-97925576D01*
X92029745Y-98192849D01*
X92181143Y-98419433D01*
X92407727Y-98570831D01*
X92607538Y-98610576D01*
X92607539Y-98610576D01*
X92675000Y-98623995D01*
X92742462Y-98610576D01*
X98007538Y-98610576D01*
X98075000Y-98623995D01*
X98142461Y-98610576D01*
X98142462Y-98610576D01*
X98342273Y-98570831D01*
X98568857Y-98419433D01*
X98720255Y-98192849D01*
X98773419Y-97925576D01*
X98760000Y-97858114D01*
X98760000Y-92993038D01*
X98773419Y-92925576D01*
X100866581Y-92925576D01*
X100880000Y-92993038D01*
X100880001Y-97858109D01*
X100866581Y-97925576D01*
X100919745Y-98192849D01*
X101071143Y-98419433D01*
X101297727Y-98570831D01*
X101497538Y-98610576D01*
X101497539Y-98610576D01*
X101565000Y-98623995D01*
X101632462Y-98610576D01*
X106897538Y-98610576D01*
X106965000Y-98623995D01*
X107032461Y-98610576D01*
X107032462Y-98610576D01*
X107232273Y-98570831D01*
X107458857Y-98419433D01*
X107610255Y-98192849D01*
X107663419Y-97925576D01*
X107650000Y-97858114D01*
X107650000Y-92993038D01*
X107663419Y-92925576D01*
X109756581Y-92925576D01*
X109770000Y-92993038D01*
X109770001Y-97858109D01*
X109756581Y-97925576D01*
X109809745Y-98192849D01*
X109961143Y-98419433D01*
X110187727Y-98570831D01*
X110387538Y-98610576D01*
X110387539Y-98610576D01*
X110455000Y-98623995D01*
X110522462Y-98610576D01*
X115787538Y-98610576D01*
X115855000Y-98623995D01*
X115922461Y-98610576D01*
X115922462Y-98610576D01*
X116122273Y-98570831D01*
X116348857Y-98419433D01*
X116500255Y-98192849D01*
X116553419Y-97925576D01*
X116540000Y-97858114D01*
X116540000Y-92993038D01*
X116553419Y-92925576D01*
X118646581Y-92925576D01*
X118660000Y-92993038D01*
X118660001Y-97858109D01*
X118646581Y-97925576D01*
X118699745Y-98192849D01*
X118851143Y-98419433D01*
X119077727Y-98570831D01*
X119277538Y-98610576D01*
X119277539Y-98610576D01*
X119345000Y-98623995D01*
X119412462Y-98610576D01*
X124677538Y-98610576D01*
X124745000Y-98623995D01*
X124812461Y-98610576D01*
X124812462Y-98610576D01*
X125012273Y-98570831D01*
X125238857Y-98419433D01*
X125390255Y-98192849D01*
X125443419Y-97925576D01*
X125430000Y-97858114D01*
X125430000Y-92993038D01*
X125443419Y-92925576D01*
X127536581Y-92925576D01*
X127550000Y-92993038D01*
X127550001Y-97858109D01*
X127536581Y-97925576D01*
X127589745Y-98192849D01*
X127741143Y-98419433D01*
X127967727Y-98570831D01*
X128167538Y-98610576D01*
X128167539Y-98610576D01*
X128235000Y-98623995D01*
X128302462Y-98610576D01*
X133567538Y-98610576D01*
X133635000Y-98623995D01*
X133702461Y-98610576D01*
X133702462Y-98610576D01*
X133902273Y-98570831D01*
X134128857Y-98419433D01*
X134280255Y-98192849D01*
X134333419Y-97925576D01*
X134320000Y-97858114D01*
X134320000Y-92993038D01*
X134333419Y-92925576D01*
X136426581Y-92925576D01*
X136440000Y-92993038D01*
X136440001Y-97858109D01*
X136426581Y-97925576D01*
X136479745Y-98192849D01*
X136631143Y-98419433D01*
X136857727Y-98570831D01*
X137057538Y-98610576D01*
X137057539Y-98610576D01*
X137125000Y-98623995D01*
X137192462Y-98610576D01*
X142457538Y-98610576D01*
X142525000Y-98623995D01*
X142592461Y-98610576D01*
X142592462Y-98610576D01*
X142792273Y-98570831D01*
X143018857Y-98419433D01*
X143170255Y-98192849D01*
X143223419Y-97925576D01*
X143210000Y-97858114D01*
X143210000Y-92993038D01*
X143223419Y-92925576D01*
X145316581Y-92925576D01*
X145330000Y-92993038D01*
X145330001Y-97858109D01*
X145316581Y-97925576D01*
X145369745Y-98192849D01*
X145521143Y-98419433D01*
X145747727Y-98570831D01*
X145947538Y-98610576D01*
X145947539Y-98610576D01*
X146015000Y-98623995D01*
X146082462Y-98610576D01*
X151347538Y-98610576D01*
X151415000Y-98623995D01*
X151482461Y-98610576D01*
X151482462Y-98610576D01*
X151682273Y-98570831D01*
X151908857Y-98419433D01*
X152060255Y-98192849D01*
X152113419Y-97925576D01*
X152100000Y-97858114D01*
X152100000Y-92993038D01*
X152113419Y-92925576D01*
X152060255Y-92658303D01*
X151908857Y-92431719D01*
X151682273Y-92280321D01*
X151482462Y-92240576D01*
X151415000Y-92227157D01*
X151347539Y-92240576D01*
X146082461Y-92240576D01*
X146015000Y-92227157D01*
X145947538Y-92240576D01*
X145747727Y-92280321D01*
X145521143Y-92431719D01*
X145369745Y-92658303D01*
X145316581Y-92925576D01*
X143223419Y-92925576D01*
X143170255Y-92658303D01*
X143018857Y-92431719D01*
X142792273Y-92280321D01*
X142592462Y-92240576D01*
X142525000Y-92227157D01*
X142457539Y-92240576D01*
X137192461Y-92240576D01*
X137125000Y-92227157D01*
X137057538Y-92240576D01*
X136857727Y-92280321D01*
X136631143Y-92431719D01*
X136479745Y-92658303D01*
X136426581Y-92925576D01*
X134333419Y-92925576D01*
X134280255Y-92658303D01*
X134128857Y-92431719D01*
X133902273Y-92280321D01*
X133702462Y-92240576D01*
X133635000Y-92227157D01*
X133567539Y-92240576D01*
X128302461Y-92240576D01*
X128235000Y-92227157D01*
X128167538Y-92240576D01*
X127967727Y-92280321D01*
X127741143Y-92431719D01*
X127589745Y-92658303D01*
X127536581Y-92925576D01*
X125443419Y-92925576D01*
X125390255Y-92658303D01*
X125238857Y-92431719D01*
X125012273Y-92280321D01*
X124812462Y-92240576D01*
X124745000Y-92227157D01*
X124677539Y-92240576D01*
X119412461Y-92240576D01*
X119345000Y-92227157D01*
X119277538Y-92240576D01*
X119077727Y-92280321D01*
X118851143Y-92431719D01*
X118699745Y-92658303D01*
X118646581Y-92925576D01*
X116553419Y-92925576D01*
X116500255Y-92658303D01*
X116348857Y-92431719D01*
X116122273Y-92280321D01*
X115922462Y-92240576D01*
X115855000Y-92227157D01*
X115787539Y-92240576D01*
X110522461Y-92240576D01*
X110455000Y-92227157D01*
X110387538Y-92240576D01*
X110187727Y-92280321D01*
X109961143Y-92431719D01*
X109809745Y-92658303D01*
X109756581Y-92925576D01*
X107663419Y-92925576D01*
X107610255Y-92658303D01*
X107458857Y-92431719D01*
X107232273Y-92280321D01*
X107032462Y-92240576D01*
X106965000Y-92227157D01*
X106897539Y-92240576D01*
X101632461Y-92240576D01*
X101565000Y-92227157D01*
X101497538Y-92240576D01*
X101297727Y-92280321D01*
X101071143Y-92431719D01*
X100919745Y-92658303D01*
X100866581Y-92925576D01*
X98773419Y-92925576D01*
X98720255Y-92658303D01*
X98568857Y-92431719D01*
X98342273Y-92280321D01*
X98142462Y-92240576D01*
X98075000Y-92227157D01*
X98007539Y-92240576D01*
X93539426Y-92240576D01*
X93767765Y-92195157D01*
X93977809Y-92054809D01*
X94118157Y-91844765D01*
X94167440Y-91597000D01*
X94167440Y-89597000D01*
X94149538Y-89507000D01*
X158890462Y-89507000D01*
X158872560Y-89597000D01*
G04 #@! TD*
M02*
