G04 #@! TF.GenerationSoftware,KiCad,Pcbnew,5.0.1*
G04 #@! TF.CreationDate,2019-02-20T00:15:29-06:00*
G04 #@! TF.ProjectId,badge,62616467652E6B696361645F70636200,rev?*
G04 #@! TF.SameCoordinates,Original*
G04 #@! TF.FileFunction,Copper,L1,Top,Signal*
G04 #@! TF.FilePolarity,Positive*
%FSLAX46Y46*%
G04 Gerber Fmt 4.6, Leading zero omitted, Abs format (unit mm)*
G04 Created by KiCad (PCBNEW 5.0.1) date Wed 20 Feb 2019 12:15:29 AM CST*
%MOMM*%
%LPD*%
G01*
G04 APERTURE LIST*
G04 #@! TA.AperFunction,SMDPad,CuDef*
%ADD10R,1.550000X0.600000*%
G04 #@! TD*
G04 #@! TA.AperFunction,SMDPad,CuDef*
%ADD11R,1.600000X1.000000*%
G04 #@! TD*
G04 #@! TA.AperFunction,SMDPad,CuDef*
%ADD12O,0.900000X2.500000*%
G04 #@! TD*
G04 #@! TA.AperFunction,SMDPad,CuDef*
%ADD13O,2.500000X0.900000*%
G04 #@! TD*
G04 #@! TA.AperFunction,SMDPad,CuDef*
%ADD14R,6.000000X6.000000*%
G04 #@! TD*
G04 #@! TA.AperFunction,SMDPad,CuDef*
%ADD15R,8.000000X8.000000*%
G04 #@! TD*
G04 #@! TA.AperFunction,ComponentPad*
%ADD16C,3.000000*%
G04 #@! TD*
G04 #@! TA.AperFunction,SMDPad,CuDef*
%ADD17R,1.500000X1.250000*%
G04 #@! TD*
G04 #@! TA.AperFunction,SMDPad,CuDef*
%ADD18R,1.500000X1.300000*%
G04 #@! TD*
G04 #@! TA.AperFunction,ComponentPad*
%ADD19C,20.000000*%
G04 #@! TD*
G04 #@! TA.AperFunction,ComponentPad*
%ADD20C,2.000000*%
G04 #@! TD*
G04 #@! TA.AperFunction,ComponentPad*
%ADD21C,2.499360*%
G04 #@! TD*
G04 #@! TA.AperFunction,ComponentPad*
%ADD22R,1.700000X1.700000*%
G04 #@! TD*
G04 #@! TA.AperFunction,ComponentPad*
%ADD23O,1.700000X1.700000*%
G04 #@! TD*
G04 #@! TA.AperFunction,SMDPad,CuDef*
%ADD24R,3.800000X2.000000*%
G04 #@! TD*
G04 #@! TA.AperFunction,SMDPad,CuDef*
%ADD25R,1.500000X2.000000*%
G04 #@! TD*
G04 #@! TA.AperFunction,SMDPad,CuDef*
%ADD26R,1.300000X1.500000*%
G04 #@! TD*
G04 #@! TA.AperFunction,SMDPad,CuDef*
%ADD27R,1.500000X0.600000*%
G04 #@! TD*
G04 #@! TA.AperFunction,SMDPad,CuDef*
%ADD28R,2.200000X2.200000*%
G04 #@! TD*
G04 #@! TA.AperFunction,SMDPad,CuDef*
%ADD29R,1.400000X1.500000*%
G04 #@! TD*
G04 #@! TA.AperFunction,SMDPad,CuDef*
%ADD30R,1.800000X0.400000*%
G04 #@! TD*
G04 #@! TA.AperFunction,SMDPad,CuDef*
%ADD31R,1.500000X1.350000*%
G04 #@! TD*
G04 #@! TA.AperFunction,SMDPad,CuDef*
%ADD32R,1.000000X1.100000*%
G04 #@! TD*
G04 #@! TA.AperFunction,ViaPad*
%ADD33C,0.600000*%
G04 #@! TD*
G04 #@! TA.AperFunction,Conductor*
%ADD34C,0.250000*%
G04 #@! TD*
G04 #@! TA.AperFunction,Conductor*
%ADD35C,0.200000*%
G04 #@! TD*
G04 APERTURE END LIST*
D10*
G04 #@! TO.P,U2,8*
G04 #@! TO.N,Net-(C15-Pad1)*
X96406000Y-113915000D03*
G04 #@! TO.P,U2,7*
G04 #@! TO.N,RX*
X96406000Y-115185000D03*
G04 #@! TO.P,U2,6*
G04 #@! TO.N,TX*
X96406000Y-116455000D03*
G04 #@! TO.P,U2,5*
G04 #@! TO.N,VBUS*
X96406000Y-117725000D03*
G04 #@! TO.P,U2,4*
G04 #@! TO.N,Net-(U2-Pad4)*
X91006000Y-117725000D03*
G04 #@! TO.P,U2,3*
G04 #@! TO.N,VSS*
X91006000Y-116455000D03*
G04 #@! TO.P,U2,2*
G04 #@! TO.N,Net-(J10-Pad2)*
X91006000Y-115185000D03*
G04 #@! TO.P,U2,1*
G04 #@! TO.N,Net-(J10-Pad3)*
X91006000Y-113915000D03*
G04 #@! TD*
D11*
G04 #@! TO.P,0101,1*
G04 #@! TO.N,VDD*
X84920000Y-93828576D03*
G04 #@! TO.P,0101,2*
G04 #@! TO.N,Net-(LED10-Pad2)*
X84920000Y-96978576D03*
G04 #@! TO.P,0101,4*
G04 #@! TO.N,Net-(LED10-Pad4)*
X90170000Y-93828576D03*
G04 #@! TO.P,0101,3*
G04 #@! TO.N,VSS*
X90170000Y-97028576D03*
G04 #@! TD*
G04 #@! TO.P,0001,1*
G04 #@! TO.N,VDD*
X102215000Y-93825576D03*
G04 #@! TO.P,0001,2*
G04 #@! TO.N,Net-(LED8-Pad2)*
X102215000Y-96975576D03*
G04 #@! TO.P,0001,4*
G04 #@! TO.N,Net-(LED7-Pad2)*
X107465000Y-93825576D03*
G04 #@! TO.P,0001,3*
G04 #@! TO.N,VSS*
X107465000Y-97025576D03*
G04 #@! TD*
G04 #@! TO.P,0100,1*
G04 #@! TO.N,VDD*
X155555000Y-93825576D03*
G04 #@! TO.P,0100,2*
G04 #@! TO.N,Net-(LED2-Pad2)*
X155555000Y-96975576D03*
G04 #@! TO.P,0100,4*
G04 #@! TO.N,Net-(LED1-Pad2)*
X160805000Y-93825576D03*
G04 #@! TO.P,0100,3*
G04 #@! TO.N,VSS*
X160805000Y-97025576D03*
G04 #@! TD*
G04 #@! TO.P,1000,1*
G04 #@! TO.N,VDD*
X164145000Y-93853576D03*
G04 #@! TO.P,1000,2*
G04 #@! TO.N,Net-(LED1-Pad2)*
X164145000Y-97003576D03*
G04 #@! TO.P,1000,4*
G04 #@! TO.N,SPI*
X169395000Y-93853576D03*
G04 #@! TO.P,1000,3*
G04 #@! TO.N,VSS*
X169395000Y-97053576D03*
G04 #@! TD*
G04 #@! TO.P,1100,1*
G04 #@! TO.N,VDD*
X146665000Y-93825576D03*
G04 #@! TO.P,1100,2*
G04 #@! TO.N,Net-(LED3-Pad2)*
X146665000Y-96975576D03*
G04 #@! TO.P,1100,4*
G04 #@! TO.N,Net-(LED2-Pad2)*
X151915000Y-93825576D03*
G04 #@! TO.P,1100,3*
G04 #@! TO.N,VSS*
X151915000Y-97025576D03*
G04 #@! TD*
G04 #@! TO.P,0010,1*
G04 #@! TO.N,VDD*
X137775000Y-93825576D03*
G04 #@! TO.P,0010,2*
G04 #@! TO.N,Net-(LED4-Pad2)*
X137775000Y-96975576D03*
G04 #@! TO.P,0010,4*
G04 #@! TO.N,Net-(LED3-Pad2)*
X143025000Y-93825576D03*
G04 #@! TO.P,0010,3*
G04 #@! TO.N,VSS*
X143025000Y-97025576D03*
G04 #@! TD*
G04 #@! TO.P,1010,1*
G04 #@! TO.N,VDD*
X128885000Y-93825576D03*
G04 #@! TO.P,1010,2*
G04 #@! TO.N,Net-(LED5-Pad2)*
X128885000Y-96975576D03*
G04 #@! TO.P,1010,4*
G04 #@! TO.N,Net-(LED4-Pad2)*
X134135000Y-93825576D03*
G04 #@! TO.P,1010,3*
G04 #@! TO.N,VSS*
X134135000Y-97025576D03*
G04 #@! TD*
G04 #@! TO.P,0110,1*
G04 #@! TO.N,VDD*
X119995000Y-93825576D03*
G04 #@! TO.P,0110,2*
G04 #@! TO.N,Net-(LED6-Pad2)*
X119995000Y-96975576D03*
G04 #@! TO.P,0110,4*
G04 #@! TO.N,Net-(LED5-Pad2)*
X125245000Y-93825576D03*
G04 #@! TO.P,0110,3*
G04 #@! TO.N,VSS*
X125245000Y-97025576D03*
G04 #@! TD*
G04 #@! TO.P,1110,1*
G04 #@! TO.N,VDD*
X111105000Y-93825576D03*
G04 #@! TO.P,1110,2*
G04 #@! TO.N,Net-(LED7-Pad2)*
X111105000Y-96975576D03*
G04 #@! TO.P,1110,4*
G04 #@! TO.N,Net-(LED6-Pad2)*
X116355000Y-93825576D03*
G04 #@! TO.P,1110,3*
G04 #@! TO.N,VSS*
X116355000Y-97025576D03*
G04 #@! TD*
G04 #@! TO.P,1001,1*
G04 #@! TO.N,VDD*
X93325000Y-93825576D03*
G04 #@! TO.P,1001,2*
G04 #@! TO.N,Net-(LED10-Pad4)*
X93325000Y-96975576D03*
G04 #@! TO.P,1001,4*
G04 #@! TO.N,Net-(LED8-Pad2)*
X98575000Y-93825576D03*
G04 #@! TO.P,1001,3*
G04 #@! TO.N,VSS*
X98575000Y-97025576D03*
G04 #@! TD*
D12*
G04 #@! TO.P,U1,38*
G04 #@! TO.N,VSS*
X162730000Y-128380000D03*
G04 #@! TO.P,U1,37*
G04 #@! TO.N,Net-(U1-Pad37)*
X161460000Y-128380000D03*
G04 #@! TO.P,U1,36*
G04 #@! TO.N,Net-(U1-Pad36)*
X160190000Y-128380000D03*
G04 #@! TO.P,U1,35*
G04 #@! TO.N,RX*
X158920000Y-128380000D03*
G04 #@! TO.P,U1,34*
G04 #@! TO.N,TX*
X157650000Y-128380000D03*
G04 #@! TO.P,U1,33*
G04 #@! TO.N,IO21*
X156380000Y-128380000D03*
G04 #@! TO.P,U1,32*
G04 #@! TO.N,Net-(U1-Pad32)*
X155110000Y-128380000D03*
G04 #@! TO.P,U1,31*
G04 #@! TO.N,IO19*
X153840000Y-128380000D03*
G04 #@! TO.P,U1,30*
G04 #@! TO.N,IO18*
X152570000Y-128380000D03*
G04 #@! TO.P,U1,29*
G04 #@! TO.N,IO5*
X151300000Y-128380000D03*
G04 #@! TO.P,U1,28*
G04 #@! TO.N,IO17*
X150030000Y-128380000D03*
G04 #@! TO.P,U1,27*
G04 #@! TO.N,IO16*
X148760000Y-128380000D03*
G04 #@! TO.P,U1,26*
G04 #@! TO.N,P0*
X147490000Y-128380000D03*
G04 #@! TO.P,U1,25*
G04 #@! TO.N,IO0*
X146220000Y-128380000D03*
D13*
G04 #@! TO.P,U1,24*
G04 #@! TO.N,VSS*
X144730000Y-125095000D03*
G04 #@! TO.P,U1,23*
G04 #@! TO.N,P1*
X144730000Y-123825000D03*
G04 #@! TO.P,U1,22*
G04 #@! TO.N,Net-(U1-Pad22)*
X144730000Y-122555000D03*
G04 #@! TO.P,U1,21*
G04 #@! TO.N,Net-(U1-Pad21)*
X144730000Y-121285000D03*
G04 #@! TO.P,U1,20*
G04 #@! TO.N,Net-(U1-Pad20)*
X144730000Y-120015000D03*
G04 #@! TO.P,U1,19*
G04 #@! TO.N,Net-(U1-Pad19)*
X144730000Y-118745000D03*
G04 #@! TO.P,U1,18*
G04 #@! TO.N,Net-(U1-Pad18)*
X144730000Y-117475000D03*
G04 #@! TO.P,U1,17*
G04 #@! TO.N,Net-(U1-Pad17)*
X144730000Y-116205000D03*
G04 #@! TO.P,U1,16*
G04 #@! TO.N,IO13*
X144730000Y-114935000D03*
G04 #@! TO.P,U1,15*
G04 #@! TO.N,VSS*
X144730000Y-113665000D03*
D12*
G04 #@! TO.P,U1,14*
G04 #@! TO.N,P2*
X146220000Y-110380000D03*
G04 #@! TO.P,U1,13*
G04 #@! TO.N,P3*
X147490000Y-110380000D03*
G04 #@! TO.P,U1,12*
G04 #@! TO.N,IO27*
X148760000Y-110380000D03*
G04 #@! TO.P,U1,11*
G04 #@! TO.N,Net-(U1-Pad11)*
X150030000Y-110380000D03*
G04 #@! TO.P,U1,10*
G04 #@! TO.N,SPI*
X151300000Y-110380000D03*
G04 #@! TO.P,U1,9*
G04 #@! TO.N,IO33*
X152570000Y-110380000D03*
G04 #@! TO.P,U1,8*
G04 #@! TO.N,IO32*
X153840000Y-110380000D03*
G04 #@! TO.P,U1,7*
G04 #@! TO.N,IO35*
X155110000Y-110380000D03*
G04 #@! TO.P,U1,6*
G04 #@! TO.N,IO34*
X156380000Y-110380000D03*
G04 #@! TO.P,U1,5*
G04 #@! TO.N,Net-(U1-Pad5)*
X157650000Y-110380000D03*
G04 #@! TO.P,U1,4*
G04 #@! TO.N,Net-(U1-Pad4)*
X158920000Y-110380000D03*
G04 #@! TO.P,U1,3*
G04 #@! TO.N,Net-(C11-Pad1)*
X160190000Y-110380000D03*
G04 #@! TO.P,U1,2*
G04 #@! TO.N,VDD*
X161460000Y-110380000D03*
G04 #@! TO.P,U1,1*
G04 #@! TO.N,VSS*
X162730000Y-110380000D03*
D14*
G04 #@! TO.P,U1,39*
X155030000Y-119080000D03*
G04 #@! TD*
D15*
G04 #@! TO.P,BT1,2*
G04 #@! TO.N,VSS*
X126620000Y-113997000D03*
D16*
G04 #@! TO.P,BT1,1*
G04 #@! TO.N,N/C*
X139320000Y-113997000D03*
G04 #@! TO.N,VDDA*
X113920000Y-113997000D03*
G04 #@! TD*
D17*
G04 #@! TO.P,C1,1*
G04 #@! TO.N,VDD*
X164034000Y-99301000D03*
G04 #@! TO.P,C1,2*
G04 #@! TO.N,VSS*
X166534000Y-99301000D03*
G04 #@! TD*
G04 #@! TO.P,C2,1*
G04 #@! TO.N,VDD*
X155632000Y-99301000D03*
G04 #@! TO.P,C2,2*
G04 #@! TO.N,VSS*
X158132000Y-99301000D03*
G04 #@! TD*
G04 #@! TO.P,C3,1*
G04 #@! TO.N,VDD*
X146488000Y-99301000D03*
G04 #@! TO.P,C3,2*
G04 #@! TO.N,VSS*
X148988000Y-99301000D03*
G04 #@! TD*
G04 #@! TO.P,C4,1*
G04 #@! TO.N,VDD*
X137618000Y-99301000D03*
G04 #@! TO.P,C4,2*
G04 #@! TO.N,VSS*
X140118000Y-99301000D03*
G04 #@! TD*
G04 #@! TO.P,C5,1*
G04 #@! TO.N,VDD*
X128708000Y-99301000D03*
G04 #@! TO.P,C5,2*
G04 #@! TO.N,VSS*
X131208000Y-99301000D03*
G04 #@! TD*
G04 #@! TO.P,C6,1*
G04 #@! TO.N,VDD*
X120072000Y-99301000D03*
G04 #@! TO.P,C6,2*
G04 #@! TO.N,VSS*
X122572000Y-99301000D03*
G04 #@! TD*
G04 #@! TO.P,C7,1*
G04 #@! TO.N,VDD*
X110928000Y-99301000D03*
G04 #@! TO.P,C7,2*
G04 #@! TO.N,VSS*
X113428000Y-99301000D03*
G04 #@! TD*
G04 #@! TO.P,C8,1*
G04 #@! TO.N,VDD*
X101784000Y-99301000D03*
G04 #@! TO.P,C8,2*
G04 #@! TO.N,VSS*
X104284000Y-99301000D03*
G04 #@! TD*
G04 #@! TO.P,C9,1*
G04 #@! TO.N,VDD*
X93148000Y-99301000D03*
G04 #@! TO.P,C9,2*
G04 #@! TO.N,VSS*
X95648000Y-99301000D03*
G04 #@! TD*
G04 #@! TO.P,C10,1*
G04 #@! TO.N,VDD*
X83770000Y-99301000D03*
G04 #@! TO.P,C10,2*
G04 #@! TO.N,VSS*
X86270000Y-99301000D03*
G04 #@! TD*
G04 #@! TO.P,C11,1*
G04 #@! TO.N,Net-(C11-Pad1)*
X161070000Y-106647000D03*
G04 #@! TO.P,C11,2*
G04 #@! TO.N,VSS*
X163570000Y-106647000D03*
G04 #@! TD*
G04 #@! TO.P,C12,1*
G04 #@! TO.N,VSS*
X165820000Y-106647000D03*
G04 #@! TO.P,C12,2*
G04 #@! TO.N,VDD*
X168320000Y-106647000D03*
G04 #@! TD*
G04 #@! TO.P,C13,1*
G04 #@! TO.N,VSS*
X165820000Y-108839000D03*
G04 #@! TO.P,C13,2*
G04 #@! TO.N,VDD*
X168320000Y-108839000D03*
G04 #@! TD*
D18*
G04 #@! TO.P,R1,1*
G04 #@! TO.N,VDD*
X156120000Y-106647000D03*
G04 #@! TO.P,R1,2*
G04 #@! TO.N,Net-(C11-Pad1)*
X158820000Y-106647000D03*
G04 #@! TD*
D19*
G04 #@! TO.P,J5,1*
G04 #@! TO.N,P3*
X93980000Y-142240000D03*
G04 #@! TD*
G04 #@! TO.P,J11,1*
G04 #@! TO.N,P2*
X115570000Y-142240000D03*
G04 #@! TD*
G04 #@! TO.P,J12,1*
G04 #@! TO.N,P1*
X137160000Y-142240000D03*
G04 #@! TD*
G04 #@! TO.P,J13,1*
G04 #@! TO.N,P0*
X158750000Y-142240000D03*
G04 #@! TD*
D20*
G04 #@! TO.P,J4,1*
G04 #@! TO.N,TX*
X165481000Y-131064000D03*
G04 #@! TO.N,RX*
X169291000Y-131064000D03*
G04 #@! TD*
G04 #@! TO.P,J7,1*
G04 #@! TO.N,IO21*
X152400000Y-131826000D03*
G04 #@! TD*
G04 #@! TO.P,J9,1*
G04 #@! TO.N,IO0*
X145034000Y-131826000D03*
G04 #@! TD*
D21*
G04 #@! TO.P,J14,1*
G04 #@! TO.N,VDD*
X88600000Y-129307000D03*
G04 #@! TO.N,VSS*
X84790000Y-129307000D03*
G04 #@! TD*
D17*
G04 #@! TO.P,C14,1*
G04 #@! TO.N,VSS*
X87920000Y-104997000D03*
G04 #@! TO.P,C14,2*
G04 #@! TO.N,VBUS*
X90420000Y-104997000D03*
G04 #@! TD*
G04 #@! TO.P,C15,2*
G04 #@! TO.N,VSS*
X95320000Y-120147000D03*
G04 #@! TO.P,C15,1*
G04 #@! TO.N,Net-(C15-Pad1)*
X97820000Y-120147000D03*
G04 #@! TD*
G04 #@! TO.P,C16,2*
G04 #@! TO.N,VSS*
X108570000Y-120147000D03*
G04 #@! TO.P,C16,1*
G04 #@! TO.N,VDDA*
X106070000Y-120147000D03*
G04 #@! TD*
G04 #@! TO.P,C17,2*
G04 #@! TO.N,VDDA*
X98670000Y-104997000D03*
G04 #@! TO.P,C17,1*
G04 #@! TO.N,VSS*
X101170000Y-104997000D03*
G04 #@! TD*
G04 #@! TO.P,C18,1*
G04 #@! TO.N,VDD*
X103570000Y-120147000D03*
G04 #@! TO.P,C18,2*
G04 #@! TO.N,VSS*
X101070000Y-120147000D03*
G04 #@! TD*
G04 #@! TO.P,C19,1*
G04 #@! TO.N,VSS*
X89820000Y-120147000D03*
G04 #@! TO.P,C19,2*
G04 #@! TO.N,VBUS*
X92320000Y-120147000D03*
G04 #@! TD*
D22*
G04 #@! TO.P,J8,1*
G04 #@! TO.N,IO16*
X122030000Y-130147000D03*
D23*
G04 #@! TO.P,J8,2*
G04 #@! TO.N,IO17*
X124570000Y-130147000D03*
G04 #@! TO.P,J8,3*
G04 #@! TO.N,IO5*
X127110000Y-130147000D03*
G04 #@! TO.P,J8,4*
G04 #@! TO.N,IO18*
X129650000Y-130147000D03*
G04 #@! TO.P,J8,5*
G04 #@! TO.N,IO19*
X132190000Y-130147000D03*
G04 #@! TD*
D18*
G04 #@! TO.P,R2,1*
G04 #@! TO.N,Net-(R2-Pad1)*
X93120000Y-104997000D03*
G04 #@! TO.P,R2,2*
G04 #@! TO.N,VSS*
X95820000Y-104997000D03*
G04 #@! TD*
D24*
G04 #@! TO.P,U4,2*
G04 #@! TO.N,VDD*
X106570000Y-110647000D03*
D25*
X106570000Y-116947000D03*
G04 #@! TO.P,U4,3*
G04 #@! TO.N,VDDA*
X108870000Y-116947000D03*
G04 #@! TO.P,U4,1*
G04 #@! TO.N,VSS*
X104270000Y-116947000D03*
G04 #@! TD*
D18*
G04 #@! TO.P,R3,1*
G04 #@! TO.N,VDD*
X108620000Y-106647000D03*
G04 #@! TO.P,R3,2*
G04 #@! TO.N,VDDA*
X111320000Y-106647000D03*
G04 #@! TD*
D26*
G04 #@! TO.P,R4,1*
G04 #@! TO.N,IO13*
X140320000Y-121597000D03*
G04 #@! TO.P,R4,2*
G04 #@! TO.N,Net-(LS1-Pad1)*
X140320000Y-124297000D03*
G04 #@! TD*
D22*
G04 #@! TO.P,J1,1*
G04 #@! TO.N,IO33*
X144450000Y-106647000D03*
D23*
G04 #@! TO.P,J1,2*
G04 #@! TO.N,IO32*
X146990000Y-106647000D03*
G04 #@! TO.P,J1,3*
G04 #@! TO.N,IO35*
X149530000Y-106647000D03*
G04 #@! TO.P,J1,4*
G04 #@! TO.N,IO34*
X152070000Y-106647000D03*
G04 #@! TD*
D27*
G04 #@! TO.P,U3,1*
G04 #@! TO.N,N/C*
X90960000Y-107497000D03*
G04 #@! TO.P,U3,2*
G04 #@! TO.N,Net-(R2-Pad1)*
X90960000Y-108767000D03*
G04 #@! TO.P,U3,3*
G04 #@! TO.N,VSS*
X90960000Y-110037000D03*
G04 #@! TO.P,U3,4*
G04 #@! TO.N,VBUS*
X90960000Y-111307000D03*
G04 #@! TO.P,U3,6*
G04 #@! TO.N,IO27*
X96410000Y-110037000D03*
G04 #@! TO.P,U3,5*
G04 #@! TO.N,VDDA*
X96410000Y-111307000D03*
G04 #@! TO.P,U3,8*
G04 #@! TO.N,N/C*
X96410000Y-107497000D03*
G04 #@! TO.P,U3,7*
G04 #@! TO.N,Net-(U3-Pad7)*
X96410000Y-108767000D03*
D28*
G04 #@! TO.P,U3,9*
G04 #@! TO.N,VSS*
X93710000Y-109447000D03*
G04 #@! TD*
D29*
G04 #@! TO.P,J10,6*
G04 #@! TO.N,VSS*
X85820000Y-110407000D03*
X85820000Y-116907000D03*
D30*
G04 #@! TO.P,J10,3*
G04 #@! TO.N,Net-(J10-Pad3)*
X86020000Y-113657000D03*
G04 #@! TO.P,J10,2*
G04 #@! TO.N,Net-(J10-Pad2)*
X86020000Y-113007000D03*
G04 #@! TO.P,J10,4*
G04 #@! TO.N,Net-(J10-Pad4)*
X86020000Y-114307000D03*
G04 #@! TO.P,J10,1*
G04 #@! TO.N,VBUS*
X86020000Y-112357000D03*
G04 #@! TO.P,J10,5*
G04 #@! TO.N,VSS*
X86020000Y-114957000D03*
D31*
G04 #@! TO.P,J10,6*
X83150000Y-109582000D03*
X83150000Y-117732000D03*
D32*
X81970000Y-112157000D03*
X81970000Y-115157000D03*
G04 #@! TD*
D33*
G04 #@! TO.N,VDD*
X108320000Y-106897000D03*
X156120000Y-106397000D03*
X110720000Y-99797000D03*
X101520000Y-99797000D03*
X92920000Y-99797000D03*
X83320000Y-99797000D03*
X105370000Y-110647000D03*
X107570000Y-110647000D03*
X92038320Y-96280781D03*
X92132000Y-93713000D03*
X100768000Y-96761000D03*
X100768000Y-93713000D03*
X109755769Y-96810229D03*
X109912000Y-94221000D03*
X118548000Y-96253000D03*
X118548000Y-93713000D03*
X127535769Y-96810229D03*
X127692000Y-94221000D03*
X136328000Y-96761000D03*
X136328000Y-94221000D03*
X145315769Y-96810229D03*
X145315769Y-93869231D03*
X154108000Y-96761000D03*
X154108000Y-94221000D03*
X162744000Y-96761000D03*
X162744000Y-94221000D03*
X168070000Y-105397000D03*
X161920000Y-108197000D03*
G04 #@! TO.N,VSS*
X119997600Y-114321400D03*
X155030000Y-119080000D03*
X162814000Y-125984000D03*
G04 #@! TO.N,SPI*
X170945000Y-94197000D03*
X151300000Y-110380000D03*
G04 #@! TO.N,TX*
X97020000Y-116397000D03*
G04 #@! TO.N,RX*
X97020000Y-115197000D03*
G04 #@! TO.N,TX*
X157650000Y-128380000D03*
G04 #@! TO.N,RX*
X158920000Y-128380000D03*
G04 #@! TO.N,IO19*
X153820000Y-129397000D03*
G04 #@! TO.N,IO18*
X152570000Y-128897000D03*
G04 #@! TO.N,IO5*
X151320000Y-128397000D03*
G04 #@! TO.N,IO17*
X150070000Y-127947000D03*
G04 #@! TO.N,IO16*
X142120000Y-126246989D03*
X139670000Y-126246989D03*
G04 #@! TO.N,IO27*
X148320000Y-112147000D03*
X96410000Y-110037000D03*
G04 #@! TO.N,Net-(J10-Pad3)*
X89240000Y-114857000D03*
X91006000Y-113915000D03*
G04 #@! TO.N,Net-(LS1-Pad1)*
X137920000Y-120430000D03*
G04 #@! TD*
D34*
G04 #@! TO.N,VDD*
X84620000Y-93828576D02*
X84920000Y-93828576D01*
X83770000Y-94678576D02*
X84620000Y-93828576D01*
X83770000Y-99301000D02*
X83770000Y-94678576D01*
X92038320Y-98191320D02*
X92038320Y-96280781D01*
X92038320Y-98316320D02*
X92038320Y-98191320D01*
X93148000Y-99301000D02*
X93023000Y-99301000D01*
X93023000Y-99301000D02*
X92038320Y-98316320D01*
X93212424Y-93713000D02*
X93325000Y-93825576D01*
X92132000Y-93713000D02*
X93212424Y-93713000D01*
X100768000Y-97410000D02*
X100768000Y-96761000D01*
X101784000Y-99301000D02*
X101784000Y-98426000D01*
X101784000Y-98426000D02*
X100768000Y-97410000D01*
X102102424Y-93713000D02*
X102215000Y-93825576D01*
X100768000Y-93713000D02*
X102102424Y-93713000D01*
X109755769Y-98253769D02*
X109755769Y-96810229D01*
X110928000Y-99301000D02*
X110803000Y-99301000D01*
X110803000Y-99301000D02*
X109755769Y-98253769D01*
X110709576Y-94221000D02*
X111105000Y-93825576D01*
X109912000Y-94221000D02*
X110709576Y-94221000D01*
X118548000Y-97902000D02*
X118548000Y-96253000D01*
X120072000Y-99301000D02*
X119947000Y-99301000D01*
X119947000Y-99301000D02*
X118548000Y-97902000D01*
X119882424Y-93713000D02*
X119995000Y-93825576D01*
X118548000Y-93713000D02*
X119882424Y-93713000D01*
X127535769Y-98253769D02*
X127535769Y-96810229D01*
X128708000Y-99301000D02*
X128583000Y-99301000D01*
X128583000Y-99301000D02*
X127535769Y-98253769D01*
X128489576Y-94221000D02*
X128885000Y-93825576D01*
X127692000Y-94221000D02*
X128489576Y-94221000D01*
X136328000Y-98011000D02*
X136328000Y-96761000D01*
X136328000Y-98136000D02*
X136328000Y-98011000D01*
X137618000Y-99301000D02*
X137493000Y-99301000D01*
X137493000Y-99301000D02*
X136328000Y-98136000D01*
X137379576Y-94221000D02*
X137775000Y-93825576D01*
X136328000Y-94221000D02*
X137379576Y-94221000D01*
X145315769Y-98128769D02*
X145315769Y-96810229D01*
X145315769Y-98253769D02*
X145315769Y-98128769D01*
X146488000Y-99301000D02*
X146363000Y-99301000D01*
X146363000Y-99301000D02*
X145315769Y-98253769D01*
X146621345Y-93869231D02*
X146665000Y-93825576D01*
X145315769Y-93869231D02*
X146621345Y-93869231D01*
X154108000Y-97902000D02*
X154108000Y-96761000D01*
X155632000Y-99301000D02*
X155507000Y-99301000D01*
X155507000Y-99301000D02*
X154108000Y-97902000D01*
X155159576Y-94221000D02*
X155555000Y-93825576D01*
X154108000Y-94221000D02*
X155159576Y-94221000D01*
X162744000Y-98011000D02*
X162744000Y-96761000D01*
X164034000Y-99301000D02*
X163909000Y-99301000D01*
X162744000Y-98136000D02*
X162744000Y-98011000D01*
X163909000Y-99301000D02*
X162744000Y-98136000D01*
X163777576Y-94221000D02*
X164145000Y-93853576D01*
X162744000Y-94221000D02*
X163777576Y-94221000D01*
X103695000Y-120147000D02*
X106570000Y-117272000D01*
X106570000Y-117272000D02*
X106570000Y-116947000D01*
X103570000Y-120147000D02*
X103695000Y-120147000D01*
X106570000Y-115697000D02*
X106570000Y-110647000D01*
X106570000Y-116947000D02*
X106570000Y-115697000D01*
X168320000Y-108839000D02*
X168320000Y-106647000D01*
X168320000Y-106647000D02*
X168320000Y-105647000D01*
X168320000Y-105647000D02*
X168070000Y-105397000D01*
X161460000Y-110380000D02*
X161460000Y-108657000D01*
X161460000Y-108657000D02*
X161920000Y-108197000D01*
X162219999Y-107897001D02*
X161920000Y-108197000D01*
X162228001Y-107888999D02*
X162219999Y-107897001D01*
X168244999Y-107888999D02*
X162228001Y-107888999D01*
X168320000Y-107964000D02*
X168244999Y-107888999D01*
X168320000Y-108839000D02*
X168320000Y-107964000D01*
G04 #@! TO.N,VSS*
X162730000Y-128380000D02*
X162814000Y-128296000D01*
X162814000Y-128296000D02*
X162814000Y-125984000D01*
X144430280Y-125394720D02*
X144730000Y-125095000D01*
X87270000Y-99301000D02*
X86270000Y-99301000D01*
X88647576Y-99301000D02*
X87270000Y-99301000D01*
X90170000Y-97778576D02*
X88647576Y-99301000D01*
X90170000Y-97028576D02*
X90170000Y-97778576D01*
X97049576Y-99301000D02*
X96648000Y-99301000D01*
X96648000Y-99301000D02*
X95648000Y-99301000D01*
X98575000Y-97775576D02*
X97049576Y-99301000D01*
X98575000Y-97025576D02*
X98575000Y-97775576D01*
X98575000Y-97775576D02*
X98720000Y-97920576D01*
X98720000Y-97920576D02*
X98720000Y-99397000D01*
X90170000Y-97778576D02*
X90520000Y-98128576D01*
X90520000Y-98128576D02*
X90520000Y-98797000D01*
X108720000Y-97980576D02*
X108720000Y-98280576D01*
X107465000Y-97025576D02*
X107765000Y-97025576D01*
X107765000Y-97025576D02*
X108720000Y-97980576D01*
X108720000Y-98280576D02*
X108720000Y-98597000D01*
X116655000Y-97025576D02*
X117520000Y-97890576D01*
X116355000Y-97025576D02*
X116655000Y-97025576D01*
X117520000Y-97890576D02*
X117520000Y-98597000D01*
X126295000Y-97025576D02*
X126520000Y-97250576D01*
X125245000Y-97025576D02*
X126295000Y-97025576D01*
X126520000Y-97250576D02*
X126520000Y-98797000D01*
X134435000Y-97025576D02*
X135520000Y-98110576D01*
X134135000Y-97025576D02*
X134435000Y-97025576D01*
X135520000Y-98110576D02*
X135520000Y-98797000D01*
X143325000Y-97025576D02*
X144520000Y-98220576D01*
X143025000Y-97025576D02*
X143325000Y-97025576D01*
X144520000Y-98220576D02*
X144520000Y-98597000D01*
X152215000Y-97025576D02*
X153320000Y-98130576D01*
X151915000Y-97025576D02*
X152215000Y-97025576D01*
X153320000Y-98130576D02*
X153320000Y-98597000D01*
X160805000Y-97025576D02*
X161105000Y-97025576D01*
X161920000Y-97840576D02*
X161920000Y-98140576D01*
X161105000Y-97025576D02*
X161920000Y-97840576D01*
X161920000Y-98140576D02*
X161920000Y-98397000D01*
X169695000Y-97053576D02*
X170320000Y-97678576D01*
X169395000Y-97053576D02*
X169695000Y-97053576D01*
X170320000Y-97678576D02*
X170320000Y-98997000D01*
X93120000Y-110037000D02*
X90960000Y-110037000D01*
X93710000Y-109447000D02*
X93120000Y-110037000D01*
X82170000Y-114957000D02*
X81970000Y-115157000D01*
X86020000Y-114957000D02*
X82170000Y-114957000D01*
X89981000Y-116455000D02*
X91006000Y-116455000D01*
X88668000Y-116455000D02*
X89981000Y-116455000D01*
X87170000Y-114957000D02*
X88668000Y-116455000D01*
X86020000Y-114957000D02*
X87170000Y-114957000D01*
G04 #@! TO.N,SPI*
X169395000Y-93853576D02*
X170601576Y-93853576D01*
X170601576Y-93853576D02*
X170945000Y-94197000D01*
G04 #@! TO.N,Net-(LED1-Pad2)*
X164145000Y-96865576D02*
X164145000Y-97003576D01*
X161105000Y-93825576D02*
X164145000Y-96865576D01*
X160805000Y-93825576D02*
X161105000Y-93825576D01*
G04 #@! TO.N,Net-(LED2-Pad2)*
X152105000Y-93825576D02*
X151915000Y-93825576D01*
X155255000Y-96975576D02*
X152105000Y-93825576D01*
X155555000Y-96975576D02*
X155255000Y-96975576D01*
G04 #@! TO.N,Net-(LED3-Pad2)*
X143215000Y-93825576D02*
X143025000Y-93825576D01*
X146365000Y-96975576D02*
X143215000Y-93825576D01*
X146665000Y-96975576D02*
X146365000Y-96975576D01*
G04 #@! TO.N,Net-(LED4-Pad2)*
X134325000Y-93825576D02*
X134135000Y-93825576D01*
X137475000Y-96975576D02*
X134325000Y-93825576D01*
X137775000Y-96975576D02*
X137475000Y-96975576D01*
G04 #@! TO.N,Net-(LED5-Pad2)*
X125435000Y-93825576D02*
X125245000Y-93825576D01*
X128585000Y-96975576D02*
X125435000Y-93825576D01*
X128885000Y-96975576D02*
X128585000Y-96975576D01*
G04 #@! TO.N,Net-(LED6-Pad2)*
X117405000Y-93825576D02*
X116355000Y-93825576D01*
X117595000Y-93825576D02*
X117405000Y-93825576D01*
X119995000Y-96225576D02*
X117595000Y-93825576D01*
X119995000Y-96975576D02*
X119995000Y-96225576D01*
G04 #@! TO.N,Net-(LED7-Pad2)*
X110805000Y-96975576D02*
X107655000Y-93825576D01*
X107655000Y-93825576D02*
X107465000Y-93825576D01*
X111105000Y-96975576D02*
X110805000Y-96975576D01*
G04 #@! TO.N,Net-(LED8-Pad2)*
X98765000Y-93825576D02*
X98575000Y-93825576D01*
X101915000Y-96975576D02*
X98765000Y-93825576D01*
X102215000Y-96975576D02*
X101915000Y-96975576D01*
G04 #@! TO.N,Net-(LED10-Pad4)*
X93325000Y-96683576D02*
X93325000Y-96975576D01*
X90470000Y-93828576D02*
X93325000Y-96683576D01*
X90170000Y-93828576D02*
X90470000Y-93828576D01*
G04 #@! TO.N,Net-(U1-Pad37)*
X161460000Y-128380000D02*
X161376000Y-128464000D01*
X161376000Y-128464000D02*
X161460000Y-128380000D01*
G04 #@! TO.N,RX*
X159766000Y-130556000D02*
X163068000Y-130556000D01*
X159004000Y-129794000D02*
X159766000Y-130556000D01*
X159004000Y-129540000D02*
X159004000Y-129794000D01*
X158920000Y-128380000D02*
X159004000Y-128464000D01*
X159004000Y-128464000D02*
X159004000Y-129540000D01*
X168402000Y-130175000D02*
X169291000Y-131064000D01*
X167894000Y-129286000D02*
X168402000Y-130175000D01*
X167894000Y-129286000D02*
X167894000Y-129286000D01*
X164338000Y-129286000D02*
X167894000Y-129286000D01*
X163068000Y-130556000D02*
X164338000Y-129286000D01*
G04 #@! TO.N,TX*
X157650000Y-128380000D02*
X157480000Y-128550000D01*
X157480000Y-128550000D02*
X157480000Y-130556000D01*
X157480000Y-130556000D02*
X158242000Y-131318000D01*
X158242000Y-131318000D02*
X165227000Y-131318000D01*
X165227000Y-131318000D02*
X165481000Y-131064000D01*
G04 #@! TO.N,IO21*
X152400000Y-131826000D02*
X153416000Y-130810000D01*
X156464000Y-129794000D02*
X156464000Y-128464000D01*
X155448000Y-130810000D02*
X156464000Y-129794000D01*
X153416000Y-130810000D02*
X155448000Y-130810000D01*
X156464000Y-128464000D02*
X156380000Y-128380000D01*
G04 #@! TO.N,IO16*
X147253018Y-126246989D02*
X142120000Y-126246989D01*
X148760000Y-128380000D02*
X148760000Y-127580000D01*
X147426989Y-126246989D02*
X147253018Y-126246989D01*
X148760000Y-127580000D02*
X147426989Y-126246989D01*
X122030000Y-129047000D02*
X122030000Y-130147000D01*
X124830011Y-126246989D02*
X122030000Y-129047000D01*
X139670000Y-126246989D02*
X124830011Y-126246989D01*
G04 #@! TO.N,P0*
X147490000Y-128380000D02*
X147320000Y-128550000D01*
X147320000Y-128550000D02*
X147320000Y-134239000D01*
X150749000Y-134239000D02*
X158750000Y-142240000D01*
X147320000Y-134239000D02*
X150749000Y-134239000D01*
G04 #@! TO.N,IO0*
X145034000Y-131826000D02*
X146220000Y-130640000D01*
X146220000Y-130640000D02*
X146220000Y-128380000D01*
G04 #@! TO.N,P3*
X93980000Y-142240000D02*
X93980000Y-140970000D01*
X147490000Y-109753971D02*
X146541019Y-108804990D01*
X147490000Y-110380000D02*
X147490000Y-109753971D01*
X141811008Y-108804990D02*
X128720000Y-121895998D01*
X144520000Y-108804990D02*
X141811008Y-108804990D01*
X146541019Y-108804990D02*
X144520000Y-108804990D01*
X144520000Y-108804990D02*
X144313012Y-108804990D01*
X114324002Y-121895998D02*
X111970000Y-124250000D01*
X128720000Y-121895998D02*
X114324002Y-121895998D01*
X112073010Y-124146990D02*
X111970000Y-124250000D01*
X111970000Y-124250000D02*
X94380010Y-141839990D01*
G04 #@! TO.N,IO13*
X140320000Y-120597000D02*
X140320000Y-121597000D01*
X140320000Y-118545000D02*
X140320000Y-120597000D01*
X143930000Y-114935000D02*
X140320000Y-118545000D01*
X144730000Y-114935000D02*
X143930000Y-114935000D01*
G04 #@! TO.N,P1*
X143230000Y-123825000D02*
X141007991Y-126047009D01*
X144730000Y-123825000D02*
X143230000Y-123825000D01*
X141007991Y-138392009D02*
X137603010Y-141796990D01*
X141007991Y-126047009D02*
X141007991Y-138392009D01*
G04 #@! TO.N,IO27*
X148320000Y-112147000D02*
X148760000Y-111707000D01*
X148760000Y-111707000D02*
X148760000Y-110380000D01*
G04 #@! TO.N,IO33*
X145019439Y-106647000D02*
X144450000Y-106647000D01*
X147094460Y-108722021D02*
X145019439Y-106647000D01*
X151538050Y-108722021D02*
X147094460Y-108722021D01*
X152075010Y-109258981D02*
X151538050Y-108722021D01*
X152075010Y-109902010D02*
X152075010Y-109258981D01*
X152553000Y-110380000D02*
X152075010Y-109902010D01*
X152570000Y-110380000D02*
X152553000Y-110380000D01*
G04 #@! TO.N,IO32*
X152358040Y-108272011D02*
X148615011Y-108272011D01*
X147839999Y-107496999D02*
X146990000Y-106647000D01*
X148615011Y-108272011D02*
X147839999Y-107496999D01*
X153840000Y-109753971D02*
X152358040Y-108272011D01*
X153840000Y-110380000D02*
X153840000Y-109753971D01*
G04 #@! TO.N,IO35*
X150705001Y-107822001D02*
X150379999Y-107496999D01*
X150379999Y-107496999D02*
X149530000Y-106647000D01*
X153352001Y-107822001D02*
X150705001Y-107822001D01*
X155110000Y-109580000D02*
X153352001Y-107822001D01*
X155110000Y-110380000D02*
X155110000Y-109580000D01*
G04 #@! TO.N,IO34*
X153272081Y-106647000D02*
X152070000Y-106647000D01*
X154147000Y-106647000D02*
X153272081Y-106647000D01*
X156380000Y-108880000D02*
X154147000Y-106647000D01*
X156380000Y-110380000D02*
X156380000Y-108880000D01*
G04 #@! TO.N,Net-(C11-Pad1)*
X158820000Y-106647000D02*
X161070000Y-106647000D01*
X160190000Y-108880000D02*
X160190000Y-110380000D01*
X160190000Y-108402000D02*
X160190000Y-108880000D01*
X161070000Y-107522000D02*
X160190000Y-108402000D01*
X161070000Y-106647000D02*
X161070000Y-107522000D01*
G04 #@! TO.N,P2*
X115570000Y-142240000D02*
X115570000Y-134620000D01*
X116320000Y-141490000D02*
X115970010Y-141839990D01*
X116320000Y-129597000D02*
X116320000Y-141490000D01*
X121320000Y-124597000D02*
X116320000Y-129597000D01*
X131303000Y-124597000D02*
X121320000Y-124597000D01*
X146220000Y-110380000D02*
X145520000Y-110380000D01*
X145520000Y-110380000D02*
X131303000Y-124597000D01*
G04 #@! TO.N,VDDA*
X108870000Y-115697000D02*
X108870000Y-116947000D01*
X108730001Y-109321999D02*
X108870000Y-109461998D01*
X108870000Y-109461998D02*
X108870000Y-115697000D01*
X108870000Y-117472000D02*
X108870000Y-116947000D01*
X106195000Y-120147000D02*
X108870000Y-117472000D01*
X106070000Y-120147000D02*
X106195000Y-120147000D01*
X113410000Y-114507000D02*
X113920000Y-113997000D01*
X110970000Y-116947000D02*
X113920000Y-113997000D01*
X108870000Y-116947000D02*
X110970000Y-116947000D01*
X111220000Y-106647000D02*
X111320000Y-106647000D01*
X108730001Y-109136999D02*
X111220000Y-106647000D01*
X108730001Y-109321999D02*
X108730001Y-109136999D01*
X96860000Y-111307000D02*
X96410000Y-111307000D01*
X98670000Y-109497000D02*
X96860000Y-111307000D01*
X98670000Y-104997000D02*
X98670000Y-109497000D01*
X98845001Y-109321999D02*
X98670000Y-109497000D01*
X108730001Y-109321999D02*
X98845001Y-109321999D01*
G04 #@! TO.N,VBUS*
X96570000Y-117889000D02*
X96406000Y-117725000D01*
X94867000Y-117725000D02*
X95381000Y-117725000D01*
X92445000Y-120147000D02*
X94867000Y-117725000D01*
X92320000Y-120147000D02*
X92445000Y-120147000D01*
X90960000Y-111857000D02*
X90960000Y-111307000D01*
X90460000Y-112357000D02*
X90960000Y-111857000D01*
X86020000Y-112357000D02*
X90460000Y-112357000D01*
X95305999Y-117440999D02*
X95590000Y-117725000D01*
X95305999Y-116554997D02*
X95305999Y-117440999D01*
X91108002Y-112357000D02*
X95305999Y-116554997D01*
X95381000Y-117725000D02*
X95590000Y-117725000D01*
X90460000Y-112357000D02*
X91108002Y-112357000D01*
X95590000Y-117725000D02*
X96406000Y-117725000D01*
X90420000Y-105872000D02*
X90420000Y-104997000D01*
X89420000Y-106872000D02*
X90420000Y-105872000D01*
X89420000Y-110217000D02*
X89420000Y-106872000D01*
X90510000Y-111307000D02*
X89420000Y-110217000D01*
X90960000Y-111307000D02*
X90510000Y-111307000D01*
G04 #@! TO.N,Net-(C15-Pad1)*
X96638000Y-114147000D02*
X96406000Y-113915000D01*
X97820000Y-119272000D02*
X97820000Y-120147000D01*
X97820000Y-114304000D02*
X97820000Y-119272000D01*
X97431000Y-113915000D02*
X97820000Y-114304000D01*
X96406000Y-113915000D02*
X97431000Y-113915000D01*
G04 #@! TO.N,Net-(J10-Pad2)*
X90531000Y-115185000D02*
X91006000Y-115185000D01*
X86020000Y-113007000D02*
X88437998Y-113007000D01*
X88437998Y-113007000D02*
X89981000Y-114550002D01*
X89981000Y-114550002D02*
X89981000Y-114635000D01*
X89981000Y-114635000D02*
X90531000Y-115185000D01*
G04 #@! TO.N,Net-(R2-Pad1)*
X91410000Y-108767000D02*
X90960000Y-108767000D01*
X93120000Y-107057000D02*
X91410000Y-108767000D01*
X93120000Y-104997000D02*
X93120000Y-107057000D01*
G04 #@! TO.N,Net-(J10-Pad3)*
X87170000Y-113657000D02*
X88460000Y-114947000D01*
X86020000Y-113657000D02*
X87170000Y-113657000D01*
X88460000Y-114947000D02*
X89150000Y-114947000D01*
X89150000Y-114947000D02*
X89240000Y-114857000D01*
G04 #@! TO.N,Net-(LS1-Pad1)*
X138420000Y-124297000D02*
X137920000Y-123797000D01*
X137920000Y-123797000D02*
X137920000Y-120430000D01*
X140320000Y-124297000D02*
X138420000Y-124297000D01*
G04 #@! TD*
D35*
G04 #@! TO.N,VSS*
G36*
X170837000Y-93153044D02*
X170772470Y-93140209D01*
X170767723Y-93116346D01*
X170633343Y-92915233D01*
X170432230Y-92780853D01*
X170195000Y-92733665D01*
X169922147Y-92733665D01*
X169914822Y-92696838D01*
X169769391Y-92479185D01*
X169551738Y-92333754D01*
X169359803Y-92295576D01*
X169295000Y-92282686D01*
X169230197Y-92295576D01*
X164359803Y-92295576D01*
X164295000Y-92282686D01*
X164230197Y-92295576D01*
X164038262Y-92333754D01*
X163820609Y-92479185D01*
X163675178Y-92696838D01*
X163667853Y-92733665D01*
X163345000Y-92733665D01*
X163107770Y-92780853D01*
X162906657Y-92915233D01*
X162772277Y-93116346D01*
X162733160Y-93313000D01*
X162563388Y-93313000D01*
X162229659Y-93451235D01*
X162224911Y-93455983D01*
X162224911Y-93325576D01*
X162177723Y-93088346D01*
X162043343Y-92887233D01*
X161842230Y-92752853D01*
X161605000Y-92705665D01*
X161332147Y-92705665D01*
X161324822Y-92668838D01*
X161179391Y-92451185D01*
X160961738Y-92305754D01*
X160769803Y-92267576D01*
X160705000Y-92254686D01*
X160640197Y-92267576D01*
X155769803Y-92267576D01*
X155705000Y-92254686D01*
X155640197Y-92267576D01*
X155448262Y-92305754D01*
X155230609Y-92451185D01*
X155085178Y-92668838D01*
X155077853Y-92705665D01*
X154755000Y-92705665D01*
X154517770Y-92752853D01*
X154316657Y-92887233D01*
X154182277Y-93088346D01*
X154137591Y-93313000D01*
X153927388Y-93313000D01*
X153593659Y-93451235D01*
X153338235Y-93706659D01*
X153334911Y-93714684D01*
X153334911Y-93325576D01*
X153287723Y-93088346D01*
X153153343Y-92887233D01*
X152952230Y-92752853D01*
X152715000Y-92705665D01*
X152442147Y-92705665D01*
X152434822Y-92668838D01*
X152289391Y-92451185D01*
X152071738Y-92305754D01*
X151879803Y-92267576D01*
X151815000Y-92254686D01*
X151750197Y-92267576D01*
X146879803Y-92267576D01*
X146815000Y-92254686D01*
X146750197Y-92267576D01*
X146558262Y-92305754D01*
X146340609Y-92451185D01*
X146195178Y-92668838D01*
X146187853Y-92705665D01*
X145865000Y-92705665D01*
X145627770Y-92752853D01*
X145426657Y-92887233D01*
X145377213Y-92961231D01*
X145135157Y-92961231D01*
X144801428Y-93099466D01*
X144546004Y-93354890D01*
X144444911Y-93598950D01*
X144444911Y-93325576D01*
X144397723Y-93088346D01*
X144263343Y-92887233D01*
X144062230Y-92752853D01*
X143825000Y-92705665D01*
X143552147Y-92705665D01*
X143544822Y-92668838D01*
X143399391Y-92451185D01*
X143181738Y-92305754D01*
X142989803Y-92267576D01*
X142925000Y-92254686D01*
X142860197Y-92267576D01*
X137989803Y-92267576D01*
X137925000Y-92254686D01*
X137860197Y-92267576D01*
X137668262Y-92305754D01*
X137450609Y-92451185D01*
X137305178Y-92668838D01*
X137297853Y-92705665D01*
X136975000Y-92705665D01*
X136737770Y-92752853D01*
X136536657Y-92887233D01*
X136402277Y-93088346D01*
X136357591Y-93313000D01*
X136147388Y-93313000D01*
X135813659Y-93451235D01*
X135558235Y-93706659D01*
X135554911Y-93714684D01*
X135554911Y-93325576D01*
X135507723Y-93088346D01*
X135373343Y-92887233D01*
X135172230Y-92752853D01*
X134935000Y-92705665D01*
X134662147Y-92705665D01*
X134654822Y-92668838D01*
X134509391Y-92451185D01*
X134291738Y-92305754D01*
X134099803Y-92267576D01*
X134035000Y-92254686D01*
X133970197Y-92267576D01*
X129099803Y-92267576D01*
X129035000Y-92254686D01*
X128970197Y-92267576D01*
X128778262Y-92305754D01*
X128560609Y-92451185D01*
X128415178Y-92668838D01*
X128407853Y-92705665D01*
X128085000Y-92705665D01*
X127847770Y-92752853D01*
X127646657Y-92887233D01*
X127512277Y-93088346D01*
X127465089Y-93325576D01*
X127465089Y-93332178D01*
X127177659Y-93451235D01*
X126922235Y-93706659D01*
X126784000Y-94040388D01*
X126784000Y-94137958D01*
X126664911Y-94018869D01*
X126664911Y-93325576D01*
X126617723Y-93088346D01*
X126483343Y-92887233D01*
X126282230Y-92752853D01*
X126045000Y-92705665D01*
X125772147Y-92705665D01*
X125764822Y-92668838D01*
X125619391Y-92451185D01*
X125401738Y-92305754D01*
X125209803Y-92267576D01*
X125145000Y-92254686D01*
X125080197Y-92267576D01*
X120209803Y-92267576D01*
X120145000Y-92254686D01*
X120080197Y-92267576D01*
X119888262Y-92305754D01*
X119670609Y-92451185D01*
X119525178Y-92668838D01*
X119517853Y-92705665D01*
X119195000Y-92705665D01*
X118957770Y-92752853D01*
X118821898Y-92843640D01*
X118728612Y-92805000D01*
X118367388Y-92805000D01*
X118033659Y-92943235D01*
X117848295Y-93128599D01*
X117731093Y-93105286D01*
X117727723Y-93088346D01*
X117593343Y-92887233D01*
X117392230Y-92752853D01*
X117155000Y-92705665D01*
X116882147Y-92705665D01*
X116874822Y-92668838D01*
X116729391Y-92451185D01*
X116511738Y-92305754D01*
X116319803Y-92267576D01*
X116255000Y-92254686D01*
X116190197Y-92267576D01*
X111319803Y-92267576D01*
X111255000Y-92254686D01*
X111190197Y-92267576D01*
X110998262Y-92305754D01*
X110780609Y-92451185D01*
X110635178Y-92668838D01*
X110627853Y-92705665D01*
X110305000Y-92705665D01*
X110067770Y-92752853D01*
X109866657Y-92887233D01*
X109732277Y-93088346D01*
X109685089Y-93325576D01*
X109685089Y-93332178D01*
X109397659Y-93451235D01*
X109142235Y-93706659D01*
X109004000Y-94040388D01*
X109004000Y-94137958D01*
X108884911Y-94018869D01*
X108884911Y-93325576D01*
X108837723Y-93088346D01*
X108703343Y-92887233D01*
X108502230Y-92752853D01*
X108265000Y-92705665D01*
X107992147Y-92705665D01*
X107984822Y-92668838D01*
X107839391Y-92451185D01*
X107621738Y-92305754D01*
X107429803Y-92267576D01*
X107365000Y-92254686D01*
X107300197Y-92267576D01*
X102429803Y-92267576D01*
X102365000Y-92254686D01*
X102300197Y-92267576D01*
X102108262Y-92305754D01*
X101890609Y-92451185D01*
X101745178Y-92668838D01*
X101737853Y-92705665D01*
X101415000Y-92705665D01*
X101177770Y-92752853D01*
X101041898Y-92843640D01*
X100948612Y-92805000D01*
X100587388Y-92805000D01*
X100253659Y-92943235D01*
X99998235Y-93198659D01*
X99978934Y-93245255D01*
X99947723Y-93088346D01*
X99813343Y-92887233D01*
X99612230Y-92752853D01*
X99375000Y-92705665D01*
X99102147Y-92705665D01*
X99094822Y-92668838D01*
X98949391Y-92451185D01*
X98731738Y-92305754D01*
X98539803Y-92267576D01*
X98475000Y-92254686D01*
X98410197Y-92267576D01*
X93539803Y-92267576D01*
X93475000Y-92254686D01*
X93410197Y-92267576D01*
X93218262Y-92305754D01*
X93000609Y-92451185D01*
X92855178Y-92668838D01*
X92847853Y-92705665D01*
X92525000Y-92705665D01*
X92287770Y-92752853D01*
X92209727Y-92805000D01*
X91951388Y-92805000D01*
X91617659Y-92943235D01*
X91513413Y-93047481D01*
X91408343Y-92890233D01*
X91207230Y-92755853D01*
X90970000Y-92708665D01*
X90697147Y-92708665D01*
X90689822Y-92671838D01*
X90544391Y-92454185D01*
X90326738Y-92308754D01*
X90134803Y-92270576D01*
X90070000Y-92257686D01*
X90005197Y-92270576D01*
X85134803Y-92270576D01*
X85070000Y-92257686D01*
X85005197Y-92270576D01*
X84813262Y-92308754D01*
X84595609Y-92454185D01*
X84450178Y-92671838D01*
X84442853Y-92708665D01*
X84120000Y-92708665D01*
X83882770Y-92755853D01*
X83681657Y-92890233D01*
X83547277Y-93091346D01*
X83500089Y-93328576D01*
X83500089Y-93911869D01*
X83302737Y-94109221D01*
X83241538Y-94150113D01*
X83200646Y-94211312D01*
X83200643Y-94211315D01*
X83079530Y-94392574D01*
X83022641Y-94678576D01*
X83037001Y-94750769D01*
X83037000Y-98056089D01*
X83020000Y-98056089D01*
X82782770Y-98103277D01*
X82581657Y-98237657D01*
X82447277Y-98438770D01*
X82400089Y-98676000D01*
X82400089Y-99926000D01*
X82447277Y-100163230D01*
X82581657Y-100364343D01*
X82646693Y-100407799D01*
X82805659Y-100566765D01*
X83139388Y-100705000D01*
X83500612Y-100705000D01*
X83834341Y-100566765D01*
X83855195Y-100545911D01*
X84520000Y-100545911D01*
X84757230Y-100498723D01*
X84958343Y-100364343D01*
X85014483Y-100280325D01*
X85175595Y-100441437D01*
X85399061Y-100534000D01*
X85964000Y-100534000D01*
X86116000Y-100382000D01*
X86116000Y-99455000D01*
X86424000Y-99455000D01*
X86424000Y-100382000D01*
X86576000Y-100534000D01*
X87140939Y-100534000D01*
X87364405Y-100441437D01*
X87535438Y-100270404D01*
X87628000Y-100046938D01*
X87628000Y-99607000D01*
X87476000Y-99455000D01*
X86424000Y-99455000D01*
X86116000Y-99455000D01*
X86096000Y-99455000D01*
X86096000Y-99147000D01*
X86116000Y-99147000D01*
X86116000Y-99127000D01*
X86424000Y-99127000D01*
X86424000Y-99147000D01*
X87476000Y-99147000D01*
X87628000Y-98995000D01*
X87628000Y-98586576D01*
X90005197Y-98586576D01*
X90070000Y-98599466D01*
X90134803Y-98586576D01*
X90326738Y-98548398D01*
X90544391Y-98402967D01*
X90689822Y-98185314D01*
X90699517Y-98136576D01*
X91090939Y-98136576D01*
X91305320Y-98047776D01*
X91305320Y-98244132D01*
X91290961Y-98316320D01*
X91305320Y-98388508D01*
X91305320Y-98388512D01*
X91347849Y-98602321D01*
X91509857Y-98844783D01*
X91571059Y-98885677D01*
X91778089Y-99092707D01*
X91778089Y-99926000D01*
X91825277Y-100163230D01*
X91959657Y-100364343D01*
X92160770Y-100498723D01*
X92381529Y-100542635D01*
X92405659Y-100566765D01*
X92739388Y-100705000D01*
X93100612Y-100705000D01*
X93434341Y-100566765D01*
X93455195Y-100545911D01*
X93898000Y-100545911D01*
X94135230Y-100498723D01*
X94336343Y-100364343D01*
X94392483Y-100280325D01*
X94553595Y-100441437D01*
X94777061Y-100534000D01*
X95342000Y-100534000D01*
X95494000Y-100382000D01*
X95494000Y-99455000D01*
X95802000Y-99455000D01*
X95802000Y-100382000D01*
X95954000Y-100534000D01*
X96518939Y-100534000D01*
X96742405Y-100441437D01*
X96913438Y-100270404D01*
X97006000Y-100046938D01*
X97006000Y-99607000D01*
X96854000Y-99455000D01*
X95802000Y-99455000D01*
X95494000Y-99455000D01*
X95474000Y-99455000D01*
X95474000Y-99147000D01*
X95494000Y-99147000D01*
X95494000Y-99127000D01*
X95802000Y-99127000D01*
X95802000Y-99147000D01*
X96854000Y-99147000D01*
X97006000Y-98995000D01*
X97006000Y-98583576D01*
X98410197Y-98583576D01*
X98475000Y-98596466D01*
X98539803Y-98583576D01*
X98731738Y-98545398D01*
X98949391Y-98399967D01*
X99094822Y-98182314D01*
X99104517Y-98133576D01*
X99495939Y-98133576D01*
X99719405Y-98041013D01*
X99890438Y-97869980D01*
X99983000Y-97646514D01*
X99983000Y-97331576D01*
X99831002Y-97179578D01*
X99958569Y-97179578D01*
X99998235Y-97275341D01*
X100035000Y-97312106D01*
X100035000Y-97337812D01*
X100020641Y-97410000D01*
X100035000Y-97482188D01*
X100035000Y-97482192D01*
X100077529Y-97696001D01*
X100239537Y-97938463D01*
X100300739Y-97979357D01*
X100580990Y-98259608D01*
X100461277Y-98438770D01*
X100414089Y-98676000D01*
X100414089Y-99926000D01*
X100461277Y-100163230D01*
X100595657Y-100364343D01*
X100796770Y-100498723D01*
X100972590Y-100533696D01*
X101005659Y-100566765D01*
X101339388Y-100705000D01*
X101700612Y-100705000D01*
X102034341Y-100566765D01*
X102055195Y-100545911D01*
X102534000Y-100545911D01*
X102771230Y-100498723D01*
X102972343Y-100364343D01*
X103028483Y-100280325D01*
X103189595Y-100441437D01*
X103413061Y-100534000D01*
X103978000Y-100534000D01*
X104130000Y-100382000D01*
X104130000Y-99455000D01*
X104438000Y-99455000D01*
X104438000Y-100382000D01*
X104590000Y-100534000D01*
X105154939Y-100534000D01*
X105378405Y-100441437D01*
X105549438Y-100270404D01*
X105642000Y-100046938D01*
X105642000Y-99607000D01*
X105490000Y-99455000D01*
X104438000Y-99455000D01*
X104130000Y-99455000D01*
X104110000Y-99455000D01*
X104110000Y-99147000D01*
X104130000Y-99147000D01*
X104130000Y-99127000D01*
X104438000Y-99127000D01*
X104438000Y-99147000D01*
X105490000Y-99147000D01*
X105642000Y-98995000D01*
X105642000Y-98583576D01*
X107300197Y-98583576D01*
X107365000Y-98596466D01*
X107429803Y-98583576D01*
X107621738Y-98545398D01*
X107839391Y-98399967D01*
X107984822Y-98182314D01*
X107994517Y-98133576D01*
X108385939Y-98133576D01*
X108609405Y-98041013D01*
X108780438Y-97869980D01*
X108873000Y-97646514D01*
X108873000Y-97331576D01*
X108721002Y-97179578D01*
X108873000Y-97179578D01*
X108873000Y-97051754D01*
X108986004Y-97324570D01*
X109022770Y-97361336D01*
X109022769Y-98181581D01*
X109008410Y-98253769D01*
X109022769Y-98325957D01*
X109022769Y-98325961D01*
X109065298Y-98539770D01*
X109227306Y-98782232D01*
X109288508Y-98823126D01*
X109558089Y-99092707D01*
X109558089Y-99926000D01*
X109605277Y-100163230D01*
X109739657Y-100364343D01*
X109940770Y-100498723D01*
X110178000Y-100545911D01*
X110184805Y-100545911D01*
X110205659Y-100566765D01*
X110539388Y-100705000D01*
X110900612Y-100705000D01*
X111234341Y-100566765D01*
X111255195Y-100545911D01*
X111678000Y-100545911D01*
X111915230Y-100498723D01*
X112116343Y-100364343D01*
X112172483Y-100280325D01*
X112333595Y-100441437D01*
X112557061Y-100534000D01*
X113122000Y-100534000D01*
X113274000Y-100382000D01*
X113274000Y-99455000D01*
X113582000Y-99455000D01*
X113582000Y-100382000D01*
X113734000Y-100534000D01*
X114298939Y-100534000D01*
X114522405Y-100441437D01*
X114693438Y-100270404D01*
X114786000Y-100046938D01*
X114786000Y-99607000D01*
X114634000Y-99455000D01*
X113582000Y-99455000D01*
X113274000Y-99455000D01*
X113254000Y-99455000D01*
X113254000Y-99147000D01*
X113274000Y-99147000D01*
X113274000Y-99127000D01*
X113582000Y-99127000D01*
X113582000Y-99147000D01*
X114634000Y-99147000D01*
X114786000Y-98995000D01*
X114786000Y-98583576D01*
X116190197Y-98583576D01*
X116255000Y-98596466D01*
X116319803Y-98583576D01*
X116511738Y-98545398D01*
X116729391Y-98399967D01*
X116874822Y-98182314D01*
X116884517Y-98133576D01*
X117275939Y-98133576D01*
X117499405Y-98041013D01*
X117670438Y-97869980D01*
X117763000Y-97646514D01*
X117763000Y-97331576D01*
X117611000Y-97179576D01*
X116913000Y-97179576D01*
X116913000Y-96871576D01*
X117611000Y-96871576D01*
X117759783Y-96722793D01*
X117778235Y-96767341D01*
X117815001Y-96804107D01*
X117815000Y-97829812D01*
X117800641Y-97902000D01*
X117815000Y-97974188D01*
X117815000Y-97974192D01*
X117857529Y-98188001D01*
X118019537Y-98430463D01*
X118080739Y-98471357D01*
X118702089Y-99092707D01*
X118702089Y-99926000D01*
X118749277Y-100163230D01*
X118883657Y-100364343D01*
X119084770Y-100498723D01*
X119322000Y-100545911D01*
X120822000Y-100545911D01*
X121059230Y-100498723D01*
X121260343Y-100364343D01*
X121316483Y-100280325D01*
X121477595Y-100441437D01*
X121701061Y-100534000D01*
X122266000Y-100534000D01*
X122418000Y-100382000D01*
X122418000Y-99455000D01*
X122726000Y-99455000D01*
X122726000Y-100382000D01*
X122878000Y-100534000D01*
X123442939Y-100534000D01*
X123666405Y-100441437D01*
X123837438Y-100270404D01*
X123930000Y-100046938D01*
X123930000Y-99607000D01*
X123778000Y-99455000D01*
X122726000Y-99455000D01*
X122418000Y-99455000D01*
X122398000Y-99455000D01*
X122398000Y-99147000D01*
X122418000Y-99147000D01*
X122418000Y-99127000D01*
X122726000Y-99127000D01*
X122726000Y-99147000D01*
X123778000Y-99147000D01*
X123930000Y-98995000D01*
X123930000Y-98583576D01*
X125080197Y-98583576D01*
X125145000Y-98596466D01*
X125209803Y-98583576D01*
X125401738Y-98545398D01*
X125619391Y-98399967D01*
X125764822Y-98182314D01*
X125774517Y-98133576D01*
X126165939Y-98133576D01*
X126389405Y-98041013D01*
X126560438Y-97869980D01*
X126653000Y-97646514D01*
X126653000Y-97331576D01*
X126501002Y-97179578D01*
X126653000Y-97179578D01*
X126653000Y-97051754D01*
X126766004Y-97324570D01*
X126802770Y-97361336D01*
X126802769Y-98181581D01*
X126788410Y-98253769D01*
X126802769Y-98325957D01*
X126802769Y-98325961D01*
X126845298Y-98539770D01*
X127007306Y-98782232D01*
X127068508Y-98823126D01*
X127338089Y-99092707D01*
X127338089Y-99926000D01*
X127385277Y-100163230D01*
X127519657Y-100364343D01*
X127720770Y-100498723D01*
X127958000Y-100545911D01*
X129458000Y-100545911D01*
X129695230Y-100498723D01*
X129896343Y-100364343D01*
X129952483Y-100280325D01*
X130113595Y-100441437D01*
X130337061Y-100534000D01*
X130902000Y-100534000D01*
X131054000Y-100382000D01*
X131054000Y-99455000D01*
X131362000Y-99455000D01*
X131362000Y-100382000D01*
X131514000Y-100534000D01*
X132078939Y-100534000D01*
X132302405Y-100441437D01*
X132473438Y-100270404D01*
X132566000Y-100046938D01*
X132566000Y-99607000D01*
X132414000Y-99455000D01*
X131362000Y-99455000D01*
X131054000Y-99455000D01*
X131034000Y-99455000D01*
X131034000Y-99147000D01*
X131054000Y-99147000D01*
X131054000Y-99127000D01*
X131362000Y-99127000D01*
X131362000Y-99147000D01*
X132414000Y-99147000D01*
X132566000Y-98995000D01*
X132566000Y-98583576D01*
X133970197Y-98583576D01*
X134035000Y-98596466D01*
X134099803Y-98583576D01*
X134291738Y-98545398D01*
X134509391Y-98399967D01*
X134654822Y-98182314D01*
X134664517Y-98133576D01*
X135055939Y-98133576D01*
X135279405Y-98041013D01*
X135450438Y-97869980D01*
X135543000Y-97646514D01*
X135543000Y-97331576D01*
X135391002Y-97179578D01*
X135518569Y-97179578D01*
X135558235Y-97275341D01*
X135595001Y-97312107D01*
X135595000Y-97938806D01*
X135595000Y-98063812D01*
X135580641Y-98136000D01*
X135595000Y-98208188D01*
X135595000Y-98208192D01*
X135637529Y-98422001D01*
X135716015Y-98539463D01*
X135747495Y-98586576D01*
X135799537Y-98664463D01*
X135860739Y-98705357D01*
X136248089Y-99092707D01*
X136248089Y-99926000D01*
X136295277Y-100163230D01*
X136429657Y-100364343D01*
X136630770Y-100498723D01*
X136868000Y-100545911D01*
X138368000Y-100545911D01*
X138605230Y-100498723D01*
X138806343Y-100364343D01*
X138862483Y-100280325D01*
X139023595Y-100441437D01*
X139247061Y-100534000D01*
X139812000Y-100534000D01*
X139964000Y-100382000D01*
X139964000Y-99455000D01*
X140272000Y-99455000D01*
X140272000Y-100382000D01*
X140424000Y-100534000D01*
X140988939Y-100534000D01*
X141212405Y-100441437D01*
X141383438Y-100270404D01*
X141476000Y-100046938D01*
X141476000Y-99607000D01*
X141324000Y-99455000D01*
X140272000Y-99455000D01*
X139964000Y-99455000D01*
X139944000Y-99455000D01*
X139944000Y-99147000D01*
X139964000Y-99147000D01*
X139964000Y-99127000D01*
X140272000Y-99127000D01*
X140272000Y-99147000D01*
X141324000Y-99147000D01*
X141476000Y-98995000D01*
X141476000Y-98583576D01*
X142860197Y-98583576D01*
X142925000Y-98596466D01*
X142989803Y-98583576D01*
X143181738Y-98545398D01*
X143399391Y-98399967D01*
X143544822Y-98182314D01*
X143554517Y-98133576D01*
X143945939Y-98133576D01*
X144169405Y-98041013D01*
X144340438Y-97869980D01*
X144433000Y-97646514D01*
X144433000Y-97331576D01*
X144281002Y-97179578D01*
X144433000Y-97179578D01*
X144433000Y-97051754D01*
X144546004Y-97324570D01*
X144582770Y-97361336D01*
X144582769Y-98056576D01*
X144582769Y-98181581D01*
X144568410Y-98253769D01*
X144582769Y-98325957D01*
X144582769Y-98325961D01*
X144625298Y-98539770D01*
X144787306Y-98782232D01*
X144848508Y-98823126D01*
X145118089Y-99092707D01*
X145118089Y-99926000D01*
X145165277Y-100163230D01*
X145299657Y-100364343D01*
X145500770Y-100498723D01*
X145738000Y-100545911D01*
X147238000Y-100545911D01*
X147475230Y-100498723D01*
X147676343Y-100364343D01*
X147732483Y-100280325D01*
X147893595Y-100441437D01*
X148117061Y-100534000D01*
X148682000Y-100534000D01*
X148834000Y-100382000D01*
X148834000Y-99455000D01*
X149142000Y-99455000D01*
X149142000Y-100382000D01*
X149294000Y-100534000D01*
X149858939Y-100534000D01*
X150082405Y-100441437D01*
X150253438Y-100270404D01*
X150346000Y-100046938D01*
X150346000Y-99607000D01*
X150194000Y-99455000D01*
X149142000Y-99455000D01*
X148834000Y-99455000D01*
X148814000Y-99455000D01*
X148814000Y-99147000D01*
X148834000Y-99147000D01*
X148834000Y-99127000D01*
X149142000Y-99127000D01*
X149142000Y-99147000D01*
X150194000Y-99147000D01*
X150346000Y-98995000D01*
X150346000Y-98583576D01*
X151750197Y-98583576D01*
X151815000Y-98596466D01*
X151879803Y-98583576D01*
X152071738Y-98545398D01*
X152289391Y-98399967D01*
X152434822Y-98182314D01*
X152444517Y-98133576D01*
X152835939Y-98133576D01*
X153059405Y-98041013D01*
X153230438Y-97869980D01*
X153323000Y-97646514D01*
X153323000Y-97331576D01*
X153171002Y-97179578D01*
X153298569Y-97179578D01*
X153338235Y-97275341D01*
X153375001Y-97312107D01*
X153375000Y-97829811D01*
X153360641Y-97902000D01*
X153375000Y-97974188D01*
X153375000Y-97974192D01*
X153417529Y-98188001D01*
X153579537Y-98430463D01*
X153640739Y-98471357D01*
X154262089Y-99092707D01*
X154262089Y-99926000D01*
X154309277Y-100163230D01*
X154443657Y-100364343D01*
X154644770Y-100498723D01*
X154882000Y-100545911D01*
X156382000Y-100545911D01*
X156619230Y-100498723D01*
X156820343Y-100364343D01*
X156876483Y-100280325D01*
X157037595Y-100441437D01*
X157261061Y-100534000D01*
X157826000Y-100534000D01*
X157978000Y-100382000D01*
X157978000Y-99455000D01*
X158286000Y-99455000D01*
X158286000Y-100382000D01*
X158438000Y-100534000D01*
X159002939Y-100534000D01*
X159226405Y-100441437D01*
X159397438Y-100270404D01*
X159490000Y-100046938D01*
X159490000Y-99607000D01*
X159338000Y-99455000D01*
X158286000Y-99455000D01*
X157978000Y-99455000D01*
X157958000Y-99455000D01*
X157958000Y-99147000D01*
X157978000Y-99147000D01*
X157978000Y-99127000D01*
X158286000Y-99127000D01*
X158286000Y-99147000D01*
X159338000Y-99147000D01*
X159490000Y-98995000D01*
X159490000Y-98583576D01*
X160640197Y-98583576D01*
X160705000Y-98596466D01*
X160769803Y-98583576D01*
X160961738Y-98545398D01*
X161179391Y-98399967D01*
X161324822Y-98182314D01*
X161334517Y-98133576D01*
X161725939Y-98133576D01*
X161949405Y-98041013D01*
X162011000Y-97979418D01*
X162011000Y-98063812D01*
X161996641Y-98136000D01*
X162011000Y-98208188D01*
X162011000Y-98208192D01*
X162053529Y-98422001D01*
X162132015Y-98539463D01*
X162163495Y-98586576D01*
X162215537Y-98664463D01*
X162276739Y-98705357D01*
X162664089Y-99092707D01*
X162664089Y-99926000D01*
X162711277Y-100163230D01*
X162845657Y-100364343D01*
X163046770Y-100498723D01*
X163284000Y-100545911D01*
X164784000Y-100545911D01*
X165021230Y-100498723D01*
X165222343Y-100364343D01*
X165278483Y-100280325D01*
X165439595Y-100441437D01*
X165663061Y-100534000D01*
X166228000Y-100534000D01*
X166380000Y-100382000D01*
X166380000Y-99455000D01*
X166688000Y-99455000D01*
X166688000Y-100382000D01*
X166840000Y-100534000D01*
X167404939Y-100534000D01*
X167628405Y-100441437D01*
X167799438Y-100270404D01*
X167892000Y-100046938D01*
X167892000Y-99607000D01*
X167740000Y-99455000D01*
X166688000Y-99455000D01*
X166380000Y-99455000D01*
X166360000Y-99455000D01*
X166360000Y-99147000D01*
X166380000Y-99147000D01*
X166380000Y-99127000D01*
X166688000Y-99127000D01*
X166688000Y-99147000D01*
X167740000Y-99147000D01*
X167892000Y-98995000D01*
X167892000Y-98611576D01*
X169230197Y-98611576D01*
X169295000Y-98624466D01*
X169359803Y-98611576D01*
X169551738Y-98573398D01*
X169769391Y-98427967D01*
X169914822Y-98210314D01*
X169924517Y-98161576D01*
X170315939Y-98161576D01*
X170539405Y-98069013D01*
X170710438Y-97897980D01*
X170803000Y-97674514D01*
X170803000Y-97359576D01*
X170651000Y-97207576D01*
X169953000Y-97207576D01*
X169953000Y-96899576D01*
X170651000Y-96899576D01*
X170803000Y-96747576D01*
X170803000Y-96432638D01*
X170710438Y-96209172D01*
X170539405Y-96038139D01*
X170315939Y-95945576D01*
X169953000Y-95945576D01*
X169953000Y-94973487D01*
X170195000Y-94973487D01*
X170397167Y-94933273D01*
X170430659Y-94966765D01*
X170764388Y-95105000D01*
X170837000Y-95105000D01*
X170837000Y-110297000D01*
X164320000Y-110297000D01*
X164281732Y-110304612D01*
X164249289Y-110326289D01*
X164227612Y-110358732D01*
X164220000Y-110397000D01*
X164220000Y-128397000D01*
X164227612Y-128435268D01*
X164249289Y-128467711D01*
X164281732Y-128489388D01*
X164320000Y-128497000D01*
X170837001Y-128497000D01*
X170837001Y-130594469D01*
X170654197Y-130153141D01*
X170201859Y-129700803D01*
X169610851Y-129456000D01*
X168971149Y-129456000D01*
X168861362Y-129501475D01*
X168589633Y-129025951D01*
X168584471Y-128999998D01*
X168517703Y-128900073D01*
X168494604Y-128859650D01*
X168477689Y-128840188D01*
X168422463Y-128757537D01*
X168382849Y-128731068D01*
X168351599Y-128695112D01*
X168262655Y-128650756D01*
X168180002Y-128595529D01*
X168133272Y-128586234D01*
X168090643Y-128564975D01*
X167991494Y-128558033D01*
X167966193Y-128553000D01*
X167919618Y-128553000D01*
X167799750Y-128544607D01*
X167774659Y-128553000D01*
X164410187Y-128553000D01*
X164337999Y-128538641D01*
X164265811Y-128553000D01*
X164265807Y-128553000D01*
X164051998Y-128595529D01*
X164051996Y-128595530D01*
X164051997Y-128595530D01*
X163870738Y-128716643D01*
X163870736Y-128716645D01*
X163809537Y-128757537D01*
X163788000Y-128789769D01*
X163788000Y-128534000D01*
X162884000Y-128534000D01*
X162884000Y-128554000D01*
X162576000Y-128554000D01*
X162576000Y-128534000D01*
X162556000Y-128534000D01*
X162556000Y-128226000D01*
X162576000Y-128226000D01*
X162576000Y-126687184D01*
X162884000Y-126687184D01*
X162884000Y-128226000D01*
X163788000Y-128226000D01*
X163788000Y-127426000D01*
X163648531Y-127032843D01*
X163369224Y-126722986D01*
X163045849Y-126570246D01*
X162884000Y-126687184D01*
X162576000Y-126687184D01*
X162414151Y-126570246D01*
X162090776Y-126722986D01*
X162087378Y-126726756D01*
X161872810Y-126583386D01*
X161460000Y-126501273D01*
X161047189Y-126583386D01*
X160825000Y-126731848D01*
X160602810Y-126583386D01*
X160190000Y-126501273D01*
X159777189Y-126583386D01*
X159555000Y-126731848D01*
X159332810Y-126583386D01*
X158920000Y-126501273D01*
X158507189Y-126583386D01*
X158285000Y-126731848D01*
X158062810Y-126583386D01*
X157650000Y-126501273D01*
X157237189Y-126583386D01*
X157015000Y-126731848D01*
X156792810Y-126583386D01*
X156380000Y-126501273D01*
X155967189Y-126583386D01*
X155745000Y-126731848D01*
X155522810Y-126583386D01*
X155110000Y-126501273D01*
X154697189Y-126583386D01*
X154475000Y-126731848D01*
X154252810Y-126583386D01*
X153840000Y-126501273D01*
X153427189Y-126583386D01*
X153205000Y-126731848D01*
X152982810Y-126583386D01*
X152570000Y-126501273D01*
X152157189Y-126583386D01*
X151935000Y-126731848D01*
X151712810Y-126583386D01*
X151300000Y-126501273D01*
X150887189Y-126583386D01*
X150665000Y-126731848D01*
X150442810Y-126583386D01*
X150030000Y-126501273D01*
X149617189Y-126583386D01*
X149395000Y-126731848D01*
X149172810Y-126583386D01*
X148760000Y-126501273D01*
X148724878Y-126508259D01*
X147996346Y-125779728D01*
X147955452Y-125718526D01*
X147712991Y-125556518D01*
X147499182Y-125513989D01*
X147499177Y-125513989D01*
X147426989Y-125499630D01*
X147354801Y-125513989D01*
X146491038Y-125513989D01*
X146539754Y-125410849D01*
X146422816Y-125249000D01*
X144884000Y-125249000D01*
X144884000Y-125269000D01*
X144576000Y-125269000D01*
X144576000Y-125249000D01*
X144556000Y-125249000D01*
X144556000Y-124941000D01*
X144576000Y-124941000D01*
X144576000Y-124921000D01*
X144884000Y-124921000D01*
X144884000Y-124941000D01*
X146422816Y-124941000D01*
X146539754Y-124779151D01*
X146387014Y-124455776D01*
X146383244Y-124452378D01*
X146526614Y-124237811D01*
X146608727Y-123825000D01*
X146526614Y-123412189D01*
X146378152Y-123190000D01*
X146526614Y-122967811D01*
X146608727Y-122555000D01*
X146526614Y-122142189D01*
X146378152Y-121920000D01*
X146526614Y-121697811D01*
X146608727Y-121285000D01*
X146526614Y-120872189D01*
X146378152Y-120650000D01*
X146526614Y-120427811D01*
X146608727Y-120015000D01*
X146526614Y-119602189D01*
X146382162Y-119386000D01*
X151422000Y-119386000D01*
X151422000Y-122200939D01*
X151514563Y-122424405D01*
X151685596Y-122595438D01*
X151909062Y-122688000D01*
X154724000Y-122688000D01*
X154876000Y-122536000D01*
X154876000Y-119234000D01*
X155184000Y-119234000D01*
X155184000Y-122536000D01*
X155336000Y-122688000D01*
X158150938Y-122688000D01*
X158374404Y-122595438D01*
X158545437Y-122424405D01*
X158638000Y-122200939D01*
X158638000Y-119386000D01*
X158486000Y-119234000D01*
X155184000Y-119234000D01*
X154876000Y-119234000D01*
X151574000Y-119234000D01*
X151422000Y-119386000D01*
X146382162Y-119386000D01*
X146378152Y-119380000D01*
X146526614Y-119157811D01*
X146608727Y-118745000D01*
X146526614Y-118332189D01*
X146378152Y-118110000D01*
X146526614Y-117887811D01*
X146608727Y-117475000D01*
X146526614Y-117062189D01*
X146378152Y-116840000D01*
X146526614Y-116617811D01*
X146608727Y-116205000D01*
X146559807Y-115959061D01*
X151422000Y-115959061D01*
X151422000Y-118774000D01*
X151574000Y-118926000D01*
X154876000Y-118926000D01*
X154876000Y-115624000D01*
X155184000Y-115624000D01*
X155184000Y-118926000D01*
X158486000Y-118926000D01*
X158638000Y-118774000D01*
X158638000Y-115959061D01*
X158545437Y-115735595D01*
X158374404Y-115564562D01*
X158150938Y-115472000D01*
X155336000Y-115472000D01*
X155184000Y-115624000D01*
X154876000Y-115624000D01*
X154724000Y-115472000D01*
X151909062Y-115472000D01*
X151685596Y-115564562D01*
X151514563Y-115735595D01*
X151422000Y-115959061D01*
X146559807Y-115959061D01*
X146526614Y-115792189D01*
X146378152Y-115570000D01*
X146526614Y-115347811D01*
X146608727Y-114935000D01*
X146526614Y-114522189D01*
X146383244Y-114307622D01*
X146387014Y-114304224D01*
X146539754Y-113980849D01*
X146422816Y-113819000D01*
X144884000Y-113819000D01*
X144884000Y-113839000D01*
X144576000Y-113839000D01*
X144576000Y-113819000D01*
X144556000Y-113819000D01*
X144556000Y-113511000D01*
X144576000Y-113511000D01*
X144576000Y-112607000D01*
X144884000Y-112607000D01*
X144884000Y-113511000D01*
X146422816Y-113511000D01*
X146539754Y-113349151D01*
X146387014Y-113025776D01*
X146077157Y-112746469D01*
X145684000Y-112607000D01*
X144884000Y-112607000D01*
X144576000Y-112607000D01*
X144329619Y-112607000D01*
X145271621Y-111664998D01*
X145457226Y-111942775D01*
X145807190Y-112176614D01*
X146220000Y-112258727D01*
X146632811Y-112176614D01*
X146855001Y-112028151D01*
X147077190Y-112176614D01*
X147412000Y-112243212D01*
X147412000Y-112327612D01*
X147550235Y-112661341D01*
X147805659Y-112916765D01*
X148139388Y-113055000D01*
X148500612Y-113055000D01*
X148834341Y-112916765D01*
X149089765Y-112661341D01*
X149228000Y-112327612D01*
X149228000Y-112275863D01*
X149288463Y-112235463D01*
X149417113Y-112042926D01*
X149617190Y-112176614D01*
X150030000Y-112258727D01*
X150442811Y-112176614D01*
X150665001Y-112028151D01*
X150887190Y-112176614D01*
X151300000Y-112258727D01*
X151712811Y-112176614D01*
X151935001Y-112028151D01*
X152157190Y-112176614D01*
X152570000Y-112258727D01*
X152982811Y-112176614D01*
X153205001Y-112028151D01*
X153427190Y-112176614D01*
X153840000Y-112258727D01*
X154252811Y-112176614D01*
X154475001Y-112028151D01*
X154697190Y-112176614D01*
X155110000Y-112258727D01*
X155522811Y-112176614D01*
X155745001Y-112028151D01*
X155967190Y-112176614D01*
X156380000Y-112258727D01*
X156792811Y-112176614D01*
X157015001Y-112028151D01*
X157237190Y-112176614D01*
X157650000Y-112258727D01*
X158062811Y-112176614D01*
X158285001Y-112028151D01*
X158507190Y-112176614D01*
X158920000Y-112258727D01*
X159332811Y-112176614D01*
X159555001Y-112028151D01*
X159777190Y-112176614D01*
X160190000Y-112258727D01*
X160602811Y-112176614D01*
X160825001Y-112028151D01*
X161047190Y-112176614D01*
X161460000Y-112258727D01*
X161872811Y-112176614D01*
X162087378Y-112033244D01*
X162090776Y-112037014D01*
X162414151Y-112189754D01*
X162576000Y-112072816D01*
X162576000Y-110534000D01*
X162884000Y-110534000D01*
X162884000Y-112072816D01*
X163045849Y-112189754D01*
X163369224Y-112037014D01*
X163648531Y-111727157D01*
X163788000Y-111334000D01*
X163788000Y-110534000D01*
X162884000Y-110534000D01*
X162576000Y-110534000D01*
X162556000Y-110534000D01*
X162556000Y-110226000D01*
X162576000Y-110226000D01*
X162576000Y-110206000D01*
X162884000Y-110206000D01*
X162884000Y-110226000D01*
X163788000Y-110226000D01*
X163788000Y-109426000D01*
X163688318Y-109145000D01*
X164462000Y-109145000D01*
X164462000Y-109584938D01*
X164554562Y-109808404D01*
X164725595Y-109979437D01*
X164949061Y-110072000D01*
X165514000Y-110072000D01*
X165666000Y-109920000D01*
X165666000Y-108993000D01*
X164614000Y-108993000D01*
X164462000Y-109145000D01*
X163688318Y-109145000D01*
X163648531Y-109032843D01*
X163369224Y-108722986D01*
X163155418Y-108621999D01*
X164550999Y-108621999D01*
X164614000Y-108685000D01*
X165666000Y-108685000D01*
X165666000Y-108665000D01*
X165974000Y-108665000D01*
X165974000Y-108685000D01*
X165994000Y-108685000D01*
X165994000Y-108993000D01*
X165974000Y-108993000D01*
X165974000Y-109920000D01*
X166126000Y-110072000D01*
X166690939Y-110072000D01*
X166914405Y-109979437D01*
X167075517Y-109818325D01*
X167131657Y-109902343D01*
X167332770Y-110036723D01*
X167570000Y-110083911D01*
X169070000Y-110083911D01*
X169307230Y-110036723D01*
X169508343Y-109902343D01*
X169642723Y-109701230D01*
X169689911Y-109464000D01*
X169689911Y-108214000D01*
X169642723Y-107976770D01*
X169508343Y-107775657D01*
X169459469Y-107743000D01*
X169508343Y-107710343D01*
X169642723Y-107509230D01*
X169689911Y-107272000D01*
X169689911Y-106022000D01*
X169642723Y-105784770D01*
X169508343Y-105583657D01*
X169307230Y-105449277D01*
X169070000Y-105402089D01*
X169018644Y-105402089D01*
X169010471Y-105360998D01*
X168978000Y-105312402D01*
X168978000Y-105216388D01*
X168839765Y-104882659D01*
X168584341Y-104627235D01*
X168250612Y-104489000D01*
X167889388Y-104489000D01*
X167555659Y-104627235D01*
X167300235Y-104882659D01*
X167162000Y-105216388D01*
X167162000Y-105563382D01*
X167131657Y-105583657D01*
X167075517Y-105667675D01*
X166914405Y-105506563D01*
X166690939Y-105414000D01*
X166126000Y-105414000D01*
X165974000Y-105566000D01*
X165974000Y-106493000D01*
X165994000Y-106493000D01*
X165994000Y-106801000D01*
X165974000Y-106801000D01*
X165974000Y-106821000D01*
X165666000Y-106821000D01*
X165666000Y-106801000D01*
X163724000Y-106801000D01*
X163724000Y-106821000D01*
X163416000Y-106821000D01*
X163416000Y-106801000D01*
X163396000Y-106801000D01*
X163396000Y-106493000D01*
X163416000Y-106493000D01*
X163416000Y-105566000D01*
X163724000Y-105566000D01*
X163724000Y-106493000D01*
X165666000Y-106493000D01*
X165666000Y-105566000D01*
X165514000Y-105414000D01*
X164949061Y-105414000D01*
X164725595Y-105506563D01*
X164695000Y-105537158D01*
X164664405Y-105506563D01*
X164440939Y-105414000D01*
X163876000Y-105414000D01*
X163724000Y-105566000D01*
X163416000Y-105566000D01*
X163264000Y-105414000D01*
X162699061Y-105414000D01*
X162475595Y-105506563D01*
X162314483Y-105667675D01*
X162258343Y-105583657D01*
X162057230Y-105449277D01*
X161820000Y-105402089D01*
X160320000Y-105402089D01*
X160082770Y-105449277D01*
X159963707Y-105528832D01*
X159807230Y-105424277D01*
X159570000Y-105377089D01*
X158070000Y-105377089D01*
X157832770Y-105424277D01*
X157631657Y-105558657D01*
X157497277Y-105759770D01*
X157470000Y-105896901D01*
X157442723Y-105759770D01*
X157308343Y-105558657D01*
X157107230Y-105424277D01*
X156870000Y-105377089D01*
X155370000Y-105377089D01*
X155132770Y-105424277D01*
X154931657Y-105558657D01*
X154797277Y-105759770D01*
X154750089Y-105997000D01*
X154750089Y-106213471D01*
X154716357Y-106179739D01*
X154675463Y-106118537D01*
X154433002Y-105956529D01*
X154219193Y-105914000D01*
X154219188Y-105914000D01*
X154147000Y-105899641D01*
X154074812Y-105914000D01*
X153333746Y-105914000D01*
X153121159Y-105595841D01*
X152638883Y-105273595D01*
X152213596Y-105189000D01*
X151926404Y-105189000D01*
X151501117Y-105273595D01*
X151018841Y-105595841D01*
X150800000Y-105923360D01*
X150581159Y-105595841D01*
X150098883Y-105273595D01*
X149673596Y-105189000D01*
X149386404Y-105189000D01*
X148961117Y-105273595D01*
X148478841Y-105595841D01*
X148260000Y-105923360D01*
X148041159Y-105595841D01*
X147558883Y-105273595D01*
X147133596Y-105189000D01*
X146846404Y-105189000D01*
X146421117Y-105273595D01*
X145938841Y-105595841D01*
X145893420Y-105663819D01*
X145872723Y-105559770D01*
X145738343Y-105358657D01*
X145537230Y-105224277D01*
X145300000Y-105177089D01*
X143600000Y-105177089D01*
X143362770Y-105224277D01*
X143161657Y-105358657D01*
X143027277Y-105559770D01*
X142980089Y-105797000D01*
X142980089Y-107497000D01*
X143027277Y-107734230D01*
X143161657Y-107935343D01*
X143362770Y-108069723D01*
X143374167Y-108071990D01*
X141883195Y-108071990D01*
X141811007Y-108057631D01*
X141738819Y-108071990D01*
X141738815Y-108071990D01*
X141525006Y-108114519D01*
X141504027Y-108128537D01*
X141343746Y-108235633D01*
X141343744Y-108235635D01*
X141282545Y-108276527D01*
X141241653Y-108337726D01*
X128416382Y-121162998D01*
X114396190Y-121162998D01*
X114324002Y-121148639D01*
X114251814Y-121162998D01*
X114251809Y-121162998D01*
X114038000Y-121205527D01*
X113795539Y-121367535D01*
X113754645Y-121428737D01*
X111502741Y-123680641D01*
X111502738Y-123680643D01*
X103486381Y-131697000D01*
X96246986Y-131697000D01*
X96090062Y-131632000D01*
X91869938Y-131632000D01*
X91713014Y-131697000D01*
X82003000Y-131697000D01*
X82003000Y-130642904D01*
X83671885Y-130642904D01*
X83804966Y-130924783D01*
X84499045Y-131178593D01*
X85237420Y-131147470D01*
X85775034Y-130924783D01*
X85908115Y-130642904D01*
X84790000Y-129524789D01*
X83671885Y-130642904D01*
X82003000Y-130642904D01*
X82003000Y-129016045D01*
X82918407Y-129016045D01*
X82949530Y-129754420D01*
X83172217Y-130292034D01*
X83454096Y-130425115D01*
X84572211Y-129307000D01*
X85007789Y-129307000D01*
X86125904Y-130425115D01*
X86407783Y-130292034D01*
X86661593Y-129597955D01*
X86633754Y-128937484D01*
X86742320Y-128937484D01*
X86742320Y-129676516D01*
X87025135Y-130359291D01*
X87547709Y-130881865D01*
X88230484Y-131164680D01*
X88969516Y-131164680D01*
X89652291Y-130881865D01*
X90174865Y-130359291D01*
X90457680Y-129676516D01*
X90457680Y-128937484D01*
X90174865Y-128254709D01*
X89652291Y-127732135D01*
X88969516Y-127449320D01*
X88230484Y-127449320D01*
X87547709Y-127732135D01*
X87025135Y-128254709D01*
X86742320Y-128937484D01*
X86633754Y-128937484D01*
X86630470Y-128859580D01*
X86407783Y-128321966D01*
X86125904Y-128188885D01*
X85007789Y-129307000D01*
X84572211Y-129307000D01*
X83454096Y-128188885D01*
X83172217Y-128321966D01*
X82918407Y-129016045D01*
X82003000Y-129016045D01*
X82003000Y-127971096D01*
X83671885Y-127971096D01*
X84790000Y-129089211D01*
X85908115Y-127971096D01*
X85775034Y-127689217D01*
X85080955Y-127435407D01*
X84342580Y-127466530D01*
X83804966Y-127689217D01*
X83671885Y-127971096D01*
X82003000Y-127971096D01*
X82003000Y-120453000D01*
X88462000Y-120453000D01*
X88462000Y-120892938D01*
X88554562Y-121116404D01*
X88725595Y-121287437D01*
X88949061Y-121380000D01*
X89514000Y-121380000D01*
X89666000Y-121228000D01*
X89666000Y-120301000D01*
X88614000Y-120301000D01*
X88462000Y-120453000D01*
X82003000Y-120453000D01*
X82003000Y-119401062D01*
X88462000Y-119401062D01*
X88462000Y-119841000D01*
X88614000Y-119993000D01*
X89666000Y-119993000D01*
X89666000Y-119066000D01*
X89514000Y-118914000D01*
X88949061Y-118914000D01*
X88725595Y-119006563D01*
X88554562Y-119177596D01*
X88462000Y-119401062D01*
X82003000Y-119401062D01*
X82003000Y-118869842D01*
X82055596Y-118922438D01*
X82279062Y-119015000D01*
X82844000Y-119015000D01*
X82996000Y-118863000D01*
X82996000Y-117886000D01*
X83304000Y-117886000D01*
X83304000Y-118863000D01*
X83456000Y-119015000D01*
X84020938Y-119015000D01*
X84244404Y-118922438D01*
X84415437Y-118751405D01*
X84508000Y-118527939D01*
X84508000Y-118038000D01*
X84356000Y-117886000D01*
X83304000Y-117886000D01*
X82996000Y-117886000D01*
X82976000Y-117886000D01*
X82976000Y-117578000D01*
X82996000Y-117578000D01*
X82996000Y-116601000D01*
X83304000Y-116601000D01*
X83304000Y-117578000D01*
X84356000Y-117578000D01*
X84508000Y-117426000D01*
X84508000Y-117213000D01*
X84512000Y-117213000D01*
X84512000Y-117777939D01*
X84604563Y-118001405D01*
X84775596Y-118172438D01*
X84999062Y-118265000D01*
X85514000Y-118265000D01*
X85666000Y-118113000D01*
X85666000Y-117061000D01*
X85974000Y-117061000D01*
X85974000Y-118113000D01*
X86126000Y-118265000D01*
X86640938Y-118265000D01*
X86864404Y-118172438D01*
X87035437Y-118001405D01*
X87128000Y-117777939D01*
X87128000Y-117425000D01*
X89611089Y-117425000D01*
X89611089Y-118025000D01*
X89658277Y-118262230D01*
X89792657Y-118463343D01*
X89993770Y-118597723D01*
X90231000Y-118644911D01*
X91781000Y-118644911D01*
X92018230Y-118597723D01*
X92219343Y-118463343D01*
X92353723Y-118262230D01*
X92400911Y-118025000D01*
X92400911Y-117425000D01*
X92353723Y-117187770D01*
X92295383Y-117100459D01*
X92296438Y-117099404D01*
X92389000Y-116875938D01*
X92389000Y-116757000D01*
X92237000Y-116605000D01*
X91160000Y-116605000D01*
X91160000Y-116629000D01*
X90852000Y-116629000D01*
X90852000Y-116605000D01*
X89775000Y-116605000D01*
X89623000Y-116757000D01*
X89623000Y-116875938D01*
X89715562Y-117099404D01*
X89716617Y-117100459D01*
X89658277Y-117187770D01*
X89611089Y-117425000D01*
X87128000Y-117425000D01*
X87128000Y-117213000D01*
X86976000Y-117061000D01*
X85974000Y-117061000D01*
X85666000Y-117061000D01*
X84664000Y-117061000D01*
X84512000Y-117213000D01*
X84508000Y-117213000D01*
X84508000Y-116936061D01*
X84415437Y-116712595D01*
X84244404Y-116541562D01*
X84020938Y-116449000D01*
X83456000Y-116449000D01*
X83304000Y-116601000D01*
X82996000Y-116601000D01*
X82844000Y-116449000D01*
X82279062Y-116449000D01*
X82055596Y-116541562D01*
X82003000Y-116594158D01*
X82003000Y-116315000D01*
X82124002Y-116315000D01*
X82124002Y-116163002D01*
X82276000Y-116315000D01*
X82590938Y-116315000D01*
X82814404Y-116222438D01*
X82985437Y-116051405D01*
X83078000Y-115827939D01*
X83078000Y-115463000D01*
X82926000Y-115311000D01*
X82124000Y-115311000D01*
X82124000Y-115331000D01*
X82003000Y-115331000D01*
X82003000Y-114983000D01*
X82124000Y-114983000D01*
X82124000Y-115003000D01*
X82926000Y-115003000D01*
X83078000Y-114851000D01*
X83078000Y-114486061D01*
X82985437Y-114262595D01*
X82814404Y-114091562D01*
X82590938Y-113999000D01*
X82276000Y-113999000D01*
X82124002Y-114150998D01*
X82124002Y-113999000D01*
X82003000Y-113999000D01*
X82003000Y-113315000D01*
X82124002Y-113315000D01*
X82124002Y-113163002D01*
X82276000Y-113315000D01*
X82590938Y-113315000D01*
X82814404Y-113222438D01*
X82985437Y-113051405D01*
X83078000Y-112827939D01*
X83078000Y-112463000D01*
X82926000Y-112311000D01*
X82124000Y-112311000D01*
X82124000Y-112331000D01*
X82003000Y-112331000D01*
X82003000Y-112157000D01*
X84500089Y-112157000D01*
X84500089Y-112557000D01*
X84524953Y-112682000D01*
X84500089Y-112807000D01*
X84500089Y-113207000D01*
X84524953Y-113332000D01*
X84500089Y-113457000D01*
X84500089Y-113857000D01*
X84524953Y-113982000D01*
X84500089Y-114107000D01*
X84500089Y-114507000D01*
X84521297Y-114613617D01*
X84512000Y-114636061D01*
X84512000Y-114705000D01*
X84546295Y-114739295D01*
X84547277Y-114744230D01*
X84681657Y-114945343D01*
X84793518Y-115020087D01*
X84756605Y-115057000D01*
X84664000Y-115057000D01*
X84512000Y-115209000D01*
X84512000Y-115277939D01*
X84555160Y-115382136D01*
X84512000Y-115486333D01*
X84512000Y-115827667D01*
X84555160Y-115931864D01*
X84512000Y-116036061D01*
X84512000Y-116601000D01*
X84664000Y-116753000D01*
X85666000Y-116753000D01*
X85666000Y-116733000D01*
X85974000Y-116733000D01*
X85974000Y-116753000D01*
X86976000Y-116753000D01*
X87128000Y-116601000D01*
X87128000Y-116036061D01*
X87035437Y-115812595D01*
X86987842Y-115765000D01*
X87040938Y-115765000D01*
X87264404Y-115672438D01*
X87435437Y-115501405D01*
X87528000Y-115277939D01*
X87528000Y-115209000D01*
X87430002Y-115111002D01*
X87528000Y-115111002D01*
X87528000Y-115051619D01*
X87890645Y-115414264D01*
X87931537Y-115475463D01*
X87992736Y-115516355D01*
X87992738Y-115516357D01*
X88173996Y-115637470D01*
X88173997Y-115637470D01*
X88173998Y-115637471D01*
X88387807Y-115680000D01*
X88387811Y-115680000D01*
X88459999Y-115694359D01*
X88532187Y-115680000D01*
X88854180Y-115680000D01*
X89059388Y-115765000D01*
X89420612Y-115765000D01*
X89648046Y-115670794D01*
X89658277Y-115722230D01*
X89716617Y-115809541D01*
X89715562Y-115810596D01*
X89623000Y-116034062D01*
X89623000Y-116153000D01*
X89775000Y-116305000D01*
X90852000Y-116305000D01*
X90852000Y-116281000D01*
X91160000Y-116281000D01*
X91160000Y-116305000D01*
X92237000Y-116305000D01*
X92389000Y-116153000D01*
X92389000Y-116034062D01*
X92296438Y-115810596D01*
X92295383Y-115809541D01*
X92353723Y-115722230D01*
X92400911Y-115485000D01*
X92400911Y-114885000D01*
X92353723Y-114647770D01*
X92336746Y-114622363D01*
X94572999Y-116858616D01*
X94573000Y-117039874D01*
X94399738Y-117155643D01*
X94399736Y-117155645D01*
X94338537Y-117196537D01*
X94297645Y-117257736D01*
X92653293Y-118902089D01*
X91570000Y-118902089D01*
X91332770Y-118949277D01*
X91131657Y-119083657D01*
X91075517Y-119167675D01*
X90914405Y-119006563D01*
X90690939Y-118914000D01*
X90126000Y-118914000D01*
X89974000Y-119066000D01*
X89974000Y-119993000D01*
X89994000Y-119993000D01*
X89994000Y-120301000D01*
X89974000Y-120301000D01*
X89974000Y-121228000D01*
X90126000Y-121380000D01*
X90690939Y-121380000D01*
X90914405Y-121287437D01*
X91075517Y-121126325D01*
X91131657Y-121210343D01*
X91332770Y-121344723D01*
X91570000Y-121391911D01*
X93070000Y-121391911D01*
X93307230Y-121344723D01*
X93508343Y-121210343D01*
X93642723Y-121009230D01*
X93689911Y-120772000D01*
X93689911Y-120453000D01*
X93962000Y-120453000D01*
X93962000Y-120892938D01*
X94054562Y-121116404D01*
X94225595Y-121287437D01*
X94449061Y-121380000D01*
X95014000Y-121380000D01*
X95166000Y-121228000D01*
X95166000Y-120301000D01*
X94114000Y-120301000D01*
X93962000Y-120453000D01*
X93689911Y-120453000D01*
X93689911Y-119938707D01*
X93962000Y-119666618D01*
X93962000Y-119841000D01*
X94114000Y-119993000D01*
X95166000Y-119993000D01*
X95166000Y-119066000D01*
X95014000Y-118914000D01*
X94714619Y-118914000D01*
X95170619Y-118458000D01*
X95189087Y-118458000D01*
X95192657Y-118463343D01*
X95393770Y-118597723D01*
X95631000Y-118644911D01*
X97087001Y-118644911D01*
X97087001Y-118902089D01*
X97070000Y-118902089D01*
X96832770Y-118949277D01*
X96631657Y-119083657D01*
X96575517Y-119167675D01*
X96414405Y-119006563D01*
X96190939Y-118914000D01*
X95626000Y-118914000D01*
X95474000Y-119066000D01*
X95474000Y-119993000D01*
X95494000Y-119993000D01*
X95494000Y-120301000D01*
X95474000Y-120301000D01*
X95474000Y-121228000D01*
X95626000Y-121380000D01*
X96190939Y-121380000D01*
X96414405Y-121287437D01*
X96575517Y-121126325D01*
X96631657Y-121210343D01*
X96832770Y-121344723D01*
X97070000Y-121391911D01*
X98570000Y-121391911D01*
X98807230Y-121344723D01*
X99008343Y-121210343D01*
X99142723Y-121009230D01*
X99189911Y-120772000D01*
X99189911Y-120453000D01*
X99712000Y-120453000D01*
X99712000Y-120892938D01*
X99804562Y-121116404D01*
X99975595Y-121287437D01*
X100199061Y-121380000D01*
X100764000Y-121380000D01*
X100916000Y-121228000D01*
X100916000Y-120301000D01*
X99864000Y-120301000D01*
X99712000Y-120453000D01*
X99189911Y-120453000D01*
X99189911Y-119522000D01*
X99165855Y-119401062D01*
X99712000Y-119401062D01*
X99712000Y-119841000D01*
X99864000Y-119993000D01*
X100916000Y-119993000D01*
X100916000Y-119066000D01*
X100764000Y-118914000D01*
X100199061Y-118914000D01*
X99975595Y-119006563D01*
X99804562Y-119177596D01*
X99712000Y-119401062D01*
X99165855Y-119401062D01*
X99142723Y-119284770D01*
X99008343Y-119083657D01*
X98807230Y-118949277D01*
X98570000Y-118902089D01*
X98553000Y-118902089D01*
X98553000Y-115826061D01*
X102912000Y-115826061D01*
X102912000Y-116641000D01*
X103064000Y-116793000D01*
X104116000Y-116793000D01*
X104116000Y-115491000D01*
X103964000Y-115339000D01*
X103399062Y-115339000D01*
X103175596Y-115431562D01*
X103004563Y-115602595D01*
X102912000Y-115826061D01*
X98553000Y-115826061D01*
X98553000Y-114376187D01*
X98567359Y-114303999D01*
X98553000Y-114231811D01*
X98553000Y-114231807D01*
X98510471Y-114017998D01*
X98348463Y-113775537D01*
X98287261Y-113734643D01*
X98000357Y-113447739D01*
X97959463Y-113386537D01*
X97717002Y-113224529D01*
X97641264Y-113209464D01*
X97619343Y-113176657D01*
X97418230Y-113042277D01*
X97181000Y-112995089D01*
X95631000Y-112995089D01*
X95393770Y-113042277D01*
X95192657Y-113176657D01*
X95058277Y-113377770D01*
X95011089Y-113615000D01*
X95011089Y-114215000D01*
X95058277Y-114452230D01*
X95123605Y-114550000D01*
X95058277Y-114647770D01*
X95011089Y-114885000D01*
X95011089Y-115223468D01*
X91959287Y-112171667D01*
X92148343Y-112045343D01*
X92282723Y-111844230D01*
X92329911Y-111607000D01*
X92329911Y-111089078D01*
X92489061Y-111155000D01*
X93404000Y-111155000D01*
X93556000Y-111003000D01*
X93556000Y-109601000D01*
X93536000Y-109601000D01*
X93536000Y-109293000D01*
X93556000Y-109293000D01*
X93556000Y-107891000D01*
X93864000Y-107891000D01*
X93864000Y-109293000D01*
X93884000Y-109293000D01*
X93884000Y-109601000D01*
X93864000Y-109601000D01*
X93864000Y-111003000D01*
X94016000Y-111155000D01*
X94930939Y-111155000D01*
X95040089Y-111109788D01*
X95040089Y-111607000D01*
X95087277Y-111844230D01*
X95221657Y-112045343D01*
X95422770Y-112179723D01*
X95660000Y-112226911D01*
X97160000Y-112226911D01*
X97397230Y-112179723D01*
X97598343Y-112045343D01*
X97732723Y-111844230D01*
X97779911Y-111607000D01*
X97779911Y-111423707D01*
X99137261Y-110066357D01*
X99154259Y-110054999D01*
X104050089Y-110054999D01*
X104050089Y-111647000D01*
X104097277Y-111884230D01*
X104231657Y-112085343D01*
X104432770Y-112219723D01*
X104670000Y-112266911D01*
X105837001Y-112266911D01*
X105837000Y-115327089D01*
X105820000Y-115327089D01*
X105582770Y-115374277D01*
X105417530Y-115484688D01*
X105364404Y-115431562D01*
X105140938Y-115339000D01*
X104576000Y-115339000D01*
X104424000Y-115491000D01*
X104424000Y-116793000D01*
X104444000Y-116793000D01*
X104444000Y-117101000D01*
X104424000Y-117101000D01*
X104424000Y-117121000D01*
X104116000Y-117121000D01*
X104116000Y-117101000D01*
X103064000Y-117101000D01*
X102912000Y-117253000D01*
X102912000Y-118067939D01*
X103004563Y-118291405D01*
X103175596Y-118462438D01*
X103399062Y-118555000D01*
X103964000Y-118555000D01*
X104115998Y-118403002D01*
X104115998Y-118555000D01*
X104250382Y-118555000D01*
X103903293Y-118902089D01*
X102820000Y-118902089D01*
X102582770Y-118949277D01*
X102381657Y-119083657D01*
X102325517Y-119167675D01*
X102164405Y-119006563D01*
X101940939Y-118914000D01*
X101376000Y-118914000D01*
X101224000Y-119066000D01*
X101224000Y-119993000D01*
X101244000Y-119993000D01*
X101244000Y-120301000D01*
X101224000Y-120301000D01*
X101224000Y-121228000D01*
X101376000Y-121380000D01*
X101940939Y-121380000D01*
X102164405Y-121287437D01*
X102325517Y-121126325D01*
X102381657Y-121210343D01*
X102582770Y-121344723D01*
X102820000Y-121391911D01*
X104320000Y-121391911D01*
X104557230Y-121344723D01*
X104758343Y-121210343D01*
X104820000Y-121118067D01*
X104881657Y-121210343D01*
X105082770Y-121344723D01*
X105320000Y-121391911D01*
X106820000Y-121391911D01*
X107057230Y-121344723D01*
X107258343Y-121210343D01*
X107314483Y-121126325D01*
X107475595Y-121287437D01*
X107699061Y-121380000D01*
X108264000Y-121380000D01*
X108416000Y-121228000D01*
X108416000Y-120301000D01*
X108724000Y-120301000D01*
X108724000Y-121228000D01*
X108876000Y-121380000D01*
X109440939Y-121380000D01*
X109664405Y-121287437D01*
X109835438Y-121116404D01*
X109928000Y-120892938D01*
X109928000Y-120453000D01*
X109776000Y-120301000D01*
X108724000Y-120301000D01*
X108416000Y-120301000D01*
X108396000Y-120301000D01*
X108396000Y-119993000D01*
X108416000Y-119993000D01*
X108416000Y-119066000D01*
X108724000Y-119066000D01*
X108724000Y-119993000D01*
X109776000Y-119993000D01*
X109928000Y-119841000D01*
X109928000Y-119401062D01*
X109835438Y-119177596D01*
X109664405Y-119006563D01*
X109440939Y-118914000D01*
X108876000Y-118914000D01*
X108724000Y-119066000D01*
X108416000Y-119066000D01*
X108364309Y-119014309D01*
X108811708Y-118566911D01*
X109620000Y-118566911D01*
X109857230Y-118519723D01*
X110058343Y-118385343D01*
X110192723Y-118184230D01*
X110239911Y-117947000D01*
X110239911Y-117680000D01*
X110897812Y-117680000D01*
X110970000Y-117694359D01*
X111042188Y-117680000D01*
X111042193Y-117680000D01*
X111256002Y-117637471D01*
X111498463Y-117475463D01*
X111539357Y-117414261D01*
X113039607Y-115914012D01*
X113500693Y-116105000D01*
X114339307Y-116105000D01*
X115114086Y-115784076D01*
X115707076Y-115191086D01*
X116028000Y-114416307D01*
X116028000Y-114303000D01*
X122012000Y-114303000D01*
X122012000Y-118117938D01*
X122104562Y-118341404D01*
X122275595Y-118512437D01*
X122499061Y-118605000D01*
X126314000Y-118605000D01*
X126466000Y-118453000D01*
X126466000Y-114151000D01*
X126774000Y-114151000D01*
X126774000Y-118453000D01*
X126926000Y-118605000D01*
X130740939Y-118605000D01*
X130964405Y-118512437D01*
X131135438Y-118341404D01*
X131228000Y-118117938D01*
X131228000Y-114303000D01*
X131076000Y-114151000D01*
X126774000Y-114151000D01*
X126466000Y-114151000D01*
X122164000Y-114151000D01*
X122012000Y-114303000D01*
X116028000Y-114303000D01*
X116028000Y-113577693D01*
X115707076Y-112802914D01*
X115114086Y-112209924D01*
X114339307Y-111889000D01*
X113500693Y-111889000D01*
X112725914Y-112209924D01*
X112132924Y-112802914D01*
X111812000Y-113577693D01*
X111812000Y-114416307D01*
X112002988Y-114877393D01*
X110666382Y-116214000D01*
X110239911Y-116214000D01*
X110239911Y-115947000D01*
X110192723Y-115709770D01*
X110058343Y-115508657D01*
X109857230Y-115374277D01*
X109620000Y-115327089D01*
X109603000Y-115327089D01*
X109603000Y-109876062D01*
X122012000Y-109876062D01*
X122012000Y-113691000D01*
X122164000Y-113843000D01*
X126466000Y-113843000D01*
X126466000Y-109541000D01*
X126774000Y-109541000D01*
X126774000Y-113843000D01*
X131076000Y-113843000D01*
X131228000Y-113691000D01*
X131228000Y-109876062D01*
X131135438Y-109652596D01*
X130964405Y-109481563D01*
X130740939Y-109389000D01*
X126926000Y-109389000D01*
X126774000Y-109541000D01*
X126466000Y-109541000D01*
X126314000Y-109389000D01*
X122499061Y-109389000D01*
X122275595Y-109481563D01*
X122104562Y-109652596D01*
X122012000Y-109876062D01*
X109603000Y-109876062D01*
X109603000Y-109534185D01*
X109617359Y-109461997D01*
X109603000Y-109389809D01*
X109603000Y-109389805D01*
X109588203Y-109315415D01*
X110986708Y-107916911D01*
X112070000Y-107916911D01*
X112307230Y-107869723D01*
X112508343Y-107735343D01*
X112642723Y-107534230D01*
X112689911Y-107297000D01*
X112689911Y-105997000D01*
X112642723Y-105759770D01*
X112508343Y-105558657D01*
X112307230Y-105424277D01*
X112070000Y-105377089D01*
X110570000Y-105377089D01*
X110332770Y-105424277D01*
X110131657Y-105558657D01*
X109997277Y-105759770D01*
X109970000Y-105896901D01*
X109942723Y-105759770D01*
X109808343Y-105558657D01*
X109607230Y-105424277D01*
X109370000Y-105377089D01*
X107870000Y-105377089D01*
X107632770Y-105424277D01*
X107431657Y-105558657D01*
X107297277Y-105759770D01*
X107250089Y-105997000D01*
X107250089Y-107297000D01*
X107297277Y-107534230D01*
X107431657Y-107735343D01*
X107632770Y-107869723D01*
X107870000Y-107916911D01*
X108913471Y-107916911D01*
X108262740Y-108567642D01*
X108230777Y-108588999D01*
X99403000Y-108588999D01*
X99403000Y-106241911D01*
X99420000Y-106241911D01*
X99657230Y-106194723D01*
X99858343Y-106060343D01*
X99914483Y-105976325D01*
X100075595Y-106137437D01*
X100299061Y-106230000D01*
X100864000Y-106230000D01*
X101016000Y-106078000D01*
X101016000Y-105151000D01*
X101324000Y-105151000D01*
X101324000Y-106078000D01*
X101476000Y-106230000D01*
X102040939Y-106230000D01*
X102264405Y-106137437D01*
X102435438Y-105966404D01*
X102528000Y-105742938D01*
X102528000Y-105303000D01*
X102376000Y-105151000D01*
X101324000Y-105151000D01*
X101016000Y-105151000D01*
X100996000Y-105151000D01*
X100996000Y-104843000D01*
X101016000Y-104843000D01*
X101016000Y-103916000D01*
X101324000Y-103916000D01*
X101324000Y-104843000D01*
X102376000Y-104843000D01*
X102528000Y-104691000D01*
X102528000Y-104251062D01*
X102435438Y-104027596D01*
X102264405Y-103856563D01*
X102040939Y-103764000D01*
X101476000Y-103764000D01*
X101324000Y-103916000D01*
X101016000Y-103916000D01*
X100864000Y-103764000D01*
X100299061Y-103764000D01*
X100075595Y-103856563D01*
X99914483Y-104017675D01*
X99858343Y-103933657D01*
X99657230Y-103799277D01*
X99420000Y-103752089D01*
X97920000Y-103752089D01*
X97682770Y-103799277D01*
X97481657Y-103933657D01*
X97347277Y-104134770D01*
X97300089Y-104372000D01*
X97300089Y-105622000D01*
X97347277Y-105859230D01*
X97481657Y-106060343D01*
X97682770Y-106194723D01*
X97920000Y-106241911D01*
X97937000Y-106241911D01*
X97937001Y-109193381D01*
X97691823Y-109438559D01*
X97667395Y-109402000D01*
X97732723Y-109304230D01*
X97779911Y-109067000D01*
X97779911Y-108467000D01*
X97732723Y-108229770D01*
X97667395Y-108132000D01*
X97732723Y-108034230D01*
X97779911Y-107797000D01*
X97779911Y-107197000D01*
X97732723Y-106959770D01*
X97598343Y-106758657D01*
X97397230Y-106624277D01*
X97160000Y-106577089D01*
X95660000Y-106577089D01*
X95422770Y-106624277D01*
X95221657Y-106758657D01*
X95087277Y-106959770D01*
X95040089Y-107197000D01*
X95040089Y-107784212D01*
X94930939Y-107739000D01*
X94016000Y-107739000D01*
X93864000Y-107891000D01*
X93556000Y-107891000D01*
X93439309Y-107774309D01*
X93587264Y-107626355D01*
X93648463Y-107585463D01*
X93689355Y-107524264D01*
X93689357Y-107524262D01*
X93772077Y-107400463D01*
X93810471Y-107343002D01*
X93853000Y-107129193D01*
X93853000Y-107129189D01*
X93867359Y-107057001D01*
X93853000Y-106984813D01*
X93853000Y-106266911D01*
X93870000Y-106266911D01*
X94107230Y-106219723D01*
X94308343Y-106085343D01*
X94442723Y-105884230D01*
X94464604Y-105774225D01*
X94554562Y-105991404D01*
X94725595Y-106162437D01*
X94949061Y-106255000D01*
X95514000Y-106255000D01*
X95666000Y-106103000D01*
X95666000Y-105151000D01*
X95974000Y-105151000D01*
X95974000Y-106103000D01*
X96126000Y-106255000D01*
X96690939Y-106255000D01*
X96914405Y-106162437D01*
X97085438Y-105991404D01*
X97178000Y-105767938D01*
X97178000Y-105303000D01*
X97026000Y-105151000D01*
X95974000Y-105151000D01*
X95666000Y-105151000D01*
X95646000Y-105151000D01*
X95646000Y-104843000D01*
X95666000Y-104843000D01*
X95666000Y-103891000D01*
X95974000Y-103891000D01*
X95974000Y-104843000D01*
X97026000Y-104843000D01*
X97178000Y-104691000D01*
X97178000Y-104226062D01*
X97085438Y-104002596D01*
X96914405Y-103831563D01*
X96690939Y-103739000D01*
X96126000Y-103739000D01*
X95974000Y-103891000D01*
X95666000Y-103891000D01*
X95514000Y-103739000D01*
X94949061Y-103739000D01*
X94725595Y-103831563D01*
X94554562Y-104002596D01*
X94464604Y-104219775D01*
X94442723Y-104109770D01*
X94308343Y-103908657D01*
X94107230Y-103774277D01*
X93870000Y-103727089D01*
X92370000Y-103727089D01*
X92132770Y-103774277D01*
X91931657Y-103908657D01*
X91797277Y-104109770D01*
X91767514Y-104259401D01*
X91742723Y-104134770D01*
X91608343Y-103933657D01*
X91407230Y-103799277D01*
X91170000Y-103752089D01*
X89670000Y-103752089D01*
X89432770Y-103799277D01*
X89231657Y-103933657D01*
X89175517Y-104017675D01*
X89014405Y-103856563D01*
X88790939Y-103764000D01*
X88226000Y-103764000D01*
X88074000Y-103916000D01*
X88074000Y-104843000D01*
X88094000Y-104843000D01*
X88094000Y-105151000D01*
X88074000Y-105151000D01*
X88074000Y-106078000D01*
X88226000Y-106230000D01*
X88790939Y-106230000D01*
X89014405Y-106137437D01*
X89175517Y-105976325D01*
X89216990Y-106038392D01*
X88952737Y-106302645D01*
X88891538Y-106343537D01*
X88850646Y-106404736D01*
X88850643Y-106404739D01*
X88729530Y-106585998D01*
X88672641Y-106872000D01*
X88687001Y-106944193D01*
X88687000Y-110144812D01*
X88672641Y-110217000D01*
X88687000Y-110289188D01*
X88687000Y-110289192D01*
X88729529Y-110503001D01*
X88805386Y-110616529D01*
X88838444Y-110666003D01*
X88891537Y-110745463D01*
X88952739Y-110786357D01*
X89590089Y-111423707D01*
X89590089Y-111607000D01*
X89593471Y-111624000D01*
X87216679Y-111624000D01*
X87157230Y-111584277D01*
X86986521Y-111550321D01*
X87035437Y-111501405D01*
X87128000Y-111277939D01*
X87128000Y-110713000D01*
X86976000Y-110561000D01*
X85974000Y-110561000D01*
X85974000Y-110581000D01*
X85666000Y-110581000D01*
X85666000Y-110561000D01*
X84664000Y-110561000D01*
X84512000Y-110713000D01*
X84512000Y-111277939D01*
X84555160Y-111382136D01*
X84512000Y-111486333D01*
X84512000Y-111827667D01*
X84549051Y-111917115D01*
X84547277Y-111919770D01*
X84500089Y-112157000D01*
X82003000Y-112157000D01*
X82003000Y-111983000D01*
X82124000Y-111983000D01*
X82124000Y-112003000D01*
X82926000Y-112003000D01*
X83078000Y-111851000D01*
X83078000Y-111486061D01*
X82985437Y-111262595D01*
X82814404Y-111091562D01*
X82590938Y-110999000D01*
X82276000Y-110999000D01*
X82124002Y-111150998D01*
X82124002Y-110999000D01*
X82003000Y-110999000D01*
X82003000Y-110719842D01*
X82055596Y-110772438D01*
X82279062Y-110865000D01*
X82844000Y-110865000D01*
X82996000Y-110713000D01*
X82996000Y-109736000D01*
X83304000Y-109736000D01*
X83304000Y-110713000D01*
X83456000Y-110865000D01*
X84020938Y-110865000D01*
X84244404Y-110772438D01*
X84415437Y-110601405D01*
X84508000Y-110377939D01*
X84508000Y-109888000D01*
X84356000Y-109736000D01*
X83304000Y-109736000D01*
X82996000Y-109736000D01*
X82976000Y-109736000D01*
X82976000Y-109536061D01*
X84512000Y-109536061D01*
X84512000Y-110101000D01*
X84664000Y-110253000D01*
X85666000Y-110253000D01*
X85666000Y-109201000D01*
X85974000Y-109201000D01*
X85974000Y-110253000D01*
X86976000Y-110253000D01*
X87128000Y-110101000D01*
X87128000Y-109536061D01*
X87035437Y-109312595D01*
X86864404Y-109141562D01*
X86640938Y-109049000D01*
X86126000Y-109049000D01*
X85974000Y-109201000D01*
X85666000Y-109201000D01*
X85514000Y-109049000D01*
X84999062Y-109049000D01*
X84775596Y-109141562D01*
X84604563Y-109312595D01*
X84512000Y-109536061D01*
X82976000Y-109536061D01*
X82976000Y-109428000D01*
X82996000Y-109428000D01*
X82996000Y-108451000D01*
X83304000Y-108451000D01*
X83304000Y-109428000D01*
X84356000Y-109428000D01*
X84508000Y-109276000D01*
X84508000Y-108786061D01*
X84415437Y-108562595D01*
X84244404Y-108391562D01*
X84020938Y-108299000D01*
X83456000Y-108299000D01*
X83304000Y-108451000D01*
X82996000Y-108451000D01*
X82844000Y-108299000D01*
X82279062Y-108299000D01*
X82055596Y-108391562D01*
X82003000Y-108444158D01*
X82003000Y-105303000D01*
X86562000Y-105303000D01*
X86562000Y-105742938D01*
X86654562Y-105966404D01*
X86825595Y-106137437D01*
X87049061Y-106230000D01*
X87614000Y-106230000D01*
X87766000Y-106078000D01*
X87766000Y-105151000D01*
X86714000Y-105151000D01*
X86562000Y-105303000D01*
X82003000Y-105303000D01*
X82003000Y-104251062D01*
X86562000Y-104251062D01*
X86562000Y-104691000D01*
X86714000Y-104843000D01*
X87766000Y-104843000D01*
X87766000Y-103916000D01*
X87614000Y-103764000D01*
X87049061Y-103764000D01*
X86825595Y-103856563D01*
X86654562Y-104027596D01*
X86562000Y-104251062D01*
X82003000Y-104251062D01*
X82003000Y-89480000D01*
X170837000Y-89480000D01*
X170837000Y-93153044D01*
X170837000Y-93153044D01*
G37*
X170837000Y-93153044D02*
X170772470Y-93140209D01*
X170767723Y-93116346D01*
X170633343Y-92915233D01*
X170432230Y-92780853D01*
X170195000Y-92733665D01*
X169922147Y-92733665D01*
X169914822Y-92696838D01*
X169769391Y-92479185D01*
X169551738Y-92333754D01*
X169359803Y-92295576D01*
X169295000Y-92282686D01*
X169230197Y-92295576D01*
X164359803Y-92295576D01*
X164295000Y-92282686D01*
X164230197Y-92295576D01*
X164038262Y-92333754D01*
X163820609Y-92479185D01*
X163675178Y-92696838D01*
X163667853Y-92733665D01*
X163345000Y-92733665D01*
X163107770Y-92780853D01*
X162906657Y-92915233D01*
X162772277Y-93116346D01*
X162733160Y-93313000D01*
X162563388Y-93313000D01*
X162229659Y-93451235D01*
X162224911Y-93455983D01*
X162224911Y-93325576D01*
X162177723Y-93088346D01*
X162043343Y-92887233D01*
X161842230Y-92752853D01*
X161605000Y-92705665D01*
X161332147Y-92705665D01*
X161324822Y-92668838D01*
X161179391Y-92451185D01*
X160961738Y-92305754D01*
X160769803Y-92267576D01*
X160705000Y-92254686D01*
X160640197Y-92267576D01*
X155769803Y-92267576D01*
X155705000Y-92254686D01*
X155640197Y-92267576D01*
X155448262Y-92305754D01*
X155230609Y-92451185D01*
X155085178Y-92668838D01*
X155077853Y-92705665D01*
X154755000Y-92705665D01*
X154517770Y-92752853D01*
X154316657Y-92887233D01*
X154182277Y-93088346D01*
X154137591Y-93313000D01*
X153927388Y-93313000D01*
X153593659Y-93451235D01*
X153338235Y-93706659D01*
X153334911Y-93714684D01*
X153334911Y-93325576D01*
X153287723Y-93088346D01*
X153153343Y-92887233D01*
X152952230Y-92752853D01*
X152715000Y-92705665D01*
X152442147Y-92705665D01*
X152434822Y-92668838D01*
X152289391Y-92451185D01*
X152071738Y-92305754D01*
X151879803Y-92267576D01*
X151815000Y-92254686D01*
X151750197Y-92267576D01*
X146879803Y-92267576D01*
X146815000Y-92254686D01*
X146750197Y-92267576D01*
X146558262Y-92305754D01*
X146340609Y-92451185D01*
X146195178Y-92668838D01*
X146187853Y-92705665D01*
X145865000Y-92705665D01*
X145627770Y-92752853D01*
X145426657Y-92887233D01*
X145377213Y-92961231D01*
X145135157Y-92961231D01*
X144801428Y-93099466D01*
X144546004Y-93354890D01*
X144444911Y-93598950D01*
X144444911Y-93325576D01*
X144397723Y-93088346D01*
X144263343Y-92887233D01*
X144062230Y-92752853D01*
X143825000Y-92705665D01*
X143552147Y-92705665D01*
X143544822Y-92668838D01*
X143399391Y-92451185D01*
X143181738Y-92305754D01*
X142989803Y-92267576D01*
X142925000Y-92254686D01*
X142860197Y-92267576D01*
X137989803Y-92267576D01*
X137925000Y-92254686D01*
X137860197Y-92267576D01*
X137668262Y-92305754D01*
X137450609Y-92451185D01*
X137305178Y-92668838D01*
X137297853Y-92705665D01*
X136975000Y-92705665D01*
X136737770Y-92752853D01*
X136536657Y-92887233D01*
X136402277Y-93088346D01*
X136357591Y-93313000D01*
X136147388Y-93313000D01*
X135813659Y-93451235D01*
X135558235Y-93706659D01*
X135554911Y-93714684D01*
X135554911Y-93325576D01*
X135507723Y-93088346D01*
X135373343Y-92887233D01*
X135172230Y-92752853D01*
X134935000Y-92705665D01*
X134662147Y-92705665D01*
X134654822Y-92668838D01*
X134509391Y-92451185D01*
X134291738Y-92305754D01*
X134099803Y-92267576D01*
X134035000Y-92254686D01*
X133970197Y-92267576D01*
X129099803Y-92267576D01*
X129035000Y-92254686D01*
X128970197Y-92267576D01*
X128778262Y-92305754D01*
X128560609Y-92451185D01*
X128415178Y-92668838D01*
X128407853Y-92705665D01*
X128085000Y-92705665D01*
X127847770Y-92752853D01*
X127646657Y-92887233D01*
X127512277Y-93088346D01*
X127465089Y-93325576D01*
X127465089Y-93332178D01*
X127177659Y-93451235D01*
X126922235Y-93706659D01*
X126784000Y-94040388D01*
X126784000Y-94137958D01*
X126664911Y-94018869D01*
X126664911Y-93325576D01*
X126617723Y-93088346D01*
X126483343Y-92887233D01*
X126282230Y-92752853D01*
X126045000Y-92705665D01*
X125772147Y-92705665D01*
X125764822Y-92668838D01*
X125619391Y-92451185D01*
X125401738Y-92305754D01*
X125209803Y-92267576D01*
X125145000Y-92254686D01*
X125080197Y-92267576D01*
X120209803Y-92267576D01*
X120145000Y-92254686D01*
X120080197Y-92267576D01*
X119888262Y-92305754D01*
X119670609Y-92451185D01*
X119525178Y-92668838D01*
X119517853Y-92705665D01*
X119195000Y-92705665D01*
X118957770Y-92752853D01*
X118821898Y-92843640D01*
X118728612Y-92805000D01*
X118367388Y-92805000D01*
X118033659Y-92943235D01*
X117848295Y-93128599D01*
X117731093Y-93105286D01*
X117727723Y-93088346D01*
X117593343Y-92887233D01*
X117392230Y-92752853D01*
X117155000Y-92705665D01*
X116882147Y-92705665D01*
X116874822Y-92668838D01*
X116729391Y-92451185D01*
X116511738Y-92305754D01*
X116319803Y-92267576D01*
X116255000Y-92254686D01*
X116190197Y-92267576D01*
X111319803Y-92267576D01*
X111255000Y-92254686D01*
X111190197Y-92267576D01*
X110998262Y-92305754D01*
X110780609Y-92451185D01*
X110635178Y-92668838D01*
X110627853Y-92705665D01*
X110305000Y-92705665D01*
X110067770Y-92752853D01*
X109866657Y-92887233D01*
X109732277Y-93088346D01*
X109685089Y-93325576D01*
X109685089Y-93332178D01*
X109397659Y-93451235D01*
X109142235Y-93706659D01*
X109004000Y-94040388D01*
X109004000Y-94137958D01*
X108884911Y-94018869D01*
X108884911Y-93325576D01*
X108837723Y-93088346D01*
X108703343Y-92887233D01*
X108502230Y-92752853D01*
X108265000Y-92705665D01*
X107992147Y-92705665D01*
X107984822Y-92668838D01*
X107839391Y-92451185D01*
X107621738Y-92305754D01*
X107429803Y-92267576D01*
X107365000Y-92254686D01*
X107300197Y-92267576D01*
X102429803Y-92267576D01*
X102365000Y-92254686D01*
X102300197Y-92267576D01*
X102108262Y-92305754D01*
X101890609Y-92451185D01*
X101745178Y-92668838D01*
X101737853Y-92705665D01*
X101415000Y-92705665D01*
X101177770Y-92752853D01*
X101041898Y-92843640D01*
X100948612Y-92805000D01*
X100587388Y-92805000D01*
X100253659Y-92943235D01*
X99998235Y-93198659D01*
X99978934Y-93245255D01*
X99947723Y-93088346D01*
X99813343Y-92887233D01*
X99612230Y-92752853D01*
X99375000Y-92705665D01*
X99102147Y-92705665D01*
X99094822Y-92668838D01*
X98949391Y-92451185D01*
X98731738Y-92305754D01*
X98539803Y-92267576D01*
X98475000Y-92254686D01*
X98410197Y-92267576D01*
X93539803Y-92267576D01*
X93475000Y-92254686D01*
X93410197Y-92267576D01*
X93218262Y-92305754D01*
X93000609Y-92451185D01*
X92855178Y-92668838D01*
X92847853Y-92705665D01*
X92525000Y-92705665D01*
X92287770Y-92752853D01*
X92209727Y-92805000D01*
X91951388Y-92805000D01*
X91617659Y-92943235D01*
X91513413Y-93047481D01*
X91408343Y-92890233D01*
X91207230Y-92755853D01*
X90970000Y-92708665D01*
X90697147Y-92708665D01*
X90689822Y-92671838D01*
X90544391Y-92454185D01*
X90326738Y-92308754D01*
X90134803Y-92270576D01*
X90070000Y-92257686D01*
X90005197Y-92270576D01*
X85134803Y-92270576D01*
X85070000Y-92257686D01*
X85005197Y-92270576D01*
X84813262Y-92308754D01*
X84595609Y-92454185D01*
X84450178Y-92671838D01*
X84442853Y-92708665D01*
X84120000Y-92708665D01*
X83882770Y-92755853D01*
X83681657Y-92890233D01*
X83547277Y-93091346D01*
X83500089Y-93328576D01*
X83500089Y-93911869D01*
X83302737Y-94109221D01*
X83241538Y-94150113D01*
X83200646Y-94211312D01*
X83200643Y-94211315D01*
X83079530Y-94392574D01*
X83022641Y-94678576D01*
X83037001Y-94750769D01*
X83037000Y-98056089D01*
X83020000Y-98056089D01*
X82782770Y-98103277D01*
X82581657Y-98237657D01*
X82447277Y-98438770D01*
X82400089Y-98676000D01*
X82400089Y-99926000D01*
X82447277Y-100163230D01*
X82581657Y-100364343D01*
X82646693Y-100407799D01*
X82805659Y-100566765D01*
X83139388Y-100705000D01*
X83500612Y-100705000D01*
X83834341Y-100566765D01*
X83855195Y-100545911D01*
X84520000Y-100545911D01*
X84757230Y-100498723D01*
X84958343Y-100364343D01*
X85014483Y-100280325D01*
X85175595Y-100441437D01*
X85399061Y-100534000D01*
X85964000Y-100534000D01*
X86116000Y-100382000D01*
X86116000Y-99455000D01*
X86424000Y-99455000D01*
X86424000Y-100382000D01*
X86576000Y-100534000D01*
X87140939Y-100534000D01*
X87364405Y-100441437D01*
X87535438Y-100270404D01*
X87628000Y-100046938D01*
X87628000Y-99607000D01*
X87476000Y-99455000D01*
X86424000Y-99455000D01*
X86116000Y-99455000D01*
X86096000Y-99455000D01*
X86096000Y-99147000D01*
X86116000Y-99147000D01*
X86116000Y-99127000D01*
X86424000Y-99127000D01*
X86424000Y-99147000D01*
X87476000Y-99147000D01*
X87628000Y-98995000D01*
X87628000Y-98586576D01*
X90005197Y-98586576D01*
X90070000Y-98599466D01*
X90134803Y-98586576D01*
X90326738Y-98548398D01*
X90544391Y-98402967D01*
X90689822Y-98185314D01*
X90699517Y-98136576D01*
X91090939Y-98136576D01*
X91305320Y-98047776D01*
X91305320Y-98244132D01*
X91290961Y-98316320D01*
X91305320Y-98388508D01*
X91305320Y-98388512D01*
X91347849Y-98602321D01*
X91509857Y-98844783D01*
X91571059Y-98885677D01*
X91778089Y-99092707D01*
X91778089Y-99926000D01*
X91825277Y-100163230D01*
X91959657Y-100364343D01*
X92160770Y-100498723D01*
X92381529Y-100542635D01*
X92405659Y-100566765D01*
X92739388Y-100705000D01*
X93100612Y-100705000D01*
X93434341Y-100566765D01*
X93455195Y-100545911D01*
X93898000Y-100545911D01*
X94135230Y-100498723D01*
X94336343Y-100364343D01*
X94392483Y-100280325D01*
X94553595Y-100441437D01*
X94777061Y-100534000D01*
X95342000Y-100534000D01*
X95494000Y-100382000D01*
X95494000Y-99455000D01*
X95802000Y-99455000D01*
X95802000Y-100382000D01*
X95954000Y-100534000D01*
X96518939Y-100534000D01*
X96742405Y-100441437D01*
X96913438Y-100270404D01*
X97006000Y-100046938D01*
X97006000Y-99607000D01*
X96854000Y-99455000D01*
X95802000Y-99455000D01*
X95494000Y-99455000D01*
X95474000Y-99455000D01*
X95474000Y-99147000D01*
X95494000Y-99147000D01*
X95494000Y-99127000D01*
X95802000Y-99127000D01*
X95802000Y-99147000D01*
X96854000Y-99147000D01*
X97006000Y-98995000D01*
X97006000Y-98583576D01*
X98410197Y-98583576D01*
X98475000Y-98596466D01*
X98539803Y-98583576D01*
X98731738Y-98545398D01*
X98949391Y-98399967D01*
X99094822Y-98182314D01*
X99104517Y-98133576D01*
X99495939Y-98133576D01*
X99719405Y-98041013D01*
X99890438Y-97869980D01*
X99983000Y-97646514D01*
X99983000Y-97331576D01*
X99831002Y-97179578D01*
X99958569Y-97179578D01*
X99998235Y-97275341D01*
X100035000Y-97312106D01*
X100035000Y-97337812D01*
X100020641Y-97410000D01*
X100035000Y-97482188D01*
X100035000Y-97482192D01*
X100077529Y-97696001D01*
X100239537Y-97938463D01*
X100300739Y-97979357D01*
X100580990Y-98259608D01*
X100461277Y-98438770D01*
X100414089Y-98676000D01*
X100414089Y-99926000D01*
X100461277Y-100163230D01*
X100595657Y-100364343D01*
X100796770Y-100498723D01*
X100972590Y-100533696D01*
X101005659Y-100566765D01*
X101339388Y-100705000D01*
X101700612Y-100705000D01*
X102034341Y-100566765D01*
X102055195Y-100545911D01*
X102534000Y-100545911D01*
X102771230Y-100498723D01*
X102972343Y-100364343D01*
X103028483Y-100280325D01*
X103189595Y-100441437D01*
X103413061Y-100534000D01*
X103978000Y-100534000D01*
X104130000Y-100382000D01*
X104130000Y-99455000D01*
X104438000Y-99455000D01*
X104438000Y-100382000D01*
X104590000Y-100534000D01*
X105154939Y-100534000D01*
X105378405Y-100441437D01*
X105549438Y-100270404D01*
X105642000Y-100046938D01*
X105642000Y-99607000D01*
X105490000Y-99455000D01*
X104438000Y-99455000D01*
X104130000Y-99455000D01*
X104110000Y-99455000D01*
X104110000Y-99147000D01*
X104130000Y-99147000D01*
X104130000Y-99127000D01*
X104438000Y-99127000D01*
X104438000Y-99147000D01*
X105490000Y-99147000D01*
X105642000Y-98995000D01*
X105642000Y-98583576D01*
X107300197Y-98583576D01*
X107365000Y-98596466D01*
X107429803Y-98583576D01*
X107621738Y-98545398D01*
X107839391Y-98399967D01*
X107984822Y-98182314D01*
X107994517Y-98133576D01*
X108385939Y-98133576D01*
X108609405Y-98041013D01*
X108780438Y-97869980D01*
X108873000Y-97646514D01*
X108873000Y-97331576D01*
X108721002Y-97179578D01*
X108873000Y-97179578D01*
X108873000Y-97051754D01*
X108986004Y-97324570D01*
X109022770Y-97361336D01*
X109022769Y-98181581D01*
X109008410Y-98253769D01*
X109022769Y-98325957D01*
X109022769Y-98325961D01*
X109065298Y-98539770D01*
X109227306Y-98782232D01*
X109288508Y-98823126D01*
X109558089Y-99092707D01*
X109558089Y-99926000D01*
X109605277Y-100163230D01*
X109739657Y-100364343D01*
X109940770Y-100498723D01*
X110178000Y-100545911D01*
X110184805Y-100545911D01*
X110205659Y-100566765D01*
X110539388Y-100705000D01*
X110900612Y-100705000D01*
X111234341Y-100566765D01*
X111255195Y-100545911D01*
X111678000Y-100545911D01*
X111915230Y-100498723D01*
X112116343Y-100364343D01*
X112172483Y-100280325D01*
X112333595Y-100441437D01*
X112557061Y-100534000D01*
X113122000Y-100534000D01*
X113274000Y-100382000D01*
X113274000Y-99455000D01*
X113582000Y-99455000D01*
X113582000Y-100382000D01*
X113734000Y-100534000D01*
X114298939Y-100534000D01*
X114522405Y-100441437D01*
X114693438Y-100270404D01*
X114786000Y-100046938D01*
X114786000Y-99607000D01*
X114634000Y-99455000D01*
X113582000Y-99455000D01*
X113274000Y-99455000D01*
X113254000Y-99455000D01*
X113254000Y-99147000D01*
X113274000Y-99147000D01*
X113274000Y-99127000D01*
X113582000Y-99127000D01*
X113582000Y-99147000D01*
X114634000Y-99147000D01*
X114786000Y-98995000D01*
X114786000Y-98583576D01*
X116190197Y-98583576D01*
X116255000Y-98596466D01*
X116319803Y-98583576D01*
X116511738Y-98545398D01*
X116729391Y-98399967D01*
X116874822Y-98182314D01*
X116884517Y-98133576D01*
X117275939Y-98133576D01*
X117499405Y-98041013D01*
X117670438Y-97869980D01*
X117763000Y-97646514D01*
X117763000Y-97331576D01*
X117611000Y-97179576D01*
X116913000Y-97179576D01*
X116913000Y-96871576D01*
X117611000Y-96871576D01*
X117759783Y-96722793D01*
X117778235Y-96767341D01*
X117815001Y-96804107D01*
X117815000Y-97829812D01*
X117800641Y-97902000D01*
X117815000Y-97974188D01*
X117815000Y-97974192D01*
X117857529Y-98188001D01*
X118019537Y-98430463D01*
X118080739Y-98471357D01*
X118702089Y-99092707D01*
X118702089Y-99926000D01*
X118749277Y-100163230D01*
X118883657Y-100364343D01*
X119084770Y-100498723D01*
X119322000Y-100545911D01*
X120822000Y-100545911D01*
X121059230Y-100498723D01*
X121260343Y-100364343D01*
X121316483Y-100280325D01*
X121477595Y-100441437D01*
X121701061Y-100534000D01*
X122266000Y-100534000D01*
X122418000Y-100382000D01*
X122418000Y-99455000D01*
X122726000Y-99455000D01*
X122726000Y-100382000D01*
X122878000Y-100534000D01*
X123442939Y-100534000D01*
X123666405Y-100441437D01*
X123837438Y-100270404D01*
X123930000Y-100046938D01*
X123930000Y-99607000D01*
X123778000Y-99455000D01*
X122726000Y-99455000D01*
X122418000Y-99455000D01*
X122398000Y-99455000D01*
X122398000Y-99147000D01*
X122418000Y-99147000D01*
X122418000Y-99127000D01*
X122726000Y-99127000D01*
X122726000Y-99147000D01*
X123778000Y-99147000D01*
X123930000Y-98995000D01*
X123930000Y-98583576D01*
X125080197Y-98583576D01*
X125145000Y-98596466D01*
X125209803Y-98583576D01*
X125401738Y-98545398D01*
X125619391Y-98399967D01*
X125764822Y-98182314D01*
X125774517Y-98133576D01*
X126165939Y-98133576D01*
X126389405Y-98041013D01*
X126560438Y-97869980D01*
X126653000Y-97646514D01*
X126653000Y-97331576D01*
X126501002Y-97179578D01*
X126653000Y-97179578D01*
X126653000Y-97051754D01*
X126766004Y-97324570D01*
X126802770Y-97361336D01*
X126802769Y-98181581D01*
X126788410Y-98253769D01*
X126802769Y-98325957D01*
X126802769Y-98325961D01*
X126845298Y-98539770D01*
X127007306Y-98782232D01*
X127068508Y-98823126D01*
X127338089Y-99092707D01*
X127338089Y-99926000D01*
X127385277Y-100163230D01*
X127519657Y-100364343D01*
X127720770Y-100498723D01*
X127958000Y-100545911D01*
X129458000Y-100545911D01*
X129695230Y-100498723D01*
X129896343Y-100364343D01*
X129952483Y-100280325D01*
X130113595Y-100441437D01*
X130337061Y-100534000D01*
X130902000Y-100534000D01*
X131054000Y-100382000D01*
X131054000Y-99455000D01*
X131362000Y-99455000D01*
X131362000Y-100382000D01*
X131514000Y-100534000D01*
X132078939Y-100534000D01*
X132302405Y-100441437D01*
X132473438Y-100270404D01*
X132566000Y-100046938D01*
X132566000Y-99607000D01*
X132414000Y-99455000D01*
X131362000Y-99455000D01*
X131054000Y-99455000D01*
X131034000Y-99455000D01*
X131034000Y-99147000D01*
X131054000Y-99147000D01*
X131054000Y-99127000D01*
X131362000Y-99127000D01*
X131362000Y-99147000D01*
X132414000Y-99147000D01*
X132566000Y-98995000D01*
X132566000Y-98583576D01*
X133970197Y-98583576D01*
X134035000Y-98596466D01*
X134099803Y-98583576D01*
X134291738Y-98545398D01*
X134509391Y-98399967D01*
X134654822Y-98182314D01*
X134664517Y-98133576D01*
X135055939Y-98133576D01*
X135279405Y-98041013D01*
X135450438Y-97869980D01*
X135543000Y-97646514D01*
X135543000Y-97331576D01*
X135391002Y-97179578D01*
X135518569Y-97179578D01*
X135558235Y-97275341D01*
X135595001Y-97312107D01*
X135595000Y-97938806D01*
X135595000Y-98063812D01*
X135580641Y-98136000D01*
X135595000Y-98208188D01*
X135595000Y-98208192D01*
X135637529Y-98422001D01*
X135716015Y-98539463D01*
X135747495Y-98586576D01*
X135799537Y-98664463D01*
X135860739Y-98705357D01*
X136248089Y-99092707D01*
X136248089Y-99926000D01*
X136295277Y-100163230D01*
X136429657Y-100364343D01*
X136630770Y-100498723D01*
X136868000Y-100545911D01*
X138368000Y-100545911D01*
X138605230Y-100498723D01*
X138806343Y-100364343D01*
X138862483Y-100280325D01*
X139023595Y-100441437D01*
X139247061Y-100534000D01*
X139812000Y-100534000D01*
X139964000Y-100382000D01*
X139964000Y-99455000D01*
X140272000Y-99455000D01*
X140272000Y-100382000D01*
X140424000Y-100534000D01*
X140988939Y-100534000D01*
X141212405Y-100441437D01*
X141383438Y-100270404D01*
X141476000Y-100046938D01*
X141476000Y-99607000D01*
X141324000Y-99455000D01*
X140272000Y-99455000D01*
X139964000Y-99455000D01*
X139944000Y-99455000D01*
X139944000Y-99147000D01*
X139964000Y-99147000D01*
X139964000Y-99127000D01*
X140272000Y-99127000D01*
X140272000Y-99147000D01*
X141324000Y-99147000D01*
X141476000Y-98995000D01*
X141476000Y-98583576D01*
X142860197Y-98583576D01*
X142925000Y-98596466D01*
X142989803Y-98583576D01*
X143181738Y-98545398D01*
X143399391Y-98399967D01*
X143544822Y-98182314D01*
X143554517Y-98133576D01*
X143945939Y-98133576D01*
X144169405Y-98041013D01*
X144340438Y-97869980D01*
X144433000Y-97646514D01*
X144433000Y-97331576D01*
X144281002Y-97179578D01*
X144433000Y-97179578D01*
X144433000Y-97051754D01*
X144546004Y-97324570D01*
X144582770Y-97361336D01*
X144582769Y-98056576D01*
X144582769Y-98181581D01*
X144568410Y-98253769D01*
X144582769Y-98325957D01*
X144582769Y-98325961D01*
X144625298Y-98539770D01*
X144787306Y-98782232D01*
X144848508Y-98823126D01*
X145118089Y-99092707D01*
X145118089Y-99926000D01*
X145165277Y-100163230D01*
X145299657Y-100364343D01*
X145500770Y-100498723D01*
X145738000Y-100545911D01*
X147238000Y-100545911D01*
X147475230Y-100498723D01*
X147676343Y-100364343D01*
X147732483Y-100280325D01*
X147893595Y-100441437D01*
X148117061Y-100534000D01*
X148682000Y-100534000D01*
X148834000Y-100382000D01*
X148834000Y-99455000D01*
X149142000Y-99455000D01*
X149142000Y-100382000D01*
X149294000Y-100534000D01*
X149858939Y-100534000D01*
X150082405Y-100441437D01*
X150253438Y-100270404D01*
X150346000Y-100046938D01*
X150346000Y-99607000D01*
X150194000Y-99455000D01*
X149142000Y-99455000D01*
X148834000Y-99455000D01*
X148814000Y-99455000D01*
X148814000Y-99147000D01*
X148834000Y-99147000D01*
X148834000Y-99127000D01*
X149142000Y-99127000D01*
X149142000Y-99147000D01*
X150194000Y-99147000D01*
X150346000Y-98995000D01*
X150346000Y-98583576D01*
X151750197Y-98583576D01*
X151815000Y-98596466D01*
X151879803Y-98583576D01*
X152071738Y-98545398D01*
X152289391Y-98399967D01*
X152434822Y-98182314D01*
X152444517Y-98133576D01*
X152835939Y-98133576D01*
X153059405Y-98041013D01*
X153230438Y-97869980D01*
X153323000Y-97646514D01*
X153323000Y-97331576D01*
X153171002Y-97179578D01*
X153298569Y-97179578D01*
X153338235Y-97275341D01*
X153375001Y-97312107D01*
X153375000Y-97829811D01*
X153360641Y-97902000D01*
X153375000Y-97974188D01*
X153375000Y-97974192D01*
X153417529Y-98188001D01*
X153579537Y-98430463D01*
X153640739Y-98471357D01*
X154262089Y-99092707D01*
X154262089Y-99926000D01*
X154309277Y-100163230D01*
X154443657Y-100364343D01*
X154644770Y-100498723D01*
X154882000Y-100545911D01*
X156382000Y-100545911D01*
X156619230Y-100498723D01*
X156820343Y-100364343D01*
X156876483Y-100280325D01*
X157037595Y-100441437D01*
X157261061Y-100534000D01*
X157826000Y-100534000D01*
X157978000Y-100382000D01*
X157978000Y-99455000D01*
X158286000Y-99455000D01*
X158286000Y-100382000D01*
X158438000Y-100534000D01*
X159002939Y-100534000D01*
X159226405Y-100441437D01*
X159397438Y-100270404D01*
X159490000Y-100046938D01*
X159490000Y-99607000D01*
X159338000Y-99455000D01*
X158286000Y-99455000D01*
X157978000Y-99455000D01*
X157958000Y-99455000D01*
X157958000Y-99147000D01*
X157978000Y-99147000D01*
X157978000Y-99127000D01*
X158286000Y-99127000D01*
X158286000Y-99147000D01*
X159338000Y-99147000D01*
X159490000Y-98995000D01*
X159490000Y-98583576D01*
X160640197Y-98583576D01*
X160705000Y-98596466D01*
X160769803Y-98583576D01*
X160961738Y-98545398D01*
X161179391Y-98399967D01*
X161324822Y-98182314D01*
X161334517Y-98133576D01*
X161725939Y-98133576D01*
X161949405Y-98041013D01*
X162011000Y-97979418D01*
X162011000Y-98063812D01*
X161996641Y-98136000D01*
X162011000Y-98208188D01*
X162011000Y-98208192D01*
X162053529Y-98422001D01*
X162132015Y-98539463D01*
X162163495Y-98586576D01*
X162215537Y-98664463D01*
X162276739Y-98705357D01*
X162664089Y-99092707D01*
X162664089Y-99926000D01*
X162711277Y-100163230D01*
X162845657Y-100364343D01*
X163046770Y-100498723D01*
X163284000Y-100545911D01*
X164784000Y-100545911D01*
X165021230Y-100498723D01*
X165222343Y-100364343D01*
X165278483Y-100280325D01*
X165439595Y-100441437D01*
X165663061Y-100534000D01*
X166228000Y-100534000D01*
X166380000Y-100382000D01*
X166380000Y-99455000D01*
X166688000Y-99455000D01*
X166688000Y-100382000D01*
X166840000Y-100534000D01*
X167404939Y-100534000D01*
X167628405Y-100441437D01*
X167799438Y-100270404D01*
X167892000Y-100046938D01*
X167892000Y-99607000D01*
X167740000Y-99455000D01*
X166688000Y-99455000D01*
X166380000Y-99455000D01*
X166360000Y-99455000D01*
X166360000Y-99147000D01*
X166380000Y-99147000D01*
X166380000Y-99127000D01*
X166688000Y-99127000D01*
X166688000Y-99147000D01*
X167740000Y-99147000D01*
X167892000Y-98995000D01*
X167892000Y-98611576D01*
X169230197Y-98611576D01*
X169295000Y-98624466D01*
X169359803Y-98611576D01*
X169551738Y-98573398D01*
X169769391Y-98427967D01*
X169914822Y-98210314D01*
X169924517Y-98161576D01*
X170315939Y-98161576D01*
X170539405Y-98069013D01*
X170710438Y-97897980D01*
X170803000Y-97674514D01*
X170803000Y-97359576D01*
X170651000Y-97207576D01*
X169953000Y-97207576D01*
X169953000Y-96899576D01*
X170651000Y-96899576D01*
X170803000Y-96747576D01*
X170803000Y-96432638D01*
X170710438Y-96209172D01*
X170539405Y-96038139D01*
X170315939Y-95945576D01*
X169953000Y-95945576D01*
X169953000Y-94973487D01*
X170195000Y-94973487D01*
X170397167Y-94933273D01*
X170430659Y-94966765D01*
X170764388Y-95105000D01*
X170837000Y-95105000D01*
X170837000Y-110297000D01*
X164320000Y-110297000D01*
X164281732Y-110304612D01*
X164249289Y-110326289D01*
X164227612Y-110358732D01*
X164220000Y-110397000D01*
X164220000Y-128397000D01*
X164227612Y-128435268D01*
X164249289Y-128467711D01*
X164281732Y-128489388D01*
X164320000Y-128497000D01*
X170837001Y-128497000D01*
X170837001Y-130594469D01*
X170654197Y-130153141D01*
X170201859Y-129700803D01*
X169610851Y-129456000D01*
X168971149Y-129456000D01*
X168861362Y-129501475D01*
X168589633Y-129025951D01*
X168584471Y-128999998D01*
X168517703Y-128900073D01*
X168494604Y-128859650D01*
X168477689Y-128840188D01*
X168422463Y-128757537D01*
X168382849Y-128731068D01*
X168351599Y-128695112D01*
X168262655Y-128650756D01*
X168180002Y-128595529D01*
X168133272Y-128586234D01*
X168090643Y-128564975D01*
X167991494Y-128558033D01*
X167966193Y-128553000D01*
X167919618Y-128553000D01*
X167799750Y-128544607D01*
X167774659Y-128553000D01*
X164410187Y-128553000D01*
X164337999Y-128538641D01*
X164265811Y-128553000D01*
X164265807Y-128553000D01*
X164051998Y-128595529D01*
X164051996Y-128595530D01*
X164051997Y-128595530D01*
X163870738Y-128716643D01*
X163870736Y-128716645D01*
X163809537Y-128757537D01*
X163788000Y-128789769D01*
X163788000Y-128534000D01*
X162884000Y-128534000D01*
X162884000Y-128554000D01*
X162576000Y-128554000D01*
X162576000Y-128534000D01*
X162556000Y-128534000D01*
X162556000Y-128226000D01*
X162576000Y-128226000D01*
X162576000Y-126687184D01*
X162884000Y-126687184D01*
X162884000Y-128226000D01*
X163788000Y-128226000D01*
X163788000Y-127426000D01*
X163648531Y-127032843D01*
X163369224Y-126722986D01*
X163045849Y-126570246D01*
X162884000Y-126687184D01*
X162576000Y-126687184D01*
X162414151Y-126570246D01*
X162090776Y-126722986D01*
X162087378Y-126726756D01*
X161872810Y-126583386D01*
X161460000Y-126501273D01*
X161047189Y-126583386D01*
X160825000Y-126731848D01*
X160602810Y-126583386D01*
X160190000Y-126501273D01*
X159777189Y-126583386D01*
X159555000Y-126731848D01*
X159332810Y-126583386D01*
X158920000Y-126501273D01*
X158507189Y-126583386D01*
X158285000Y-126731848D01*
X158062810Y-126583386D01*
X157650000Y-126501273D01*
X157237189Y-126583386D01*
X157015000Y-126731848D01*
X156792810Y-126583386D01*
X156380000Y-126501273D01*
X155967189Y-126583386D01*
X155745000Y-126731848D01*
X155522810Y-126583386D01*
X155110000Y-126501273D01*
X154697189Y-126583386D01*
X154475000Y-126731848D01*
X154252810Y-126583386D01*
X153840000Y-126501273D01*
X153427189Y-126583386D01*
X153205000Y-126731848D01*
X152982810Y-126583386D01*
X152570000Y-126501273D01*
X152157189Y-126583386D01*
X151935000Y-126731848D01*
X151712810Y-126583386D01*
X151300000Y-126501273D01*
X150887189Y-126583386D01*
X150665000Y-126731848D01*
X150442810Y-126583386D01*
X150030000Y-126501273D01*
X149617189Y-126583386D01*
X149395000Y-126731848D01*
X149172810Y-126583386D01*
X148760000Y-126501273D01*
X148724878Y-126508259D01*
X147996346Y-125779728D01*
X147955452Y-125718526D01*
X147712991Y-125556518D01*
X147499182Y-125513989D01*
X147499177Y-125513989D01*
X147426989Y-125499630D01*
X147354801Y-125513989D01*
X146491038Y-125513989D01*
X146539754Y-125410849D01*
X146422816Y-125249000D01*
X144884000Y-125249000D01*
X144884000Y-125269000D01*
X144576000Y-125269000D01*
X144576000Y-125249000D01*
X144556000Y-125249000D01*
X144556000Y-124941000D01*
X144576000Y-124941000D01*
X144576000Y-124921000D01*
X144884000Y-124921000D01*
X144884000Y-124941000D01*
X146422816Y-124941000D01*
X146539754Y-124779151D01*
X146387014Y-124455776D01*
X146383244Y-124452378D01*
X146526614Y-124237811D01*
X146608727Y-123825000D01*
X146526614Y-123412189D01*
X146378152Y-123190000D01*
X146526614Y-122967811D01*
X146608727Y-122555000D01*
X146526614Y-122142189D01*
X146378152Y-121920000D01*
X146526614Y-121697811D01*
X146608727Y-121285000D01*
X146526614Y-120872189D01*
X146378152Y-120650000D01*
X146526614Y-120427811D01*
X146608727Y-120015000D01*
X146526614Y-119602189D01*
X146382162Y-119386000D01*
X151422000Y-119386000D01*
X151422000Y-122200939D01*
X151514563Y-122424405D01*
X151685596Y-122595438D01*
X151909062Y-122688000D01*
X154724000Y-122688000D01*
X154876000Y-122536000D01*
X154876000Y-119234000D01*
X155184000Y-119234000D01*
X155184000Y-122536000D01*
X155336000Y-122688000D01*
X158150938Y-122688000D01*
X158374404Y-122595438D01*
X158545437Y-122424405D01*
X158638000Y-122200939D01*
X158638000Y-119386000D01*
X158486000Y-119234000D01*
X155184000Y-119234000D01*
X154876000Y-119234000D01*
X151574000Y-119234000D01*
X151422000Y-119386000D01*
X146382162Y-119386000D01*
X146378152Y-119380000D01*
X146526614Y-119157811D01*
X146608727Y-118745000D01*
X146526614Y-118332189D01*
X146378152Y-118110000D01*
X146526614Y-117887811D01*
X146608727Y-117475000D01*
X146526614Y-117062189D01*
X146378152Y-116840000D01*
X146526614Y-116617811D01*
X146608727Y-116205000D01*
X146559807Y-115959061D01*
X151422000Y-115959061D01*
X151422000Y-118774000D01*
X151574000Y-118926000D01*
X154876000Y-118926000D01*
X154876000Y-115624000D01*
X155184000Y-115624000D01*
X155184000Y-118926000D01*
X158486000Y-118926000D01*
X158638000Y-118774000D01*
X158638000Y-115959061D01*
X158545437Y-115735595D01*
X158374404Y-115564562D01*
X158150938Y-115472000D01*
X155336000Y-115472000D01*
X155184000Y-115624000D01*
X154876000Y-115624000D01*
X154724000Y-115472000D01*
X151909062Y-115472000D01*
X151685596Y-115564562D01*
X151514563Y-115735595D01*
X151422000Y-115959061D01*
X146559807Y-115959061D01*
X146526614Y-115792189D01*
X146378152Y-115570000D01*
X146526614Y-115347811D01*
X146608727Y-114935000D01*
X146526614Y-114522189D01*
X146383244Y-114307622D01*
X146387014Y-114304224D01*
X146539754Y-113980849D01*
X146422816Y-113819000D01*
X144884000Y-113819000D01*
X144884000Y-113839000D01*
X144576000Y-113839000D01*
X144576000Y-113819000D01*
X144556000Y-113819000D01*
X144556000Y-113511000D01*
X144576000Y-113511000D01*
X144576000Y-112607000D01*
X144884000Y-112607000D01*
X144884000Y-113511000D01*
X146422816Y-113511000D01*
X146539754Y-113349151D01*
X146387014Y-113025776D01*
X146077157Y-112746469D01*
X145684000Y-112607000D01*
X144884000Y-112607000D01*
X144576000Y-112607000D01*
X144329619Y-112607000D01*
X145271621Y-111664998D01*
X145457226Y-111942775D01*
X145807190Y-112176614D01*
X146220000Y-112258727D01*
X146632811Y-112176614D01*
X146855001Y-112028151D01*
X147077190Y-112176614D01*
X147412000Y-112243212D01*
X147412000Y-112327612D01*
X147550235Y-112661341D01*
X147805659Y-112916765D01*
X148139388Y-113055000D01*
X148500612Y-113055000D01*
X148834341Y-112916765D01*
X149089765Y-112661341D01*
X149228000Y-112327612D01*
X149228000Y-112275863D01*
X149288463Y-112235463D01*
X149417113Y-112042926D01*
X149617190Y-112176614D01*
X150030000Y-112258727D01*
X150442811Y-112176614D01*
X150665001Y-112028151D01*
X150887190Y-112176614D01*
X151300000Y-112258727D01*
X151712811Y-112176614D01*
X151935001Y-112028151D01*
X152157190Y-112176614D01*
X152570000Y-112258727D01*
X152982811Y-112176614D01*
X153205001Y-112028151D01*
X153427190Y-112176614D01*
X153840000Y-112258727D01*
X154252811Y-112176614D01*
X154475001Y-112028151D01*
X154697190Y-112176614D01*
X155110000Y-112258727D01*
X155522811Y-112176614D01*
X155745001Y-112028151D01*
X155967190Y-112176614D01*
X156380000Y-112258727D01*
X156792811Y-112176614D01*
X157015001Y-112028151D01*
X157237190Y-112176614D01*
X157650000Y-112258727D01*
X158062811Y-112176614D01*
X158285001Y-112028151D01*
X158507190Y-112176614D01*
X158920000Y-112258727D01*
X159332811Y-112176614D01*
X159555001Y-112028151D01*
X159777190Y-112176614D01*
X160190000Y-112258727D01*
X160602811Y-112176614D01*
X160825001Y-112028151D01*
X161047190Y-112176614D01*
X161460000Y-112258727D01*
X161872811Y-112176614D01*
X162087378Y-112033244D01*
X162090776Y-112037014D01*
X162414151Y-112189754D01*
X162576000Y-112072816D01*
X162576000Y-110534000D01*
X162884000Y-110534000D01*
X162884000Y-112072816D01*
X163045849Y-112189754D01*
X163369224Y-112037014D01*
X163648531Y-111727157D01*
X163788000Y-111334000D01*
X163788000Y-110534000D01*
X162884000Y-110534000D01*
X162576000Y-110534000D01*
X162556000Y-110534000D01*
X162556000Y-110226000D01*
X162576000Y-110226000D01*
X162576000Y-110206000D01*
X162884000Y-110206000D01*
X162884000Y-110226000D01*
X163788000Y-110226000D01*
X163788000Y-109426000D01*
X163688318Y-109145000D01*
X164462000Y-109145000D01*
X164462000Y-109584938D01*
X164554562Y-109808404D01*
X164725595Y-109979437D01*
X164949061Y-110072000D01*
X165514000Y-110072000D01*
X165666000Y-109920000D01*
X165666000Y-108993000D01*
X164614000Y-108993000D01*
X164462000Y-109145000D01*
X163688318Y-109145000D01*
X163648531Y-109032843D01*
X163369224Y-108722986D01*
X163155418Y-108621999D01*
X164550999Y-108621999D01*
X164614000Y-108685000D01*
X165666000Y-108685000D01*
X165666000Y-108665000D01*
X165974000Y-108665000D01*
X165974000Y-108685000D01*
X165994000Y-108685000D01*
X165994000Y-108993000D01*
X165974000Y-108993000D01*
X165974000Y-109920000D01*
X166126000Y-110072000D01*
X166690939Y-110072000D01*
X166914405Y-109979437D01*
X167075517Y-109818325D01*
X167131657Y-109902343D01*
X167332770Y-110036723D01*
X167570000Y-110083911D01*
X169070000Y-110083911D01*
X169307230Y-110036723D01*
X169508343Y-109902343D01*
X169642723Y-109701230D01*
X169689911Y-109464000D01*
X169689911Y-108214000D01*
X169642723Y-107976770D01*
X169508343Y-107775657D01*
X169459469Y-107743000D01*
X169508343Y-107710343D01*
X169642723Y-107509230D01*
X169689911Y-107272000D01*
X169689911Y-106022000D01*
X169642723Y-105784770D01*
X169508343Y-105583657D01*
X169307230Y-105449277D01*
X169070000Y-105402089D01*
X169018644Y-105402089D01*
X169010471Y-105360998D01*
X168978000Y-105312402D01*
X168978000Y-105216388D01*
X168839765Y-104882659D01*
X168584341Y-104627235D01*
X168250612Y-104489000D01*
X167889388Y-104489000D01*
X167555659Y-104627235D01*
X167300235Y-104882659D01*
X167162000Y-105216388D01*
X167162000Y-105563382D01*
X167131657Y-105583657D01*
X167075517Y-105667675D01*
X166914405Y-105506563D01*
X166690939Y-105414000D01*
X166126000Y-105414000D01*
X165974000Y-105566000D01*
X165974000Y-106493000D01*
X165994000Y-106493000D01*
X165994000Y-106801000D01*
X165974000Y-106801000D01*
X165974000Y-106821000D01*
X165666000Y-106821000D01*
X165666000Y-106801000D01*
X163724000Y-106801000D01*
X163724000Y-106821000D01*
X163416000Y-106821000D01*
X163416000Y-106801000D01*
X163396000Y-106801000D01*
X163396000Y-106493000D01*
X163416000Y-106493000D01*
X163416000Y-105566000D01*
X163724000Y-105566000D01*
X163724000Y-106493000D01*
X165666000Y-106493000D01*
X165666000Y-105566000D01*
X165514000Y-105414000D01*
X164949061Y-105414000D01*
X164725595Y-105506563D01*
X164695000Y-105537158D01*
X164664405Y-105506563D01*
X164440939Y-105414000D01*
X163876000Y-105414000D01*
X163724000Y-105566000D01*
X163416000Y-105566000D01*
X163264000Y-105414000D01*
X162699061Y-105414000D01*
X162475595Y-105506563D01*
X162314483Y-105667675D01*
X162258343Y-105583657D01*
X162057230Y-105449277D01*
X161820000Y-105402089D01*
X160320000Y-105402089D01*
X160082770Y-105449277D01*
X159963707Y-105528832D01*
X159807230Y-105424277D01*
X159570000Y-105377089D01*
X158070000Y-105377089D01*
X157832770Y-105424277D01*
X157631657Y-105558657D01*
X157497277Y-105759770D01*
X157470000Y-105896901D01*
X157442723Y-105759770D01*
X157308343Y-105558657D01*
X157107230Y-105424277D01*
X156870000Y-105377089D01*
X155370000Y-105377089D01*
X155132770Y-105424277D01*
X154931657Y-105558657D01*
X154797277Y-105759770D01*
X154750089Y-105997000D01*
X154750089Y-106213471D01*
X154716357Y-106179739D01*
X154675463Y-106118537D01*
X154433002Y-105956529D01*
X154219193Y-105914000D01*
X154219188Y-105914000D01*
X154147000Y-105899641D01*
X154074812Y-105914000D01*
X153333746Y-105914000D01*
X153121159Y-105595841D01*
X152638883Y-105273595D01*
X152213596Y-105189000D01*
X151926404Y-105189000D01*
X151501117Y-105273595D01*
X151018841Y-105595841D01*
X150800000Y-105923360D01*
X150581159Y-105595841D01*
X150098883Y-105273595D01*
X149673596Y-105189000D01*
X149386404Y-105189000D01*
X148961117Y-105273595D01*
X148478841Y-105595841D01*
X148260000Y-105923360D01*
X148041159Y-105595841D01*
X147558883Y-105273595D01*
X147133596Y-105189000D01*
X146846404Y-105189000D01*
X146421117Y-105273595D01*
X145938841Y-105595841D01*
X145893420Y-105663819D01*
X145872723Y-105559770D01*
X145738343Y-105358657D01*
X145537230Y-105224277D01*
X145300000Y-105177089D01*
X143600000Y-105177089D01*
X143362770Y-105224277D01*
X143161657Y-105358657D01*
X143027277Y-105559770D01*
X142980089Y-105797000D01*
X142980089Y-107497000D01*
X143027277Y-107734230D01*
X143161657Y-107935343D01*
X143362770Y-108069723D01*
X143374167Y-108071990D01*
X141883195Y-108071990D01*
X141811007Y-108057631D01*
X141738819Y-108071990D01*
X141738815Y-108071990D01*
X141525006Y-108114519D01*
X141504027Y-108128537D01*
X141343746Y-108235633D01*
X141343744Y-108235635D01*
X141282545Y-108276527D01*
X141241653Y-108337726D01*
X128416382Y-121162998D01*
X114396190Y-121162998D01*
X114324002Y-121148639D01*
X114251814Y-121162998D01*
X114251809Y-121162998D01*
X114038000Y-121205527D01*
X113795539Y-121367535D01*
X113754645Y-121428737D01*
X111502741Y-123680641D01*
X111502738Y-123680643D01*
X103486381Y-131697000D01*
X96246986Y-131697000D01*
X96090062Y-131632000D01*
X91869938Y-131632000D01*
X91713014Y-131697000D01*
X82003000Y-131697000D01*
X82003000Y-130642904D01*
X83671885Y-130642904D01*
X83804966Y-130924783D01*
X84499045Y-131178593D01*
X85237420Y-131147470D01*
X85775034Y-130924783D01*
X85908115Y-130642904D01*
X84790000Y-129524789D01*
X83671885Y-130642904D01*
X82003000Y-130642904D01*
X82003000Y-129016045D01*
X82918407Y-129016045D01*
X82949530Y-129754420D01*
X83172217Y-130292034D01*
X83454096Y-130425115D01*
X84572211Y-129307000D01*
X85007789Y-129307000D01*
X86125904Y-130425115D01*
X86407783Y-130292034D01*
X86661593Y-129597955D01*
X86633754Y-128937484D01*
X86742320Y-128937484D01*
X86742320Y-129676516D01*
X87025135Y-130359291D01*
X87547709Y-130881865D01*
X88230484Y-131164680D01*
X88969516Y-131164680D01*
X89652291Y-130881865D01*
X90174865Y-130359291D01*
X90457680Y-129676516D01*
X90457680Y-128937484D01*
X90174865Y-128254709D01*
X89652291Y-127732135D01*
X88969516Y-127449320D01*
X88230484Y-127449320D01*
X87547709Y-127732135D01*
X87025135Y-128254709D01*
X86742320Y-128937484D01*
X86633754Y-128937484D01*
X86630470Y-128859580D01*
X86407783Y-128321966D01*
X86125904Y-128188885D01*
X85007789Y-129307000D01*
X84572211Y-129307000D01*
X83454096Y-128188885D01*
X83172217Y-128321966D01*
X82918407Y-129016045D01*
X82003000Y-129016045D01*
X82003000Y-127971096D01*
X83671885Y-127971096D01*
X84790000Y-129089211D01*
X85908115Y-127971096D01*
X85775034Y-127689217D01*
X85080955Y-127435407D01*
X84342580Y-127466530D01*
X83804966Y-127689217D01*
X83671885Y-127971096D01*
X82003000Y-127971096D01*
X82003000Y-120453000D01*
X88462000Y-120453000D01*
X88462000Y-120892938D01*
X88554562Y-121116404D01*
X88725595Y-121287437D01*
X88949061Y-121380000D01*
X89514000Y-121380000D01*
X89666000Y-121228000D01*
X89666000Y-120301000D01*
X88614000Y-120301000D01*
X88462000Y-120453000D01*
X82003000Y-120453000D01*
X82003000Y-119401062D01*
X88462000Y-119401062D01*
X88462000Y-119841000D01*
X88614000Y-119993000D01*
X89666000Y-119993000D01*
X89666000Y-119066000D01*
X89514000Y-118914000D01*
X88949061Y-118914000D01*
X88725595Y-119006563D01*
X88554562Y-119177596D01*
X88462000Y-119401062D01*
X82003000Y-119401062D01*
X82003000Y-118869842D01*
X82055596Y-118922438D01*
X82279062Y-119015000D01*
X82844000Y-119015000D01*
X82996000Y-118863000D01*
X82996000Y-117886000D01*
X83304000Y-117886000D01*
X83304000Y-118863000D01*
X83456000Y-119015000D01*
X84020938Y-119015000D01*
X84244404Y-118922438D01*
X84415437Y-118751405D01*
X84508000Y-118527939D01*
X84508000Y-118038000D01*
X84356000Y-117886000D01*
X83304000Y-117886000D01*
X82996000Y-117886000D01*
X82976000Y-117886000D01*
X82976000Y-117578000D01*
X82996000Y-117578000D01*
X82996000Y-116601000D01*
X83304000Y-116601000D01*
X83304000Y-117578000D01*
X84356000Y-117578000D01*
X84508000Y-117426000D01*
X84508000Y-117213000D01*
X84512000Y-117213000D01*
X84512000Y-117777939D01*
X84604563Y-118001405D01*
X84775596Y-118172438D01*
X84999062Y-118265000D01*
X85514000Y-118265000D01*
X85666000Y-118113000D01*
X85666000Y-117061000D01*
X85974000Y-117061000D01*
X85974000Y-118113000D01*
X86126000Y-118265000D01*
X86640938Y-118265000D01*
X86864404Y-118172438D01*
X87035437Y-118001405D01*
X87128000Y-117777939D01*
X87128000Y-117425000D01*
X89611089Y-117425000D01*
X89611089Y-118025000D01*
X89658277Y-118262230D01*
X89792657Y-118463343D01*
X89993770Y-118597723D01*
X90231000Y-118644911D01*
X91781000Y-118644911D01*
X92018230Y-118597723D01*
X92219343Y-118463343D01*
X92353723Y-118262230D01*
X92400911Y-118025000D01*
X92400911Y-117425000D01*
X92353723Y-117187770D01*
X92295383Y-117100459D01*
X92296438Y-117099404D01*
X92389000Y-116875938D01*
X92389000Y-116757000D01*
X92237000Y-116605000D01*
X91160000Y-116605000D01*
X91160000Y-116629000D01*
X90852000Y-116629000D01*
X90852000Y-116605000D01*
X89775000Y-116605000D01*
X89623000Y-116757000D01*
X89623000Y-116875938D01*
X89715562Y-117099404D01*
X89716617Y-117100459D01*
X89658277Y-117187770D01*
X89611089Y-117425000D01*
X87128000Y-117425000D01*
X87128000Y-117213000D01*
X86976000Y-117061000D01*
X85974000Y-117061000D01*
X85666000Y-117061000D01*
X84664000Y-117061000D01*
X84512000Y-117213000D01*
X84508000Y-117213000D01*
X84508000Y-116936061D01*
X84415437Y-116712595D01*
X84244404Y-116541562D01*
X84020938Y-116449000D01*
X83456000Y-116449000D01*
X83304000Y-116601000D01*
X82996000Y-116601000D01*
X82844000Y-116449000D01*
X82279062Y-116449000D01*
X82055596Y-116541562D01*
X82003000Y-116594158D01*
X82003000Y-116315000D01*
X82124002Y-116315000D01*
X82124002Y-116163002D01*
X82276000Y-116315000D01*
X82590938Y-116315000D01*
X82814404Y-116222438D01*
X82985437Y-116051405D01*
X83078000Y-115827939D01*
X83078000Y-115463000D01*
X82926000Y-115311000D01*
X82124000Y-115311000D01*
X82124000Y-115331000D01*
X82003000Y-115331000D01*
X82003000Y-114983000D01*
X82124000Y-114983000D01*
X82124000Y-115003000D01*
X82926000Y-115003000D01*
X83078000Y-114851000D01*
X83078000Y-114486061D01*
X82985437Y-114262595D01*
X82814404Y-114091562D01*
X82590938Y-113999000D01*
X82276000Y-113999000D01*
X82124002Y-114150998D01*
X82124002Y-113999000D01*
X82003000Y-113999000D01*
X82003000Y-113315000D01*
X82124002Y-113315000D01*
X82124002Y-113163002D01*
X82276000Y-113315000D01*
X82590938Y-113315000D01*
X82814404Y-113222438D01*
X82985437Y-113051405D01*
X83078000Y-112827939D01*
X83078000Y-112463000D01*
X82926000Y-112311000D01*
X82124000Y-112311000D01*
X82124000Y-112331000D01*
X82003000Y-112331000D01*
X82003000Y-112157000D01*
X84500089Y-112157000D01*
X84500089Y-112557000D01*
X84524953Y-112682000D01*
X84500089Y-112807000D01*
X84500089Y-113207000D01*
X84524953Y-113332000D01*
X84500089Y-113457000D01*
X84500089Y-113857000D01*
X84524953Y-113982000D01*
X84500089Y-114107000D01*
X84500089Y-114507000D01*
X84521297Y-114613617D01*
X84512000Y-114636061D01*
X84512000Y-114705000D01*
X84546295Y-114739295D01*
X84547277Y-114744230D01*
X84681657Y-114945343D01*
X84793518Y-115020087D01*
X84756605Y-115057000D01*
X84664000Y-115057000D01*
X84512000Y-115209000D01*
X84512000Y-115277939D01*
X84555160Y-115382136D01*
X84512000Y-115486333D01*
X84512000Y-115827667D01*
X84555160Y-115931864D01*
X84512000Y-116036061D01*
X84512000Y-116601000D01*
X84664000Y-116753000D01*
X85666000Y-116753000D01*
X85666000Y-116733000D01*
X85974000Y-116733000D01*
X85974000Y-116753000D01*
X86976000Y-116753000D01*
X87128000Y-116601000D01*
X87128000Y-116036061D01*
X87035437Y-115812595D01*
X86987842Y-115765000D01*
X87040938Y-115765000D01*
X87264404Y-115672438D01*
X87435437Y-115501405D01*
X87528000Y-115277939D01*
X87528000Y-115209000D01*
X87430002Y-115111002D01*
X87528000Y-115111002D01*
X87528000Y-115051619D01*
X87890645Y-115414264D01*
X87931537Y-115475463D01*
X87992736Y-115516355D01*
X87992738Y-115516357D01*
X88173996Y-115637470D01*
X88173997Y-115637470D01*
X88173998Y-115637471D01*
X88387807Y-115680000D01*
X88387811Y-115680000D01*
X88459999Y-115694359D01*
X88532187Y-115680000D01*
X88854180Y-115680000D01*
X89059388Y-115765000D01*
X89420612Y-115765000D01*
X89648046Y-115670794D01*
X89658277Y-115722230D01*
X89716617Y-115809541D01*
X89715562Y-115810596D01*
X89623000Y-116034062D01*
X89623000Y-116153000D01*
X89775000Y-116305000D01*
X90852000Y-116305000D01*
X90852000Y-116281000D01*
X91160000Y-116281000D01*
X91160000Y-116305000D01*
X92237000Y-116305000D01*
X92389000Y-116153000D01*
X92389000Y-116034062D01*
X92296438Y-115810596D01*
X92295383Y-115809541D01*
X92353723Y-115722230D01*
X92400911Y-115485000D01*
X92400911Y-114885000D01*
X92353723Y-114647770D01*
X92336746Y-114622363D01*
X94572999Y-116858616D01*
X94573000Y-117039874D01*
X94399738Y-117155643D01*
X94399736Y-117155645D01*
X94338537Y-117196537D01*
X94297645Y-117257736D01*
X92653293Y-118902089D01*
X91570000Y-118902089D01*
X91332770Y-118949277D01*
X91131657Y-119083657D01*
X91075517Y-119167675D01*
X90914405Y-119006563D01*
X90690939Y-118914000D01*
X90126000Y-118914000D01*
X89974000Y-119066000D01*
X89974000Y-119993000D01*
X89994000Y-119993000D01*
X89994000Y-120301000D01*
X89974000Y-120301000D01*
X89974000Y-121228000D01*
X90126000Y-121380000D01*
X90690939Y-121380000D01*
X90914405Y-121287437D01*
X91075517Y-121126325D01*
X91131657Y-121210343D01*
X91332770Y-121344723D01*
X91570000Y-121391911D01*
X93070000Y-121391911D01*
X93307230Y-121344723D01*
X93508343Y-121210343D01*
X93642723Y-121009230D01*
X93689911Y-120772000D01*
X93689911Y-120453000D01*
X93962000Y-120453000D01*
X93962000Y-120892938D01*
X94054562Y-121116404D01*
X94225595Y-121287437D01*
X94449061Y-121380000D01*
X95014000Y-121380000D01*
X95166000Y-121228000D01*
X95166000Y-120301000D01*
X94114000Y-120301000D01*
X93962000Y-120453000D01*
X93689911Y-120453000D01*
X93689911Y-119938707D01*
X93962000Y-119666618D01*
X93962000Y-119841000D01*
X94114000Y-119993000D01*
X95166000Y-119993000D01*
X95166000Y-119066000D01*
X95014000Y-118914000D01*
X94714619Y-118914000D01*
X95170619Y-118458000D01*
X95189087Y-118458000D01*
X95192657Y-118463343D01*
X95393770Y-118597723D01*
X95631000Y-118644911D01*
X97087001Y-118644911D01*
X97087001Y-118902089D01*
X97070000Y-118902089D01*
X96832770Y-118949277D01*
X96631657Y-119083657D01*
X96575517Y-119167675D01*
X96414405Y-119006563D01*
X96190939Y-118914000D01*
X95626000Y-118914000D01*
X95474000Y-119066000D01*
X95474000Y-119993000D01*
X95494000Y-119993000D01*
X95494000Y-120301000D01*
X95474000Y-120301000D01*
X95474000Y-121228000D01*
X95626000Y-121380000D01*
X96190939Y-121380000D01*
X96414405Y-121287437D01*
X96575517Y-121126325D01*
X96631657Y-121210343D01*
X96832770Y-121344723D01*
X97070000Y-121391911D01*
X98570000Y-121391911D01*
X98807230Y-121344723D01*
X99008343Y-121210343D01*
X99142723Y-121009230D01*
X99189911Y-120772000D01*
X99189911Y-120453000D01*
X99712000Y-120453000D01*
X99712000Y-120892938D01*
X99804562Y-121116404D01*
X99975595Y-121287437D01*
X100199061Y-121380000D01*
X100764000Y-121380000D01*
X100916000Y-121228000D01*
X100916000Y-120301000D01*
X99864000Y-120301000D01*
X99712000Y-120453000D01*
X99189911Y-120453000D01*
X99189911Y-119522000D01*
X99165855Y-119401062D01*
X99712000Y-119401062D01*
X99712000Y-119841000D01*
X99864000Y-119993000D01*
X100916000Y-119993000D01*
X100916000Y-119066000D01*
X100764000Y-118914000D01*
X100199061Y-118914000D01*
X99975595Y-119006563D01*
X99804562Y-119177596D01*
X99712000Y-119401062D01*
X99165855Y-119401062D01*
X99142723Y-119284770D01*
X99008343Y-119083657D01*
X98807230Y-118949277D01*
X98570000Y-118902089D01*
X98553000Y-118902089D01*
X98553000Y-115826061D01*
X102912000Y-115826061D01*
X102912000Y-116641000D01*
X103064000Y-116793000D01*
X104116000Y-116793000D01*
X104116000Y-115491000D01*
X103964000Y-115339000D01*
X103399062Y-115339000D01*
X103175596Y-115431562D01*
X103004563Y-115602595D01*
X102912000Y-115826061D01*
X98553000Y-115826061D01*
X98553000Y-114376187D01*
X98567359Y-114303999D01*
X98553000Y-114231811D01*
X98553000Y-114231807D01*
X98510471Y-114017998D01*
X98348463Y-113775537D01*
X98287261Y-113734643D01*
X98000357Y-113447739D01*
X97959463Y-113386537D01*
X97717002Y-113224529D01*
X97641264Y-113209464D01*
X97619343Y-113176657D01*
X97418230Y-113042277D01*
X97181000Y-112995089D01*
X95631000Y-112995089D01*
X95393770Y-113042277D01*
X95192657Y-113176657D01*
X95058277Y-113377770D01*
X95011089Y-113615000D01*
X95011089Y-114215000D01*
X95058277Y-114452230D01*
X95123605Y-114550000D01*
X95058277Y-114647770D01*
X95011089Y-114885000D01*
X95011089Y-115223468D01*
X91959287Y-112171667D01*
X92148343Y-112045343D01*
X92282723Y-111844230D01*
X92329911Y-111607000D01*
X92329911Y-111089078D01*
X92489061Y-111155000D01*
X93404000Y-111155000D01*
X93556000Y-111003000D01*
X93556000Y-109601000D01*
X93536000Y-109601000D01*
X93536000Y-109293000D01*
X93556000Y-109293000D01*
X93556000Y-107891000D01*
X93864000Y-107891000D01*
X93864000Y-109293000D01*
X93884000Y-109293000D01*
X93884000Y-109601000D01*
X93864000Y-109601000D01*
X93864000Y-111003000D01*
X94016000Y-111155000D01*
X94930939Y-111155000D01*
X95040089Y-111109788D01*
X95040089Y-111607000D01*
X95087277Y-111844230D01*
X95221657Y-112045343D01*
X95422770Y-112179723D01*
X95660000Y-112226911D01*
X97160000Y-112226911D01*
X97397230Y-112179723D01*
X97598343Y-112045343D01*
X97732723Y-111844230D01*
X97779911Y-111607000D01*
X97779911Y-111423707D01*
X99137261Y-110066357D01*
X99154259Y-110054999D01*
X104050089Y-110054999D01*
X104050089Y-111647000D01*
X104097277Y-111884230D01*
X104231657Y-112085343D01*
X104432770Y-112219723D01*
X104670000Y-112266911D01*
X105837001Y-112266911D01*
X105837000Y-115327089D01*
X105820000Y-115327089D01*
X105582770Y-115374277D01*
X105417530Y-115484688D01*
X105364404Y-115431562D01*
X105140938Y-115339000D01*
X104576000Y-115339000D01*
X104424000Y-115491000D01*
X104424000Y-116793000D01*
X104444000Y-116793000D01*
X104444000Y-117101000D01*
X104424000Y-117101000D01*
X104424000Y-117121000D01*
X104116000Y-117121000D01*
X104116000Y-117101000D01*
X103064000Y-117101000D01*
X102912000Y-117253000D01*
X102912000Y-118067939D01*
X103004563Y-118291405D01*
X103175596Y-118462438D01*
X103399062Y-118555000D01*
X103964000Y-118555000D01*
X104115998Y-118403002D01*
X104115998Y-118555000D01*
X104250382Y-118555000D01*
X103903293Y-118902089D01*
X102820000Y-118902089D01*
X102582770Y-118949277D01*
X102381657Y-119083657D01*
X102325517Y-119167675D01*
X102164405Y-119006563D01*
X101940939Y-118914000D01*
X101376000Y-118914000D01*
X101224000Y-119066000D01*
X101224000Y-119993000D01*
X101244000Y-119993000D01*
X101244000Y-120301000D01*
X101224000Y-120301000D01*
X101224000Y-121228000D01*
X101376000Y-121380000D01*
X101940939Y-121380000D01*
X102164405Y-121287437D01*
X102325517Y-121126325D01*
X102381657Y-121210343D01*
X102582770Y-121344723D01*
X102820000Y-121391911D01*
X104320000Y-121391911D01*
X104557230Y-121344723D01*
X104758343Y-121210343D01*
X104820000Y-121118067D01*
X104881657Y-121210343D01*
X105082770Y-121344723D01*
X105320000Y-121391911D01*
X106820000Y-121391911D01*
X107057230Y-121344723D01*
X107258343Y-121210343D01*
X107314483Y-121126325D01*
X107475595Y-121287437D01*
X107699061Y-121380000D01*
X108264000Y-121380000D01*
X108416000Y-121228000D01*
X108416000Y-120301000D01*
X108724000Y-120301000D01*
X108724000Y-121228000D01*
X108876000Y-121380000D01*
X109440939Y-121380000D01*
X109664405Y-121287437D01*
X109835438Y-121116404D01*
X109928000Y-120892938D01*
X109928000Y-120453000D01*
X109776000Y-120301000D01*
X108724000Y-120301000D01*
X108416000Y-120301000D01*
X108396000Y-120301000D01*
X108396000Y-119993000D01*
X108416000Y-119993000D01*
X108416000Y-119066000D01*
X108724000Y-119066000D01*
X108724000Y-119993000D01*
X109776000Y-119993000D01*
X109928000Y-119841000D01*
X109928000Y-119401062D01*
X109835438Y-119177596D01*
X109664405Y-119006563D01*
X109440939Y-118914000D01*
X108876000Y-118914000D01*
X108724000Y-119066000D01*
X108416000Y-119066000D01*
X108364309Y-119014309D01*
X108811708Y-118566911D01*
X109620000Y-118566911D01*
X109857230Y-118519723D01*
X110058343Y-118385343D01*
X110192723Y-118184230D01*
X110239911Y-117947000D01*
X110239911Y-117680000D01*
X110897812Y-117680000D01*
X110970000Y-117694359D01*
X111042188Y-117680000D01*
X111042193Y-117680000D01*
X111256002Y-117637471D01*
X111498463Y-117475463D01*
X111539357Y-117414261D01*
X113039607Y-115914012D01*
X113500693Y-116105000D01*
X114339307Y-116105000D01*
X115114086Y-115784076D01*
X115707076Y-115191086D01*
X116028000Y-114416307D01*
X116028000Y-114303000D01*
X122012000Y-114303000D01*
X122012000Y-118117938D01*
X122104562Y-118341404D01*
X122275595Y-118512437D01*
X122499061Y-118605000D01*
X126314000Y-118605000D01*
X126466000Y-118453000D01*
X126466000Y-114151000D01*
X126774000Y-114151000D01*
X126774000Y-118453000D01*
X126926000Y-118605000D01*
X130740939Y-118605000D01*
X130964405Y-118512437D01*
X131135438Y-118341404D01*
X131228000Y-118117938D01*
X131228000Y-114303000D01*
X131076000Y-114151000D01*
X126774000Y-114151000D01*
X126466000Y-114151000D01*
X122164000Y-114151000D01*
X122012000Y-114303000D01*
X116028000Y-114303000D01*
X116028000Y-113577693D01*
X115707076Y-112802914D01*
X115114086Y-112209924D01*
X114339307Y-111889000D01*
X113500693Y-111889000D01*
X112725914Y-112209924D01*
X112132924Y-112802914D01*
X111812000Y-113577693D01*
X111812000Y-114416307D01*
X112002988Y-114877393D01*
X110666382Y-116214000D01*
X110239911Y-116214000D01*
X110239911Y-115947000D01*
X110192723Y-115709770D01*
X110058343Y-115508657D01*
X109857230Y-115374277D01*
X109620000Y-115327089D01*
X109603000Y-115327089D01*
X109603000Y-109876062D01*
X122012000Y-109876062D01*
X122012000Y-113691000D01*
X122164000Y-113843000D01*
X126466000Y-113843000D01*
X126466000Y-109541000D01*
X126774000Y-109541000D01*
X126774000Y-113843000D01*
X131076000Y-113843000D01*
X131228000Y-113691000D01*
X131228000Y-109876062D01*
X131135438Y-109652596D01*
X130964405Y-109481563D01*
X130740939Y-109389000D01*
X126926000Y-109389000D01*
X126774000Y-109541000D01*
X126466000Y-109541000D01*
X126314000Y-109389000D01*
X122499061Y-109389000D01*
X122275595Y-109481563D01*
X122104562Y-109652596D01*
X122012000Y-109876062D01*
X109603000Y-109876062D01*
X109603000Y-109534185D01*
X109617359Y-109461997D01*
X109603000Y-109389809D01*
X109603000Y-109389805D01*
X109588203Y-109315415D01*
X110986708Y-107916911D01*
X112070000Y-107916911D01*
X112307230Y-107869723D01*
X112508343Y-107735343D01*
X112642723Y-107534230D01*
X112689911Y-107297000D01*
X112689911Y-105997000D01*
X112642723Y-105759770D01*
X112508343Y-105558657D01*
X112307230Y-105424277D01*
X112070000Y-105377089D01*
X110570000Y-105377089D01*
X110332770Y-105424277D01*
X110131657Y-105558657D01*
X109997277Y-105759770D01*
X109970000Y-105896901D01*
X109942723Y-105759770D01*
X109808343Y-105558657D01*
X109607230Y-105424277D01*
X109370000Y-105377089D01*
X107870000Y-105377089D01*
X107632770Y-105424277D01*
X107431657Y-105558657D01*
X107297277Y-105759770D01*
X107250089Y-105997000D01*
X107250089Y-107297000D01*
X107297277Y-107534230D01*
X107431657Y-107735343D01*
X107632770Y-107869723D01*
X107870000Y-107916911D01*
X108913471Y-107916911D01*
X108262740Y-108567642D01*
X108230777Y-108588999D01*
X99403000Y-108588999D01*
X99403000Y-106241911D01*
X99420000Y-106241911D01*
X99657230Y-106194723D01*
X99858343Y-106060343D01*
X99914483Y-105976325D01*
X100075595Y-106137437D01*
X100299061Y-106230000D01*
X100864000Y-106230000D01*
X101016000Y-106078000D01*
X101016000Y-105151000D01*
X101324000Y-105151000D01*
X101324000Y-106078000D01*
X101476000Y-106230000D01*
X102040939Y-106230000D01*
X102264405Y-106137437D01*
X102435438Y-105966404D01*
X102528000Y-105742938D01*
X102528000Y-105303000D01*
X102376000Y-105151000D01*
X101324000Y-105151000D01*
X101016000Y-105151000D01*
X100996000Y-105151000D01*
X100996000Y-104843000D01*
X101016000Y-104843000D01*
X101016000Y-103916000D01*
X101324000Y-103916000D01*
X101324000Y-104843000D01*
X102376000Y-104843000D01*
X102528000Y-104691000D01*
X102528000Y-104251062D01*
X102435438Y-104027596D01*
X102264405Y-103856563D01*
X102040939Y-103764000D01*
X101476000Y-103764000D01*
X101324000Y-103916000D01*
X101016000Y-103916000D01*
X100864000Y-103764000D01*
X100299061Y-103764000D01*
X100075595Y-103856563D01*
X99914483Y-104017675D01*
X99858343Y-103933657D01*
X99657230Y-103799277D01*
X99420000Y-103752089D01*
X97920000Y-103752089D01*
X97682770Y-103799277D01*
X97481657Y-103933657D01*
X97347277Y-104134770D01*
X97300089Y-104372000D01*
X97300089Y-105622000D01*
X97347277Y-105859230D01*
X97481657Y-106060343D01*
X97682770Y-106194723D01*
X97920000Y-106241911D01*
X97937000Y-106241911D01*
X97937001Y-109193381D01*
X97691823Y-109438559D01*
X97667395Y-109402000D01*
X97732723Y-109304230D01*
X97779911Y-109067000D01*
X97779911Y-108467000D01*
X97732723Y-108229770D01*
X97667395Y-108132000D01*
X97732723Y-108034230D01*
X97779911Y-107797000D01*
X97779911Y-107197000D01*
X97732723Y-106959770D01*
X97598343Y-106758657D01*
X97397230Y-106624277D01*
X97160000Y-106577089D01*
X95660000Y-106577089D01*
X95422770Y-106624277D01*
X95221657Y-106758657D01*
X95087277Y-106959770D01*
X95040089Y-107197000D01*
X95040089Y-107784212D01*
X94930939Y-107739000D01*
X94016000Y-107739000D01*
X93864000Y-107891000D01*
X93556000Y-107891000D01*
X93439309Y-107774309D01*
X93587264Y-107626355D01*
X93648463Y-107585463D01*
X93689355Y-107524264D01*
X93689357Y-107524262D01*
X93772077Y-107400463D01*
X93810471Y-107343002D01*
X93853000Y-107129193D01*
X93853000Y-107129189D01*
X93867359Y-107057001D01*
X93853000Y-106984813D01*
X93853000Y-106266911D01*
X93870000Y-106266911D01*
X94107230Y-106219723D01*
X94308343Y-106085343D01*
X94442723Y-105884230D01*
X94464604Y-105774225D01*
X94554562Y-105991404D01*
X94725595Y-106162437D01*
X94949061Y-106255000D01*
X95514000Y-106255000D01*
X95666000Y-106103000D01*
X95666000Y-105151000D01*
X95974000Y-105151000D01*
X95974000Y-106103000D01*
X96126000Y-106255000D01*
X96690939Y-106255000D01*
X96914405Y-106162437D01*
X97085438Y-105991404D01*
X97178000Y-105767938D01*
X97178000Y-105303000D01*
X97026000Y-105151000D01*
X95974000Y-105151000D01*
X95666000Y-105151000D01*
X95646000Y-105151000D01*
X95646000Y-104843000D01*
X95666000Y-104843000D01*
X95666000Y-103891000D01*
X95974000Y-103891000D01*
X95974000Y-104843000D01*
X97026000Y-104843000D01*
X97178000Y-104691000D01*
X97178000Y-104226062D01*
X97085438Y-104002596D01*
X96914405Y-103831563D01*
X96690939Y-103739000D01*
X96126000Y-103739000D01*
X95974000Y-103891000D01*
X95666000Y-103891000D01*
X95514000Y-103739000D01*
X94949061Y-103739000D01*
X94725595Y-103831563D01*
X94554562Y-104002596D01*
X94464604Y-104219775D01*
X94442723Y-104109770D01*
X94308343Y-103908657D01*
X94107230Y-103774277D01*
X93870000Y-103727089D01*
X92370000Y-103727089D01*
X92132770Y-103774277D01*
X91931657Y-103908657D01*
X91797277Y-104109770D01*
X91767514Y-104259401D01*
X91742723Y-104134770D01*
X91608343Y-103933657D01*
X91407230Y-103799277D01*
X91170000Y-103752089D01*
X89670000Y-103752089D01*
X89432770Y-103799277D01*
X89231657Y-103933657D01*
X89175517Y-104017675D01*
X89014405Y-103856563D01*
X88790939Y-103764000D01*
X88226000Y-103764000D01*
X88074000Y-103916000D01*
X88074000Y-104843000D01*
X88094000Y-104843000D01*
X88094000Y-105151000D01*
X88074000Y-105151000D01*
X88074000Y-106078000D01*
X88226000Y-106230000D01*
X88790939Y-106230000D01*
X89014405Y-106137437D01*
X89175517Y-105976325D01*
X89216990Y-106038392D01*
X88952737Y-106302645D01*
X88891538Y-106343537D01*
X88850646Y-106404736D01*
X88850643Y-106404739D01*
X88729530Y-106585998D01*
X88672641Y-106872000D01*
X88687001Y-106944193D01*
X88687000Y-110144812D01*
X88672641Y-110217000D01*
X88687000Y-110289188D01*
X88687000Y-110289192D01*
X88729529Y-110503001D01*
X88805386Y-110616529D01*
X88838444Y-110666003D01*
X88891537Y-110745463D01*
X88952739Y-110786357D01*
X89590089Y-111423707D01*
X89590089Y-111607000D01*
X89593471Y-111624000D01*
X87216679Y-111624000D01*
X87157230Y-111584277D01*
X86986521Y-111550321D01*
X87035437Y-111501405D01*
X87128000Y-111277939D01*
X87128000Y-110713000D01*
X86976000Y-110561000D01*
X85974000Y-110561000D01*
X85974000Y-110581000D01*
X85666000Y-110581000D01*
X85666000Y-110561000D01*
X84664000Y-110561000D01*
X84512000Y-110713000D01*
X84512000Y-111277939D01*
X84555160Y-111382136D01*
X84512000Y-111486333D01*
X84512000Y-111827667D01*
X84549051Y-111917115D01*
X84547277Y-111919770D01*
X84500089Y-112157000D01*
X82003000Y-112157000D01*
X82003000Y-111983000D01*
X82124000Y-111983000D01*
X82124000Y-112003000D01*
X82926000Y-112003000D01*
X83078000Y-111851000D01*
X83078000Y-111486061D01*
X82985437Y-111262595D01*
X82814404Y-111091562D01*
X82590938Y-110999000D01*
X82276000Y-110999000D01*
X82124002Y-111150998D01*
X82124002Y-110999000D01*
X82003000Y-110999000D01*
X82003000Y-110719842D01*
X82055596Y-110772438D01*
X82279062Y-110865000D01*
X82844000Y-110865000D01*
X82996000Y-110713000D01*
X82996000Y-109736000D01*
X83304000Y-109736000D01*
X83304000Y-110713000D01*
X83456000Y-110865000D01*
X84020938Y-110865000D01*
X84244404Y-110772438D01*
X84415437Y-110601405D01*
X84508000Y-110377939D01*
X84508000Y-109888000D01*
X84356000Y-109736000D01*
X83304000Y-109736000D01*
X82996000Y-109736000D01*
X82976000Y-109736000D01*
X82976000Y-109536061D01*
X84512000Y-109536061D01*
X84512000Y-110101000D01*
X84664000Y-110253000D01*
X85666000Y-110253000D01*
X85666000Y-109201000D01*
X85974000Y-109201000D01*
X85974000Y-110253000D01*
X86976000Y-110253000D01*
X87128000Y-110101000D01*
X87128000Y-109536061D01*
X87035437Y-109312595D01*
X86864404Y-109141562D01*
X86640938Y-109049000D01*
X86126000Y-109049000D01*
X85974000Y-109201000D01*
X85666000Y-109201000D01*
X85514000Y-109049000D01*
X84999062Y-109049000D01*
X84775596Y-109141562D01*
X84604563Y-109312595D01*
X84512000Y-109536061D01*
X82976000Y-109536061D01*
X82976000Y-109428000D01*
X82996000Y-109428000D01*
X82996000Y-108451000D01*
X83304000Y-108451000D01*
X83304000Y-109428000D01*
X84356000Y-109428000D01*
X84508000Y-109276000D01*
X84508000Y-108786061D01*
X84415437Y-108562595D01*
X84244404Y-108391562D01*
X84020938Y-108299000D01*
X83456000Y-108299000D01*
X83304000Y-108451000D01*
X82996000Y-108451000D01*
X82844000Y-108299000D01*
X82279062Y-108299000D01*
X82055596Y-108391562D01*
X82003000Y-108444158D01*
X82003000Y-105303000D01*
X86562000Y-105303000D01*
X86562000Y-105742938D01*
X86654562Y-105966404D01*
X86825595Y-106137437D01*
X87049061Y-106230000D01*
X87614000Y-106230000D01*
X87766000Y-106078000D01*
X87766000Y-105151000D01*
X86714000Y-105151000D01*
X86562000Y-105303000D01*
X82003000Y-105303000D01*
X82003000Y-104251062D01*
X86562000Y-104251062D01*
X86562000Y-104691000D01*
X86714000Y-104843000D01*
X87766000Y-104843000D01*
X87766000Y-103916000D01*
X87614000Y-103764000D01*
X87049061Y-103764000D01*
X86825595Y-103856563D01*
X86654562Y-104027596D01*
X86562000Y-104251062D01*
X82003000Y-104251062D01*
X82003000Y-89480000D01*
X170837000Y-89480000D01*
X170837000Y-93153044D01*
G36*
X86174000Y-115131000D02*
X86057395Y-115131000D01*
X86053306Y-115126911D01*
X86174000Y-115126911D01*
X86174000Y-115131000D01*
X86174000Y-115131000D01*
G37*
X86174000Y-115131000D02*
X86057395Y-115131000D01*
X86053306Y-115126911D01*
X86174000Y-115126911D01*
X86174000Y-115131000D01*
G36*
X91114000Y-109887000D02*
X91134000Y-109887000D01*
X91134000Y-110187000D01*
X91114000Y-110187000D01*
X91114000Y-110211000D01*
X90806000Y-110211000D01*
X90806000Y-110187000D01*
X90786000Y-110187000D01*
X90786000Y-109887000D01*
X90806000Y-109887000D01*
X90806000Y-109863000D01*
X91114000Y-109863000D01*
X91114000Y-109887000D01*
X91114000Y-109887000D01*
G37*
X91114000Y-109887000D02*
X91134000Y-109887000D01*
X91134000Y-110187000D01*
X91114000Y-110187000D01*
X91114000Y-110211000D01*
X90806000Y-110211000D01*
X90806000Y-110187000D01*
X90786000Y-110187000D01*
X90786000Y-109887000D01*
X90806000Y-109887000D01*
X90806000Y-109863000D01*
X91114000Y-109863000D01*
X91114000Y-109887000D01*
G04 #@! TD*
M02*
