G04 #@! TF.GenerationSoftware,KiCad,Pcbnew,5.0.1*
G04 #@! TF.CreationDate,2019-01-19T07:31:33-06:00*
G04 #@! TF.ProjectId,badge,62616467652E6B696361645F70636200,rev?*
G04 #@! TF.SameCoordinates,Original*
G04 #@! TF.FileFunction,Profile,NP*
%FSLAX46Y46*%
G04 Gerber Fmt 4.6, Leading zero omitted, Abs format (unit mm)*
G04 Created by KiCad (PCBNEW 5.0.1) date Sat 19 Jan 2019 07:31:33 AM CST*
%MOMM*%
%LPD*%
G01*
G04 APERTURE LIST*
%ADD10C,0.150000*%
G04 #@! TA.AperFunction,NonConductor*
%ADD11C,0.100000*%
G04 #@! TD*
G04 APERTURE END LIST*
D10*
X171520000Y-88797000D02*
X171520000Y-142197000D01*
X170320000Y-142197000D02*
X171520000Y-142197000D01*
X171520000Y-142197000D02*
X81320000Y-142197000D01*
X81320000Y-88797000D02*
X171520000Y-88797000D01*
X81320000Y-142197000D02*
X81320000Y-88797000D01*
D11*
G04 #@! TO.C,0101*
X90070000Y-92928576D02*
X85070000Y-92928576D01*
X90070000Y-97928576D02*
X90070000Y-92928576D01*
X85070000Y-97928576D02*
X90070000Y-97928576D01*
X85070000Y-92928576D02*
X85070000Y-97928576D01*
G04 #@! TO.C,0001*
X107365000Y-92925576D02*
X102365000Y-92925576D01*
X107365000Y-97925576D02*
X107365000Y-92925576D01*
X102365000Y-97925576D02*
X107365000Y-97925576D01*
X102365000Y-92925576D02*
X102365000Y-97925576D01*
G04 #@! TO.C,0100*
X160705000Y-92925576D02*
X155705000Y-92925576D01*
X160705000Y-97925576D02*
X160705000Y-92925576D01*
X155705000Y-97925576D02*
X160705000Y-97925576D01*
X155705000Y-92925576D02*
X155705000Y-97925576D01*
G04 #@! TO.C,1000*
X169295000Y-92953576D02*
X164295000Y-92953576D01*
X169295000Y-97953576D02*
X169295000Y-92953576D01*
X164295000Y-97953576D02*
X169295000Y-97953576D01*
X164295000Y-92953576D02*
X164295000Y-97953576D01*
G04 #@! TO.C,1100*
X151815000Y-92925576D02*
X146815000Y-92925576D01*
X151815000Y-97925576D02*
X151815000Y-92925576D01*
X146815000Y-97925576D02*
X151815000Y-97925576D01*
X146815000Y-92925576D02*
X146815000Y-97925576D01*
G04 #@! TO.C,0010*
X142925000Y-92925576D02*
X137925000Y-92925576D01*
X142925000Y-97925576D02*
X142925000Y-92925576D01*
X137925000Y-97925576D02*
X142925000Y-97925576D01*
X137925000Y-92925576D02*
X137925000Y-97925576D01*
G04 #@! TO.C,1010*
X134035000Y-92925576D02*
X129035000Y-92925576D01*
X134035000Y-97925576D02*
X134035000Y-92925576D01*
X129035000Y-97925576D02*
X134035000Y-97925576D01*
X129035000Y-92925576D02*
X129035000Y-97925576D01*
G04 #@! TO.C,0110*
X125145000Y-92925576D02*
X120145000Y-92925576D01*
X125145000Y-97925576D02*
X125145000Y-92925576D01*
X120145000Y-97925576D02*
X125145000Y-97925576D01*
X120145000Y-92925576D02*
X120145000Y-97925576D01*
G04 #@! TO.C,1110*
X116255000Y-92925576D02*
X111255000Y-92925576D01*
X116255000Y-97925576D02*
X116255000Y-92925576D01*
X111255000Y-97925576D02*
X116255000Y-97925576D01*
X111255000Y-92925576D02*
X111255000Y-97925576D01*
G04 #@! TO.C,1001*
X98475000Y-92925576D02*
X93475000Y-92925576D01*
X98475000Y-97925576D02*
X98475000Y-92925576D01*
X93475000Y-97925576D02*
X98475000Y-97925576D01*
X93475000Y-92925576D02*
X93475000Y-97925576D01*
G04 #@! TD*
G04 #@! TO.C,0101*
D10*
X84260476Y-98880956D02*
X84498571Y-99880956D01*
X84689047Y-99166671D01*
X84879523Y-99880956D01*
X85117619Y-98880956D01*
X85450952Y-99833337D02*
X85593809Y-99880956D01*
X85831904Y-99880956D01*
X85927142Y-99833337D01*
X85974761Y-99785718D01*
X86022380Y-99690480D01*
X86022380Y-99595242D01*
X85974761Y-99500004D01*
X85927142Y-99452385D01*
X85831904Y-99404766D01*
X85641428Y-99357147D01*
X85546190Y-99309528D01*
X85498571Y-99261909D01*
X85450952Y-99166671D01*
X85450952Y-99071433D01*
X85498571Y-98976195D01*
X85546190Y-98928576D01*
X85641428Y-98880956D01*
X85879523Y-98880956D01*
X86022380Y-98928576D01*
X86403333Y-98976195D02*
X86450952Y-98928576D01*
X86546190Y-98880956D01*
X86784285Y-98880956D01*
X86879523Y-98928576D01*
X86927142Y-98976195D01*
X86974761Y-99071433D01*
X86974761Y-99166671D01*
X86927142Y-99309528D01*
X86355714Y-99880956D01*
X86974761Y-99880956D01*
X87546190Y-99309528D02*
X87450952Y-99261909D01*
X87403333Y-99214290D01*
X87355714Y-99119052D01*
X87355714Y-99071433D01*
X87403333Y-98976195D01*
X87450952Y-98928576D01*
X87546190Y-98880956D01*
X87736666Y-98880956D01*
X87831904Y-98928576D01*
X87879523Y-98976195D01*
X87927142Y-99071433D01*
X87927142Y-99119052D01*
X87879523Y-99214290D01*
X87831904Y-99261909D01*
X87736666Y-99309528D01*
X87546190Y-99309528D01*
X87450952Y-99357147D01*
X87403333Y-99404766D01*
X87355714Y-99500004D01*
X87355714Y-99690480D01*
X87403333Y-99785718D01*
X87450952Y-99833337D01*
X87546190Y-99880956D01*
X87736666Y-99880956D01*
X87831904Y-99833337D01*
X87879523Y-99785718D01*
X87927142Y-99690480D01*
X87927142Y-99500004D01*
X87879523Y-99404766D01*
X87831904Y-99357147D01*
X87736666Y-99309528D01*
X88879523Y-99880956D02*
X88308095Y-99880956D01*
X88593809Y-99880956D02*
X88593809Y-98880956D01*
X88498571Y-99023814D01*
X88403333Y-99119052D01*
X88308095Y-99166671D01*
X89260476Y-98976195D02*
X89308095Y-98928576D01*
X89403333Y-98880956D01*
X89641428Y-98880956D01*
X89736666Y-98928576D01*
X89784285Y-98976195D01*
X89831904Y-99071433D01*
X89831904Y-99166671D01*
X89784285Y-99309528D01*
X89212857Y-99880956D01*
X89831904Y-99880956D01*
X90593809Y-99357147D02*
X90736666Y-99404766D01*
X90784285Y-99452385D01*
X90831904Y-99547623D01*
X90831904Y-99690480D01*
X90784285Y-99785718D01*
X90736666Y-99833337D01*
X90641428Y-99880956D01*
X90260476Y-99880956D01*
X90260476Y-98880956D01*
X90593809Y-98880956D01*
X90689047Y-98928576D01*
X90736666Y-98976195D01*
X90784285Y-99071433D01*
X90784285Y-99166671D01*
X90736666Y-99261909D01*
X90689047Y-99309528D01*
X90593809Y-99357147D01*
X90260476Y-99357147D01*
G04 #@! TO.C,0001*
X101555476Y-98877956D02*
X101793571Y-99877956D01*
X101984047Y-99163671D01*
X102174523Y-99877956D01*
X102412619Y-98877956D01*
X102745952Y-99830337D02*
X102888809Y-99877956D01*
X103126904Y-99877956D01*
X103222142Y-99830337D01*
X103269761Y-99782718D01*
X103317380Y-99687480D01*
X103317380Y-99592242D01*
X103269761Y-99497004D01*
X103222142Y-99449385D01*
X103126904Y-99401766D01*
X102936428Y-99354147D01*
X102841190Y-99306528D01*
X102793571Y-99258909D01*
X102745952Y-99163671D01*
X102745952Y-99068433D01*
X102793571Y-98973195D01*
X102841190Y-98925576D01*
X102936428Y-98877956D01*
X103174523Y-98877956D01*
X103317380Y-98925576D01*
X103698333Y-98973195D02*
X103745952Y-98925576D01*
X103841190Y-98877956D01*
X104079285Y-98877956D01*
X104174523Y-98925576D01*
X104222142Y-98973195D01*
X104269761Y-99068433D01*
X104269761Y-99163671D01*
X104222142Y-99306528D01*
X103650714Y-99877956D01*
X104269761Y-99877956D01*
X104841190Y-99306528D02*
X104745952Y-99258909D01*
X104698333Y-99211290D01*
X104650714Y-99116052D01*
X104650714Y-99068433D01*
X104698333Y-98973195D01*
X104745952Y-98925576D01*
X104841190Y-98877956D01*
X105031666Y-98877956D01*
X105126904Y-98925576D01*
X105174523Y-98973195D01*
X105222142Y-99068433D01*
X105222142Y-99116052D01*
X105174523Y-99211290D01*
X105126904Y-99258909D01*
X105031666Y-99306528D01*
X104841190Y-99306528D01*
X104745952Y-99354147D01*
X104698333Y-99401766D01*
X104650714Y-99497004D01*
X104650714Y-99687480D01*
X104698333Y-99782718D01*
X104745952Y-99830337D01*
X104841190Y-99877956D01*
X105031666Y-99877956D01*
X105126904Y-99830337D01*
X105174523Y-99782718D01*
X105222142Y-99687480D01*
X105222142Y-99497004D01*
X105174523Y-99401766D01*
X105126904Y-99354147D01*
X105031666Y-99306528D01*
X106174523Y-99877956D02*
X105603095Y-99877956D01*
X105888809Y-99877956D02*
X105888809Y-98877956D01*
X105793571Y-99020814D01*
X105698333Y-99116052D01*
X105603095Y-99163671D01*
X106555476Y-98973195D02*
X106603095Y-98925576D01*
X106698333Y-98877956D01*
X106936428Y-98877956D01*
X107031666Y-98925576D01*
X107079285Y-98973195D01*
X107126904Y-99068433D01*
X107126904Y-99163671D01*
X107079285Y-99306528D01*
X106507857Y-99877956D01*
X107126904Y-99877956D01*
X107888809Y-99354147D02*
X108031666Y-99401766D01*
X108079285Y-99449385D01*
X108126904Y-99544623D01*
X108126904Y-99687480D01*
X108079285Y-99782718D01*
X108031666Y-99830337D01*
X107936428Y-99877956D01*
X107555476Y-99877956D01*
X107555476Y-98877956D01*
X107888809Y-98877956D01*
X107984047Y-98925576D01*
X108031666Y-98973195D01*
X108079285Y-99068433D01*
X108079285Y-99163671D01*
X108031666Y-99258909D01*
X107984047Y-99306528D01*
X107888809Y-99354147D01*
X107555476Y-99354147D01*
G04 #@! TO.C,0100*
X154895476Y-98877956D02*
X155133571Y-99877956D01*
X155324047Y-99163671D01*
X155514523Y-99877956D01*
X155752619Y-98877956D01*
X156085952Y-99830337D02*
X156228809Y-99877956D01*
X156466904Y-99877956D01*
X156562142Y-99830337D01*
X156609761Y-99782718D01*
X156657380Y-99687480D01*
X156657380Y-99592242D01*
X156609761Y-99497004D01*
X156562142Y-99449385D01*
X156466904Y-99401766D01*
X156276428Y-99354147D01*
X156181190Y-99306528D01*
X156133571Y-99258909D01*
X156085952Y-99163671D01*
X156085952Y-99068433D01*
X156133571Y-98973195D01*
X156181190Y-98925576D01*
X156276428Y-98877956D01*
X156514523Y-98877956D01*
X156657380Y-98925576D01*
X157038333Y-98973195D02*
X157085952Y-98925576D01*
X157181190Y-98877956D01*
X157419285Y-98877956D01*
X157514523Y-98925576D01*
X157562142Y-98973195D01*
X157609761Y-99068433D01*
X157609761Y-99163671D01*
X157562142Y-99306528D01*
X156990714Y-99877956D01*
X157609761Y-99877956D01*
X158181190Y-99306528D02*
X158085952Y-99258909D01*
X158038333Y-99211290D01*
X157990714Y-99116052D01*
X157990714Y-99068433D01*
X158038333Y-98973195D01*
X158085952Y-98925576D01*
X158181190Y-98877956D01*
X158371666Y-98877956D01*
X158466904Y-98925576D01*
X158514523Y-98973195D01*
X158562142Y-99068433D01*
X158562142Y-99116052D01*
X158514523Y-99211290D01*
X158466904Y-99258909D01*
X158371666Y-99306528D01*
X158181190Y-99306528D01*
X158085952Y-99354147D01*
X158038333Y-99401766D01*
X157990714Y-99497004D01*
X157990714Y-99687480D01*
X158038333Y-99782718D01*
X158085952Y-99830337D01*
X158181190Y-99877956D01*
X158371666Y-99877956D01*
X158466904Y-99830337D01*
X158514523Y-99782718D01*
X158562142Y-99687480D01*
X158562142Y-99497004D01*
X158514523Y-99401766D01*
X158466904Y-99354147D01*
X158371666Y-99306528D01*
X159514523Y-99877956D02*
X158943095Y-99877956D01*
X159228809Y-99877956D02*
X159228809Y-98877956D01*
X159133571Y-99020814D01*
X159038333Y-99116052D01*
X158943095Y-99163671D01*
X159895476Y-98973195D02*
X159943095Y-98925576D01*
X160038333Y-98877956D01*
X160276428Y-98877956D01*
X160371666Y-98925576D01*
X160419285Y-98973195D01*
X160466904Y-99068433D01*
X160466904Y-99163671D01*
X160419285Y-99306528D01*
X159847857Y-99877956D01*
X160466904Y-99877956D01*
X161228809Y-99354147D02*
X161371666Y-99401766D01*
X161419285Y-99449385D01*
X161466904Y-99544623D01*
X161466904Y-99687480D01*
X161419285Y-99782718D01*
X161371666Y-99830337D01*
X161276428Y-99877956D01*
X160895476Y-99877956D01*
X160895476Y-98877956D01*
X161228809Y-98877956D01*
X161324047Y-98925576D01*
X161371666Y-98973195D01*
X161419285Y-99068433D01*
X161419285Y-99163671D01*
X161371666Y-99258909D01*
X161324047Y-99306528D01*
X161228809Y-99354147D01*
X160895476Y-99354147D01*
G04 #@! TO.C,1000*
X163485476Y-98905956D02*
X163723571Y-99905956D01*
X163914047Y-99191671D01*
X164104523Y-99905956D01*
X164342619Y-98905956D01*
X164675952Y-99858337D02*
X164818809Y-99905956D01*
X165056904Y-99905956D01*
X165152142Y-99858337D01*
X165199761Y-99810718D01*
X165247380Y-99715480D01*
X165247380Y-99620242D01*
X165199761Y-99525004D01*
X165152142Y-99477385D01*
X165056904Y-99429766D01*
X164866428Y-99382147D01*
X164771190Y-99334528D01*
X164723571Y-99286909D01*
X164675952Y-99191671D01*
X164675952Y-99096433D01*
X164723571Y-99001195D01*
X164771190Y-98953576D01*
X164866428Y-98905956D01*
X165104523Y-98905956D01*
X165247380Y-98953576D01*
X165628333Y-99001195D02*
X165675952Y-98953576D01*
X165771190Y-98905956D01*
X166009285Y-98905956D01*
X166104523Y-98953576D01*
X166152142Y-99001195D01*
X166199761Y-99096433D01*
X166199761Y-99191671D01*
X166152142Y-99334528D01*
X165580714Y-99905956D01*
X166199761Y-99905956D01*
X166771190Y-99334528D02*
X166675952Y-99286909D01*
X166628333Y-99239290D01*
X166580714Y-99144052D01*
X166580714Y-99096433D01*
X166628333Y-99001195D01*
X166675952Y-98953576D01*
X166771190Y-98905956D01*
X166961666Y-98905956D01*
X167056904Y-98953576D01*
X167104523Y-99001195D01*
X167152142Y-99096433D01*
X167152142Y-99144052D01*
X167104523Y-99239290D01*
X167056904Y-99286909D01*
X166961666Y-99334528D01*
X166771190Y-99334528D01*
X166675952Y-99382147D01*
X166628333Y-99429766D01*
X166580714Y-99525004D01*
X166580714Y-99715480D01*
X166628333Y-99810718D01*
X166675952Y-99858337D01*
X166771190Y-99905956D01*
X166961666Y-99905956D01*
X167056904Y-99858337D01*
X167104523Y-99810718D01*
X167152142Y-99715480D01*
X167152142Y-99525004D01*
X167104523Y-99429766D01*
X167056904Y-99382147D01*
X166961666Y-99334528D01*
X168104523Y-99905956D02*
X167533095Y-99905956D01*
X167818809Y-99905956D02*
X167818809Y-98905956D01*
X167723571Y-99048814D01*
X167628333Y-99144052D01*
X167533095Y-99191671D01*
X168485476Y-99001195D02*
X168533095Y-98953576D01*
X168628333Y-98905956D01*
X168866428Y-98905956D01*
X168961666Y-98953576D01*
X169009285Y-99001195D01*
X169056904Y-99096433D01*
X169056904Y-99191671D01*
X169009285Y-99334528D01*
X168437857Y-99905956D01*
X169056904Y-99905956D01*
X169818809Y-99382147D02*
X169961666Y-99429766D01*
X170009285Y-99477385D01*
X170056904Y-99572623D01*
X170056904Y-99715480D01*
X170009285Y-99810718D01*
X169961666Y-99858337D01*
X169866428Y-99905956D01*
X169485476Y-99905956D01*
X169485476Y-98905956D01*
X169818809Y-98905956D01*
X169914047Y-98953576D01*
X169961666Y-99001195D01*
X170009285Y-99096433D01*
X170009285Y-99191671D01*
X169961666Y-99286909D01*
X169914047Y-99334528D01*
X169818809Y-99382147D01*
X169485476Y-99382147D01*
G04 #@! TO.C,1100*
X146005476Y-98877956D02*
X146243571Y-99877956D01*
X146434047Y-99163671D01*
X146624523Y-99877956D01*
X146862619Y-98877956D01*
X147195952Y-99830337D02*
X147338809Y-99877956D01*
X147576904Y-99877956D01*
X147672142Y-99830337D01*
X147719761Y-99782718D01*
X147767380Y-99687480D01*
X147767380Y-99592242D01*
X147719761Y-99497004D01*
X147672142Y-99449385D01*
X147576904Y-99401766D01*
X147386428Y-99354147D01*
X147291190Y-99306528D01*
X147243571Y-99258909D01*
X147195952Y-99163671D01*
X147195952Y-99068433D01*
X147243571Y-98973195D01*
X147291190Y-98925576D01*
X147386428Y-98877956D01*
X147624523Y-98877956D01*
X147767380Y-98925576D01*
X148148333Y-98973195D02*
X148195952Y-98925576D01*
X148291190Y-98877956D01*
X148529285Y-98877956D01*
X148624523Y-98925576D01*
X148672142Y-98973195D01*
X148719761Y-99068433D01*
X148719761Y-99163671D01*
X148672142Y-99306528D01*
X148100714Y-99877956D01*
X148719761Y-99877956D01*
X149291190Y-99306528D02*
X149195952Y-99258909D01*
X149148333Y-99211290D01*
X149100714Y-99116052D01*
X149100714Y-99068433D01*
X149148333Y-98973195D01*
X149195952Y-98925576D01*
X149291190Y-98877956D01*
X149481666Y-98877956D01*
X149576904Y-98925576D01*
X149624523Y-98973195D01*
X149672142Y-99068433D01*
X149672142Y-99116052D01*
X149624523Y-99211290D01*
X149576904Y-99258909D01*
X149481666Y-99306528D01*
X149291190Y-99306528D01*
X149195952Y-99354147D01*
X149148333Y-99401766D01*
X149100714Y-99497004D01*
X149100714Y-99687480D01*
X149148333Y-99782718D01*
X149195952Y-99830337D01*
X149291190Y-99877956D01*
X149481666Y-99877956D01*
X149576904Y-99830337D01*
X149624523Y-99782718D01*
X149672142Y-99687480D01*
X149672142Y-99497004D01*
X149624523Y-99401766D01*
X149576904Y-99354147D01*
X149481666Y-99306528D01*
X150624523Y-99877956D02*
X150053095Y-99877956D01*
X150338809Y-99877956D02*
X150338809Y-98877956D01*
X150243571Y-99020814D01*
X150148333Y-99116052D01*
X150053095Y-99163671D01*
X151005476Y-98973195D02*
X151053095Y-98925576D01*
X151148333Y-98877956D01*
X151386428Y-98877956D01*
X151481666Y-98925576D01*
X151529285Y-98973195D01*
X151576904Y-99068433D01*
X151576904Y-99163671D01*
X151529285Y-99306528D01*
X150957857Y-99877956D01*
X151576904Y-99877956D01*
X152338809Y-99354147D02*
X152481666Y-99401766D01*
X152529285Y-99449385D01*
X152576904Y-99544623D01*
X152576904Y-99687480D01*
X152529285Y-99782718D01*
X152481666Y-99830337D01*
X152386428Y-99877956D01*
X152005476Y-99877956D01*
X152005476Y-98877956D01*
X152338809Y-98877956D01*
X152434047Y-98925576D01*
X152481666Y-98973195D01*
X152529285Y-99068433D01*
X152529285Y-99163671D01*
X152481666Y-99258909D01*
X152434047Y-99306528D01*
X152338809Y-99354147D01*
X152005476Y-99354147D01*
G04 #@! TO.C,0010*
X137115476Y-98877956D02*
X137353571Y-99877956D01*
X137544047Y-99163671D01*
X137734523Y-99877956D01*
X137972619Y-98877956D01*
X138305952Y-99830337D02*
X138448809Y-99877956D01*
X138686904Y-99877956D01*
X138782142Y-99830337D01*
X138829761Y-99782718D01*
X138877380Y-99687480D01*
X138877380Y-99592242D01*
X138829761Y-99497004D01*
X138782142Y-99449385D01*
X138686904Y-99401766D01*
X138496428Y-99354147D01*
X138401190Y-99306528D01*
X138353571Y-99258909D01*
X138305952Y-99163671D01*
X138305952Y-99068433D01*
X138353571Y-98973195D01*
X138401190Y-98925576D01*
X138496428Y-98877956D01*
X138734523Y-98877956D01*
X138877380Y-98925576D01*
X139258333Y-98973195D02*
X139305952Y-98925576D01*
X139401190Y-98877956D01*
X139639285Y-98877956D01*
X139734523Y-98925576D01*
X139782142Y-98973195D01*
X139829761Y-99068433D01*
X139829761Y-99163671D01*
X139782142Y-99306528D01*
X139210714Y-99877956D01*
X139829761Y-99877956D01*
X140401190Y-99306528D02*
X140305952Y-99258909D01*
X140258333Y-99211290D01*
X140210714Y-99116052D01*
X140210714Y-99068433D01*
X140258333Y-98973195D01*
X140305952Y-98925576D01*
X140401190Y-98877956D01*
X140591666Y-98877956D01*
X140686904Y-98925576D01*
X140734523Y-98973195D01*
X140782142Y-99068433D01*
X140782142Y-99116052D01*
X140734523Y-99211290D01*
X140686904Y-99258909D01*
X140591666Y-99306528D01*
X140401190Y-99306528D01*
X140305952Y-99354147D01*
X140258333Y-99401766D01*
X140210714Y-99497004D01*
X140210714Y-99687480D01*
X140258333Y-99782718D01*
X140305952Y-99830337D01*
X140401190Y-99877956D01*
X140591666Y-99877956D01*
X140686904Y-99830337D01*
X140734523Y-99782718D01*
X140782142Y-99687480D01*
X140782142Y-99497004D01*
X140734523Y-99401766D01*
X140686904Y-99354147D01*
X140591666Y-99306528D01*
X141734523Y-99877956D02*
X141163095Y-99877956D01*
X141448809Y-99877956D02*
X141448809Y-98877956D01*
X141353571Y-99020814D01*
X141258333Y-99116052D01*
X141163095Y-99163671D01*
X142115476Y-98973195D02*
X142163095Y-98925576D01*
X142258333Y-98877956D01*
X142496428Y-98877956D01*
X142591666Y-98925576D01*
X142639285Y-98973195D01*
X142686904Y-99068433D01*
X142686904Y-99163671D01*
X142639285Y-99306528D01*
X142067857Y-99877956D01*
X142686904Y-99877956D01*
X143448809Y-99354147D02*
X143591666Y-99401766D01*
X143639285Y-99449385D01*
X143686904Y-99544623D01*
X143686904Y-99687480D01*
X143639285Y-99782718D01*
X143591666Y-99830337D01*
X143496428Y-99877956D01*
X143115476Y-99877956D01*
X143115476Y-98877956D01*
X143448809Y-98877956D01*
X143544047Y-98925576D01*
X143591666Y-98973195D01*
X143639285Y-99068433D01*
X143639285Y-99163671D01*
X143591666Y-99258909D01*
X143544047Y-99306528D01*
X143448809Y-99354147D01*
X143115476Y-99354147D01*
G04 #@! TO.C,1010*
X128225476Y-98877956D02*
X128463571Y-99877956D01*
X128654047Y-99163671D01*
X128844523Y-99877956D01*
X129082619Y-98877956D01*
X129415952Y-99830337D02*
X129558809Y-99877956D01*
X129796904Y-99877956D01*
X129892142Y-99830337D01*
X129939761Y-99782718D01*
X129987380Y-99687480D01*
X129987380Y-99592242D01*
X129939761Y-99497004D01*
X129892142Y-99449385D01*
X129796904Y-99401766D01*
X129606428Y-99354147D01*
X129511190Y-99306528D01*
X129463571Y-99258909D01*
X129415952Y-99163671D01*
X129415952Y-99068433D01*
X129463571Y-98973195D01*
X129511190Y-98925576D01*
X129606428Y-98877956D01*
X129844523Y-98877956D01*
X129987380Y-98925576D01*
X130368333Y-98973195D02*
X130415952Y-98925576D01*
X130511190Y-98877956D01*
X130749285Y-98877956D01*
X130844523Y-98925576D01*
X130892142Y-98973195D01*
X130939761Y-99068433D01*
X130939761Y-99163671D01*
X130892142Y-99306528D01*
X130320714Y-99877956D01*
X130939761Y-99877956D01*
X131511190Y-99306528D02*
X131415952Y-99258909D01*
X131368333Y-99211290D01*
X131320714Y-99116052D01*
X131320714Y-99068433D01*
X131368333Y-98973195D01*
X131415952Y-98925576D01*
X131511190Y-98877956D01*
X131701666Y-98877956D01*
X131796904Y-98925576D01*
X131844523Y-98973195D01*
X131892142Y-99068433D01*
X131892142Y-99116052D01*
X131844523Y-99211290D01*
X131796904Y-99258909D01*
X131701666Y-99306528D01*
X131511190Y-99306528D01*
X131415952Y-99354147D01*
X131368333Y-99401766D01*
X131320714Y-99497004D01*
X131320714Y-99687480D01*
X131368333Y-99782718D01*
X131415952Y-99830337D01*
X131511190Y-99877956D01*
X131701666Y-99877956D01*
X131796904Y-99830337D01*
X131844523Y-99782718D01*
X131892142Y-99687480D01*
X131892142Y-99497004D01*
X131844523Y-99401766D01*
X131796904Y-99354147D01*
X131701666Y-99306528D01*
X132844523Y-99877956D02*
X132273095Y-99877956D01*
X132558809Y-99877956D02*
X132558809Y-98877956D01*
X132463571Y-99020814D01*
X132368333Y-99116052D01*
X132273095Y-99163671D01*
X133225476Y-98973195D02*
X133273095Y-98925576D01*
X133368333Y-98877956D01*
X133606428Y-98877956D01*
X133701666Y-98925576D01*
X133749285Y-98973195D01*
X133796904Y-99068433D01*
X133796904Y-99163671D01*
X133749285Y-99306528D01*
X133177857Y-99877956D01*
X133796904Y-99877956D01*
X134558809Y-99354147D02*
X134701666Y-99401766D01*
X134749285Y-99449385D01*
X134796904Y-99544623D01*
X134796904Y-99687480D01*
X134749285Y-99782718D01*
X134701666Y-99830337D01*
X134606428Y-99877956D01*
X134225476Y-99877956D01*
X134225476Y-98877956D01*
X134558809Y-98877956D01*
X134654047Y-98925576D01*
X134701666Y-98973195D01*
X134749285Y-99068433D01*
X134749285Y-99163671D01*
X134701666Y-99258909D01*
X134654047Y-99306528D01*
X134558809Y-99354147D01*
X134225476Y-99354147D01*
G04 #@! TO.C,0110*
X119335476Y-98877956D02*
X119573571Y-99877956D01*
X119764047Y-99163671D01*
X119954523Y-99877956D01*
X120192619Y-98877956D01*
X120525952Y-99830337D02*
X120668809Y-99877956D01*
X120906904Y-99877956D01*
X121002142Y-99830337D01*
X121049761Y-99782718D01*
X121097380Y-99687480D01*
X121097380Y-99592242D01*
X121049761Y-99497004D01*
X121002142Y-99449385D01*
X120906904Y-99401766D01*
X120716428Y-99354147D01*
X120621190Y-99306528D01*
X120573571Y-99258909D01*
X120525952Y-99163671D01*
X120525952Y-99068433D01*
X120573571Y-98973195D01*
X120621190Y-98925576D01*
X120716428Y-98877956D01*
X120954523Y-98877956D01*
X121097380Y-98925576D01*
X121478333Y-98973195D02*
X121525952Y-98925576D01*
X121621190Y-98877956D01*
X121859285Y-98877956D01*
X121954523Y-98925576D01*
X122002142Y-98973195D01*
X122049761Y-99068433D01*
X122049761Y-99163671D01*
X122002142Y-99306528D01*
X121430714Y-99877956D01*
X122049761Y-99877956D01*
X122621190Y-99306528D02*
X122525952Y-99258909D01*
X122478333Y-99211290D01*
X122430714Y-99116052D01*
X122430714Y-99068433D01*
X122478333Y-98973195D01*
X122525952Y-98925576D01*
X122621190Y-98877956D01*
X122811666Y-98877956D01*
X122906904Y-98925576D01*
X122954523Y-98973195D01*
X123002142Y-99068433D01*
X123002142Y-99116052D01*
X122954523Y-99211290D01*
X122906904Y-99258909D01*
X122811666Y-99306528D01*
X122621190Y-99306528D01*
X122525952Y-99354147D01*
X122478333Y-99401766D01*
X122430714Y-99497004D01*
X122430714Y-99687480D01*
X122478333Y-99782718D01*
X122525952Y-99830337D01*
X122621190Y-99877956D01*
X122811666Y-99877956D01*
X122906904Y-99830337D01*
X122954523Y-99782718D01*
X123002142Y-99687480D01*
X123002142Y-99497004D01*
X122954523Y-99401766D01*
X122906904Y-99354147D01*
X122811666Y-99306528D01*
X123954523Y-99877956D02*
X123383095Y-99877956D01*
X123668809Y-99877956D02*
X123668809Y-98877956D01*
X123573571Y-99020814D01*
X123478333Y-99116052D01*
X123383095Y-99163671D01*
X124335476Y-98973195D02*
X124383095Y-98925576D01*
X124478333Y-98877956D01*
X124716428Y-98877956D01*
X124811666Y-98925576D01*
X124859285Y-98973195D01*
X124906904Y-99068433D01*
X124906904Y-99163671D01*
X124859285Y-99306528D01*
X124287857Y-99877956D01*
X124906904Y-99877956D01*
X125668809Y-99354147D02*
X125811666Y-99401766D01*
X125859285Y-99449385D01*
X125906904Y-99544623D01*
X125906904Y-99687480D01*
X125859285Y-99782718D01*
X125811666Y-99830337D01*
X125716428Y-99877956D01*
X125335476Y-99877956D01*
X125335476Y-98877956D01*
X125668809Y-98877956D01*
X125764047Y-98925576D01*
X125811666Y-98973195D01*
X125859285Y-99068433D01*
X125859285Y-99163671D01*
X125811666Y-99258909D01*
X125764047Y-99306528D01*
X125668809Y-99354147D01*
X125335476Y-99354147D01*
G04 #@! TO.C,1110*
X110445476Y-98877956D02*
X110683571Y-99877956D01*
X110874047Y-99163671D01*
X111064523Y-99877956D01*
X111302619Y-98877956D01*
X111635952Y-99830337D02*
X111778809Y-99877956D01*
X112016904Y-99877956D01*
X112112142Y-99830337D01*
X112159761Y-99782718D01*
X112207380Y-99687480D01*
X112207380Y-99592242D01*
X112159761Y-99497004D01*
X112112142Y-99449385D01*
X112016904Y-99401766D01*
X111826428Y-99354147D01*
X111731190Y-99306528D01*
X111683571Y-99258909D01*
X111635952Y-99163671D01*
X111635952Y-99068433D01*
X111683571Y-98973195D01*
X111731190Y-98925576D01*
X111826428Y-98877956D01*
X112064523Y-98877956D01*
X112207380Y-98925576D01*
X112588333Y-98973195D02*
X112635952Y-98925576D01*
X112731190Y-98877956D01*
X112969285Y-98877956D01*
X113064523Y-98925576D01*
X113112142Y-98973195D01*
X113159761Y-99068433D01*
X113159761Y-99163671D01*
X113112142Y-99306528D01*
X112540714Y-99877956D01*
X113159761Y-99877956D01*
X113731190Y-99306528D02*
X113635952Y-99258909D01*
X113588333Y-99211290D01*
X113540714Y-99116052D01*
X113540714Y-99068433D01*
X113588333Y-98973195D01*
X113635952Y-98925576D01*
X113731190Y-98877956D01*
X113921666Y-98877956D01*
X114016904Y-98925576D01*
X114064523Y-98973195D01*
X114112142Y-99068433D01*
X114112142Y-99116052D01*
X114064523Y-99211290D01*
X114016904Y-99258909D01*
X113921666Y-99306528D01*
X113731190Y-99306528D01*
X113635952Y-99354147D01*
X113588333Y-99401766D01*
X113540714Y-99497004D01*
X113540714Y-99687480D01*
X113588333Y-99782718D01*
X113635952Y-99830337D01*
X113731190Y-99877956D01*
X113921666Y-99877956D01*
X114016904Y-99830337D01*
X114064523Y-99782718D01*
X114112142Y-99687480D01*
X114112142Y-99497004D01*
X114064523Y-99401766D01*
X114016904Y-99354147D01*
X113921666Y-99306528D01*
X115064523Y-99877956D02*
X114493095Y-99877956D01*
X114778809Y-99877956D02*
X114778809Y-98877956D01*
X114683571Y-99020814D01*
X114588333Y-99116052D01*
X114493095Y-99163671D01*
X115445476Y-98973195D02*
X115493095Y-98925576D01*
X115588333Y-98877956D01*
X115826428Y-98877956D01*
X115921666Y-98925576D01*
X115969285Y-98973195D01*
X116016904Y-99068433D01*
X116016904Y-99163671D01*
X115969285Y-99306528D01*
X115397857Y-99877956D01*
X116016904Y-99877956D01*
X116778809Y-99354147D02*
X116921666Y-99401766D01*
X116969285Y-99449385D01*
X117016904Y-99544623D01*
X117016904Y-99687480D01*
X116969285Y-99782718D01*
X116921666Y-99830337D01*
X116826428Y-99877956D01*
X116445476Y-99877956D01*
X116445476Y-98877956D01*
X116778809Y-98877956D01*
X116874047Y-98925576D01*
X116921666Y-98973195D01*
X116969285Y-99068433D01*
X116969285Y-99163671D01*
X116921666Y-99258909D01*
X116874047Y-99306528D01*
X116778809Y-99354147D01*
X116445476Y-99354147D01*
G04 #@! TO.C,1001*
X92665476Y-98877956D02*
X92903571Y-99877956D01*
X93094047Y-99163671D01*
X93284523Y-99877956D01*
X93522619Y-98877956D01*
X93855952Y-99830337D02*
X93998809Y-99877956D01*
X94236904Y-99877956D01*
X94332142Y-99830337D01*
X94379761Y-99782718D01*
X94427380Y-99687480D01*
X94427380Y-99592242D01*
X94379761Y-99497004D01*
X94332142Y-99449385D01*
X94236904Y-99401766D01*
X94046428Y-99354147D01*
X93951190Y-99306528D01*
X93903571Y-99258909D01*
X93855952Y-99163671D01*
X93855952Y-99068433D01*
X93903571Y-98973195D01*
X93951190Y-98925576D01*
X94046428Y-98877956D01*
X94284523Y-98877956D01*
X94427380Y-98925576D01*
X94808333Y-98973195D02*
X94855952Y-98925576D01*
X94951190Y-98877956D01*
X95189285Y-98877956D01*
X95284523Y-98925576D01*
X95332142Y-98973195D01*
X95379761Y-99068433D01*
X95379761Y-99163671D01*
X95332142Y-99306528D01*
X94760714Y-99877956D01*
X95379761Y-99877956D01*
X95951190Y-99306528D02*
X95855952Y-99258909D01*
X95808333Y-99211290D01*
X95760714Y-99116052D01*
X95760714Y-99068433D01*
X95808333Y-98973195D01*
X95855952Y-98925576D01*
X95951190Y-98877956D01*
X96141666Y-98877956D01*
X96236904Y-98925576D01*
X96284523Y-98973195D01*
X96332142Y-99068433D01*
X96332142Y-99116052D01*
X96284523Y-99211290D01*
X96236904Y-99258909D01*
X96141666Y-99306528D01*
X95951190Y-99306528D01*
X95855952Y-99354147D01*
X95808333Y-99401766D01*
X95760714Y-99497004D01*
X95760714Y-99687480D01*
X95808333Y-99782718D01*
X95855952Y-99830337D01*
X95951190Y-99877956D01*
X96141666Y-99877956D01*
X96236904Y-99830337D01*
X96284523Y-99782718D01*
X96332142Y-99687480D01*
X96332142Y-99497004D01*
X96284523Y-99401766D01*
X96236904Y-99354147D01*
X96141666Y-99306528D01*
X97284523Y-99877956D02*
X96713095Y-99877956D01*
X96998809Y-99877956D02*
X96998809Y-98877956D01*
X96903571Y-99020814D01*
X96808333Y-99116052D01*
X96713095Y-99163671D01*
X97665476Y-98973195D02*
X97713095Y-98925576D01*
X97808333Y-98877956D01*
X98046428Y-98877956D01*
X98141666Y-98925576D01*
X98189285Y-98973195D01*
X98236904Y-99068433D01*
X98236904Y-99163671D01*
X98189285Y-99306528D01*
X97617857Y-99877956D01*
X98236904Y-99877956D01*
X98998809Y-99354147D02*
X99141666Y-99401766D01*
X99189285Y-99449385D01*
X99236904Y-99544623D01*
X99236904Y-99687480D01*
X99189285Y-99782718D01*
X99141666Y-99830337D01*
X99046428Y-99877956D01*
X98665476Y-99877956D01*
X98665476Y-98877956D01*
X98998809Y-98877956D01*
X99094047Y-98925576D01*
X99141666Y-98973195D01*
X99189285Y-99068433D01*
X99189285Y-99163671D01*
X99141666Y-99258909D01*
X99094047Y-99306528D01*
X98998809Y-99354147D01*
X98665476Y-99354147D01*
G04 #@! TD*
M02*
