G04 #@! TF.GenerationSoftware,KiCad,Pcbnew,5.0.1*
G04 #@! TF.CreationDate,2019-01-12T14:13:44-06:00*
G04 #@! TF.ProjectId,badge,62616467652E6B696361645F70636200,rev?*
G04 #@! TF.SameCoordinates,Original*
G04 #@! TF.FileFunction,Soldermask,Bot*
G04 #@! TF.FilePolarity,Negative*
%FSLAX46Y46*%
G04 Gerber Fmt 4.6, Leading zero omitted, Abs format (unit mm)*
G04 Created by KiCad (PCBNEW 5.0.1) date Sat 12 Jan 2019 02:13:44 PM CST*
%MOMM*%
%LPD*%
G01*
G04 APERTURE LIST*
%ADD10C,0.100000*%
G04 APERTURE END LIST*
D10*
G36*
X118545229Y-132431980D02*
X120401510Y-133200877D01*
X120401512Y-133200878D01*
X122049897Y-134302293D01*
X122072124Y-134317145D01*
X123492855Y-135737876D01*
X124609123Y-137408490D01*
X125378020Y-139264771D01*
X125770000Y-141235386D01*
X125770000Y-143244614D01*
X125378020Y-145215229D01*
X124609123Y-147071510D01*
X123492855Y-148742124D01*
X122072124Y-150162855D01*
X122072121Y-150162857D01*
X120401512Y-151279122D01*
X120401511Y-151279123D01*
X120401510Y-151279123D01*
X118545229Y-152048020D01*
X116574614Y-152440000D01*
X114565386Y-152440000D01*
X112594771Y-152048020D01*
X110738490Y-151279123D01*
X110738489Y-151279123D01*
X110738488Y-151279122D01*
X109067879Y-150162857D01*
X109067876Y-150162855D01*
X107647145Y-148742124D01*
X106530877Y-147071510D01*
X105761980Y-145215229D01*
X105370000Y-143244614D01*
X105370000Y-141235386D01*
X105761980Y-139264771D01*
X106530877Y-137408490D01*
X107647145Y-135737876D01*
X109067876Y-134317145D01*
X109090103Y-134302293D01*
X110738488Y-133200878D01*
X110738490Y-133200877D01*
X112594771Y-132431980D01*
X114565386Y-132040000D01*
X116574614Y-132040000D01*
X118545229Y-132431980D01*
X118545229Y-132431980D01*
G37*
G36*
X96955229Y-132431980D02*
X98811510Y-133200877D01*
X98811512Y-133200878D01*
X100459897Y-134302293D01*
X100482124Y-134317145D01*
X101902855Y-135737876D01*
X103019123Y-137408490D01*
X103788020Y-139264771D01*
X104180000Y-141235386D01*
X104180000Y-143244614D01*
X103788020Y-145215229D01*
X103019123Y-147071510D01*
X101902855Y-148742124D01*
X100482124Y-150162855D01*
X100482121Y-150162857D01*
X98811512Y-151279122D01*
X98811511Y-151279123D01*
X98811510Y-151279123D01*
X96955229Y-152048020D01*
X94984614Y-152440000D01*
X92975386Y-152440000D01*
X91004771Y-152048020D01*
X89148490Y-151279123D01*
X89148489Y-151279123D01*
X89148488Y-151279122D01*
X87477879Y-150162857D01*
X87477876Y-150162855D01*
X86057145Y-148742124D01*
X84940877Y-147071510D01*
X84171980Y-145215229D01*
X83780000Y-143244614D01*
X83780000Y-141235386D01*
X84171980Y-139264771D01*
X84940877Y-137408490D01*
X86057145Y-135737876D01*
X87477876Y-134317145D01*
X87500103Y-134302293D01*
X89148488Y-133200878D01*
X89148490Y-133200877D01*
X91004771Y-132431980D01*
X92975386Y-132040000D01*
X94984614Y-132040000D01*
X96955229Y-132431980D01*
X96955229Y-132431980D01*
G37*
G36*
X161725229Y-132431980D02*
X163581510Y-133200877D01*
X163581512Y-133200878D01*
X165229897Y-134302293D01*
X165252124Y-134317145D01*
X166672855Y-135737876D01*
X167789123Y-137408490D01*
X168558020Y-139264771D01*
X168950000Y-141235386D01*
X168950000Y-143244614D01*
X168558020Y-145215229D01*
X167789123Y-147071510D01*
X166672855Y-148742124D01*
X165252124Y-150162855D01*
X165252121Y-150162857D01*
X163581512Y-151279122D01*
X163581511Y-151279123D01*
X163581510Y-151279123D01*
X161725229Y-152048020D01*
X159754614Y-152440000D01*
X157745386Y-152440000D01*
X155774771Y-152048020D01*
X153918490Y-151279123D01*
X153918489Y-151279123D01*
X153918488Y-151279122D01*
X152247879Y-150162857D01*
X152247876Y-150162855D01*
X150827145Y-148742124D01*
X149710877Y-147071510D01*
X148941980Y-145215229D01*
X148550000Y-143244614D01*
X148550000Y-141235386D01*
X148941980Y-139264771D01*
X149710877Y-137408490D01*
X150827145Y-135737876D01*
X152247876Y-134317145D01*
X152270103Y-134302293D01*
X153918488Y-133200878D01*
X153918490Y-133200877D01*
X155774771Y-132431980D01*
X157745386Y-132040000D01*
X159754614Y-132040000D01*
X161725229Y-132431980D01*
X161725229Y-132431980D01*
G37*
G36*
X140135229Y-132431980D02*
X141991510Y-133200877D01*
X141991512Y-133200878D01*
X143639897Y-134302293D01*
X143662124Y-134317145D01*
X145082855Y-135737876D01*
X146199123Y-137408490D01*
X146968020Y-139264771D01*
X147360000Y-141235386D01*
X147360000Y-143244614D01*
X146968020Y-145215229D01*
X146199123Y-147071510D01*
X145082855Y-148742124D01*
X143662124Y-150162855D01*
X143662121Y-150162857D01*
X141991512Y-151279122D01*
X141991511Y-151279123D01*
X141991510Y-151279123D01*
X140135229Y-152048020D01*
X138164614Y-152440000D01*
X136155386Y-152440000D01*
X134184771Y-152048020D01*
X132328490Y-151279123D01*
X132328489Y-151279123D01*
X132328488Y-151279122D01*
X130657879Y-150162857D01*
X130657876Y-150162855D01*
X129237145Y-148742124D01*
X128120877Y-147071510D01*
X127351980Y-145215229D01*
X126960000Y-143244614D01*
X126960000Y-141235386D01*
X127351980Y-139264771D01*
X128120877Y-137408490D01*
X129237145Y-135737876D01*
X130657876Y-134317145D01*
X130680103Y-134302293D01*
X132328488Y-133200878D01*
X132328490Y-133200877D01*
X134184771Y-132431980D01*
X136155386Y-132040000D01*
X138164614Y-132040000D01*
X140135229Y-132431980D01*
X140135229Y-132431980D01*
G37*
G36*
X152750026Y-130672115D02*
X152968412Y-130762573D01*
X153164958Y-130893901D01*
X153332099Y-131061042D01*
X153463427Y-131257588D01*
X153553885Y-131475974D01*
X153600000Y-131707809D01*
X153600000Y-131944191D01*
X153553885Y-132176026D01*
X153463427Y-132394412D01*
X153332099Y-132590958D01*
X153164958Y-132758099D01*
X152968412Y-132889427D01*
X152750026Y-132979885D01*
X152518191Y-133026000D01*
X152281809Y-133026000D01*
X152049974Y-132979885D01*
X151831588Y-132889427D01*
X151635042Y-132758099D01*
X151467901Y-132590958D01*
X151336573Y-132394412D01*
X151246115Y-132176026D01*
X151200000Y-131944191D01*
X151200000Y-131707809D01*
X151246115Y-131475974D01*
X151336573Y-131257588D01*
X151467901Y-131061042D01*
X151635042Y-130893901D01*
X151831588Y-130762573D01*
X152049974Y-130672115D01*
X152281809Y-130626000D01*
X152518191Y-130626000D01*
X152750026Y-130672115D01*
X152750026Y-130672115D01*
G37*
G36*
X145384026Y-130672115D02*
X145602412Y-130762573D01*
X145798958Y-130893901D01*
X145966099Y-131061042D01*
X146097427Y-131257588D01*
X146187885Y-131475974D01*
X146234000Y-131707809D01*
X146234000Y-131944191D01*
X146187885Y-132176026D01*
X146097427Y-132394412D01*
X145966099Y-132590958D01*
X145798958Y-132758099D01*
X145602412Y-132889427D01*
X145384026Y-132979885D01*
X145152191Y-133026000D01*
X144915809Y-133026000D01*
X144683974Y-132979885D01*
X144465588Y-132889427D01*
X144269042Y-132758099D01*
X144101901Y-132590958D01*
X143970573Y-132394412D01*
X143880115Y-132176026D01*
X143834000Y-131944191D01*
X143834000Y-131707809D01*
X143880115Y-131475974D01*
X143970573Y-131257588D01*
X144101901Y-131061042D01*
X144269042Y-130893901D01*
X144465588Y-130762573D01*
X144683974Y-130672115D01*
X144915809Y-130626000D01*
X145152191Y-130626000D01*
X145384026Y-130672115D01*
X145384026Y-130672115D01*
G37*
G36*
X169641026Y-129910115D02*
X169859412Y-130000573D01*
X170055958Y-130131901D01*
X170223099Y-130299042D01*
X170354427Y-130495588D01*
X170444885Y-130713974D01*
X170491000Y-130945809D01*
X170491000Y-131182191D01*
X170444885Y-131414026D01*
X170354427Y-131632412D01*
X170223099Y-131828958D01*
X170055958Y-131996099D01*
X169859412Y-132127427D01*
X169641026Y-132217885D01*
X169409191Y-132264000D01*
X169172809Y-132264000D01*
X168940974Y-132217885D01*
X168722588Y-132127427D01*
X168526042Y-131996099D01*
X168358901Y-131828958D01*
X168227573Y-131632412D01*
X168137115Y-131414026D01*
X168091000Y-131182191D01*
X168091000Y-130945809D01*
X168137115Y-130713974D01*
X168227573Y-130495588D01*
X168358901Y-130299042D01*
X168526042Y-130131901D01*
X168722588Y-130000573D01*
X168940974Y-129910115D01*
X169172809Y-129864000D01*
X169409191Y-129864000D01*
X169641026Y-129910115D01*
X169641026Y-129910115D01*
G37*
G36*
X165831026Y-129910115D02*
X166049412Y-130000573D01*
X166245958Y-130131901D01*
X166413099Y-130299042D01*
X166544427Y-130495588D01*
X166634885Y-130713974D01*
X166681000Y-130945809D01*
X166681000Y-131182191D01*
X166634885Y-131414026D01*
X166544427Y-131632412D01*
X166413099Y-131828958D01*
X166245958Y-131996099D01*
X166049412Y-132127427D01*
X165831026Y-132217885D01*
X165599191Y-132264000D01*
X165362809Y-132264000D01*
X165130974Y-132217885D01*
X164912588Y-132127427D01*
X164716042Y-131996099D01*
X164548901Y-131828958D01*
X164417573Y-131632412D01*
X164327115Y-131414026D01*
X164281000Y-131182191D01*
X164281000Y-130945809D01*
X164327115Y-130713974D01*
X164417573Y-130495588D01*
X164548901Y-130299042D01*
X164716042Y-130131901D01*
X164912588Y-130000573D01*
X165130974Y-129910115D01*
X165362809Y-129864000D01*
X165599191Y-129864000D01*
X165831026Y-129910115D01*
X165831026Y-129910115D01*
G37*
G36*
X124698707Y-129104596D02*
X124775836Y-129112193D01*
X124907787Y-129152220D01*
X124973763Y-129172233D01*
X125156172Y-129269733D01*
X125316054Y-129400946D01*
X125447267Y-129560828D01*
X125544767Y-129743237D01*
X125544767Y-129743238D01*
X125604807Y-129941164D01*
X125625080Y-130147000D01*
X125604807Y-130352836D01*
X125564780Y-130484787D01*
X125544767Y-130550763D01*
X125447267Y-130733172D01*
X125316054Y-130893054D01*
X125156172Y-131024267D01*
X124973763Y-131121767D01*
X124907787Y-131141780D01*
X124775836Y-131181807D01*
X124698707Y-131189404D01*
X124621580Y-131197000D01*
X124518420Y-131197000D01*
X124441293Y-131189404D01*
X124364164Y-131181807D01*
X124232213Y-131141780D01*
X124166237Y-131121767D01*
X123983828Y-131024267D01*
X123823946Y-130893054D01*
X123692733Y-130733172D01*
X123595233Y-130550763D01*
X123575220Y-130484787D01*
X123535193Y-130352836D01*
X123514920Y-130147000D01*
X123535193Y-129941164D01*
X123595233Y-129743238D01*
X123595233Y-129743237D01*
X123692733Y-129560828D01*
X123823946Y-129400946D01*
X123983828Y-129269733D01*
X124166237Y-129172233D01*
X124232213Y-129152220D01*
X124364164Y-129112193D01*
X124441293Y-129104596D01*
X124518420Y-129097000D01*
X124621580Y-129097000D01*
X124698707Y-129104596D01*
X124698707Y-129104596D01*
G37*
G36*
X132318707Y-129104596D02*
X132395836Y-129112193D01*
X132527787Y-129152220D01*
X132593763Y-129172233D01*
X132776172Y-129269733D01*
X132936054Y-129400946D01*
X133067267Y-129560828D01*
X133164767Y-129743237D01*
X133164767Y-129743238D01*
X133224807Y-129941164D01*
X133245080Y-130147000D01*
X133224807Y-130352836D01*
X133184780Y-130484787D01*
X133164767Y-130550763D01*
X133067267Y-130733172D01*
X132936054Y-130893054D01*
X132776172Y-131024267D01*
X132593763Y-131121767D01*
X132527787Y-131141780D01*
X132395836Y-131181807D01*
X132318707Y-131189404D01*
X132241580Y-131197000D01*
X132138420Y-131197000D01*
X132061293Y-131189404D01*
X131984164Y-131181807D01*
X131852213Y-131141780D01*
X131786237Y-131121767D01*
X131603828Y-131024267D01*
X131443946Y-130893054D01*
X131312733Y-130733172D01*
X131215233Y-130550763D01*
X131195220Y-130484787D01*
X131155193Y-130352836D01*
X131134920Y-130147000D01*
X131155193Y-129941164D01*
X131215233Y-129743238D01*
X131215233Y-129743237D01*
X131312733Y-129560828D01*
X131443946Y-129400946D01*
X131603828Y-129269733D01*
X131786237Y-129172233D01*
X131852213Y-129152220D01*
X131984164Y-129112193D01*
X132061293Y-129104596D01*
X132138420Y-129097000D01*
X132241580Y-129097000D01*
X132318707Y-129104596D01*
X132318707Y-129104596D01*
G37*
G36*
X129778707Y-129104596D02*
X129855836Y-129112193D01*
X129987787Y-129152220D01*
X130053763Y-129172233D01*
X130236172Y-129269733D01*
X130396054Y-129400946D01*
X130527267Y-129560828D01*
X130624767Y-129743237D01*
X130624767Y-129743238D01*
X130684807Y-129941164D01*
X130705080Y-130147000D01*
X130684807Y-130352836D01*
X130644780Y-130484787D01*
X130624767Y-130550763D01*
X130527267Y-130733172D01*
X130396054Y-130893054D01*
X130236172Y-131024267D01*
X130053763Y-131121767D01*
X129987787Y-131141780D01*
X129855836Y-131181807D01*
X129778707Y-131189404D01*
X129701580Y-131197000D01*
X129598420Y-131197000D01*
X129521293Y-131189404D01*
X129444164Y-131181807D01*
X129312213Y-131141780D01*
X129246237Y-131121767D01*
X129063828Y-131024267D01*
X128903946Y-130893054D01*
X128772733Y-130733172D01*
X128675233Y-130550763D01*
X128655220Y-130484787D01*
X128615193Y-130352836D01*
X128594920Y-130147000D01*
X128615193Y-129941164D01*
X128675233Y-129743238D01*
X128675233Y-129743237D01*
X128772733Y-129560828D01*
X128903946Y-129400946D01*
X129063828Y-129269733D01*
X129246237Y-129172233D01*
X129312213Y-129152220D01*
X129444164Y-129112193D01*
X129521293Y-129104596D01*
X129598420Y-129097000D01*
X129701580Y-129097000D01*
X129778707Y-129104596D01*
X129778707Y-129104596D01*
G37*
G36*
X123080000Y-131197000D02*
X120980000Y-131197000D01*
X120980000Y-129097000D01*
X123080000Y-129097000D01*
X123080000Y-131197000D01*
X123080000Y-131197000D01*
G37*
G36*
X127238707Y-129104596D02*
X127315836Y-129112193D01*
X127447787Y-129152220D01*
X127513763Y-129172233D01*
X127696172Y-129269733D01*
X127856054Y-129400946D01*
X127987267Y-129560828D01*
X128084767Y-129743237D01*
X128084767Y-129743238D01*
X128144807Y-129941164D01*
X128165080Y-130147000D01*
X128144807Y-130352836D01*
X128104780Y-130484787D01*
X128084767Y-130550763D01*
X127987267Y-130733172D01*
X127856054Y-130893054D01*
X127696172Y-131024267D01*
X127513763Y-131121767D01*
X127447787Y-131141780D01*
X127315836Y-131181807D01*
X127238707Y-131189404D01*
X127161580Y-131197000D01*
X127058420Y-131197000D01*
X126981293Y-131189404D01*
X126904164Y-131181807D01*
X126772213Y-131141780D01*
X126706237Y-131121767D01*
X126523828Y-131024267D01*
X126363946Y-130893054D01*
X126232733Y-130733172D01*
X126135233Y-130550763D01*
X126115220Y-130484787D01*
X126075193Y-130352836D01*
X126054920Y-130147000D01*
X126075193Y-129941164D01*
X126135233Y-129743238D01*
X126135233Y-129743237D01*
X126232733Y-129560828D01*
X126363946Y-129400946D01*
X126523828Y-129269733D01*
X126706237Y-129172233D01*
X126772213Y-129152220D01*
X126904164Y-129112193D01*
X126981293Y-129104596D01*
X127058420Y-129097000D01*
X127161580Y-129097000D01*
X127238707Y-129104596D01*
X127238707Y-129104596D01*
G37*
G36*
X84342855Y-127213030D02*
X84606680Y-127322310D01*
X84844120Y-127480962D01*
X85046038Y-127682880D01*
X85204690Y-127920320D01*
X85313970Y-128184145D01*
X85369680Y-128464218D01*
X85369680Y-128749782D01*
X85313970Y-129029855D01*
X85204690Y-129293680D01*
X85046038Y-129531120D01*
X84844120Y-129733038D01*
X84606680Y-129891690D01*
X84342855Y-130000970D01*
X84062782Y-130056680D01*
X83777218Y-130056680D01*
X83497145Y-130000970D01*
X83233320Y-129891690D01*
X82995880Y-129733038D01*
X82793962Y-129531120D01*
X82635310Y-129293680D01*
X82526030Y-129029855D01*
X82470320Y-128749782D01*
X82470320Y-128464218D01*
X82526030Y-128184145D01*
X82635310Y-127920320D01*
X82793962Y-127682880D01*
X82995880Y-127480962D01*
X83233320Y-127322310D01*
X83497145Y-127213030D01*
X83777218Y-127157320D01*
X84062782Y-127157320D01*
X84342855Y-127213030D01*
X84342855Y-127213030D01*
G37*
G36*
X84342855Y-123403030D02*
X84606680Y-123512310D01*
X84844120Y-123670962D01*
X85046038Y-123872880D01*
X85204690Y-124110320D01*
X85313970Y-124374145D01*
X85369680Y-124654218D01*
X85369680Y-124939782D01*
X85313970Y-125219855D01*
X85204690Y-125483680D01*
X85046038Y-125721120D01*
X84844120Y-125923038D01*
X84606680Y-126081690D01*
X84342855Y-126190970D01*
X84062782Y-126246680D01*
X83777218Y-126246680D01*
X83497145Y-126190970D01*
X83233320Y-126081690D01*
X82995880Y-125923038D01*
X82793962Y-125721120D01*
X82635310Y-125483680D01*
X82526030Y-125219855D01*
X82470320Y-124939782D01*
X82470320Y-124654218D01*
X82526030Y-124374145D01*
X82635310Y-124110320D01*
X82793962Y-123872880D01*
X82995880Y-123670962D01*
X83233320Y-123512310D01*
X83497145Y-123403030D01*
X83777218Y-123347320D01*
X84062782Y-123347320D01*
X84342855Y-123403030D01*
X84342855Y-123403030D01*
G37*
G36*
X131720000Y-122797000D02*
X121320000Y-122797000D01*
X121320000Y-120397000D01*
X131720000Y-120397000D01*
X131720000Y-122797000D01*
X131720000Y-122797000D01*
G37*
G36*
X123045000Y-116205000D02*
X121345000Y-116205000D01*
X121345000Y-112405000D01*
X123045000Y-112405000D01*
X123045000Y-116205000D01*
X123045000Y-116205000D01*
G37*
G36*
X131745000Y-116205000D02*
X130045000Y-116205000D01*
X130045000Y-112405000D01*
X131745000Y-112405000D01*
X131745000Y-116205000D01*
X131745000Y-116205000D01*
G37*
G36*
X139656393Y-109490553D02*
X139765872Y-109512330D01*
X140075252Y-109640479D01*
X140353687Y-109826523D01*
X140590477Y-110063313D01*
X140776521Y-110341748D01*
X140904670Y-110651128D01*
X140970000Y-110979565D01*
X140970000Y-111314435D01*
X140904670Y-111642872D01*
X140776521Y-111952252D01*
X140590477Y-112230687D01*
X140353687Y-112467477D01*
X140075252Y-112653521D01*
X139765872Y-112781670D01*
X139656393Y-112803447D01*
X139437437Y-112847000D01*
X139102563Y-112847000D01*
X138883607Y-112803447D01*
X138774128Y-112781670D01*
X138464748Y-112653521D01*
X138186313Y-112467477D01*
X137949523Y-112230687D01*
X137763479Y-111952252D01*
X137635330Y-111642872D01*
X137570000Y-111314435D01*
X137570000Y-110979565D01*
X137635330Y-110651128D01*
X137763479Y-110341748D01*
X137949523Y-110063313D01*
X138186313Y-109826523D01*
X138464748Y-109640479D01*
X138774128Y-109512330D01*
X138883607Y-109490553D01*
X139102563Y-109447000D01*
X139437437Y-109447000D01*
X139656393Y-109490553D01*
X139656393Y-109490553D01*
G37*
G36*
X114256393Y-109490553D02*
X114365872Y-109512330D01*
X114675252Y-109640479D01*
X114953687Y-109826523D01*
X115190477Y-110063313D01*
X115376521Y-110341748D01*
X115504670Y-110651128D01*
X115570000Y-110979565D01*
X115570000Y-111314435D01*
X115504670Y-111642872D01*
X115376521Y-111952252D01*
X115190477Y-112230687D01*
X114953687Y-112467477D01*
X114675252Y-112653521D01*
X114365872Y-112781670D01*
X114256393Y-112803447D01*
X114037437Y-112847000D01*
X113702563Y-112847000D01*
X113483607Y-112803447D01*
X113374128Y-112781670D01*
X113064748Y-112653521D01*
X112786313Y-112467477D01*
X112549523Y-112230687D01*
X112363479Y-111952252D01*
X112235330Y-111642872D01*
X112170000Y-111314435D01*
X112170000Y-110979565D01*
X112235330Y-110651128D01*
X112363479Y-110341748D01*
X112549523Y-110063313D01*
X112786313Y-109826523D01*
X113064748Y-109640479D01*
X113374128Y-109512330D01*
X113483607Y-109490553D01*
X113702563Y-109447000D01*
X114037437Y-109447000D01*
X114256393Y-109490553D01*
X114256393Y-109490553D01*
G37*
G36*
X152198707Y-105604596D02*
X152275836Y-105612193D01*
X152407787Y-105652220D01*
X152473763Y-105672233D01*
X152656172Y-105769733D01*
X152816054Y-105900946D01*
X152947267Y-106060828D01*
X153044767Y-106243237D01*
X153044767Y-106243238D01*
X153104807Y-106441164D01*
X153125080Y-106647000D01*
X153104807Y-106852836D01*
X153064780Y-106984787D01*
X153044767Y-107050763D01*
X152947267Y-107233172D01*
X152816054Y-107393054D01*
X152656172Y-107524267D01*
X152473763Y-107621767D01*
X152407787Y-107641780D01*
X152275836Y-107681807D01*
X152198707Y-107689403D01*
X152121580Y-107697000D01*
X152018420Y-107697000D01*
X151941293Y-107689403D01*
X151864164Y-107681807D01*
X151732213Y-107641780D01*
X151666237Y-107621767D01*
X151483828Y-107524267D01*
X151323946Y-107393054D01*
X151192733Y-107233172D01*
X151095233Y-107050763D01*
X151075220Y-106984787D01*
X151035193Y-106852836D01*
X151014920Y-106647000D01*
X151035193Y-106441164D01*
X151095233Y-106243238D01*
X151095233Y-106243237D01*
X151192733Y-106060828D01*
X151323946Y-105900946D01*
X151483828Y-105769733D01*
X151666237Y-105672233D01*
X151732213Y-105652220D01*
X151864164Y-105612193D01*
X151941293Y-105604597D01*
X152018420Y-105597000D01*
X152121580Y-105597000D01*
X152198707Y-105604596D01*
X152198707Y-105604596D01*
G37*
G36*
X149658707Y-105604596D02*
X149735836Y-105612193D01*
X149867787Y-105652220D01*
X149933763Y-105672233D01*
X150116172Y-105769733D01*
X150276054Y-105900946D01*
X150407267Y-106060828D01*
X150504767Y-106243237D01*
X150504767Y-106243238D01*
X150564807Y-106441164D01*
X150585080Y-106647000D01*
X150564807Y-106852836D01*
X150524780Y-106984787D01*
X150504767Y-107050763D01*
X150407267Y-107233172D01*
X150276054Y-107393054D01*
X150116172Y-107524267D01*
X149933763Y-107621767D01*
X149867787Y-107641780D01*
X149735836Y-107681807D01*
X149658707Y-107689403D01*
X149581580Y-107697000D01*
X149478420Y-107697000D01*
X149401293Y-107689403D01*
X149324164Y-107681807D01*
X149192213Y-107641780D01*
X149126237Y-107621767D01*
X148943828Y-107524267D01*
X148783946Y-107393054D01*
X148652733Y-107233172D01*
X148555233Y-107050763D01*
X148535220Y-106984787D01*
X148495193Y-106852836D01*
X148474920Y-106647000D01*
X148495193Y-106441164D01*
X148555233Y-106243238D01*
X148555233Y-106243237D01*
X148652733Y-106060828D01*
X148783946Y-105900946D01*
X148943828Y-105769733D01*
X149126237Y-105672233D01*
X149192213Y-105652220D01*
X149324164Y-105612193D01*
X149401293Y-105604597D01*
X149478420Y-105597000D01*
X149581580Y-105597000D01*
X149658707Y-105604596D01*
X149658707Y-105604596D01*
G37*
G36*
X147118707Y-105604596D02*
X147195836Y-105612193D01*
X147327787Y-105652220D01*
X147393763Y-105672233D01*
X147576172Y-105769733D01*
X147736054Y-105900946D01*
X147867267Y-106060828D01*
X147964767Y-106243237D01*
X147964767Y-106243238D01*
X148024807Y-106441164D01*
X148045080Y-106647000D01*
X148024807Y-106852836D01*
X147984780Y-106984787D01*
X147964767Y-107050763D01*
X147867267Y-107233172D01*
X147736054Y-107393054D01*
X147576172Y-107524267D01*
X147393763Y-107621767D01*
X147327787Y-107641780D01*
X147195836Y-107681807D01*
X147118707Y-107689403D01*
X147041580Y-107697000D01*
X146938420Y-107697000D01*
X146861293Y-107689403D01*
X146784164Y-107681807D01*
X146652213Y-107641780D01*
X146586237Y-107621767D01*
X146403828Y-107524267D01*
X146243946Y-107393054D01*
X146112733Y-107233172D01*
X146015233Y-107050763D01*
X145995220Y-106984787D01*
X145955193Y-106852836D01*
X145934920Y-106647000D01*
X145955193Y-106441164D01*
X146015233Y-106243238D01*
X146015233Y-106243237D01*
X146112733Y-106060828D01*
X146243946Y-105900946D01*
X146403828Y-105769733D01*
X146586237Y-105672233D01*
X146652213Y-105652220D01*
X146784164Y-105612193D01*
X146861293Y-105604597D01*
X146938420Y-105597000D01*
X147041580Y-105597000D01*
X147118707Y-105604596D01*
X147118707Y-105604596D01*
G37*
G36*
X145500000Y-107697000D02*
X143400000Y-107697000D01*
X143400000Y-105597000D01*
X145500000Y-105597000D01*
X145500000Y-107697000D01*
X145500000Y-107697000D01*
G37*
G36*
X169720000Y-104797000D02*
X159320000Y-104797000D01*
X159320000Y-102397000D01*
X169720000Y-102397000D01*
X169720000Y-104797000D01*
X169720000Y-104797000D01*
G37*
G36*
X93720000Y-104797000D02*
X83320000Y-104797000D01*
X83320000Y-102397000D01*
X93720000Y-102397000D01*
X93720000Y-104797000D01*
X93720000Y-104797000D01*
G37*
G36*
X169720000Y-91797000D02*
X159320000Y-91797000D01*
X159320000Y-89397000D01*
X169720000Y-89397000D01*
X169720000Y-91797000D01*
X169720000Y-91797000D01*
G37*
G36*
X93720000Y-91797000D02*
X83320000Y-91797000D01*
X83320000Y-89397000D01*
X93720000Y-89397000D01*
X93720000Y-91797000D01*
X93720000Y-91797000D01*
G37*
M02*
