G04 #@! TF.GenerationSoftware,KiCad,Pcbnew,5.0.1*
G04 #@! TF.CreationDate,2019-01-12T14:13:44-06:00*
G04 #@! TF.ProjectId,badge,62616467652E6B696361645F70636200,rev?*
G04 #@! TF.SameCoordinates,Original*
G04 #@! TF.FileFunction,Legend,Top*
G04 #@! TF.FilePolarity,Positive*
%FSLAX46Y46*%
G04 Gerber Fmt 4.6, Leading zero omitted, Abs format (unit mm)*
G04 Created by KiCad (PCBNEW 5.0.1) date Sat 12 Jan 2019 02:13:44 PM CST*
%MOMM*%
%LPD*%
G01*
G04 APERTURE LIST*
%ADD10C,0.200000*%
%ADD11C,0.300000*%
%ADD12C,0.125000*%
%ADD13C,0.250000*%
%ADD14C,0.150000*%
%ADD15C,0.120000*%
%ADD16C,0.500000*%
%ADD17C,0.010000*%
G04 APERTURE END LIST*
D10*
X121708095Y-127839857D02*
X121974761Y-127839857D01*
X122089047Y-128258904D02*
X121708095Y-128258904D01*
X121708095Y-127458904D01*
X122089047Y-127458904D01*
X122355714Y-128258904D02*
X122774761Y-127725571D01*
X122355714Y-127725571D02*
X122774761Y-128258904D01*
X123079523Y-127725571D02*
X123079523Y-128525571D01*
X123079523Y-127763666D02*
X123155714Y-127725571D01*
X123308095Y-127725571D01*
X123384285Y-127763666D01*
X123422380Y-127801761D01*
X123460476Y-127877952D01*
X123460476Y-128106523D01*
X123422380Y-128182714D01*
X123384285Y-128220809D01*
X123308095Y-128258904D01*
X123155714Y-128258904D01*
X123079523Y-128220809D01*
X124146190Y-128258904D02*
X124146190Y-127839857D01*
X124108095Y-127763666D01*
X124031904Y-127725571D01*
X123879523Y-127725571D01*
X123803333Y-127763666D01*
X124146190Y-128220809D02*
X124070000Y-128258904D01*
X123879523Y-128258904D01*
X123803333Y-128220809D01*
X123765238Y-128144619D01*
X123765238Y-128068428D01*
X123803333Y-127992238D01*
X123879523Y-127954142D01*
X124070000Y-127954142D01*
X124146190Y-127916047D01*
X124527142Y-127725571D02*
X124527142Y-128258904D01*
X124527142Y-127801761D02*
X124565238Y-127763666D01*
X124641428Y-127725571D01*
X124755714Y-127725571D01*
X124831904Y-127763666D01*
X124870000Y-127839857D01*
X124870000Y-128258904D01*
X125212857Y-128220809D02*
X125289047Y-128258904D01*
X125441428Y-128258904D01*
X125517619Y-128220809D01*
X125555714Y-128144619D01*
X125555714Y-128106523D01*
X125517619Y-128030333D01*
X125441428Y-127992238D01*
X125327142Y-127992238D01*
X125250952Y-127954142D01*
X125212857Y-127877952D01*
X125212857Y-127839857D01*
X125250952Y-127763666D01*
X125327142Y-127725571D01*
X125441428Y-127725571D01*
X125517619Y-127763666D01*
X125898571Y-128258904D02*
X125898571Y-127725571D01*
X125898571Y-127458904D02*
X125860476Y-127497000D01*
X125898571Y-127535095D01*
X125936666Y-127497000D01*
X125898571Y-127458904D01*
X125898571Y-127535095D01*
X126393809Y-128258904D02*
X126317619Y-128220809D01*
X126279523Y-128182714D01*
X126241428Y-128106523D01*
X126241428Y-127877952D01*
X126279523Y-127801761D01*
X126317619Y-127763666D01*
X126393809Y-127725571D01*
X126508095Y-127725571D01*
X126584285Y-127763666D01*
X126622380Y-127801761D01*
X126660476Y-127877952D01*
X126660476Y-128106523D01*
X126622380Y-128182714D01*
X126584285Y-128220809D01*
X126508095Y-128258904D01*
X126393809Y-128258904D01*
X127003333Y-127725571D02*
X127003333Y-128258904D01*
X127003333Y-127801761D02*
X127041428Y-127763666D01*
X127117619Y-127725571D01*
X127231904Y-127725571D01*
X127308095Y-127763666D01*
X127346190Y-127839857D01*
X127346190Y-128258904D01*
X128336666Y-128258904D02*
X128336666Y-127458904D01*
X128641428Y-127458904D01*
X128717619Y-127497000D01*
X128755714Y-127535095D01*
X128793809Y-127611285D01*
X128793809Y-127725571D01*
X128755714Y-127801761D01*
X128717619Y-127839857D01*
X128641428Y-127877952D01*
X128336666Y-127877952D01*
X129250952Y-128258904D02*
X129174761Y-128220809D01*
X129136666Y-128182714D01*
X129098571Y-128106523D01*
X129098571Y-127877952D01*
X129136666Y-127801761D01*
X129174761Y-127763666D01*
X129250952Y-127725571D01*
X129365238Y-127725571D01*
X129441428Y-127763666D01*
X129479523Y-127801761D01*
X129517619Y-127877952D01*
X129517619Y-128106523D01*
X129479523Y-128182714D01*
X129441428Y-128220809D01*
X129365238Y-128258904D01*
X129250952Y-128258904D01*
X129860476Y-128258904D02*
X129860476Y-127725571D01*
X129860476Y-127877952D02*
X129898571Y-127801761D01*
X129936666Y-127763666D01*
X130012857Y-127725571D01*
X130089047Y-127725571D01*
X130241428Y-127725571D02*
X130546190Y-127725571D01*
X130355714Y-127458904D02*
X130355714Y-128144619D01*
X130393809Y-128220809D01*
X130470000Y-128258904D01*
X130546190Y-128258904D01*
D11*
X82248571Y-90075571D02*
X82605714Y-91075571D01*
X82962857Y-90075571D01*
X83391428Y-89575571D02*
X84320000Y-89575571D01*
X83820000Y-90147000D01*
X84034285Y-90147000D01*
X84177142Y-90218428D01*
X84248571Y-90289857D01*
X84320000Y-90432714D01*
X84320000Y-90789857D01*
X84248571Y-90932714D01*
X84177142Y-91004142D01*
X84034285Y-91075571D01*
X83605714Y-91075571D01*
X83462857Y-91004142D01*
X83391428Y-90932714D01*
D12*
X170722857Y-140245666D02*
X170722857Y-140702809D01*
X170722857Y-140474238D02*
X169522857Y-140474238D01*
X169694285Y-140550428D01*
X169808571Y-140626619D01*
X169865714Y-140702809D01*
X170722857Y-139483761D02*
X170722857Y-139940904D01*
X170722857Y-139712333D02*
X169522857Y-139712333D01*
X169694285Y-139788523D01*
X169808571Y-139864714D01*
X169865714Y-139940904D01*
X169522857Y-138759952D02*
X169522857Y-139140904D01*
X170094285Y-139179000D01*
X170037142Y-139140904D01*
X169980000Y-139064714D01*
X169980000Y-138874238D01*
X170037142Y-138798047D01*
X170094285Y-138759952D01*
X170208571Y-138721857D01*
X170494285Y-138721857D01*
X170608571Y-138759952D01*
X170665714Y-138798047D01*
X170722857Y-138874238D01*
X170722857Y-139064714D01*
X170665714Y-139140904D01*
X170608571Y-139179000D01*
X169637142Y-138417095D02*
X169580000Y-138379000D01*
X169522857Y-138302809D01*
X169522857Y-138112333D01*
X169580000Y-138036142D01*
X169637142Y-137998047D01*
X169751428Y-137959952D01*
X169865714Y-137959952D01*
X170037142Y-137998047D01*
X170722857Y-138455190D01*
X170722857Y-137959952D01*
X169522857Y-137464714D02*
X169522857Y-137388523D01*
X169580000Y-137312333D01*
X169637142Y-137274238D01*
X169751428Y-137236142D01*
X169980000Y-137198047D01*
X170265714Y-137198047D01*
X170494285Y-137236142D01*
X170608571Y-137274238D01*
X170665714Y-137312333D01*
X170722857Y-137388523D01*
X170722857Y-137464714D01*
X170665714Y-137540904D01*
X170608571Y-137579000D01*
X170494285Y-137617095D01*
X170265714Y-137655190D01*
X169980000Y-137655190D01*
X169751428Y-137617095D01*
X169637142Y-137579000D01*
X169580000Y-137540904D01*
X169522857Y-137464714D01*
X169522857Y-136702809D02*
X169522857Y-136626619D01*
X169580000Y-136550428D01*
X169637142Y-136512333D01*
X169751428Y-136474238D01*
X169980000Y-136436142D01*
X170265714Y-136436142D01*
X170494285Y-136474238D01*
X170608571Y-136512333D01*
X170665714Y-136550428D01*
X170722857Y-136626619D01*
X170722857Y-136702809D01*
X170665714Y-136779000D01*
X170608571Y-136817095D01*
X170494285Y-136855190D01*
X170265714Y-136893285D01*
X169980000Y-136893285D01*
X169751428Y-136855190D01*
X169637142Y-136817095D01*
X169580000Y-136779000D01*
X169522857Y-136702809D01*
X170094285Y-135217095D02*
X170151428Y-135102809D01*
X170208571Y-135064714D01*
X170322857Y-135026619D01*
X170494285Y-135026619D01*
X170608571Y-135064714D01*
X170665714Y-135102809D01*
X170722857Y-135179000D01*
X170722857Y-135483761D01*
X169522857Y-135483761D01*
X169522857Y-135217095D01*
X169580000Y-135140904D01*
X169637142Y-135102809D01*
X169751428Y-135064714D01*
X169865714Y-135064714D01*
X169980000Y-135102809D01*
X170037142Y-135140904D01*
X170094285Y-135217095D01*
X170094285Y-135483761D01*
X170722857Y-134340904D02*
X170094285Y-134340904D01*
X169980000Y-134379000D01*
X169922857Y-134455190D01*
X169922857Y-134607571D01*
X169980000Y-134683761D01*
X170665714Y-134340904D02*
X170722857Y-134417095D01*
X170722857Y-134607571D01*
X170665714Y-134683761D01*
X170551428Y-134721857D01*
X170437142Y-134721857D01*
X170322857Y-134683761D01*
X170265714Y-134607571D01*
X170265714Y-134417095D01*
X170208571Y-134340904D01*
X169922857Y-133617095D02*
X170722857Y-133617095D01*
X169922857Y-133959952D02*
X170551428Y-133959952D01*
X170665714Y-133921857D01*
X170722857Y-133845666D01*
X170722857Y-133731380D01*
X170665714Y-133655190D01*
X170608571Y-133617095D01*
X170722857Y-132893285D02*
X169522857Y-132893285D01*
X170665714Y-132893285D02*
X170722857Y-132969476D01*
X170722857Y-133121857D01*
X170665714Y-133198047D01*
X170608571Y-133236142D01*
X170494285Y-133274238D01*
X170151428Y-133274238D01*
X170037142Y-133236142D01*
X169980000Y-133198047D01*
X169922857Y-133121857D01*
X169922857Y-132969476D01*
X169980000Y-132893285D01*
D10*
X165474666Y-129520904D02*
X165208000Y-129139952D01*
X165017523Y-129520904D02*
X165017523Y-128720904D01*
X165322285Y-128720904D01*
X165398476Y-128759000D01*
X165436571Y-128797095D01*
X165474666Y-128873285D01*
X165474666Y-128987571D01*
X165436571Y-129063761D01*
X165398476Y-129101857D01*
X165322285Y-129139952D01*
X165017523Y-129139952D01*
X165741333Y-128720904D02*
X166274666Y-129520904D01*
X166274666Y-128720904D02*
X165741333Y-129520904D01*
X168554476Y-128720904D02*
X169011619Y-128720904D01*
X168783047Y-129520904D02*
X168783047Y-128720904D01*
X169202095Y-128720904D02*
X169735428Y-129520904D01*
X169735428Y-128720904D02*
X169202095Y-129520904D01*
D13*
X86428556Y-130382714D02*
X86327366Y-131192238D01*
X86267842Y-131287476D01*
X86214270Y-131335095D01*
X86113080Y-131382714D01*
X85970223Y-131382714D01*
X85880937Y-131335095D01*
X86351175Y-131001761D02*
X86249985Y-131049380D01*
X86059508Y-131049380D01*
X85970223Y-131001761D01*
X85928556Y-130954142D01*
X85892842Y-130858904D01*
X85928556Y-130573190D01*
X85988080Y-130477952D01*
X86041651Y-130430333D01*
X86142842Y-130382714D01*
X86333318Y-130382714D01*
X86422604Y-130430333D01*
X86821413Y-131049380D02*
X86904747Y-130382714D01*
X86946413Y-130049380D02*
X86892842Y-130097000D01*
X86934508Y-130144619D01*
X86988080Y-130097000D01*
X86946413Y-130049380D01*
X86934508Y-130144619D01*
X87238080Y-130382714D02*
X87619032Y-130382714D01*
X87422604Y-130049380D02*
X87315461Y-130906523D01*
X87351175Y-131001761D01*
X87440461Y-131049380D01*
X87535699Y-131049380D01*
X87869032Y-131049380D02*
X87994032Y-130049380D01*
X88297604Y-131049380D02*
X88363080Y-130525571D01*
X88327366Y-130430333D01*
X88238080Y-130382714D01*
X88095223Y-130382714D01*
X87994032Y-130430333D01*
X87940461Y-130477952D01*
X89285699Y-130382714D02*
X89202366Y-131049380D01*
X88857127Y-130382714D02*
X88791651Y-130906523D01*
X88827366Y-131001761D01*
X88916651Y-131049380D01*
X89059508Y-131049380D01*
X89160699Y-131001761D01*
X89214270Y-130954142D01*
X89678556Y-131049380D02*
X89803556Y-130049380D01*
X89755937Y-130430333D02*
X89857127Y-130382714D01*
X90047604Y-130382714D01*
X90136889Y-130430333D01*
X90178556Y-130477952D01*
X90214270Y-130573190D01*
X90178556Y-130858904D01*
X90119032Y-130954142D01*
X90065461Y-131001761D01*
X89964270Y-131049380D01*
X89773794Y-131049380D01*
X89684508Y-131001761D01*
X90595223Y-130954142D02*
X90636889Y-131001761D01*
X90583318Y-131049380D01*
X90541651Y-131001761D01*
X90595223Y-130954142D01*
X90583318Y-131049380D01*
X91494032Y-131001761D02*
X91392842Y-131049380D01*
X91202366Y-131049380D01*
X91113080Y-131001761D01*
X91071413Y-130954142D01*
X91035699Y-130858904D01*
X91071413Y-130573190D01*
X91130937Y-130477952D01*
X91184508Y-130430333D01*
X91285699Y-130382714D01*
X91476175Y-130382714D01*
X91565461Y-130430333D01*
X92059508Y-131049380D02*
X91970223Y-131001761D01*
X91928556Y-130954142D01*
X91892842Y-130858904D01*
X91928556Y-130573190D01*
X91988080Y-130477952D01*
X92041651Y-130430333D01*
X92142842Y-130382714D01*
X92285699Y-130382714D01*
X92374985Y-130430333D01*
X92416651Y-130477952D01*
X92452366Y-130573190D01*
X92416651Y-130858904D01*
X92357127Y-130954142D01*
X92303556Y-131001761D01*
X92202366Y-131049380D01*
X92059508Y-131049380D01*
X92821413Y-131049380D02*
X92904747Y-130382714D01*
X92892842Y-130477952D02*
X92946413Y-130430333D01*
X93047604Y-130382714D01*
X93190461Y-130382714D01*
X93279747Y-130430333D01*
X93315461Y-130525571D01*
X93249985Y-131049380D01*
X93315461Y-130525571D02*
X93374985Y-130430333D01*
X93476175Y-130382714D01*
X93619032Y-130382714D01*
X93708318Y-130430333D01*
X93744032Y-130525571D01*
X93678556Y-131049380D01*
X94999985Y-130001761D02*
X93982127Y-131287476D01*
X95190461Y-130382714D02*
X95297604Y-131049380D01*
X95547604Y-130573190D01*
X95678556Y-131049380D01*
X95952366Y-130382714D01*
X96249985Y-131049380D02*
X96333318Y-130382714D01*
X96309508Y-130573190D02*
X96369032Y-130477952D01*
X96422604Y-130430333D01*
X96523794Y-130382714D01*
X96619032Y-130382714D01*
X96869032Y-131049380D02*
X96952366Y-130382714D01*
X96994032Y-130049380D02*
X96940461Y-130097000D01*
X96982127Y-130144619D01*
X97035699Y-130097000D01*
X96994032Y-130049380D01*
X96982127Y-130144619D01*
X97779747Y-131001761D02*
X97678556Y-131049380D01*
X97488080Y-131049380D01*
X97398794Y-131001761D01*
X97357127Y-130954142D01*
X97321413Y-130858904D01*
X97357127Y-130573190D01*
X97416651Y-130477952D01*
X97470223Y-130430333D01*
X97571413Y-130382714D01*
X97761889Y-130382714D01*
X97851175Y-130430333D01*
X98202366Y-131049380D02*
X98327366Y-130049380D01*
X98345223Y-130668428D02*
X98583318Y-131049380D01*
X98666651Y-130382714D02*
X98238080Y-130763666D01*
X99398794Y-131001761D02*
X99297604Y-131049380D01*
X99107127Y-131049380D01*
X99017842Y-131001761D01*
X98982127Y-130906523D01*
X99029747Y-130525571D01*
X99089270Y-130430333D01*
X99190461Y-130382714D01*
X99380937Y-130382714D01*
X99470223Y-130430333D01*
X99505937Y-130525571D01*
X99494032Y-130620809D01*
X99005937Y-130716047D01*
X99869032Y-131049380D02*
X99952366Y-130382714D01*
X99928556Y-130573190D02*
X99988080Y-130477952D01*
X100041651Y-130430333D01*
X100142842Y-130382714D01*
X100238080Y-130382714D01*
X100428556Y-130382714D02*
X100809508Y-130382714D01*
X100613080Y-130049380D02*
X100505937Y-130906523D01*
X100541651Y-131001761D01*
X100630937Y-131049380D01*
X100726175Y-131049380D01*
X101904747Y-130001761D02*
X100886889Y-131287476D01*
X102107127Y-131049380D02*
X102232127Y-130049380D01*
X102184508Y-130430333D02*
X102285699Y-130382714D01*
X102476175Y-130382714D01*
X102565461Y-130430333D01*
X102607127Y-130477952D01*
X102642842Y-130573190D01*
X102607127Y-130858904D01*
X102547604Y-130954142D01*
X102494032Y-131001761D01*
X102392842Y-131049380D01*
X102202366Y-131049380D01*
X102113080Y-131001761D01*
X103440461Y-131049380D02*
X103505937Y-130525571D01*
X103470223Y-130430333D01*
X103380937Y-130382714D01*
X103190461Y-130382714D01*
X103089270Y-130430333D01*
X103446413Y-131001761D02*
X103345223Y-131049380D01*
X103107127Y-131049380D01*
X103017842Y-131001761D01*
X102982127Y-130906523D01*
X102994032Y-130811285D01*
X103053556Y-130716047D01*
X103154747Y-130668428D01*
X103392842Y-130668428D01*
X103494032Y-130620809D01*
X104345223Y-131049380D02*
X104470223Y-130049380D01*
X104351175Y-131001761D02*
X104249985Y-131049380D01*
X104059508Y-131049380D01*
X103970223Y-131001761D01*
X103928556Y-130954142D01*
X103892842Y-130858904D01*
X103928556Y-130573190D01*
X103988080Y-130477952D01*
X104041651Y-130430333D01*
X104142842Y-130382714D01*
X104333318Y-130382714D01*
X104422604Y-130430333D01*
X105333318Y-130382714D02*
X105232127Y-131192238D01*
X105172604Y-131287476D01*
X105119032Y-131335095D01*
X105017842Y-131382714D01*
X104874985Y-131382714D01*
X104785699Y-131335095D01*
X105255937Y-131001761D02*
X105154747Y-131049380D01*
X104964270Y-131049380D01*
X104874985Y-131001761D01*
X104833318Y-130954142D01*
X104797604Y-130858904D01*
X104833318Y-130573190D01*
X104892842Y-130477952D01*
X104946413Y-130430333D01*
X105047604Y-130382714D01*
X105238080Y-130382714D01*
X105327366Y-130430333D01*
X106113080Y-131001761D02*
X106011889Y-131049380D01*
X105821413Y-131049380D01*
X105732127Y-131001761D01*
X105696413Y-130906523D01*
X105744032Y-130525571D01*
X105803556Y-130430333D01*
X105904747Y-130382714D01*
X106095223Y-130382714D01*
X106184508Y-130430333D01*
X106220223Y-130525571D01*
X106208318Y-130620809D01*
X105720223Y-130716047D01*
X85786666Y-128049380D02*
X86120000Y-129049380D01*
X86453333Y-128049380D01*
X86786666Y-129049380D02*
X86786666Y-128049380D01*
X87024761Y-128049380D01*
X87167619Y-128097000D01*
X87262857Y-128192238D01*
X87310476Y-128287476D01*
X87358095Y-128477952D01*
X87358095Y-128620809D01*
X87310476Y-128811285D01*
X87262857Y-128906523D01*
X87167619Y-129001761D01*
X87024761Y-129049380D01*
X86786666Y-129049380D01*
X87786666Y-129049380D02*
X87786666Y-128049380D01*
X88024761Y-128049380D01*
X88167619Y-128097000D01*
X88262857Y-128192238D01*
X88310476Y-128287476D01*
X88358095Y-128477952D01*
X88358095Y-128620809D01*
X88310476Y-128811285D01*
X88262857Y-128906523D01*
X88167619Y-129001761D01*
X88024761Y-129049380D01*
X87786666Y-129049380D01*
X85834285Y-124249380D02*
X86167619Y-125249380D01*
X86500952Y-124249380D01*
X86786666Y-125201761D02*
X86929523Y-125249380D01*
X87167619Y-125249380D01*
X87262857Y-125201761D01*
X87310476Y-125154142D01*
X87358095Y-125058904D01*
X87358095Y-124963666D01*
X87310476Y-124868428D01*
X87262857Y-124820809D01*
X87167619Y-124773190D01*
X86977142Y-124725571D01*
X86881904Y-124677952D01*
X86834285Y-124630333D01*
X86786666Y-124535095D01*
X86786666Y-124439857D01*
X86834285Y-124344619D01*
X86881904Y-124297000D01*
X86977142Y-124249380D01*
X87215238Y-124249380D01*
X87358095Y-124297000D01*
X87739047Y-125201761D02*
X87881904Y-125249380D01*
X88120000Y-125249380D01*
X88215238Y-125201761D01*
X88262857Y-125154142D01*
X88310476Y-125058904D01*
X88310476Y-124963666D01*
X88262857Y-124868428D01*
X88215238Y-124820809D01*
X88120000Y-124773190D01*
X87929523Y-124725571D01*
X87834285Y-124677952D01*
X87786666Y-124630333D01*
X87739047Y-124535095D01*
X87739047Y-124439857D01*
X87786666Y-124344619D01*
X87834285Y-124297000D01*
X87929523Y-124249380D01*
X88167619Y-124249380D01*
X88310476Y-124297000D01*
D14*
G04 #@! TO.C,U2*
X90381000Y-113045000D02*
X88981000Y-113045000D01*
X90381000Y-118145000D02*
X94531000Y-118145000D01*
X90381000Y-112995000D02*
X94531000Y-112995000D01*
X90381000Y-118145000D02*
X90381000Y-118000000D01*
X94531000Y-118145000D02*
X94531000Y-118000000D01*
X94531000Y-112995000D02*
X94531000Y-113140000D01*
X90381000Y-112995000D02*
X90381000Y-113045000D01*
D15*
G04 #@! TO.C,0101*
X91070000Y-98078576D02*
X91070000Y-97078576D01*
X84070000Y-98128576D02*
X91070000Y-98128576D01*
X84070000Y-92728576D02*
X91070000Y-92728576D01*
G04 #@! TO.C,0001*
X108365000Y-98075576D02*
X108365000Y-97075576D01*
X101365000Y-98125576D02*
X108365000Y-98125576D01*
X101365000Y-92725576D02*
X108365000Y-92725576D01*
G04 #@! TO.C,0100*
X161705000Y-98075576D02*
X161705000Y-97075576D01*
X154705000Y-98125576D02*
X161705000Y-98125576D01*
X154705000Y-92725576D02*
X161705000Y-92725576D01*
G04 #@! TO.C,1000*
X170295000Y-98103576D02*
X170295000Y-97103576D01*
X163295000Y-98153576D02*
X170295000Y-98153576D01*
X163295000Y-92753576D02*
X170295000Y-92753576D01*
G04 #@! TO.C,1100*
X152815000Y-98075576D02*
X152815000Y-97075576D01*
X145815000Y-98125576D02*
X152815000Y-98125576D01*
X145815000Y-92725576D02*
X152815000Y-92725576D01*
G04 #@! TO.C,0010*
X143925000Y-98075576D02*
X143925000Y-97075576D01*
X136925000Y-98125576D02*
X143925000Y-98125576D01*
X136925000Y-92725576D02*
X143925000Y-92725576D01*
G04 #@! TO.C,1010*
X135035000Y-98075576D02*
X135035000Y-97075576D01*
X128035000Y-98125576D02*
X135035000Y-98125576D01*
X128035000Y-92725576D02*
X135035000Y-92725576D01*
G04 #@! TO.C,0110*
X126145000Y-98075576D02*
X126145000Y-97075576D01*
X119145000Y-98125576D02*
X126145000Y-98125576D01*
X119145000Y-92725576D02*
X126145000Y-92725576D01*
G04 #@! TO.C,1110*
X117255000Y-98075576D02*
X117255000Y-97075576D01*
X110255000Y-98125576D02*
X117255000Y-98125576D01*
X110255000Y-92725576D02*
X117255000Y-92725576D01*
G04 #@! TO.C,1001*
X99475000Y-98075576D02*
X99475000Y-97075576D01*
X92475000Y-98125576D02*
X99475000Y-98125576D01*
X92475000Y-92725576D02*
X99475000Y-92725576D01*
D16*
G04 #@! TO.C,U1*
X164367981Y-109474000D02*
G75*
G03X164367981Y-109474000I-283981J0D01*
G01*
D14*
X164230000Y-128380000D02*
X164230000Y-110380000D01*
X170230000Y-110380000D02*
X144730000Y-110380000D01*
X170230000Y-128380000D02*
X144730000Y-128380000D01*
X144730000Y-128380000D02*
X144730000Y-110380000D01*
X170230000Y-128380000D02*
X170230000Y-110380000D01*
D15*
G04 #@! TO.C,BT1*
X117129556Y-101508929D02*
G75*
G03X136120000Y-101417000I9440444J11361929D01*
G01*
X117091751Y-101475249D02*
G75*
G03X116420000Y-101197000I-671751J-671751D01*
G01*
X136048249Y-101475249D02*
G75*
G02X136720000Y-101197000I671751J-671751D01*
G01*
X139420000Y-103897000D02*
G75*
G03X136720000Y-101197000I-2700000J0D01*
G01*
X113720000Y-103897000D02*
G75*
G02X116420000Y-101197000I2700000J0D01*
G01*
X113720000Y-109247000D02*
X113720000Y-103847000D01*
X139420000Y-109247000D02*
X139420000Y-103847000D01*
X113720000Y-117547000D02*
X113720000Y-113047000D01*
X139420000Y-117547000D02*
X139420000Y-113047000D01*
X122620000Y-123397000D02*
X113720000Y-117547000D01*
X122620000Y-124197000D02*
X122620000Y-123397000D01*
X130520000Y-124197000D02*
X122620000Y-124197000D01*
X130520000Y-124197000D02*
X130520000Y-123397000D01*
X130520000Y-123397000D02*
X139420000Y-117547000D01*
G04 #@! TO.C,C1*
X165784000Y-98451000D02*
X164784000Y-98451000D01*
X164784000Y-100151000D02*
X165784000Y-100151000D01*
G04 #@! TO.C,C2*
X157382000Y-98451000D02*
X156382000Y-98451000D01*
X156382000Y-100151000D02*
X157382000Y-100151000D01*
G04 #@! TO.C,C3*
X148238000Y-98451000D02*
X147238000Y-98451000D01*
X147238000Y-100151000D02*
X148238000Y-100151000D01*
G04 #@! TO.C,C4*
X139368000Y-98451000D02*
X138368000Y-98451000D01*
X138368000Y-100151000D02*
X139368000Y-100151000D01*
G04 #@! TO.C,C5*
X130458000Y-98451000D02*
X129458000Y-98451000D01*
X129458000Y-100151000D02*
X130458000Y-100151000D01*
G04 #@! TO.C,C6*
X121822000Y-98451000D02*
X120822000Y-98451000D01*
X120822000Y-100151000D02*
X121822000Y-100151000D01*
G04 #@! TO.C,C7*
X112678000Y-98451000D02*
X111678000Y-98451000D01*
X111678000Y-100151000D02*
X112678000Y-100151000D01*
G04 #@! TO.C,C8*
X103534000Y-98451000D02*
X102534000Y-98451000D01*
X102534000Y-100151000D02*
X103534000Y-100151000D01*
G04 #@! TO.C,C9*
X94898000Y-98451000D02*
X93898000Y-98451000D01*
X93898000Y-100151000D02*
X94898000Y-100151000D01*
G04 #@! TO.C,C10*
X85520000Y-98451000D02*
X84520000Y-98451000D01*
X84520000Y-100151000D02*
X85520000Y-100151000D01*
G04 #@! TO.C,C11*
X162820000Y-105797000D02*
X161820000Y-105797000D01*
X161820000Y-107497000D02*
X162820000Y-107497000D01*
G04 #@! TO.C,C12*
X167570000Y-105797000D02*
X166570000Y-105797000D01*
X166570000Y-107497000D02*
X167570000Y-107497000D01*
G04 #@! TO.C,C13*
X167570000Y-107989000D02*
X166570000Y-107989000D01*
X166570000Y-109689000D02*
X167570000Y-109689000D01*
G04 #@! TO.C,R1*
X158070000Y-107527000D02*
X156870000Y-107527000D01*
X156870000Y-105767000D02*
X158070000Y-105767000D01*
D17*
G04 #@! TO.C,REF\002A\002A\002A*
G36*
X109983360Y-128749468D02*
X110018592Y-128766874D01*
X110062040Y-128797206D01*
X110093706Y-128830283D01*
X110115394Y-128871817D01*
X110128903Y-128927522D01*
X110136038Y-129003111D01*
X110138600Y-129104296D01*
X110138750Y-129147797D01*
X110138312Y-129243135D01*
X110136496Y-129311271D01*
X110132545Y-129358418D01*
X110125702Y-129390790D01*
X110115211Y-129414600D01*
X110104296Y-129430843D01*
X110034619Y-129499952D01*
X109952566Y-129541521D01*
X109864050Y-129554023D01*
X109774981Y-129535934D01*
X109746763Y-129523142D01*
X109679210Y-129487931D01*
X109679210Y-130039700D01*
X109728512Y-130014205D01*
X109793473Y-129994480D01*
X109873320Y-129989427D01*
X109953052Y-129998756D01*
X110013265Y-130019714D01*
X110063208Y-130059627D01*
X110105881Y-130116741D01*
X110109090Y-130122605D01*
X110122622Y-130150227D01*
X110132505Y-130178068D01*
X110139309Y-130211794D01*
X110143601Y-130257071D01*
X110145951Y-130319562D01*
X110146928Y-130404935D01*
X110147105Y-130501010D01*
X110147105Y-130807526D01*
X109963289Y-130807526D01*
X109963289Y-130242339D01*
X109911875Y-130199077D01*
X109858466Y-130164472D01*
X109807888Y-130158180D01*
X109757030Y-130174372D01*
X109729925Y-130190227D01*
X109709751Y-130212810D01*
X109695403Y-130246940D01*
X109685776Y-130297434D01*
X109679763Y-130369111D01*
X109676260Y-130466788D01*
X109675026Y-130531802D01*
X109670855Y-130799171D01*
X109583125Y-130804222D01*
X109495394Y-130809273D01*
X109495394Y-129150101D01*
X109679210Y-129150101D01*
X109683896Y-129242600D01*
X109699688Y-129306809D01*
X109729183Y-129346759D01*
X109774980Y-129366480D01*
X109821250Y-129370421D01*
X109873628Y-129365892D01*
X109908390Y-129348069D01*
X109930128Y-129324519D01*
X109947240Y-129299189D01*
X109957427Y-129270969D01*
X109961960Y-129231431D01*
X109962109Y-129172142D01*
X109960584Y-129122498D01*
X109957081Y-129047710D01*
X109951867Y-128998611D01*
X109943087Y-128967467D01*
X109928886Y-128946545D01*
X109915484Y-128934452D01*
X109859487Y-128908081D01*
X109793211Y-128903822D01*
X109755156Y-128912906D01*
X109717477Y-128945196D01*
X109692519Y-129008006D01*
X109680422Y-129100894D01*
X109679210Y-129150101D01*
X109495394Y-129150101D01*
X109495394Y-128735421D01*
X109587302Y-128735421D01*
X109642483Y-128737603D01*
X109670952Y-128745351D01*
X109679206Y-128760468D01*
X109679210Y-128760916D01*
X109683040Y-128775720D01*
X109699933Y-128774039D01*
X109733519Y-128757772D01*
X109811778Y-128732887D01*
X109899827Y-128730271D01*
X109983360Y-128749468D01*
X109983360Y-128749468D01*
G37*
X109983360Y-128749468D02*
X110018592Y-128766874D01*
X110062040Y-128797206D01*
X110093706Y-128830283D01*
X110115394Y-128871817D01*
X110128903Y-128927522D01*
X110136038Y-129003111D01*
X110138600Y-129104296D01*
X110138750Y-129147797D01*
X110138312Y-129243135D01*
X110136496Y-129311271D01*
X110132545Y-129358418D01*
X110125702Y-129390790D01*
X110115211Y-129414600D01*
X110104296Y-129430843D01*
X110034619Y-129499952D01*
X109952566Y-129541521D01*
X109864050Y-129554023D01*
X109774981Y-129535934D01*
X109746763Y-129523142D01*
X109679210Y-129487931D01*
X109679210Y-130039700D01*
X109728512Y-130014205D01*
X109793473Y-129994480D01*
X109873320Y-129989427D01*
X109953052Y-129998756D01*
X110013265Y-130019714D01*
X110063208Y-130059627D01*
X110105881Y-130116741D01*
X110109090Y-130122605D01*
X110122622Y-130150227D01*
X110132505Y-130178068D01*
X110139309Y-130211794D01*
X110143601Y-130257071D01*
X110145951Y-130319562D01*
X110146928Y-130404935D01*
X110147105Y-130501010D01*
X110147105Y-130807526D01*
X109963289Y-130807526D01*
X109963289Y-130242339D01*
X109911875Y-130199077D01*
X109858466Y-130164472D01*
X109807888Y-130158180D01*
X109757030Y-130174372D01*
X109729925Y-130190227D01*
X109709751Y-130212810D01*
X109695403Y-130246940D01*
X109685776Y-130297434D01*
X109679763Y-130369111D01*
X109676260Y-130466788D01*
X109675026Y-130531802D01*
X109670855Y-130799171D01*
X109583125Y-130804222D01*
X109495394Y-130809273D01*
X109495394Y-129150101D01*
X109679210Y-129150101D01*
X109683896Y-129242600D01*
X109699688Y-129306809D01*
X109729183Y-129346759D01*
X109774980Y-129366480D01*
X109821250Y-129370421D01*
X109873628Y-129365892D01*
X109908390Y-129348069D01*
X109930128Y-129324519D01*
X109947240Y-129299189D01*
X109957427Y-129270969D01*
X109961960Y-129231431D01*
X109962109Y-129172142D01*
X109960584Y-129122498D01*
X109957081Y-129047710D01*
X109951867Y-128998611D01*
X109943087Y-128967467D01*
X109928886Y-128946545D01*
X109915484Y-128934452D01*
X109859487Y-128908081D01*
X109793211Y-128903822D01*
X109755156Y-128912906D01*
X109717477Y-128945196D01*
X109692519Y-129008006D01*
X109680422Y-129100894D01*
X109679210Y-129150101D01*
X109495394Y-129150101D01*
X109495394Y-128735421D01*
X109587302Y-128735421D01*
X109642483Y-128737603D01*
X109670952Y-128745351D01*
X109679206Y-128760468D01*
X109679210Y-128760916D01*
X109683040Y-128775720D01*
X109699933Y-128774039D01*
X109733519Y-128757772D01*
X109811778Y-128732887D01*
X109899827Y-128730271D01*
X109983360Y-128749468D01*
G36*
X110680457Y-129995184D02*
X110759070Y-130016160D01*
X110818916Y-130054180D01*
X110861147Y-130103978D01*
X110874275Y-130125230D01*
X110883968Y-130147492D01*
X110890744Y-130175970D01*
X110895123Y-130215871D01*
X110897624Y-130272401D01*
X110898768Y-130350767D01*
X110899072Y-130456176D01*
X110899078Y-130484142D01*
X110899078Y-130807526D01*
X110818868Y-130807526D01*
X110767706Y-130803943D01*
X110729877Y-130794866D01*
X110720399Y-130789268D01*
X110694488Y-130779606D01*
X110668024Y-130789268D01*
X110624452Y-130801330D01*
X110561160Y-130806185D01*
X110491010Y-130804078D01*
X110426860Y-130795256D01*
X110389407Y-130783937D01*
X110316933Y-130737412D01*
X110271640Y-130672846D01*
X110251278Y-130587000D01*
X110251088Y-130584796D01*
X110252875Y-130546713D01*
X110414473Y-130546713D01*
X110428601Y-130590030D01*
X110451612Y-130614408D01*
X110497804Y-130632845D01*
X110558775Y-130640205D01*
X110620949Y-130636583D01*
X110670751Y-130622074D01*
X110684703Y-130612765D01*
X110709085Y-130569753D01*
X110715263Y-130520857D01*
X110715263Y-130456605D01*
X110622818Y-130456605D01*
X110534995Y-130463366D01*
X110468418Y-130482520D01*
X110427002Y-130512376D01*
X110414473Y-130546713D01*
X110252875Y-130546713D01*
X110255490Y-130491004D01*
X110286424Y-130416847D01*
X110344581Y-130360767D01*
X110352620Y-130355665D01*
X110387163Y-130339055D01*
X110429918Y-130328996D01*
X110489686Y-130324107D01*
X110560690Y-130322983D01*
X110715263Y-130322921D01*
X110715263Y-130258125D01*
X110708706Y-130207850D01*
X110691975Y-130174169D01*
X110690016Y-130172376D01*
X110652783Y-130157642D01*
X110596580Y-130151931D01*
X110534467Y-130154737D01*
X110479510Y-130165556D01*
X110446899Y-130181782D01*
X110429228Y-130194780D01*
X110410569Y-130197262D01*
X110384819Y-130186613D01*
X110345873Y-130160218D01*
X110287630Y-130115465D01*
X110282284Y-130111273D01*
X110285023Y-130095760D01*
X110307876Y-130069960D01*
X110342609Y-130041289D01*
X110380990Y-130017166D01*
X110393048Y-130011470D01*
X110437034Y-130000103D01*
X110501487Y-129991995D01*
X110573497Y-129988743D01*
X110576864Y-129988736D01*
X110680457Y-129995184D01*
X110680457Y-129995184D01*
G37*
X110680457Y-129995184D02*
X110759070Y-130016160D01*
X110818916Y-130054180D01*
X110861147Y-130103978D01*
X110874275Y-130125230D01*
X110883968Y-130147492D01*
X110890744Y-130175970D01*
X110895123Y-130215871D01*
X110897624Y-130272401D01*
X110898768Y-130350767D01*
X110899072Y-130456176D01*
X110899078Y-130484142D01*
X110899078Y-130807526D01*
X110818868Y-130807526D01*
X110767706Y-130803943D01*
X110729877Y-130794866D01*
X110720399Y-130789268D01*
X110694488Y-130779606D01*
X110668024Y-130789268D01*
X110624452Y-130801330D01*
X110561160Y-130806185D01*
X110491010Y-130804078D01*
X110426860Y-130795256D01*
X110389407Y-130783937D01*
X110316933Y-130737412D01*
X110271640Y-130672846D01*
X110251278Y-130587000D01*
X110251088Y-130584796D01*
X110252875Y-130546713D01*
X110414473Y-130546713D01*
X110428601Y-130590030D01*
X110451612Y-130614408D01*
X110497804Y-130632845D01*
X110558775Y-130640205D01*
X110620949Y-130636583D01*
X110670751Y-130622074D01*
X110684703Y-130612765D01*
X110709085Y-130569753D01*
X110715263Y-130520857D01*
X110715263Y-130456605D01*
X110622818Y-130456605D01*
X110534995Y-130463366D01*
X110468418Y-130482520D01*
X110427002Y-130512376D01*
X110414473Y-130546713D01*
X110252875Y-130546713D01*
X110255490Y-130491004D01*
X110286424Y-130416847D01*
X110344581Y-130360767D01*
X110352620Y-130355665D01*
X110387163Y-130339055D01*
X110429918Y-130328996D01*
X110489686Y-130324107D01*
X110560690Y-130322983D01*
X110715263Y-130322921D01*
X110715263Y-130258125D01*
X110708706Y-130207850D01*
X110691975Y-130174169D01*
X110690016Y-130172376D01*
X110652783Y-130157642D01*
X110596580Y-130151931D01*
X110534467Y-130154737D01*
X110479510Y-130165556D01*
X110446899Y-130181782D01*
X110429228Y-130194780D01*
X110410569Y-130197262D01*
X110384819Y-130186613D01*
X110345873Y-130160218D01*
X110287630Y-130115465D01*
X110282284Y-130111273D01*
X110285023Y-130095760D01*
X110307876Y-130069960D01*
X110342609Y-130041289D01*
X110380990Y-130017166D01*
X110393048Y-130011470D01*
X110437034Y-130000103D01*
X110501487Y-129991995D01*
X110573497Y-129988743D01*
X110576864Y-129988736D01*
X110680457Y-129995184D01*
G36*
X111199881Y-129990486D02*
X111224888Y-129997982D01*
X111232950Y-130014451D01*
X111233289Y-130021886D01*
X111234736Y-130042594D01*
X111244698Y-130045845D01*
X111271612Y-130031648D01*
X111287598Y-130021948D01*
X111338033Y-130001175D01*
X111398272Y-129990904D01*
X111461434Y-129990114D01*
X111520637Y-129997786D01*
X111569002Y-130012898D01*
X111599646Y-130034432D01*
X111605689Y-130061366D01*
X111602639Y-130068660D01*
X111580406Y-130098937D01*
X111545930Y-130136175D01*
X111539694Y-130142195D01*
X111506833Y-130169875D01*
X111478480Y-130178818D01*
X111438827Y-130172576D01*
X111422942Y-130168429D01*
X111373509Y-130158467D01*
X111338752Y-130162947D01*
X111309400Y-130178746D01*
X111282513Y-130199949D01*
X111262710Y-130226614D01*
X111248948Y-130263827D01*
X111240184Y-130316673D01*
X111235374Y-130390237D01*
X111233474Y-130489605D01*
X111233289Y-130549601D01*
X111233289Y-130807526D01*
X111066184Y-130807526D01*
X111066184Y-129988710D01*
X111149736Y-129988710D01*
X111199881Y-129990486D01*
X111199881Y-129990486D01*
G37*
X111199881Y-129990486D02*
X111224888Y-129997982D01*
X111232950Y-130014451D01*
X111233289Y-130021886D01*
X111234736Y-130042594D01*
X111244698Y-130045845D01*
X111271612Y-130031648D01*
X111287598Y-130021948D01*
X111338033Y-130001175D01*
X111398272Y-129990904D01*
X111461434Y-129990114D01*
X111520637Y-129997786D01*
X111569002Y-130012898D01*
X111599646Y-130034432D01*
X111605689Y-130061366D01*
X111602639Y-130068660D01*
X111580406Y-130098937D01*
X111545930Y-130136175D01*
X111539694Y-130142195D01*
X111506833Y-130169875D01*
X111478480Y-130178818D01*
X111438827Y-130172576D01*
X111422942Y-130168429D01*
X111373509Y-130158467D01*
X111338752Y-130162947D01*
X111309400Y-130178746D01*
X111282513Y-130199949D01*
X111262710Y-130226614D01*
X111248948Y-130263827D01*
X111240184Y-130316673D01*
X111235374Y-130390237D01*
X111233474Y-130489605D01*
X111233289Y-130549601D01*
X111233289Y-130807526D01*
X111066184Y-130807526D01*
X111066184Y-129988710D01*
X111149736Y-129988710D01*
X111199881Y-129990486D01*
G36*
X112252631Y-130807526D02*
X112160723Y-130807526D01*
X112107377Y-130805962D01*
X112079593Y-130799485D01*
X112069590Y-130785418D01*
X112068815Y-130775906D01*
X112067128Y-130756832D01*
X112056490Y-130753174D01*
X112028535Y-130764932D01*
X112006795Y-130775906D01*
X111923332Y-130801911D01*
X111832604Y-130803416D01*
X111758842Y-130784021D01*
X111690154Y-130737165D01*
X111637794Y-130668004D01*
X111609122Y-130586427D01*
X111608392Y-130581866D01*
X111604132Y-130532101D01*
X111602014Y-130460659D01*
X111602184Y-130406626D01*
X111784720Y-130406626D01*
X111788949Y-130478441D01*
X111798568Y-130537634D01*
X111811590Y-130571060D01*
X111860856Y-130616740D01*
X111919350Y-130633115D01*
X111979671Y-130619873D01*
X112031217Y-130580373D01*
X112050738Y-130553807D01*
X112062152Y-130522106D01*
X112067498Y-130475832D01*
X112068815Y-130406328D01*
X112066458Y-130337499D01*
X112060233Y-130277026D01*
X112051408Y-130236556D01*
X112049937Y-130232929D01*
X112014347Y-130189802D01*
X111962400Y-130166124D01*
X111904278Y-130162301D01*
X111850160Y-130178738D01*
X111810226Y-130215840D01*
X111806083Y-130223222D01*
X111793116Y-130268239D01*
X111786052Y-130332967D01*
X111784720Y-130406626D01*
X111602184Y-130406626D01*
X111602271Y-130379230D01*
X111603472Y-130335405D01*
X111611645Y-130226988D01*
X111628630Y-130145588D01*
X111656887Y-130085412D01*
X111698872Y-130040666D01*
X111739632Y-130014400D01*
X111796581Y-129995935D01*
X111867411Y-129989602D01*
X111939941Y-129994760D01*
X112001986Y-130010769D01*
X112034768Y-130029920D01*
X112068815Y-130060732D01*
X112068815Y-129671210D01*
X112252631Y-129671210D01*
X112252631Y-130807526D01*
X112252631Y-130807526D01*
G37*
X112252631Y-130807526D02*
X112160723Y-130807526D01*
X112107377Y-130805962D01*
X112079593Y-130799485D01*
X112069590Y-130785418D01*
X112068815Y-130775906D01*
X112067128Y-130756832D01*
X112056490Y-130753174D01*
X112028535Y-130764932D01*
X112006795Y-130775906D01*
X111923332Y-130801911D01*
X111832604Y-130803416D01*
X111758842Y-130784021D01*
X111690154Y-130737165D01*
X111637794Y-130668004D01*
X111609122Y-130586427D01*
X111608392Y-130581866D01*
X111604132Y-130532101D01*
X111602014Y-130460659D01*
X111602184Y-130406626D01*
X111784720Y-130406626D01*
X111788949Y-130478441D01*
X111798568Y-130537634D01*
X111811590Y-130571060D01*
X111860856Y-130616740D01*
X111919350Y-130633115D01*
X111979671Y-130619873D01*
X112031217Y-130580373D01*
X112050738Y-130553807D01*
X112062152Y-130522106D01*
X112067498Y-130475832D01*
X112068815Y-130406328D01*
X112066458Y-130337499D01*
X112060233Y-130277026D01*
X112051408Y-130236556D01*
X112049937Y-130232929D01*
X112014347Y-130189802D01*
X111962400Y-130166124D01*
X111904278Y-130162301D01*
X111850160Y-130178738D01*
X111810226Y-130215840D01*
X111806083Y-130223222D01*
X111793116Y-130268239D01*
X111786052Y-130332967D01*
X111784720Y-130406626D01*
X111602184Y-130406626D01*
X111602271Y-130379230D01*
X111603472Y-130335405D01*
X111611645Y-130226988D01*
X111628630Y-130145588D01*
X111656887Y-130085412D01*
X111698872Y-130040666D01*
X111739632Y-130014400D01*
X111796581Y-129995935D01*
X111867411Y-129989602D01*
X111939941Y-129994760D01*
X112001986Y-130010769D01*
X112034768Y-130029920D01*
X112068815Y-130060732D01*
X112068815Y-129671210D01*
X112252631Y-129671210D01*
X112252631Y-130807526D01*
G36*
X112894130Y-129992104D02*
X112960220Y-129997066D01*
X113046626Y-130256079D01*
X113133031Y-130515092D01*
X113160124Y-130423184D01*
X113176428Y-130366384D01*
X113197875Y-130289625D01*
X113221035Y-130205251D01*
X113233280Y-130159993D01*
X113279344Y-129988710D01*
X113469387Y-129988710D01*
X113412582Y-130168349D01*
X113384607Y-130256704D01*
X113350813Y-130363281D01*
X113315520Y-130474454D01*
X113284013Y-130573579D01*
X113212250Y-130799171D01*
X113057286Y-130809253D01*
X113015270Y-130670528D01*
X112989359Y-130584351D01*
X112961083Y-130489347D01*
X112936369Y-130405441D01*
X112935394Y-130402102D01*
X112916935Y-130345248D01*
X112900649Y-130306456D01*
X112889242Y-130291787D01*
X112886898Y-130293483D01*
X112878671Y-130316225D01*
X112863038Y-130364940D01*
X112841904Y-130433502D01*
X112817170Y-130515785D01*
X112803787Y-130561046D01*
X112731311Y-130807526D01*
X112577495Y-130807526D01*
X112454531Y-130419006D01*
X112419988Y-130310022D01*
X112388521Y-130211048D01*
X112361616Y-130126736D01*
X112340759Y-130061734D01*
X112327438Y-130020692D01*
X112323388Y-130008701D01*
X112326594Y-129996423D01*
X112351765Y-129991046D01*
X112404146Y-129991584D01*
X112412345Y-129991990D01*
X112509482Y-129997066D01*
X112573100Y-130231013D01*
X112596484Y-130316333D01*
X112617381Y-130391335D01*
X112633951Y-130449507D01*
X112644354Y-130484337D01*
X112646276Y-130490016D01*
X112654241Y-130483486D01*
X112670304Y-130449654D01*
X112692621Y-130393127D01*
X112719345Y-130318510D01*
X112741937Y-130251107D01*
X112828041Y-129987143D01*
X112894130Y-129992104D01*
X112894130Y-129992104D01*
G37*
X112894130Y-129992104D02*
X112960220Y-129997066D01*
X113046626Y-130256079D01*
X113133031Y-130515092D01*
X113160124Y-130423184D01*
X113176428Y-130366384D01*
X113197875Y-130289625D01*
X113221035Y-130205251D01*
X113233280Y-130159993D01*
X113279344Y-129988710D01*
X113469387Y-129988710D01*
X113412582Y-130168349D01*
X113384607Y-130256704D01*
X113350813Y-130363281D01*
X113315520Y-130474454D01*
X113284013Y-130573579D01*
X113212250Y-130799171D01*
X113057286Y-130809253D01*
X113015270Y-130670528D01*
X112989359Y-130584351D01*
X112961083Y-130489347D01*
X112936369Y-130405441D01*
X112935394Y-130402102D01*
X112916935Y-130345248D01*
X112900649Y-130306456D01*
X112889242Y-130291787D01*
X112886898Y-130293483D01*
X112878671Y-130316225D01*
X112863038Y-130364940D01*
X112841904Y-130433502D01*
X112817170Y-130515785D01*
X112803787Y-130561046D01*
X112731311Y-130807526D01*
X112577495Y-130807526D01*
X112454531Y-130419006D01*
X112419988Y-130310022D01*
X112388521Y-130211048D01*
X112361616Y-130126736D01*
X112340759Y-130061734D01*
X112327438Y-130020692D01*
X112323388Y-130008701D01*
X112326594Y-129996423D01*
X112351765Y-129991046D01*
X112404146Y-129991584D01*
X112412345Y-129991990D01*
X112509482Y-129997066D01*
X112573100Y-130231013D01*
X112596484Y-130316333D01*
X112617381Y-130391335D01*
X112633951Y-130449507D01*
X112644354Y-130484337D01*
X112646276Y-130490016D01*
X112654241Y-130483486D01*
X112670304Y-130449654D01*
X112692621Y-130393127D01*
X112719345Y-130318510D01*
X112741937Y-130251107D01*
X112828041Y-129987143D01*
X112894130Y-129992104D01*
G36*
X113899992Y-129993673D02*
X113970427Y-130010780D01*
X113990787Y-130019844D01*
X114030253Y-130043583D01*
X114060541Y-130070321D01*
X114082952Y-130104699D01*
X114098786Y-130151360D01*
X114109343Y-130214946D01*
X114115924Y-130300099D01*
X114119828Y-130411462D01*
X114121310Y-130485849D01*
X114126765Y-130807526D01*
X114033580Y-130807526D01*
X113977047Y-130805156D01*
X113947922Y-130797055D01*
X113940394Y-130783451D01*
X113936420Y-130768741D01*
X113918652Y-130771554D01*
X113894440Y-130783348D01*
X113833828Y-130801427D01*
X113755929Y-130806299D01*
X113673995Y-130798330D01*
X113601281Y-130777889D01*
X113594759Y-130775051D01*
X113528302Y-130728365D01*
X113484491Y-130663464D01*
X113464332Y-130587600D01*
X113465872Y-130560344D01*
X113630345Y-130560344D01*
X113644837Y-130597024D01*
X113687805Y-130623309D01*
X113757129Y-130637417D01*
X113794177Y-130639290D01*
X113855919Y-130634494D01*
X113896960Y-130615858D01*
X113906973Y-130607000D01*
X113934100Y-130558806D01*
X113940394Y-130515092D01*
X113940394Y-130456605D01*
X113858930Y-130456605D01*
X113764234Y-130461432D01*
X113697813Y-130476613D01*
X113655846Y-130503200D01*
X113646449Y-130515052D01*
X113630345Y-130560344D01*
X113465872Y-130560344D01*
X113468829Y-130508026D01*
X113498985Y-130431995D01*
X113540131Y-130380612D01*
X113565052Y-130358397D01*
X113589448Y-130343798D01*
X113621191Y-130334897D01*
X113668152Y-130329775D01*
X113738204Y-130326515D01*
X113765990Y-130325577D01*
X113940394Y-130319879D01*
X113940138Y-130267091D01*
X113933384Y-130211603D01*
X113908964Y-130178052D01*
X113859630Y-130156618D01*
X113858306Y-130156236D01*
X113788360Y-130147808D01*
X113719914Y-130158816D01*
X113669047Y-130185585D01*
X113648637Y-130198803D01*
X113626654Y-130196974D01*
X113592826Y-130177824D01*
X113572961Y-130164308D01*
X113534106Y-130135432D01*
X113510038Y-130113786D01*
X113506176Y-130107589D01*
X113522079Y-130075519D01*
X113569065Y-130037219D01*
X113589473Y-130024297D01*
X113648143Y-130002041D01*
X113727212Y-129989432D01*
X113815041Y-129986600D01*
X113899992Y-129993673D01*
X113899992Y-129993673D01*
G37*
X113899992Y-129993673D02*
X113970427Y-130010780D01*
X113990787Y-130019844D01*
X114030253Y-130043583D01*
X114060541Y-130070321D01*
X114082952Y-130104699D01*
X114098786Y-130151360D01*
X114109343Y-130214946D01*
X114115924Y-130300099D01*
X114119828Y-130411462D01*
X114121310Y-130485849D01*
X114126765Y-130807526D01*
X114033580Y-130807526D01*
X113977047Y-130805156D01*
X113947922Y-130797055D01*
X113940394Y-130783451D01*
X113936420Y-130768741D01*
X113918652Y-130771554D01*
X113894440Y-130783348D01*
X113833828Y-130801427D01*
X113755929Y-130806299D01*
X113673995Y-130798330D01*
X113601281Y-130777889D01*
X113594759Y-130775051D01*
X113528302Y-130728365D01*
X113484491Y-130663464D01*
X113464332Y-130587600D01*
X113465872Y-130560344D01*
X113630345Y-130560344D01*
X113644837Y-130597024D01*
X113687805Y-130623309D01*
X113757129Y-130637417D01*
X113794177Y-130639290D01*
X113855919Y-130634494D01*
X113896960Y-130615858D01*
X113906973Y-130607000D01*
X113934100Y-130558806D01*
X113940394Y-130515092D01*
X113940394Y-130456605D01*
X113858930Y-130456605D01*
X113764234Y-130461432D01*
X113697813Y-130476613D01*
X113655846Y-130503200D01*
X113646449Y-130515052D01*
X113630345Y-130560344D01*
X113465872Y-130560344D01*
X113468829Y-130508026D01*
X113498985Y-130431995D01*
X113540131Y-130380612D01*
X113565052Y-130358397D01*
X113589448Y-130343798D01*
X113621191Y-130334897D01*
X113668152Y-130329775D01*
X113738204Y-130326515D01*
X113765990Y-130325577D01*
X113940394Y-130319879D01*
X113940138Y-130267091D01*
X113933384Y-130211603D01*
X113908964Y-130178052D01*
X113859630Y-130156618D01*
X113858306Y-130156236D01*
X113788360Y-130147808D01*
X113719914Y-130158816D01*
X113669047Y-130185585D01*
X113648637Y-130198803D01*
X113626654Y-130196974D01*
X113592826Y-130177824D01*
X113572961Y-130164308D01*
X113534106Y-130135432D01*
X113510038Y-130113786D01*
X113506176Y-130107589D01*
X113522079Y-130075519D01*
X113569065Y-130037219D01*
X113589473Y-130024297D01*
X113648143Y-130002041D01*
X113727212Y-129989432D01*
X113815041Y-129986600D01*
X113899992Y-129993673D01*
G36*
X114693167Y-129988447D02*
X114757408Y-130001112D01*
X114793980Y-130019864D01*
X114832453Y-130051017D01*
X114777717Y-130120127D01*
X114743969Y-130161979D01*
X114721053Y-130182398D01*
X114698279Y-130185517D01*
X114664956Y-130175472D01*
X114649314Y-130169789D01*
X114585542Y-130161404D01*
X114527140Y-130179378D01*
X114484264Y-130219982D01*
X114477299Y-130232929D01*
X114469713Y-130267224D01*
X114463859Y-130330427D01*
X114460011Y-130418060D01*
X114458443Y-130525640D01*
X114458421Y-130540944D01*
X114458421Y-130807526D01*
X114274605Y-130807526D01*
X114274605Y-129988710D01*
X114366513Y-129988710D01*
X114419507Y-129990094D01*
X114447115Y-129996252D01*
X114457324Y-130010194D01*
X114458421Y-130023344D01*
X114458421Y-130057978D01*
X114502450Y-130023344D01*
X114552937Y-129999716D01*
X114620760Y-129988033D01*
X114693167Y-129988447D01*
X114693167Y-129988447D01*
G37*
X114693167Y-129988447D02*
X114757408Y-130001112D01*
X114793980Y-130019864D01*
X114832453Y-130051017D01*
X114777717Y-130120127D01*
X114743969Y-130161979D01*
X114721053Y-130182398D01*
X114698279Y-130185517D01*
X114664956Y-130175472D01*
X114649314Y-130169789D01*
X114585542Y-130161404D01*
X114527140Y-130179378D01*
X114484264Y-130219982D01*
X114477299Y-130232929D01*
X114469713Y-130267224D01*
X114463859Y-130330427D01*
X114460011Y-130418060D01*
X114458443Y-130525640D01*
X114458421Y-130540944D01*
X114458421Y-130807526D01*
X114274605Y-130807526D01*
X114274605Y-129988710D01*
X114366513Y-129988710D01*
X114419507Y-129990094D01*
X114447115Y-129996252D01*
X114457324Y-130010194D01*
X114458421Y-130023344D01*
X114458421Y-130057978D01*
X114502450Y-130023344D01*
X114552937Y-129999716D01*
X114620760Y-129988033D01*
X114693167Y-129988447D01*
G36*
X115221193Y-129993078D02*
X115301068Y-130013845D01*
X115367962Y-130056705D01*
X115400351Y-130088723D01*
X115453445Y-130164413D01*
X115483873Y-130252216D01*
X115494327Y-130360150D01*
X115494380Y-130368875D01*
X115494473Y-130456605D01*
X114989534Y-130456605D01*
X115000298Y-130502559D01*
X115019732Y-130544178D01*
X115053745Y-130587544D01*
X115060860Y-130594467D01*
X115122003Y-130631935D01*
X115191729Y-130638289D01*
X115271987Y-130613638D01*
X115285592Y-130607000D01*
X115327319Y-130586819D01*
X115355268Y-130575321D01*
X115360145Y-130574258D01*
X115377168Y-130584583D01*
X115409633Y-130609845D01*
X115426114Y-130623650D01*
X115460264Y-130655361D01*
X115471478Y-130676299D01*
X115463695Y-130695560D01*
X115459535Y-130700827D01*
X115431357Y-130723878D01*
X115384862Y-130751892D01*
X115352434Y-130768246D01*
X115260385Y-130797059D01*
X115158476Y-130806395D01*
X115061963Y-130795332D01*
X115034934Y-130787412D01*
X114951276Y-130742581D01*
X114889266Y-130673598D01*
X114848545Y-130579794D01*
X114828755Y-130460498D01*
X114826582Y-130398118D01*
X114832926Y-130307298D01*
X114993157Y-130307298D01*
X115008655Y-130314012D01*
X115050312Y-130319280D01*
X115110876Y-130322389D01*
X115151907Y-130322921D01*
X115225711Y-130322408D01*
X115272293Y-130320006D01*
X115297848Y-130314422D01*
X115308569Y-130304361D01*
X115310657Y-130289763D01*
X115296331Y-130244796D01*
X115260262Y-130200353D01*
X115212815Y-130166242D01*
X115165349Y-130152288D01*
X115100879Y-130164666D01*
X115045070Y-130200452D01*
X115006374Y-130252033D01*
X114993157Y-130307298D01*
X114832926Y-130307298D01*
X114835821Y-130265866D01*
X114864336Y-130160498D01*
X114912729Y-130081178D01*
X114981604Y-130027071D01*
X115071565Y-129997343D01*
X115120300Y-129991618D01*
X115221193Y-129993078D01*
X115221193Y-129993078D01*
G37*
X115221193Y-129993078D02*
X115301068Y-130013845D01*
X115367962Y-130056705D01*
X115400351Y-130088723D01*
X115453445Y-130164413D01*
X115483873Y-130252216D01*
X115494327Y-130360150D01*
X115494380Y-130368875D01*
X115494473Y-130456605D01*
X114989534Y-130456605D01*
X115000298Y-130502559D01*
X115019732Y-130544178D01*
X115053745Y-130587544D01*
X115060860Y-130594467D01*
X115122003Y-130631935D01*
X115191729Y-130638289D01*
X115271987Y-130613638D01*
X115285592Y-130607000D01*
X115327319Y-130586819D01*
X115355268Y-130575321D01*
X115360145Y-130574258D01*
X115377168Y-130584583D01*
X115409633Y-130609845D01*
X115426114Y-130623650D01*
X115460264Y-130655361D01*
X115471478Y-130676299D01*
X115463695Y-130695560D01*
X115459535Y-130700827D01*
X115431357Y-130723878D01*
X115384862Y-130751892D01*
X115352434Y-130768246D01*
X115260385Y-130797059D01*
X115158476Y-130806395D01*
X115061963Y-130795332D01*
X115034934Y-130787412D01*
X114951276Y-130742581D01*
X114889266Y-130673598D01*
X114848545Y-130579794D01*
X114828755Y-130460498D01*
X114826582Y-130398118D01*
X114832926Y-130307298D01*
X114993157Y-130307298D01*
X115008655Y-130314012D01*
X115050312Y-130319280D01*
X115110876Y-130322389D01*
X115151907Y-130322921D01*
X115225711Y-130322408D01*
X115272293Y-130320006D01*
X115297848Y-130314422D01*
X115308569Y-130304361D01*
X115310657Y-130289763D01*
X115296331Y-130244796D01*
X115260262Y-130200353D01*
X115212815Y-130166242D01*
X115165349Y-130152288D01*
X115100879Y-130164666D01*
X115045070Y-130200452D01*
X115006374Y-130252033D01*
X114993157Y-130307298D01*
X114832926Y-130307298D01*
X114835821Y-130265866D01*
X114864336Y-130160498D01*
X114912729Y-130081178D01*
X114981604Y-130027071D01*
X115071565Y-129997343D01*
X115120300Y-129991618D01*
X115221193Y-129993078D01*
G36*
X109146784Y-128744104D02*
X109234205Y-128782754D01*
X109300570Y-128847290D01*
X109345976Y-128937812D01*
X109370518Y-129054418D01*
X109372277Y-129072624D01*
X109373656Y-129200984D01*
X109355784Y-129313496D01*
X109319750Y-129404688D01*
X109300455Y-129434022D01*
X109233245Y-129496106D01*
X109147650Y-129536316D01*
X109051890Y-129553003D01*
X108954187Y-129544517D01*
X108879917Y-129518380D01*
X108816047Y-129474335D01*
X108763846Y-129416587D01*
X108762943Y-129415236D01*
X108741744Y-129379593D01*
X108727967Y-129343752D01*
X108719624Y-129298519D01*
X108714727Y-129234701D01*
X108712569Y-129182368D01*
X108711671Y-129134910D01*
X108878743Y-129134910D01*
X108880376Y-129182154D01*
X108886304Y-129245046D01*
X108896761Y-129285407D01*
X108915619Y-129314122D01*
X108933281Y-129330896D01*
X108995894Y-129366016D01*
X109061408Y-129370710D01*
X109122421Y-129345440D01*
X109152928Y-129317124D01*
X109174911Y-129288589D01*
X109187769Y-129261284D01*
X109193412Y-129225750D01*
X109193751Y-129172524D01*
X109192012Y-129123506D01*
X109188271Y-129053482D01*
X109182341Y-129008064D01*
X109171653Y-128978440D01*
X109153639Y-128955797D01*
X109139363Y-128942855D01*
X109079651Y-128908860D01*
X109015234Y-128907165D01*
X108961219Y-128927301D01*
X108915140Y-128969352D01*
X108887689Y-129038428D01*
X108878743Y-129134910D01*
X108711671Y-129134910D01*
X108710599Y-129078299D01*
X108713964Y-129000468D01*
X108724045Y-128941930D01*
X108742226Y-128895737D01*
X108769890Y-128854942D01*
X108780146Y-128842828D01*
X108844278Y-128782474D01*
X108913066Y-128747220D01*
X108997189Y-128732450D01*
X109038209Y-128731243D01*
X109146784Y-128744104D01*
X109146784Y-128744104D01*
G37*
X109146784Y-128744104D02*
X109234205Y-128782754D01*
X109300570Y-128847290D01*
X109345976Y-128937812D01*
X109370518Y-129054418D01*
X109372277Y-129072624D01*
X109373656Y-129200984D01*
X109355784Y-129313496D01*
X109319750Y-129404688D01*
X109300455Y-129434022D01*
X109233245Y-129496106D01*
X109147650Y-129536316D01*
X109051890Y-129553003D01*
X108954187Y-129544517D01*
X108879917Y-129518380D01*
X108816047Y-129474335D01*
X108763846Y-129416587D01*
X108762943Y-129415236D01*
X108741744Y-129379593D01*
X108727967Y-129343752D01*
X108719624Y-129298519D01*
X108714727Y-129234701D01*
X108712569Y-129182368D01*
X108711671Y-129134910D01*
X108878743Y-129134910D01*
X108880376Y-129182154D01*
X108886304Y-129245046D01*
X108896761Y-129285407D01*
X108915619Y-129314122D01*
X108933281Y-129330896D01*
X108995894Y-129366016D01*
X109061408Y-129370710D01*
X109122421Y-129345440D01*
X109152928Y-129317124D01*
X109174911Y-129288589D01*
X109187769Y-129261284D01*
X109193412Y-129225750D01*
X109193751Y-129172524D01*
X109192012Y-129123506D01*
X109188271Y-129053482D01*
X109182341Y-129008064D01*
X109171653Y-128978440D01*
X109153639Y-128955797D01*
X109139363Y-128942855D01*
X109079651Y-128908860D01*
X109015234Y-128907165D01*
X108961219Y-128927301D01*
X108915140Y-128969352D01*
X108887689Y-129038428D01*
X108878743Y-129134910D01*
X108711671Y-129134910D01*
X108710599Y-129078299D01*
X108713964Y-129000468D01*
X108724045Y-128941930D01*
X108742226Y-128895737D01*
X108769890Y-128854942D01*
X108780146Y-128842828D01*
X108844278Y-128782474D01*
X108913066Y-128747220D01*
X108997189Y-128732450D01*
X109038209Y-128731243D01*
X109146784Y-128744104D01*
G36*
X110717018Y-128754027D02*
X110733670Y-128761866D01*
X110791305Y-128804086D01*
X110845805Y-128865700D01*
X110886499Y-128933543D01*
X110898074Y-128964734D01*
X110908634Y-129020449D01*
X110914931Y-129087781D01*
X110915696Y-129115585D01*
X110915789Y-129203316D01*
X110410850Y-129203316D01*
X110421613Y-129249270D01*
X110448033Y-129303620D01*
X110494222Y-129350591D01*
X110549172Y-129380848D01*
X110584189Y-129387131D01*
X110631677Y-129379506D01*
X110688335Y-129360383D01*
X110707582Y-129351584D01*
X110778759Y-129316036D01*
X110839502Y-129362367D01*
X110874552Y-129393703D01*
X110893202Y-129419567D01*
X110894147Y-129427158D01*
X110877485Y-129445556D01*
X110840970Y-129473515D01*
X110807828Y-129495327D01*
X110718393Y-129534537D01*
X110618129Y-129552285D01*
X110518754Y-129547670D01*
X110439539Y-129523551D01*
X110357880Y-129471884D01*
X110299849Y-129403856D01*
X110263546Y-129315843D01*
X110247072Y-129204216D01*
X110245611Y-129153138D01*
X110251457Y-129036091D01*
X110252175Y-129032686D01*
X110419489Y-129032686D01*
X110424097Y-129043662D01*
X110443036Y-129049715D01*
X110482098Y-129052310D01*
X110547077Y-129052910D01*
X110572097Y-129052921D01*
X110648221Y-129052014D01*
X110696496Y-129048720D01*
X110722460Y-129042181D01*
X110731648Y-129031537D01*
X110731973Y-129028119D01*
X110721487Y-129000956D01*
X110695242Y-128962903D01*
X110683959Y-128949579D01*
X110642072Y-128911896D01*
X110598409Y-128897080D01*
X110574885Y-128895842D01*
X110511243Y-128911329D01*
X110457873Y-128952930D01*
X110424019Y-129013353D01*
X110423419Y-129015322D01*
X110419489Y-129032686D01*
X110252175Y-129032686D01*
X110270899Y-128943928D01*
X110305922Y-128870190D01*
X110348756Y-128817848D01*
X110427948Y-128761092D01*
X110521040Y-128730762D01*
X110620055Y-128728021D01*
X110717018Y-128754027D01*
X110717018Y-128754027D01*
G37*
X110717018Y-128754027D02*
X110733670Y-128761866D01*
X110791305Y-128804086D01*
X110845805Y-128865700D01*
X110886499Y-128933543D01*
X110898074Y-128964734D01*
X110908634Y-129020449D01*
X110914931Y-129087781D01*
X110915696Y-129115585D01*
X110915789Y-129203316D01*
X110410850Y-129203316D01*
X110421613Y-129249270D01*
X110448033Y-129303620D01*
X110494222Y-129350591D01*
X110549172Y-129380848D01*
X110584189Y-129387131D01*
X110631677Y-129379506D01*
X110688335Y-129360383D01*
X110707582Y-129351584D01*
X110778759Y-129316036D01*
X110839502Y-129362367D01*
X110874552Y-129393703D01*
X110893202Y-129419567D01*
X110894147Y-129427158D01*
X110877485Y-129445556D01*
X110840970Y-129473515D01*
X110807828Y-129495327D01*
X110718393Y-129534537D01*
X110618129Y-129552285D01*
X110518754Y-129547670D01*
X110439539Y-129523551D01*
X110357880Y-129471884D01*
X110299849Y-129403856D01*
X110263546Y-129315843D01*
X110247072Y-129204216D01*
X110245611Y-129153138D01*
X110251457Y-129036091D01*
X110252175Y-129032686D01*
X110419489Y-129032686D01*
X110424097Y-129043662D01*
X110443036Y-129049715D01*
X110482098Y-129052310D01*
X110547077Y-129052910D01*
X110572097Y-129052921D01*
X110648221Y-129052014D01*
X110696496Y-129048720D01*
X110722460Y-129042181D01*
X110731648Y-129031537D01*
X110731973Y-129028119D01*
X110721487Y-129000956D01*
X110695242Y-128962903D01*
X110683959Y-128949579D01*
X110642072Y-128911896D01*
X110598409Y-128897080D01*
X110574885Y-128895842D01*
X110511243Y-128911329D01*
X110457873Y-128952930D01*
X110424019Y-129013353D01*
X110423419Y-129015322D01*
X110419489Y-129032686D01*
X110252175Y-129032686D01*
X110270899Y-128943928D01*
X110305922Y-128870190D01*
X110348756Y-128817848D01*
X110427948Y-128761092D01*
X110521040Y-128730762D01*
X110620055Y-128728021D01*
X110717018Y-128754027D01*
G36*
X112538628Y-128732547D02*
X112601908Y-128744548D01*
X112667557Y-128769648D01*
X112674572Y-128772848D01*
X112724356Y-128799026D01*
X112758834Y-128823353D01*
X112769978Y-128838937D01*
X112759366Y-128864353D01*
X112733588Y-128901853D01*
X112722146Y-128915852D01*
X112674992Y-128970954D01*
X112614201Y-128935086D01*
X112556347Y-128911192D01*
X112489500Y-128898420D01*
X112425394Y-128897613D01*
X112375764Y-128909615D01*
X112363854Y-128917105D01*
X112341172Y-128951450D01*
X112338416Y-128991013D01*
X112355388Y-129021920D01*
X112365427Y-129027913D01*
X112395510Y-129035357D01*
X112448389Y-129044106D01*
X112513575Y-129052467D01*
X112525600Y-129053778D01*
X112630297Y-129071888D01*
X112706232Y-129102651D01*
X112756592Y-129148907D01*
X112784564Y-129213497D01*
X112793278Y-129292387D01*
X112781240Y-129382065D01*
X112742151Y-129452486D01*
X112675855Y-129503777D01*
X112582194Y-129536067D01*
X112478223Y-129548807D01*
X112393438Y-129548654D01*
X112324665Y-129537083D01*
X112277697Y-129521109D01*
X112218350Y-129493275D01*
X112163506Y-129460973D01*
X112144013Y-129446755D01*
X112093881Y-129405835D01*
X112214803Y-129283477D01*
X112283543Y-129328967D01*
X112352488Y-129363133D01*
X112426111Y-129381004D01*
X112496883Y-129382889D01*
X112557274Y-129369101D01*
X112599757Y-129339949D01*
X112613474Y-129315352D01*
X112611417Y-129275904D01*
X112577330Y-129245737D01*
X112511308Y-129224906D01*
X112438974Y-129215279D01*
X112327652Y-129196910D01*
X112244952Y-129162254D01*
X112189765Y-129110297D01*
X112160988Y-129040023D01*
X112157001Y-128956707D01*
X112176693Y-128869681D01*
X112221589Y-128803902D01*
X112292091Y-128759068D01*
X112388601Y-128734879D01*
X112460100Y-128730137D01*
X112538628Y-128732547D01*
X112538628Y-128732547D01*
G37*
X112538628Y-128732547D02*
X112601908Y-128744548D01*
X112667557Y-128769648D01*
X112674572Y-128772848D01*
X112724356Y-128799026D01*
X112758834Y-128823353D01*
X112769978Y-128838937D01*
X112759366Y-128864353D01*
X112733588Y-128901853D01*
X112722146Y-128915852D01*
X112674992Y-128970954D01*
X112614201Y-128935086D01*
X112556347Y-128911192D01*
X112489500Y-128898420D01*
X112425394Y-128897613D01*
X112375764Y-128909615D01*
X112363854Y-128917105D01*
X112341172Y-128951450D01*
X112338416Y-128991013D01*
X112355388Y-129021920D01*
X112365427Y-129027913D01*
X112395510Y-129035357D01*
X112448389Y-129044106D01*
X112513575Y-129052467D01*
X112525600Y-129053778D01*
X112630297Y-129071888D01*
X112706232Y-129102651D01*
X112756592Y-129148907D01*
X112784564Y-129213497D01*
X112793278Y-129292387D01*
X112781240Y-129382065D01*
X112742151Y-129452486D01*
X112675855Y-129503777D01*
X112582194Y-129536067D01*
X112478223Y-129548807D01*
X112393438Y-129548654D01*
X112324665Y-129537083D01*
X112277697Y-129521109D01*
X112218350Y-129493275D01*
X112163506Y-129460973D01*
X112144013Y-129446755D01*
X112093881Y-129405835D01*
X112214803Y-129283477D01*
X112283543Y-129328967D01*
X112352488Y-129363133D01*
X112426111Y-129381004D01*
X112496883Y-129382889D01*
X112557274Y-129369101D01*
X112599757Y-129339949D01*
X112613474Y-129315352D01*
X112611417Y-129275904D01*
X112577330Y-129245737D01*
X112511308Y-129224906D01*
X112438974Y-129215279D01*
X112327652Y-129196910D01*
X112244952Y-129162254D01*
X112189765Y-129110297D01*
X112160988Y-129040023D01*
X112157001Y-128956707D01*
X112176693Y-128869681D01*
X112221589Y-128803902D01*
X112292091Y-128759068D01*
X112388601Y-128734879D01*
X112460100Y-128730137D01*
X112538628Y-128732547D01*
G36*
X113331669Y-128745310D02*
X113416192Y-128791340D01*
X113482321Y-128864006D01*
X113513478Y-128923106D01*
X113526855Y-128975305D01*
X113535522Y-129049719D01*
X113539237Y-129135442D01*
X113537754Y-129221569D01*
X113530831Y-129297193D01*
X113522745Y-129337584D01*
X113495465Y-129392840D01*
X113448220Y-129451530D01*
X113391282Y-129502852D01*
X113334924Y-129536005D01*
X113333550Y-129536531D01*
X113263616Y-129551018D01*
X113180737Y-129551377D01*
X113101977Y-129538188D01*
X113071566Y-129527617D01*
X112993239Y-129483201D01*
X112937143Y-129425007D01*
X112900286Y-129347965D01*
X112879680Y-129247001D01*
X112875018Y-129194116D01*
X112875613Y-129127663D01*
X113054736Y-129127663D01*
X113060770Y-129224630D01*
X113078138Y-129298523D01*
X113105740Y-129345736D01*
X113125404Y-129359237D01*
X113175787Y-129368651D01*
X113235673Y-129365864D01*
X113287449Y-129352316D01*
X113301027Y-129344862D01*
X113336849Y-129301451D01*
X113360493Y-129235014D01*
X113370558Y-129154161D01*
X113365642Y-129067502D01*
X113354655Y-129015349D01*
X113323109Y-128954951D01*
X113273311Y-128917197D01*
X113213337Y-128904143D01*
X113151264Y-128917849D01*
X113103582Y-128951372D01*
X113078525Y-128979031D01*
X113063900Y-129006294D01*
X113056929Y-129043190D01*
X113054833Y-129099750D01*
X113054736Y-129127663D01*
X112875613Y-129127663D01*
X112876282Y-129052994D01*
X112899265Y-128937271D01*
X112943972Y-128846941D01*
X113010405Y-128782000D01*
X113098565Y-128742445D01*
X113117495Y-128737858D01*
X113231266Y-128727090D01*
X113331669Y-128745310D01*
X113331669Y-128745310D01*
G37*
X113331669Y-128745310D02*
X113416192Y-128791340D01*
X113482321Y-128864006D01*
X113513478Y-128923106D01*
X113526855Y-128975305D01*
X113535522Y-129049719D01*
X113539237Y-129135442D01*
X113537754Y-129221569D01*
X113530831Y-129297193D01*
X113522745Y-129337584D01*
X113495465Y-129392840D01*
X113448220Y-129451530D01*
X113391282Y-129502852D01*
X113334924Y-129536005D01*
X113333550Y-129536531D01*
X113263616Y-129551018D01*
X113180737Y-129551377D01*
X113101977Y-129538188D01*
X113071566Y-129527617D01*
X112993239Y-129483201D01*
X112937143Y-129425007D01*
X112900286Y-129347965D01*
X112879680Y-129247001D01*
X112875018Y-129194116D01*
X112875613Y-129127663D01*
X113054736Y-129127663D01*
X113060770Y-129224630D01*
X113078138Y-129298523D01*
X113105740Y-129345736D01*
X113125404Y-129359237D01*
X113175787Y-129368651D01*
X113235673Y-129365864D01*
X113287449Y-129352316D01*
X113301027Y-129344862D01*
X113336849Y-129301451D01*
X113360493Y-129235014D01*
X113370558Y-129154161D01*
X113365642Y-129067502D01*
X113354655Y-129015349D01*
X113323109Y-128954951D01*
X113273311Y-128917197D01*
X113213337Y-128904143D01*
X113151264Y-128917849D01*
X113103582Y-128951372D01*
X113078525Y-128979031D01*
X113063900Y-129006294D01*
X113056929Y-129043190D01*
X113054833Y-129099750D01*
X113054736Y-129127663D01*
X112875613Y-129127663D01*
X112876282Y-129052994D01*
X112899265Y-128937271D01*
X112943972Y-128846941D01*
X113010405Y-128782000D01*
X113098565Y-128742445D01*
X113117495Y-128737858D01*
X113231266Y-128727090D01*
X113331669Y-128745310D01*
G36*
X113840131Y-128995533D02*
X113841710Y-129118089D01*
X113847481Y-129211179D01*
X113858991Y-129278651D01*
X113877790Y-129324355D01*
X113905426Y-129352139D01*
X113943448Y-129365854D01*
X113990526Y-129369358D01*
X114039832Y-129365432D01*
X114077283Y-129351089D01*
X114104428Y-129322478D01*
X114122815Y-129275751D01*
X114133993Y-129207058D01*
X114139511Y-129112550D01*
X114140921Y-128995533D01*
X114140921Y-128735421D01*
X114324736Y-128735421D01*
X114324736Y-129537526D01*
X114232828Y-129537526D01*
X114177422Y-129535281D01*
X114148891Y-129527396D01*
X114140921Y-129512428D01*
X114136120Y-129499097D01*
X114117014Y-129501917D01*
X114078504Y-129520783D01*
X113990239Y-129549887D01*
X113896623Y-129547825D01*
X113806921Y-129516221D01*
X113764204Y-129491257D01*
X113731621Y-129464226D01*
X113707817Y-129430405D01*
X113691439Y-129385068D01*
X113681131Y-129323489D01*
X113675541Y-129240943D01*
X113673312Y-129132705D01*
X113673026Y-129049004D01*
X113673026Y-128735421D01*
X113840131Y-128735421D01*
X113840131Y-128995533D01*
X113840131Y-128995533D01*
G37*
X113840131Y-128995533D02*
X113841710Y-129118089D01*
X113847481Y-129211179D01*
X113858991Y-129278651D01*
X113877790Y-129324355D01*
X113905426Y-129352139D01*
X113943448Y-129365854D01*
X113990526Y-129369358D01*
X114039832Y-129365432D01*
X114077283Y-129351089D01*
X114104428Y-129322478D01*
X114122815Y-129275751D01*
X114133993Y-129207058D01*
X114139511Y-129112550D01*
X114140921Y-128995533D01*
X114140921Y-128735421D01*
X114324736Y-128735421D01*
X114324736Y-129537526D01*
X114232828Y-129537526D01*
X114177422Y-129535281D01*
X114148891Y-129527396D01*
X114140921Y-129512428D01*
X114136120Y-129499097D01*
X114117014Y-129501917D01*
X114078504Y-129520783D01*
X113990239Y-129549887D01*
X113896623Y-129547825D01*
X113806921Y-129516221D01*
X113764204Y-129491257D01*
X113731621Y-129464226D01*
X113707817Y-129430405D01*
X113691439Y-129385068D01*
X113681131Y-129323489D01*
X113675541Y-129240943D01*
X113673312Y-129132705D01*
X113673026Y-129049004D01*
X113673026Y-128735421D01*
X113840131Y-128735421D01*
X113840131Y-128995533D01*
G36*
X115466576Y-128742419D02*
X115563395Y-128783549D01*
X115593890Y-128803571D01*
X115632865Y-128834340D01*
X115657331Y-128858533D01*
X115661578Y-128866413D01*
X115649584Y-128883899D01*
X115618887Y-128913570D01*
X115594312Y-128934279D01*
X115527046Y-128988336D01*
X115473930Y-128943642D01*
X115432884Y-128914789D01*
X115392863Y-128904829D01*
X115347059Y-128907261D01*
X115274324Y-128925345D01*
X115224256Y-128962881D01*
X115193829Y-129023562D01*
X115180017Y-129111081D01*
X115180013Y-129111136D01*
X115181208Y-129208958D01*
X115199772Y-129280730D01*
X115236804Y-129329595D01*
X115262050Y-129346143D01*
X115329097Y-129366749D01*
X115400709Y-129366762D01*
X115463015Y-129346768D01*
X115477763Y-129337000D01*
X115514750Y-129312047D01*
X115543668Y-129307958D01*
X115574856Y-129326530D01*
X115609336Y-129359887D01*
X115663912Y-129416196D01*
X115603318Y-129466142D01*
X115509698Y-129522513D01*
X115404125Y-129550293D01*
X115293798Y-129548282D01*
X115221343Y-129529862D01*
X115136656Y-129484310D01*
X115068927Y-129412650D01*
X115038157Y-129362066D01*
X115013236Y-129289488D01*
X115000766Y-129197569D01*
X115000670Y-129097948D01*
X115012870Y-129002267D01*
X115037290Y-128922169D01*
X115041136Y-128913956D01*
X115098093Y-128833413D01*
X115175209Y-128774771D01*
X115266390Y-128739247D01*
X115365543Y-128728057D01*
X115466576Y-128742419D01*
X115466576Y-128742419D01*
G37*
X115466576Y-128742419D02*
X115563395Y-128783549D01*
X115593890Y-128803571D01*
X115632865Y-128834340D01*
X115657331Y-128858533D01*
X115661578Y-128866413D01*
X115649584Y-128883899D01*
X115618887Y-128913570D01*
X115594312Y-128934279D01*
X115527046Y-128988336D01*
X115473930Y-128943642D01*
X115432884Y-128914789D01*
X115392863Y-128904829D01*
X115347059Y-128907261D01*
X115274324Y-128925345D01*
X115224256Y-128962881D01*
X115193829Y-129023562D01*
X115180017Y-129111081D01*
X115180013Y-129111136D01*
X115181208Y-129208958D01*
X115199772Y-129280730D01*
X115236804Y-129329595D01*
X115262050Y-129346143D01*
X115329097Y-129366749D01*
X115400709Y-129366762D01*
X115463015Y-129346768D01*
X115477763Y-129337000D01*
X115514750Y-129312047D01*
X115543668Y-129307958D01*
X115574856Y-129326530D01*
X115609336Y-129359887D01*
X115663912Y-129416196D01*
X115603318Y-129466142D01*
X115509698Y-129522513D01*
X115404125Y-129550293D01*
X115293798Y-129548282D01*
X115221343Y-129529862D01*
X115136656Y-129484310D01*
X115068927Y-129412650D01*
X115038157Y-129362066D01*
X115013236Y-129289488D01*
X115000766Y-129197569D01*
X115000670Y-129097948D01*
X115012870Y-129002267D01*
X115037290Y-128922169D01*
X115041136Y-128913956D01*
X115098093Y-128833413D01*
X115175209Y-128774771D01*
X115266390Y-128739247D01*
X115365543Y-128728057D01*
X115466576Y-128742419D01*
G36*
X116078784Y-128732554D02*
X116121574Y-128742949D01*
X116203609Y-128781013D01*
X116273757Y-128839149D01*
X116322305Y-128908852D01*
X116328975Y-128924502D01*
X116338124Y-128965496D01*
X116344529Y-129026138D01*
X116346710Y-129087430D01*
X116346710Y-129203316D01*
X116104407Y-129203316D01*
X116004471Y-129203693D01*
X115934069Y-129205987D01*
X115889313Y-129211938D01*
X115866315Y-129223285D01*
X115861189Y-129241771D01*
X115870048Y-129269136D01*
X115885917Y-129301155D01*
X115930184Y-129354592D01*
X115991699Y-129381215D01*
X116066885Y-129380347D01*
X116152053Y-129351371D01*
X116225659Y-129315611D01*
X116286734Y-129363904D01*
X116347810Y-129412197D01*
X116290351Y-129465285D01*
X116213641Y-129515445D01*
X116119302Y-129545688D01*
X116017827Y-129554151D01*
X115919711Y-129538974D01*
X115903881Y-129533824D01*
X115817647Y-129488791D01*
X115753501Y-129421652D01*
X115710091Y-129330405D01*
X115686064Y-129213044D01*
X115685784Y-129210529D01*
X115683633Y-129082627D01*
X115692329Y-129036997D01*
X115862105Y-129036997D01*
X115877697Y-129044013D01*
X115920029Y-129049388D01*
X115982434Y-129052457D01*
X116021981Y-129052921D01*
X116095728Y-129052630D01*
X116141840Y-129050783D01*
X116166100Y-129045912D01*
X116174294Y-129036555D01*
X116172206Y-129021245D01*
X116170455Y-129015322D01*
X116140560Y-128959668D01*
X116093542Y-128914815D01*
X116052049Y-128895105D01*
X115996926Y-128896295D01*
X115941068Y-128920875D01*
X115894212Y-128961570D01*
X115866094Y-129011108D01*
X115862105Y-129036997D01*
X115692329Y-129036997D01*
X115705074Y-128970133D01*
X115747611Y-128875727D01*
X115808747Y-128802088D01*
X115885985Y-128751893D01*
X115976830Y-128727822D01*
X116078784Y-128732554D01*
X116078784Y-128732554D01*
G37*
X116078784Y-128732554D02*
X116121574Y-128742949D01*
X116203609Y-128781013D01*
X116273757Y-128839149D01*
X116322305Y-128908852D01*
X116328975Y-128924502D01*
X116338124Y-128965496D01*
X116344529Y-129026138D01*
X116346710Y-129087430D01*
X116346710Y-129203316D01*
X116104407Y-129203316D01*
X116004471Y-129203693D01*
X115934069Y-129205987D01*
X115889313Y-129211938D01*
X115866315Y-129223285D01*
X115861189Y-129241771D01*
X115870048Y-129269136D01*
X115885917Y-129301155D01*
X115930184Y-129354592D01*
X115991699Y-129381215D01*
X116066885Y-129380347D01*
X116152053Y-129351371D01*
X116225659Y-129315611D01*
X116286734Y-129363904D01*
X116347810Y-129412197D01*
X116290351Y-129465285D01*
X116213641Y-129515445D01*
X116119302Y-129545688D01*
X116017827Y-129554151D01*
X115919711Y-129538974D01*
X115903881Y-129533824D01*
X115817647Y-129488791D01*
X115753501Y-129421652D01*
X115710091Y-129330405D01*
X115686064Y-129213044D01*
X115685784Y-129210529D01*
X115683633Y-129082627D01*
X115692329Y-129036997D01*
X115862105Y-129036997D01*
X115877697Y-129044013D01*
X115920029Y-129049388D01*
X115982434Y-129052457D01*
X116021981Y-129052921D01*
X116095728Y-129052630D01*
X116141840Y-129050783D01*
X116166100Y-129045912D01*
X116174294Y-129036555D01*
X116172206Y-129021245D01*
X116170455Y-129015322D01*
X116140560Y-128959668D01*
X116093542Y-128914815D01*
X116052049Y-128895105D01*
X115996926Y-128896295D01*
X115941068Y-128920875D01*
X115894212Y-128961570D01*
X115866094Y-129011108D01*
X115862105Y-129036997D01*
X115692329Y-129036997D01*
X115705074Y-128970133D01*
X115747611Y-128875727D01*
X115808747Y-128802088D01*
X115885985Y-128751893D01*
X115976830Y-128727822D01*
X116078784Y-128732554D01*
G36*
X111517957Y-128749226D02*
X111559546Y-128769090D01*
X111599825Y-128797784D01*
X111630510Y-128830809D01*
X111652861Y-128872931D01*
X111668136Y-128928915D01*
X111677592Y-129003528D01*
X111682487Y-129101535D01*
X111684081Y-129227702D01*
X111684106Y-129240914D01*
X111684473Y-129537526D01*
X111500657Y-129537526D01*
X111500657Y-129264081D01*
X111500527Y-129162777D01*
X111499621Y-129089353D01*
X111497173Y-129038271D01*
X111492414Y-129003990D01*
X111484574Y-128980971D01*
X111472885Y-128963673D01*
X111456602Y-128946581D01*
X111399634Y-128909857D01*
X111337445Y-128903042D01*
X111278199Y-128926261D01*
X111257595Y-128943543D01*
X111242470Y-128959791D01*
X111231610Y-128977191D01*
X111224310Y-129001212D01*
X111219863Y-129037322D01*
X111217564Y-129090988D01*
X111216704Y-129167680D01*
X111216578Y-129261043D01*
X111216578Y-129537526D01*
X111032763Y-129537526D01*
X111032763Y-128735421D01*
X111124671Y-128735421D01*
X111179851Y-128737603D01*
X111208320Y-128745351D01*
X111216575Y-128760468D01*
X111216578Y-128760916D01*
X111220408Y-128775720D01*
X111237301Y-128774040D01*
X111270888Y-128757773D01*
X111347063Y-128733840D01*
X111434200Y-128731178D01*
X111517957Y-128749226D01*
X111517957Y-128749226D01*
G37*
X111517957Y-128749226D02*
X111559546Y-128769090D01*
X111599825Y-128797784D01*
X111630510Y-128830809D01*
X111652861Y-128872931D01*
X111668136Y-128928915D01*
X111677592Y-129003528D01*
X111682487Y-129101535D01*
X111684081Y-129227702D01*
X111684106Y-129240914D01*
X111684473Y-129537526D01*
X111500657Y-129537526D01*
X111500657Y-129264081D01*
X111500527Y-129162777D01*
X111499621Y-129089353D01*
X111497173Y-129038271D01*
X111492414Y-129003990D01*
X111484574Y-128980971D01*
X111472885Y-128963673D01*
X111456602Y-128946581D01*
X111399634Y-128909857D01*
X111337445Y-128903042D01*
X111278199Y-128926261D01*
X111257595Y-128943543D01*
X111242470Y-128959791D01*
X111231610Y-128977191D01*
X111224310Y-129001212D01*
X111219863Y-129037322D01*
X111217564Y-129090988D01*
X111216704Y-129167680D01*
X111216578Y-129261043D01*
X111216578Y-129537526D01*
X111032763Y-129537526D01*
X111032763Y-128735421D01*
X111124671Y-128735421D01*
X111179851Y-128737603D01*
X111208320Y-128745351D01*
X111216575Y-128760468D01*
X111216578Y-128760916D01*
X111220408Y-128775720D01*
X111237301Y-128774040D01*
X111270888Y-128757773D01*
X111347063Y-128733840D01*
X111434200Y-128731178D01*
X111517957Y-128749226D01*
G36*
X114911388Y-128734645D02*
X114968865Y-128752206D01*
X115005872Y-128774395D01*
X115017927Y-128791942D01*
X115014609Y-128812742D01*
X114993079Y-128845419D01*
X114974874Y-128868562D01*
X114937344Y-128910402D01*
X114909148Y-128928005D01*
X114885111Y-128926856D01*
X114813808Y-128908710D01*
X114761442Y-128909534D01*
X114718918Y-128930098D01*
X114704642Y-128942134D01*
X114658947Y-128984483D01*
X114658947Y-129537526D01*
X114475131Y-129537526D01*
X114475131Y-128735421D01*
X114567039Y-128735421D01*
X114622219Y-128737603D01*
X114650688Y-128745351D01*
X114658943Y-128760468D01*
X114658947Y-128760916D01*
X114662845Y-128776749D01*
X114680474Y-128774684D01*
X114704901Y-128763261D01*
X114755350Y-128742005D01*
X114796316Y-128729216D01*
X114849028Y-128725938D01*
X114911388Y-128734645D01*
X114911388Y-128734645D01*
G37*
X114911388Y-128734645D02*
X114968865Y-128752206D01*
X115005872Y-128774395D01*
X115017927Y-128791942D01*
X115014609Y-128812742D01*
X114993079Y-128845419D01*
X114974874Y-128868562D01*
X114937344Y-128910402D01*
X114909148Y-128928005D01*
X114885111Y-128926856D01*
X114813808Y-128908710D01*
X114761442Y-128909534D01*
X114718918Y-128930098D01*
X114704642Y-128942134D01*
X114658947Y-128984483D01*
X114658947Y-129537526D01*
X114475131Y-129537526D01*
X114475131Y-128735421D01*
X114567039Y-128735421D01*
X114622219Y-128737603D01*
X114650688Y-128745351D01*
X114658943Y-128760468D01*
X114658947Y-128760916D01*
X114662845Y-128776749D01*
X114680474Y-128774684D01*
X114704901Y-128763261D01*
X114755350Y-128742005D01*
X114796316Y-128729216D01*
X114849028Y-128725938D01*
X114911388Y-128734645D01*
G36*
X113020964Y-123195576D02*
X113096513Y-123596322D01*
X113654041Y-123826154D01*
X113988465Y-123598748D01*
X114082122Y-123535431D01*
X114166782Y-123478896D01*
X114238495Y-123431727D01*
X114293311Y-123396502D01*
X114327280Y-123375805D01*
X114336530Y-123371342D01*
X114353195Y-123382820D01*
X114388806Y-123414551D01*
X114439371Y-123462483D01*
X114500900Y-123522562D01*
X114569399Y-123590733D01*
X114640879Y-123662945D01*
X114711347Y-123735142D01*
X114776811Y-123803273D01*
X114833280Y-123863283D01*
X114876763Y-123911119D01*
X114903268Y-123942727D01*
X114909605Y-123953305D01*
X114900486Y-123972806D01*
X114874920Y-124015531D01*
X114835597Y-124077298D01*
X114785203Y-124153931D01*
X114726427Y-124241248D01*
X114692368Y-124291052D01*
X114630289Y-124381993D01*
X114575126Y-124464059D01*
X114529554Y-124533163D01*
X114496250Y-124585222D01*
X114477890Y-124616150D01*
X114475131Y-124622650D01*
X114481385Y-124641121D01*
X114498434Y-124684172D01*
X114523703Y-124745749D01*
X114554622Y-124819799D01*
X114588618Y-124900270D01*
X114623118Y-124981107D01*
X114655551Y-125056258D01*
X114683343Y-125119671D01*
X114703923Y-125165293D01*
X114714719Y-125187069D01*
X114715356Y-125187926D01*
X114732307Y-125192084D01*
X114777451Y-125201361D01*
X114846110Y-125214844D01*
X114933602Y-125231621D01*
X115035250Y-125250781D01*
X115094556Y-125261830D01*
X115203172Y-125282510D01*
X115301277Y-125302189D01*
X115383909Y-125319789D01*
X115446104Y-125334233D01*
X115482899Y-125344446D01*
X115490296Y-125347686D01*
X115497540Y-125369617D01*
X115503385Y-125419147D01*
X115507835Y-125490485D01*
X115510893Y-125577839D01*
X115512565Y-125675417D01*
X115512853Y-125777426D01*
X115511761Y-125878075D01*
X115509294Y-125971572D01*
X115505456Y-126052125D01*
X115500250Y-126113942D01*
X115493681Y-126151230D01*
X115489741Y-126158993D01*
X115466188Y-126168298D01*
X115416282Y-126181600D01*
X115346623Y-126197337D01*
X115263813Y-126213946D01*
X115234905Y-126219319D01*
X115095531Y-126244848D01*
X114985436Y-126265408D01*
X114900982Y-126281815D01*
X114838530Y-126294887D01*
X114794444Y-126305441D01*
X114765085Y-126314294D01*
X114746815Y-126322263D01*
X114735998Y-126330165D01*
X114734485Y-126331727D01*
X114719377Y-126356886D01*
X114696329Y-126405850D01*
X114667644Y-126472621D01*
X114635622Y-126551205D01*
X114602565Y-126635607D01*
X114570773Y-126719830D01*
X114542549Y-126797879D01*
X114520193Y-126863759D01*
X114506007Y-126911473D01*
X114502293Y-126935027D01*
X114502602Y-126935852D01*
X114515189Y-126955104D01*
X114543744Y-126997463D01*
X114585267Y-127058521D01*
X114636756Y-127133868D01*
X114695211Y-127219096D01*
X114711858Y-127243315D01*
X114771215Y-127331123D01*
X114823447Y-127411238D01*
X114865708Y-127479062D01*
X114895153Y-127529993D01*
X114908937Y-127559431D01*
X114909605Y-127563048D01*
X114898024Y-127582057D01*
X114866024Y-127619714D01*
X114817718Y-127671973D01*
X114757220Y-127734786D01*
X114688644Y-127804106D01*
X114616104Y-127875885D01*
X114543712Y-127946077D01*
X114475584Y-128010635D01*
X114415832Y-128065510D01*
X114368571Y-128106656D01*
X114337913Y-128130026D01*
X114329432Y-128133842D01*
X114309691Y-128124855D01*
X114269274Y-128100616D01*
X114214763Y-128065209D01*
X114172823Y-128036711D01*
X114096829Y-127984418D01*
X114006834Y-127922845D01*
X113916564Y-127861370D01*
X113868032Y-127828469D01*
X113703762Y-127717359D01*
X113565869Y-127791916D01*
X113503049Y-127824578D01*
X113449629Y-127849966D01*
X113413484Y-127864446D01*
X113404284Y-127866460D01*
X113393221Y-127851584D01*
X113371394Y-127809547D01*
X113340434Y-127744227D01*
X113301970Y-127659500D01*
X113257632Y-127559245D01*
X113209047Y-127447339D01*
X113157846Y-127327659D01*
X113105659Y-127204084D01*
X113054113Y-127080491D01*
X113004840Y-126960757D01*
X112959467Y-126848759D01*
X112919625Y-126748377D01*
X112886942Y-126663486D01*
X112863049Y-126597965D01*
X112849574Y-126555690D01*
X112847406Y-126541172D01*
X112864583Y-126522653D01*
X112902190Y-126492590D01*
X112952366Y-126457232D01*
X112956578Y-126454434D01*
X113086264Y-126350625D01*
X113190834Y-126229515D01*
X113269381Y-126094976D01*
X113320999Y-125950882D01*
X113344782Y-125801105D01*
X113339823Y-125649517D01*
X113305217Y-125499992D01*
X113240057Y-125356400D01*
X113220886Y-125324984D01*
X113121174Y-125198125D01*
X113003377Y-125096255D01*
X112871571Y-125019904D01*
X112729833Y-124969602D01*
X112582242Y-124945879D01*
X112432873Y-124949265D01*
X112285803Y-124980288D01*
X112145111Y-125039480D01*
X112014873Y-125127369D01*
X111974586Y-125163042D01*
X111872055Y-125274706D01*
X111797341Y-125392257D01*
X111746090Y-125524020D01*
X111717546Y-125654507D01*
X111710500Y-125801216D01*
X111733996Y-125948653D01*
X111785649Y-126091834D01*
X111863071Y-126225777D01*
X111963875Y-126345498D01*
X112085676Y-126446014D01*
X112101684Y-126456609D01*
X112152398Y-126491306D01*
X112190950Y-126521370D01*
X112209381Y-126540565D01*
X112209649Y-126541172D01*
X112205692Y-126561936D01*
X112190007Y-126609062D01*
X112164222Y-126678673D01*
X112129969Y-126766893D01*
X112088877Y-126869844D01*
X112042576Y-126983650D01*
X111992696Y-127104435D01*
X111940867Y-127228321D01*
X111888719Y-127351432D01*
X111837882Y-127469891D01*
X111789987Y-127579823D01*
X111746662Y-127677349D01*
X111709538Y-127758593D01*
X111680244Y-127819679D01*
X111660412Y-127856730D01*
X111652426Y-127866460D01*
X111628021Y-127858883D01*
X111582358Y-127838560D01*
X111523310Y-127809125D01*
X111490840Y-127791916D01*
X111352947Y-127717359D01*
X111188677Y-127828469D01*
X111104821Y-127885390D01*
X111013013Y-127948030D01*
X110926980Y-128007011D01*
X110883887Y-128036711D01*
X110823277Y-128077410D01*
X110771955Y-128109663D01*
X110736615Y-128129384D01*
X110725137Y-128133554D01*
X110708430Y-128122307D01*
X110671454Y-128090911D01*
X110617795Y-128042624D01*
X110551038Y-127980708D01*
X110474766Y-127908421D01*
X110426527Y-127862008D01*
X110342133Y-127779087D01*
X110269197Y-127704920D01*
X110210669Y-127642680D01*
X110169497Y-127595541D01*
X110148628Y-127566673D01*
X110146626Y-127560815D01*
X110155917Y-127538532D01*
X110181591Y-127493477D01*
X110220800Y-127430211D01*
X110270697Y-127353295D01*
X110328433Y-127267292D01*
X110344851Y-127243315D01*
X110404677Y-127156170D01*
X110458350Y-127077710D01*
X110502870Y-127012345D01*
X110535235Y-126964484D01*
X110552445Y-126938535D01*
X110554107Y-126935852D01*
X110551621Y-126915172D01*
X110538423Y-126869704D01*
X110516814Y-126805444D01*
X110489096Y-126728387D01*
X110457570Y-126644529D01*
X110424537Y-126559866D01*
X110392299Y-126480392D01*
X110363157Y-126412104D01*
X110339412Y-126360997D01*
X110323365Y-126333067D01*
X110322225Y-126331727D01*
X110312412Y-126323745D01*
X110295839Y-126315851D01*
X110268868Y-126307229D01*
X110227861Y-126297062D01*
X110169180Y-126284531D01*
X110089187Y-126268821D01*
X109984245Y-126249113D01*
X109850715Y-126224592D01*
X109821804Y-126219319D01*
X109736118Y-126202764D01*
X109661418Y-126186569D01*
X109604306Y-126172296D01*
X109571383Y-126161508D01*
X109566969Y-126158993D01*
X109559694Y-126136696D01*
X109553781Y-126086869D01*
X109549234Y-126015304D01*
X109546055Y-125927793D01*
X109544251Y-125830128D01*
X109543823Y-125728101D01*
X109544777Y-125627503D01*
X109547116Y-125534127D01*
X109550844Y-125453765D01*
X109555966Y-125392209D01*
X109562484Y-125355250D01*
X109566414Y-125347686D01*
X109588292Y-125340056D01*
X109638109Y-125327642D01*
X109710903Y-125311522D01*
X109801711Y-125292773D01*
X109905569Y-125272471D01*
X109962154Y-125261830D01*
X110069514Y-125241760D01*
X110165254Y-125223580D01*
X110244694Y-125208199D01*
X110303154Y-125196531D01*
X110335955Y-125189488D01*
X110341354Y-125187926D01*
X110350478Y-125170322D01*
X110369765Y-125127918D01*
X110396645Y-125066772D01*
X110428546Y-124992943D01*
X110462898Y-124912489D01*
X110497129Y-124831468D01*
X110528669Y-124755937D01*
X110554946Y-124691955D01*
X110573389Y-124645580D01*
X110581429Y-124622869D01*
X110581578Y-124621876D01*
X110572465Y-124603961D01*
X110546914Y-124562733D01*
X110507612Y-124502291D01*
X110457243Y-124426731D01*
X110398494Y-124340152D01*
X110364342Y-124290421D01*
X110302110Y-124199236D01*
X110246836Y-124116449D01*
X110201218Y-124046249D01*
X110167952Y-123992824D01*
X110149736Y-123960361D01*
X110147105Y-123953083D01*
X110158414Y-123936145D01*
X110189681Y-123899978D01*
X110236910Y-123848635D01*
X110296108Y-123786167D01*
X110363281Y-123716626D01*
X110434434Y-123644065D01*
X110505574Y-123572535D01*
X110572707Y-123506087D01*
X110631839Y-123448774D01*
X110678975Y-123404647D01*
X110710123Y-123377759D01*
X110720543Y-123371342D01*
X110737509Y-123380365D01*
X110778089Y-123405715D01*
X110838337Y-123444810D01*
X110914307Y-123495071D01*
X111002054Y-123553917D01*
X111068244Y-123598748D01*
X111402668Y-123826154D01*
X111681433Y-123711238D01*
X111960197Y-123596322D01*
X112035746Y-123195576D01*
X112111294Y-122794829D01*
X112945415Y-122794829D01*
X113020964Y-123195576D01*
X113020964Y-123195576D01*
G37*
X113020964Y-123195576D02*
X113096513Y-123596322D01*
X113654041Y-123826154D01*
X113988465Y-123598748D01*
X114082122Y-123535431D01*
X114166782Y-123478896D01*
X114238495Y-123431727D01*
X114293311Y-123396502D01*
X114327280Y-123375805D01*
X114336530Y-123371342D01*
X114353195Y-123382820D01*
X114388806Y-123414551D01*
X114439371Y-123462483D01*
X114500900Y-123522562D01*
X114569399Y-123590733D01*
X114640879Y-123662945D01*
X114711347Y-123735142D01*
X114776811Y-123803273D01*
X114833280Y-123863283D01*
X114876763Y-123911119D01*
X114903268Y-123942727D01*
X114909605Y-123953305D01*
X114900486Y-123972806D01*
X114874920Y-124015531D01*
X114835597Y-124077298D01*
X114785203Y-124153931D01*
X114726427Y-124241248D01*
X114692368Y-124291052D01*
X114630289Y-124381993D01*
X114575126Y-124464059D01*
X114529554Y-124533163D01*
X114496250Y-124585222D01*
X114477890Y-124616150D01*
X114475131Y-124622650D01*
X114481385Y-124641121D01*
X114498434Y-124684172D01*
X114523703Y-124745749D01*
X114554622Y-124819799D01*
X114588618Y-124900270D01*
X114623118Y-124981107D01*
X114655551Y-125056258D01*
X114683343Y-125119671D01*
X114703923Y-125165293D01*
X114714719Y-125187069D01*
X114715356Y-125187926D01*
X114732307Y-125192084D01*
X114777451Y-125201361D01*
X114846110Y-125214844D01*
X114933602Y-125231621D01*
X115035250Y-125250781D01*
X115094556Y-125261830D01*
X115203172Y-125282510D01*
X115301277Y-125302189D01*
X115383909Y-125319789D01*
X115446104Y-125334233D01*
X115482899Y-125344446D01*
X115490296Y-125347686D01*
X115497540Y-125369617D01*
X115503385Y-125419147D01*
X115507835Y-125490485D01*
X115510893Y-125577839D01*
X115512565Y-125675417D01*
X115512853Y-125777426D01*
X115511761Y-125878075D01*
X115509294Y-125971572D01*
X115505456Y-126052125D01*
X115500250Y-126113942D01*
X115493681Y-126151230D01*
X115489741Y-126158993D01*
X115466188Y-126168298D01*
X115416282Y-126181600D01*
X115346623Y-126197337D01*
X115263813Y-126213946D01*
X115234905Y-126219319D01*
X115095531Y-126244848D01*
X114985436Y-126265408D01*
X114900982Y-126281815D01*
X114838530Y-126294887D01*
X114794444Y-126305441D01*
X114765085Y-126314294D01*
X114746815Y-126322263D01*
X114735998Y-126330165D01*
X114734485Y-126331727D01*
X114719377Y-126356886D01*
X114696329Y-126405850D01*
X114667644Y-126472621D01*
X114635622Y-126551205D01*
X114602565Y-126635607D01*
X114570773Y-126719830D01*
X114542549Y-126797879D01*
X114520193Y-126863759D01*
X114506007Y-126911473D01*
X114502293Y-126935027D01*
X114502602Y-126935852D01*
X114515189Y-126955104D01*
X114543744Y-126997463D01*
X114585267Y-127058521D01*
X114636756Y-127133868D01*
X114695211Y-127219096D01*
X114711858Y-127243315D01*
X114771215Y-127331123D01*
X114823447Y-127411238D01*
X114865708Y-127479062D01*
X114895153Y-127529993D01*
X114908937Y-127559431D01*
X114909605Y-127563048D01*
X114898024Y-127582057D01*
X114866024Y-127619714D01*
X114817718Y-127671973D01*
X114757220Y-127734786D01*
X114688644Y-127804106D01*
X114616104Y-127875885D01*
X114543712Y-127946077D01*
X114475584Y-128010635D01*
X114415832Y-128065510D01*
X114368571Y-128106656D01*
X114337913Y-128130026D01*
X114329432Y-128133842D01*
X114309691Y-128124855D01*
X114269274Y-128100616D01*
X114214763Y-128065209D01*
X114172823Y-128036711D01*
X114096829Y-127984418D01*
X114006834Y-127922845D01*
X113916564Y-127861370D01*
X113868032Y-127828469D01*
X113703762Y-127717359D01*
X113565869Y-127791916D01*
X113503049Y-127824578D01*
X113449629Y-127849966D01*
X113413484Y-127864446D01*
X113404284Y-127866460D01*
X113393221Y-127851584D01*
X113371394Y-127809547D01*
X113340434Y-127744227D01*
X113301970Y-127659500D01*
X113257632Y-127559245D01*
X113209047Y-127447339D01*
X113157846Y-127327659D01*
X113105659Y-127204084D01*
X113054113Y-127080491D01*
X113004840Y-126960757D01*
X112959467Y-126848759D01*
X112919625Y-126748377D01*
X112886942Y-126663486D01*
X112863049Y-126597965D01*
X112849574Y-126555690D01*
X112847406Y-126541172D01*
X112864583Y-126522653D01*
X112902190Y-126492590D01*
X112952366Y-126457232D01*
X112956578Y-126454434D01*
X113086264Y-126350625D01*
X113190834Y-126229515D01*
X113269381Y-126094976D01*
X113320999Y-125950882D01*
X113344782Y-125801105D01*
X113339823Y-125649517D01*
X113305217Y-125499992D01*
X113240057Y-125356400D01*
X113220886Y-125324984D01*
X113121174Y-125198125D01*
X113003377Y-125096255D01*
X112871571Y-125019904D01*
X112729833Y-124969602D01*
X112582242Y-124945879D01*
X112432873Y-124949265D01*
X112285803Y-124980288D01*
X112145111Y-125039480D01*
X112014873Y-125127369D01*
X111974586Y-125163042D01*
X111872055Y-125274706D01*
X111797341Y-125392257D01*
X111746090Y-125524020D01*
X111717546Y-125654507D01*
X111710500Y-125801216D01*
X111733996Y-125948653D01*
X111785649Y-126091834D01*
X111863071Y-126225777D01*
X111963875Y-126345498D01*
X112085676Y-126446014D01*
X112101684Y-126456609D01*
X112152398Y-126491306D01*
X112190950Y-126521370D01*
X112209381Y-126540565D01*
X112209649Y-126541172D01*
X112205692Y-126561936D01*
X112190007Y-126609062D01*
X112164222Y-126678673D01*
X112129969Y-126766893D01*
X112088877Y-126869844D01*
X112042576Y-126983650D01*
X111992696Y-127104435D01*
X111940867Y-127228321D01*
X111888719Y-127351432D01*
X111837882Y-127469891D01*
X111789987Y-127579823D01*
X111746662Y-127677349D01*
X111709538Y-127758593D01*
X111680244Y-127819679D01*
X111660412Y-127856730D01*
X111652426Y-127866460D01*
X111628021Y-127858883D01*
X111582358Y-127838560D01*
X111523310Y-127809125D01*
X111490840Y-127791916D01*
X111352947Y-127717359D01*
X111188677Y-127828469D01*
X111104821Y-127885390D01*
X111013013Y-127948030D01*
X110926980Y-128007011D01*
X110883887Y-128036711D01*
X110823277Y-128077410D01*
X110771955Y-128109663D01*
X110736615Y-128129384D01*
X110725137Y-128133554D01*
X110708430Y-128122307D01*
X110671454Y-128090911D01*
X110617795Y-128042624D01*
X110551038Y-127980708D01*
X110474766Y-127908421D01*
X110426527Y-127862008D01*
X110342133Y-127779087D01*
X110269197Y-127704920D01*
X110210669Y-127642680D01*
X110169497Y-127595541D01*
X110148628Y-127566673D01*
X110146626Y-127560815D01*
X110155917Y-127538532D01*
X110181591Y-127493477D01*
X110220800Y-127430211D01*
X110270697Y-127353295D01*
X110328433Y-127267292D01*
X110344851Y-127243315D01*
X110404677Y-127156170D01*
X110458350Y-127077710D01*
X110502870Y-127012345D01*
X110535235Y-126964484D01*
X110552445Y-126938535D01*
X110554107Y-126935852D01*
X110551621Y-126915172D01*
X110538423Y-126869704D01*
X110516814Y-126805444D01*
X110489096Y-126728387D01*
X110457570Y-126644529D01*
X110424537Y-126559866D01*
X110392299Y-126480392D01*
X110363157Y-126412104D01*
X110339412Y-126360997D01*
X110323365Y-126333067D01*
X110322225Y-126331727D01*
X110312412Y-126323745D01*
X110295839Y-126315851D01*
X110268868Y-126307229D01*
X110227861Y-126297062D01*
X110169180Y-126284531D01*
X110089187Y-126268821D01*
X109984245Y-126249113D01*
X109850715Y-126224592D01*
X109821804Y-126219319D01*
X109736118Y-126202764D01*
X109661418Y-126186569D01*
X109604306Y-126172296D01*
X109571383Y-126161508D01*
X109566969Y-126158993D01*
X109559694Y-126136696D01*
X109553781Y-126086869D01*
X109549234Y-126015304D01*
X109546055Y-125927793D01*
X109544251Y-125830128D01*
X109543823Y-125728101D01*
X109544777Y-125627503D01*
X109547116Y-125534127D01*
X109550844Y-125453765D01*
X109555966Y-125392209D01*
X109562484Y-125355250D01*
X109566414Y-125347686D01*
X109588292Y-125340056D01*
X109638109Y-125327642D01*
X109710903Y-125311522D01*
X109801711Y-125292773D01*
X109905569Y-125272471D01*
X109962154Y-125261830D01*
X110069514Y-125241760D01*
X110165254Y-125223580D01*
X110244694Y-125208199D01*
X110303154Y-125196531D01*
X110335955Y-125189488D01*
X110341354Y-125187926D01*
X110350478Y-125170322D01*
X110369765Y-125127918D01*
X110396645Y-125066772D01*
X110428546Y-124992943D01*
X110462898Y-124912489D01*
X110497129Y-124831468D01*
X110528669Y-124755937D01*
X110554946Y-124691955D01*
X110573389Y-124645580D01*
X110581429Y-124622869D01*
X110581578Y-124621876D01*
X110572465Y-124603961D01*
X110546914Y-124562733D01*
X110507612Y-124502291D01*
X110457243Y-124426731D01*
X110398494Y-124340152D01*
X110364342Y-124290421D01*
X110302110Y-124199236D01*
X110246836Y-124116449D01*
X110201218Y-124046249D01*
X110167952Y-123992824D01*
X110149736Y-123960361D01*
X110147105Y-123953083D01*
X110158414Y-123936145D01*
X110189681Y-123899978D01*
X110236910Y-123848635D01*
X110296108Y-123786167D01*
X110363281Y-123716626D01*
X110434434Y-123644065D01*
X110505574Y-123572535D01*
X110572707Y-123506087D01*
X110631839Y-123448774D01*
X110678975Y-123404647D01*
X110710123Y-123377759D01*
X110720543Y-123371342D01*
X110737509Y-123380365D01*
X110778089Y-123405715D01*
X110838337Y-123444810D01*
X110914307Y-123495071D01*
X111002054Y-123553917D01*
X111068244Y-123598748D01*
X111402668Y-123826154D01*
X111681433Y-123711238D01*
X111960197Y-123596322D01*
X112035746Y-123195576D01*
X112111294Y-122794829D01*
X112945415Y-122794829D01*
X113020964Y-123195576D01*
D15*
G04 #@! TO.C,C14*
X89570000Y-119047000D02*
X88570000Y-119047000D01*
X88570000Y-120747000D02*
X89570000Y-120747000D01*
G04 #@! TO.C,C15*
X96970000Y-114647000D02*
X96970000Y-115647000D01*
X98670000Y-115647000D02*
X98670000Y-114647000D01*
G04 #@! TO.C,C16*
X105570000Y-120747000D02*
X106570000Y-120747000D01*
X106570000Y-119047000D02*
X105570000Y-119047000D01*
G04 #@! TO.C,C17*
X97570000Y-112247000D02*
X98570000Y-112247000D01*
X98570000Y-110547000D02*
X97570000Y-110547000D01*
G04 #@! TO.C,C18*
X100570000Y-120747000D02*
X101570000Y-120747000D01*
X101570000Y-119047000D02*
X100570000Y-119047000D01*
G04 #@! TO.C,C19*
X94570000Y-119047000D02*
X93570000Y-119047000D01*
X93570000Y-120747000D02*
X94570000Y-120747000D01*
G04 #@! TO.C,J8*
X133520000Y-131477000D02*
X133520000Y-128817000D01*
X123300000Y-131477000D02*
X133520000Y-131477000D01*
X123300000Y-128817000D02*
X133520000Y-128817000D01*
X123300000Y-131477000D02*
X123300000Y-128817000D01*
X122030000Y-131477000D02*
X120700000Y-131477000D01*
X120700000Y-131477000D02*
X120700000Y-130147000D01*
G04 #@! TO.C,R2*
X98670000Y-109277000D02*
X97470000Y-109277000D01*
X97470000Y-107517000D02*
X98670000Y-107517000D01*
G04 #@! TO.C,U4*
X108730000Y-111637000D02*
X107470000Y-111637000D01*
X101910000Y-111637000D02*
X103170000Y-111637000D01*
X108730000Y-115397000D02*
X108730000Y-111637000D01*
X101910000Y-117647000D02*
X101910000Y-111637000D01*
G04 #@! TO.C,J10*
X85714000Y-118121000D02*
X85714000Y-117741000D01*
X81664000Y-118121000D02*
X81404000Y-118121000D01*
X85714000Y-118121000D02*
X83944000Y-118121000D01*
X85714000Y-110501000D02*
X85714000Y-110881000D01*
X83944000Y-110501000D02*
X85714000Y-110501000D01*
X81404000Y-110501000D02*
X81664000Y-110501000D01*
G04 #@! TO.C,R3*
X109864000Y-113757000D02*
X109864000Y-112557000D01*
X111624000Y-112557000D02*
X111624000Y-113757000D01*
G04 #@! TO.C,U3*
X92674000Y-108941000D02*
X90874000Y-108941000D01*
X90874000Y-112161000D02*
X93324000Y-112161000D01*
G04 #@! TO.C,R4*
X135270000Y-122117000D02*
X136470000Y-122117000D01*
X136470000Y-123877000D02*
X135270000Y-123877000D01*
G04 #@! TO.C,J1*
X153400000Y-107977000D02*
X153400000Y-105317000D01*
X145720000Y-107977000D02*
X153400000Y-107977000D01*
X145720000Y-105317000D02*
X153400000Y-105317000D01*
X145720000Y-107977000D02*
X145720000Y-105317000D01*
X144450000Y-107977000D02*
X143120000Y-107977000D01*
X143120000Y-107977000D02*
X143120000Y-106647000D01*
G04 #@! TO.C,U2*
D14*
X87372380Y-117758904D02*
X88181904Y-117758904D01*
X88277142Y-117711285D01*
X88324761Y-117663666D01*
X88372380Y-117568428D01*
X88372380Y-117377952D01*
X88324761Y-117282714D01*
X88277142Y-117235095D01*
X88181904Y-117187476D01*
X87372380Y-117187476D01*
X87467619Y-116758904D02*
X87420000Y-116711285D01*
X87372380Y-116616047D01*
X87372380Y-116377952D01*
X87420000Y-116282714D01*
X87467619Y-116235095D01*
X87562857Y-116187476D01*
X87658095Y-116187476D01*
X87800952Y-116235095D01*
X88372380Y-116806523D01*
X88372380Y-116187476D01*
G04 #@! TO.C,0101*
X86093809Y-91380956D02*
X86189047Y-91380956D01*
X86284285Y-91428576D01*
X86331904Y-91476195D01*
X86379523Y-91571433D01*
X86427142Y-91761909D01*
X86427142Y-92000004D01*
X86379523Y-92190480D01*
X86331904Y-92285718D01*
X86284285Y-92333337D01*
X86189047Y-92380956D01*
X86093809Y-92380956D01*
X85998571Y-92333337D01*
X85950952Y-92285718D01*
X85903333Y-92190480D01*
X85855714Y-92000004D01*
X85855714Y-91761909D01*
X85903333Y-91571433D01*
X85950952Y-91476195D01*
X85998571Y-91428576D01*
X86093809Y-91380956D01*
X87379523Y-92380956D02*
X86808095Y-92380956D01*
X87093809Y-92380956D02*
X87093809Y-91380956D01*
X86998571Y-91523814D01*
X86903333Y-91619052D01*
X86808095Y-91666671D01*
X87998571Y-91380956D02*
X88093809Y-91380956D01*
X88189047Y-91428576D01*
X88236666Y-91476195D01*
X88284285Y-91571433D01*
X88331904Y-91761909D01*
X88331904Y-92000004D01*
X88284285Y-92190480D01*
X88236666Y-92285718D01*
X88189047Y-92333337D01*
X88093809Y-92380956D01*
X87998571Y-92380956D01*
X87903333Y-92333337D01*
X87855714Y-92285718D01*
X87808095Y-92190480D01*
X87760476Y-92000004D01*
X87760476Y-91761909D01*
X87808095Y-91571433D01*
X87855714Y-91476195D01*
X87903333Y-91428576D01*
X87998571Y-91380956D01*
X89284285Y-92380956D02*
X88712857Y-92380956D01*
X88998571Y-92380956D02*
X88998571Y-91380956D01*
X88903333Y-91523814D01*
X88808095Y-91619052D01*
X88712857Y-91666671D01*
G04 #@! TO.C,0001*
X103388809Y-91377956D02*
X103484047Y-91377956D01*
X103579285Y-91425576D01*
X103626904Y-91473195D01*
X103674523Y-91568433D01*
X103722142Y-91758909D01*
X103722142Y-91997004D01*
X103674523Y-92187480D01*
X103626904Y-92282718D01*
X103579285Y-92330337D01*
X103484047Y-92377956D01*
X103388809Y-92377956D01*
X103293571Y-92330337D01*
X103245952Y-92282718D01*
X103198333Y-92187480D01*
X103150714Y-91997004D01*
X103150714Y-91758909D01*
X103198333Y-91568433D01*
X103245952Y-91473195D01*
X103293571Y-91425576D01*
X103388809Y-91377956D01*
X104341190Y-91377956D02*
X104436428Y-91377956D01*
X104531666Y-91425576D01*
X104579285Y-91473195D01*
X104626904Y-91568433D01*
X104674523Y-91758909D01*
X104674523Y-91997004D01*
X104626904Y-92187480D01*
X104579285Y-92282718D01*
X104531666Y-92330337D01*
X104436428Y-92377956D01*
X104341190Y-92377956D01*
X104245952Y-92330337D01*
X104198333Y-92282718D01*
X104150714Y-92187480D01*
X104103095Y-91997004D01*
X104103095Y-91758909D01*
X104150714Y-91568433D01*
X104198333Y-91473195D01*
X104245952Y-91425576D01*
X104341190Y-91377956D01*
X105293571Y-91377956D02*
X105388809Y-91377956D01*
X105484047Y-91425576D01*
X105531666Y-91473195D01*
X105579285Y-91568433D01*
X105626904Y-91758909D01*
X105626904Y-91997004D01*
X105579285Y-92187480D01*
X105531666Y-92282718D01*
X105484047Y-92330337D01*
X105388809Y-92377956D01*
X105293571Y-92377956D01*
X105198333Y-92330337D01*
X105150714Y-92282718D01*
X105103095Y-92187480D01*
X105055476Y-91997004D01*
X105055476Y-91758909D01*
X105103095Y-91568433D01*
X105150714Y-91473195D01*
X105198333Y-91425576D01*
X105293571Y-91377956D01*
X106579285Y-92377956D02*
X106007857Y-92377956D01*
X106293571Y-92377956D02*
X106293571Y-91377956D01*
X106198333Y-91520814D01*
X106103095Y-91616052D01*
X106007857Y-91663671D01*
G04 #@! TO.C,0100*
X156728809Y-91377956D02*
X156824047Y-91377956D01*
X156919285Y-91425576D01*
X156966904Y-91473195D01*
X157014523Y-91568433D01*
X157062142Y-91758909D01*
X157062142Y-91997004D01*
X157014523Y-92187480D01*
X156966904Y-92282718D01*
X156919285Y-92330337D01*
X156824047Y-92377956D01*
X156728809Y-92377956D01*
X156633571Y-92330337D01*
X156585952Y-92282718D01*
X156538333Y-92187480D01*
X156490714Y-91997004D01*
X156490714Y-91758909D01*
X156538333Y-91568433D01*
X156585952Y-91473195D01*
X156633571Y-91425576D01*
X156728809Y-91377956D01*
X158014523Y-92377956D02*
X157443095Y-92377956D01*
X157728809Y-92377956D02*
X157728809Y-91377956D01*
X157633571Y-91520814D01*
X157538333Y-91616052D01*
X157443095Y-91663671D01*
X158633571Y-91377956D02*
X158728809Y-91377956D01*
X158824047Y-91425576D01*
X158871666Y-91473195D01*
X158919285Y-91568433D01*
X158966904Y-91758909D01*
X158966904Y-91997004D01*
X158919285Y-92187480D01*
X158871666Y-92282718D01*
X158824047Y-92330337D01*
X158728809Y-92377956D01*
X158633571Y-92377956D01*
X158538333Y-92330337D01*
X158490714Y-92282718D01*
X158443095Y-92187480D01*
X158395476Y-91997004D01*
X158395476Y-91758909D01*
X158443095Y-91568433D01*
X158490714Y-91473195D01*
X158538333Y-91425576D01*
X158633571Y-91377956D01*
X159585952Y-91377956D02*
X159681190Y-91377956D01*
X159776428Y-91425576D01*
X159824047Y-91473195D01*
X159871666Y-91568433D01*
X159919285Y-91758909D01*
X159919285Y-91997004D01*
X159871666Y-92187480D01*
X159824047Y-92282718D01*
X159776428Y-92330337D01*
X159681190Y-92377956D01*
X159585952Y-92377956D01*
X159490714Y-92330337D01*
X159443095Y-92282718D01*
X159395476Y-92187480D01*
X159347857Y-91997004D01*
X159347857Y-91758909D01*
X159395476Y-91568433D01*
X159443095Y-91473195D01*
X159490714Y-91425576D01*
X159585952Y-91377956D01*
G04 #@! TO.C,1000*
X165652142Y-92405956D02*
X165080714Y-92405956D01*
X165366428Y-92405956D02*
X165366428Y-91405956D01*
X165271190Y-91548814D01*
X165175952Y-91644052D01*
X165080714Y-91691671D01*
X166271190Y-91405956D02*
X166366428Y-91405956D01*
X166461666Y-91453576D01*
X166509285Y-91501195D01*
X166556904Y-91596433D01*
X166604523Y-91786909D01*
X166604523Y-92025004D01*
X166556904Y-92215480D01*
X166509285Y-92310718D01*
X166461666Y-92358337D01*
X166366428Y-92405956D01*
X166271190Y-92405956D01*
X166175952Y-92358337D01*
X166128333Y-92310718D01*
X166080714Y-92215480D01*
X166033095Y-92025004D01*
X166033095Y-91786909D01*
X166080714Y-91596433D01*
X166128333Y-91501195D01*
X166175952Y-91453576D01*
X166271190Y-91405956D01*
X167223571Y-91405956D02*
X167318809Y-91405956D01*
X167414047Y-91453576D01*
X167461666Y-91501195D01*
X167509285Y-91596433D01*
X167556904Y-91786909D01*
X167556904Y-92025004D01*
X167509285Y-92215480D01*
X167461666Y-92310718D01*
X167414047Y-92358337D01*
X167318809Y-92405956D01*
X167223571Y-92405956D01*
X167128333Y-92358337D01*
X167080714Y-92310718D01*
X167033095Y-92215480D01*
X166985476Y-92025004D01*
X166985476Y-91786909D01*
X167033095Y-91596433D01*
X167080714Y-91501195D01*
X167128333Y-91453576D01*
X167223571Y-91405956D01*
X168175952Y-91405956D02*
X168271190Y-91405956D01*
X168366428Y-91453576D01*
X168414047Y-91501195D01*
X168461666Y-91596433D01*
X168509285Y-91786909D01*
X168509285Y-92025004D01*
X168461666Y-92215480D01*
X168414047Y-92310718D01*
X168366428Y-92358337D01*
X168271190Y-92405956D01*
X168175952Y-92405956D01*
X168080714Y-92358337D01*
X168033095Y-92310718D01*
X167985476Y-92215480D01*
X167937857Y-92025004D01*
X167937857Y-91786909D01*
X167985476Y-91596433D01*
X168033095Y-91501195D01*
X168080714Y-91453576D01*
X168175952Y-91405956D01*
G04 #@! TO.C,1100*
X148172142Y-92377956D02*
X147600714Y-92377956D01*
X147886428Y-92377956D02*
X147886428Y-91377956D01*
X147791190Y-91520814D01*
X147695952Y-91616052D01*
X147600714Y-91663671D01*
X149124523Y-92377956D02*
X148553095Y-92377956D01*
X148838809Y-92377956D02*
X148838809Y-91377956D01*
X148743571Y-91520814D01*
X148648333Y-91616052D01*
X148553095Y-91663671D01*
X149743571Y-91377956D02*
X149838809Y-91377956D01*
X149934047Y-91425576D01*
X149981666Y-91473195D01*
X150029285Y-91568433D01*
X150076904Y-91758909D01*
X150076904Y-91997004D01*
X150029285Y-92187480D01*
X149981666Y-92282718D01*
X149934047Y-92330337D01*
X149838809Y-92377956D01*
X149743571Y-92377956D01*
X149648333Y-92330337D01*
X149600714Y-92282718D01*
X149553095Y-92187480D01*
X149505476Y-91997004D01*
X149505476Y-91758909D01*
X149553095Y-91568433D01*
X149600714Y-91473195D01*
X149648333Y-91425576D01*
X149743571Y-91377956D01*
X150695952Y-91377956D02*
X150791190Y-91377956D01*
X150886428Y-91425576D01*
X150934047Y-91473195D01*
X150981666Y-91568433D01*
X151029285Y-91758909D01*
X151029285Y-91997004D01*
X150981666Y-92187480D01*
X150934047Y-92282718D01*
X150886428Y-92330337D01*
X150791190Y-92377956D01*
X150695952Y-92377956D01*
X150600714Y-92330337D01*
X150553095Y-92282718D01*
X150505476Y-92187480D01*
X150457857Y-91997004D01*
X150457857Y-91758909D01*
X150505476Y-91568433D01*
X150553095Y-91473195D01*
X150600714Y-91425576D01*
X150695952Y-91377956D01*
G04 #@! TO.C,0010*
X138948809Y-91377956D02*
X139044047Y-91377956D01*
X139139285Y-91425576D01*
X139186904Y-91473195D01*
X139234523Y-91568433D01*
X139282142Y-91758909D01*
X139282142Y-91997004D01*
X139234523Y-92187480D01*
X139186904Y-92282718D01*
X139139285Y-92330337D01*
X139044047Y-92377956D01*
X138948809Y-92377956D01*
X138853571Y-92330337D01*
X138805952Y-92282718D01*
X138758333Y-92187480D01*
X138710714Y-91997004D01*
X138710714Y-91758909D01*
X138758333Y-91568433D01*
X138805952Y-91473195D01*
X138853571Y-91425576D01*
X138948809Y-91377956D01*
X139901190Y-91377956D02*
X139996428Y-91377956D01*
X140091666Y-91425576D01*
X140139285Y-91473195D01*
X140186904Y-91568433D01*
X140234523Y-91758909D01*
X140234523Y-91997004D01*
X140186904Y-92187480D01*
X140139285Y-92282718D01*
X140091666Y-92330337D01*
X139996428Y-92377956D01*
X139901190Y-92377956D01*
X139805952Y-92330337D01*
X139758333Y-92282718D01*
X139710714Y-92187480D01*
X139663095Y-91997004D01*
X139663095Y-91758909D01*
X139710714Y-91568433D01*
X139758333Y-91473195D01*
X139805952Y-91425576D01*
X139901190Y-91377956D01*
X141186904Y-92377956D02*
X140615476Y-92377956D01*
X140901190Y-92377956D02*
X140901190Y-91377956D01*
X140805952Y-91520814D01*
X140710714Y-91616052D01*
X140615476Y-91663671D01*
X141805952Y-91377956D02*
X141901190Y-91377956D01*
X141996428Y-91425576D01*
X142044047Y-91473195D01*
X142091666Y-91568433D01*
X142139285Y-91758909D01*
X142139285Y-91997004D01*
X142091666Y-92187480D01*
X142044047Y-92282718D01*
X141996428Y-92330337D01*
X141901190Y-92377956D01*
X141805952Y-92377956D01*
X141710714Y-92330337D01*
X141663095Y-92282718D01*
X141615476Y-92187480D01*
X141567857Y-91997004D01*
X141567857Y-91758909D01*
X141615476Y-91568433D01*
X141663095Y-91473195D01*
X141710714Y-91425576D01*
X141805952Y-91377956D01*
G04 #@! TO.C,1010*
X130392142Y-92377956D02*
X129820714Y-92377956D01*
X130106428Y-92377956D02*
X130106428Y-91377956D01*
X130011190Y-91520814D01*
X129915952Y-91616052D01*
X129820714Y-91663671D01*
X131011190Y-91377956D02*
X131106428Y-91377956D01*
X131201666Y-91425576D01*
X131249285Y-91473195D01*
X131296904Y-91568433D01*
X131344523Y-91758909D01*
X131344523Y-91997004D01*
X131296904Y-92187480D01*
X131249285Y-92282718D01*
X131201666Y-92330337D01*
X131106428Y-92377956D01*
X131011190Y-92377956D01*
X130915952Y-92330337D01*
X130868333Y-92282718D01*
X130820714Y-92187480D01*
X130773095Y-91997004D01*
X130773095Y-91758909D01*
X130820714Y-91568433D01*
X130868333Y-91473195D01*
X130915952Y-91425576D01*
X131011190Y-91377956D01*
X132296904Y-92377956D02*
X131725476Y-92377956D01*
X132011190Y-92377956D02*
X132011190Y-91377956D01*
X131915952Y-91520814D01*
X131820714Y-91616052D01*
X131725476Y-91663671D01*
X132915952Y-91377956D02*
X133011190Y-91377956D01*
X133106428Y-91425576D01*
X133154047Y-91473195D01*
X133201666Y-91568433D01*
X133249285Y-91758909D01*
X133249285Y-91997004D01*
X133201666Y-92187480D01*
X133154047Y-92282718D01*
X133106428Y-92330337D01*
X133011190Y-92377956D01*
X132915952Y-92377956D01*
X132820714Y-92330337D01*
X132773095Y-92282718D01*
X132725476Y-92187480D01*
X132677857Y-91997004D01*
X132677857Y-91758909D01*
X132725476Y-91568433D01*
X132773095Y-91473195D01*
X132820714Y-91425576D01*
X132915952Y-91377956D01*
G04 #@! TO.C,0110*
X121168809Y-91377956D02*
X121264047Y-91377956D01*
X121359285Y-91425576D01*
X121406904Y-91473195D01*
X121454523Y-91568433D01*
X121502142Y-91758909D01*
X121502142Y-91997004D01*
X121454523Y-92187480D01*
X121406904Y-92282718D01*
X121359285Y-92330337D01*
X121264047Y-92377956D01*
X121168809Y-92377956D01*
X121073571Y-92330337D01*
X121025952Y-92282718D01*
X120978333Y-92187480D01*
X120930714Y-91997004D01*
X120930714Y-91758909D01*
X120978333Y-91568433D01*
X121025952Y-91473195D01*
X121073571Y-91425576D01*
X121168809Y-91377956D01*
X122454523Y-92377956D02*
X121883095Y-92377956D01*
X122168809Y-92377956D02*
X122168809Y-91377956D01*
X122073571Y-91520814D01*
X121978333Y-91616052D01*
X121883095Y-91663671D01*
X123406904Y-92377956D02*
X122835476Y-92377956D01*
X123121190Y-92377956D02*
X123121190Y-91377956D01*
X123025952Y-91520814D01*
X122930714Y-91616052D01*
X122835476Y-91663671D01*
X124025952Y-91377956D02*
X124121190Y-91377956D01*
X124216428Y-91425576D01*
X124264047Y-91473195D01*
X124311666Y-91568433D01*
X124359285Y-91758909D01*
X124359285Y-91997004D01*
X124311666Y-92187480D01*
X124264047Y-92282718D01*
X124216428Y-92330337D01*
X124121190Y-92377956D01*
X124025952Y-92377956D01*
X123930714Y-92330337D01*
X123883095Y-92282718D01*
X123835476Y-92187480D01*
X123787857Y-91997004D01*
X123787857Y-91758909D01*
X123835476Y-91568433D01*
X123883095Y-91473195D01*
X123930714Y-91425576D01*
X124025952Y-91377956D01*
G04 #@! TO.C,1110*
X112612142Y-92377956D02*
X112040714Y-92377956D01*
X112326428Y-92377956D02*
X112326428Y-91377956D01*
X112231190Y-91520814D01*
X112135952Y-91616052D01*
X112040714Y-91663671D01*
X113564523Y-92377956D02*
X112993095Y-92377956D01*
X113278809Y-92377956D02*
X113278809Y-91377956D01*
X113183571Y-91520814D01*
X113088333Y-91616052D01*
X112993095Y-91663671D01*
X114516904Y-92377956D02*
X113945476Y-92377956D01*
X114231190Y-92377956D02*
X114231190Y-91377956D01*
X114135952Y-91520814D01*
X114040714Y-91616052D01*
X113945476Y-91663671D01*
X115135952Y-91377956D02*
X115231190Y-91377956D01*
X115326428Y-91425576D01*
X115374047Y-91473195D01*
X115421666Y-91568433D01*
X115469285Y-91758909D01*
X115469285Y-91997004D01*
X115421666Y-92187480D01*
X115374047Y-92282718D01*
X115326428Y-92330337D01*
X115231190Y-92377956D01*
X115135952Y-92377956D01*
X115040714Y-92330337D01*
X114993095Y-92282718D01*
X114945476Y-92187480D01*
X114897857Y-91997004D01*
X114897857Y-91758909D01*
X114945476Y-91568433D01*
X114993095Y-91473195D01*
X115040714Y-91425576D01*
X115135952Y-91377956D01*
G04 #@! TO.C,1001*
X94832142Y-92377956D02*
X94260714Y-92377956D01*
X94546428Y-92377956D02*
X94546428Y-91377956D01*
X94451190Y-91520814D01*
X94355952Y-91616052D01*
X94260714Y-91663671D01*
X95451190Y-91377956D02*
X95546428Y-91377956D01*
X95641666Y-91425576D01*
X95689285Y-91473195D01*
X95736904Y-91568433D01*
X95784523Y-91758909D01*
X95784523Y-91997004D01*
X95736904Y-92187480D01*
X95689285Y-92282718D01*
X95641666Y-92330337D01*
X95546428Y-92377956D01*
X95451190Y-92377956D01*
X95355952Y-92330337D01*
X95308333Y-92282718D01*
X95260714Y-92187480D01*
X95213095Y-91997004D01*
X95213095Y-91758909D01*
X95260714Y-91568433D01*
X95308333Y-91473195D01*
X95355952Y-91425576D01*
X95451190Y-91377956D01*
X96403571Y-91377956D02*
X96498809Y-91377956D01*
X96594047Y-91425576D01*
X96641666Y-91473195D01*
X96689285Y-91568433D01*
X96736904Y-91758909D01*
X96736904Y-91997004D01*
X96689285Y-92187480D01*
X96641666Y-92282718D01*
X96594047Y-92330337D01*
X96498809Y-92377956D01*
X96403571Y-92377956D01*
X96308333Y-92330337D01*
X96260714Y-92282718D01*
X96213095Y-92187480D01*
X96165476Y-91997004D01*
X96165476Y-91758909D01*
X96213095Y-91568433D01*
X96260714Y-91473195D01*
X96308333Y-91425576D01*
X96403571Y-91377956D01*
X97689285Y-92377956D02*
X97117857Y-92377956D01*
X97403571Y-92377956D02*
X97403571Y-91377956D01*
X97308333Y-91520814D01*
X97213095Y-91616052D01*
X97117857Y-91663671D01*
G04 #@! TO.C,U1*
X141946380Y-113918904D02*
X142755904Y-113918904D01*
X142851142Y-113871285D01*
X142898761Y-113823666D01*
X142946380Y-113728428D01*
X142946380Y-113537952D01*
X142898761Y-113442714D01*
X142851142Y-113395095D01*
X142755904Y-113347476D01*
X141946380Y-113347476D01*
X142946380Y-112347476D02*
X142946380Y-112918904D01*
X142946380Y-112633190D02*
X141946380Y-112633190D01*
X142089238Y-112728428D01*
X142184476Y-112823666D01*
X142232095Y-112918904D01*
X142422571Y-125721380D02*
X142422571Y-125388047D01*
X142946380Y-125245190D02*
X142946380Y-125721380D01*
X141946380Y-125721380D01*
X141946380Y-125245190D01*
X142898761Y-124864238D02*
X142946380Y-124721380D01*
X142946380Y-124483285D01*
X142898761Y-124388047D01*
X142851142Y-124340428D01*
X142755904Y-124292809D01*
X142660666Y-124292809D01*
X142565428Y-124340428D01*
X142517809Y-124388047D01*
X142470190Y-124483285D01*
X142422571Y-124673761D01*
X142374952Y-124769000D01*
X142327333Y-124816619D01*
X142232095Y-124864238D01*
X142136857Y-124864238D01*
X142041619Y-124816619D01*
X141994000Y-124769000D01*
X141946380Y-124673761D01*
X141946380Y-124435666D01*
X141994000Y-124292809D01*
X142946380Y-123864238D02*
X141946380Y-123864238D01*
X141946380Y-123483285D01*
X141994000Y-123388047D01*
X142041619Y-123340428D01*
X142136857Y-123292809D01*
X142279714Y-123292809D01*
X142374952Y-123340428D01*
X142422571Y-123388047D01*
X142470190Y-123483285D01*
X142470190Y-123864238D01*
X141946380Y-122959476D02*
X141946380Y-122340428D01*
X142327333Y-122673761D01*
X142327333Y-122530904D01*
X142374952Y-122435666D01*
X142422571Y-122388047D01*
X142517809Y-122340428D01*
X142755904Y-122340428D01*
X142851142Y-122388047D01*
X142898761Y-122435666D01*
X142946380Y-122530904D01*
X142946380Y-122816619D01*
X142898761Y-122911857D01*
X142851142Y-122959476D01*
X142041619Y-121959476D02*
X141994000Y-121911857D01*
X141946380Y-121816619D01*
X141946380Y-121578523D01*
X141994000Y-121483285D01*
X142041619Y-121435666D01*
X142136857Y-121388047D01*
X142232095Y-121388047D01*
X142374952Y-121435666D01*
X142946380Y-122007095D01*
X142946380Y-121388047D01*
X142565428Y-120959476D02*
X142565428Y-120197571D01*
X141946380Y-119816619D02*
X142946380Y-119578523D01*
X142232095Y-119388047D01*
X142946380Y-119197571D01*
X141946380Y-118959476D01*
X142946380Y-118007095D02*
X142470190Y-118340428D01*
X142946380Y-118578523D02*
X141946380Y-118578523D01*
X141946380Y-118197571D01*
X141994000Y-118102333D01*
X142041619Y-118054714D01*
X142136857Y-118007095D01*
X142279714Y-118007095D01*
X142374952Y-118054714D01*
X142422571Y-118102333D01*
X142470190Y-118197571D01*
X142470190Y-118578523D01*
X141946380Y-117388047D02*
X141946380Y-117197571D01*
X141994000Y-117102333D01*
X142089238Y-117007095D01*
X142279714Y-116959476D01*
X142613047Y-116959476D01*
X142803523Y-117007095D01*
X142898761Y-117102333D01*
X142946380Y-117197571D01*
X142946380Y-117388047D01*
X142898761Y-117483285D01*
X142803523Y-117578523D01*
X142613047Y-117626142D01*
X142279714Y-117626142D01*
X142089238Y-117578523D01*
X141994000Y-117483285D01*
X141946380Y-117388047D01*
X141946380Y-116340428D02*
X141946380Y-116149952D01*
X141994000Y-116054714D01*
X142089238Y-115959476D01*
X142279714Y-115911857D01*
X142613047Y-115911857D01*
X142803523Y-115959476D01*
X142898761Y-116054714D01*
X142946380Y-116149952D01*
X142946380Y-116340428D01*
X142898761Y-116435666D01*
X142803523Y-116530904D01*
X142613047Y-116578523D01*
X142279714Y-116578523D01*
X142089238Y-116530904D01*
X141994000Y-116435666D01*
X141946380Y-116340428D01*
X142946380Y-115483285D02*
X141946380Y-115483285D01*
X142660666Y-115149952D01*
X141946380Y-114816619D01*
X142946380Y-114816619D01*
G04 #@! TO.C,BT1*
X125784285Y-125475571D02*
X125927142Y-125523190D01*
X125974761Y-125570809D01*
X126022380Y-125666047D01*
X126022380Y-125808904D01*
X125974761Y-125904142D01*
X125927142Y-125951761D01*
X125831904Y-125999380D01*
X125450952Y-125999380D01*
X125450952Y-124999380D01*
X125784285Y-124999380D01*
X125879523Y-125047000D01*
X125927142Y-125094619D01*
X125974761Y-125189857D01*
X125974761Y-125285095D01*
X125927142Y-125380333D01*
X125879523Y-125427952D01*
X125784285Y-125475571D01*
X125450952Y-125475571D01*
X126308095Y-124999380D02*
X126879523Y-124999380D01*
X126593809Y-125999380D02*
X126593809Y-124999380D01*
X127736666Y-125999380D02*
X127165238Y-125999380D01*
X127450952Y-125999380D02*
X127450952Y-124999380D01*
X127355714Y-125142238D01*
X127260476Y-125237476D01*
X127165238Y-125285095D01*
G04 #@! TO.C,C1*
X165117333Y-97908142D02*
X165069714Y-97955761D01*
X164926857Y-98003380D01*
X164831619Y-98003380D01*
X164688761Y-97955761D01*
X164593523Y-97860523D01*
X164545904Y-97765285D01*
X164498285Y-97574809D01*
X164498285Y-97431952D01*
X164545904Y-97241476D01*
X164593523Y-97146238D01*
X164688761Y-97051000D01*
X164831619Y-97003380D01*
X164926857Y-97003380D01*
X165069714Y-97051000D01*
X165117333Y-97098619D01*
X166069714Y-98003380D02*
X165498285Y-98003380D01*
X165784000Y-98003380D02*
X165784000Y-97003380D01*
X165688761Y-97146238D01*
X165593523Y-97241476D01*
X165498285Y-97289095D01*
G04 #@! TO.C,C2*
X156715333Y-97908142D02*
X156667714Y-97955761D01*
X156524857Y-98003380D01*
X156429619Y-98003380D01*
X156286761Y-97955761D01*
X156191523Y-97860523D01*
X156143904Y-97765285D01*
X156096285Y-97574809D01*
X156096285Y-97431952D01*
X156143904Y-97241476D01*
X156191523Y-97146238D01*
X156286761Y-97051000D01*
X156429619Y-97003380D01*
X156524857Y-97003380D01*
X156667714Y-97051000D01*
X156715333Y-97098619D01*
X157096285Y-97098619D02*
X157143904Y-97051000D01*
X157239142Y-97003380D01*
X157477238Y-97003380D01*
X157572476Y-97051000D01*
X157620095Y-97098619D01*
X157667714Y-97193857D01*
X157667714Y-97289095D01*
X157620095Y-97431952D01*
X157048666Y-98003380D01*
X157667714Y-98003380D01*
G04 #@! TO.C,C3*
X147571333Y-97908142D02*
X147523714Y-97955761D01*
X147380857Y-98003380D01*
X147285619Y-98003380D01*
X147142761Y-97955761D01*
X147047523Y-97860523D01*
X146999904Y-97765285D01*
X146952285Y-97574809D01*
X146952285Y-97431952D01*
X146999904Y-97241476D01*
X147047523Y-97146238D01*
X147142761Y-97051000D01*
X147285619Y-97003380D01*
X147380857Y-97003380D01*
X147523714Y-97051000D01*
X147571333Y-97098619D01*
X147904666Y-97003380D02*
X148523714Y-97003380D01*
X148190380Y-97384333D01*
X148333238Y-97384333D01*
X148428476Y-97431952D01*
X148476095Y-97479571D01*
X148523714Y-97574809D01*
X148523714Y-97812904D01*
X148476095Y-97908142D01*
X148428476Y-97955761D01*
X148333238Y-98003380D01*
X148047523Y-98003380D01*
X147952285Y-97955761D01*
X147904666Y-97908142D01*
G04 #@! TO.C,C4*
X138701333Y-97908142D02*
X138653714Y-97955761D01*
X138510857Y-98003380D01*
X138415619Y-98003380D01*
X138272761Y-97955761D01*
X138177523Y-97860523D01*
X138129904Y-97765285D01*
X138082285Y-97574809D01*
X138082285Y-97431952D01*
X138129904Y-97241476D01*
X138177523Y-97146238D01*
X138272761Y-97051000D01*
X138415619Y-97003380D01*
X138510857Y-97003380D01*
X138653714Y-97051000D01*
X138701333Y-97098619D01*
X139558476Y-97336714D02*
X139558476Y-98003380D01*
X139320380Y-96955761D02*
X139082285Y-97670047D01*
X139701333Y-97670047D01*
G04 #@! TO.C,C5*
X129791333Y-97908142D02*
X129743714Y-97955761D01*
X129600857Y-98003380D01*
X129505619Y-98003380D01*
X129362761Y-97955761D01*
X129267523Y-97860523D01*
X129219904Y-97765285D01*
X129172285Y-97574809D01*
X129172285Y-97431952D01*
X129219904Y-97241476D01*
X129267523Y-97146238D01*
X129362761Y-97051000D01*
X129505619Y-97003380D01*
X129600857Y-97003380D01*
X129743714Y-97051000D01*
X129791333Y-97098619D01*
X130696095Y-97003380D02*
X130219904Y-97003380D01*
X130172285Y-97479571D01*
X130219904Y-97431952D01*
X130315142Y-97384333D01*
X130553238Y-97384333D01*
X130648476Y-97431952D01*
X130696095Y-97479571D01*
X130743714Y-97574809D01*
X130743714Y-97812904D01*
X130696095Y-97908142D01*
X130648476Y-97955761D01*
X130553238Y-98003380D01*
X130315142Y-98003380D01*
X130219904Y-97955761D01*
X130172285Y-97908142D01*
G04 #@! TO.C,C6*
X121155333Y-97908142D02*
X121107714Y-97955761D01*
X120964857Y-98003380D01*
X120869619Y-98003380D01*
X120726761Y-97955761D01*
X120631523Y-97860523D01*
X120583904Y-97765285D01*
X120536285Y-97574809D01*
X120536285Y-97431952D01*
X120583904Y-97241476D01*
X120631523Y-97146238D01*
X120726761Y-97051000D01*
X120869619Y-97003380D01*
X120964857Y-97003380D01*
X121107714Y-97051000D01*
X121155333Y-97098619D01*
X122012476Y-97003380D02*
X121822000Y-97003380D01*
X121726761Y-97051000D01*
X121679142Y-97098619D01*
X121583904Y-97241476D01*
X121536285Y-97431952D01*
X121536285Y-97812904D01*
X121583904Y-97908142D01*
X121631523Y-97955761D01*
X121726761Y-98003380D01*
X121917238Y-98003380D01*
X122012476Y-97955761D01*
X122060095Y-97908142D01*
X122107714Y-97812904D01*
X122107714Y-97574809D01*
X122060095Y-97479571D01*
X122012476Y-97431952D01*
X121917238Y-97384333D01*
X121726761Y-97384333D01*
X121631523Y-97431952D01*
X121583904Y-97479571D01*
X121536285Y-97574809D01*
G04 #@! TO.C,C7*
X112011333Y-97908142D02*
X111963714Y-97955761D01*
X111820857Y-98003380D01*
X111725619Y-98003380D01*
X111582761Y-97955761D01*
X111487523Y-97860523D01*
X111439904Y-97765285D01*
X111392285Y-97574809D01*
X111392285Y-97431952D01*
X111439904Y-97241476D01*
X111487523Y-97146238D01*
X111582761Y-97051000D01*
X111725619Y-97003380D01*
X111820857Y-97003380D01*
X111963714Y-97051000D01*
X112011333Y-97098619D01*
X112344666Y-97003380D02*
X113011333Y-97003380D01*
X112582761Y-98003380D01*
G04 #@! TO.C,C8*
X102867333Y-97908142D02*
X102819714Y-97955761D01*
X102676857Y-98003380D01*
X102581619Y-98003380D01*
X102438761Y-97955761D01*
X102343523Y-97860523D01*
X102295904Y-97765285D01*
X102248285Y-97574809D01*
X102248285Y-97431952D01*
X102295904Y-97241476D01*
X102343523Y-97146238D01*
X102438761Y-97051000D01*
X102581619Y-97003380D01*
X102676857Y-97003380D01*
X102819714Y-97051000D01*
X102867333Y-97098619D01*
X103438761Y-97431952D02*
X103343523Y-97384333D01*
X103295904Y-97336714D01*
X103248285Y-97241476D01*
X103248285Y-97193857D01*
X103295904Y-97098619D01*
X103343523Y-97051000D01*
X103438761Y-97003380D01*
X103629238Y-97003380D01*
X103724476Y-97051000D01*
X103772095Y-97098619D01*
X103819714Y-97193857D01*
X103819714Y-97241476D01*
X103772095Y-97336714D01*
X103724476Y-97384333D01*
X103629238Y-97431952D01*
X103438761Y-97431952D01*
X103343523Y-97479571D01*
X103295904Y-97527190D01*
X103248285Y-97622428D01*
X103248285Y-97812904D01*
X103295904Y-97908142D01*
X103343523Y-97955761D01*
X103438761Y-98003380D01*
X103629238Y-98003380D01*
X103724476Y-97955761D01*
X103772095Y-97908142D01*
X103819714Y-97812904D01*
X103819714Y-97622428D01*
X103772095Y-97527190D01*
X103724476Y-97479571D01*
X103629238Y-97431952D01*
G04 #@! TO.C,C9*
X94231333Y-97908142D02*
X94183714Y-97955761D01*
X94040857Y-98003380D01*
X93945619Y-98003380D01*
X93802761Y-97955761D01*
X93707523Y-97860523D01*
X93659904Y-97765285D01*
X93612285Y-97574809D01*
X93612285Y-97431952D01*
X93659904Y-97241476D01*
X93707523Y-97146238D01*
X93802761Y-97051000D01*
X93945619Y-97003380D01*
X94040857Y-97003380D01*
X94183714Y-97051000D01*
X94231333Y-97098619D01*
X94707523Y-98003380D02*
X94898000Y-98003380D01*
X94993238Y-97955761D01*
X95040857Y-97908142D01*
X95136095Y-97765285D01*
X95183714Y-97574809D01*
X95183714Y-97193857D01*
X95136095Y-97098619D01*
X95088476Y-97051000D01*
X94993238Y-97003380D01*
X94802761Y-97003380D01*
X94707523Y-97051000D01*
X94659904Y-97098619D01*
X94612285Y-97193857D01*
X94612285Y-97431952D01*
X94659904Y-97527190D01*
X94707523Y-97574809D01*
X94802761Y-97622428D01*
X94993238Y-97622428D01*
X95088476Y-97574809D01*
X95136095Y-97527190D01*
X95183714Y-97431952D01*
G04 #@! TO.C,C10*
X84377142Y-97908142D02*
X84329523Y-97955761D01*
X84186666Y-98003380D01*
X84091428Y-98003380D01*
X83948571Y-97955761D01*
X83853333Y-97860523D01*
X83805714Y-97765285D01*
X83758095Y-97574809D01*
X83758095Y-97431952D01*
X83805714Y-97241476D01*
X83853333Y-97146238D01*
X83948571Y-97051000D01*
X84091428Y-97003380D01*
X84186666Y-97003380D01*
X84329523Y-97051000D01*
X84377142Y-97098619D01*
X85329523Y-98003380D02*
X84758095Y-98003380D01*
X85043809Y-98003380D02*
X85043809Y-97003380D01*
X84948571Y-97146238D01*
X84853333Y-97241476D01*
X84758095Y-97289095D01*
X85948571Y-97003380D02*
X86043809Y-97003380D01*
X86139047Y-97051000D01*
X86186666Y-97098619D01*
X86234285Y-97193857D01*
X86281904Y-97384333D01*
X86281904Y-97622428D01*
X86234285Y-97812904D01*
X86186666Y-97908142D01*
X86139047Y-97955761D01*
X86043809Y-98003380D01*
X85948571Y-98003380D01*
X85853333Y-97955761D01*
X85805714Y-97908142D01*
X85758095Y-97812904D01*
X85710476Y-97622428D01*
X85710476Y-97384333D01*
X85758095Y-97193857D01*
X85805714Y-97098619D01*
X85853333Y-97051000D01*
X85948571Y-97003380D01*
G04 #@! TO.C,C11*
X161677142Y-105504142D02*
X161629523Y-105551761D01*
X161486666Y-105599380D01*
X161391428Y-105599380D01*
X161248571Y-105551761D01*
X161153333Y-105456523D01*
X161105714Y-105361285D01*
X161058095Y-105170809D01*
X161058095Y-105027952D01*
X161105714Y-104837476D01*
X161153333Y-104742238D01*
X161248571Y-104647000D01*
X161391428Y-104599380D01*
X161486666Y-104599380D01*
X161629523Y-104647000D01*
X161677142Y-104694619D01*
X162629523Y-105599380D02*
X162058095Y-105599380D01*
X162343809Y-105599380D02*
X162343809Y-104599380D01*
X162248571Y-104742238D01*
X162153333Y-104837476D01*
X162058095Y-104885095D01*
X163581904Y-105599380D02*
X163010476Y-105599380D01*
X163296190Y-105599380D02*
X163296190Y-104599380D01*
X163200952Y-104742238D01*
X163105714Y-104837476D01*
X163010476Y-104885095D01*
G04 #@! TO.C,C12*
X169837857Y-106932714D02*
X169802142Y-106970809D01*
X169695000Y-107008904D01*
X169623571Y-107008904D01*
X169516428Y-106970809D01*
X169445000Y-106894619D01*
X169409285Y-106818428D01*
X169373571Y-106666047D01*
X169373571Y-106551761D01*
X169409285Y-106399380D01*
X169445000Y-106323190D01*
X169516428Y-106247000D01*
X169623571Y-106208904D01*
X169695000Y-106208904D01*
X169802142Y-106247000D01*
X169837857Y-106285095D01*
X170552142Y-107008904D02*
X170123571Y-107008904D01*
X170337857Y-107008904D02*
X170337857Y-106208904D01*
X170266428Y-106323190D01*
X170195000Y-106399380D01*
X170123571Y-106437476D01*
X170837857Y-106285095D02*
X170873571Y-106247000D01*
X170945000Y-106208904D01*
X171123571Y-106208904D01*
X171195000Y-106247000D01*
X171230714Y-106285095D01*
X171266428Y-106361285D01*
X171266428Y-106437476D01*
X171230714Y-106551761D01*
X170802142Y-107008904D01*
X171266428Y-107008904D01*
G04 #@! TO.C,C13*
X169837857Y-109128714D02*
X169802142Y-109166809D01*
X169695000Y-109204904D01*
X169623571Y-109204904D01*
X169516428Y-109166809D01*
X169445000Y-109090619D01*
X169409285Y-109014428D01*
X169373571Y-108862047D01*
X169373571Y-108747761D01*
X169409285Y-108595380D01*
X169445000Y-108519190D01*
X169516428Y-108443000D01*
X169623571Y-108404904D01*
X169695000Y-108404904D01*
X169802142Y-108443000D01*
X169837857Y-108481095D01*
X170552142Y-109204904D02*
X170123571Y-109204904D01*
X170337857Y-109204904D02*
X170337857Y-108404904D01*
X170266428Y-108519190D01*
X170195000Y-108595380D01*
X170123571Y-108633476D01*
X170802142Y-108404904D02*
X171266428Y-108404904D01*
X171016428Y-108709666D01*
X171123571Y-108709666D01*
X171195000Y-108747761D01*
X171230714Y-108785857D01*
X171266428Y-108862047D01*
X171266428Y-109052523D01*
X171230714Y-109128714D01*
X171195000Y-109166809D01*
X171123571Y-109204904D01*
X170909285Y-109204904D01*
X170837857Y-109166809D01*
X170802142Y-109128714D01*
G04 #@! TO.C,R1*
X157227133Y-105549980D02*
X156893800Y-105073790D01*
X156655704Y-105549980D02*
X156655704Y-104549980D01*
X157036657Y-104549980D01*
X157131895Y-104597600D01*
X157179514Y-104645219D01*
X157227133Y-104740457D01*
X157227133Y-104883314D01*
X157179514Y-104978552D01*
X157131895Y-105026171D01*
X157036657Y-105073790D01*
X156655704Y-105073790D01*
X158179514Y-105549980D02*
X157608085Y-105549980D01*
X157893800Y-105549980D02*
X157893800Y-104549980D01*
X157798561Y-104692838D01*
X157703323Y-104788076D01*
X157608085Y-104835695D01*
G04 #@! TO.C,J5*
X87586666Y-147449380D02*
X87586666Y-148163666D01*
X87539047Y-148306523D01*
X87443809Y-148401761D01*
X87300952Y-148449380D01*
X87205714Y-148449380D01*
X88539047Y-147449380D02*
X88062857Y-147449380D01*
X88015238Y-147925571D01*
X88062857Y-147877952D01*
X88158095Y-147830333D01*
X88396190Y-147830333D01*
X88491428Y-147877952D01*
X88539047Y-147925571D01*
X88586666Y-148020809D01*
X88586666Y-148258904D01*
X88539047Y-148354142D01*
X88491428Y-148401761D01*
X88396190Y-148449380D01*
X88158095Y-148449380D01*
X88062857Y-148401761D01*
X88015238Y-148354142D01*
G04 #@! TO.C,J11*
X109510476Y-147449380D02*
X109510476Y-148163666D01*
X109462857Y-148306523D01*
X109367619Y-148401761D01*
X109224761Y-148449380D01*
X109129523Y-148449380D01*
X110510476Y-148449380D02*
X109939047Y-148449380D01*
X110224761Y-148449380D02*
X110224761Y-147449380D01*
X110129523Y-147592238D01*
X110034285Y-147687476D01*
X109939047Y-147735095D01*
X111462857Y-148449380D02*
X110891428Y-148449380D01*
X111177142Y-148449380D02*
X111177142Y-147449380D01*
X111081904Y-147592238D01*
X110986666Y-147687476D01*
X110891428Y-147735095D01*
G04 #@! TO.C,J12*
X131510476Y-148249380D02*
X131510476Y-148963666D01*
X131462857Y-149106523D01*
X131367619Y-149201761D01*
X131224761Y-149249380D01*
X131129523Y-149249380D01*
X132510476Y-149249380D02*
X131939047Y-149249380D01*
X132224761Y-149249380D02*
X132224761Y-148249380D01*
X132129523Y-148392238D01*
X132034285Y-148487476D01*
X131939047Y-148535095D01*
X132891428Y-148344619D02*
X132939047Y-148297000D01*
X133034285Y-148249380D01*
X133272380Y-148249380D01*
X133367619Y-148297000D01*
X133415238Y-148344619D01*
X133462857Y-148439857D01*
X133462857Y-148535095D01*
X133415238Y-148677952D01*
X132843809Y-149249380D01*
X133462857Y-149249380D01*
G04 #@! TO.C,J13*
X152710476Y-147449380D02*
X152710476Y-148163666D01*
X152662857Y-148306523D01*
X152567619Y-148401761D01*
X152424761Y-148449380D01*
X152329523Y-148449380D01*
X153710476Y-148449380D02*
X153139047Y-148449380D01*
X153424761Y-148449380D02*
X153424761Y-147449380D01*
X153329523Y-147592238D01*
X153234285Y-147687476D01*
X153139047Y-147735095D01*
X154043809Y-147449380D02*
X154662857Y-147449380D01*
X154329523Y-147830333D01*
X154472380Y-147830333D01*
X154567619Y-147877952D01*
X154615238Y-147925571D01*
X154662857Y-148020809D01*
X154662857Y-148258904D01*
X154615238Y-148354142D01*
X154567619Y-148401761D01*
X154472380Y-148449380D01*
X154186666Y-148449380D01*
X154091428Y-148401761D01*
X154043809Y-148354142D01*
G04 #@! TO.C,J4*
X170186666Y-128449380D02*
X170186666Y-129163666D01*
X170139047Y-129306523D01*
X170043809Y-129401761D01*
X169900952Y-129449380D01*
X169805714Y-129449380D01*
X171091428Y-128782714D02*
X171091428Y-129449380D01*
X170853333Y-128401761D02*
X170615238Y-129116047D01*
X171234285Y-129116047D01*
X165155809Y-133881761D02*
X165298666Y-133929380D01*
X165536761Y-133929380D01*
X165632000Y-133881761D01*
X165679619Y-133834142D01*
X165727238Y-133738904D01*
X165727238Y-133643666D01*
X165679619Y-133548428D01*
X165632000Y-133500809D01*
X165536761Y-133453190D01*
X165346285Y-133405571D01*
X165251047Y-133357952D01*
X165203428Y-133310333D01*
X165155809Y-133215095D01*
X165155809Y-133119857D01*
X165203428Y-133024619D01*
X165251047Y-132977000D01*
X165346285Y-132929380D01*
X165584380Y-132929380D01*
X165727238Y-132977000D01*
X166536761Y-133881761D02*
X166441523Y-133929380D01*
X166251047Y-133929380D01*
X166155809Y-133881761D01*
X166108190Y-133786523D01*
X166108190Y-133405571D01*
X166155809Y-133310333D01*
X166251047Y-133262714D01*
X166441523Y-133262714D01*
X166536761Y-133310333D01*
X166584380Y-133405571D01*
X166584380Y-133500809D01*
X166108190Y-133596047D01*
X167012952Y-133929380D02*
X167012952Y-133262714D01*
X167012952Y-133453190D02*
X167060571Y-133357952D01*
X167108190Y-133310333D01*
X167203428Y-133262714D01*
X167298666Y-133262714D01*
X167632000Y-133929380D02*
X167632000Y-133262714D01*
X167632000Y-132929380D02*
X167584380Y-132977000D01*
X167632000Y-133024619D01*
X167679619Y-132977000D01*
X167632000Y-132929380D01*
X167632000Y-133024619D01*
X168536761Y-133929380D02*
X168536761Y-133405571D01*
X168489142Y-133310333D01*
X168393904Y-133262714D01*
X168203428Y-133262714D01*
X168108190Y-133310333D01*
X168536761Y-133881761D02*
X168441523Y-133929380D01*
X168203428Y-133929380D01*
X168108190Y-133881761D01*
X168060571Y-133786523D01*
X168060571Y-133691285D01*
X168108190Y-133596047D01*
X168203428Y-133548428D01*
X168441523Y-133548428D01*
X168536761Y-133500809D01*
X169155809Y-133929380D02*
X169060571Y-133881761D01*
X169012952Y-133786523D01*
X169012952Y-132929380D01*
G04 #@! TO.C,J7*
X152066666Y-127468380D02*
X152066666Y-128182666D01*
X152019047Y-128325523D01*
X151923809Y-128420761D01*
X151780952Y-128468380D01*
X151685714Y-128468380D01*
X152447619Y-127468380D02*
X153114285Y-127468380D01*
X152685714Y-128468380D01*
G04 #@! TO.C,J9*
X142160666Y-131405380D02*
X142160666Y-132119666D01*
X142113047Y-132262523D01*
X142017809Y-132357761D01*
X141874952Y-132405380D01*
X141779714Y-132405380D01*
X142684476Y-132405380D02*
X142874952Y-132405380D01*
X142970190Y-132357761D01*
X143017809Y-132310142D01*
X143113047Y-132167285D01*
X143160666Y-131976809D01*
X143160666Y-131595857D01*
X143113047Y-131500619D01*
X143065428Y-131453000D01*
X142970190Y-131405380D01*
X142779714Y-131405380D01*
X142684476Y-131453000D01*
X142636857Y-131500619D01*
X142589238Y-131595857D01*
X142589238Y-131833952D01*
X142636857Y-131929190D01*
X142684476Y-131976809D01*
X142779714Y-132024428D01*
X142970190Y-132024428D01*
X143065428Y-131976809D01*
X143113047Y-131929190D01*
X143160666Y-131833952D01*
G04 #@! TO.C,J14*
X82941676Y-130421180D02*
X82941676Y-131135466D01*
X82894057Y-131278323D01*
X82798819Y-131373561D01*
X82655961Y-131421180D01*
X82560723Y-131421180D01*
X83941676Y-131421180D02*
X83370247Y-131421180D01*
X83655961Y-131421180D02*
X83655961Y-130421180D01*
X83560723Y-130564038D01*
X83465485Y-130659276D01*
X83370247Y-130706895D01*
X84798819Y-130754514D02*
X84798819Y-131421180D01*
X84560723Y-130373561D02*
X84322628Y-131087847D01*
X84941676Y-131087847D01*
G04 #@! TO.C,C14*
X88427142Y-121954142D02*
X88379523Y-122001761D01*
X88236666Y-122049380D01*
X88141428Y-122049380D01*
X87998571Y-122001761D01*
X87903333Y-121906523D01*
X87855714Y-121811285D01*
X87808095Y-121620809D01*
X87808095Y-121477952D01*
X87855714Y-121287476D01*
X87903333Y-121192238D01*
X87998571Y-121097000D01*
X88141428Y-121049380D01*
X88236666Y-121049380D01*
X88379523Y-121097000D01*
X88427142Y-121144619D01*
X89379523Y-122049380D02*
X88808095Y-122049380D01*
X89093809Y-122049380D02*
X89093809Y-121049380D01*
X88998571Y-121192238D01*
X88903333Y-121287476D01*
X88808095Y-121335095D01*
X90236666Y-121382714D02*
X90236666Y-122049380D01*
X89998571Y-121001761D02*
X89760476Y-121716047D01*
X90379523Y-121716047D01*
G04 #@! TO.C,C15*
X99927142Y-115789857D02*
X99974761Y-115837476D01*
X100022380Y-115980333D01*
X100022380Y-116075571D01*
X99974761Y-116218428D01*
X99879523Y-116313666D01*
X99784285Y-116361285D01*
X99593809Y-116408904D01*
X99450952Y-116408904D01*
X99260476Y-116361285D01*
X99165238Y-116313666D01*
X99070000Y-116218428D01*
X99022380Y-116075571D01*
X99022380Y-115980333D01*
X99070000Y-115837476D01*
X99117619Y-115789857D01*
X100022380Y-114837476D02*
X100022380Y-115408904D01*
X100022380Y-115123190D02*
X99022380Y-115123190D01*
X99165238Y-115218428D01*
X99260476Y-115313666D01*
X99308095Y-115408904D01*
X99022380Y-113932714D02*
X99022380Y-114408904D01*
X99498571Y-114456523D01*
X99450952Y-114408904D01*
X99403333Y-114313666D01*
X99403333Y-114075571D01*
X99450952Y-113980333D01*
X99498571Y-113932714D01*
X99593809Y-113885095D01*
X99831904Y-113885095D01*
X99927142Y-113932714D01*
X99974761Y-113980333D01*
X100022380Y-114075571D01*
X100022380Y-114313666D01*
X99974761Y-114408904D01*
X99927142Y-114456523D01*
G04 #@! TO.C,C16*
X105177142Y-122004142D02*
X105129523Y-122051761D01*
X104986666Y-122099380D01*
X104891428Y-122099380D01*
X104748571Y-122051761D01*
X104653333Y-121956523D01*
X104605714Y-121861285D01*
X104558095Y-121670809D01*
X104558095Y-121527952D01*
X104605714Y-121337476D01*
X104653333Y-121242238D01*
X104748571Y-121147000D01*
X104891428Y-121099380D01*
X104986666Y-121099380D01*
X105129523Y-121147000D01*
X105177142Y-121194619D01*
X106129523Y-122099380D02*
X105558095Y-122099380D01*
X105843809Y-122099380D02*
X105843809Y-121099380D01*
X105748571Y-121242238D01*
X105653333Y-121337476D01*
X105558095Y-121385095D01*
X106986666Y-121099380D02*
X106796190Y-121099380D01*
X106700952Y-121147000D01*
X106653333Y-121194619D01*
X106558095Y-121337476D01*
X106510476Y-121527952D01*
X106510476Y-121908904D01*
X106558095Y-122004142D01*
X106605714Y-122051761D01*
X106700952Y-122099380D01*
X106891428Y-122099380D01*
X106986666Y-122051761D01*
X107034285Y-122004142D01*
X107081904Y-121908904D01*
X107081904Y-121670809D01*
X107034285Y-121575571D01*
X106986666Y-121527952D01*
X106891428Y-121480333D01*
X106700952Y-121480333D01*
X106605714Y-121527952D01*
X106558095Y-121575571D01*
X106510476Y-121670809D01*
G04 #@! TO.C,C17*
X96877142Y-110354142D02*
X96829523Y-110401761D01*
X96686666Y-110449380D01*
X96591428Y-110449380D01*
X96448571Y-110401761D01*
X96353333Y-110306523D01*
X96305714Y-110211285D01*
X96258095Y-110020809D01*
X96258095Y-109877952D01*
X96305714Y-109687476D01*
X96353333Y-109592238D01*
X96448571Y-109497000D01*
X96591428Y-109449380D01*
X96686666Y-109449380D01*
X96829523Y-109497000D01*
X96877142Y-109544619D01*
X97829523Y-110449380D02*
X97258095Y-110449380D01*
X97543809Y-110449380D02*
X97543809Y-109449380D01*
X97448571Y-109592238D01*
X97353333Y-109687476D01*
X97258095Y-109735095D01*
X98162857Y-109449380D02*
X98829523Y-109449380D01*
X98400952Y-110449380D01*
G04 #@! TO.C,C18*
X100427142Y-122004142D02*
X100379523Y-122051761D01*
X100236666Y-122099380D01*
X100141428Y-122099380D01*
X99998571Y-122051761D01*
X99903333Y-121956523D01*
X99855714Y-121861285D01*
X99808095Y-121670809D01*
X99808095Y-121527952D01*
X99855714Y-121337476D01*
X99903333Y-121242238D01*
X99998571Y-121147000D01*
X100141428Y-121099380D01*
X100236666Y-121099380D01*
X100379523Y-121147000D01*
X100427142Y-121194619D01*
X101379523Y-122099380D02*
X100808095Y-122099380D01*
X101093809Y-122099380D02*
X101093809Y-121099380D01*
X100998571Y-121242238D01*
X100903333Y-121337476D01*
X100808095Y-121385095D01*
X101950952Y-121527952D02*
X101855714Y-121480333D01*
X101808095Y-121432714D01*
X101760476Y-121337476D01*
X101760476Y-121289857D01*
X101808095Y-121194619D01*
X101855714Y-121147000D01*
X101950952Y-121099380D01*
X102141428Y-121099380D01*
X102236666Y-121147000D01*
X102284285Y-121194619D01*
X102331904Y-121289857D01*
X102331904Y-121337476D01*
X102284285Y-121432714D01*
X102236666Y-121480333D01*
X102141428Y-121527952D01*
X101950952Y-121527952D01*
X101855714Y-121575571D01*
X101808095Y-121623190D01*
X101760476Y-121718428D01*
X101760476Y-121908904D01*
X101808095Y-122004142D01*
X101855714Y-122051761D01*
X101950952Y-122099380D01*
X102141428Y-122099380D01*
X102236666Y-122051761D01*
X102284285Y-122004142D01*
X102331904Y-121908904D01*
X102331904Y-121718428D01*
X102284285Y-121623190D01*
X102236666Y-121575571D01*
X102141428Y-121527952D01*
G04 #@! TO.C,C19*
X93427142Y-122004142D02*
X93379523Y-122051761D01*
X93236666Y-122099380D01*
X93141428Y-122099380D01*
X92998571Y-122051761D01*
X92903333Y-121956523D01*
X92855714Y-121861285D01*
X92808095Y-121670809D01*
X92808095Y-121527952D01*
X92855714Y-121337476D01*
X92903333Y-121242238D01*
X92998571Y-121147000D01*
X93141428Y-121099380D01*
X93236666Y-121099380D01*
X93379523Y-121147000D01*
X93427142Y-121194619D01*
X94379523Y-122099380D02*
X93808095Y-122099380D01*
X94093809Y-122099380D02*
X94093809Y-121099380D01*
X93998571Y-121242238D01*
X93903333Y-121337476D01*
X93808095Y-121385095D01*
X94855714Y-122099380D02*
X95046190Y-122099380D01*
X95141428Y-122051761D01*
X95189047Y-122004142D01*
X95284285Y-121861285D01*
X95331904Y-121670809D01*
X95331904Y-121289857D01*
X95284285Y-121194619D01*
X95236666Y-121147000D01*
X95141428Y-121099380D01*
X94950952Y-121099380D01*
X94855714Y-121147000D01*
X94808095Y-121194619D01*
X94760476Y-121289857D01*
X94760476Y-121527952D01*
X94808095Y-121623190D01*
X94855714Y-121670809D01*
X94950952Y-121718428D01*
X95141428Y-121718428D01*
X95236666Y-121670809D01*
X95284285Y-121623190D01*
X95331904Y-121527952D01*
G04 #@! TO.C,J8*
X119152380Y-130480333D02*
X119866666Y-130480333D01*
X120009523Y-130527952D01*
X120104761Y-130623190D01*
X120152380Y-130766047D01*
X120152380Y-130861285D01*
X119580952Y-129861285D02*
X119533333Y-129956523D01*
X119485714Y-130004142D01*
X119390476Y-130051761D01*
X119342857Y-130051761D01*
X119247619Y-130004142D01*
X119200000Y-129956523D01*
X119152380Y-129861285D01*
X119152380Y-129670809D01*
X119200000Y-129575571D01*
X119247619Y-129527952D01*
X119342857Y-129480333D01*
X119390476Y-129480333D01*
X119485714Y-129527952D01*
X119533333Y-129575571D01*
X119580952Y-129670809D01*
X119580952Y-129861285D01*
X119628571Y-129956523D01*
X119676190Y-130004142D01*
X119771428Y-130051761D01*
X119961904Y-130051761D01*
X120057142Y-130004142D01*
X120104761Y-129956523D01*
X120152380Y-129861285D01*
X120152380Y-129670809D01*
X120104761Y-129575571D01*
X120057142Y-129527952D01*
X119961904Y-129480333D01*
X119771428Y-129480333D01*
X119676190Y-129527952D01*
X119628571Y-129575571D01*
X119580952Y-129670809D01*
G04 #@! TO.C,R2*
X97553333Y-107249380D02*
X97220000Y-106773190D01*
X96981904Y-107249380D02*
X96981904Y-106249380D01*
X97362857Y-106249380D01*
X97458095Y-106297000D01*
X97505714Y-106344619D01*
X97553333Y-106439857D01*
X97553333Y-106582714D01*
X97505714Y-106677952D01*
X97458095Y-106725571D01*
X97362857Y-106773190D01*
X96981904Y-106773190D01*
X97934285Y-106344619D02*
X97981904Y-106297000D01*
X98077142Y-106249380D01*
X98315238Y-106249380D01*
X98410476Y-106297000D01*
X98458095Y-106344619D01*
X98505714Y-106439857D01*
X98505714Y-106535095D01*
X98458095Y-106677952D01*
X97886666Y-107249380D01*
X98505714Y-107249380D01*
G04 #@! TO.C,U4*
X100772380Y-113158904D02*
X101581904Y-113158904D01*
X101677142Y-113111285D01*
X101724761Y-113063666D01*
X101772380Y-112968428D01*
X101772380Y-112777952D01*
X101724761Y-112682714D01*
X101677142Y-112635095D01*
X101581904Y-112587476D01*
X100772380Y-112587476D01*
X101105714Y-111682714D02*
X101772380Y-111682714D01*
X100724761Y-111920809D02*
X101439047Y-112158904D01*
X101439047Y-111539857D01*
G04 #@! TO.C,J10*
X82910476Y-118849380D02*
X82910476Y-119563666D01*
X82862857Y-119706523D01*
X82767619Y-119801761D01*
X82624761Y-119849380D01*
X82529523Y-119849380D01*
X83910476Y-119849380D02*
X83339047Y-119849380D01*
X83624761Y-119849380D02*
X83624761Y-118849380D01*
X83529523Y-118992238D01*
X83434285Y-119087476D01*
X83339047Y-119135095D01*
X84529523Y-118849380D02*
X84624761Y-118849380D01*
X84720000Y-118897000D01*
X84767619Y-118944619D01*
X84815238Y-119039857D01*
X84862857Y-119230333D01*
X84862857Y-119468428D01*
X84815238Y-119658904D01*
X84767619Y-119754142D01*
X84720000Y-119801761D01*
X84624761Y-119849380D01*
X84529523Y-119849380D01*
X84434285Y-119801761D01*
X84386666Y-119754142D01*
X84339047Y-119658904D01*
X84291428Y-119468428D01*
X84291428Y-119230333D01*
X84339047Y-119039857D01*
X84386666Y-118944619D01*
X84434285Y-118897000D01*
X84529523Y-118849380D01*
G04 #@! TO.C,R3*
X112772380Y-114763666D02*
X112296190Y-115097000D01*
X112772380Y-115335095D02*
X111772380Y-115335095D01*
X111772380Y-114954142D01*
X111820000Y-114858904D01*
X111867619Y-114811285D01*
X111962857Y-114763666D01*
X112105714Y-114763666D01*
X112200952Y-114811285D01*
X112248571Y-114858904D01*
X112296190Y-114954142D01*
X112296190Y-115335095D01*
X111772380Y-114430333D02*
X111772380Y-113811285D01*
X112153333Y-114144619D01*
X112153333Y-114001761D01*
X112200952Y-113906523D01*
X112248571Y-113858904D01*
X112343809Y-113811285D01*
X112581904Y-113811285D01*
X112677142Y-113858904D01*
X112724761Y-113906523D01*
X112772380Y-114001761D01*
X112772380Y-114287476D01*
X112724761Y-114382714D01*
X112677142Y-114430333D01*
G04 #@! TO.C,U3*
X89558095Y-107349380D02*
X89558095Y-108158904D01*
X89605714Y-108254142D01*
X89653333Y-108301761D01*
X89748571Y-108349380D01*
X89939047Y-108349380D01*
X90034285Y-108301761D01*
X90081904Y-108254142D01*
X90129523Y-108158904D01*
X90129523Y-107349380D01*
X90510476Y-107349380D02*
X91129523Y-107349380D01*
X90796190Y-107730333D01*
X90939047Y-107730333D01*
X91034285Y-107777952D01*
X91081904Y-107825571D01*
X91129523Y-107920809D01*
X91129523Y-108158904D01*
X91081904Y-108254142D01*
X91034285Y-108301761D01*
X90939047Y-108349380D01*
X90653333Y-108349380D01*
X90558095Y-108301761D01*
X90510476Y-108254142D01*
G04 #@! TO.C,R4*
X135703333Y-125149380D02*
X135370000Y-124673190D01*
X135131904Y-125149380D02*
X135131904Y-124149380D01*
X135512857Y-124149380D01*
X135608095Y-124197000D01*
X135655714Y-124244619D01*
X135703333Y-124339857D01*
X135703333Y-124482714D01*
X135655714Y-124577952D01*
X135608095Y-124625571D01*
X135512857Y-124673190D01*
X135131904Y-124673190D01*
X136560476Y-124482714D02*
X136560476Y-125149380D01*
X136322380Y-124101761D02*
X136084285Y-124816047D01*
X136703333Y-124816047D01*
G04 #@! TO.C,J1*
X141572380Y-106980333D02*
X142286666Y-106980333D01*
X142429523Y-107027952D01*
X142524761Y-107123190D01*
X142572380Y-107266047D01*
X142572380Y-107361285D01*
X142572380Y-105980333D02*
X142572380Y-106551761D01*
X142572380Y-106266047D02*
X141572380Y-106266047D01*
X141715238Y-106361285D01*
X141810476Y-106456523D01*
X141858095Y-106551761D01*
G04 #@! TD*
M02*
