G04 #@! TF.GenerationSoftware,KiCad,Pcbnew,5.0.1*
G04 #@! TF.CreationDate,2019-01-12T14:11:00-06:00*
G04 #@! TF.ProjectId,lid,6C69642E6B696361645F706362000000,rev?*
G04 #@! TF.SameCoordinates,Original*
G04 #@! TF.FileFunction,Legend,Bot*
G04 #@! TF.FilePolarity,Positive*
%FSLAX46Y46*%
G04 Gerber Fmt 4.6, Leading zero omitted, Abs format (unit mm)*
G04 Created by KiCad (PCBNEW 5.0.1) date Sat 12 Jan 2019 02:11:00 PM CST*
%MOMM*%
%LPD*%
G01*
G04 APERTURE LIST*
%ADD10C,0.150000*%
G04 APERTURE END LIST*
G04 #@! TO.C,REF\002A\002A*
D10*
X173333333Y-124452380D02*
X173666666Y-123976190D01*
X173904761Y-124452380D02*
X173904761Y-123452380D01*
X173523809Y-123452380D01*
X173428571Y-123500000D01*
X173380952Y-123547619D01*
X173333333Y-123642857D01*
X173333333Y-123785714D01*
X173380952Y-123880952D01*
X173428571Y-123928571D01*
X173523809Y-123976190D01*
X173904761Y-123976190D01*
X172904761Y-123928571D02*
X172571428Y-123928571D01*
X172428571Y-124452380D02*
X172904761Y-124452380D01*
X172904761Y-123452380D01*
X172428571Y-123452380D01*
X171666666Y-123928571D02*
X172000000Y-123928571D01*
X172000000Y-124452380D02*
X172000000Y-123452380D01*
X171523809Y-123452380D01*
X171000000Y-123452380D02*
X171000000Y-123690476D01*
X171238095Y-123595238D02*
X171000000Y-123690476D01*
X170761904Y-123595238D01*
X171142857Y-123880952D02*
X171000000Y-123690476D01*
X170857142Y-123880952D01*
X170238095Y-123452380D02*
X170238095Y-123690476D01*
X170476190Y-123595238D02*
X170238095Y-123690476D01*
X170000000Y-123595238D01*
X170380952Y-123880952D02*
X170238095Y-123690476D01*
X170095238Y-123880952D01*
G04 #@! TD*
M02*
